<svg xmlns="http://www.w3.org/2000/svg" viewBox="0 0 141.91 133.33"><title>AngrKangaroo</title><g id="Layer_2" data-name="Layer 2"><g id="svg2"><g id="g10"><g id="g12"><path id="path292" d="M81.3,74c-.09-.15-.35,0-.28.14a14.25,14.25,0,0,1,.78,2,27.9,27.9,0,0,0-3-4.18,49.21,49.21,0,0,0-4.35-5.21,8.39,8.39,0,0,0-5.86-2.66,8.71,8.71,0,0,0-3.89,1.23l2-1.2c.12-.08,0-.29-.12-.22-8.3,4.05-17.48,8.61-21.86,17a10.24,10.24,0,0,0-1.29,6.93A18.55,18.55,0,0,0,47.29,95c1.9,2.13,3.58,3.52,5.51,5.62,1.29,1.41,2.74,2.84,4.14,4.21a32.6,32.6,0,0,1,2.42,4.56A39.48,39.48,0,0,1,62,119.27a63.39,63.39,0,0,1-9.47,2.49c-3.61.66-7.47,1.12-11-.06a31.8,31.8,0,0,0-4-1.44,4.85,4.85,0,0,0-3.51.8,4.35,4.35,0,0,0-1.9,2.79,2.39,2.39,0,0,0,.59,1.91,2,2,0,0,0-.23,1c.05,1.57,2.38,2.25,3.58,2.63,4.72,1.47,9.46,1,14.2-.1,2.56-.6,5.16-1.23,7.68-2s4.79-1.73,7.28-2.33c1.31-.32,3.82-.33,4.28-1.93.35-1.21-.75-2.41-1.82-3.29A115.08,115.08,0,0,1,64.94,108c-.43-3.16.75-5.65,2.33-8.14a19.38,19.38,0,0,1,2.14-1.49c1.4-.85,2.91-1.49,4.32-2.32a22.07,22.07,0,0,0,6.69-6.1,14.46,14.46,0,0,0,.88-16" fill="#6a5549"/><path id="path294" d="M32.7,125.76c-.09-.11-.17-.23-.25-.35.08.12.16.24.25.35m27.35-5.84c.66-.21,1.31-.42,2-.65h0c-.63.22-1.27.43-1.91.63l-.05,0" fill="#a69990"/><path id="path296" d="M51,123.75a20.53,20.53,0,0,1-8.55.72,48.28,48.28,0,0,0-4.91-1.08,5.22,5.22,0,0,0-4.49,1.81,4.26,4.26,0,0,1,1.43-2.44c1.34-1.08,3.13-.43,4.53.13a14.86,14.86,0,0,0,8.57.63c4.68-1.12,0-.14,0-.12a14.7,14.7,0,0,1-6.56-.19c-1.47-.38-2.91-1.39-4.47-1.39-2.24,0-3.58,1.92-3.79,3.92v.05a2.64,2.64,0,0,0-.15.7h0c1.16-2.89,4.44-2.93,7.11-2.28a23.8,23.8,0,0,0,4.17.88,14.62,14.62,0,0,0,4.2-.61l2.9-.74" fill="#453838"/><path id="path298" d="M56.37,122.47c-2.27.43-4.52,1.06-6.76,1.63-2.54.65-4.87,1.32-7.51.87s-7.82-2.43-8.92,1.23l.07,0c1.32-1.6,2.86-1.75,4.85-1.44s3.93,1,6,1a23.5,23.5,0,0,0,5.64-1.33c2.21-.63,4.41-1.36,6.66-1.85,1.8-.39.05-.15,0-.13" fill="#a0856d"/><path id="path300" d="M60.4,120c-3.13.83-7.15,1.8-9.57,2.17a22.83,22.83,0,0,1-8.12-.15c-2-.41-4.25-1.72-6.32-1.69a4.7,4.7,0,0,0-3.8,2.5l.07,0a5.52,5.52,0,0,1,5.41-1.69c1,.17,1.87.53,2.8.79a22.09,22.09,0,0,0,3.7.67,26,26,0,0,0,6.71-.21c2.33-.36,4.61-1.15,6.9-1.69L60.4,120" fill="#a0856d"/><path id="path302" d="M48.51,123.42a20.42,20.42,0,0,1-5.06.3,20.23,20.23,0,0,1-5.1-1.18,3.83,3.83,0,0,0-4.92,1.53l0,0c.94-.94,1.8-1.67,3.23-1.53a33.26,33.26,0,0,1,3.87,1.09,18.68,18.68,0,0,0,8-.14c.06,0,2.47-.52,0-.1" fill="#a0856d"/><path id="path304" d="M40.49,128.31a16.51,16.51,0,0,1-5.1-.71c-.65-.21-2.39-.8-2.5-1.63a4.52,4.52,0,0,1,4.23-2.09,11.47,11.47,0,0,1,2.62.34,23.8,23.8,0,0,0,4.17.88h-.06A10.58,10.58,0,0,1,42.1,125a32,32,0,0,0-5.44-.93c-1.59,0-3,.49-3.48,2.16l.07,0a4,4,0,0,1,3.37-1.57,9.77,9.77,0,0,1,1.48.13c1.95.29,3.8,1,5.78,1H44a4.15,4.15,0,0,0-.11.48,2.36,2.36,0,0,0,.29,1.57,1.65,1.65,0,0,0,.15.25l-1.72.15c-.71.05-1.43.08-2.16.08m-8-2.9a2.35,2.35,0,0,1-.37-1.21,2.16,2.16,0,0,1,0-.35,4.35,4.35,0,0,1,1.9-2.79,5.11,5.11,0,0,1,2.75-.87,3.91,3.91,0,0,1,.76.07,31.8,31.8,0,0,1,4,1.44q.46.15.93.27c-1.91-.46-4-1.63-6-1.63h-.06a4.7,4.7,0,0,0-3.8,2.5l.07,0a5.4,5.4,0,0,1,4.07-1.82,7,7,0,0,1,1.34.13c1,.17,1.87.53,2.8.79a22.09,22.09,0,0,0,3.7.67c.7.08,1.4.12,2.1.13a5.3,5.3,0,0,0-.73.42l-.24.17a12.67,12.67,0,0,1-1.49-.13,22.36,22.36,0,0,1-3.6-.92,15.64,15.64,0,0,0-3.43-.91,6.51,6.51,0,0,0-.77,0,4.48,4.48,0,0,0-2.53.68,2.91,2.91,0,0,0-1.21,1.43,1.78,1.78,0,0,1-.41.78l-.18,0h0a2.34,2.34,0,0,0,.37,1.16" fill="#46342b"/><path id="path306" d="M42.42,130.32a21.23,21.23,0,0,1-6.37-.93c-1.2-.38-3.53-1.06-3.58-2.63v-.07a2,2,0,0,1,.23-.93h0c-.09-.11-.17-.23-.25-.35a2.34,2.34,0,0,1-.37-1.16l.18,0a1.78,1.78,0,0,0,.41-.78,2.91,2.91,0,0,1,1.21-1.43,4.48,4.48,0,0,1,2.53-.68,6.51,6.51,0,0,1,.77,0,15.64,15.64,0,0,1,3.43.91,22.36,22.36,0,0,0,3.6.92,12.67,12.67,0,0,0,1.49.13l-.34.29h-.64a14.66,14.66,0,0,1-3.71-.47c-1.47-.38-2.9-1.39-4.46-1.39h0c-2.24,0-3.58,1.92-3.79,3.92v.05a2.64,2.64,0,0,0-.15.7h0a5.23,5.23,0,0,1,.26-.53c.11.83,1.85,1.42,2.5,1.63a16.51,16.51,0,0,0,5.1.71c.73,0,1.45,0,2.16-.08l1.72-.15.19.27a2.07,2.07,0,0,0-.25,1v.08a1.8,1.8,0,0,0,.22.8c-.7,0-1.41.08-2.11.08m-10.34-6.07h0" fill="#2e201a"/><path id="path308" d="M44.84,124.24a22.16,22.16,0,0,1-5.1-.77,11.52,11.52,0,0,0-2.84-.5,4.35,4.35,0,0,0-.51,0,4,4,0,0,0-1.64.46,3.08,3.08,0,0,1-1,.52l-.09-.08a3.7,3.7,0,0,1,2.66-1.33h.35a33.26,33.26,0,0,1,3.87,1.09A15.45,15.45,0,0,0,44,124l1,0-.2.24" fill="#46342b"/><path id="path310" d="M33.06,125.2a4.56,4.56,0,0,1,.39-1.11h0l.22-.21.09.08a3.08,3.08,0,0,0,1-.52,4,4,0,0,1,1.64-.46,4.35,4.35,0,0,1,.51,0,11.52,11.52,0,0,1,2.84.5,22.16,22.16,0,0,0,5.1.77c-.11.14-.2.28-.29.42a11.13,11.13,0,0,1-2.09-.19,48.28,48.28,0,0,0-4.91-1.08l-.43,0a5.09,5.09,0,0,0-4.06,1.83" fill="#2e201a"/><path id="path312" d="M59.09,124.71a15.83,15.83,0,0,1-5.2-.8c-.34-.12-.67-.25-1-.39,1.16-.34,2.33-.66,3.51-.92.79-.17.9-.22.76-.22s-.74.08-.79.09c-1.22.23-2.44.52-3.65.83l.33-.09-.57.08h-.1a17.56,17.56,0,0,0-1.86-.74l.76-.11c2.33-.36,4.61-1.15,6.9-1.69L60.4,120c-3.13.83-7.15,1.8-9.57,2.17l-1.18.15-.44-.06c1.12-.13,2.24-.31,3.33-.51a63.68,63.68,0,0,0,7.56-1.86l1-.24a3.68,3.68,0,0,1,.88-.15,1.34,1.34,0,0,1,.35,0c.35.09.59.49.83.72.85.78,2.15.39,3.2.72.64.2,1.32.63,1.31,1.37,0,1.45-2.3,1-3.24,1.17-.57.11-1.11.37-1.67.52s-1.32.31-2,.44l-1,.21h-.67" fill="#46342b"/><path id="path314" d="M59.76,124.7l1-.21c.66-.13,1.33-.27,2-.44s1.1-.41,1.67-.52c.94-.17,3.21.28,3.24-1.17,0-.74-.67-1.17-1.31-1.37-1-.33-2.35.06-3.2-.72-.24-.23-.48-.63-.83-.72a1.34,1.34,0,0,0-.35,0,3.68,3.68,0,0,0-.88.15l-1,.24c.64-.2,1.28-.41,1.91-.63h0a39.48,39.48,0,0,0-2.65-9.91,32.6,32.6,0,0,0-2.42-4.56c-1.4-1.37-2.85-2.8-4.14-4.21l-.63-.67a27.92,27.92,0,0,0,3.86.5h.12c.39,0,.78,0,1.17,0a23.28,23.28,0,0,0,5.37-.66c.57-.14,1.16-.3,1.75-.47.46.47.92,1,1.39,1.5l.51.56a10.94,10.94,0,0,0-1.49,5.26h0A8.41,8.41,0,0,0,65,108a112.48,112.48,0,0,0,2.72,11.83c.93.76,1.88,1.78,1.89,2.82a1.53,1.53,0,0,1-.07.47s0,0,0,0c-1.29.32-2.6.61-3.92.86a37.39,37.39,0,0,1-5.8.73m-7.26-1.35-.12,0h.1l.57-.08-.33.09-.22,0" fill="#2e201a"/><path id="path316" d="M33.67,123.73l0-.1.17-.24.06,0a3.29,3.29,0,0,1,2-1.18h.27a3.77,3.77,0,0,1,.58,0h-.19a3.57,3.57,0,0,0-2.94,1.51" fill="#46342b"/><path id="path318" d="M33.54,123.9c.05-.09.1-.18.16-.27l0,.1-.13.17m.33-.51a3.68,3.68,0,0,1,.62-.63,2.59,2.59,0,0,1,1.46-.57,3.29,3.29,0,0,0-2,1.18l-.06,0" fill="#2e201a"/><path id="path320" d="M47.07,122.47c-.62,0-1.25,0-1.87-.08.41,0,.82,0,1.23,0s.88,0,1.32,0l-.28.08h-.4" fill="#46342b"/><path id="path322" d="M32.63,126.5h0a2.64,2.64,0,0,1,.15-.7v-.05c.21-2,1.55-3.9,3.79-3.92h0c1.56,0,3,1,4.46,1.39a14.66,14.66,0,0,0,3.71.47h.64l-.1.09h-.47c-.44,0-.89,0-1.34,0a20.23,20.23,0,0,1-5.1-1.18,5.36,5.36,0,0,0-1.55-.32,3.77,3.77,0,0,0-.58,0H36a2.59,2.59,0,0,0-1.46.57,3.68,3.68,0,0,0-.62.63l-.17.24c-.06.09-.11.18-.16.27l-.12.17,0,0a5,5,0,0,0-.38,1.11,5.09,5.09,0,0,1,4.06-1.83l.43,0a48.28,48.28,0,0,1,4.91,1.08,11.13,11.13,0,0,0,2.09.19,4.79,4.79,0,0,0-.25.45h-.39a23.8,23.8,0,0,1-4.17-.88,11.47,11.47,0,0,0-2.62-.34A4.52,4.52,0,0,0,32.89,126a5.23,5.23,0,0,0-.26.53" fill="#2e2321"/><path id="path324" d="M33.25,126.23l-.07,0c.51-1.67,1.89-2.16,3.48-2.16a32,32,0,0,1,5.44.93,10.58,10.58,0,0,0,1.75.14h.45a5.46,5.46,0,0,0-.26.67h-.16c-2,0-3.83-.7-5.78-1a9.77,9.77,0,0,0-1.48-.13,4,4,0,0,0-3.37,1.57m19.64-2.71-.39-.17.22,0c1.21-.31,2.43-.6,3.65-.83.05,0,.61-.09.79-.09s0,.05-.76.22c-1.18.26-2.35.58-3.51.92" fill="#674d3d"/><path id="path326" d="M32.66,122.89l-.07,0a4.7,4.7,0,0,1,3.8-2.5h.06c2,0,4.09,1.17,6,1.63a15,15,0,0,0,2.75.42c.62,0,1.25.08,1.87.08h.4a4.94,4.94,0,0,0-.8.32c-.7,0-1.4-.05-2.1-.13a22.09,22.09,0,0,1-3.7-.67c-.93-.26-1.84-.62-2.8-.79a7,7,0,0,0-1.34-.13,5.4,5.4,0,0,0-4.07,1.82m17.86-.33a8.37,8.37,0,0,0-.86-.23h0l1.18-.15c2.42-.37,6.44-1.34,9.57-2.17l-2.22.75c-2.29.54-4.57,1.33-6.9,1.69l-.76.11" fill="#674d3d"/><path id="path328" d="M33.46,124.1h0l0,0a1.63,1.63,0,0,1,.11-.17l.13-.17a3.57,3.57,0,0,1,2.94-1.51h.19a5.36,5.36,0,0,1,1.55.32,20.23,20.23,0,0,0,5.1,1.18c.45,0,.9,0,1.34,0h.47L45,124l-1,0a15.45,15.45,0,0,1-3.45-.37,33.26,33.26,0,0,0-3.87-1.09h-.35a3.7,3.7,0,0,0-2.66,1.33l-.22.21" fill="#674d3d"/><path id="path330" d="M37.07,101.58c-.16-.4-.62-1.12-1.16-1s-.91.59-1.13,1.19h0a4.06,4.06,0,0,0-.71-.49,12.5,12.5,0,0,1,.17-1.88,5,5,0,0,0-.24-3,11.4,11.4,0,0,0-1.39-1.86c-.85-1.15.07-2.78.51-3.92.82-2.08.41-4.13-.13-6.24a38,38,0,0,0-1.31-4.08A37.08,37.08,0,0,0,30.35,73c-.77-3.09-1.42-6.19-2-9.31-.42-2.29-1.38-7.19-4.67-6.45l-.11,0a31,31,0,0,0-5,11.5c-.88,4.21-1.4,9,.15,13.14,1.42,3.8,4.87,5.72,7.47,8.6.6.67,1.3,1.24,1.87,1.94a4.19,4.19,0,0,1,.63,3l0,.3c-.63,1.52-1.35,3-1.94,4.55s-1,2.67-.38,4.11a4.31,4.31,0,0,0,2.56,2.46,1.93,1.93,0,0,0,2-.46,5.59,5.59,0,0,0,.65.39,1.87,1.87,0,0,0,2.7-.77,2.6,2.6,0,0,0,.63.3c1.53.51,2.24-1.2,2.41-2.39a4.74,4.74,0,0,0-.22-2.42" fill="#6a5549"/><path id="path332" d="M32.61,107.14a2.45,2.45,0,0,1-.58-.08h.09v0a6.87,6.87,0,0,1-2.18-1.8,14.43,14.43,0,0,1-1.23-2c0-.12,0-.23,0-.34.47,1.07,1.15,2.25,2.35,2.39h.2a1.17,1.17,0,0,0,1.05-.57c.29-.2.26-.71.19-1.21a12.71,12.71,0,0,0,1.14,1.88,3.36,3.36,0,0,0,.64.74h0a1.71,1.71,0,0,1-1.64,1m-3-.12a2.6,2.6,0,0,1-.65-.09,4.31,4.31,0,0,1-2.56-2.46h0a3.79,3.79,0,0,1-.27-1.66l.19.18a3.27,3.27,0,0,0,1.43,2.41.89.89,0,0,0,.45.14c.62,0,.67-1.08.58-2a6.44,6.44,0,0,0,2.1,3,1.79,1.79,0,0,1-1.27.51m5.83-.53-.21,0A4.06,4.06,0,0,1,33.59,105a21.53,21.53,0,0,1-1.18-1.86c0-.19,0-.36,0-.5a17.1,17.1,0,0,0,1.5,1.69l.17-.14c-.37-1.57-1.87-2.93-1.63-4.63.09-.62.53-1.74.18-2.38,0-1.21-.86-1.52-1.18-2.79a11.91,11.91,0,0,1-.32-1.88c-.06-.76,0-1.52,0-2.27-.22-5-4.66-8.59-7.45-12.32a18.18,18.18,0,0,1-1.93-3.19,19.25,19.25,0,0,1-1.31-4.78,15.93,15.93,0,0,1,0-5.51,5.61,5.61,0,0,0,.23-1.79c.06-.15.13-.3.2-.45,0,.46-.06.93-.06,1.39a16,16,0,0,0,.09,1.71h0v.21c0,.24.07.49.11.73a5.81,5.81,0,0,0-.05.72h0v0h.2a8.51,8.51,0,0,1,.54-1.59,13.33,13.33,0,0,0-.23,2.43h0a12.63,12.63,0,0,0,3.53,8.71,15.74,15.74,0,0,0,2.27,2h0l0,0c.7.5,1.44,1,2.18,1.39A11.86,11.86,0,0,0,32,81.25c.36,1,.68,2,.95,3.1a15.09,15.09,0,0,1,.59,3.71,6.81,6.81,0,0,1-.46,2.53,8.48,8.48,0,0,0-.86,2.79,1.87,1.87,0,0,0,.35,1.13A11.4,11.4,0,0,1,34,96.37a4,4,0,0,1,.35,1.73c0,.15,0,.3,0,.45a3.29,3.29,0,0,0-.05-.54h0A12,12,0,0,1,34,100.4a3.58,3.58,0,0,0,.09,1.95h0a8.26,8.26,0,0,1,0-.86,6,6,0,0,1,1.33,1.46h0a2.75,2.75,0,0,0-1-1.4,2.23,2.23,0,0,1,.24.19h0c.22-.6.57-1.1,1.13-1.19H36c.49,0,.91.65,1.06,1a11.9,11.9,0,0,0,.28,1.29c0,.11,0,.23,0,.34a5.29,5.29,0,0,1-.06.8c-.15,1-.71,2.49-1.88,2.49" fill="#46342b"/><path id="path334" d="M141.69,125a6.06,6.06,0,0,0-1.09-.52A21.23,21.23,0,0,0,130,121.9c-4.55-.11-9.11.11-13.66.18-3.59.06-7,0-10.38-1.47a11.4,11.4,0,0,1-3-1.94c-1-1.85-.84-4.07-.84-6.26,0-6.73.32-13.46.08-20.19a58.78,58.78,0,0,0-3-18.14,43.83,43.83,0,0,0-3.64-7.6c-.61-1-1.27-2.08-2-3.11-1.07-1.76-2.22-3.47-3.43-5.12a75.8,75.8,0,0,0-5.94-6.73A19.13,19.13,0,0,0,78,46.73c-2.54-1.06-5.53-.68-8.12-.09-3,.67-5.67,2.07-8.54,3-.91.3-1.84.56-2.78.78-1.09-.29-2.17-.61-3.24-1a37.28,37.28,0,0,1-7.79-4,26.85,26.85,0,0,1-9.15-9.68l0-.17c-.25-1.19-.5-3.31-1.76-3.91-2.46-1.16-5.47-.59-7.83.52S24.29,35.3,23.91,38a9.35,9.35,0,0,0,1,4.57A11.73,11.73,0,0,1,26,47.83a13.88,13.88,0,0,1-2.13,4V52a10.07,10.07,0,0,0-.83,1.16l.1.09.57-.47a16,16,0,0,0-2,4.57A4.19,4.19,0,0,0,21.25,59h.12a5.45,5.45,0,0,1,1.79-2.58,9.48,9.48,0,0,0-1.51,2.33,13.29,13.29,0,0,0-.7,7.44,3.94,3.94,0,0,0-.05.77h.2a8.51,8.51,0,0,1,.54-1.59,12.57,12.57,0,0,0,3.3,11.14,22.3,22.3,0,0,0,5.89,4.14,9.91,9.91,0,0,0,2.63,1l.35.52c3.57,5.19,5.83,11.46,11.36,15a22.25,22.25,0,0,0,11,3.26,22.5,22.5,0,0,0,6.54-.62,32,32,0,0,0,4.19-1.29c3.5-1,6.94-2.14,10.48-2.94a44.72,44.72,0,0,1,5.75-.93c6.2,5.12,6.44,15.41,9.67,22.5,5.75,12.66,17.8,9.93,29,8.18a65.7,65.7,0,0,1,9.9-.84,28.43,28.43,0,0,1,5.05.4c1.52.26,3,1,4.54,1.1.47,0,.93-.63.43-.94" fill="#6a5549"/><path id="path336" d="M141.26,126h0c-1.48-.15-2.94-.81-4.43-1.08,1.42.26,2.82.87,4.22,1h0A17.17,17.17,0,0,0,139,125a24.06,24.06,0,0,0-7.83-1.12h-.72c-4,0-8,.39-12,.59-1.47.07-3,.13-4.45.13a32.61,32.61,0,0,1-7.64-.78,13.9,13.9,0,0,1-8.71-5.7,17.27,17.27,0,0,1-2.34-6A79.12,79.12,0,0,1,94,101.33c-.21-3.37-.32-6.74-.55-10.11a23.3,23.3,0,0,0,1.63-2.08c.32-.47.62-.94.9-1.42.16,2.28.2,4.56.32,6.83.17,3.54.2,7.09.46,10.63.34,4.62,1.19,9.7,4,13.51a10,10,0,0,0,4.81,3.64,8.12,8.12,0,0,0,1,.25,18.57,18.57,0,0,0,6.52,1.18c.63,0,1.25,0,1.87,0,2.87,0,5.71-.24,8.57-.51,2.16-.2,4.34-.4,6.51-.4a27.46,27.46,0,0,1,4.61.36,17.46,17.46,0,0,1,6.88,2.68l-.25,0m-4.43-1.09h0m0,0h0m0,0h0M57.66,72.33c0-.26.05-.51.07-.75.14-1.72.27-3.51.27-5.29q0-1.58-.15-3.12h0a15.77,15.77,0,0,0,.33,1.69,3.37,3.37,0,0,0,1.91,2.22,3.85,3.85,0,0,0,1.43.25,10.41,10.41,0,0,0,1.7-.18c1.4-.23,2.79-.53,4.17-.86,1.76-.44,3.52-1,5.25-1.56A60.57,60.57,0,0,0,67,68.3c-.49.17-1,.35-1.45.54-2.63,1-5.19,2.18-7.73,3.39l-.2.1" fill="#46342b"/><path id="path338" d="M39.84,38.16c-.26-.36-.5-.73-.73-1.1h0c.23.37.48.73.73,1.09h0" fill="#a69990"/><path id="path340" d="M36.81,41.93c-.07-.72-.17-1.44-.31-2.15.19-.18.37-.38.55-.57a16.89,16.89,0,0,0,1.53-1.52h0c.18-.21.36-.42.53-.64.23.37.47.74.73,1.1a10.46,10.46,0,0,1-3,3.77" fill="#46342b"/><path id="path342" d="M139,125a24.06,24.06,0,0,0-7.83-1.12c-4.24-.05-8.47.38-12.71.59a43,43,0,0,1-12.09-.65,13.9,13.9,0,0,1-8.71-5.7,17.27,17.27,0,0,1-2.34-6A79.12,79.12,0,0,1,94,101.33c-.23-3.8-.34-7.6-.65-11.39a87.14,87.14,0,0,0-1.64-11.25,34.64,34.64,0,0,0-2.23-7,18.73,18.73,0,0,0-1.87-3.38A17.45,17.45,0,0,0,79.74,66c-4.86-.23-9.66,1.12-14.15,2.86-2.62,1-5.19,2.18-7.73,3.39s-5,2.63-7.73,3.09a8.58,8.58,0,0,1-7.05-1.87,17.48,17.48,0,0,1-4.73-7,29.68,29.68,0,0,1-2-8.57,27.92,27.92,0,0,1-.06-4.29c.11-1.68.37-3.34.49-5C37,45,37.13,41.16,36,37.73c-.79-2.29-2-4.43-2.81-6.69a11.94,11.94,0,0,0-4.4,1.15C26.4,33.3,24.29,35.3,23.91,38a9.35,9.35,0,0,0,1,4.57A11.73,11.73,0,0,1,26,47.83a13.88,13.88,0,0,1-2.13,4V52a10.07,10.07,0,0,0-.83,1.16l.1.09.57-.47a16,16,0,0,0-2,4.57A4.19,4.19,0,0,0,21.25,59h.12a5.45,5.45,0,0,1,1.79-2.58,9.48,9.48,0,0,0-1.51,2.33,13.29,13.29,0,0,0-.7,7.44,3.94,3.94,0,0,0-.05.77h.2a8.51,8.51,0,0,1,.54-1.59,12.57,12.57,0,0,0,3.3,11.14,22.3,22.3,0,0,0,5.89,4.14,9.91,9.91,0,0,0,2.63,1l.35.52c3.57,5.19,5.83,11.46,11.36,15a22.25,22.25,0,0,0,11,3.26,22.5,22.5,0,0,0,6.54-.62,32,32,0,0,0,4.19-1.29c3.5-1,6.94-2.14,10.48-2.94a44.72,44.72,0,0,1,5.75-.93c6.2,5.12,6.44,15.41,9.67,22.5,5.75,12.66,17.8,9.93,29,8.18a65.7,65.7,0,0,1,9.9-.84,28.43,28.43,0,0,1,5.05.4c1.46.25,2.89.88,4.33,1.07A17.17,17.17,0,0,0,139,125" fill="#f0d8b1"/><path id="path344" d="M25.32,49.52c.19-.39.37-.78.52-1.18a11.14,11.14,0,0,1-.52,1.18h0" fill="#9b8164"/><path id="path346" d="M25.32,49.52h0a11.14,11.14,0,0,0,.52-1.18c.06-.17.13-.34.18-.51a5.33,5.33,0,0,0,0-.56,7.5,7.5,0,0,0-.06-1l.54-.39c.42-.28.84-.54,1.27-.79,1.57-.87,3.3-1.44,4.86-2.34a17.89,17.89,0,0,0,3.85-3c.14.71.24,1.43.31,2.15l-.26.23a33.43,33.43,0,0,1-5.73,4,50.5,50.5,0,0,0-5.5,3.36" fill="#e0b378"/><path id="path348" d="M108.64,126.84c-6.48,0-12.26-2-15.77-9.5.21.45.43.89.66,1.3-.26-.8-.49-1.62-.69-2.43-.36-1.42-.64-2.85-.9-4.29s-.64-3.13-1-4.7a27.17,27.17,0,0,1-.87-5.29,10.77,10.77,0,0,1,.8-4.33,47.86,47.86,0,0,1,2.64-5.26c0-.37,0-.74-.08-1.11h0c.23,3.37.34,6.74.55,10.11a79.12,79.12,0,0,0,1.29,10.85,17.27,17.27,0,0,0,2.34,6,13.9,13.9,0,0,0,8.71,5.7,32.61,32.61,0,0,0,7.64.78c1.49,0,3-.06,4.45-.13,4-.2,8-.59,12-.59h.72A24.06,24.06,0,0,1,139,125a17.17,17.17,0,0,1,2.1.93c-1.44-.19-2.87-.82-4.33-1.07a29.49,29.49,0,0,0-5-.4h-.08a65.7,65.7,0,0,0-9.9.84,87.57,87.57,0,0,1-13.13,1.52" fill="#e0b378"/><path id="path350" d="M56.15,100.42h0" fill="#e0b378"/><path id="path352" d="M56.09,100.42h0" fill="#e0b378"/><path id="path354" d="M56,100.42a22.26,22.26,0,0,1-10.86-3.26c-.36-.23-.7-.47-1-.72a6.35,6.35,0,0,1-.88-1.06c.88-4,3.45-7.54,6.29-10.71A19.75,19.75,0,0,1,54,88.5c1.44,1.74,2.73,4,2.49,6.36-.27,2.63-3.29,3.58-5.48,4a14.26,14.26,0,0,1-1.93.22,25,25,0,0,0,7,1.36m-16.9-9.59c-1-1.5-1.9-3.08-2.81-4.64a2.53,2.53,0,0,1,.13.22h0a4.14,4.14,0,0,1-.06-2.9c.72-1.6,2.67-2,4.32-2,.27,0,.52,0,.76,0a7.77,7.77,0,0,1,1.18.15,51.11,51.11,0,0,1-1.93,4.94c-.59,1.39-1.14,2.77-1.59,4.2" fill="#e0b378"/><path id="path356" d="M35.67,85.08c-.59-1-1.2-2-1.86-2.94.66,1,1.27,1.94,1.86,2.94" fill="#e0b378"/><path id="path358" d="M21,66.19c0-.24-.08-.49-.11-.73,0,.24.07.49.11.73" fill="#2b1c16"/><path id="path360" d="M20.84,65.44v0" fill="#2b1c16"/><path id="path362" d="M20.83,65.39v-.14h0v.14" fill="#2b1c16"/><path id="path364" d="M34.89,80.77c-3.56,0-7-2-9.93-4.23a16.08,16.08,0,0,0,2.25,1.94,15.14,15.14,0,0,1-2.26-2,12.6,12.6,0,0,1-3.54-8.71,13.33,13.33,0,0,1,.23-2.43h0A8.51,8.51,0,0,0,21.1,67h-.2v0a5.81,5.81,0,0,1,.05-.72h0c0-.24-.08-.49-.11-.73h0v0h0v0h0v0h0v-.14a16.43,16.43,0,0,1,1.68-4,12.22,12.22,0,0,0-.38,5.54,10.15,10.15,0,0,0,3.22,5.63,7,7,0,0,0,4.74,2.18,4.92,4.92,0,0,0,1-.1c1.74-.33,2.75-1.87,3.62-3.28a5.34,5.34,0,0,1-.07,1.91.14.14,0,0,0,.13.15.11.11,0,0,0,.09-.06,23.13,23.13,0,0,0,2.2-8.68c.1.47.21.93.32,1.39a15.34,15.34,0,0,0,.68,4.16,15.57,15.57,0,0,0,2.24,4.1c.74,1.05,1.29,2.13.81,3.41A4.59,4.59,0,0,1,38.58,80a8.94,8.94,0,0,1-3.69.78" fill="#e0b378"/><path id="path366" d="M27.25,78.51l0,0,0,0" fill="#e0b378"/><path id="path368" d="M92.87,117.34h0m0,0c0-.06,0-.11-.07-.17-2.76-6.06-3.33-14.44-7.31-20h0c4,5.51,4.55,13.89,7.31,20,0,.06,0,.11.07.17" fill="#f0d8b1"/><path id="path370" d="M56.1,100.42h0m-.06,0h0" fill="#2b1c16"/><path id="path372" d="M36.32,86.19c-.21-.37-.43-.74-.65-1.11.22.37.44.74.65,1.11" fill="#f0d8b1"/><path id="path374" d="M29.43,79.9c-.74-.43-1.48-.89-2.18-1.39a23.54,23.54,0,0,0,2.18,1.38h0m-2.21-1.41h0" fill="#412b20"/><path id="path376" d="M93.53,118.64c-.23-.41-.45-.85-.66-1.3h0l0,0c0-.06,0-.11-.07-.17-2.76-6.06-3.33-14.44-7.31-20,.85-.45,1.69-.88,2.51-1.38a23.64,23.64,0,0,0,5.44-4.58c0,.37,0,.74.08,1.11a47.86,47.86,0,0,0-2.64,5.26,10.77,10.77,0,0,0-.8,4.33,27.17,27.17,0,0,0,.87,5.29c.37,1.57.72,3.12,1,4.7s.54,2.87.9,4.29c.2.81.43,1.63.69,2.43M57.32,100.46c-.39,0-.78,0-1.17,0H56a25,25,0,0,1-7-1.36A14.26,14.26,0,0,0,51,98.84c2.19-.4,5.21-1.35,5.48-4,.24-2.34-1.05-4.62-2.49-6.36a19.75,19.75,0,0,0-4.42-3.83c1.3-1.46,2.67-2.84,4-4.18a17.11,17.11,0,0,0,3.21-4.09,11.59,11.59,0,0,0,.95-4.07l.2-.1C60.4,71,63,69.85,65.59,68.84c.48-.19,1-.37,1.45-.54a30.87,30.87,0,0,0-9.86,11A13.18,13.18,0,0,0,55.62,85a8,8,0,0,0,.2,1.82A20.34,20.34,0,0,0,60,94.68c1.55,1.8,3,3.1,4.45,4.65-.6.17-1.18.33-1.76.47a23.28,23.28,0,0,1-5.37.66m-20.87-14a2.53,2.53,0,0,0-.13-.22c-.21-.37-.43-.74-.65-1.11-.59-1-1.2-2-1.86-2.94h0c-.1-.15-.19-.3-.29-.44a9.33,9.33,0,0,0,2.09.25,4.79,4.79,0,0,0,4.1-1.87L39.64,80a6.07,6.07,0,0,1-4.21,1.5,13.61,13.61,0,0,1-6.07-1.71l0,0,.09.06a23.54,23.54,0,0,1-2.18-1.38l0,0h0A16.08,16.08,0,0,1,25,76.54c2.92,2.24,6.37,4.23,9.93,4.23A8.94,8.94,0,0,0,38.58,80a4.59,4.59,0,0,0,2.52-2.34c.48-1.28-.07-2.36-.81-3.41a15.57,15.57,0,0,1-2.24-4.1A15.34,15.34,0,0,1,37.37,66a20.7,20.7,0,0,0,1.34,3.93c.8,1.67,2.17,2.87,3.31,4.29,1.69,2.09,1.43,4.85.63,7.49a7.77,7.77,0,0,0-1.18-.15c-.24,0-.49,0-.76,0-1.65,0-3.6.4-4.32,2a4.14,4.14,0,0,0,.06,2.9" fill="#d39551"/><path id="path378" d="M96,71.7c-.09-.16-.37,0-.3.15a17.4,17.4,0,0,1,.84,2.2,32.72,32.72,0,0,0-3.23-4.57,54.73,54.73,0,0,0-4.6-5.69,8.74,8.74,0,0,0-6.2-2.91,9,9,0,0,0-4.12,1.35l2.07-1.31c.12-.09,0-.32-.13-.25-8.79,4.43-18.51,9.42-23.14,18.58a11.49,11.49,0,0,0-1.36,7.58A20.34,20.34,0,0,0,60,94.68c2,2.34,3.78,3.85,5.83,6.15,1.36,1.53,2.9,3.1,4.38,4.6a37.78,37.78,0,0,1,2.57,5,44.93,44.93,0,0,1,2.8,10.84,64.22,64.22,0,0,1-10,2.72c-3.82.73-7.92,1.23-11.67-.06a32.66,32.66,0,0,0-4.23-1.58,5,5,0,0,0-3.72.88,4.73,4.73,0,0,0-2,3.05,2.64,2.64,0,0,0,.63,2.09,2.12,2.12,0,0,0-.25,1.09c0,1.72,2.52,2.46,3.8,2.87,5,1.61,10,1.12,15-.1,2.71-.66,5.46-1.35,8.13-2.15s5.07-1.88,7.7-2.55c1.38-.35,4.05-.35,4.53-2.11.37-1.32-.8-2.64-1.92-3.6a126.61,126.61,0,0,1-2.89-12.94c-.46-3.44.79-6.17,2.47-8.89a21,21,0,0,1,2.26-1.63c1.48-.92,3.08-1.62,4.57-2.53a23.84,23.84,0,0,0,7.08-6.67A16.25,16.25,0,0,0,96,71.7" fill="#6a5549"/><path id="path380" d="M44.37,128.08a1.65,1.65,0,0,1-.15-.25,1.65,1.65,0,0,0,.15.25h0" fill="#2e201a"/><path id="path382" d="M44.56,128.35l-.19-.27h0l.19.27h0" fill="#201814"/><path id="path384" d="M73.51,122l1.61-.55q-.8.28-1.59.54h0" fill="#a69990"/><path id="path386" d="M96,87.72v0a16.11,16.11,0,0,0,1.66-11.85A14.62,14.62,0,0,1,96,87.72" fill="#46342b"/><path id="path388" d="M93.43,91.22h0a23.3,23.3,0,0,0,1.63-2.08c.33-.47.62-1,.9-1.44v0c-.28.48-.58,1-.9,1.42a23.3,23.3,0,0,1-1.63,2.08" fill="#2e201a"/><path id="path390" d="M96.53,74.05h0a17.4,17.4,0,0,0-.84-2.2v0a17.4,17.4,0,0,1,.84,2.2m0,0a15.63,15.63,0,0,0-1.07-1.74,15.63,15.63,0,0,1,1.07,1.74" fill="#46342b"/><path id="path392" d="M54.84,133.33a21.78,21.78,0,0,1-6.73-1c-1.06-.34-2.94-.91-3.58-2.07a1.8,1.8,0,0,1-.22-.8v-.08a2.07,2.07,0,0,1,.25-1h0l-.19-.27a1.65,1.65,0,0,1-.15-.25,2.57,2.57,0,0,1-.32-1.14h0l.19,0a1.94,1.94,0,0,0,.43-.86,3.26,3.26,0,0,1,1.28-1.56,4.63,4.63,0,0,1,2.69-.75,7.34,7.34,0,0,1,.81,0,16.32,16.32,0,0,1,3.62,1,21.94,21.94,0,0,0,3.82,1,13.2,13.2,0,0,0,2,.15,23.23,23.23,0,0,0,4.3-.49,23.61,23.61,0,0,1-5.89.85A15,15,0,0,1,54,125.8a14.57,14.57,0,0,1-2.79-1,5.82,5.82,0,0,0-2.29-.5h0a3.73,3.73,0,0,0-3,1.39l-.14.05a1.81,1.81,0,0,0-.17.46l.14.14a3.31,3.31,0,0,0,1-.57,4,4,0,0,1,1.73-.5l.53,0a11.92,11.92,0,0,1,3,.55,22.28,22.28,0,0,0,5.65.85q.51,0,1,0c2.28-.16,4.55-.7,6.82-1l.61-.08c-1.26.34-2.53.68-3.79,1a24.17,24.17,0,0,1-4.36.85l-.6,0a14,14,0,0,1-3.09-.39,25.85,25.85,0,0,0-5.48-1,4.12,4.12,0,0,0-3.89,2h0c-.74,1.2,1.7,2.05,2.51,2.32a16.87,16.87,0,0,0,5.39.77c.77,0,1.54,0,2.3-.09a63,63,0,0,0,10.38-1.65c1.45-.36,2.88-.82,4.32-1.27h.09l.49-.19.26-.08c.77-.23,1.54-.42,2.3-.62l1.33-.28q1.06-.21,2.1-.48c.59-.16,1.16-.45,1.76-.57,1-.19,3.4.31,3.43-1.29,0-.81-.7-1.27-1.38-1.49-1.11-.36-2.49.07-3.39-.79-.26-.25-.5-.69-.87-.79a1.55,1.55,0,0,0-.37,0,3.7,3.7,0,0,0-.94.16l-1.07.28q.8-.26,1.59-.54l.46-.16h0a44.93,44.93,0,0,0-2.8-10.84,37.78,37.78,0,0,0-2.57-5c-1.48-1.5-3-3.07-4.38-4.6-.47-.54-.93-1-1.38-1.5-1.5-1.55-2.9-2.85-4.45-4.65a20.34,20.34,0,0,1-4.18-7.85,8,8,0,0,1-.2-1.82,13.18,13.18,0,0,1,1.56-5.76,27.16,27.16,0,0,1,4.7-6.53c-1.93,3.19-3,6.75-2.09,10.62a12,12,0,0,0,3.76,6.42,12.76,12.76,0,0,0,5.63,2.57,20.11,20.11,0,0,0,4.11.41,27.29,27.29,0,0,0,9.4-1.8,23.86,23.86,0,0,0,5.93-3.28,17.91,17.91,0,0,0,6.11-7.31,13.75,13.75,0,0,0,.32-8.6l.41.56a15.63,15.63,0,0,1,1.07,1.74h0a17.4,17.4,0,0,0-.84-2.2v0s0,0,0,0a6.43,6.43,0,0,1,.52.68,16.85,16.85,0,0,1,1.41,3.35A16.11,16.11,0,0,1,96,87.7c-.28.49-.57,1-.9,1.44a23.3,23.3,0,0,1-1.63,2.08h0A23.64,23.64,0,0,1,88,95.81c-.82.5-1.66.93-2.51,1.38s-1.39.73-2.06,1.15A21,21,0,0,0,81.15,100a14,14,0,0,0-2.56,7.48,11.36,11.36,0,0,0,.09,1.41,126.61,126.61,0,0,0,2.89,12.94c1,.84,2,2,2,3.09a1.79,1.79,0,0,1-.07.51c-.48,1.76-3.15,1.76-4.53,2.11-2.63.67-5.11,1.77-7.7,2.55s-5.42,1.49-8.13,2.15a35.25,35.25,0,0,1-8.29,1.12" fill="#46342b"/><path id="path394" d="M63.94,126.14a19.36,19.36,0,0,1-9,.8,49,49,0,0,0-5.21-1.18,5.44,5.44,0,0,0-4.75,2,4.7,4.7,0,0,1,1.52-2.66c1.41-1.18,3.32-.47,4.79.14a15.19,15.19,0,0,0,9.08.68c4.95-1.21,0-.14,0-.13a15.09,15.09,0,0,1-6.94-.2c-1.56-.42-3.08-1.53-4.73-1.52-2.37,0-3.79,2.1-4,4.29v0a2.78,2.78,0,0,0-.16.77h0c1.23-3.15,4.7-3.2,7.52-2.49a23.94,23.94,0,0,0,4.41,1,15.33,15.33,0,0,0,4.45-.66l3.07-.82" fill="#453838"/><path id="path396" d="M61.6,126.75a15.93,15.93,0,0,1-7.1.73c-2.64-.46-8.27-2.66-9.43,1.35l.07,0c1.39-1.76,3-1.91,5.13-1.58,4.7.75,6.87,1.41,11.33-.53" fill="#a0856d"/><path id="path398" d="M73.87,122.06c-3.31.91-7.56,2-10.13,2.37a23.4,23.4,0,0,1-8.59-.16c-2.11-.45-4.49-1.88-6.69-1.85a4.94,4.94,0,0,0-4,2.73l.06,0a5.77,5.77,0,0,1,5.73-1.84c1,.19,2,.58,3,.87a22.52,22.52,0,0,0,3.9.73,27.31,27.31,0,0,0,7.11-.23c2.47-.39,4.88-1.26,7.31-1.85l2.34-.82" fill="#a0856d"/><path id="path400" d="M61.29,125.79a20.91,20.91,0,0,1-5.36.32,20.84,20.84,0,0,1-5.4-1.28,4,4,0,0,0-5.21,1.67l0,0c1-1,1.9-1.83,3.42-1.67a35.86,35.86,0,0,1,4.09,1.19,19.13,19.13,0,0,0,8.45-.15c.06,0,2.62-.57,0-.11" fill="#a0856d"/><path id="path402" d="M72,89.66q-.47,0-.93,0c-4.73-.3-10.36-3.09-10.82-8.35a11.09,11.09,0,0,1,2.66-7.58,24.5,24.5,0,0,1,6.75-5.65,60.84,60.84,0,0,1,7.19-3.79c.82-.36,1.67-.7,2.54-1a12.58,12.58,0,0,1,1.73-.12l.56,0a10.8,10.8,0,0,1,8.52,5c3.23,5.24-.41,11.79-4.36,15.49-3.61,3.4-8.78,6-13.84,6" fill="#866d5b"/><path id="path404" d="M57.4,60.49A11.09,11.09,0,0,0,56,56.3a34.35,34.35,0,0,0-2.71-3.83A11.43,11.43,0,0,0,50,49.65c-2.5-1.42-5.55-2.76-8.49-2.41a5.35,5.35,0,0,0-4.46,3.29,8.63,8.63,0,0,0-.52,1.8l-.18.16a19.81,19.81,0,0,0-.28,5.65A34.37,34.37,0,0,0,36.93,64a26.1,26.1,0,0,0,1.78,5.88c.8,1.67,2.17,2.87,3.31,4.29,2.84,3.5.19,8.89-1.3,12.43a38.25,38.25,0,0,0-2,5.79c-.06.27-.12.53-.17.79A17.07,17.07,0,0,0,37,101a10.89,10.89,0,0,0,1.32,4.23,2.23,2.23,0,0,0,2.42,1.32,2.48,2.48,0,0,0,3.81-.47,2.24,2.24,0,0,0,1.35.42c1.07,0,1.81-1.26,2.2-2.1a5.16,5.16,0,0,0,.3-.83,3,3,0,0,0,.33-1.87c-.1-.42-.53-1-1-.89a1.33,1.33,0,0,0-.47.21,10,10,0,0,0-.37-1.32,5.7,5.7,0,0,0-1.58-2.18,12.57,12.57,0,0,1-2-2.14c1.29-5.89,6.17-10.66,10.24-14.89a17.11,17.11,0,0,0,3.21-4.09,13.51,13.51,0,0,0,1-4.82c.3-3.6.52-7.52-.33-11.09" fill="#6a5549"/><path id="path406" d="M50.4,75.5a5.68,5.68,0,0,1-3.11-1.4,20.2,20.2,0,0,1-5.52-7.37,26.44,26.44,0,0,1-2.67-11,10,10,0,0,1,1-5.19,3.22,3.22,0,0,1,2.14-1.61C46.92,50.35,52,52,53.78,56.55c1,2.44.66,7.31.94,9.93A13.82,13.82,0,0,1,53,73.62a3.16,3.16,0,0,1-2.13,1.84,2.59,2.59,0,0,1-.48,0" fill="#866d5b"/><path id="path408" d="M42.51,107.23a2.65,2.65,0,0,1-1.77-.68h-.31a2.13,2.13,0,0,1-1.31-.37,2.13,2.13,0,0,0,1.31.37h.31a2.65,2.65,0,0,0,1.77.68,2.32,2.32,0,0,0,2-1.15,1,1,0,0,0,.24.15h0a1,1,0,0,1-.24-.15,2.32,2.32,0,0,1-2,1.15m-3.39-1h0m0,0h0" fill="#a69990"/><path id="path410" d="M42.51,107.23a2.65,2.65,0,0,1-1.77-.68h-.31a2.13,2.13,0,0,1-1.31-.37h0a2.77,2.77,0,0,1-.77-.92,2.82,2.82,0,0,0,.85.55l.18-.1a24.93,24.93,0,0,0-.44-4.87c.07.27.14.55.22.82a19.6,19.6,0,0,0,.71,2.91,3.66,3.66,0,0,0,1.46,2.35l.06-.1a6.7,6.7,0,0,1-1.32-2.75c0-.13-.08-.26-.13-.38.36.7.92,1.49,1.71,1.49l.19,0c.93-.14.77-1.49.7-2.15-.11-1-.43-1.89-.53-2.85.38.66.7,1.35,1.07,2a10.9,10.9,0,0,0,.72,2.38,4,4,0,0,0,1,1.68,1,1,0,0,1-.24-.15,2.32,2.32,0,0,1-2,1.15m3.39-.73a2.26,2.26,0,0,1-.85-.15l.05-.09a6.59,6.59,0,0,1-1.24-2.17,13.59,13.59,0,0,1-.64-1.64,3.33,3.33,0,0,0,1.54,1.6l.15-.11a7.36,7.36,0,0,0-4.16-7.8,4,4,0,0,0,1.52-1.46,16.74,16.74,0,0,0,1.55-3c.43-1,.8-2,1.24-3.06a20.17,20.17,0,0,1,2.46-3.92c1-1.42,2.2-2.74,3.37-4a18,18,0,0,0,2.89-3.74c1.37-2.75,1.3-6,1.5-8.94.28-4,.43-8.24-.74-12.17a26.5,26.5,0,0,0-1.26-3.31l0,0A34.35,34.35,0,0,1,56,56.3a11.09,11.09,0,0,1,1.39,4.19,25.38,25.38,0,0,1,.6,5.8c0,1.78-.13,3.57-.27,5.29,0,.24,0,.49-.07.75a11.59,11.59,0,0,1-.95,4.07,17.11,17.11,0,0,1-3.21,4.09c-1.28,1.34-2.65,2.72-4,4.18-2.84,3.17-5.41,6.67-6.29,10.71h0a12.57,12.57,0,0,0,2,2.14,5.7,5.7,0,0,1,1.58,2.18,10,10,0,0,1,.37,1.32,1.33,1.33,0,0,1,.47-.21h.11c.45,0,.82.51.92.9a2,2,0,0,1,0,.43,3.31,3.31,0,0,1-.37,1.44,5.16,5.16,0,0,1-.3.83c-.39.84-1.13,2.1-2.2,2.1m.67-7.17h0a10.66,10.66,0,0,1,.47,4.46h.07a6.63,6.63,0,0,0-.53-4.47" fill="#46342b"/><path id="path412" d="M80.76,60.69a68.45,68.45,0,0,0-6.61,3.1,69.17,69.17,0,0,0-6.06,3.41c-3.9,2.48-7.87,5.63-10.31,9.6a13.47,13.47,0,0,0-1.61,11.55c1.49,4.58,5.49,8.22,8.74,11.6l.1-.13c-3.19-3.29-6.64-6.9-8.27-11.27s-.3-8.78,2.21-12.36,6.4-6.52,10.16-8.93c1.82-1.17,3.7-2.23,5.61-3.26s3-1.43,5-2.57l1.06-.74" fill="#453838"/><path id="path414" d="M95.64,71.73l-.06,0a18,18,0,0,1-.33,16.29,18.63,18.63,0,0,1-4.79,5.8C88,95.92,85,97.05,82.1,98.52c-.12.06-.06.26.08.21,5.6-2,10.66-5.08,13.54-10.47a19.64,19.64,0,0,0,2.21-8,16.37,16.37,0,0,0-2.29-8.56" fill="#453838"/><path id="path416" d="M33.52,81.7a12.38,12.38,0,0,1-1.5-.45l0-.06a9.26,9.26,0,0,0,1.46.43l.06.08" fill="#98897f"/><path id="path418" d="M32,81.25a11.86,11.86,0,0,1-2.59-1.35l1.4.76a10.89,10.89,0,0,0,1.17.53l0,.06" fill="#2a1e18"/><path id="path420" d="M32,81.19a10.89,10.89,0,0,1-1.17-.53l-1.4-.76h0c.46.27.93.52,1.4.77a10.89,10.89,0,0,0,1.17.53h0" fill="#271a15"/><path id="path422" d="M35.61,82a9.33,9.33,0,0,1-2.09-.25l-.06-.08A9.26,9.26,0,0,1,32,81.19a10.89,10.89,0,0,1-1.17-.53c-.47-.25-.94-.5-1.4-.77l-.09-.06,0,0a13.61,13.61,0,0,0,6.07,1.71A6.07,6.07,0,0,0,39.64,80l.07.08A4.79,4.79,0,0,1,35.61,82" fill="#7c4e2e"/><path id="path424" d="M41.51,0a19.18,19.18,0,0,0-6.35,1.9A23,23,0,0,0,30,4.71,6.88,6.88,0,0,0,27.32,9c-.28,1.37.07,2.79-.05,4.17a8.83,8.83,0,0,1-.58,2.3,17.51,17.51,0,0,0-2.5-.36,15.73,15.73,0,0,0-6.86,1c-.29-1.39-.64-2.78-.93-4.16-.36-1.73-.57-3.72-1.48-5.28s-2.69-2.54-4.31-3.37A53.79,53.79,0,0,0,3.85.61a.16.16,0,0,0-.22.21C2.79,3.21,2.82,6,2.7,8.53s.15,4.7,2,6.4a9.56,9.56,0,0,0,5.25,2.14,6.56,6.56,0,0,0,1,0c.89,0,1.8,0,2.3.76a4.39,4.39,0,0,1,.27.53,22.67,22.67,0,0,0-4.65,6.17c-.45.19-.88.39-1.32.59A15.05,15.05,0,0,0,3,27.86,7.79,7.79,0,0,0,.88,33.73a25.5,25.5,0,0,0,1.62,13,29,29,0,0,0,1.83,3.76,9,9,0,0,0,2.43,3.14,2.68,2.68,0,0,0,2.57.07C10.12,55,12,55.2,13.44,55.18a17.37,17.37,0,0,0,3.21-.46,13.21,13.21,0,0,0,2.1-.55c1.42-.2,2.43-2.08,3.07-3.18.39-.66.77-1.32,1.18-2,.24-.24.47-.49.71-.74a16,16,0,0,1,1.62-1.48c.39-.3.79-.6,1.19-.88s.84-.54,1.27-.79c1.57-.87,3.3-1.44,4.86-2.34a18.54,18.54,0,0,0,4.4-3.58,11.16,11.16,0,0,0,3.81-5.68,6.22,6.22,0,0,0-1-5.17,6.72,6.72,0,0,0-3.33-2.08c-.12-.65-.27-1.29-.42-1.89A10.72,10.72,0,0,0,35,21.77a6.88,6.88,0,0,0-.66-1.63,8.7,8.7,0,0,0-3.14-3,5.59,5.59,0,0,1,4.17-2.2c1.67-.21,3.27-.54,4.23-2.06A12.28,12.28,0,0,0,41,7.49c.24-2.29.56-4.57.85-6.85A.42.42,0,0,0,41.51,0" fill="#6a5549"/><path id="path426" d="M36.48,26.28v-.05a4.8,4.8,0,0,0-3.65.66c-1.69,1.19-2.09,3.24-3.26,4.83a23.33,23.33,0,0,1-4.45,4.2,40.3,40.3,0,0,1-5.39,3.67,9.49,9.49,0,0,1-4.51,1.5c-1.72,0-3.37-.61-5.07-.63a17.48,17.48,0,0,0-2.39.18,16.53,16.53,0,0,1-2.34.19,4,4,0,0,1-2.93-1C1.11,38.49,1,36.25,1,34.41a31.49,31.49,0,0,1,.51-4.35,9.45,9.45,0,0,0-.66,3.67,25.5,25.5,0,0,0,1.62,13,29,29,0,0,0,1.83,3.76,9,9,0,0,0,2.43,3.14,2.68,2.68,0,0,0,2.57.07C10.12,55,12,55.2,13.44,55.18a17.37,17.37,0,0,0,3.21-.46,13.21,13.21,0,0,0,2.1-.55c1.42-.2,2.43-2.08,3.07-3.18.39-.66.77-1.32,1.18-2,.24-.24.47-.49.71-.74a16,16,0,0,1,1.62-1.48c.39-.3.79-.6,1.19-.88s.84-.54,1.27-.79c1.57-.87,3.3-1.44,4.86-2.34a18.54,18.54,0,0,0,4.4-3.58,11.16,11.16,0,0,0,3.81-5.68,6.22,6.22,0,0,0-1-5.17,6.72,6.72,0,0,0-3.33-2.08" fill="#f0d8b1"/><path id="path428" d="M6.76,53.67a7.87,7.87,0,0,1-2.13-2.61l.3.12A5.24,5.24,0,0,0,7.52,52h.16a1.69,1.69,0,0,1,1.15.28c.25.23.05.66-.2.8a3.1,3.1,0,0,1-1.43.34,3.9,3.9,0,0,1-1-.13,5.15,5.15,0,0,0,.52.43" fill="#e0b378"/><path id="path430" d="M14.77,53.21a4.19,4.19,0,0,1-3.41-1.51l0-.14c.9-.79,2.14-1,3-1.83a6.08,6.08,0,0,0,2-3.07A5.06,5.06,0,0,0,15.89,43l0-.05a2.4,2.4,0,0,1,1,1.82,16.74,16.74,0,0,0,0,3.32,1.44,1.44,0,0,0,1.39,1.09,1.33,1.33,0,0,0,.47-.08c1.4-.48,2-2.33,2.86-3.39,1.25-1.56,3.12-1.72,4.84-2.46,1.25-.53,2.3-1.81,1.65-3.23-.52-1.14-2.69-2-1.65-3.42a2.26,2.26,0,0,0,.2.54l-.05-.07-.06,0a3,3,0,0,0,.59.9,2.21,2.21,0,0,1-.73-1,1.68,1.68,0,0,0,.41,1.28c.89,1,3.46,2.36,2.55,4a.82.82,0,0,1-.12.2,3.89,3.89,0,0,1-.5.41,15.08,15.08,0,0,1-3.63,1.4,5.78,5.78,0,0,0-1.36.69,5.56,5.56,0,0,0-1.35,1.12c-1.76,2-2.37,5-4.87,6.4a5.88,5.88,0,0,1-2.78.7m16.9-11.15-.22,0c-.36-.08-.46-.39-.47-.73a2.41,2.41,0,0,0-.51-1.82l0-.18a3.68,3.68,0,0,0,2.09-2.11,6.24,6.24,0,0,1-.69.58l-.07-.05a5.36,5.36,0,0,1-2.57.77,3,3,0,0,1-2-.74,2.61,2.61,0,0,0,1.49.39A5.43,5.43,0,0,0,29.76,38a5.2,5.2,0,0,0,3.63-2.79,10.06,10.06,0,0,1-.12,1.82,4.48,4.48,0,0,1-.76,1.49c-.23.36-.42,1,.14,1.15a.64.64,0,0,0,.2,0,2.93,2.93,0,0,0,1.37-.63,16.78,16.78,0,0,0,1.89-1.47,13.9,13.9,0,0,0,4-5.08,7.31,7.31,0,0,0,.58-2.41,6.46,6.46,0,0,1,.12,3.38h0a9.72,9.72,0,0,1-2.28,4.17c-.77.64-1.56,1.25-2.28,1.84a13.85,13.85,0,0,1-2.67,1.76,5.14,5.14,0,0,1-2,.76" fill="#e0b378"/><path id="path432" d="M36.5,39.78h0c.19-.18.37-.38.55-.57a18.19,18.19,0,0,0,1.53-1.51h0a16.89,16.89,0,0,1-1.53,1.52c-.18.19-.36.39-.55.57" fill="#412b20"/><path id="path434" d="M13.2,55.18c-1.37,0-3.06-.22-3.83-1.37a3.51,3.51,0,0,0,1-.68,6.59,6.59,0,0,0,3.61,1h.27a7.64,7.64,0,0,0,6.09-3.45c.93-1.51,1.53-3.2,2.73-4.54s3-1.62,4.58-2.2a4.24,4.24,0,0,0,2.79-2.38c.36-1-.4-2-1.22-2.55a3.71,3.71,0,0,0,.47,0A2.6,2.6,0,0,0,32,37.83l-.06,0a6.24,6.24,0,0,0,.69-.58,3.68,3.68,0,0,1-2.09,2.11l0,.18A2.41,2.41,0,0,1,31,41.31c0,.34.11.65.47.73l.22,0a5.14,5.14,0,0,0,2-.76,13.85,13.85,0,0,0,2.67-1.76c.72-.59,1.51-1.2,2.28-1.84a18.19,18.19,0,0,1-1.53,1.51c-.18.19-.36.39-.55.57a17.89,17.89,0,0,1-3.85,3c-1.56.9-3.29,1.47-4.86,2.34-.43.25-.85.51-1.27.79l-.54.39c-.22.16-.44.32-.65.49a16,16,0,0,0-1.62,1.48c-.24.25-.47.5-.71.74-.41.65-.79,1.31-1.18,2-.64,1.1-1.65,3-3.07,3.18a13.21,13.21,0,0,1-2.1.55,17.37,17.37,0,0,1-3.21.46H13.2M8,54a2.19,2.19,0,0,1-1.2-.36h0a5.15,5.15,0,0,1-.52-.43,3.9,3.9,0,0,0,1,.13A3.1,3.1,0,0,0,8.63,53c.25-.14.45-.57.2-.8A1.69,1.69,0,0,0,7.68,52H7.52a5.24,5.24,0,0,1-2.59-.77,7.94,7.94,0,0,0,2.77.5A9,9,0,0,0,9,51.58a4,4,0,0,0,1,1.27,3.19,3.19,0,0,1-2.08.92,1.55,1.55,0,0,1-1-.31l0,0A2,2,0,0,0,8,54m5.73-.3a5.27,5.27,0,0,1-3.08-.94.28.28,0,0,0-.27-.27h-.07a6.25,6.25,0,0,1-1-1,10,10,0,0,0,2.31-.75c2.32-1.08,4.57-3.56,4.57-6.24A4.83,4.83,0,0,0,16,43.15h0L15.89,43a5.06,5.06,0,0,1,.55,3.67,6.08,6.08,0,0,1-2,3.07c-.88.82-2.12,1-3,1.83l0,.14a4.19,4.19,0,0,0,3.41,1.51,5.88,5.88,0,0,0,2.78-.7c2.5-1.36,3.11-4.37,4.87-6.4A5.56,5.56,0,0,1,23.77,45a10.85,10.85,0,0,0-3.2,4.34A7.58,7.58,0,0,1,15,53.6a6.56,6.56,0,0,1-1.29.13M29.26,42.49a.82.82,0,0,0,.12-.2c.91-1.68-1.66-3-2.55-4A1.68,1.68,0,0,1,26.42,37a2.28,2.28,0,0,0,.73,1,3.67,3.67,0,0,0,1.57.92c.33.39.67.77,1,1.18a1.73,1.73,0,0,1-.42,2.39" fill="#d39551"/><path id="path436" d="M37.36,26.6c-.29-.12-.58-.22-.88-.32.3.1.59.2.88.32M7.43,25.19l.1,0-.09,0h0m1.42-.63c.07-.15.15-.29.23-.43-.08.14-.16.28-.23.43m.24-.43h0m4.26-5.61h0m0,0a.69.69,0,0,1,.13-.11.69.69,0,0,0-.13.11m.13-.11a4.39,4.39,0,0,0-.27-.53,2.07,2.07,0,0,0-1.94-.76h-.71a4.63,4.63,0,0,1-.65,0,9.56,9.56,0,0,1-5.25-2.14,6.8,6.8,0,0,1-2-5.2,6.82,6.82,0,0,0,2,5.2,9.56,9.56,0,0,0,5.25,2.14,4.63,4.63,0,0,0,.65,0h.71a2.07,2.07,0,0,1,1.94.76,4.39,4.39,0,0,1,.27.53h0M24.19,15.1c-.34,0-.69,0-1,0,.34,0,.69,0,1,0M2.69,9.73h0M27.32,9V9m0,0V9" fill="#a69990"/><path id="path438" d="M4.41,28.37a15.53,15.53,0,0,1,1.5-1.3c.8-.59,1.73-1,2.57-1.53v-.21a1.46,1.46,0,0,0-.71-.17,1.84,1.84,0,0,0-.33,0l.09,0h0c.44-.2.87-.4,1.32-.59h0c.07-.15.15-.29.23-.43h0c.24-.43.49-.85.75-1.27l-.13.29c-.18.42-.52,1.11-.3,1.58.11.23.51.31,1,.31a5.92,5.92,0,0,0,1.87-.31c.77-.36.86-.4,1.13-1.36.34-1.26.53-2.61,1.9-3.21l0-.19c-.51-.57-.2-1.56-.42-2.25l-.17-.07a15.57,15.57,0,0,0-2,1.53,6.31,6.31,0,0,0-.7.67,16.47,16.47,0,0,1,1.31-1.33h0a.69.69,0,0,1,.13-.11h0a4.39,4.39,0,0,0-.27-.53,2.07,2.07,0,0,0-1.94-.76h-.71a4.63,4.63,0,0,1-.65,0,9.56,9.56,0,0,1-5.25-2.14,6.82,6.82,0,0,1-2-5.2h0c0-.35,0-.69,0-1a15.8,15.8,0,0,0,.54,2.38,7.37,7.37,0,0,0,2.17,3.19l.17-.17c-1.49-1.39-1.44-3.73-1.31-5.6a25.2,25.2,0,0,0-.1-6.94,7.74,7.74,0,0,1,2.22.88c.73.37,1.48.66,2.2,1A12,12,0,0,1,12.94,7a8.43,8.43,0,0,1,1.19,2.38c.27.89.36,1.85.58,2.76.15.65.34,1.3.53,1.94A1.87,1.87,0,0,0,16,15.34l.16,0A5.09,5.09,0,0,0,16,12c-.3-1.14-.5-2.29-.7-3.45-.12-.64-.25-1.31-.43-2l0,0c.91,1.56,1.12,3.55,1.48,5.28.28,1.33.62,2.68.9,4a4.6,4.6,0,0,0-.79.64c-.39.4.07.8.35,1.07.95.94.44,2.33.16,3.45S16.9,23.26,16,24.4a17.34,17.34,0,0,1,1.77-.08c2.58,0,5.11.39,5.73.4l.12-.11c-1-2.58.41-3.57-.08-4.92A1.94,1.94,0,0,1,23.71,18c.9-1.45,3.28-1.33,4.74-1.37a.12.12,0,0,0,0-.24,15.11,15.11,0,0,0-5.68-1.31h.35c.34,0,.69,0,1,0h0a17.51,17.51,0,0,1,2.5.36,8.83,8.83,0,0,0,.58-2.3c0-.22,0-.45,0-.68,0-.75-.08-1.5-.08-2.26A5.69,5.69,0,0,1,27.32,9h0V9h0v0a7.65,7.65,0,0,1,.47-1.47,7.08,7.08,0,0,0-.38,2.05c0,1.44.23,2.89.31,4.33l.22.06a5,5,0,0,0,.71-2.65,7.48,7.48,0,0,1,.72-3.36c1.12-2,3.55-3.2,5.55-4.16,1.19-.58,2.42-1.08,3.65-1.59.65-.26,1.33-.43,2-.67A3.28,3.28,0,0,0,41.87.72c-.29,2.25-.6,4.5-.84,6.77h0a12.28,12.28,0,0,1-1.45,5.39c-1,1.52-2.56,1.85-4.23,2.06a5.59,5.59,0,0,0-4.17,2.2h0a8.7,8.7,0,0,1,3.14,3A6.88,6.88,0,0,1,35,21.77a10.72,10.72,0,0,1,1.08,2.62c.15.6.3,1.24.42,1.89v-.05a6.94,6.94,0,0,0-1.11-.1H35.2v-.06c-.23-1-.2-1.95-.43-2.92a22.75,22.75,0,0,0-1-3.13,5,5,0,0,0-4.09-2.89l-.14.06a3.1,3.1,0,0,0-1.67,1.18,8.23,8.23,0,0,0-.66,1A5.46,5.46,0,0,1,26,20.53l0,.19c.7.32,1,1.22,1.15,1.9A4,4,0,0,1,27,25.2l.05.13a14.39,14.39,0,0,1,3,1.49,23,23,0,0,0-4.88-1.36,4.69,4.69,0,0,0,.45-2.15c0-1.39-.4-2.51-.9-2.52h0c-.5,0-.91,1.13-.92,2.51a5,5,0,0,0,.35,2,39.61,39.61,0,0,0-5.69-.4h-.05c-1.13,0-2.26,0-3.39.08a6.75,6.75,0,0,0,.68-1.47c.44-1.32.48-2.49.09-2.62l-.08,0c-.4,0-1,.92-1.45,2.15a6,6,0,0,0-.35,2,20.39,20.39,0,0,0-7,1.73c-.75.36-.69.45-.65.45h0c.56-.2,1.13-.38,1.72-.54a17.64,17.64,0,0,0-3.51,1.67M6.74,14l0,0a4.55,4.55,0,0,0,1.72,1c.79.29,1.68.08,2.46.46l.15-.18h0a7.33,7.33,0,0,0-.88-1,11.09,11.09,0,0,1,1.56,1,.17.17,0,0,0,.11,0,.16.16,0,0,0,.16-.16h0a.43.43,0,0,0,0,0c-.13-.46-.32-.9-.48-1.35.53.33,1.2.65,1.38,1.21l.08.08v.18h.19c.1-1.06.24-2.16.24-3.25h0a8.32,8.32,0,0,0-.17-1.8,8,8,0,0,0-1.79-3.52h0a12.53,12.53,0,0,0-1-1h0a17.66,17.66,0,0,0-6-3.43l0,.08.37.18v0a8.48,8.48,0,0,1,.47,4.33,20.16,20.16,0,0,0,.12,4h0A5.34,5.34,0,0,0,6.73,14h0m23.73,1.16a.12.12,0,0,0,.13.12.15.15,0,0,0,.14-.07c.7-1.23,2.35-1.87,3.66-2.2A8.83,8.83,0,0,0,37.53,12a.1.1,0,0,0,0,0A4.42,4.42,0,0,0,39,8.6c.1-1,.12-2,.18-3a19.74,19.74,0,0,1,.39-2.67h0l0-.17.47-.24h0L40,2.32a27.47,27.47,0,0,0-3.53,1.53l-1.1.58h0a23.73,23.73,0,0,0-3.75,2.25,5.24,5.24,0,0,0-2,3.38c-.24,1.53,0,3.09-.29,4.61l-.2.27.13.14a6.84,6.84,0,0,0,1.33-1.36v.18a6,6,0,0,1-.11,1.26v0h0" fill="#46342b"/><path id="path440" d="M37.44,26.64l-.35-.11a5.52,5.52,0,0,0-1.64-.21h-.39l.1,0,0-.15h.16a6.94,6.94,0,0,1,1.11.1v.05h0c.3.1.59.2.88.32l.08,0" fill="#9b8164"/><path id="path442" d="M9.89,26.26A46,46,0,0,1,18,25.59h.24a50.61,50.61,0,0,1,8.35.6l0,0c-1.79-.18-3.56-.41-5.36-.46l-1.09,0c-1.52,0-3.05.09-4.57.15l-1.34.05a36.1,36.1,0,0,0-4.29.32m12.52-11.2h0" fill="#46342b"/><path id="path444" d="M13.28,10.21a8,8,0,0,0-1.79-3.52,16.43,16.43,0,0,0-7-4.43l0,.08.37.18v0a8.27,8.27,0,0,1,.47,4.33,20.16,20.16,0,0,0,.12,4,5.29,5.29,0,0,0,1.33,3.2,4.55,4.55,0,0,0,1.72,1c.79.29,1.68.08,2.46.46l.15-.18a6.73,6.73,0,0,0-.88-1,11.09,11.09,0,0,1,1.56,1,.16.16,0,0,0,.26-.17c-.13-.46-.32-.9-.48-1.35.53.33,1.2.65,1.38,1.21l.08.08v.18h.19a16.77,16.77,0,0,0,.07-5" fill="#f79275"/><path id="path446" d="M40,2.32a31.18,31.18,0,0,0-4.63,2.11,23.73,23.73,0,0,0-3.75,2.25,5.29,5.29,0,0,0-2,3.38c-.24,1.53,0,3.09-.29,4.61l-.2.27.13.14a6.84,6.84,0,0,0,1.33-1.36,5.83,5.83,0,0,1-.11,1.44c0,.16.19.21.27.08.7-1.23,2.35-1.87,3.66-2.2A8.83,8.83,0,0,0,37.53,12,4.38,4.38,0,0,0,39,8.6c.1-1,.12-2,.18-3a19.27,19.27,0,0,1,.43-2.84l.47-.24L40,2.32" fill="#f79275"/><path id="path448" d="M6.75,14h0m0,0a5.34,5.34,0,0,1-1.3-3.17h0l0-.13.08.22c.17.43.48.94,1,1h.14c.67,0,.73-.6.89-1.15a2.46,2.46,0,0,0,1.05.31.87.87,0,0,0,.76-.39A3.3,3.3,0,0,0,9.5,8.38a7,7,0,0,0-.93-2.63A11.08,11.08,0,0,0,5.05,2.46a17.39,17.39,0,0,1,5.36,3.13A14.35,14.35,0,0,0,7.86,3.78a15.56,15.56,0,0,1,2.33,2,7.15,7.15,0,0,1,1.94,3.35,5.88,5.88,0,0,1,0,3.17,2.55,2.55,0,0,1-2.6,1.56,5.25,5.25,0,0,1-3-1,4.09,4.09,0,0,1-.91-1A4.65,4.65,0,0,0,6.73,14m3.75-8.37h0m0,0,0,0,0,0" fill="#ed6b49"/><path id="path450" d="M10.94,15.53c-.78-.38-1.67-.17-2.46-.46a4.55,4.55,0,0,1-1.72-1v0a4.55,4.55,0,0,0,1.72,1c.79.29,1.68.08,2.46.46l.15-.18h0l-.15.18M6.74,14h0m4.75-7.34,0,0h0l0,0h0l0,0h0l0,0v0l0,0v0l0,0,0,0v0l0,0v0l0,0h0l0,0,0,0,0,0h0l0,0,0,0,0,0h0l0,0v0l0,0,0,0,0,0,0,0h0l0,0h0l0,0h0l0,0h0l0,0h0l-.1-.1c.33.31.64.64.94,1m-1-1h0" fill="#3f281f"/><path id="path452" d="M11.49,6.69l0,0,0,0h0m0-.05,0,0,0,0m0,0,0,0,0,0m0,0,0,0,0,0m0,0,0,0,0,0m0,0,0,0,0,0m0,0v0m0,0v0m0-.05h0m0,0,0,0,0,0m0,0h0m0,0,0,0,0,0m0-.05h0m-.05,0v0m0,0,0,0,0,0m0,0,0,0,0,0m0,0,0,0,0,0m0,0,0,0,0,0m0-.05,0,0,0,0m-.05,0,0,0,0,0m0,0-.17-.16,0,0h0l.1.1m-.17-.16,0,0,0,0m-.06-.05h0" fill="#ed6b49"/><path id="path454" d="M11.45,6.65h0m0,0h0m0-.05h0m0,0v0m0,0v0m0,0,0,0,0,0m0,0,0,0,0,0m0,0,0,0,0,0m0,0,0,0,0,0m-.05,0,0,0,0,0m0,0,0,0,0,0m0,0,0,0,0,0m0,0,0,0,0,0m0,0,0,0,0,0m0,0,0,0,0,0m0,0h0m-.05,0h0m0,0h0m-.05,0h0m0,0h0" fill="#3a1f19"/><path id="path456" d="M10.94,15.53c-.78-.38-1.67-.17-2.46-.46a4.55,4.55,0,0,1-1.72-1v0h0a4.65,4.65,0,0,1-1.1-2.09,4.09,4.09,0,0,0,.91,1,5.25,5.25,0,0,0,3,1,2.55,2.55,0,0,0,2.6-1.56,5.88,5.88,0,0,0,0-3.17,7.15,7.15,0,0,0-1.94-3.35,15.56,15.56,0,0,0-2.33-2,14.35,14.35,0,0,1,2.55,1.81h0l0,0,0,0h0l.17.16h0l0,0h0l0,0h0l0,0h0l0,0h0l0,0,0,0,0,0,0,0v0l0,0h0l0,0,0,0,0,0h0l0,0,0,0,0,0h0l0,0v0l0,0v0l0,0,0,0v0l0,0v0l0,0h0l0,0h0l0,0h0l0,0h0a8,8,0,0,1,1.79,3.52,8.32,8.32,0,0,1,.17,1.8c0,1.09-.14,2.19-.24,3.25H13v-.18L12.93,15c-.18-.56-.85-.88-1.38-1.21h0c.16.45.35.89.48,1.35a.43.43,0,0,1,0,0,.16.16,0,0,1-.16.16.17.17,0,0,1-.11,0,11.09,11.09,0,0,0-1.56-1h0a6.73,6.73,0,0,1,.88,1l-.15.18" fill="#dd5034"/><path id="path458" d="M39.55,2.91c0-.06,0-.11,0-.17l.47-.24h0l-.47.24,0,.17h0" fill="#3f281f"/><path id="path460" d="M32.32,13a1.62,1.62,0,0,1-1.25-.46c-.78-.8-.22-2.4.14-3.26a9.52,9.52,0,0,1,2.23-3.21A17.49,17.49,0,0,1,36.5,3.82l-.06,0A28.09,28.09,0,0,1,40,2.32l.09.18-.47.24c0,.06,0,.11,0,.17a26.6,26.6,0,0,0-2.89,1.65,13,13,0,0,0-2.81,3.15c-.4.58-1.07,1.72,0,2a1,1,0,0,0,.24,0c.74,0,1.43-.67,2.08-1A2,2,0,0,0,36,10.41a.65.65,0,0,0,.61.32A2.86,2.86,0,0,0,38,10.24a4,4,0,0,0,.93-.9,3.82,3.82,0,0,1-1.26,2.56,3.5,3.5,0,0,0,.39-.38A5.58,5.58,0,0,1,37,12a15.33,15.33,0,0,1-3.35.82,8.9,8.9,0,0,1-1.3.15" fill="#ed6b49"/><path id="path462" d="M30.61,15.31a.13.13,0,0,1-.14-.12.13.13,0,0,0,.14.12.15.15,0,0,0,.13-.07c.7-1.23,2.35-1.87,3.66-2.2A8.83,8.83,0,0,0,37.53,12h0a.1.1,0,0,0,0,0,.1.1,0,0,1,0,0A8.83,8.83,0,0,1,34.4,13c-1.31.33-3,1-3.66,2.2a.15.15,0,0,1-.13.07" fill="#3f281f"/><path id="path464" d="M37.53,12l.09-.06,0,0a.1.1,0,0,1,0,0" fill="#ed6b49"/><path id="path466" d="M35.34,4.43l1.1-.58-1.1.58" fill="#3f281f"/><path id="path468" d="M30.61,15.31a.13.13,0,0,1-.14-.12v0a5.38,5.38,0,0,0,.12-1.26h0a1.09,1.09,0,0,0,0-.18,6.84,6.84,0,0,1-1.33,1.36l-.13-.14.2-.27c.29-1.52.05-3.08.29-4.61a5.29,5.29,0,0,1,2-3.38,23.73,23.73,0,0,1,3.75-2.25h0l1.1-.58.06,0a17.49,17.49,0,0,0-3.06,2.25,9.52,9.52,0,0,0-2.23,3.21c-.36.86-.92,2.46-.14,3.26a1.62,1.62,0,0,0,1.25.46,8.9,8.9,0,0,0,1.3-.15A15.33,15.33,0,0,0,37,12a5.58,5.58,0,0,0,1-.51,3.5,3.5,0,0,1-.39.38l-.09.06h0A8.83,8.83,0,0,1,34.4,13c-1.31.33-3,1-3.66,2.2a.15.15,0,0,1-.13.07" fill="#dd5034"/><path id="path470" d="M28,16.54a25.43,25.43,0,0,0-2.56.56c-.69.23-1.85.69-1.92,1.7a1.25,1.25,0,0,0,1.81,1.27,4.17,4.17,0,0,0,1.37-1.31,7.49,7.49,0,0,1,1.14-1.59c.07-.05.61-.35,0-.24.08,0,.32-.43.15-.39" fill="#f0d8b1"/><path id="path472" d="M17.25,18.37c-.36-1.12-1.34-1.23-2.29-1.71H14.9c.79.77-.09.12,0,.17a5.35,5.35,0,0,1,.65,1.95c.06.62.09.95.59,1.22,1,.51,1.38-.69,1.22-1.38l-.07-.24" fill="#f0d8b1"/><path id="path474" d="M8.28,54.06A1.66,1.66,0,0,1,8,54H8a3.35,3.35,0,0,0,1.32-.29l0,.07a2.84,2.84,0,0,1-1.09.25" fill="#98897f"/><path id="path476" d="M27.22,37.76a1.78,1.78,0,0,1-.55-.63,3.82,3.82,0,0,0,.55.63" fill="#8d7158"/><path id="path478" d="M23.77,45a5.78,5.78,0,0,1,1.36-.69,15.08,15.08,0,0,0,3.63-1.4,3.89,3.89,0,0,0,.5-.41A4.3,4.3,0,0,1,26.44,44a9.28,9.28,0,0,0-2.67,1m5.52-6.35-.38,0A3.38,3.38,0,0,1,27.15,38a3,3,0,0,1-.59-.9l.06,0,.05.07a1.78,1.78,0,0,0,.55.63,3,3,0,0,0,2,.74,5.36,5.36,0,0,0,2.57-.77l.07.05a4.43,4.43,0,0,1-2.6.86" fill="#855e3e"/><path id="path480" d="M14,54.14a6.59,6.59,0,0,1-3.61-1,3.51,3.51,0,0,1-1,.68l0-.07A3.35,3.35,0,0,1,8,54H8a2,2,0,0,1-1.08-.54l0,0a1.55,1.55,0,0,0,1,.31A3.19,3.19,0,0,0,10,52.85a4,4,0,0,1-1-1.27l.32,0a6.25,6.25,0,0,0,1,1h.07a.28.28,0,0,1,.27.27,5.27,5.27,0,0,0,3.08.94A6.56,6.56,0,0,0,15,53.6a7.58,7.58,0,0,0,5.59-4.27A10.85,10.85,0,0,1,23.77,45a9.28,9.28,0,0,1,2.67-1,4.3,4.3,0,0,0,2.82-1.48,1.73,1.73,0,0,0,.42-2.39c-.29-.41-.63-.79-.95-1.18A3.65,3.65,0,0,1,27.15,38a3.38,3.38,0,0,0,1.76.62l.38,0a4.43,4.43,0,0,0,2.6-.86l.06,0a2.6,2.6,0,0,1-2.28,1.22,3.71,3.71,0,0,1-.47,0c.82.58,1.58,1.55,1.22,2.55A4.24,4.24,0,0,1,27.63,44c-1.59.58-3.41.88-4.58,2.2s-1.8,3-2.73,4.54a7.64,7.64,0,0,1-6.09,3.45H14" fill="#7c4e2e"/><path id="path482" d="M25.59,23.31c0,1.39-.42,2.51-.92,2.51s-.9-1.13-.9-2.52.42-2.51.92-2.51.91,1.13.9,2.52" fill="#100f0d"/><path id="path484" d="M24.66,21.63c0,.65.05,1.69.49,1.63s.22-1,0-1.54-.52-.83-.53-.09" fill="#fff"/><path id="path486" d="M15.67,23.51c-.44,1.31-1.12,2.27-1.52,2.13s-.36-1.3.08-2.62,1.13-2.27,1.53-2.13.35,1.3-.09,2.62" fill="#100f0d"/><path id="path488" d="M15.47,21.67c-.21.62-.5,1.61-.13,1.67s.5-.92.52-1.44-.16-.93-.39-.23" fill="#fff"/><path id="path490" d="M30.55,27.06c-3.49-1.63-8.38-2.17-12.17-2.16s-7.95.19-11.54,1.89c-.81.39-.67.46-.64.45A36.53,36.53,0,0,1,18,25.59a42.57,42.57,0,0,1,11.9,1.35,3.19,3.19,0,0,0,.67.12" fill="#453838"/><path id="path492" d="M26.69,17c-1,.39-3.09.6-2.72,2.15h.2a2,2,0,0,1,1.16-1.32,13.61,13.61,0,0,0,1.42-.73L26.69,17" fill="#fef7ed"/><path id="path494" d="M15.66,17.08l-.05.06a2.7,2.7,0,0,1,.89,1.09,5.6,5.6,0,0,1,.28,1.29l.15,0a2,2,0,0,0-1.27-2.47" fill="#fef7ed"/><path id="path496" d="M16,43.15c-1-3.21-8.64-2.08-11-1.76-5.32.72-6.79,4.87-2.33,8.47a8.24,8.24,0,0,0,9,.92c2.71-1.26,5.35-4.46,4.36-7.63" fill="#39322e"/><path id="path498" d="M4.63,51.06a8.58,8.58,0,0,1-2-1.2,9.6,9.6,0,0,1-1.21-1.15,9.6,9.6,0,0,0,1.21,1.15,8.58,8.58,0,0,0,2,1.2h0" fill="#39322e"/><path id="path500" d="M1.42,48.7h0m0,0h0m0,0h0" fill="#39322e"/><path id="path502" d="M15.87,42.94h0a2.74,2.74,0,0,0-.19-.34,1.66,1.66,0,0,1,.19.35" fill="#352b22"/><path id="path504" d="M15.89,43h0a.08.08,0,0,1,0,0h0l0,.05" fill="#32241b"/><path id="path506" d="M16,43.15,15.89,43h0l.06.16" fill="#2f1f17"/><path id="path508" d="M15.68,42.59h0" fill="#352b22"/><path id="path510" d="M7.7,51.68a7.8,7.8,0,0,1-3.07-.62,8.58,8.58,0,0,1-2-1.2,9.6,9.6,0,0,1-1.21-1.15h0s0,0,0,0h0C0,47-.32,45.36.34,44A2.75,2.75,0,0,0,.77,45c.64.89,2,1,2.83,1.51s1.63,1.74,2.7,2.14a1.53,1.53,0,0,0,.58.11,2,2,0,0,0,1.36-.63,23.27,23.27,0,0,1,2.14-2.19,16.44,16.44,0,0,1,3-1.26,2.62,2.62,0,0,0,1.75-1.79,2.55,2.55,0,0,0,0-.87,2.6,2.6,0,0,1,.56.59h0a2.74,2.74,0,0,1,.19.34.08.08,0,0,0,0,0l.06.17h0a4.83,4.83,0,0,1,.21,1.39c0,2.68-2.25,5.16-4.57,6.24a10,10,0,0,1-2.31.75l-.32,0a9,9,0,0,1-1.26.1" fill="#171412"/><path id="path512" d="M13.21,43.41a22.89,22.89,0,0,1-3.27.89,31,31,0,0,1-3.71.43C5,44.78,2,45.1,1.6,43.64l-.13,0c0,1.51,2.57,1.53,3.61,1.61,2.68.2,6.1.21,8.21-1.72l-.08-.15" fill="#d3c9c1"/><path id="path514" d="M6.42,25.64c-1.85.8-3.42,1.52-4.29,3.45-.72,1.61-.5,3.65-.39,5.36h.07a13.24,13.24,0,0,1,.73-4.8c.74-1.89,2.35-2.8,3.94-3.89l-.06-.11" fill="#a0856d"/><path id="path516" d="M13.63,19c-1.74.93-2.91,3-3.6,4.81l.14.06a17,17,0,0,1,3.62-4.65.14.14,0,0,0-.16-.22" fill="#a0856d"/><path id="path518" d="M25.72,16.21c-2.19-1.76-6.3-1.26-8.44.34l0,.11a14.75,14.75,0,0,1,8.3-.24l.09-.21" fill="#a0856d"/><path id="path520" d="M39.27,1.2A29.43,29.43,0,0,0,31.6,4.26a7.58,7.58,0,0,0-3.83,5.41l.12,0c1.66-5,7-6.65,11.44-8.33l-.06-.18" fill="#a0856d"/><path id="path522" d="M4.19,12.21a8.61,8.61,0,0,1-.67-4.54,33,33,0,0,0-.19-5H3.17C3,4.36,3,6,3,7.71a7.91,7.91,0,0,0,1.09,4.55l.1,0" fill="#a0856d"/><path id="path524" d="M15,7.48A7.11,7.11,0,0,0,12.8,4.9,18.46,18.46,0,0,0,5.74,1.6l0,.09A26.53,26.53,0,0,1,12,4.9a9.26,9.26,0,0,1,2.44,2.55A12.62,12.62,0,0,1,15.77,12h.13A15,15,0,0,0,15,7.48" fill="#a0856d"/><path id="path526" d="M13.37,40.9a20.73,20.73,0,0,0-3.23-.44H10a19.28,19.28,0,0,0-2.27.18c-.43.06-.87.11-1.31.15l-1,0h0a5.57,5.57,0,0,1-1.63-.21c-1.92-.69-2.19-3.09-1.38-7.16.32-1.57,1.34-4,2.37-4.81,2.32-1.78,5.83-2.51,9.41-2.71l.53,0,.81,0h.87a57.76,57.76,0,0,1,7.76.57c5.2.71,4.33,3.23.08,8-3.76,4.17-8.5,6.32-10.86,6.49" fill="#937a6a"/><path id="path528" d="M13.07,40.91a2.47,2.47,0,0,1-.5,0,11.34,11.34,0,0,0-2.45-.22c-1,0-2.2.07-3.68.14.44,0,.88-.09,1.31-.15A19.28,19.28,0,0,1,10,40.46h.12a20.73,20.73,0,0,1,3.23.44h-.3m-7.89-.07a4,4,0,0,1-1.4-.22,5.57,5.57,0,0,0,1.63.21H5.18" fill="#f4e0c1"/><path id="path530" d="M14.18,25.94l1.34-.05-.81,0-.53,0" fill="#755d50"/><path id="path532" d="M39.06,28.85c-.84-1.41-2.57-2.73-4.3-2.33s-3,2.21-3.8,3.85c-.05.13.14.26.22.14a8.65,8.65,0,0,1,3-3.05c1.65-.82,3.57.36,4.75,1.49l.11-.1" fill="#fef7ed"/><path id="path534" d="M32.46,35.92c-1.79,1.29-3.78,2.28-5.58.36l-.11.1c1.6,2.11,4.3,1.8,5.79-.35l-.1-.11" fill="#fef7ed"/><path id="path536" d="M35.28,106.54a1.67,1.67,0,0,1-1-.44,3,3,0,0,0,.63.29,1.36,1.36,0,0,0,.32.08l.09,0v0" fill="#98897f"/><path id="path538" d="M32.47,103.48a6.3,6.3,0,0,1-.28-.72h0a3.72,3.72,0,0,1,.19.34c0,.12,0,.26.06.39" fill="#3f2e26"/><path id="path540" d="M35.2,106.47a1.36,1.36,0,0,1-.32-.08,3,3,0,0,1-.63-.29,3.36,3.36,0,0,1-.64-.74,12.71,12.71,0,0,1-1.14-1.88c0-.13,0-.27-.06-.39A21.53,21.53,0,0,0,33.59,105a4.06,4.06,0,0,0,1.61,1.52" fill="#2a1e18"/><path id="path542" d="M32,107.06a3.1,3.1,0,0,1-1.18-.55l0,0a5.59,5.59,0,0,0,.65.39,2.45,2.45,0,0,0,.48.2" fill="#98897f"/><path id="path544" d="M28.75,103.5c0-.15-.09-.29-.12-.42h0l.07.13c0,.1,0,.2,0,.3" fill="#3f2e26"/><path id="path546" d="M32.12,107.07H32a2.45,2.45,0,0,1-.48-.2,5.59,5.59,0,0,1-.65-.39l0,0a6.44,6.44,0,0,1-2.1-3c0-.1,0-.2,0-.3a14.43,14.43,0,0,0,1.23,2,6.87,6.87,0,0,0,2.18,1.8v0" fill="#2a1e18"/><path id="path548" d="M34.52,101.53a3.76,3.76,0,0,0-.47-.3,12.5,12.5,0,0,1,.17-1.88c0-.26.07-.53.09-.8a21.05,21.05,0,0,1-.16,2.62l.06,0,.31.32" fill="#98897f"/><path id="path550" d="M35.46,102.94a6,6,0,0,0-1.33-1.46,8.26,8.26,0,0,0,0,.86h0A3.58,3.58,0,0,1,34,100.4,12.74,12.74,0,0,0,34.25,98h0a3.29,3.29,0,0,1,.05.54c0,.27-.05.54-.09.8a12.5,12.5,0,0,0-.17,1.88h0a3.76,3.76,0,0,1,.47.3,2.75,2.75,0,0,1,1,1.4h0" fill="#2a1e18"/><path id="path552" d="M39.92,103.69l-.24-.53a12.73,12.73,0,0,1-.54-1.5c0-.2-.06-.41-.08-.61l.06,0c.23.91.5,1.78.8,2.66" fill="#3f2e26"/><path id="path554" d="M41.31,106.92a3.66,3.66,0,0,1-1.46-2.35,19.6,19.6,0,0,1-.71-2.91,12.73,12.73,0,0,0,.54,1.5l.24.53c0,.12.09.25.13.38a6.7,6.7,0,0,0,1.32,2.75l-.06.1" fill="#2a1e18"/><path id="path556" d="M45.05,106.36a.91.91,0,0,1-.26-.13,1.23,1.23,0,0,0,.26.12h0" fill="#98897f"/><path id="path558" d="M43.22,102.45l-.07-.11-.09-.17-.06-.3h0a5.76,5.76,0,0,0,.18.59" fill="#3f2e26"/><path id="path560" d="M45.05,106.35a1.23,1.23,0,0,1-.26-.12,4,4,0,0,1-1-1.68,10.9,10.9,0,0,1-.72-2.38l.09.17.07.11a13.59,13.59,0,0,0,.64,1.64,6.59,6.59,0,0,0,1.24,2.17l-.05.09" fill="#2a1e18"/><path id="path562" d="M47.1,103.8H47a10.66,10.66,0,0,0-.47-4.46h0a6.63,6.63,0,0,1,.53,4.47" fill="#2a1e18"/><path id="path564" d="M84.42,63.23a10.08,10.08,0,0,0-5-.33,20.05,20.05,0,0,0-4,1.52A37.14,37.14,0,0,0,67.9,69C63.69,72.32,60,77.12,60,82.67h.12c.64-5.57,4.33-9.74,8.72-12.91a39,39,0,0,1,6.83-3.87c2.74-1.25,5.69-2.46,8.75-2.32.22,0,.2-.3,0-.35" fill="#a0856d"/><path id="path566" d="M51.62,55.75a19.31,19.31,0,0,1,2.4,7,32,32,0,0,1,.5,7c.87-4,.82-8.89,0-11.62a12,12,0,0,0-3.63-5.73A15.16,15.16,0,0,0,47.62,51a20.7,20.7,0,0,1,4,4.75" fill="#a0856d"/><path id="path568" d="M87.93,55.78a34.53,34.53,0,0,0-3.87-4.4,36.13,36.13,0,0,0-4.9-3.81A8.28,8.28,0,0,0,74,46.25c-2.44.25-3.17,0-9.84,2.5l2.78-.69a34.76,34.76,0,0,1,5.43-1.2,10.23,10.23,0,0,1,6.4,1.65,44.49,44.49,0,0,1,4.92,3.36c1.65,1.29,4.51,4.75,6,6.16.13.11-1-1.28-1.77-2.25" fill="#a0856d"/><path id="path570" d="M102.23,96.61c0-4.14-.24-7.46-.65-11.58-.77-7.79-4.7-18.9-10.28-24.64,0,0,1.12,1.47,1.77,2.42a45.83,45.83,0,0,1,7.86,22.52c.3,3.88.66,7.21.77,11.1.13,4.37,0,8.34.12,12.71l.23,2.6c.12-4.79.22-10.77.18-15.13" fill="#a0856d"/><path id="path572" d="M131.72,122.33a51.91,51.91,0,0,0-10.64-.45,72.42,72.42,0,0,1-8.33.15,17.35,17.35,0,0,1-7.55-1.92c-2.68-1.49-4-3.94-5.09-6.71l-.18,0a10.5,10.5,0,0,0,4.09,6.71,15.15,15.15,0,0,0,7.27,2.47,51.45,51.45,0,0,0,8.51,0c4-.21,7.94,0,11.91-.14v-.18" fill="#a0856d"/><path id="path574" d="M25.86,51.15A14.45,14.45,0,0,0,21.46,58l.17,0a36.31,36.31,0,0,1,4.28-6.86l-.05-.07" fill="#fef7ed"/><path id="path576" d="M25.83,49.8a10.9,10.9,0,0,0-2,2.45l.15.1c.62-.85,1.35-1.6,2-2.46l-.11-.09" fill="#fef7ed"/><path id="path578" d="M24.17,55.71a12,12,0,0,0-3.26,7.93h.17a22.53,22.53,0,0,1,3.21-7.84l-.12-.1" fill="#fef7ed"/><path id="path580" d="M24.23,69.57a9.26,9.26,0,0,1-1.53-4.69A19.61,19.61,0,0,1,23.44,60l-.15-.05a9,9,0,0,0,.78,9.78l.16-.11" fill="#fef7ed"/><path id="path582" d="M43.77,78.41a27.32,27.32,0,0,1-2.48,8c-1,2.27-2.28,4.62-2.69,7.09l.09,0c2.05-4.91,5-9.7,5.12-15.15h0" fill="#a0856d"/><path id="path584" d="M38.45,104.57A12,12,0,0,1,38,95.63l-.08,0a9.47,9.47,0,0,0,.47,9l.08-.05" fill="#a0856d"/><path id="path586" d="M28.93,93.89h-.06c-.08,2.13-1.1,4-1.79,6-.48,1.38-1,2.82-.29,4.18l.08,0c-.6-1.88.62-4,1.3-5.69a9.51,9.51,0,0,0,.76-4.46" fill="#a0856d"/><path id="path588" d="M26.57,90.59C25,89,23.41,87.46,21.84,85.87a10.41,10.41,0,0,1-2.68-5.51c-.82-4.18-.35-8.57.13-12.76h-.05c-.84,4.37-1.57,8.82-.6,13.24A9.18,9.18,0,0,0,21,85.54c1.76,1.78,3.59,3.55,5.52,5.15l.08-.1" fill="#a0856d"/></g></g></g></g></svg>