<svg xmlns="http://www.w3.org/2000/svg" viewBox="0 0 146.71 133.33"><title>Bear</title><g id="Layer_2" data-name="Layer 2"><g id="svg2"><g id="g10"><g id="g12"><path id="path1800" d="M144.92,110.66h0a4,4,0,0,0,.09-1.88,2.75,2.75,0,0,0-1.71-2c.74-2-.1-4.64-2.48-4.59a5.64,5.64,0,0,0-.08-4.59c-1.3-2.38-4.77-1.88-6.77-.91a7.9,7.9,0,0,0-3.52,3.38q-.69.45-1.38.93a24.2,24.2,0,0,0,.78-6.16,22.33,22.33,0,0,0-1.21-8.06,18.45,18.45,0,0,0-4.06-6.41c-1.35-1.41-3-3.28-5-3.8a5.69,5.69,0,0,1,2.79.56l.06-.09-.24-.22,0,0a6,6,0,0,0-4.16-1.7,7.21,7.21,0,0,0-3.68.54,70.16,70.16,0,0,0-.08-9.06c-.36-5-1.17-10-1.91-15a70.5,70.5,0,0,0-1.36-7,58,58,0,0,0-2.42-7l0,0c-.64-2.24-1.33-4.46-2.14-6.65a39.91,39.91,0,0,0-8.58-13.4A30.25,30.25,0,0,0,84.65,9.22a76.68,76.68,0,0,0-8.45-2,81.47,81.47,0,0,0-8.33-1.44c-6.28-.53-12.15,1.87-17.14,5.52A61.07,61.07,0,0,0,25.42,57.86a57.91,57.91,0,0,0,1.51,17.8c.32,1.17.69,2.31,1.12,3.43-2-.24-3.89-.19-5.55,1.07l0,.09.61-.18a5.79,5.79,0,0,1,1,.16,3.17,3.17,0,0,1,.69.26,2.53,2.53,0,0,0-.78.09,10.61,10.61,0,0,0-2.05.87,12.33,12.33,0,0,0-3.56,3.19,32,32,0,0,0-4.8,8.22,4.71,4.71,0,0,0-1.48.12,3.87,3.87,0,0,0-3,3.34c-.89-.32-1.75.35-2.4.91a4.31,4.31,0,0,0-1.44,2.87,3,3,0,0,0-2.8,1,4,4,0,0,0-.68,3.59l0,.19C.16,105-.21,107.38.1,108.78c.41,1.94,2.9,2.22,4.54,1.85-1,3.14,2.46,6.4,4.69,8.24A27.48,27.48,0,0,1,14,123.43a49.19,49.19,0,0,0,3.4,4.82,9.18,9.18,0,0,0,10.12,2.58,6,6,0,0,0,2.2-1.51.22.22,0,0,0,.32.12,17.61,17.61,0,0,0,4.55-3.15l.13,0a31.18,31.18,0,0,1,3-2c.82-.42,1.82-.73,2.62-1.23a2.4,2.4,0,0,0,.25,1.33c.68,1.33,2.53,1.63,3.84,1.34l.13-.07a2.25,2.25,0,0,0,.55.41,4.44,4.44,0,0,0,3.45-.05l0,0a5.16,5.16,0,0,0,4.92.36l.14-.1c2.33,1.27,5.63,0,7.22-1.64a11,11,0,0,0,1.32-2,18.37,18.37,0,0,0,1.35-3,10.7,10.7,0,0,1,4.18-.25,14.32,14.32,0,0,1,1.94.34,13.31,13.31,0,0,0,1.85.5,10.63,10.63,0,0,0,3.66,6.07,7.51,7.51,0,0,0,2.73,1.23,5.67,5.67,0,0,0,3.77.13,2.38,2.38,0,0,0,.4-.16c1.66.6,4.41,1.27,6.19.3l0,.07c.58.53,1.71.15,2.31-.2l.09-.06h0a3.32,3.32,0,0,0,4.15-1.57,2.3,2.3,0,0,0,0-2.29c1.45.68,3,1.1,4.52,1.73s2.91,1.28,4.32,2a34.4,34.4,0,0,0,3.22,2.74,5.64,5.64,0,0,0,4.26,2.81,21.67,21.67,0,0,0,7.86-.4,23.3,23.3,0,0,0,5.92-2.35q2.48-.9,5-1.73a27.54,27.54,0,0,0,7.33-3.47,12.9,12.9,0,0,0,4.57-5.07,6.13,6.13,0,0,0,.49-3,3.62,3.62,0,0,0,4-2,3.13,3.13,0,0,0-1.38-4.39" fill="#b75c1e"/><path id="path1802" d="M128.64,86.87l0-.05,0,.05m-6.49-10.05a4.71,4.71,0,0,0-.92-.76,4.71,4.71,0,0,1,.92.76m-.93-.76h0" fill="#fcf0e2"/><path id="path1804" d="M113.45,107.64a1.69,1.69,0,0,1-1.66-1,5.77,5.77,0,0,1-.15-2.74c.56-5.17,3.22-9.74,4.29-14.78a19.38,19.38,0,0,0,.31-5.48,14.74,14.74,0,0,1,.18-5.54,3.86,3.86,0,0,1,2-2.3,8.24,8.24,0,0,1,1.86.33,4.36,4.36,0,0,0-.51,0,5.36,5.36,0,0,0-1.43.2,6.12,6.12,0,0,1,1.48.35h-.31c2,.52,3.65,2.39,5,3.8a18.45,18.45,0,0,1,4.06,6.41h0l0,.05a22.14,22.14,0,0,1,1.16,5.88c0,.33-.08.66-.14,1a9.17,9.17,0,0,1-2.87,5.35c-2,1.79-4.81,2.29-7,3.79-1.83,1.26-2.93,3.37-4.94,4.41a3.25,3.25,0,0,1-1.39.35" fill="#c26b1d"/><path id="path1806" d="M86.52,100.58a6,6,0,0,1-.85-.06c-1.48-.22-1.94-1.5-1.93-2.84,0-3,1.63-6.13,2.91-8.82a112.88,112.88,0,0,1,8.29-13.74c1.63-2.46,3.1-5,4.73-7.48a41.35,41.35,0,0,0,4.09-7,36.65,36.65,0,0,0,3-12.44,9.44,9.44,0,0,1,.62-2.21c1.38.86,1.79,3,2.1,4.42.38,1.79.54,3.62.77,5.43a44.88,44.88,0,0,1-1,17.46,50,50,0,0,1-7.28,15.12c-2.67,3.93-5.6,7.94-9.77,10.39a12,12,0,0,1-5.62,1.79" fill="#c26b1d"/><path id="path1808" d="M43.08,91.27a5.73,5.73,0,0,1-3-1.36,26.17,26.17,0,0,1-2.74-2.29,28.31,28.31,0,0,1-4.4-5.53,40.42,40.42,0,0,1-5-13.22A50.46,50.46,0,0,1,27.13,55a39.92,39.92,0,0,1,2.72-12.33.25.25,0,0,0,.13,0,.21.21,0,0,0,.2-.13c.31-.75.49-1.55.84-2.28.2-.39.52-.72.85-.72a.76.76,0,0,1,.61.43,3.13,3.13,0,0,1,.17,1.77,84.65,84.65,0,0,0-.48,8.85c.27,5.1,2.93,9.45,5.66,13.61a41.74,41.74,0,0,1,4,7.21c1,2.54,1.83,5.16,2.67,7.77a39.49,39.49,0,0,1,1.57,6c.32,2.15.14,5.86-2.74,6.1h-.2" fill="#c26b1d"/><path id="path1810" d="M101.16,21.49l0,0,0,0m0-.06a43,43,0,0,0-3.28-3.87,43,43,0,0,1,3.28,3.87" fill="#fcf0e2"/><path id="path1812" d="M104.3,34.19a1.77,1.77,0,0,1-1.28-.66,11.52,11.52,0,0,1-1.45-2.47,25.32,25.32,0,0,0-1.66-2.79A37.28,37.28,0,0,0,81.62,13.94a9.86,9.86,0,0,0,5-2.63,36,36,0,0,1,3.63,1.8c6.82,3.92,10.5,11,14.56,17.4l.14-.08c-3.2-6.73-7.33-13.38-13.75-17.51a27.3,27.3,0,0,0-4.15-2.17,4.8,4.8,0,0,0,.32-.54,30.67,30.67,0,0,1,10.42,7.3l0,0a43,43,0,0,1,3.28,3.87h0l0,0a38.61,38.61,0,0,1,4.16,6.89c.07.53.14,1.06.2,1.59a9.75,9.75,0,0,1,0,3.05c-.16.81-.65,1.17-1.19,1.17M35.85,29.3l-.16-.05c.57-.66,1.14-1.34,1.72-2A7,7,0,0,0,37,28.55c-.26.15-.51.31-.76.47l-.39.28m-.41-.2a1.32,1.32,0,0,1-.36-.85c0-.13,0-.27,0-.4a61.56,61.56,0,0,1,7.58-9.51h0a43,43,0,0,0-2.6,3.79c-.54.88-1,1.8-1.48,2.71-1.11,1.43-2.16,2.86-3.14,4.26m37-19.48-.06,0a59.84,59.84,0,0,0-7.6-2l-.88-.19a23.63,23.63,0,0,1,2.82-.26l.79,0a33.73,33.73,0,0,1,5.08.44c-.08.7-.12,1.39-.15,2.07M62.49,7a9,9,0,0,1-1.67-.62,21.81,21.81,0,0,1,5.3-.67c.58,0,1.16,0,1.75.07a45.32,45.32,0,0,1,4.88.75c0,.11,0,.23,0,.34a39.92,39.92,0,0,0-4.47-.41h-.71a23.28,23.28,0,0,0-5,.55" fill="#c26b1d"/><path id="path1814" d="M105,30.43c-3.2-6.73-7.33-13.38-13.75-17.51a36.83,36.83,0,0,0-10.4-4.28A56.64,56.64,0,0,0,68.23,6.49C53.76,6,42.16,19.3,34.71,30.14l.14.11C43.22,20.51,52.52,7.62,66.76,7.13,70.92,7,75.3,8,79.33,9a40.41,40.41,0,0,1,10.93,4.16c6.82,3.92,10.5,11,14.56,17.4l.14-.08" fill="#e19441"/><path id="path1816" d="M21.81,81.59l.05,0h0l0,0" fill="#fcf0e2"/><path id="path1818" d="M29.29,104.69a2.62,2.62,0,0,1-1.51-.68,11.52,11.52,0,0,1-2.34-3.07,24.21,24.21,0,0,0-4.74-5.45C18.9,94,16.32,93,16.35,90.3c0-2.23,1.64-4.36,2.94-6,.59-.76,1.22-1.49,1.84-2.23a7.15,7.15,0,0,1,.68-.44l0,0-.42.28a9.35,9.35,0,0,1,3.36-1q.3-.06.6-.09l.06,0,.11,0,.45-.06v-.09l-.53,0a2.29,2.29,0,0,0-1.77-.58h-.12a10.8,10.8,0,0,1,1.7-.41,4.17,4.17,0,0,1,.71,0h0a3.67,3.67,0,0,1,1.16.71c1.47,1.3,2.09,3.48,2.62,5.3A54.92,54.92,0,0,1,31.71,95c.27,2.55.57,5.63-.49,8a3,3,0,0,1-1.53,1.62,1.16,1.16,0,0,1-.4.07" fill="#c26b1d"/><path id="path1820" d="M14.14,94.6a2.86,2.86,0,0,0-4.29,2.33c-.44,4.88,9.14,6.93,7.26,1.36a6.42,6.42,0,0,0-3-3.69" fill="#eea25a"/><path id="path1822" d="M6.35,102.73a2.57,2.57,0,0,0,1.52,1.35c1,.32,2.85-.59,2.54-2A5.27,5.27,0,0,0,8,98.84c-2-1.12-2.3,1.84-2,3.08a3.74,3.74,0,0,0,.3.81" fill="#eea25a"/><path id="path1824" d="M22.57,112c-.26-1.4-.39-2.69-.63-4.11a4.5,4.5,0,0,0-3-3.73c-2.5-.91-5.25,1.08-8.14,4.09-1.49,1.57-4,1.57-4.58,3-1,2.24.27,3.61,2.24,5s4,2.19,5.38,4.23c1.22,1.81,1.86,4,3.05,5.84s3.42,3.34,5.47,3.25c2.53-.12,3.54-3.17,3.48-5.64-.05-2.78-1.22-5.24-2.19-7.73A22.84,22.84,0,0,1,22.57,112" fill="#eea25a"/><path id="path1826" d="M1.78,109.78c.61.3,1.63.71,2.18,0s0-1.28-.4-1.74a3.29,3.29,0,0,0-2.51-1.42c-1.3.41-.27,2.63.73,3.12" fill="#eea25a"/><path id="path1828" d="M4.37,107.51c2.05.75,2.66-2.07,1.33-3.82a4.22,4.22,0,0,0-2.32-1.77c-2.39-.31-.72,4.52.2,5.16a3.7,3.7,0,0,0,.79.43" fill="#eea25a"/><path id="path1830" d="M140.47,98.9c-1.49-2-4.78-.49-6.13,1-1.07,1.13-2.11,2.86-1.64,4.48a2.26,2.26,0,0,0,2.11,1.86,7,7,0,0,0,4.82-2.44c.94-1,2-3.48,1.15-4.83l-.31,0" fill="#eea25a"/><path id="path1832" d="M145.56,113.08a2.68,2.68,0,0,0-2.4.85c-.68.67-1.11,2,.2,2.31,1.61.39,3.68-2.1,2.2-3.16" fill="#eea25a"/><path id="path1834" d="M124,109.78a8.54,8.54,0,0,0-4.09,6,14.39,14.39,0,0,1-2.35,6,10.76,10.76,0,0,1-4.93,3.52c-1.47.6-2.74,1.65-2.29,3.44a3.4,3.4,0,0,0,2.49,2.46,16.36,16.36,0,0,0,6.93,0c2.71-.4,5.21-2,7.75-3,4.44-1.76,10.21-2.58,12.35-7.33.56-1.25,1.34-3.27.51-4.55-.67-1-1.91-1.15-2.94-1.63-2.27-1-3.09-3.67-5.14-4.92a8.71,8.71,0,0,0-8.29.15" fill="#eea25a"/><path id="path1836" d="M143.26,109.14c-1.26-.14-3.24,1.11-3.19,2.42.07,1.75,2.62,1.26,3.47.46a2.25,2.25,0,0,0,.73-1.61,1.08,1.08,0,0,0-1-1.27" fill="#eea25a"/><path id="path1838" d="M142,104.66a2.79,2.79,0,0,0-2.07.48c-.94.62-2.22,1.7-2.16,3,.09,1.79,2.55,1.2,3.5.51a4.58,4.58,0,0,0,1.53-1.82A3.11,3.11,0,0,0,143,106a1.26,1.26,0,0,0-1-1.38" fill="#eea25a"/><path id="path1840" d="M129.05,101c0-.05,0-.09,0-.13s0,.08,0,.13m0-.14v0m1.34-.79a1.59,1.59,0,0,1,.13-.22,1.59,1.59,0,0,0-.13.22m-125-.55h0m0,0a.5.5,0,0,1,0-.12.5.5,0,0,0,0,.12m0-.13h0M28.05,79.09S28,79,28,79s0,.08,0,.11M114.23,66.6c0-.17,0-.33,0-.49,0,.16,0,.32,0,.49" fill="#cd9c72"/><path id="path1842" d="M113.92,132.67l-.38-.09c-2.67-.65-5.26-2.2-5.74-5.12a9.86,9.86,0,0,1,.8-5.56c-.32.44-.62.9-.91,1.36.09-.26.17-.51.25-.76l-.14-.07c-.27.65-.55,1.28-.8,1.91s-.75,1.17-1.16,1.74a1.31,1.31,0,0,1-1,.68c-1.86,0-3.77-5.54-4.18-6.6-1.93-5-.5-10.27,2.48-14.51q1.68-2.39,3.17-4.88l.18-.17,0-.06a57.75,57.75,0,0,0,5-10.86,44.44,44.44,0,0,0,2.84-13.23l.11,0a2.93,2.93,0,0,1,1-.44,6.9,6.9,0,0,0-.74,2.48,42.52,42.52,0,0,0,0,5.53,28.16,28.16,0,0,1-.41,5.36,20.51,20.51,0,0,0-.41-2.57.2.2,0,0,0-.2-.14.17.17,0,0,0-.18.14A34.22,34.22,0,0,1,110.85,97c-1.54,3.22-4.12,5.84-5.89,8.94a.19.19,0,0,0,.17.29.18.18,0,0,0,.13-.06,12.34,12.34,0,0,1,3.16-2.1c-.92,1.62-2.1,3.08-2.9,4.77a15.89,15.89,0,0,0-1.18,6.72.18.18,0,0,0,.19.19.19.19,0,0,0,.19-.14,9.91,9.91,0,0,1,2.52-3.74,6.21,6.21,0,0,0,.67,4.48,2.5,2.5,0,0,0,2.2,1.13,4.77,4.77,0,0,0,2.35-.7c1.65-1,2.52-2.9,3.21-4.61a35.94,35.94,0,0,1,2.17-5.26,27.15,27.15,0,0,0,0,3.25.23.23,0,0,0,.22.2.16.16,0,0,0,.15-.1,17.1,17.1,0,0,1,3.59-5.88c-.17,1.11-.52,2.17-.71,3.27a.19.19,0,0,0,.19.24.21.21,0,0,0,.19-.13,13.88,13.88,0,0,1,4.16-5.15c.88-.73,1.85-1.35,2.71-2.1a5.07,5.07,0,0,0,.73-.8,6,6,0,0,1-.86,1.64l0,.25c-.63.45-1.24.9-1.83,1.37a13.42,13.42,0,0,0-2.73,3.53l0,0a21,21,0,0,1,3.25-3.35c1-.68,2.07-1.27,3-2.06a10.79,10.79,0,0,0-.68,3.07h.05a15.34,15.34,0,0,1,1.21-3.42,4.94,4.94,0,0,0,.1,2,2.48,2.48,0,0,0,2.16,1.74,2.19,2.19,0,0,0,2,1.6h0a6.31,6.31,0,0,0,3.77-1.49,7.64,7.64,0,0,1-3.93,2,8.15,8.15,0,0,0-4-1.32l0,.09c2.57.38,4.43,2.15,6.17,3.92l.17-.15a7.49,7.49,0,0,0-1.93-2.23,6.84,6.84,0,0,0,5.12-3.56,7.56,7.56,0,0,0,.34-.7h.07c-.12.26-.22.5-.27.59-.37.72-.79,1.42-1.21,2.13l-.26.42a2.92,2.92,0,0,0-1.13,2.16,1.21,1.21,0,0,0,1.39,1.19,4,4,0,0,0,2.11-.68l.2-.15.36-.2c-1,1.15-2.67,1.36-4.2,1.43v.11a6.22,6.22,0,0,0,1,.1,4.93,4.93,0,0,0,3.42-1.3c-.33.41-.67.83-1,1.24a2.24,2.24,0,0,0-1.06,1.72c0,.87.68,1.19,1.42,1.19a3.3,3.3,0,0,0,.82-.11h.11a1.92,1.92,0,0,0,1.25-.49,3.59,3.59,0,0,1-3,1.16h0v.14l.57,0a3.49,3.49,0,0,0,3.37-1.92c-.31.79-1,1.42-1.24,2.23l-.16.15c-.68.67-1.11,2,.2,2.31a1.34,1.34,0,0,0,.35.05,2.51,2.51,0,0,0,1.72-.86,4.13,4.13,0,0,1-3.13,1.31,3.48,3.48,0,0,0-1.22-2.15l-.14.12c1.65,1.91.9,4.72-.41,6.59a16.73,16.73,0,0,1-4.74,4.16,41,41,0,0,1-7.06,3.07c-.65.26-1.29.51-1.92.78h0l-.53.25c-1.08.45-2.16.91-3.23,1.4-.88.34-1.78.65-2.7.91a25,25,0,0,1-6.38.81M110.29,128a2.38,2.38,0,0,0,.09.62,3.4,3.4,0,0,0,2.49,2.46,10.14,10.14,0,0,0,2.85.37,27.64,27.64,0,0,0,4.08-.4c2.71-.4,5.21-2,7.75-3,4.44-1.76,10.21-2.58,12.35-7.33a9.81,9.81,0,0,0,.82-2.47,2,2,0,0,0,.3-1.88c-.63-1.44-3.51-1.89-4.66-3.22-1.3-1.49-1.33-3.8-2.92-5.14a6.61,6.61,0,0,0-4.36-1.58,9.58,9.58,0,0,0-3.15.57,11.2,11.2,0,0,0-5.09,3.9,19.27,19.27,0,0,0-2.83,6.28c-.72,2.46-2.31,3.81-4.51,5-1.56.84-6.15,5-3.21,5.87m-87.2,2.1a7.53,7.53,0,0,1-3.59-.9,12.11,12.11,0,0,1-2.45-2.29c-1-1.27-1.87-2.69-2.84-4a22.41,22.41,0,0,0-3.58-3.64c-2.34-2-6.39-5.27-5.67-8.77l0-.11a3.85,3.85,0,0,1,.26-.79l-.1-.06a5.1,5.1,0,0,0-.38.73H3.7a1.24,1.24,0,0,0,.31-.53c.38-.57-.07-1.23-.45-1.67a5.23,5.23,0,0,0-.82-.81,4.72,4.72,0,0,1-.37-.41,3,3,0,0,1-.56-1.61l.16-.09a4,4,0,0,0,.74,1.43,5,5,0,0,0,1,1,3,3,0,0,0,1.71.73,1.23,1.23,0,0,0,.53-.11c-.15.26-.3.52-.43.79l.08,0c2.2-3.39,5.89-5,9.49-6.49l.06-.06c1.67-.27,3-1.66,4-2.9L19,99.53A7.19,7.19,0,0,1,14.81,102a3.25,3.25,0,0,1-.44,0,4.22,4.22,0,0,1-2.34-.77,3.26,3.26,0,0,0,1.63.43,3.92,3.92,0,0,0,.83-.1l.5,0c1.37,0,2.44-.66,2.36-2.18a4.16,4.16,0,0,0-.24-3.67,7.18,7.18,0,0,0-1-1.4l.13.08c2.12,1.35,3.6,3.46,5,5.48a25.36,25.36,0,0,1,1.54,2.38,17.5,17.5,0,0,1,2,4h0a16.42,16.42,0,0,0-.56-2.5,20.68,20.68,0,0,0-3.4-5.59,17.22,17.22,0,0,0-4.53-4.47,10.23,10.23,0,0,1,1.59.79,20.78,20.78,0,0,1,5.2,5.09,14.91,14.91,0,0,1,3,6.18c.45,2.21.46,4.47.9,6.68a.17.17,0,0,0,.18.14.21.21,0,0,0,.2-.14,9.88,9.88,0,0,1,1-2.32,18.48,18.48,0,0,0,.85,5.37.2.2,0,0,0,.19.13.19.19,0,0,0,.19-.19,7.74,7.74,0,0,1,1.15-3.15c.24,1.73,1,3.83,3,3.94H34c2.09,0,3-2.67,3.36-4.3a21.38,21.38,0,0,0-.12-8.94A17.3,17.3,0,0,0,35.6,98.2a36.22,36.22,0,0,1-2.53-4.44,11.9,11.9,0,0,1,2.77,2.13.19.19,0,0,0,.14,0,.19.19,0,0,0,.19-.24,13.55,13.55,0,0,0-2.16-4c-1-1.58-1.7-3.33-2.62-5a27.93,27.93,0,0,1-2.68-5.18c-.19-.63-.33-1.27-.5-1.88h.07a61.71,61.71,0,0,0,6.08,11.16C36,93.37,37.55,96,39,98.67a63.23,63.23,0,0,1,4.08,8,30.28,30.28,0,0,1,1.38,5.14c0,.28,0,.57,0,.85,0,1.51-.25,3.26-1.66,4.09l-.27-.07c-1.33-2.85-.69-6.27-1.36-9.28a20,20,0,0,0-2.49-6.6,22.84,22.84,0,0,0-1.5-2.49l-.1.07c.21.37.41.74.6,1.12-.16-.17-.31-.33-.48-.48a18.84,18.84,0,0,1,2.81,9.16A26.61,26.61,0,0,1,38,118.61a12.68,12.68,0,0,1-2.47,4.19c-.43.44-1.25,1.4-2,1.4a.78.78,0,0,1-.22,0c-.67-.18-.87-1-1-1.56a14.3,14.3,0,0,0-.71-2.66,20.07,20.07,0,0,0-.92,3.42,9.45,9.45,0,0,1-1.4,3.22A7.42,7.42,0,0,1,24.74,130a8.56,8.56,0,0,1-1.65.17M5.89,112.76c0,1.43,1.07,2.49,2.57,3.58,1.87,1.36,4,2.19,5.38,4.23,1.22,1.81,1.86,4,3.05,5.84a7,7,0,0,0,5.28,3.25h.19c2.24-.1,3.28-2.5,3.46-4.76a1.58,1.58,0,0,0,1,.53c.4,0,.7-.31.78-.9a18.43,18.43,0,0,0-1.94-9.25c-1.46-2.45-1.75-5.66-2.25-8.36a5.39,5.39,0,0,0-5.47-4.6,6.92,6.92,0,0,0-5.59,3,6.68,6.68,0,0,1-4,2.75c-1,.29-2.77,1.64-2.35,3.21,0,.1.06.2.1.3a3.34,3.34,0,0,0-.24,1.22m80.16,15a10.75,10.75,0,0,1-3.3-.63,3.2,3.2,0,0,0,1.19-2.35,3.47,3.47,0,0,0-.1-1,1.09,1.09,0,0,0,0-.18,1.91,1.91,0,0,1,.37-1.43,2,2,0,0,1,1.45-.54,3.89,3.89,0,0,1,.9.11,3.55,3.55,0,0,0-.46,0l-.36,0h0c-.88,0-1.63.58-1.26,1.67.15.45.42.84.56,1.3a2.15,2.15,0,0,0,.6,1,2.4,2.4,0,0,0,1.65.56h0a2.08,2.08,0,0,0,2-1.23,2.27,2.27,0,0,1-.52,1.69,3.42,3.42,0,0,1-2.69,1m2.74-.25a3.42,3.42,0,0,0,.66-.79,3.06,3.06,0,0,0,.39-1.36,2.85,2.85,0,0,0,0-1.2,9.64,9.64,0,0,0-.53-1.42l-.08-.09c.19.23.46.46.56.62a7.17,7.17,0,0,1,.59,2.21.84.84,0,0,0,.8.58h0a6.42,6.42,0,0,1,.52-.18,3.42,3.42,0,0,1-3,1.63m-8.64-.1a7,7,0,0,1-1.28-.14,6.21,6.21,0,0,1-.75-.31,8.19,8.19,0,0,1-1.54-.5A7.53,7.53,0,0,1,73.2,123a2.19,2.19,0,0,1,1-1.54,5.94,5.94,0,0,1,3.26-.8,12.51,12.51,0,0,1,1.4.09l.42.06-.44,0H78.8c-1.31,0-3,.73-2.51,2.18.53,1.76,2.88,2.3,4.44,2.41h.34a3.3,3.3,0,0,0,2.33-.74,2.77,2.77,0,0,1-2.14,2.52,3.51,3.51,0,0,1-1.11.16m11.92-.16a3.92,3.92,0,0,1-.68-.07,3.06,3.06,0,0,0,1.09-1.68,2.17,2.17,0,0,0,0-.25,1.94,1.94,0,0,0,0-1.74,1.9,1.9,0,0,1-.36-.88,1.22,1.22,0,0,0,.16.3c.47.61,1,1,.9,1.86,0,.44-.28,1.21.23,1.51a.94.94,0,0,0,.45.14h0a2.55,2.55,0,0,1-.47.4,2.18,2.18,0,0,1-1.33.41m-41-1a3,3,0,0,1-3.06-2,1.32,1.32,0,0,0,1.13.72,1.59,1.59,0,0,0,.6-.13c.93-.4,1.11-1.34,1.27-2.26a2.77,2.77,0,0,1,1.39-2c.2-.12.42-.19.6-.31a6.51,6.51,0,0,1-.45.52,2.2,2.2,0,0,0-.54,1.68,2.69,2.69,0,0,0,.23,2.56,4.26,4.26,0,0,0,.8.88,5.9,5.9,0,0,1-2,.36m4.82-.28a5.73,5.73,0,0,1-2.24-.48,1.82,1.82,0,0,1-1.11-2.06,1.63,1.63,0,0,0,1.47.89l.49,0a6.5,6.5,0,0,0,4.79-2.54,2,2,0,0,0,.45-2c-.22-.48-.85-.6-1.42-.63l-.28-.08h.28c1.82,0,3.69.79,3.48,2.82-1.35,2.28-3.4,4.11-5.91,4.11m-9.28-.24a2.23,2.23,0,0,1-2.31-1.6,1.64,1.64,0,0,0,.55.43,1.18,1.18,0,0,0,.55.14,1.55,1.55,0,0,0,1.39-1.47c.08-1,.12-2.1,1-2.67l.7-.45a2.53,2.53,0,0,0-.75,1.3,4.15,4.15,0,0,0-.34,2.69,3.25,3.25,0,0,0,.63,1.42,5.84,5.84,0,0,1-1.45.21m-3-.54a3.64,3.64,0,0,1-1.6-.37,1.57,1.57,0,0,1-.73-.68.93.93,0,0,0,.46.12,1.33,1.33,0,0,0,.9-.41,2.41,2.41,0,0,0,.46-1.45,3.33,3.33,0,0,1,1.67-2.19l0,0c0,.24-.32.47-.42.71a1.42,1.42,0,0,0-.14.38,3.49,3.49,0,0,0-.47,2.82,3.76,3.76,0,0,0,.41,1.05,5.46,5.46,0,0,1-.57,0m45.51-2.82a.39.39,0,0,1,0-.21.39.39,0,0,0,0,.21m4.71-.12a.86.86,0,0,1-.07-.1V122a2.41,2.41,0,0,0,.08.25m-41.65-.09a2.9,2.9,0,0,1,.61-1,4.31,4.31,0,0,0-.61,1m40.1,0h0m0,0h0m0,0h0m0,0h0m0,0h0M89.21,122h0m4.48,0A7,7,0,0,1,93,119.3a16.3,16.3,0,0,0,.66,2.65m-48.95-2.06h0m0,0,0,0,0,0m0,0h0m0,0h0m-.09,0a3.44,3.44,0,0,0-.46,0h0a3.4,3.4,0,0,1,.45,0m19.06-.43c0-.12.08-.24.12-.36l0,.33-.07,0m20.06-.16A9,9,0,0,1,78,117.35,11.24,11.24,0,0,1,74.45,110a35.41,35.41,0,0,1,.44-11.19c.75-2.37,1.68-4.7,2.61-7q1.89-4.73,4.17-9.26c1-1.93,2.12-3.83,3.22-5.73,2.26-3.9,4.79-7.58,7.4-11.25.87-1.23,1.65-2.52,2.45-3.8l2.59-3.62-.11-.09.37-.48h0a15.22,15.22,0,0,0-3.69,3.86.19.19,0,0,1-.17.1.2.2,0,0,1-.2-.18.2.2,0,0,1,0-.07,60.93,60.93,0,0,1,3.64-7.55h0a24.23,24.23,0,0,0,2.91-7.44h0c0-.17,0-.34.07-.52a16,16,0,0,0-.08-4,9.66,9.66,0,0,0-2.11-7c.61.45,1.19.93,1.77,1.4l.05.07h0l.09-.11L99.78,36a5.24,5.24,0,0,0-3.58-3.5l0,.13a5.84,5.84,0,0,1,2.16,1.59,7.11,7.11,0,0,1,.73,1A6.51,6.51,0,0,0,96.74,34l0,0,.5.29a11.41,11.41,0,0,1,2.29,8.55,18.92,18.92,0,0,1-1,4.51L98,48.68c-.33.73-.72,1.44-1.07,2.16a4,4,0,0,0-.39-2.16V48.6l-.07-.06-.09-.17-.13.07a3.5,3.5,0,0,1,.14.46,8.76,8.76,0,0,1-1.12,3.92A15.59,15.59,0,0,1,93,56.41a13.06,13.06,0,0,1-3.24,2.53A7.49,7.49,0,0,0,88.34,60l-.09.1a15.8,15.8,0,0,0,1-4l-.11,0c0,.13-.1.26-.14.39l0,.05a20.82,20.82,0,0,1-2.58,4.39,15.32,15.32,0,0,1-3.72,3.23C80,65.76,77,66.84,74.33,68.41a19,19,0,0,0-5.59,4.9,6.78,6.78,0,0,0-1.63,4.42,16.32,16.32,0,0,0-5.44-5.55c-3.74-2.3-8-3.45-12-5.26S41.77,63.34,39,60a12.8,12.8,0,0,1-1.1-1.55,15,15,0,0,1-1.36-3.36,7.72,7.72,0,0,1,.68-5.18,12.46,12.46,0,0,0,0,4.18A9.5,9.5,0,0,0,41,60.06c3.93,3.1,9.15,3.83,13.34,6.49a.14.14,0,0,0,.1,0,.2.2,0,0,0,.13-.34,6.05,6.05,0,0,1-1.28-2.81,12.27,12.27,0,0,0,5.25,4.44c2.25,1.06,5.05,1.88,6.33,4.2a.18.18,0,0,0,.16.1.22.22,0,0,0,.21-.2c.12-1.18,1.39-2,2.29-2.57s2-1.12,2.93-1.7a35.84,35.84,0,0,0,6.68-5.49,7.5,7.5,0,0,1-1.36,2.59c-.11.15,0,.29.18.29a.12.12,0,0,0,.08,0,28.37,28.37,0,0,0,9.49-6.94,19,19,0,0,0,3-4.73A30.07,30.07,0,0,0,89.86,48a11.9,11.9,0,0,1,.34,5.9.24.24,0,0,0,.2.26.16.16,0,0,0,.13-.07,18.78,18.78,0,0,0,3.16-4.79,14,14,0,0,0,.91-5.08,9.66,9.66,0,0,1,.91,2.42.18.18,0,0,0,.18.14.2.2,0,0,0,.19-.14c.8-2.46,2-8.8-2.2-8.85h0a7.41,7.41,0,0,0-3.26,1.08,19,19,0,0,0-3.82,2.8c-.51.27-1,.55-1.51.84a19.52,19.52,0,0,0-4.59,3.33,16.46,16.46,0,0,0-2.09,3.5c-.58,1.12-1.24,2.59-2.38,3.28a8.71,8.71,0,0,0,.06-1.91.22.22,0,0,0-.2-.2.16.16,0,0,0-.09,0,10.17,10.17,0,0,0-2.24,3.24,10.76,10.76,0,0,1-4.21,3.73,19.47,19.47,0,0,1-3.93,1.75,8.88,8.88,0,0,1-2.6.54,2.3,2.3,0,0,1-1.34-.35A9.2,9.2,0,0,0,63.38,59a.2.2,0,0,0,0-.36c-3.06-.44-6.18-.39-9.21-1.12a12.32,12.32,0,0,1-4.82-2.38c-1.23-1-1.73-2.59-2.55-3.87A7.57,7.57,0,0,0,43.89,49a31.27,31.27,0,0,0-3.2-1.8,3.65,3.65,0,0,0-1.45-.29c-1.89,0-3.64,1.4-3,3.67.43-1.94,1.24-1.73,1.8-2.43a3.86,3.86,0,0,0-.68,1.34l0,0a8.61,8.61,0,0,0-.53.75,10,10,0,0,0-1.13,1.46,15.73,15.73,0,0,1,1.16-5.71l-.16-.1a8.61,8.61,0,0,0-1.24,6.47,1.55,1.55,0,0,0,0,.82h.17A5.11,5.11,0,0,1,36,52,7.21,7.21,0,0,0,36,55c.39,3.43,2.48,6.76,4.68,9.35.47.55.95,1.1,1.44,1.64a37.43,37.43,0,0,0,6.84,6.39l2,1.56c1,1.28,2.1,2.56,3,3.93a50.32,50.32,0,0,1,3.69,6.46,85.22,85.22,0,0,1,5.39,13.78,41.5,41.5,0,0,1,1.3,6.72,23.71,23.71,0,0,1-.76,3.71c-.84,2.87-2.29,5.83-4.88,7.5a10.46,10.46,0,0,1-5.62,1.51c-3,0-6-1.08-7.68-3.27-.1-.72-.22-1.43-.35-2.14s-.24-1.21-.39-1.81a23.69,23.69,0,0,0-.7-3,40.61,40.61,0,0,0-3.55-7.48c-1.47-2.66-3-5.32-4.57-7.9s-3.25-4.8-4.63-7.37c-.18-.34-.36-.68-.53-1a29.71,29.71,0,0,0,3,4.33,52.07,52.07,0,0,0,6.43,6.43c1.89,1.55,4.42,3.52,7,3.52a3,3,0,0,0,.42,0c3.07-.25,3.58-4.16,3.74-6.55a30.8,30.8,0,0,0-2.15-12.79,27.21,27.21,0,0,0-5-8.42,48.58,48.58,0,0,0-5.59-4.92,3.6,3.6,0,0,0,1.33.32H40a.2.2,0,0,0,.14-.34,33,33,0,0,1-2.84-3.8,19.73,19.73,0,0,1-1.9-4.55A18.5,18.5,0,0,1,35,47.53c.22-.88.58-2.07.07-2.92a6.59,6.59,0,0,0-1.14-1.16,3.52,3.52,0,0,1-1-1.78,8.55,8.55,0,0,1-.28-2.45,7.79,7.79,0,0,0,3,4,28.31,28.31,0,0,0,4.82,2.67,34.14,34.14,0,0,0,4.64,1.93,2.6,2.6,0,0,0,.27,1.12l0,0a3.88,3.88,0,0,0,2.09,1.45h.06a5,5,0,0,0,1.1.42l.44.1h0c1.29,1.86,3.55,2.68,5.71,3a17.86,17.86,0,0,0,2.82.22,18.74,18.74,0,0,0,5.1-.71c2.58-.72,5.27-1.76,7.05-3.85a38,38,0,0,1,3.55-3.85c.34-.3.7-.6,1.06-.89a75.61,75.61,0,0,1,7-4,60.54,60.54,0,0,1,7-2.47,11.39,11.39,0,0,0,5.41-4.2,5.36,5.36,0,0,0,1.23-3.28h0a4.88,4.88,0,0,0-.25-1.52l.17.22a5.86,5.86,0,0,1,1.05,2l.11.06.14-.07a7.83,7.83,0,0,0,.31-2.19h0a10.2,10.2,0,0,0-2.42-6.29A10.38,10.38,0,0,1,95.87,25c1.44,2.12,1.39,4.9,1.9,7.33a.16.16,0,0,0,.16.14.28.28,0,0,0,.13,0,10.7,10.7,0,0,1,3.72,7.76,5.07,5.07,0,0,0-.74-.89.24.24,0,0,0-.13,0,.19.19,0,0,0-.18.29c1.28,2.11,1.07,4.89,1,7.26a16.85,16.85,0,0,1-3,8.45.21.21,0,0,0,.16.31l.06,0a27,27,0,0,1,2.58-1,67.39,67.39,0,0,0-7.89,10A103.41,103.41,0,0,0,81.89,85.19a51.37,51.37,0,0,0-3.29,9.73c-.45,2.11-.93,5.08.54,6.93a4.17,4.17,0,0,0,3.44,1.43,16.93,16.93,0,0,0,5.83-1.46,32.34,32.34,0,0,0,11.73-8.6c7.2-8,10.23-18.64,11-29.14.56,4.55-.07,13.42,1.06,13.42.15,0,.34-.16.56-.51,0,0,0,0,.06,0A.23.23,0,0,1,113,77c.05,0,.09.08.13.08s0,0,0-.06a19,19,0,0,0,.6-2.56,54.29,54.29,0,0,1-.56,6,42.68,42.68,0,0,1-1.2,5.48A28.74,28.74,0,0,1,109.42,92c-1.18,2-2.53,3.85-3.73,5.81a.18.18,0,0,1-.16.1.2.2,0,0,1-.18-.29A54.28,54.28,0,0,0,109.83,86c.44-1.86.84-3.76,1.11-5.66a15.66,15.66,0,0,0,.13-2.26c0,.2-.07.39-.11.59A34.9,34.9,0,0,0,111.4,72a1.08,1.08,0,0,1-.07-.52l0-.25V71.1h-.08a57,57,0,0,1-2.88,15.68,46.76,46.76,0,0,1-2.74,6.73,48.74,48.74,0,0,1-3.89,6.06,69.62,69.62,0,0,0-6.29,9.7,23.38,23.38,0,0,0-2,4.56,15.84,15.84,0,0,1-6.71,5,9.76,9.76,0,0,1-3,.46M44,118.74a4.48,4.48,0,0,0,.63-.82,4,4,0,0,1-.55.75l-.08.07m.84-1.25a2.19,2.19,0,0,0,.12-.33c0-.16.08-.33.11-.49a3,3,0,0,1-.23.82M5.53,108A2.42,2.42,0,0,1,4,107.37l.17,0,.23.1a2,2,0,0,0,.64.12,1.35,1.35,0,0,0,1.29-1.07,1.73,1.73,0,0,0,.29-1.51,2.58,2.58,0,0,0-.65-1,2.25,2.25,0,0,0-.24-.36,8,8,0,0,0-.8-.9,3,3,0,0,1,0-2.18l.43,0a4.21,4.21,0,0,0,1.21,3,3.47,3.47,0,0,0,2.35,1.06,1.84,1.84,0,0,0,.41,0,11.48,11.48,0,0,0-3.19,3.25,2,2,0,0,1-.58.09m4.17-3.61,0,0H9.59a4.09,4.09,0,0,1-1.47-.26h.2a2.45,2.45,0,0,0,1.15-.31,1.53,1.53,0,0,0,1-.74,1.16,1.16,0,0,0,0-.95v0a5.36,5.36,0,0,0-1.69-2.79c0-.1-.05-.21-.08-.32a4.63,4.63,0,0,1,.12-2.18.68.68,0,0,1,.28.07l.09,0a5.78,5.78,0,0,0,1.26,3.72,5.31,5.31,0,0,0,3.16,1.86,13.86,13.86,0,0,0-3.85,1.91m1.4-3.93a6.49,6.49,0,0,1-.66-.83,4.2,4.2,0,0,1-.71-1.93,7.28,7.28,0,0,0,1.25,2.6l.12.16m94.53-5.76a47.23,47.23,0,0,0,3.53-8.48c.56-1.8,1-3.65,1.44-5.54a1.42,1.42,0,0,0,0,.2,41,41,0,0,1-4.93,13.82M65.44,76.23c-.51-.6-1.06-1.17-1.63-1.72l.59.56c.37.37.71.76,1,1.16m49-4.34c0-1.77-.07-3.54-.19-5.29l0-.6v.11c0,.16,0,.32,0,.49h0c.12,1.75.19,3.52.19,5.29h0M32.8,37.83l0-.16.09-.06a1.19,1.19,0,0,0-.12.22" fill="#93381d"/><path id="path1844" d="M15,101.63l-.5,0a4.71,4.71,0,0,0,1.34-.52,3.59,3.59,0,0,0,1.52-1.63c.08,1.52-1,2.18-2.36,2.18" fill="#c2602c"/><path id="path1846" d="M8.32,104.15h-.2a2.09,2.09,0,0,1-.3-.14,2.15,2.15,0,0,0,.45,0l.47,0a4,4,0,0,0,.73-.17,2.45,2.45,0,0,1-1.15.31m2.1-2a4.23,4.23,0,0,0-.41-.68,8.25,8.25,0,0,1-1.29-2.13,5.36,5.36,0,0,1,1.69,2.79v0" fill="#c2602c"/><path id="path1848" d="M4,109.75a1.72,1.72,0,0,0-.22-1.3,6.88,6.88,0,0,0-1-1.18,5.23,5.23,0,0,1,.82.81c.38.44.83,1.1.45,1.67" fill="#c2602c"/><path id="path1850" d="M5,107.63a2,2,0,0,1-.64-.12l-.23-.1.37,0h.13a2.11,2.11,0,0,0,1.66-.9A1.35,1.35,0,0,1,5,107.63m.93-3.58A7.3,7.3,0,0,1,5,103l-.12-.22a8,8,0,0,1,.8.9q.12.16.24.36" fill="#c2602c"/><path id="path1852" d="M134.84,106.2h0a2.19,2.19,0,0,1-2-1.6,5.37,5.37,0,0,0,.9.07,6.89,6.89,0,0,0,1.95-.29,8.83,8.83,0,0,0,5-4.16,8.65,8.65,0,0,1-1,3,5.86,5.86,0,0,1-1,1.46,6.31,6.31,0,0,1-3.77,1.49" fill="#c2602c"/><path id="path1854" d="M143.71,116.29a1.34,1.34,0,0,1-.35-.05c-1.31-.31-.88-1.64-.2-2.31l.16-.15a2,2,0,0,0-.06.6c.06.77.62,1,1.24,1a3.21,3.21,0,0,0,1-.17l.12,0-.18.25a2.51,2.51,0,0,1-1.72.86" fill="#c2602c"/><path id="path1856" d="M141.49,112.75c-.74,0-1.38-.32-1.42-1.19a2.24,2.24,0,0,1,1.06-1.72c-.8,1.16-1.14,2.23.78,2.73a2,2,0,0,0,.4.07,3.3,3.3,0,0,1-.82.11" fill="#c2602c"/><path id="path1858" d="M139.16,109.29a1.21,1.21,0,0,1-1.39-1.19,2.92,2.92,0,0,1,1.13-2.16c-.46.77-1,1.84-.16,2.41a2.45,2.45,0,0,0,1.39.41,3.27,3.27,0,0,0,1.34-.3l-.2.15a4,4,0,0,1-2.11.68" fill="#c2602c"/><path id="path1860" d="M60.65,124.89l.23-.22a2.39,2.39,0,0,1-.23.22m1.55-2.18a8.57,8.57,0,0,0,.62-1.22,8.57,8.57,0,0,1-.62,1.22" fill="#cd9c72"/><path id="path1862" d="M53,120.25h0l.23-.23a.91.91,0,0,1-.24.24m-8.24-.06h0a.2.2,0,0,0,0-.29.2.2,0,0,1,0,.3m3.76-.08v0l.35-.24-.36.26m-3.84-.25h0m0,0h0m0,0h0l-.08,0h0l.08,0h0m-1.11,0h0l.31,0-.31,0m9.77,0c0-.21-.27-.27-.63-.27a5.75,5.75,0,0,0-.69,0l-.15-.07a6.63,6.63,0,0,0-1.34.15h0a6.83,6.83,0,0,1,1.36-.15l.15.07a5.75,5.75,0,0,1,.69,0c.36,0,.63.06.63.27m4.71-.73-.35-.07h0l.38.07h0" fill="#93381d"/><path id="path1864" d="M52,122.45a2.2,2.2,0,0,1,.54-1.68,6.51,6.51,0,0,0,.45-.52.91.91,0,0,0,.24-.24h0a.45.45,0,0,0,.09-.23c0-.21-.27-.27-.63-.27a5.75,5.75,0,0,0-.69,0l-.15-.07a6.83,6.83,0,0,0-1.36.15,4,4,0,0,0-2.22,1,3.31,3.31,0,0,0-.51.73,2.46,2.46,0,0,1,.75-1.3l.36-.26h0a.22.22,0,0,0,.1-.17.21.21,0,0,0-.1-.17,2.1,2.1,0,0,0-1.15-.33,4.3,4.3,0,0,0-2.49,1,4,4,0,0,0-1,1.06,1.42,1.42,0,0,1,.14-.38c.1-.24.43-.47.42-.71a.2.2,0,0,0,0-.3h0l0,0h0l-.08,0h0a3.4,3.4,0,0,0-.45,0h-.26l-.31,0a5.34,5.34,0,0,0,1.83-2,4.11,4.11,0,0,0,.2-2c0-.54-.1-1.08-.17-1.61,1.66,2.19,4.69,3.27,7.68,3.27a10.46,10.46,0,0,0,5.62-1.51c2.59-1.67,4-4.63,4.88-7.5a23.71,23.71,0,0,0,.76-3.71,39.3,39.3,0,0,1-.09,9.13,24.74,24.74,0,0,1-.84,3.6,20.46,20.46,0,0,1-1.2,3.51c-.14.26-.28.52-.43.77.21-2-1.66-2.82-3.48-2.82H58l-.38-.07a3.21,3.21,0,0,0-.63-.06,5.91,5.91,0,0,0-4.28,2.28,2.9,2.9,0,0,0-.61,1c0,.1-.09.19-.13.29m-7.94-3.78a4,4,0,0,0,.55-.75,3.42,3.42,0,0,0,.21-.43,3,3,0,0,0,.23-.82h0a3.89,3.89,0,0,1-.2,1,2.6,2.6,0,0,1-.79,1" fill="#762618"/><path id="path1866" d="M89.24,122.63a.92.92,0,0,1-.16-.26,1.22,1.22,0,0,0,.16.26m2.87,0a.35.35,0,0,1,.13-.48.35.35,0,0,0-.13.48h0m-3.06-.45h0a.27.27,0,0,1,.16-.2h0l-.15.19h0m3.19,0h0m0,0h0m0,0h0" fill="#93381d"/><path id="path1868" d="M89.84,125.34a3.79,3.79,0,0,0-3.29-3.64,3.89,3.89,0,0,0-.9-.11,2,2,0,0,0-1.45.54,1.91,1.91,0,0,0-.37,1.43,1.09,1.09,0,0,1,0,.18A4.16,4.16,0,0,0,82,121.25a3.78,3.78,0,0,0-2-.48c-.24,0-.47,0-.7,0l-.42-.06a12.51,12.51,0,0,0-1.4-.09,5.94,5.94,0,0,0-3.26.8,2.19,2.19,0,0,0-1,1.54l-.3-.61a15.19,15.19,0,0,1-1.23-5.49,32,32,0,0,1,.81-6.89c.5-3.06,1-6.11,1.81-9.11.18-.69.38-1.37.6-2A35.41,35.41,0,0,0,74.45,110,11.24,11.24,0,0,0,78,117.35a9,9,0,0,0,5.67,1.88,9.76,9.76,0,0,0,3-.46,15.84,15.84,0,0,0,6.71-5c-.08.24-.14.48-.2.73-1,2.59-1.57,5.41,0,7.69l.12.08v0a1.79,1.79,0,0,0-.81-.28.69.69,0,0,0-.25,0h0a.35.35,0,0,0-.13.48,1.9,1.9,0,0,0,.36.88,1.94,1.94,0,0,1,0,1.74,3.15,3.15,0,0,0-3.18-3.43h-.13V122h0a.27.27,0,0,0-.16.2h0a.39.39,0,0,0,0,.21.92.92,0,0,0,.16.26l.08.09a9.64,9.64,0,0,1,.53,1.42,2.85,2.85,0,0,1,0,1.2" fill="#762618"/><path id="path1870" d="M24.41,130.87a8.7,8.7,0,0,1-4.91-1.64,7.53,7.53,0,0,0,3.59.9,8.56,8.56,0,0,0,1.65-.17,7.42,7.42,0,0,0,4.51-3.36,9.45,9.45,0,0,0,1.4-3.22,20.07,20.07,0,0,1,.92-3.42,14.3,14.3,0,0,1,.71,2.66c.14.58.34,1.38,1,1.56a.78.78,0,0,0,.22,0c.77,0,1.59-1,2-1.4A12.68,12.68,0,0,0,38,118.61a26.61,26.61,0,0,0,2.07-10.44A18.84,18.84,0,0,0,37.26,99c.17.15.32.31.48.48a23.26,23.26,0,0,1,2.08,16,22.08,22.08,0,0,1-3.37,7.69,17.13,17.13,0,0,1-3.08,3.17c-.94.77-2,1.4-3,2.13A11.37,11.37,0,0,0,32,122.75h-.15c-.8,3.25-1.52,6.47-5,7.72a7.16,7.16,0,0,1-2.38.4" fill="#762618"/><path id="path1872" d="M17.44,128.25l0,0,0,0m-.05-.05h0m0,0h0" fill="#cd9c72"/><path id="path1874" d="M40.76,121.82a2.72,2.72,0,0,1,.51-.8l0,0a2.27,2.27,0,0,0-.44.68l0,.07" fill="#93381d"/><path id="path1876" d="M36.45,124.36c.19-.23.37-.47.55-.7a22.58,22.58,0,0,0,3.43-7.73,21.27,21.27,0,0,0-1.69-15.14,20,20,0,0,1,2.49,6.6c.67,3,0,6.43,1.36,9.28l.27.07c1.41-.83,1.67-2.58,1.66-4.09,0-.28,0-.57,0-.85q.15.77.27,1.53l0,.09.18,1a11.31,11.31,0,0,1,.16,2.25v0c0,.16-.07.33-.11.49a2.19,2.19,0,0,1-.12.33.42.42,0,0,1,0,.1,3.41,3.41,0,0,1-.17.33,4.48,4.48,0,0,1-.63.82c-.48.38-1.05.7-1.5,1.05a8.45,8.45,0,0,0-.72.65l-.45.33,0,0-.1.09c.13-.09.27-.17.41-.25q-.18.2-.33.39a2.72,2.72,0,0,0-.51.8,3.16,3.16,0,0,0-.22.5,13.78,13.78,0,0,0-3.36,1.59c-.25.14-.49.29-.73.45" fill="#762618"/><path id="path1878" d="M41.19,120.88l.1-.09,0,0,.45-.33-.17.19c-.14.08-.28.16-.41.25m3.43-3a3.41,3.41,0,0,0,.17-.33.42.42,0,0,0,0-.1,3.42,3.42,0,0,1-.21.43m.44-1.25v0h0m-.16-2.27-.18-1,0-.09,0,.09.06.49.06.49" fill="#5d1c14"/><path id="path1880" d="M113.87,133.33a16.53,16.53,0,0,1-2.65-.2,16.53,16.53,0,0,0,2.65.2c.43,0,.86,0,1.29,0-.43,0-.86,0-1.29,0m1.33,0h0" fill="#cd9c72"/><path id="path1882" d="M113.32,132.67h-.13c-2.52,0-4.85-.65-6-3.1-1-2.11-.23-4.26.46-6.31.29-.46.59-.92.91-1.36a9.86,9.86,0,0,0-.8,5.56c.48,2.92,3.07,4.47,5.74,5.12l.38.09h-.6m-6.68-3.08a28.53,28.53,0,0,1-4.53-5.1,17.72,17.72,0,0,1-2.57-8.1c-.39-5.77,2.64-11.69,6.72-15.62q-1.49,2.49-3.17,4.88c-3,4.24-4.41,9.55-2.48,14.51.41,1.06,2.32,6.6,4.18,6.6a1.31,1.31,0,0,0,1-.68c.41-.57.79-1.15,1.16-1.74a7.64,7.64,0,0,0-.48,4.87,2.4,2.4,0,0,0,.12.38m-4.21-3.47c-.79-.39-1.65-.68-2.41-1a26.12,26.12,0,0,0-5.39-1.75,12.32,12.32,0,0,0-.84-1.1,2.41,2.41,0,0,1-.08-.25v0A16.3,16.3,0,0,1,93,119.3a10.5,10.5,0,0,1,.4-3.32q.24-.77.51-1.53c.36-1,.86-2,1.31-2.93l-.27.37c.33-.71.65-1.4,1-2,1.91-4.14,4.87-7.68,7.43-11.42a41.32,41.32,0,0,0,2.25-3.69,40.81,40.81,0,0,0,4.94-13.82,1.42,1.42,0,0,1,0-.2c.13-.67.25-1.34.36-2,0-.2.07-.39.11-.59a15.66,15.66,0,0,1-.13,2.26c-.27,1.9-.67,3.8-1.11,5.66a54.28,54.28,0,0,1-4.48,11.6.2.2,0,0,0,.18.29.19.19,0,0,0,.16-.1c1.2-2,2.55-3.82,3.73-5.81A28.74,28.74,0,0,0,112,85.93a75.7,75.7,0,0,1-2.68,7.61.13.13,0,0,0,.12.17.13.13,0,0,0,.11-.07,34,34,0,0,0,1.86-4,57.75,57.75,0,0,1-5,10.86h0a21,21,0,0,0-5.33,6.69c.06-.4.06-.82.12-1.23a9.43,9.43,0,0,1,.56-2.1,11.13,11.13,0,0,1,1.89-3.27l-.12-.11a12,12,0,0,0-2.3,3.49,5.72,5.72,0,0,0-.55,3.6l.16.1a19.13,19.13,0,0,0-1.92,8.46,17.78,17.78,0,0,0,2.37,8.22,13.6,13.6,0,0,0,1.18,1.74m-9-12.3a23.38,23.38,0,0,1,2-4.56c-.27.56-.53,1.13-.77,1.71-.34.82-.74,1.72-1.13,2.67l-.15.18" fill="#762618"/><path id="path1884" d="M93.43,116A25.87,25.87,0,0,1,95,111.89l.27-.37c-.45,1-1,1.91-1.31,2.93q-.27.76-.51,1.53m-.21-1.43c.06-.25.12-.49.2-.73l.15-.18c-.12.3-.24.6-.35.91" fill="#5d1c14"/><path id="path1886" d="M68.42,113.91c-1.42,0-1.44-3.57-1.55-5-.47-6.09-1.47-14.52-4.08-20.05-1.11-2.36.37-2.74,2.77-2.74,1.1,0,2.39.08,3.71.09h.06c.82,0,1.65,0,2.45-.06s1.56-.06,2.24-.06c2.14,0,3.52.28,2.82,1.69A61.91,61.91,0,0,0,74,94.28a84.27,84.27,0,0,0-2.13,9.18c-.47,2.17-.59,8.89-2.73,10.21a1.42,1.42,0,0,1-.71.24m-.73-31.64a20.5,20.5,0,0,1-5.29-.65,12.68,12.68,0,0,1-1.92-.84c-2.82-1.55-5.1-4.17-7.7-6.11-.83-.68-1.68-1.34-2.54-2l-.35-.28h0L49.27,72c-3-2.25-6-4.54-8.24-7.57l-.08.06c.35.54.73,1.06,1.12,1.56-.49-.54-1-1.09-1.44-1.64C38.43,61.78,36.34,58.45,36,55a11.07,11.07,0,0,0,1.29,3.47c2,3.52,5.4,5.59,8.89,7.37a70.6,70.6,0,0,0,6.52,2.94c2.15.85,4.33,1.6,6.42,2.59a19.75,19.75,0,0,1,4.74,3.12c.57.55,1.12,1.12,1.63,1.72a21.72,21.72,0,0,1,2.28,3.68h0a6.65,6.65,0,0,1-.16-2.26c.1-1.94,1.38-3.76,2.68-5.18a21.78,21.78,0,0,1,6.59-4.65,45.55,45.55,0,0,0,7.71-4.26,13.13,13.13,0,0,0,3.32-3.9c-.2.6-.4,1.19-.57,1.78l-.17.25.06.06.13-.13.11,0,.13-.21a13.91,13.91,0,0,1,1.12-1,17.82,17.82,0,0,1,2-1.27,10.89,10.89,0,0,0,3.15-2.78,12.41,12.41,0,0,0,2.67-6.48,12.94,12.94,0,0,1,0,1.65c-.12.28-.25.56-.36.84l.12.07.29-.44,0,0,0-.06A20.1,20.1,0,0,0,98.78,48,19.66,19.66,0,0,0,100,42.63c0-.26,0-.53,0-.79a16,16,0,0,1,.08,4c0,.18,0,.35-.07.52a26.11,26.11,0,0,1-3.25,7.16c-1.43,2.2-3,4.29-4.5,6.45a67,67,0,0,1-3.83,8.23,22.53,22.53,0,0,0,1-2.46l-.07,0c-2.28,4-4.59,8.33-8.64,10.87l.07.1a13.35,13.35,0,0,0,1.44-.9A48.5,48.5,0,0,1,78.48,79h0c-1.19.7-2.37,1.41-3.62,2a20.8,20.8,0,0,1-4.45,1.18c-.84.07-1.69.09-2.53.09h-.18M37.92,58.48a10.47,10.47,0,0,1-1.36-3.36,15,15,0,0,0,1.36,3.36m59.26-4.71a24.59,24.59,0,0,0,2.91-7.44,24.23,24.23,0,0,1-2.91,7.44M98,48.68l.51-1.29-.14.39c-.11.31-.24.61-.37.9" fill="#762618"/><path id="path1888" d="M100.09,46.33h0" fill="#762618"/><path id="path1890" d="M63.66,119.65h0a8.55,8.55,0,0,1,2.42-.31c.56,0,1.11,0,1.65.09-.53-.05-1.08-.09-1.63-.09a8.64,8.64,0,0,0-2.44.31" fill="#a55c35"/><path id="path1892" d="M71.36,119.63a17.45,17.45,0,0,0-4.19-.87h-.29a7.59,7.59,0,0,0-3.17.61l0-.33c.38-1.2.65-2.43.91-3.6,1.14-5.21.39-10.94-.84-16.06a79.39,79.39,0,0,0-5.44-14.93,45,45,0,0,0-4.87-8.36c1.4,1.22,2.71,2.53,4.16,3.69a15.09,15.09,0,0,0,9.84,3.09h.39A17.44,17.44,0,0,0,73.47,82a22,22,0,0,0,5.07-2.91l-.06-.1a48.5,48.5,0,0,0,3.86-3.26,20.22,20.22,0,0,0,6.17-7.58,67,67,0,0,0,3.83-8.23c1.48-2.16,3.07-4.25,4.5-6.45a26.11,26.11,0,0,0,3.25-7.16h0a24.59,24.59,0,0,1-2.91,7.44h0a60.93,60.93,0,0,0-3.64,7.55.2.2,0,0,0,0,.07.2.2,0,0,0,.2.18.19.19,0,0,0,.17-.1,15.22,15.22,0,0,1,3.69-3.86l-.37.48h0c-1.76,2.24-3.49,4.5-5.17,6.8.1-.33.19-.66.27-1,.41-1.49.67-3,1.18-4.48l-.11,0a20.45,20.45,0,0,0-1.31,3.47c-.35,1.23-.87,2.44-1.21,3.66-1.52,2.13-3,4.28-4.43,6.48a106.87,106.87,0,0,0-8.51,16.16,80.32,80.32,0,0,0-5.52,17.43c-.75,4.23-1.9,8.62-1.05,12.92,0,0,0,.08,0,.12m-5.8-33.49c-2.4,0-3.88.38-2.77,2.74,2.61,5.53,3.61,14,4.08,20.05.11,1.41.13,5,1.55,5a1.42,1.42,0,0,0,.71-.24c2.14-1.32,2.26-8,2.73-10.21A84.27,84.27,0,0,1,74,94.28a61.91,61.91,0,0,1,2.85-6.48c.7-1.41-.68-1.69-2.82-1.69-.68,0-1.44,0-2.24.06s-1.63.06-2.45.06h-.06c-1.32,0-2.61-.09-3.71-.09" fill="#5d1c14"/><path id="path1894" d="M71.37,119.63h0s0-.08,0-.12a.5.5,0,0,1,0,.12" fill="#481715"/><path id="path1896" d="M81.67,82.58q2.06-4.11,4.46-8c2.68-4.37,5.63-8.58,8.61-12.75-.8,1.28-1.58,2.57-2.45,3.8-2.61,3.67-5.14,7.35-7.4,11.25-1.1,1.9-2.19,3.8-3.22,5.73m-11.27-.4A20.8,20.8,0,0,0,74.85,81c-.4.19-.8.36-1.22.52a11.53,11.53,0,0,1-3.23.66m-8-.56-.11,0a13.66,13.66,0,0,1-4.94-2.9c-1.27-1.06-2.46-2.23-3.72-3.31-.28-.24-.56-.48-.85-.71,2.6,1.94,4.88,4.56,7.7,6.11a12.68,12.68,0,0,0,1.92.84" fill="#5d1c14"/><path id="path1898" d="M122.35,77.17a5.43,5.43,0,0,0-2.47-.56,5.43,5.43,0,0,1,2.47.56l.06-.09-.06.09" fill="#c0a691"/><path id="path1900" d="M121.23,76.06h0m0,0a5.47,5.47,0,0,0-1.46-.65,4.07,4.07,0,0,0-1.28.36H118a10.88,10.88,0,0,0-2.61.21,3.37,3.37,0,0,1,.6-.78,4.2,4.2,0,0,0-1.64.48h0a5.87,5.87,0,0,1,2.86-.56l.82,0a6.63,6.63,0,0,1,3.22.93m-7.44-1.57c.07-1.88.06-3.77,0-5.65a65.62,65.62,0,0,0-.37-10.1c.33,2.42.62,4.84.81,7.27,0-.56-.09-1.11-.15-1.67a53.68,53.68,0,0,1-.26,10.15" fill="#893c1b"/><path id="path1902" d="M122.35,77.17a5.43,5.43,0,0,0-2.47-.56h0a6.12,6.12,0,0,0-1.48-.35,5.36,5.36,0,0,1,1.43-.2,4.36,4.36,0,0,1,.51,0,8.24,8.24,0,0,0-1.86-.33,4.07,4.07,0,0,1,1.28-.36,5.47,5.47,0,0,1,1.46.65h0a4.71,4.71,0,0,1,.92.76l0,0,.24.22-.06.09" fill="#92451d"/><path id="path1904" d="M111.42,89.68a44.81,44.81,0,0,0,2.25-10.93,51,51,0,0,1-1.44,6.48l-.22.7a42.68,42.68,0,0,0,1.2-5.48,54.29,54.29,0,0,0,.56-6A53.68,53.68,0,0,0,114,64.33c.06.56.11,1.11.15,1.67l0,.6c.12,1.75.19,3.52.19,5.29,0,1.26,0,2.52-.11,3.77h0a4.2,4.2,0,0,1,1.64-.48,3.37,3.37,0,0,0-.6.78,2.93,2.93,0,0,0-1,.44l-.11,0a44.44,44.44,0,0,1-2.84,13.23" fill="#6d2817"/><path id="path1906" d="M109.45,93.71a.13.13,0,0,1-.12-.17A75.7,75.7,0,0,0,112,85.93l.22-.7a51,51,0,0,0,1.44-6.48,44.81,44.81,0,0,1-2.25,10.93,34,34,0,0,1-1.86,4,.13.13,0,0,1-.11.07" fill="#561d14"/><path id="path1908" d="M115.16,133.29h0" fill="#6d2817"/><path id="path1910" d="M129.09,100.91h0m0,0v-.05l0-.06,0,.11m0-.13v0" fill="#c0a691"/><path id="path1912" d="M145.65,115.16a1.88,1.88,0,0,0,.41-1.23,2.39,2.39,0,0,0-1.35-2.72l-.1.23a1.17,1.17,0,0,1-.05.11,2,2,0,0,0,.14-.77.19.19,0,0,1,.2-.19h0a4.57,4.57,0,0,0,.12-.74,5.17,5.17,0,0,1-1.37,2.3,3.09,3.09,0,0,0,.38-.64,4.54,4.54,0,0,0,.46-2.32,2.2,2.2,0,0,0-1.47-1.84,5,5,0,0,1-.95,1.25,4.86,4.86,0,0,0,1-1.74l.17-.13a5,5,0,0,0,.17-.64,6.26,6.26,0,0,1-.74,1.34,3.28,3.28,0,0,1-.91.83,3.23,3.23,0,0,0,.43-.58,3.85,3.85,0,0,0,.54-.89A3.11,3.11,0,0,0,143,106a1.46,1.46,0,0,0,0-.3,3.17,3.17,0,0,0,0-.87,2.29,2.29,0,0,0-2.29-2.07h-.1l.24-.56h0c1.78,0,2.67,1.54,2.67,3.14a4.22,4.22,0,0,1-.26,1.45h0a2.75,2.75,0,0,1,1.71,2,3.38,3.38,0,0,1,.07.72,4.11,4.11,0,0,1-.16,1.16h0a3.14,3.14,0,0,1,1.79,2.78,3.56,3.56,0,0,1-.41,1.61,3.56,3.56,0,0,0,.17-.41,2.79,2.79,0,0,1-.82.52m-4.85-12.93.12-.34a.19.19,0,0,1,.09-.34,5.93,5.93,0,0,0,.13-2.74,5.66,5.66,0,0,1-.15.59,2,2,0,0,0-.21-.47l-.2,0a2.92,2.92,0,0,0-.37-.92,3.34,3.34,0,0,0-3-1.5,7.56,7.56,0,0,0-3.81,1.17,7.92,7.92,0,0,0-2.89,3.17,5.07,5.07,0,0,1,.41-1.42c.06-.13.12-.24.19-.36a9.43,9.43,0,0,0-.56.84A7.87,7.87,0,0,1,134,96.73a8.27,8.27,0,0,1,3.41-.81,3.59,3.59,0,0,1,3.36,1.72,4.59,4.59,0,0,1,.53,2.21,7,7,0,0,1-.45,2.38m-11.69-1.41a14.21,14.21,0,0,0,.35-1.57c-.11.17-.22.33-.34.49a15.68,15.68,0,0,0,.5-1.65,16.47,16.47,0,0,1-.48,2.63v0l0,.06" fill="#893c1b"/><path id="path1914" d="M140.65,100.22a4.1,4.1,0,0,0-.07-1.31l.2,0a2,2,0,0,1,.21.47,5.9,5.9,0,0,1-.34.82" fill="#b46837"/><path id="path1916" d="M145.61,115.18a2.53,2.53,0,0,0,.18-.37,4,4,0,0,0,.27-.88,1.88,1.88,0,0,1-.41,1.23l0,0" fill="#b46837"/><path id="path1918" d="M142.26,107.68h0a5.57,5.57,0,0,0,.76-1.93,1.46,1.46,0,0,1,0,.3,3.11,3.11,0,0,1-.24.75,3.85,3.85,0,0,1-.54.89" fill="#b46837"/><path id="path1920" d="M129.05,101l.06-.22v.08h0s0,.08,0,.13h0" fill="#9a6342"/><path id="path1922" d="M115.21,133.29a24.8,24.8,0,0,0,2.89-.36c-.39,0-.77,0-1.16,0a14.65,14.65,0,0,1-3-.29,25,25,0,0,0,6.38-.81c.92-.26,1.82-.57,2.7-.91,1.07-.49,2.15-.95,3.23-1.4l.53-.25h0c.63-.27,1.27-.52,1.92-.78a41,41,0,0,0,7.06-3.07,16.73,16.73,0,0,0,4.74-4.16c1.31-1.87,2.06-4.68.41-6.59l.14-.12a3.48,3.48,0,0,1,1.22,2.15,4.13,4.13,0,0,0,3.13-1.31,2.61,2.61,0,0,0,.22-.27,2.79,2.79,0,0,0,.82-.52,3.56,3.56,0,0,1-.17.41h0a3.84,3.84,0,0,1-3.22,2.11,2.62,2.62,0,0,1-.73-.1h0c0,.2,0,.41,0,.62a6.11,6.11,0,0,1-.52,2.43,12.9,12.9,0,0,1-4.57,5.07,27.54,27.54,0,0,1-7.33,3.47q-2.49.82-5,1.73a23.3,23.3,0,0,1-5.92,2.35,26.71,26.71,0,0,1-3.87.56m26-19.82-.57,0v-.14h0a3.59,3.59,0,0,0,3-1.16,5.17,5.17,0,0,0,1.37-2.3,4.57,4.57,0,0,1-.12.74h0a.19.19,0,0,0-.2.19,2,2,0,0,1-.14.77,3.49,3.49,0,0,1-3.37,1.92m-2.52-3.57a6.22,6.22,0,0,1-1-.1v-.11c1.53-.07,3.16-.28,4.2-1.43a3.28,3.28,0,0,0,.91-.83,6.26,6.26,0,0,0,.74-1.34,5,5,0,0,1-.17.64l-.17.13a4.86,4.86,0,0,1-1,1.74,4.93,4.93,0,0,1-3.42,1.3m-1.8-.46c-1.74-1.77-3.6-3.54-6.17-3.92l0-.09a8.15,8.15,0,0,1,4,1.32,7.64,7.64,0,0,0,3.93-2,7.74,7.74,0,0,0,1-.95c.84-.93,1.79-3,1.36-4.36a5.66,5.66,0,0,0,.15-.59,5.93,5.93,0,0,1-.13,2.74.19.19,0,0,0-.09.34l-.12.34h.08l-.24.56h-.07a7.56,7.56,0,0,1-.34.7,6.84,6.84,0,0,1-5.12,3.56,7.49,7.49,0,0,1,1.93,2.23l-.17.15m-13.16-2.86,0,0a13.42,13.42,0,0,1,2.73-3.53c.59-.47,1.2-.92,1.83-1.37l0-.25a6,6,0,0,0,.86-1.64c.12-.16.23-.32.34-.49a14.21,14.21,0,0,1-.35,1.57l-.06.22h0q.69-.48,1.38-.93a1.59,1.59,0,0,1,.13-.22,9.43,9.43,0,0,1,.56-.84c-.07.12-.13.23-.19.36a5.07,5.07,0,0,0-.41,1.42,15.34,15.34,0,0,0-1.21,3.42h-.05a10.79,10.79,0,0,1,.68-3.07c-.91.79-2,1.38-3,2.06a21,21,0,0,0-3.25,3.35" fill="#6d2817"/><path id="path1924" d="M138.61,104.71a5.86,5.86,0,0,0,1-1.46,8.65,8.65,0,0,0,1-3,5.9,5.9,0,0,0,.34-.82c.43,1.39-.52,3.43-1.36,4.36a7.74,7.74,0,0,1-1,.95" fill="#913f1d"/><path id="path1926" d="M145.43,115.43l.18-.25,0,0a2.61,2.61,0,0,1-.22.27" fill="#913f1d"/><path id="path1928" d="M93.87,126.42a2.1,2.1,0,0,0,.65-1.67,7.39,7.39,0,0,0-1.19-2.4l.14.08h0l.18.08h0a1.81,1.81,0,0,1,.29.19h0a2.79,2.79,0,0,1,.79,1.06h0a3.35,3.35,0,0,1,.21.73c.09.66-.34,1.88-1.09,1.91m-2.11-.56a2.49,2.49,0,0,0,.23-.73A2.89,2.89,0,0,0,89.24,122a.75.75,0,0,1,.26,0h.43l0,0a2,2,0,0,1,.7.34,2.67,2.67,0,0,1,1.3,1.22,2,2,0,0,1,.36.76,1.54,1.54,0,0,1-.58,1.58m-2.5-.83a3.38,3.38,0,0,0-.62-1.71,3.62,3.62,0,0,0-2.92-1.55v-.07h0a2.37,2.37,0,0,1,.82.15l0,0a3.12,3.12,0,0,1,2.71,2.42,1.37,1.37,0,0,1-.08.73m-5.86-.32a2,2,0,0,0,0-.23C83.11,121.94,81,121,78.81,121a9.36,9.36,0,0,0-1.18.08v-.06c.4-.07.82-.15,1.24-.21a4.24,4.24,0,0,1,.54.06l.37,0h.07a4.46,4.46,0,0,1,1.93.43A3.58,3.58,0,0,1,83.51,123h0l.1.25v0a1.36,1.36,0,0,1-.22,1.44" fill="#893c1b"/><path id="path1930" d="M86,128.33a12.37,12.37,0,0,1-4-.79,2.38,2.38,0,0,1-.4.16,5.08,5.08,0,0,1-1.62.26,6.38,6.38,0,0,1-2.15-.39,7.51,7.51,0,0,1-2.73-1.23,10.63,10.63,0,0,1-3.66-6.07,12.54,12.54,0,0,0,1.88,4.24,3,3,0,0,1-.2-1.52,7.53,7.53,0,0,0,3.38,3.45,8.19,8.19,0,0,0,1.54.5,6.21,6.21,0,0,0,.75.31,7,7,0,0,0,1.28.14,3.51,3.51,0,0,0,1.11-.16,2.77,2.77,0,0,0,2.14-2.52,1.36,1.36,0,0,0,.22-1.44,2.17,2.17,0,0,1,.22.65h0v-.18a3.47,3.47,0,0,1,.1,1,3.2,3.2,0,0,1-1.19,2.35,10.75,10.75,0,0,0,3.3.63,3.42,3.42,0,0,0,2.69-1,2.27,2.27,0,0,0,.52-1.69,1.37,1.37,0,0,0,.08-.73,3.12,3.12,0,0,0-2.71-2.42l0,0a2.37,2.37,0,0,0-.82-.15h0l.36,0a3.55,3.55,0,0,1,.46,0l.26.08c1.9.58,3.27,2.23,2.91,3.93a2.29,2.29,0,0,0,.12-.37,3.06,3.06,0,0,1-.39,1.36,3.42,3.42,0,0,1-.66.79,3.42,3.42,0,0,0,3-1.63,1.54,1.54,0,0,0,.58-1.58,2,2,0,0,0-.36-.76,2.67,2.67,0,0,0-1.3-1.22A2,2,0,0,0,90,122l0,0H89.5a.75.75,0,0,0-.26,0h0a.43.43,0,0,1,.33-.11,3.59,3.59,0,0,1,1.33.41,3.11,3.11,0,0,1,1.58,3.09l.06-.11a2.17,2.17,0,0,1,0,.25,3.06,3.06,0,0,1-1.09,1.68,3.92,3.92,0,0,0,.68.07,2.18,2.18,0,0,0,1.33-.41,2.55,2.55,0,0,0,.47-.4c.75,0,1.18-1.25,1.09-1.91a3.35,3.35,0,0,0-.21-.73l.17.07,0,0h0a2.57,2.57,0,0,1,.31,1.15,2.48,2.48,0,0,1-.31,1.14A3.31,3.31,0,0,1,92,127.88a3.54,3.54,0,0,1-1.22-.22h0l-.09.06a3.39,3.39,0,0,1-1.52.46,1.14,1.14,0,0,1-.79-.26l0-.07a4.73,4.73,0,0,1-2.24.49m21-4c.25-.63.53-1.26.8-1.91l.14.07c-.08.25-.16.5-.25.76l-.69,1.08M83.51,123a3.58,3.58,0,0,0-1.74-1.67A3.53,3.53,0,0,1,83.51,123m10.15-.48-.18-.08.18.08m.17-.17a3.61,3.61,0,0,1-.38-.63,6.32,6.32,0,0,1-.55-3.43v-.05c0,.36.07.71.13,1.06a7,7,0,0,0,.66,2.65l0,0v.15a.86.86,0,0,0,.07.1l0,.1M79.4,120.91a4.24,4.24,0,0,0-.54-.06l.44,0,.47.09-.37,0m-7.88-.64a13.31,13.31,0,0,1-1.85-.5,16,16,0,0,0,1.77.49h0a.53.53,0,0,1,0-.13c0,.05,0,.09,0,.13h.07m24-11a69.62,69.62,0,0,1,6.29-9.7,48.74,48.74,0,0,0,3.89-6.06,47.94,47.94,0,0,0,2.74-6.73,57,57,0,0,0,2.88-15.68h.08v.14l0,.25a1.08,1.08,0,0,0,.07.52,34.9,34.9,0,0,1-.44,6.68c-.13.68-.25,1.36-.36,2-.39,1.89-.88,3.74-1.44,5.54a46.55,46.55,0,0,1-3.54,8.48q-.32.55-.66,1.08c-2.91,4.56-6.69,8.51-9.37,13.24l-.12.21m10.79-8.49.13-.23,0,.06-.18.17M74.89,98.84c0-.31.11-.62.17-.94.45-1.17.92-2.34,1.41-3.5.76-2.21,1.61-4.39,2.57-6.52.81-1.81,1.7-3.57,2.63-5.3q-2.28,4.53-4.17,9.26c-.93,2.3-1.86,4.63-2.61,7" fill="#6d2817"/><path id="path1932" d="M89.72,125.71c.36-1.7-1-3.35-2.91-3.93l-.26-.08a3.79,3.79,0,0,1,3.29,3.64,2.29,2.29,0,0,1-.12.37m2.74-.37a3.11,3.11,0,0,0-1.58-3.09,3.59,3.59,0,0,0-1.33-.41.43.43,0,0,0-.33.11h0v-.15h.13a3.15,3.15,0,0,1,3.18,3.43l-.06.11" fill="#561d14"/><path id="path1934" d="M73.4,124.51a12.54,12.54,0,0,1-1.88-4.24h-.07s0-.08,0-.13c0-.48,0-1,0-1.45a61,61,0,0,1,.88-9,57.86,57.86,0,0,1,2.62-11.33c.06-.16.12-.32.17-.48-.06.32-.12.63-.17.94-.22.68-.42,1.36-.6,2-.79,3-1.31,6-1.81,9.11a32,32,0,0,0-.81,6.89,15.19,15.19,0,0,0,1.23,5.49l.3.61a3,3,0,0,0,.2,1.52" fill="#561d14"/><path id="path1936" d="M83.62,123.27v0l-.1-.25h0l.11.27m-1.85-1.94a4.46,4.46,0,0,0-1.93-.43h0a4.52,4.52,0,0,1,2,.44" fill="#6d2817"/><path id="path1938" d="M83.84,123.92a2.17,2.17,0,0,0-.22-.65l-.11-.27h0a3.53,3.53,0,0,0-1.74-1.67,4.52,4.52,0,0,0-2-.44h0l-.47-.09c.23,0,.46,0,.7,0a3.78,3.78,0,0,1,2,.48,4.16,4.16,0,0,1,1.86,2.49v.18" fill="#561d14"/><path id="path1940" d="M94,122.71a1.81,1.81,0,0,0-.29-.19,1.81,1.81,0,0,1,.29.19h0m-.29-.19h0" fill="#6d2817"/><path id="path1942" d="M94,122.71a1.81,1.81,0,0,0-.29-.19h0l-.18-.08h0l-.14-.08v0l-.12-.08c-1.55-2.28-1-5.1,0-7.69a10.85,10.85,0,0,0-.35,2.6,9.85,9.85,0,0,0,0,1.09v.05a6.32,6.32,0,0,0,.55,3.43,3.61,3.61,0,0,0,.38.63l.13.36" fill="#561d14"/><path id="path1944" d="M94.75,123.78h0a2.79,2.79,0,0,0-.79-1.06h0a2.54,2.54,0,0,1,.29.28h0a2.79,2.79,0,0,1,.51.8" fill="#6d2817"/><path id="path1946" d="M113.87,133.33a16.53,16.53,0,0,1-2.65-.2,5.64,5.64,0,0,1-4.26-2.81,34.4,34.4,0,0,1-3.22-2.74c-1.41-.77-2.84-1.42-4.32-2s-3.07-1-4.52-1.73h0l0,0-.17-.07a2.79,2.79,0,0,0-.51-.8l-.41-.63,0-.1a12.32,12.32,0,0,1,.84,1.1A26.12,26.12,0,0,1,100,125.1c.76.34,1.62.63,2.41,1a13.6,13.6,0,0,1-1.18-1.74,17.78,17.78,0,0,1-2.37-8.22,19.13,19.13,0,0,1,1.92-8.46l-.16-.1a5.72,5.72,0,0,1,.55-3.6,12,12,0,0,1,2.3-3.49l.12.11a11.13,11.13,0,0,0-1.89,3.27,9.43,9.43,0,0,0-.56,2.1c-.06.41-.06.83-.12,1.23a21,21,0,0,1,5.33-6.69h0l-.13.23c-4.08,3.93-7.11,9.85-6.72,15.62a17.72,17.72,0,0,0,2.57,8.1,28.53,28.53,0,0,0,4.53,5.1,2.4,2.4,0,0,1-.12-.38,7.64,7.64,0,0,1,.48-4.87l.69-1.08c-.69,2-1.41,4.2-.46,6.31,1.11,2.45,3.44,3.09,6,3.1h.73a14.65,14.65,0,0,0,3,.29c.39,0,.77,0,1.16,0a24.8,24.8,0,0,1-2.89.36h0c-.43,0-.86,0-1.29,0M93.71,122l0,0v0M93,119.3c-.06-.35-.1-.7-.13-1.06a14.28,14.28,0,0,1,.53-2.26,10.5,10.5,0,0,0-.4,3.32m.54-5.66c.39-1,.79-1.85,1.13-2.67.24-.58.5-1.15.77-1.71l.12-.21c2.68-4.73,6.46-8.68,9.37-13.24q.35-.53.66-1.08a41.32,41.32,0,0,1-2.25,3.69c-2.56,3.74-5.52,7.28-7.43,11.42-.31.65-.63,1.34-1,2l0,0c-.44.57-.9,1.16-1.39,1.73m17-32.93c.11-.66.23-1.34.36-2-.11.68-.23,1.35-.36,2" fill="#561d14"/><path id="path1948" d="M94.25,123a2.54,2.54,0,0,0-.29-.28h0a2.37,2.37,0,0,1,.28.27h0" fill="#561d14"/><path id="path1950" d="M94.24,123a2.37,2.37,0,0,0-.28-.27l-.13-.36.41.63m-1.34-4.74a9.85,9.85,0,0,1,0-1.09,10.85,10.85,0,0,1,.35-2.6c.11-.31.23-.61.35-.91.49-.57,1-1.16,1.39-1.73l0,0A25.87,25.87,0,0,0,93.43,116a14.28,14.28,0,0,0-.53,2.26" fill="#421814"/><path id="path1952" d="M3.36,110.77c-1.43,0-2.95-.52-3.26-2a4,4,0,0,1-.1-1c0-1.33.51-2.88,1.92-3h0l0-.19a5.85,5.85,0,0,1-.13-1.22,3.31,3.31,0,0,1,.81-2.37,3.42,3.42,0,0,1,2.23-1,1.88,1.88,0,0,1,.57.09l-.23,0a5.42,5.42,0,0,0-.22.56H4.76a2.31,2.31,0,0,0-2.15,1.45c-.58.39-.55,1.49-.26,2.57a2.37,2.37,0,0,0,.09.36,4.36,4.36,0,0,0,.2.53,3.88,3.88,0,0,0,.94,1.56l.24.16.15.13a2.35,2.35,0,0,1-1.26-.78A5,5,0,0,1,2,105.14l0,0c0-.11-.05-.21-.08-.32H1.8c0,.14,0,.27,0,.4a2.73,2.73,0,0,0-1.34,2,1.44,1.44,0,0,0,0,.51,3.21,3.21,0,0,0,.24,1c.48,1.17,1.79,1.43,3,1.48a1.45,1.45,0,0,1-.35.24,1.4,1.4,0,0,1-.53.11,4.14,4.14,0,0,1-2.68-1.7c.38,1.36,1.85,1.84,3.23,1.84a5.75,5.75,0,0,0,1.27-.14,5.77,5.77,0,0,1-1.28.14m4.09-6.86c-1.61-.56-2-2.81-1.93-4.67l0,0,0,.12a4.35,4.35,0,0,1,1.32-2.17,3.26,3.26,0,0,1,1.92-1,1.61,1.61,0,0,1,.48.08l-.25-.06-.18.58H8.7a3.26,3.26,0,0,0-2.07,1.39,4.1,4.1,0,0,0-.58,3.69h0a3.74,3.74,0,0,0,.3.81,2.67,2.67,0,0,0,1.1,1.18M12,101.27a3.55,3.55,0,0,1-.93-.78,6.3,6.3,0,0,0,.93.78M5.35,100.1a3.35,3.35,0,0,1,.08-.54,3.35,3.35,0,0,0-.08.54m.08-.55h0m0-.13h0m4.27-1.69c0-.14-.07-.27-.1-.41a6.67,6.67,0,0,1,.29-2.83,4.31,4.31,0,0,0-.73,1.83,3.87,3.87,0,0,1,3-3.34l.54-.1c.73.11,1.47.18,2.21.25a6.76,6.76,0,0,1,1.37.63c-.45-.17-.92-.32-1.39-.45a7.53,7.53,0,0,1,1.19,1.07,5.82,5.82,0,0,0-2.9-.8,3.22,3.22,0,0,0-3.05,1.68,4.29,4.29,0,0,0-.45,2.47" fill="#893c1b"/><path id="path1954" d="M7.82,104a2.22,2.22,0,0,1-.37-.09,2.67,2.67,0,0,1-1.1-1.18,3.74,3.74,0,0,1-.3-.81h0A3.49,3.49,0,0,0,7.82,104" fill="#b46837"/><path id="path1956" d="M.45,107.77a1.44,1.44,0,0,1,0-.51,2.9,2.9,0,0,0,0,.51" fill="#b46837"/><path id="path1958" d="M3.82,107.24l-.24-.16a3.88,3.88,0,0,1-.94-1.56,5.34,5.34,0,0,0,1.18,1.72m-1.47-2.61c-.29-1.08-.32-2.18.26-2.57a4.24,4.24,0,0,0-.26,2.57" fill="#b46837"/><path id="path1960" d="M19.5,129.23l-.3-.18a28.26,28.26,0,0,1-2.63-1.85,11.69,11.69,0,0,0,.78,1A55.62,55.62,0,0,1,14,123.43a27.48,27.48,0,0,0-4.71-4.56c-2-1.62-4.86-4.34-4.86-7.12a3.63,3.63,0,0,1,.17-1.12h0a5.75,5.75,0,0,1-1.27.14c-1.38,0-2.85-.48-3.23-1.84a4.14,4.14,0,0,0,2.68,1.7,1.4,1.4,0,0,0,.53-.11,1.45,1.45,0,0,0,.35-.24H4.76a5.1,5.1,0,0,1,.38-.73l.1.06a3.85,3.85,0,0,0-.26.79l0,.11c-.72,3.5,3.33,6.8,5.67,8.77a22.41,22.41,0,0,1,3.58,3.64c1,1.32,1.81,2.74,2.84,4a12.11,12.11,0,0,0,2.45,2.29M5.57,109.09l-.08,0c.13-.27.28-.53.43-.79a1.23,1.23,0,0,1-.53.11,3,3,0,0,1-1.71-.73,5,5,0,0,1-1-1,2.35,2.35,0,0,0,1.26.78,2.4,2.4,0,0,0,1.56.66,2,2,0,0,0,.58-.09,11.48,11.48,0,0,1,3.19-3.25,1.84,1.84,0,0,1-.41,0,3.47,3.47,0,0,1-2.35-1.06,4.21,4.21,0,0,1-1.21-3l-.43,0a5.42,5.42,0,0,1,.22-.56l.23,0h0a3.35,3.35,0,0,1,.08-.54h0a.5.5,0,0,1,0-.12h0l0-.12,0,0c-.06,1.86.32,4.11,1.93,4.67a1.94,1.94,0,0,0,.42.17,1,1,0,0,0,.25.06,4.09,4.09,0,0,0,1.47.26h.06l0,0a13.86,13.86,0,0,1,3.85-1.91,5.31,5.31,0,0,1-3.16-1.86,5.78,5.78,0,0,1-1.26-3.72l-.09,0a.68.68,0,0,0-.28-.07l.18-.58.25.06h0a4.31,4.31,0,0,1,.73-1.83,6.67,6.67,0,0,0-.29,2.83c0,.14.06.27.1.41a4.2,4.2,0,0,0,.71,1.93,6.49,6.49,0,0,0,.66.83,3.55,3.55,0,0,0,.93.78,4.22,4.22,0,0,0,2.34.77,3.25,3.25,0,0,0,.44,0A7.19,7.19,0,0,0,19,99.53l.13.11c-1,1.24-2.33,2.63-4,2.9l-.06.06c-3.6,1.48-7.29,3.1-9.49,6.49m19.25-2.77a17.5,17.5,0,0,0-2-4,25.36,25.36,0,0,0-1.54-2.38c-1.45-2-2.93-4.13-5-5.48l-.13-.08a7.53,7.53,0,0,0-1.19-1.07c.47.13.94.28,1.39.45a17.22,17.22,0,0,1,4.53,4.47,20.68,20.68,0,0,1,3.4,5.59,16.42,16.42,0,0,1,.56,2.5m-23-1.07c0-.13,0-.26,0-.4h.09c0,.11.05.21.08.32l-.16.09" fill="#6d2817"/><path id="path1962" d="M8.12,104.14a1,1,0,0,1-.25-.06,1.94,1.94,0,0,1-.42-.17,2.22,2.22,0,0,0,.37.09,2.09,2.09,0,0,0,.3.14" fill="#913f1d"/><path id="path1964" d="M17.38,128.19l0,0,0,0" fill="#6d2817"/><path id="path1966" d="M48,124.21a3.08,3.08,0,0,1-.29-2.37l0,0h0a3.62,3.62,0,0,1,2.78-2.15,7.11,7.11,0,0,1,.78-.08l0,.12a5.37,5.37,0,0,0-2.75,1.24,3.43,3.43,0,0,0-.66,2.91c0,.13.06.26.1.38m-6.77-.07a1.2,1.2,0,0,1-.5-.66,2.27,2.27,0,0,1-.13-1.07v0a2,2,0,0,1,.18-.63,4.15,4.15,0,0,1,.44-.68,3.56,3.56,0,0,1,.87-.71h0a4.1,4.1,0,0,1,1.45-.53,6.61,6.61,0,0,0-2.06,2,2.56,2.56,0,0,0-.26,2.26m3.06,0A2,2,0,0,1,44,122l.08-.15h0l.06-.1a3.23,3.23,0,0,1,1.06-1.53h0a5.1,5.1,0,0,1,.88-.52l.06.12c-1.38.92-2.46,2.33-1.94,4.1l.06.21m8.24-.7a2.7,2.7,0,0,1,.83-2.7,5.46,5.46,0,0,1,.62-.54h0A5.5,5.5,0,0,1,57.24,119l.45,0a3,3,0,0,1,.9.35l0,.08a3.9,3.9,0,0,0-1.33-.24,4.74,4.74,0,0,0-3.45,1.65,5.17,5.17,0,0,0-1.23,2.61" fill="#893c1b"/><path id="path1968" d="M51.25,126.86a4.3,4.3,0,0,1-2.65-.81l0,0a6.79,6.79,0,0,1-2,.38,3.19,3.19,0,0,1-1.45-.33,2.25,2.25,0,0,1-.55-.41l-.13.07a4.87,4.87,0,0,1-1,.1,3.12,3.12,0,0,1-2.88-1.44,2.43,2.43,0,0,1-.26-1.1c0-.08,0-.15,0-.23v0a6.49,6.49,0,0,1,.26-.74,2.27,2.27,0,0,0,.13,1.07,1.2,1.2,0,0,0,.5.66,1.57,1.57,0,0,0,.73.68,3.64,3.64,0,0,0,1.6.37,5.46,5.46,0,0,0,.57,0,4.12,4.12,0,0,1-.42-1.05,3.53,3.53,0,0,1,.48-2.82,2.35,2.35,0,0,0-.1.58L44,122a2,2,0,0,0,.28,2.12,2.23,2.23,0,0,0,2.31,1.6,5.84,5.84,0,0,0,1.45-.21,3.25,3.25,0,0,1-.63-1.42,4.09,4.09,0,0,1,.34-2.69,1.64,1.64,0,0,0,0,.22v.16l0,0a3.08,3.08,0,0,0,.29,2.37,3,3,0,0,0,3.06,2,5.9,5.9,0,0,0,2-.36,4.26,4.26,0,0,1-.8-.88,2.69,2.69,0,0,1-.23-2.56s0,.06,0,.09a1.66,1.66,0,0,1,.11-.38,4.31,4.31,0,0,1,.61-1,5.83,5.83,0,0,1,1.24-1,5.46,5.46,0,0,0-.62.54,2.7,2.7,0,0,0-.83,2.7,1.82,1.82,0,0,0,1.11,2.06,5.73,5.73,0,0,0,2.24.48c2.51,0,4.56-1.83,5.91-4.11a3,3,0,0,1-.06.4,7.59,7.59,0,0,1-1.43,2.91l.34-.28a7.68,7.68,0,0,1-4.85,1.93,4.42,4.42,0,0,1-2.14-.51l-.14.1a6,6,0,0,1-2.27.45" fill="#6d2817"/><path id="path1970" d="M62.82,121.49c.15-.32.29-.66.42-1v-.13c.2-.74.43-1.47.66-2.2,0,.28-.08.56-.13.85,0,.12-.07.24-.12.36l.07,0c0,.1,0,.19-.05.29l-.11,0c-.17.49-.44,1.18-.73,1.81m-19.55-2.1c.25-.21.5-.43.72-.65l.08-.07a6.12,6.12,0,0,1-.8.72" fill="#6d2817"/><path id="path1972" d="M21.86,81.56l.19-.11-.19.11" fill="#c0a691"/><path id="path1974" d="M30.7,83.6c-.45-.76-.89-1.52-1.33-2.29s-1-1.8-1.5-2.72L28,79c-.41-1.08-.77-2.18-1.08-3.32a53.41,53.41,0,0,1-1.62-13.81c0-1.35,0-2.69.11-4a62.66,62.66,0,0,1,1.47-10.59c0,.22-.07.44-.11.67a88.36,88.36,0,0,0-1.43,14.14,39.16,39.16,0,0,0,2.27,13.53,43.09,43.09,0,0,0,3.08,8m-8.2-3.44A6.14,6.14,0,0,1,26.38,79a13.51,13.51,0,0,1,1.67.11h0c.07.19.12.39.18.58-.73-.06-1.46-.19-2.19-.19a4,4,0,0,0-1.41-.25h-.27a5.48,5.48,0,0,0-1.84.92" fill="#893c1b"/><path id="path1976" d="M21.84,81.56h0l.19-.11h0l-.21.11" fill="#bd9a7d"/><path id="path1978" d="M21.42,81.84l.42-.28.21-.11h0a10.61,10.61,0,0,1,2.05-.87,2.5,2.5,0,0,1,.72-.09h.06a3.17,3.17,0,0,0-.69-.26,5.79,5.79,0,0,0-1-.16l-.61.18,0-.09h0a5.48,5.48,0,0,1,1.84-.92h.27a4,4,0,0,1,1.41.25h0a4.17,4.17,0,0,0-.71,0,10.8,10.8,0,0,0-1.7.41h.12a2.29,2.29,0,0,1,1.77.58l.53,0v.09l-.45.06-.11,0-.06,0q-.3,0-.6.09a9.35,9.35,0,0,0-3.36,1" fill="#92451d"/><path id="path1980" d="M45.42,114.3c-.12-.16-.22-.31-.32-.47-.08-.62-.2-1.23-.33-1.82a18.27,18.27,0,0,0-.52-1.89,12.14,12.14,0,0,1,.24,1.68,30.28,30.28,0,0,0-1.38-5.14,63.23,63.23,0,0,0-4.08-8c-1.48-2.65-3-5.3-4.67-7.83a61.71,61.71,0,0,1-6.08-11.16h-.07c-.06-.19-.11-.39-.18-.58h0S28,79,28,79l-.14-.39c.47.92,1,1.82,1.5,2.72s.88,1.53,1.33,2.29c.17.35.35.69.53,1,1.38,2.57,3.09,4.9,4.63,7.37s3.1,5.24,4.57,7.9A40.61,40.61,0,0,1,44,107.38a23.69,23.69,0,0,1,.7,3c.15.6.28,1.2.39,1.81s.25,1.42.35,2.14m18.94-9.45a41.5,41.5,0,0,0-1.3-6.72,85.22,85.22,0,0,0-5.39-13.78A50.32,50.32,0,0,0,54,77.89c-.95-1.37-2-2.65-3-3.93l-2-1.56A37.43,37.43,0,0,1,42.07,66a30.21,30.21,0,0,0,3.55,3.34c.88.69,1.8,1.35,2.67,2.05l.17,0A13.71,13.71,0,0,1,51,73.48l0,0c2.69,2.74,4.47,6.48,6.19,9.78A69.11,69.11,0,0,1,63.4,98.73c.41,1.67.78,3.38,1.07,5.12,0,.33-.07.67-.11,1m-25.62-4.06a9.76,9.76,0,0,0-1-1.3c-.19-.38-.39-.75-.6-1.12l.1-.07a22.84,22.84,0,0,1,1.5,2.49" fill="#6d2817"/><path id="path1982" d="M60.31,125.17a7.59,7.59,0,0,0,1.43-2.91,3,3,0,0,0,.06-.4c.15-.25.29-.51.43-.77a20.46,20.46,0,0,0,1.2-3.51,24.74,24.74,0,0,0,.84-3.6,39.3,39.3,0,0,0,.09-9.13c0-.33.08-.67.11-1a37.28,37.28,0,0,1,.52,6,24.06,24.06,0,0,1-.58,5.42c-.22,1-.37,2-.52,3-.23.73-.46,1.46-.66,2.2v.13c-.13.32-.27.66-.42,1a8.57,8.57,0,0,1-.62,1.22,11,11,0,0,1-1.32,2l-.23.22-.34.28M52,122.54s0-.06,0-.09.08-.19.13-.29a1.66,1.66,0,0,0-.11.38" fill="#561d14"/><path id="path1984" d="M44.1,121.86h0l.06-.1a3.23,3.23,0,0,1,1.06-1.53h0a3.23,3.23,0,0,0-1.06,1.53l-.06.1" fill="#6d2817"/><path id="path1986" d="M44.1,121.86a2.35,2.35,0,0,1,.1-.58,4,4,0,0,1,1-1.06h0a3.23,3.23,0,0,0-1.06,1.53l-.06.1" fill="#561d14"/><path id="path1988" d="M47.74,121.79h0a3.63,3.63,0,0,1,2.76-2.15h0a3.62,3.62,0,0,0-2.78,2.15" fill="#6d2817"/><path id="path1990" d="M47.74,121.79v-.16a1.64,1.64,0,0,1,0-.22,3.31,3.31,0,0,1,.51-.73,4,4,0,0,1,2.22-1,3.63,3.63,0,0,0-2.76,2.15" fill="#561d14"/><path id="path1992" d="M54,120.19A5.54,5.54,0,0,1,57.24,119a3,3,0,0,1,.42,0h0l-.45,0A5.5,5.5,0,0,0,54,120.18h0" fill="#6d2817"/><path id="path1994" d="M52.75,121.2A5.91,5.91,0,0,1,57,118.92a3.21,3.21,0,0,1,.63.06,3,3,0,0,0-.42,0A5.54,5.54,0,0,0,54,120.19a5.83,5.83,0,0,0-1.24,1" fill="#561d14"/><path id="path1996" d="M42.11,120.36h0a4.23,4.23,0,0,1,1.44-.52h0a4.1,4.1,0,0,0-1.45.53" fill="#6d2817"/><path id="path1998" d="M42.12,120.35c.37-.33.77-.64,1.15-1a6.12,6.12,0,0,0,.8-.72,2.6,2.6,0,0,0,.79-1,3.89,3.89,0,0,0,.2-1,9.57,9.57,0,0,0,0-2.83c.1.16.2.31.32.47.07.53.13,1.07.17,1.61a4.11,4.11,0,0,1-.2,2,5.34,5.34,0,0,1-1.83,2,4.23,4.23,0,0,0-1.44.52" fill="#561d14"/><path id="path2000" d="M40.61,122.41a1.9,1.9,0,0,1,.15-.59l0-.07a2,2,0,0,0-.18.63v0" fill="#6d2817"/><path id="path2002" d="M24.42,131.43a9.62,9.62,0,0,1-7-3.18l0,0,0,0h0l0,0h0a11.69,11.69,0,0,1-.78-1,28.26,28.26,0,0,0,2.63,1.85l.3.18a8.7,8.7,0,0,0,4.91,1.64,7.16,7.16,0,0,0,2.38-.4c3.52-1.25,4.24-4.47,5-7.72H32a11.37,11.37,0,0,1-1.57,5.75c1-.73,2-1.36,3-2.13a17.13,17.13,0,0,0,3.08-3.17,22.08,22.08,0,0,0,3.37-7.69,23.26,23.26,0,0,0-2.08-16,9.76,9.76,0,0,1,1,1.3,21.27,21.27,0,0,1,1.69,15.14A22.58,22.58,0,0,1,37,123.66c-.18.23-.36.47-.55.7.24-.16.48-.31.73-.45a13.78,13.78,0,0,1,3.36-1.59,3.16,3.16,0,0,1,.22-.5,1.9,1.9,0,0,0-.15.59,6.49,6.49,0,0,0-.26.74v0h0c-.8.5-1.8.81-2.62,1.23a31.18,31.18,0,0,0-3,2l-.13,0a17.61,17.61,0,0,1-4.55,3.15l-.11,0a.23.23,0,0,1-.21-.15,6,6,0,0,1-2.2,1.51,8.53,8.53,0,0,1-3.14.6" fill="#561d14"/><path id="path2004" d="M41.24,121.07l0,0a3.45,3.45,0,0,1,.75-.61h0l.07,0h0a3.56,3.56,0,0,0-.87.71" fill="#6d2817"/><path id="path2006" d="M41.27,121q.15-.19.33-.39l.42-.22a3.45,3.45,0,0,0-.75.61m.5-.58a8.45,8.45,0,0,1,.72-.65c.45-.35,1-.67,1.5-1.05-.22.22-.47.44-.72.65-.48.37-1,.71-1.5,1m3.29-3.79a11.31,11.31,0,0,0-.16-2.25,7.19,7.19,0,0,1,.16,2.25m0-2.82a4.29,4.29,0,0,1-.31-.55l0,0q-.12-.77-.27-1.53a12.14,12.14,0,0,0-.24-1.68,18.27,18.27,0,0,1,.52,1.89c.13.59.25,1.2.33,1.82" fill="#561d14"/><path id="path2008" d="M42,120.41l.1-.06h0l-.07,0h0" fill="#561d14"/><path id="path2010" d="M41.6,120.63l.17-.19c.5-.34,1-.68,1.5-1-.38.32-.78.63-1.15,1l-.1.06-.42.22m3.46-4h0a7.19,7.19,0,0,0-.16-2.25l-.06-.49-.06-.49,0-.09,0,0a4.29,4.29,0,0,0,.31.55,9.57,9.57,0,0,1,0,2.83" fill="#421814"/><path id="path2012" d="M94.74,61.8c.78-1.27,1.58-2.52,2.48-3.71l.1.09L94.74,61.8" fill="#6d2817"/><path id="path2014" d="M67.46,82.41a15.81,15.81,0,0,1-5.06-.79,20.5,20.5,0,0,0,5.29.65h.18c.84,0,1.69,0,2.53-.09a19.31,19.31,0,0,1-2.94.23M74.85,81c1.25-.59,2.43-1.3,3.62-2h0A15.86,15.86,0,0,1,76,80.53c-.35.16-.72.32-1.1.47M52.78,74.67A14.21,14.21,0,0,0,51,73.48a13.71,13.71,0,0,0-2.5-2.06l-.17,0c-.87-.7-1.79-1.36-2.67-2.05A30.21,30.21,0,0,1,42.07,66c-.39-.5-.77-1-1.12-1.56l.08-.06c2.25,3,5.26,5.32,8.24,7.57l.58.43h0l.35.28c.86.65,1.71,1.31,2.54,2" fill="#561d14"/><path id="path2016" d="M64.47,103.85c-.29-1.74-.66-3.45-1.07-5.12a69.11,69.11,0,0,0-6.27-15.49c-1.72-3.3-3.5-7-6.19-9.78l0,0c2.68,2.74,4.45,6.47,6.17,9.76A69.11,69.11,0,0,1,63.4,98.73c.41,1.67.78,3.38,1.07,5.12h0" fill="#561d14"/><path id="path2018" d="M71.44,120.26a16,16,0,0,1-1.77-.49h0a14.32,14.32,0,0,0-1.94-.34c-.54-.05-1.09-.09-1.65-.09a8.55,8.55,0,0,0-2.42.31c0-.1,0-.19.05-.29a7.59,7.59,0,0,1,3.17-.61h.29a17.45,17.45,0,0,1,4.19.87c0,.17,0,.34.07.5a.53.53,0,0,0,0,.13m-.09-.75c-.85-4.3.3-8.69,1.05-12.92a80.32,80.32,0,0,1,5.52-17.43A106.87,106.87,0,0,1,86.43,73c1.43-2.2,2.91-4.35,4.43-6.48.34-1.22.86-2.43,1.21-3.66a20.45,20.45,0,0,1,1.31-3.47l.11,0c-.51,1.45-.77,3-1.18,4.48-.08.31-.17.64-.27,1,1.68-2.3,3.41-4.56,5.17-6.8h0c-.9,1.19-1.7,2.44-2.48,3.71-3,4.17-5.93,8.38-8.61,12.75q-2.41,3.93-4.46,8c-.93,1.73-1.82,3.49-2.63,5.3-1,2.13-1.81,4.31-2.57,6.52-.49,1.16-1,2.33-1.41,3.5a.58.58,0,0,0,0-.14l-.17,0a25.06,25.06,0,0,0-1.49,5.15c-.45,2.12-1,4.24-1.33,6.37a51.38,51.38,0,0,0-.66,6.77c0,1-.1,2.09-.1,3.14a2.81,2.81,0,0,0,0,.29" fill="#421814"/><path id="path2020" d="M71.43,120.13c0-.16-.05-.33-.07-.5h0a.5.5,0,0,0,0-.12,2.81,2.81,0,0,1,0-.29c0-1,0-2.09.1-3.14a51.38,51.38,0,0,1,.66-6.77c.38-2.13.88-4.25,1.33-6.37a25.06,25.06,0,0,1,1.49-5.15l.17,0a.58.58,0,0,1,0,.14c0,.16-.11.32-.17.48a57.86,57.86,0,0,0-2.62,11.33,61,61,0,0,0-.88,9c0,.48,0,1,0,1.45" fill="#341513"/><path id="path2022" d="M63.76,119c.05-.29.09-.57.13-.85a23.51,23.51,0,0,0,.72-2.65,27.14,27.14,0,0,0,.55-5,36,36,0,0,0-.64-7.33c0,.22,0,.43,0,.65-.29-1.74-.66-3.45-1.07-5.12a69.11,69.11,0,0,0-6.27-15.49c-1.72-3.29-3.49-7-6.17-9.76a14.21,14.21,0,0,1,1.82,1.19c.29.23.57.47.85.71,1.26,1.08,2.45,2.25,3.72,3.31a13.66,13.66,0,0,0,4.94,2.9l.11,0a15.81,15.81,0,0,0,5.06.79,19.31,19.31,0,0,0,2.94-.23,11.53,11.53,0,0,0,3.23-.66c.42-.16.82-.33,1.22-.52s.75-.31,1.1-.47A15.86,15.86,0,0,0,78.48,79l.06.1A22,22,0,0,1,73.47,82a17.44,17.44,0,0,1-5.56.84h-.39a15.09,15.09,0,0,1-9.84-3.09c-1.45-1.16-2.76-2.47-4.16-3.69a45,45,0,0,1,4.87,8.36,79.39,79.39,0,0,1,5.44,14.93c1.23,5.12,2,10.85.84,16.06-.26,1.17-.53,2.4-.91,3.6" fill="#421814"/><path id="path2024" d="M63.89,118.18c.15-1,.3-2,.52-3a24.06,24.06,0,0,0,.58-5.42,37.28,37.28,0,0,0-.52-6c0-.22,0-.43,0-.65a36,36,0,0,1,.64,7.33,27.14,27.14,0,0,1-.55,5,23.51,23.51,0,0,1-.72,2.65" fill="#341513"/><path id="path2026" d="M67.3,78.92a2,2,0,0,0-.09-.26,21.48,21.48,0,0,0-1.77-2.43c-.33-.4-.67-.79-1-1.16l-.59-.56a21,21,0,0,0-5.81-4c-3.44-1.56-7-2.91-10.43-4.39s-6.79-3.23-8.89-6.38c-.27-.42-.53-.85-.76-1.28A12.8,12.8,0,0,0,39,60c2.75,3.31,6.82,5.13,10.66,6.89s8.25,3,12,5.26a16.32,16.32,0,0,1,5.44,5.55,6.78,6.78,0,0,1,1.63-4.42,19,19,0,0,1,5.59-4.9c2.7-1.57,5.68-2.65,8.31-4.34a15.32,15.32,0,0,0,3.72-3.23,20.82,20.82,0,0,0,2.58-4.39l0-.05.13-.39.12,0a15.8,15.8,0,0,1-1,4l.09-.1a7.49,7.49,0,0,1,1.44-1.05A13.06,13.06,0,0,0,93,56.41a15.59,15.59,0,0,0,2.22-3.59,8.76,8.76,0,0,0,1.12-3.92,3.5,3.5,0,0,0-.14-.46l.13-.07.09.17.07.06v.08a4,4,0,0,1,.39,2.16c.35-.72.74-1.43,1.07-2.16-.31.78-.63,1.56-.91,2.34a.2.2,0,0,1-.19.14.19.19,0,0,1-.19-.2,8.86,8.86,0,0,0-.25-1.86,12.23,12.23,0,0,1-1.57,5.11,18,18,0,0,1-3,3.77c-1,1-2.51,1.32-3.53,2.36a.21.21,0,0,1-.13,0,.2.2,0,0,1-.2-.25,8.51,8.51,0,0,0,.49-2,14.58,14.58,0,0,1-2.24,3.19,27.89,27.89,0,0,1-6.76,5C74.94,69,67.31,71.65,67.31,77.87c0,.83,0,1,0,1" fill="#6d2817"/><path id="path2028" d="M37.24,49.94c0-.16.08-.32.12-.48l.11.07c-.08.14-.16.27-.23.41" fill="#893c1b"/><path id="path2030" d="M36.56,55.12a12.45,12.45,0,0,1-.43-3.32A9.45,9.45,0,0,0,36,55,7.21,7.21,0,0,1,36,52a5.11,5.11,0,0,0-.4,1.16h-.17a1.55,1.55,0,0,1,0-.82,8.61,8.61,0,0,1,1.24-6.47l.16.1a15.73,15.73,0,0,0-1.16,5.71,10,10,0,0,1,1.13-1.46,8.61,8.61,0,0,1,.53-.75l0,0c0,.16-.09.32-.12.48a7.72,7.72,0,0,0-.68,5.18m61.92-7.73a18.92,18.92,0,0,0,1-4.51,11.41,11.41,0,0,0-2.29-8.55l-.5-.29,0,0a6.51,6.51,0,0,1,2.31,1.2,7.11,7.11,0,0,0-.73-1,5.84,5.84,0,0,0-2.16-1.59l0-.13A5.24,5.24,0,0,1,99.78,36l.15.21-.09.11h0l-.05-.07c-.58-.47-1.16-.95-1.77-1.4a9.66,9.66,0,0,1,2.11,7c0-.15,0-.3-.07-.44a19.87,19.87,0,0,1-1.53,6" fill="#6d2817"/><path id="path2032" d="M67.72,79.91a21.72,21.72,0,0,0-2.28-3.68,21.48,21.48,0,0,1,1.77,2.43,2,2,0,0,1,.09.26s0-.22,0-1c0-6.22,7.63-8.89,12.22-11.51a27.89,27.89,0,0,0,6.76-5,14.58,14.58,0,0,0,2.24-3.19,8.51,8.51,0,0,1-.49,2,.2.2,0,0,0,.2.25.21.21,0,0,0,.13,0c1-1,2.49-1.38,3.53-2.36a18,18,0,0,0,3-3.77,12.23,12.23,0,0,0,1.57-5.11A8.86,8.86,0,0,1,96.68,51a.19.19,0,0,0,.19.2.2.2,0,0,0,.19-.14c.28-.78.6-1.56.91-2.34.13-.29.26-.59.37-.9l.14-.39a19.87,19.87,0,0,0,1.53-6c0,.14,0,.29.07.44s0,.53,0,.79A19.66,19.66,0,0,1,98.78,48a20.1,20.1,0,0,1-2.09,3.88l0,.06,0,0-.29.44-.12-.07c.11-.28.24-.56.36-.84a12.94,12.94,0,0,0,0-1.65,12.41,12.41,0,0,1-2.67,6.48,10.89,10.89,0,0,1-3.15,2.78,17.82,17.82,0,0,0-2,1.27,13.91,13.91,0,0,0-1.12,1l-.13.21-.11,0-.13.13-.06-.06.17-.25c.17-.59.37-1.18.57-1.78a13.13,13.13,0,0,1-3.32,3.9,45.55,45.55,0,0,1-7.71,4.26,21.78,21.78,0,0,0-6.59,4.65c-1.3,1.42-2.58,3.24-2.68,5.18a6.65,6.65,0,0,0,.16,2.26m-3.91-5.4a19.75,19.75,0,0,0-4.74-3.12c-2.09-1-4.27-1.74-6.42-2.59a70.6,70.6,0,0,1-6.52-2.94c-3.49-1.78-6.9-3.85-8.89-7.37A11.07,11.07,0,0,1,36,55a9.45,9.45,0,0,1,.18-3.22,12.45,12.45,0,0,0,.43,3.32,10.47,10.47,0,0,0,1.36,3.36c.23.43.49.86.76,1.28,2.1,3.15,5.5,4.94,8.89,6.38S54.56,69,58,70.53a21,21,0,0,1,5.81,4" fill="#561d14"/><path id="path2034" d="M80.9,76.65l-.07-.1c4-2.54,6.36-6.82,8.64-10.87l.07,0a22.53,22.53,0,0,1-1,2.46l-.42.73a27.11,27.11,0,0,1-5.47,6.6l-.28.25a13.35,13.35,0,0,1-1.44.9" fill="#561d14"/><path id="path2036" d="M82.34,75.75l.28-.25a27.11,27.11,0,0,0,5.47-6.6l.42-.73a20.22,20.22,0,0,1-6.17,7.58" fill="#421814"/><path id="path2038" d="M43.15,4.14C41,4.34,38.74,6,37.36,7.58a8,8,0,0,0-1.78,3.95A6.45,6.45,0,0,0,35.24,14a4.91,4.91,0,0,0,1.87,3.27c2.35,1.94,6.12,1.24,8.73.23L46,17.4c.52,0,1-.63,1.29-1a7.41,7.41,0,0,0,.69-1.06l.08-.14.17-.21c.31-3.29.21-11.35-5-10.89" fill="#b75c1e"/><path id="path2040" d="M41,18.47a6,6,0,0,1-3.91-1.23A4.91,4.91,0,0,1,35.24,14a5.23,5.23,0,0,1,0-.56,5.23,5.23,0,0,0,0,.56,4.91,4.91,0,0,0,1.87,3.27A6,6,0,0,0,41,18.47a11.19,11.19,0,0,0,1.63-.13h0a11.19,11.19,0,0,1-1.63.13" fill="#d8af8e"/><path id="path2042" d="M41,18.47a6,6,0,0,1-3.91-1.23A4.91,4.91,0,0,1,35.24,14a5.23,5.23,0,0,1,0-.56v-.1c.34,1.42.51,2.64,2.18,3h0c.23,0,1-.15.85-.23-1-.82-.63-2.77-.19-4.07a10.43,10.43,0,0,1,2.25-3.74,3.33,3.33,0,0,1,2.14-.86A2,2,0,0,1,44,8c.8.87,1.42,2.11,2,2.8l.32-.08c.67-1.73,0-4.27-1-5.79a3.65,3.65,0,0,0-.45-.57c2.66,1,3.31,5.06,3.35,8.18-.66.54-1.3,1.1-1.91,1.68h0c-.25.24-.5.48-.74.73a20,20,0,0,0-1.05-3,4.43,4.43,0,0,0-1.79-2.27,2.25,2.25,0,0,0-1-.26,1.86,1.86,0,0,0-1.51.89c-1.59,1.92-1.64,6.4,1.71,6.46h.19a6.65,6.65,0,0,0,2-.28c-.52.59-1,1.2-1.51,1.83h0a11.19,11.19,0,0,1-1.63.13" fill="#9a3f1d"/><path id="path2044" d="M45.82,15.67A22.76,22.76,0,0,0,44.58,12a4.43,4.43,0,0,0-1.79-2.27c-2.16-1.06-3.11,1.36-3.36,3l.11,0a7.17,7.17,0,0,1,.94-2.18,1.74,1.74,0,0,1,2.66.25c1.27,1.46,1.39,3.42,2.12,5.1a.3.3,0,0,0,.56-.19" fill="#632915"/><path id="path2046" d="M42.18,16.79H42c-3.35-.06-3.3-4.54-1.71-6.46a5.88,5.88,0,0,0-.85,2.33l.11,0a7.17,7.17,0,0,1,.94-2.18A1.38,1.38,0,0,1,41.57,10a2.23,2.23,0,0,1,1.57.78c1.18,1.35,1.37,3.14,2,4.73-.32.33-.63.67-.93,1h0a6.65,6.65,0,0,1-2,.28" fill="#7d2819"/><path id="path2048" d="M45.11,15.49c-.6-1.59-.79-3.38-2-4.73A2.23,2.23,0,0,0,41.57,10a1.38,1.38,0,0,0-1.09.53,7.17,7.17,0,0,0-.94,2.18l-.11,0a5.88,5.88,0,0,1,.85-2.33,2.14,2.14,0,0,1,1.61-.86,2.07,2.07,0,0,1,.9.23A4.43,4.43,0,0,1,44.58,12a20,20,0,0,1,1.05,3l-.52.54" fill="#4d1d14"/><path id="path2050" d="M39.49,7.2a4.43,4.43,0,0,0-3.17,3.31h.06A10.69,10.69,0,0,1,40.14,7l-.65.21" fill="#e19441"/><path id="path2052" d="M41.69,6.24A3.26,3.26,0,0,0,38.28,7.3a2,2,0,0,0-.31.4c.79-.86,3-1.38,4.23-1.33l-.51-.13" fill="#e19441"/><path id="path2054" d="M45.06,5.51C44,3.8,42,4.56,40.63,5.39a5.68,5.68,0,0,0-.71.51c1.7-.42,3.83-1.17,5.22-.12l-.08-.27" fill="#e19441"/><path id="path2056" d="M72.81,14.31c0,.09.14.11.26.08l.14.07a4.37,4.37,0,0,0,1.41.41,7.53,7.53,0,0,0,3.08-.23,1.32,1.32,0,0,0,.33,0c3.2-.47,7.9-1.27,9.41-4.55a5,5,0,0,0,.16-3.94A7.07,7.07,0,0,0,86,4C83.32,1.34,79.75-1.07,75.7.5c-3.4,1.32-3.63,11.1-2.89,13.81" fill="#b75c1e"/><path id="path2058" d="M87.94,7.8a4.3,4.3,0,0,0-.34-1.67,4.3,4.3,0,0,1,.34,1.67M87.6,6.13a1.17,1.17,0,0,1,0-.11,1.17,1.17,0,0,0,0,.11m-14.69-.5a13.36,13.36,0,0,1,1.23-4.1,4.21,4.21,0,0,0-.17.74v0a12.41,12.41,0,0,0-1,3.33" fill="#d8af8e"/><path id="path2060" d="M80.56,14.19c-.37-.27-.75-.53-1.13-.78L78.77,13a9.23,9.23,0,0,0,3.76-1.12c1.55-1.1,1-3.29-.27-4.87l.09-.06c-.78-1-1.83-2.13-3-2.13a2.17,2.17,0,0,0-1.63.88h0c-.69.62-.82,2-1,3v0a14,14,0,0,0-.31,2.77,26.57,26.57,0,0,0-3.88-1.85,31.67,31.67,0,0,1,.39-4A12.41,12.41,0,0,1,74,2.3a13,13,0,0,0,.84,6,.11.11,0,0,0,.11.07.21.21,0,0,0,.17-.14c.51-1.07.53-2.48,1-3.68A2.83,2.83,0,0,1,78.8,3a3.26,3.26,0,0,1,1,.14,12.85,12.85,0,0,1,3.73,2.5c1.12,1,2.65,2.65,2.11,3.87,0,0,0,0,.08,0a3.35,3.35,0,0,0,1-.24c1.49-1.07,1-2.31.63-3.8a5.05,5.05,0,0,1,.28.51,1.17,1.17,0,0,0,0,.11h0a4.3,4.3,0,0,1,.34,1.67,5.51,5.51,0,0,1-.5,2.27h0a5.63,5.63,0,0,1-.38.68,5.57,5.57,0,0,1-.43.56,9.86,9.86,0,0,1-5,2.63l-1.06.25m-.31-8.82-.14,0,.14,0" fill="#9a3f1d"/><path id="path2062" d="M76.55,13.11a11.35,11.35,0,0,1,.16-4.4,6.44,6.44,0,0,1,1-3.05c1.76-2,3.49-.13,4.62,1.25L82.24,7a11.22,11.22,0,0,0-2-1.61c-1.11-.52-2.18.46-2.5,1.48-.61,2-.15,4-.09,6,0,.4-1.06.62-1.13.24" fill="#632915"/><path id="path2064" d="M78.77,13l-1.12-.73c-.12-1.77-.43-3.62.12-5.37a2.2,2.2,0,0,1,1.87-1.62,1.33,1.33,0,0,1,.47.08l.14,0h0a11.22,11.22,0,0,1,2,1.61l0,0c1.27,1.58,1.82,3.77.27,4.87A9.23,9.23,0,0,1,78.77,13M76.71,8.69c.2-1,.33-2.41,1-3a6.33,6.33,0,0,0-1,3" fill="#7d2819"/><path id="path2066" d="M77.65,12.23c-.41-.26-.83-.51-1.25-.75a14,14,0,0,1,.31-2.77v0a6.33,6.33,0,0,1,1-3h0a2.08,2.08,0,0,1,1.4-.53,2.89,2.89,0,0,1,1,.19,1.33,1.33,0,0,0-.47-.08,2.2,2.2,0,0,0-1.87,1.62c-.55,1.75-.24,3.6-.12,5.37M82.24,7a11.22,11.22,0,0,0-2-1.61h0a5.61,5.61,0,0,1,2,1.6l0,0" fill="#4d1d14"/><path id="path2068" d="M80.36,1.71A4.52,4.52,0,0,1,84.8,3.38l0,.05a11.31,11.31,0,0,0-5.1-1.61l.71-.11" fill="#e19441"/><path id="path2070" d="M77.86,1.82a3.49,3.49,0,0,1,3.73-.58,2.25,2.25,0,0,1,.44.25c-1.09-.45-3.44.08-4.63.69l.46-.36" fill="#e19441"/><path id="path2072" d="M74.46,2.67C74.78.58,77,.35,78.59.52a6.6,6.6,0,0,1,.88.15c-1.79.4-4.17.66-5,2.29V2.67" fill="#e19441"/><path id="path2074" d="M93.12,22a14.52,14.52,0,0,0-7.77-3.74,31,31,0,0,0-5.92-4.83,32,32,0,0,0-7-3.82,59.84,59.84,0,0,0-7.6-2c-2.1-.47-6.3-1.12-5.89-4.12l.16-.3L59,3.08c-1.25,1.15-2.13,2.74-1.06,4.05a6.13,6.13,0,0,0-2.47-.58,6.49,6.49,0,0,0-3.89,1l0,.07.49-.13a8.28,8.28,0,0,1,2.53.91,5.31,5.31,0,0,0-1.85.26h-.07l-.41.14v.08a5.42,5.42,0,0,0,.9,0,6.44,6.44,0,0,1,.61.24,26.56,26.56,0,0,0-9.64,7.29,40,40,0,0,0-4.12,5.63c-.66,1.09-1.22,2.23-1.81,3.35A11.53,11.53,0,0,0,37,28.55c-.26.15-.51.31-.76.47a10.28,10.28,0,0,0-2.62,2.72,12,12,0,0,0-2.4,7.31,2.26,2.26,0,0,0-.06.53h.12l0-.13.07,0,.09-.29a4.42,4.42,0,0,1,.9-1.1,5.47,5.47,0,0,1,.54-.41c-1.2,1.87,1.24,4.51,2.75,5.59a28.31,28.31,0,0,0,4.82,2.67,34.14,34.14,0,0,0,4.64,1.93A2.49,2.49,0,0,0,45.42,49a3.88,3.88,0,0,0,2.09,1.45h.06a5.83,5.83,0,0,0,1.54.52c1.29,1.86,3.55,2.68,5.71,3a18.43,18.43,0,0,0,7.92-.49c2.58-.72,5.27-1.76,7.05-3.85a38,38,0,0,1,3.55-3.85c.34-.3.7-.6,1.06-.89a75.61,75.61,0,0,1,7-4,60.54,60.54,0,0,1,7-2.47,11.39,11.39,0,0,0,5.41-4.2,5,5,0,0,0,1-4.8l.17.22a5.86,5.86,0,0,1,1.05,2l.11.06.14-.07c1-3.49-.63-7.25-3.17-9.61" fill="#b75c1e"/><path id="path2076" d="M60.82,6.41a3,3,0,0,1-1.91-2.33h0a3,3,0,0,0,1.91,2.33h0" fill="#fcf0e2"/><path id="path2078" d="M62.49,7a9,9,0,0,1-1.67-.62h0A9,9,0,0,0,62.49,7h0" fill="#cb761b"/><path id="path2080" d="M62.71,7.09,62.49,7h0l.22.06" fill="#e49645"/><path id="path2082" d="M55.46,6.55h0" fill="#fcf0e2"/><path id="path2084" d="M54.35,27.79a4.46,4.46,0,0,1-2.05-.42c-1-.53-1-2.44-1.07-3.44s-.11-2.17-.3-3.25c-.26-1.58-1.11-3.41-2.74-3.94-.9-.29-1.89-.5-1.33-1.65a7.58,7.58,0,0,1,1.68-2,2.39,2.39,0,0,1,.23-.22,2.11,2.11,0,0,1,.23-.19A25.64,25.64,0,0,1,51.35,11a5.43,5.43,0,0,1,2.08-.59h.27a6.94,6.94,0,0,1,2.3.41h.06c.14,0,.21-.18.16-.3a2.87,2.87,0,0,0-2-1.64h0l.29,0a8.11,8.11,0,0,1,2.88,1,.12.12,0,0,0,.09,0c.12,0,.25-.12.2-.25a4.07,4.07,0,0,0-3.06-2.55H55a9.57,9.57,0,0,1,3.42.69c.4.21.81.44,1.23.65l.1,0a.2.2,0,0,0,.14-.34,3.77,3.77,0,0,1-1.18-3.36,3.7,3.7,0,0,0,2.51,2.44c2.52,1,5.3,1.3,7.92,2q.36.13.72.3A18.27,18.27,0,0,1,76.45,14c.45.53,1.3,1.82.47,2.36a1.66,1.66,0,0,1-.94.25,8.53,8.53,0,0,1-3.32-1.14c-1.67-.84-3.48-2.1-5.42-2.1a4.58,4.58,0,0,0-.64,0C63,14,62,18.33,61.3,21.28c-.44,1.9-.68,4.22-2.35,5.48a6.26,6.26,0,0,1-3.05.92,12.85,12.85,0,0,1-1.55.11" fill="#c26b1d"/><path id="path2086" d="M74.86,29.46A1.33,1.33,0,0,1,73.48,28a6.78,6.78,0,0,1,.85-2.77,12,12,0,0,1,4.2-4.91,10.58,10.58,0,0,1,3.78-1.46,5.82,5.82,0,0,1,1.09-.1l.53,0c.5.07,1,.15,1.36.24a.18.18,0,0,0,.11.29,19.09,19.09,0,0,1,7.16,3.75,8.67,8.67,0,0,1,1.33,1.88,1,1,0,0,1-.63.18h-.15a2.38,2.38,0,0,1-.5-.15,19.29,19.29,0,0,0-2.29-1,1.55,1.55,0,0,0-.31,0,1.17,1.17,0,0,0-.66.18l-.2,0a.23.23,0,0,1,.14.07.46.46,0,0,0-.15.16c-.35.5,0,1,.25,1.42s-.06.5-.46.5A5.82,5.82,0,0,1,87.59,26a4.68,4.68,0,0,0-1.18-.12h-.28a18.1,18.1,0,0,0-3.95.49,16.75,16.75,0,0,0-3.34,1.3,27.33,27.33,0,0,1-3.24,1.64,2.18,2.18,0,0,1-.74.13" fill="#c26b1d"/><path id="path2088" d="M32.88,36a.46.46,0,0,1-.4-.22.75.75,0,0,1-.15-.47,14.56,14.56,0,0,1,1.73-3.2,14.18,14.18,0,0,1,4.22-3.86,12.72,12.72,0,0,1,4.24-1h.34a8.83,8.83,0,0,1,5,1.93l.08.15c1.36,1-1.77,1.72-2.48,1.84A14.54,14.54,0,0,0,40,33.39a14.79,14.79,0,0,1-2.75,1.74h0c-.27,0-.33-.81-.44-1a.62.62,0,0,0-.56-.35c-.59,0-1.34.7-1.65,1S33.45,36,32.88,36" fill="#c26b1d"/><path id="path2090" d="M73.66,36.69a8.94,8.94,0,0,0-3.52-4.1c-3.3-2.22-7.13-2.76-10.82-4.12a63.88,63.88,0,0,0-8.93,1c-3.77,1.62-8.62,6.36-10,10.78a6.68,6.68,0,0,0,1.81,3.57c.76.82,2,1.1,2.7,1.9s0,2.08.46,3.08l.07.16a3.88,3.88,0,0,0,2.09,1.45h.06a5.83,5.83,0,0,0,1.54.52l.14.19C57.7,53.61,67,49.81,72.17,42.71c1.27-1.73,2.31-3.85,1.49-6" fill="#eea25a"/><path id="path2092" d="M49.11,50.94l-.45-.1.45.1" fill="#662515"/><path id="path2094" d="M57.38,53.55A12.06,12.06,0,0,1,50,51.33a18.79,18.79,0,0,0,4.59.56,22.26,22.26,0,0,0,17.59-9.18c1.27-1.73,2.31-3.85,1.49-6a8.94,8.94,0,0,0-3.52-4.1C67.3,30.68,64.05,30,60.84,29c.36,0,.72,0,1.08,0,3,0,5.72,1,8.59,1.84a26.85,26.85,0,0,0,7.64,1.07q1.36,0,2.73-.12a32.22,32.22,0,0,0,5-.83c1.56-.38,4.19-1,4.61-2.85a8.38,8.38,0,0,0-1.17-3.89l.06-.05c1.58.17,5.09,1.45,5.25,3.25a6.7,6.7,0,0,0-.71-2.43c.14-.13.18-.34,0-.67a4.58,4.58,0,0,0-1.17-1.11l-.12-.1a15.09,15.09,0,0,0-7.11-4l-.16,0h0a9.33,9.33,0,0,0-1.37-.23c-1.18-.16-2.51-.28-3.39-.44.22,0,2.07-.3,2.29-.4l.36,0c-.83-1.26-2.3-2-3.47-2.89a43.43,43.43,0,0,0-5.47-3.56c-1-.56-2-1.16-2.94-1.72A28.81,28.81,0,0,1,77.85,13c1.22.8,2.43,1.63,3.6,2.51s2,1.81,3.1,2.62a14.35,14.35,0,0,0-1.61-.09h-.06v.1a17.72,17.72,0,0,1,9.65,4.07,9.92,9.92,0,0,1,2.88,4A12.05,12.05,0,0,1,96,30.1a7.8,7.8,0,0,0-1.63-1.71l0-.08-.09,0-.21-.2-.09.07c.09.17.19.33.29.49a4.53,4.53,0,0,1,0,3.81A11,11,0,0,1,92,35.34a12.51,12.51,0,0,1-5.88,3,31.32,31.32,0,0,0-8.83,4.13l-.09-.05a36.76,36.76,0,0,0-6.42,5.24,21.12,21.12,0,0,1-3.07,2.91,15.52,15.52,0,0,1-3.85,1.79,20.19,20.19,0,0,1-6.48,1.14" fill="#9a3f1d"/><path id="path2096" d="M93.89,24.93a8.67,8.67,0,0,0-1.33-1.88l.12.1a4.58,4.58,0,0,1,1.17,1.11c.22.33.18.54,0,.67m-4.6-.77a.23.23,0,0,0-.14-.07l.2,0-.06.05m-4-5.15c-.39-.09-.86-.17-1.36-.24A9.33,9.33,0,0,1,85.3,19h0" fill="#a4471e"/><path id="path2098" d="M45.63,15h0c.24-.25.49-.49.74-.73h0l-.74.73" fill="#832d1a"/><path id="path2100" d="M44.18,16.5c.3-.34.61-.68.93-1h0c-.32.33-.63.67-.93,1" fill="#682016"/><path id="path2102" d="M45.11,15.49h0l.52-.54h0l-.52.54" fill="#3f1914"/><path id="path2104" d="M45.13,47.19a50.89,50.89,0,0,1-7.45-3.37c-2.24-1.26-5.84-3.93-3.9-6.85l-.1-.11-.1.06-.07,0-.16,0c-.52,0-1.08.59-1.38.92l-.27.32a17.2,17.2,0,0,1,.51-2.45v0a5.42,5.42,0,0,0,0,.57.2.2,0,0,0,.19.2h.05a10.38,10.38,0,0,0,3-1.71,2.61,2.61,0,0,0-.5,1.88,1.23,1.23,0,0,0,1.38.92A6.64,6.64,0,0,0,38.62,37,9,9,0,0,0,41,35.34c1.06-.88,2.1-1.76,3.2-2.58a18.41,18.41,0,0,1,5.18-2.87,1.19,1.19,0,0,0-.15.09q-.59.38-1.17.78c-.55.38-1.11.8-1.67,1.26A17.54,17.54,0,0,0,41,38.69c-.27.43-.51.88-.74,1.34a1.68,1.68,0,0,0-.2.79c0,1,1,1.86,1.64,2.63a12.72,12.72,0,0,0,3.47,2.9v.07c0,.24,0,.5,0,.77m-7.38-19a31.06,31.06,0,0,1,2.7-5.45,36.53,36.53,0,0,1,3.21-4.61,42.23,42.23,0,0,0-4.76,8.7.2.2,0,0,0,.2.25h0c.32-.08,1.66-.21,2-.26-.51.21-1.1.46-1.72.74l.16-.1-.07-.14c-.59.28-1.17.56-1.74.87" fill="#9a3f1d"/><path id="path2106" d="M54.58,51.89A18.79,18.79,0,0,1,50,51.33h0l.8.18h.11a4.58,4.58,0,0,0,1.83-.4,4.59,4.59,0,0,1,1-.33l.23,0A3.64,3.64,0,0,1,55,51a5.88,5.88,0,0,0,1.71.28h.14a18,18,0,0,0,4-.46c2.4-.65,4.63-1.82,5.84-4.08.92-1.71,1.41-3.61,2.17-5.39-.07-.11,0-.24.15-.27l.26.1a1.77,1.77,0,0,0,1.07.34c1.47,0,3.05-1.64,3.36-3a3.47,3.47,0,0,1-.29.25h0l-.19.14a5.24,5.24,0,0,1-3,.94,5.09,5.09,0,0,1-2.09-.44,5.93,5.93,0,0,1-1.93-2.17l-.08,0h0a5.46,5.46,0,0,0,.26.67,5.22,5.22,0,0,1-.26-.47A2.89,2.89,0,0,0,67.61,40l.09.09v.28c-1.36,1.59-1.64,3.77-2.84,5.46a7.57,7.57,0,0,1-4.07,2.8,16.42,16.42,0,0,1-4.66.88,4.54,4.54,0,0,1-3.76-1.54.22.22,0,0,1,.15-.35.15.15,0,0,1,.12.07l.06.06a13,13,0,0,0,5.19-2.42c1.29-.9,4.13-2.89,3.66-4.77s-2.2-3.34-3.7-4.2c-.26-.15-.53-.28-.8-.41-.39-.33-.78-.65-1.19-1l-.58-.43c.49.1,1,.2,1.47.34a8.41,8.41,0,0,0,2.46.42l.44,0a16.54,16.54,0,0,0,6-2.4c2.52-2-2.75-3-4.81-3.87h0c3.21,1,6.46,1.69,9.3,3.6a8.94,8.94,0,0,1,3.52,4.1c.82,2.17-.22,4.29-1.49,6a22.26,22.26,0,0,1-17.59,9.18m-5.73-1.5a13.52,13.52,0,0,1-1.49-.47A6.44,6.44,0,0,1,46,48.84,3.64,3.64,0,0,1,45.47,47a4.8,4.8,0,0,0,2.92,1,3.42,3.42,0,0,0,.79-.08l.19.06.14.06a5.22,5.22,0,0,0,1.68,1.46.2.2,0,0,1,0,.38c-.71.17-1.52.39-2.34.51M46.4,32c.56-.46,1.12-.88,1.67-1.26-.48.35-1,.71-1.42,1.07L46.4,32" fill="#cb6e36"/><path id="path2108" d="M50.89,51.51h-.11l-.8-.18L49.63,51h0l0,0c.21,0,.41,0,.62,0A5.4,5.4,0,0,0,53.52,50a9.77,9.77,0,0,0,2,.83A5.56,5.56,0,0,0,57,51a10.78,10.78,0,0,0,3.81-.85c.84-.29,1.69-.59,2.46-.94a6.68,6.68,0,0,0,2.49-2c1.55-2.07,1.2-5,3.1-6.81v0a4.65,4.65,0,0,0,.52.2,3.85,3.85,0,0,0,1,.14,3.65,3.65,0,0,0,3.17-1.83h0l-.12-.1a3.47,3.47,0,0,0,.29-.25c-.31,1.39-1.89,3-3.36,3a1.77,1.77,0,0,1-1.07-.34l-.26-.1c-.13,0-.22.16-.15.27-.76,1.78-1.25,3.68-2.17,5.39-1.21,2.26-3.44,3.43-5.84,4.08a18,18,0,0,1-4,.46h-.14A5.88,5.88,0,0,1,55,51a3.64,3.64,0,0,0-1-.22l-.23,0a4.59,4.59,0,0,0-1,.33,4.58,4.58,0,0,1-1.83.4m-.94-1a5.09,5.09,0,0,1-1.1-.13c.82-.12,1.63-.34,2.34-.51a.2.2,0,0,0,0-.38A5.22,5.22,0,0,1,49.51,48L49.37,48l-.19-.06a3.42,3.42,0,0,1-.79.08,4.8,4.8,0,0,1-2.92-1c0-.19,0-.37-.07-.54a9,9,0,0,0,2.93.91,17.32,17.32,0,0,0,2,.13h.42A3.24,3.24,0,0,0,52.1,49.1c.28.19.58.37.88.55a8,8,0,0,1-2.54.84,4,4,0,0,1-.49,0m7-.19a4.87,4.87,0,0,1-.66,0,11.35,11.35,0,0,1-3.07-1.13,4.69,4.69,0,0,1-2.16-1.66,8.82,8.82,0,0,0,3.66-1,16.57,16.57,0,0,0,4-3.22c.7-.74,2-2,2-3.15h0a.86.86,0,0,0,0-.16l0-.18h0a3,3,0,0,0-.63-1.09,16.8,16.8,0,0,0-1.47-1.38q-.76-.7-1.56-1.38c.27.13.54.26.8.41,1.5.86,3.26,2.47,3.7,4.2s-2.37,3.87-3.66,4.77a13,13,0,0,1-5.19,2.42l-.06-.06a.15.15,0,0,0-.12-.07.22.22,0,0,0-.15.35,4.54,4.54,0,0,0,3.76,1.54,16.42,16.42,0,0,0,4.66-.88,7.57,7.57,0,0,0,4.07-2.8c1.2-1.69,1.48-3.87,2.84-5.46v-.28L67.61,40a2.89,2.89,0,0,1-1.47-2.53,5.22,5.22,0,0,0,.26.47,4.83,4.83,0,0,0,2.27,2.32c-1.94,1.56-1.94,3.86-3,5.94a7.25,7.25,0,0,1-4,3.1A16.09,16.09,0,0,1,57,50.33M70.43,40a4.42,4.42,0,0,1-.94-.1,3.93,3.93,0,0,1-1.34-.58,5.09,5.09,0,0,0,2.09.44,5.24,5.24,0,0,0,3-.94,4.59,4.59,0,0,1-1.5,1,4.21,4.21,0,0,1-1.33.22" fill="#8e421c"/><path id="path2110" d="M48.27,28.11c-.76,0-1.13-1.93-.72-3.86,0-.16.24-.68.14-.68s-.07,0-.15.11c-.36.4-.95,1.44-.95,3.87A6.68,6.68,0,0,1,46.93,24,3.4,3.4,0,0,1,48,22.42a.61.61,0,0,1,.3-.08c.65,0,.79,1.32.85,1.95s.39,3.13-.59,3.72a.6.6,0,0,1-.32.1" fill="#862c1b"/><path id="path2112" d="M45.66,21.68c.05-.26.3-1,.36-1.24.38-1.08.79-2.46,1.55-2.55h0A.66.66,0,0,1,48,18a8.41,8.41,0,0,1,1.08,2.68,2.12,2.12,0,0,0-1.45-.63H47.4c-.58.06-.88.45-1.37,1l-.37.59" fill="#9a3f1d"/><path id="path2114" d="M47.86,18.14l-.33-.1c-.62.05-.93,1-1.22,1.76,0,.17-.24.67-.27.85l.29-.4c.39-.38.63-.65,1.1-.68a1.92,1.92,0,0,1,1.36.46,5.66,5.66,0,0,0-.93-1.89" fill="#502a14"/><path id="path2116" d="M49.17,25.55c0,1.79-.36,2.31-.74,2.3s-.74-.53-.71-1.81.44-2.85.82-2.84.6,1.07.63,2.35" fill="#502a14"/><path id="path2118" d="M48.52,24.46c-.1.88-.29,1.16-.48,1.15s-.16-.43-.1-.82a2.38,2.38,0,0,1,.44-1.23c.16-.1.19.41.14.9" fill="#fff"/><path id="path2120" d="M69.65,26.49a.79.79,0,0,1-.29-.06c-1.22-.41-1.19-2.88-1.22-3.57s0-2.09.79-2.09a1.27,1.27,0,0,1,.26,0c.65.19,1.1.86,1.5,1.38a5.86,5.86,0,0,1,.91,3.45c-.36-2.4-1.19-3.33-1.67-3.67a.34.34,0,0,0-.17-.08c-.14,0,.18.5.24.65.79,1.91.61,3.95-.35,3.95" fill="#862c1b"/><path id="path2122" d="M64.78,18.43a9.89,9.89,0,0,1,1.35-3.66,1.27,1.27,0,0,1,.65-.31l.18,0c1.16,0,2,1.45,2.76,2.58.13.29.65,1.08.78,1.38l-.7-.59a4,4,0,0,0-2-.76l-.4,0a4.48,4.48,0,0,0-2.62,1.35" fill="#9a3f1d"/><path id="path2124" d="M66.34,14.87a1.27,1.27,0,0,1,.53-.24c1-.16,1.67.9,2.27,1.71.1.2.49.74.58.95l-.54-.39a2.82,2.82,0,0,0-1.9-.44,4.29,4.29,0,0,0-2.16,1.05,7.14,7.14,0,0,1,1.22-2.64" fill="#502a14"/><path id="path2126" d="M68.33,24.1c.21,1.78.76,2.23,1.19,2.15s.78-.65.56-1.91-.93-2.74-1.36-2.66-.54,1.15-.39,2.42" fill="#502a14"/><path id="path2128" d="M68.42,22.72c-.09.88,0,1.2.26,1.25s.28-.37.32-.77a2.27,2.27,0,0,0-.21-1.32c-.16-.13-.31.35-.37.84" fill="#fff"/><path id="path2130" d="M32.21,35.63c.1-2.38,1.74-4.5,3.5-6a16.81,16.81,0,0,1,3.69-2.11l-1.12.73A8.47,8.47,0,0,0,35.6,30,15.46,15.46,0,0,0,33,33.57a3.93,3.93,0,0,0-.62,1.73l-.12.33M43.66,18.08c.88-1.3,1.8-2.58,2.71-3.86a23.73,23.73,0,0,1,7.45-5h0A6.44,6.44,0,0,0,53.21,9H52.9a3.9,3.9,0,0,1-.59,0V8.86l.41-.14h.07a5.47,5.47,0,0,1,1.6-.26h.25a8.28,8.28,0,0,0-2.53-.91l-.49.13,0-.07a6.14,6.14,0,0,1,3.33-1,7.11,7.11,0,0,0-2.39.51,5.41,5.41,0,0,1,1-.09,4.8,4.8,0,0,1,1.07.11,7.84,7.84,0,0,0-1.21.16A3.66,3.66,0,0,1,55.63,8.9L55.57,9,55,8.66l-.58.14a4.34,4.34,0,0,0-.63-.05h-.11a3.78,3.78,0,0,1,.46.1A4.48,4.48,0,0,1,55.5,9.92l-.06.06a14.44,14.44,0,0,1-1.38-.65c-.91.55-1.82,1.09-2.71,1.66a11.47,11.47,0,0,0-2.58,1.86,34.25,34.25,0,0,0-4.12,4c-.33.38-.66.78-1,1.18M71.31,9.8c-.56-.19-1.14-.37-1.72-.53l-.42-.11c-1.48-.57-3-1-4.49-1.61-.56-.13-1.26-.26-2-.46.77.21,1.52.36,2.11.49a59.84,59.84,0,0,1,7.6,2A37.7,37.7,0,0,0,68.8,8.5a27,27,0,0,1,2.51,1.3m-12.72-2-.14,0a11.68,11.68,0,0,0-2.92-1.2h-.07a6.13,6.13,0,0,1,2.47.58h0a2,2,0,0,1-.48-1.3A4.13,4.13,0,0,1,59,3.08l.1.08-.16.3a2.77,2.77,0,0,0,0,.39c0,.08,0,.16,0,.23a5.33,5.33,0,0,0-.17.66,2.75,2.75,0,0,1,0-.91A5.45,5.45,0,0,0,58.06,5a3.11,3.11,0,0,0,.46,2.46l.18.14-.11.17" fill="#94441d"/><path id="path2132" d="M48.77,12.85A11.47,11.47,0,0,1,51.35,11,25.64,25.64,0,0,0,49,12.66a2.11,2.11,0,0,0-.23.19m20.4-3.69c-2.62-.68-5.4-1-7.92-2a3.7,3.7,0,0,1-2.51-2.44,5.33,5.33,0,0,1,.17-.66c.15,1.72,2,2.53,3.8,3,.71.2,1.41.33,2,.46,1.45.64,3,1,4.49,1.61m-15-.3a3.78,3.78,0,0,0-.46-.1h.11a4.34,4.34,0,0,1,.63.05l-.29,0h0m4.28-1.1A9.57,9.57,0,0,0,55,7.07h-.47A4.8,4.8,0,0,0,53.49,7a5.41,5.41,0,0,0-1,.09,7.11,7.11,0,0,1,2.39-.51h.63a11.68,11.68,0,0,1,2.92,1.2" fill="#9d4d1d"/><path id="path2134" d="M32.33,35.3A3.93,3.93,0,0,1,33,33.57,15.46,15.46,0,0,1,35.6,30a8.47,8.47,0,0,1,2.68-1.75,14.18,14.18,0,0,0-4.22,3.86,14.56,14.56,0,0,0-1.73,3.2" fill="#9d4d1d"/><path id="path2136" d="M57.64,54.17A17.86,17.86,0,0,1,54.82,54c-2.16-.33-4.42-1.15-5.71-3l0,.06h0l.1.13h0l.74.2a12.06,12.06,0,0,0,7.39,2.22,20.19,20.19,0,0,0,6.48-1.14,15.52,15.52,0,0,0,3.85-1.79,21.12,21.12,0,0,0,3.07-2.91,36.76,36.76,0,0,1,6.42-5.24l.09.05a31.32,31.32,0,0,1,8.83-4.13,12.51,12.51,0,0,0,5.88-3,11,11,0,0,0,2.23-2.89,4.53,4.53,0,0,0,0-3.81c-.1-.16-.2-.32-.29-.49l.09-.07.21.2.09,0,0,.08A7.8,7.8,0,0,1,96,30.1a12.05,12.05,0,0,0-.62-3.83,9.92,9.92,0,0,0-2.88-4,17.72,17.72,0,0,0-9.65-4.07v-.1h.06a14.35,14.35,0,0,1,1.61.09c-1.08-.81-2-1.8-3.1-2.62s-2.38-1.71-3.6-2.51A28.81,28.81,0,0,0,71.31,9.8,27,27,0,0,0,68.8,8.5a37.7,37.7,0,0,1,3.62,1.09h0a32,32,0,0,1,7,3.82,31,31,0,0,1,5.92,4.83A14.52,14.52,0,0,1,93.12,22,10.52,10.52,0,0,1,96.6,29.4a7.83,7.83,0,0,1-.31,2.19l-.14.07L96,31.6a5.86,5.86,0,0,0-1.05-2l-.17-.22h0a4.88,4.88,0,0,1,.25,1.52,5.36,5.36,0,0,1-1.23,3.28,11.39,11.39,0,0,1-5.41,4.2,60.54,60.54,0,0,0-7,2.47,75.61,75.61,0,0,0-7,4c-.36.29-.72.59-1.06.89a38,38,0,0,0-3.55,3.85c-1.78,2.09-4.47,3.13-7.05,3.85a18.74,18.74,0,0,1-5.1.71" fill="#7d301a"/><path id="path2138" d="M45.4,48.92a2.6,2.6,0,0,1-.27-1.12,34.14,34.14,0,0,1-4.64-1.93,28.31,28.31,0,0,1-4.82-2.67c-1.23-.88-3.07-2.79-3.07-4.47a2.07,2.07,0,0,1,.32-1.12h0l-.09.06a5.37,5.37,0,0,0-.45.35,4.42,4.42,0,0,0-.9,1.1l-.09.29-.07,0,0,.13h-.12a2.26,2.26,0,0,1,.06-.53h0v-.22a12,12,0,0,1,2.4-7.09A10.28,10.28,0,0,1,36.24,29c.25-.16.5-.32.76-.47a11.53,11.53,0,0,1,1.25-3.07c.59-1.12,1.15-2.26,1.81-3.35a40,40,0,0,1,4.12-5.63c.69-.77,1.42-1.54,2.19-2.28-.91,1.28-1.83,2.56-2.71,3.86a36.53,36.53,0,0,0-3.21,4.61,31.06,31.06,0,0,0-2.7,5.45c.57-.31,1.15-.59,1.74-.87l.07.14-.16.1a16.81,16.81,0,0,0-3.69,2.11c-1.76,1.51-3.4,3.63-3.5,6v0a17.2,17.2,0,0,0-.51,2.45l.27-.32c.3-.33.86-.92,1.38-.92l.16,0,.07,0,.1-.06.1.11c-1.94,2.92,1.66,5.59,3.9,6.85a50.89,50.89,0,0,0,7.45,3.37c0-.27,0-.53,0-.77a5.84,5.84,0,0,0,.25,2.5" fill="#7d301a"/><path id="path2140" d="M50,51.33l-.74-.2.73.2h0" fill="#a55027"/><path id="path2142" d="M50,51.33l-.73-.2h0l-.1-.13.48,0,.35.29" fill="#743118"/><path id="path2144" d="M50.21,51c-.21,0-.41,0-.62,0l0,0h0l0,0c.21,0,.41,0,.62,0A5.4,5.4,0,0,0,53.52,50a9.77,9.77,0,0,0,2,.83A5.56,5.56,0,0,0,57,51a10.78,10.78,0,0,0,3.81-.85c.84-.29,1.69-.59,2.46-.94a6.68,6.68,0,0,0,2.49-2c1.55-2.07,1.2-5,3.1-6.81v0a4.65,4.65,0,0,0,.52.2,3.85,3.85,0,0,0,1,.14,3.65,3.65,0,0,0,3.17-1.83h0a3.65,3.65,0,0,1-3.17,1.83,3.85,3.85,0,0,1-1-.14,4.65,4.65,0,0,1-.52-.2v0c-1.9,1.85-1.55,4.74-3.1,6.81a6.68,6.68,0,0,1-2.49,2c-.77.35-1.62.65-2.46.94A10.78,10.78,0,0,1,57,51a5.56,5.56,0,0,1-1.46-.18,9.77,9.77,0,0,1-2-.83A5.4,5.4,0,0,1,50.21,51" fill="#622815"/><path id="path2146" d="M48.66,50.84a5.13,5.13,0,0,1-1.09-.42h-.06A3.88,3.88,0,0,1,45.42,49l0,0,0,0a3.88,3.88,0,0,0,2.09,1.45h.06a5.13,5.13,0,0,0,1.09.42h0" fill="#632415"/><path id="path2148" d="M45.15,46.42v-.07h0v.07" fill="#692716"/><path id="path2150" d="M49.15,51h0l0-.06h0l0,.06" fill="#541f14"/><path id="path2152" d="M45.42,49l0,0a5.84,5.84,0,0,1-.25-2.5v-.07l.08,0c.16.77-.23,1.65.12,2.41l.07.16" fill="#541f14"/><path id="path2154" d="M48.66,50.84a5.13,5.13,0,0,1-1.09-.42h-.06A3.88,3.88,0,0,1,45.42,49h0l-.07-.16c-.35-.76,0-1.64-.12-2.41h0a2.28,2.28,0,0,1,0,.45l.2.18A3.64,3.64,0,0,0,46,48.84a6.44,6.44,0,0,0,1.38,1.08,13.52,13.52,0,0,0,1.49.47,6.69,6.69,0,0,1-1,.07h-.19a5.18,5.18,0,0,0,1,.38M68.15,39.36A4.13,4.13,0,0,1,66.4,37.9a5.46,5.46,0,0,1-.26-.67l.08,0a5.93,5.93,0,0,0,1.93,2.17m5.11-.5.19-.14h0a1.33,1.33,0,0,1-.19.14" fill="#722f18"/><path id="path2156" d="M50.21,51c-.21,0-.41,0-.62,0l0,0-.48,0,0-.06-.45-.1a5.18,5.18,0,0,1-1-.38h.19a6.69,6.69,0,0,0,1-.07,5.09,5.09,0,0,0,1.1.13,4,4,0,0,0,.49,0A8,8,0,0,0,53,49.65h0c-.3-.18-.6-.36-.88-.55a3.24,3.24,0,0,1-1.36-1.58l.34,0a4.69,4.69,0,0,0,2.16,1.66,11.35,11.35,0,0,0,3.07,1.13,4.87,4.87,0,0,0,.66,0,16.09,16.09,0,0,0,4.68-1.07,7.25,7.25,0,0,0,4-3.1c1.1-2.08,1.1-4.38,3-5.94h0A4.83,4.83,0,0,1,66.4,37.9a4.13,4.13,0,0,0,1.75,1.46,3.93,3.93,0,0,0,1.34.58,4.42,4.42,0,0,0,.94.1,4.21,4.21,0,0,0,1.33-.22,4.59,4.59,0,0,0,1.5-1,1.33,1.33,0,0,0,.19-.14l.12.1a3.65,3.65,0,0,1-3.17,1.83,3.85,3.85,0,0,1-1-.14,4.65,4.65,0,0,1-.52-.2v0c-1.9,1.85-1.55,4.74-3.1,6.81a6.68,6.68,0,0,1-2.49,2c-.77.35-1.62.65-2.46.94A10.78,10.78,0,0,1,57,51a5.56,5.56,0,0,1-1.46-.18,9.77,9.77,0,0,1-2-.83A5.4,5.4,0,0,1,50.21,51m-4.74-4-.2-.18a2.28,2.28,0,0,0,0-.45l.17.09c0,.17.05.35.07.54" fill="#4d1f15"/><path id="path2158" d="M48.84,30.27c.21-.14.42-.28.64-.41l-.09,0a4.73,4.73,0,0,1,2-.64,40.29,40.29,0,0,1,6-.71h.24l.89,0h-.11a60.22,60.22,0,0,0-8,.95,15.32,15.32,0,0,0-1.55.8" fill="#843c1b"/><path id="path2160" d="M42.19,37a15.45,15.45,0,0,1,1.75-2.26,24.25,24.25,0,0,1,4.9-4.49,15.32,15.32,0,0,1,1.55-.8,60.22,60.22,0,0,1,8-.95c-1.86.29-4.56.64-6.38,1s-3.51,1.71-5,2.85a21.14,21.14,0,0,0-3.33,3.21l0,0A9.17,9.17,0,0,0,42.19,37" fill="#ac6937"/><path id="path2162" d="M41,38.69A17.54,17.54,0,0,1,46.4,32a21.45,21.45,0,0,0-5.32,6.51,1.4,1.4,0,0,1-.1.16m7.09-7.93q.59-.41,1.17-.78a1.19,1.19,0,0,1,.15-.09l.09,0c-.22.13-.43.27-.64.41l-.77.49" fill="#6f2c17"/><path id="path2164" d="M41.08,38.53A21.45,21.45,0,0,1,46.4,32l.25-.19c.47-.36.94-.72,1.42-1.07l.77-.49a24.25,24.25,0,0,0-4.9,4.49A15.45,15.45,0,0,0,42.19,37a13.87,13.87,0,0,0-1,1.39l-.08.12" fill="#914722"/><path id="path2166" d="M60.75,39.94l0-.18c-.27-1-1.38-1.82-2.1-2.47-.88-.81-1.79-1.61-2.75-2.34a10,10,0,0,0-2.75-1.57,7.3,7.3,0,0,0-3.32-.07,12.16,12.16,0,0,0-6.13,2.27,11.5,11.5,0,0,0-2.51,2.83A17.28,17.28,0,0,0,40.24,40c-.69,1.36.6,2.45,1.44,3.42a10.63,10.63,0,0,0,6.65,3.94,10.25,10.25,0,0,0,6.41-.92,16.57,16.57,0,0,0,4-3.22c.74-.77,2.17-2.14,2-3.31" fill="#502a14"/><path id="path2168" d="M60.72,39.76a3,3,0,0,0-.63-1.09,3,3,0,0,1,.63,1.09" fill="#6c2c17"/><path id="path2170" d="M50.06,47l-.76,0a10.19,10.19,0,0,1-6.06-2.66,13.37,13.37,0,0,1-2.18-2.51,1.87,1.87,0,0,1-.34-1,3,3,0,0,0,.8-.66c.43-.46.54-.73,1.16-.73h.14c1.69.1,3,1.06,4.59,1.35a2.89,2.89,0,0,0,.5,0,5.65,5.65,0,0,0,3-1.23,13.93,13.93,0,0,1,1.55-1,2.62,2.62,0,0,1,1.26-.32,4.17,4.17,0,0,1,1.71.44,7.25,7.25,0,0,0,3.17.82h.18a.63.63,0,0,0,.68-.45l.45.58c.49,1.37-2.48,4-4.32,5.5A8.71,8.71,0,0,1,50.06,47m-7.41-5.68c.15.29.45.42,1,.66,1.18.52,2.84.94,3.79,1.88.12.16.24.33.34.49l.1,0c-.81-2.2-2.7-4.36-5.09-4.79h-.06a.25.25,0,0,0-.23.26,12.42,12.42,0,0,0,0,1.83h.14l0-.28m10.86-2.67h-.12c-.82.09-1.3,1.13-1.7,1.84s-1.4,2.82-.9,3.63c-.42-.69,4-3.22,4.51-3.33a.32.32,0,0,0,.23-.42,2.45,2.45,0,0,0-2-1.73" fill="#391e15"/><path id="path2172" d="M41.68,43.45C41,42.68,40,41.82,40,40.82a1.68,1.68,0,0,1,.2-.79,17.28,17.28,0,0,1,.92-1.62,11.5,11.5,0,0,1,2.51-2.83,12.16,12.16,0,0,1,6.13-2.27,16.32,16.32,0,0,1,1.84-.16,4.4,4.4,0,0,1,1.48.23A10,10,0,0,1,55.87,35c1,.73,1.87,1.53,2.75,2.34a16.8,16.8,0,0,1,1.47,1.38,9.88,9.88,0,0,0-.93-.9,2.36,2.36,0,0,1,.34,1.37,21.87,21.87,0,0,0-3.79-3.5,8.06,8.06,0,0,0-5.05-2,6.94,6.94,0,0,0-1.17.1,10.51,10.51,0,0,0-6.07,2.86,23.27,23.27,0,0,0-2.35,2.9,2.68,2.68,0,0,0-.35,1.41l-.09,0a.94.94,0,0,1-.36.09.51.51,0,0,1-.22-.05c.07,1,1,1.77,1.63,2.51" fill="#391e15"/><path id="path2174" d="M50.32,47.52a17.32,17.32,0,0,1-2-.13,9,9,0,0,1-2.93-.91l-.17-.09a12.39,12.39,0,0,1-3.55-2.94h0c-.65-.74-1.56-1.56-1.63-2.51a.51.51,0,0,0,.22.05.94.94,0,0,0,.36-.09l.09,0a1.87,1.87,0,0,0,.34,1,13.37,13.37,0,0,0,2.18,2.51A10.19,10.19,0,0,0,49.3,47l.76,0a8.71,8.71,0,0,0,5.57-1.8c1.84-1.5,4.81-4.13,4.32-5.5l-.45-.58a2.36,2.36,0,0,0-.34-1.37,9.88,9.88,0,0,1,.93.9,3,3,0,0,1,.63,1.09l0,.18a.86.86,0,0,1,0,.16c0,1.13-1.34,2.41-2,3.15a16.57,16.57,0,0,1-4,3.22,8.82,8.82,0,0,1-3.66,1l-.34,0h-.42" fill="#2c1813"/><path id="path2176" d="M50.79,44.15c-.5-.81.49-2.91.9-3.63s.88-1.75,1.7-1.84h.12a2.45,2.45,0,0,1,2,1.73.32.32,0,0,1-.23.42c-.47.11-4.93,2.64-4.51,3.33" fill="#1e1311"/><path id="path2178" d="M47.77,44.37c-.1-.16-.22-.33-.34-.49-1-.94-2.61-1.36-3.79-1.88-.54-.24-.84-.37-1-.66l0,.28h-.14a12.42,12.42,0,0,1,0-1.83.25.25,0,0,1,.23-.26h.06c2.39.43,4.28,2.59,5.09,4.79l-.1,0" fill="#1e1311"/><path id="path2180" d="M52.1,35c-.92-1-2.46-.8-3.7-.52a7.61,7.61,0,0,0-4.72,3l.13.14C46.28,35.93,49,35.49,52,35.31a.2.2,0,0,0,.14-.3" fill="#fff"/><path id="path2182" d="M54.41,35.06c-.63-.49-3.24-1.12-2.42-.53s1,1,2,1.15,1.64.29.42-.62" fill="#fff"/><path id="path2184" d="M41.11,28.58a12.7,12.7,0,0,0-5.3,2c-1.49,1.18-2,2.81-2.79,4.43l.09,0c1.18-1.21,1.77-2.81,3.07-3.95,1.49-1.3,3.17-1.67,5-2.34l0-.18" fill="#e19441"/><path id="path2186" d="M43.17,27.4c-2-.33-3.72.55-5.33,1.58l0,0a35.77,35.77,0,0,1,5.3-1.44V27.4" fill="#e19441"/><path id="path2188" d="M93,24.24a11.06,11.06,0,0,0-4.37-3.47,9.26,9.26,0,0,0-5.39-.35v.13a11.33,11.33,0,0,1,5.17,1,14.22,14.22,0,0,1,4.47,2.81l.11-.1" fill="#e19441"/><path id="path2190" d="M85.47,19.65a5.83,5.83,0,0,0-6.1,1.25l.1.11c1.93-1.09,3.85-1.06,6-1.26v-.1" fill="#e19441"/><path id="path2192" d="M63.56,8.27c-1.85-.69-4.75-1.33-4.89-3.77h-.13c-.51,2.83,2.82,3.61,5,4l.06-.21" fill="#e19441"/><path id="path2194" d="M58.36,8.34c-.69-1.43-2.93-1.16-4.21-1v0a9.1,9.1,0,0,1,4.09,1.11l.12-.12" fill="#e19441"/><path id="path2196" d="M54.57,8.78l-.07.1a5.54,5.54,0,0,0,1.1.52,3.29,3.29,0,0,1,1.09.83l.19-.13c-.21-1-1.59-1-2.31-1.32" fill="#e19441"/><path id="path2198" d="M25.82,124.9a7.71,7.71,0,0,1-1.72-3.32l-.11-.35,0,0c0-.1-.08-.19-.13-.29-.95-3.07-2.23-5.8-6.42-7.26a26.9,26.9,0,0,0-6.56-1h-.09c-.22,0-.56.06-1,.11a9.17,9.17,0,0,1-1.33.11,2.32,2.32,0,0,1-2.41-1.29l.09-.24c.63-1.44,3.09-1.44,4.58-3,2.41-2.51,4.72-4.31,6.88-4.31a3.68,3.68,0,0,1,1.26.22,4.5,4.5,0,0,1,3,3.73c.24,1.42.37,2.71.63,4.11a22.84,22.84,0,0,0,1.08,4.25c1,2.49,2.14,4.95,2.19,7.73a.91.91,0,0,1,0,.17c0,.23,0,.47,0,.71" fill="#eea25a"/><path id="path2200" d="M22.17,129.66a7,7,0,0,1-5.28-3.25c-1.19-1.84-1.83-4-3.05-5.84-1.38-2-3.51-2.87-5.38-4.23-1.5-1.09-2.57-2.15-2.57-3.58a3.34,3.34,0,0,1,.24-1.22,2.32,2.32,0,0,0,2.41,1.29,9.17,9.17,0,0,0,1.33-.11c.4,0,.74-.11,1-.11h.09a26.9,26.9,0,0,1,6.56,1c4.19,1.46,5.47,4.19,6.42,7.26-1.72-3.58-5.85-7.42-10.06-7.42a5.51,5.51,0,0,0-1,.08v.1c4.73.2,8.64,3.8,11,7.61l.11-.06.11.35a7.71,7.71,0,0,0,1.72,3.32c-.18,2.26-1.22,4.66-3.46,4.76h-.19" fill="#d88142"/><path id="path2202" d="M24,121.23l-.09-.31c.05.1.09.19.13.29l0,0" fill="#d18647"/><path id="path2204" d="M23.88,121.29c-2.38-3.81-6.29-7.41-11-7.61v-.1a5.51,5.51,0,0,1,1-.08c4.21,0,8.34,3.84,10.06,7.42l.09.31-.11.06" fill="#c06f3b"/><path id="path2206" d="M111.54,128.17a4.68,4.68,0,0,1-1.25-.14v-.09c0-1.36,1.12-2.21,2.38-2.73a10.76,10.76,0,0,0,4.93-3.52,14.39,14.39,0,0,0,2.35-6,8.54,8.54,0,0,1,4.09-6,9.1,9.1,0,0,1,4.44-1.13,7.48,7.48,0,0,1,3.85,1c2,1.25,2.87,3.88,5.14,4.92,1,.48,2.27.6,2.94,1.63a2.56,2.56,0,0,1,.37,1.37,4.34,4.34,0,0,1-.06.71,3.23,3.23,0,0,1-2,1.37,6.82,6.82,0,0,1-1,.07,15.9,15.9,0,0,1-4.65-.94,16.15,16.15,0,0,0-4.64-.93,8.06,8.06,0,0,0-1,.06c-4.56.58-7.3,4.49-10.58,7.26-1.1.93-3.73,3-5.18,3h-.11" fill="#eea25a"/><path id="path2208" d="M115.72,131.48a10.14,10.14,0,0,1-2.85-.37,3.4,3.4,0,0,1-2.49-2.46,2.38,2.38,0,0,1-.09-.62,4.68,4.68,0,0,0,1.25.14h.11c1.45,0,4.08-2.09,5.18-3,3.28-2.77,6-6.68,10.58-7.26a8.06,8.06,0,0,1,1-.06,16.15,16.15,0,0,1,4.64.93,15.9,15.9,0,0,0,4.65.94,6.82,6.82,0,0,0,1-.07,3.23,3.23,0,0,0,2-1.37,9.81,9.81,0,0,1-.82,2.47c-2.14,4.75-7.91,5.57-12.35,7.33-2.54,1-5,2.62-7.75,3a27.64,27.64,0,0,1-4.08.4m15.2-12.18a27.52,27.52,0,0,0-4.1.38,16.18,16.18,0,0,0-6,2.66l0,.06a21.91,21.91,0,0,1,6-2.17,39.59,39.59,0,0,1,5.29-.39c.65,0,1.3,0,2,.06h0a.09.09,0,0,0,0-.18,11.26,11.26,0,0,0-3.24-.42" fill="#d88142"/><path id="path2210" d="M120.85,122.4l0-.06a16.18,16.18,0,0,1,6-2.66,27.52,27.52,0,0,1,4.1-.38,11.26,11.26,0,0,1,3.24.42.09.09,0,0,1,0,.18h0c-.67,0-1.32-.06-2-.06a39.59,39.59,0,0,0-5.29.39,21.91,21.91,0,0,0-6,2.17" fill="#c06f3b"/><path id="path2212" d="M36.43,83.25c-1.44-3-3.07-5.92-4.32-9A41.15,41.15,0,0,1,29.7,64.08a53.7,53.7,0,0,1,1.5-20.46L31,43.56c-2.93,6.1-3.27,13.29-2.6,19.92.72,7.22,3.83,13.89,7.84,19.85l.17-.08" fill="#e19441"/><path id="path2214" d="M124.76,82.24c-1.44-1.77-3.29-3.88-5.8-3.44a.16.16,0,0,0,0,.31c2.82,0,4.12,2.56,5.56,4.61a29.3,29.3,0,0,1,3.34,7.2.14.14,0,0,0,.26-.06,13.65,13.65,0,0,0-3.38-8.62" fill="#e19441"/><path id="path2216" d="M25.55,82.2c-2.25-1-4.43,1.4-5.65,3a17.66,17.66,0,0,0-3.43,7.38l.19.06c1.84-4,4.48-8.54,8.87-10.09a.18.18,0,0,0,0-.33" fill="#e19441"/><path id="path2218" d="M109.86,51.42A27.73,27.73,0,0,0,106,39.14l0,0c2.12,4,2.7,8.5,3.13,13A118.81,118.81,0,0,1,109.6,65c-.19,10.42-4.17,19.34-10.51,27.45-.11.14-2.38,2.57.22.18,7.09-6.56,10.59-16.73,11-26.28a111.67,111.67,0,0,0-.46-15" fill="#e19441"/></g></g></g></g></svg>