<svg xmlns="http://www.w3.org/2000/svg" viewBox="0 0 124.6 133.33"><title>ButterFly_1</title><g id="Layer_2" data-name="Layer 2"><g id="svg2"><g id="g10"><g id="g12"><path id="path6906" d="M57.94,74.44l2.45,0s3.32,10.93,3.27,31.71-3,26.32-15.5,27.17-26.47-10-23.42-20.62,33.2-38.23,33.2-38.23" fill="#301e15"/><path id="path6908" d="M57.94,74.44l2.45,0s3.32,10.93,3.27,31.71-3,26.32-15.5,27.17-26.47-10-23.42-20.62,33.2-38.23,33.2-38.23" fill="#301e15"/><path id="path6910" d="M46.77,133.33c-10.9,0-22.46-8.47-22.46-17.66,0,9.19,11.56,17.66,22.46,17.66.47,0,.93,0,1.39,0,4-.28,7.05-1,9.32-2.63-2.27,1.6-5.31,2.35-9.32,2.63-.46,0-.92,0-1.39,0m10.72-2.68h0" fill="#a39285"/><path id="path6912" d="M46.77,133.33c-10.9,0-22.46-8.47-22.46-17.66a10.77,10.77,0,0,1,.43-3c1-3.36,4.63-8.41,9.19-13.75,2-1.17,4.14-2.53,6.31-4h0l0,0,0,0h0a122.4,122.4,0,0,0,9.77-7.43l.67,0h.29a.56.56,0,0,0,.41-.69l0-.12a3,3,0,0,1-.08-.32c.73-.64,1.44-1.29,2.12-1.93l0,0c.86-.81,1.65-1.6,2.38-2.38l.35.22,0,0,.05.09v0h0l.06.08,0,0h0l.08.11v0l.06.06.12.15.26.21.13.07c-1.14.73-2.19,1.64-3.22,2.4l-1,.76-.09.07c-2,1.53-3.9,3.12-5.9,4.62-2.24,1.67-4.56,3.23-6.78,4.92a37.88,37.88,0,0,0-9.95,10.55,23,23,0,0,0-1.4,2.76.69.69,0,0,0-.29.74,16.62,16.62,0,0,0-.8,2.75,3.11,3.11,0,0,0-.29,2.89,10.29,10.29,0,0,0,.58,3.34c1.56,4.41,6,7.66,10.14,9.53a26.37,26.37,0,0,0,10.68,2.57,17.29,17.29,0,0,0,3.66-.38c4.91-1.1,8.3-4.93,10.25-9.5-.91,4.64-2.51,7.61-5.12,9.46h0c-2.27,1.6-5.31,2.35-9.32,2.63-.46,0-.92,0-1.39,0" fill="#221712"/><path id="path6914" d="M40.22,106.91c-2-6.29,3.77-11.76,7.79-15.7,1.48-1.45,3-2.92,4.34-4.48.46-.52,2-1.48,2.71-1.3,1.63.39-4.58,13.75-6.15,16.6-1.32,2.4-3.36,5.81-6.37,6.28a1.89,1.89,0,0,1-2.32-1.4" fill="#f3941c"/><path id="path6916" d="M40,112.34a10.32,10.32,0,0,1-2.25,4.07,2.91,2.91,0,0,1-2.84.45A3,3,0,0,1,33,114.21c.08-1.16,1.15-2.2,2-2.95a4.81,4.81,0,0,1,3.45-1.51c1.62.14,1.88,1.27,1.56,2.59" fill="#f3941c"/><path id="path6918" d="M27.7,112.63l.13-.1c1.48-.83,2.43,3.21,1.88,4.13a1,1,0,0,1-1.8.18c-.76-1-1.27-3.26-.21-4.21" fill="#f3941c"/><path id="path6920" d="M29.06,122.66c.74-.46,1.35.83.86,1.34-.67.73-1.71-.74-.9-1.31l0,0" fill="#f3941c"/><path id="path6922" d="M30.58,110a7.27,7.27,0,0,1-.09-1.13c-.17-4,2.89-6.48,5.93-8.4.68-.43,2.53-2.16,2.85-.54.29,1.44-.62,3.61-1.1,5a8.67,8.67,0,0,1-2.74,4A9.71,9.71,0,0,1,32,111c-.94.2-1.25-.36-1.37-1" fill="#f3941c"/><path id="path6924" d="M52.24,122.79a9.37,9.37,0,0,1,.19-3.62c.29-1.72.82-3.4,1.21-5.1.31-1.4.58-2.81.86-4.21s.55-2.72.86-4.08c.94-4.21,1.93-8.41,2.88-12.62.42-1.9.86-3.8,1.32-5.68.19-.75.32-1.68.54-2.58l.13-.22c.38-.54,1-.67,1.31,0,1.51,6.46.48,28.47-.18,32.7-.4,2.61-1,6.66-4.12,7.4-1.36.31-3.27.43-4.31-.67a2.77,2.77,0,0,1-.69-1.28" fill="#f3941c"/><path id="path6926" d="M56.13,88c.23-.5,1-3.25,1.86-3.12,2.19.35-7.49,35.88-8.64,37.3-1,1.21-2.92,1.64-3.91.12C43.7,119.61,54.88,90.74,56.13,88" fill="#f3941c"/><path id="path6928" d="M35.61,124.38l0,0a.65.65,0,0,1,.4,1c-.75.66-1.36-.83-.45-1" fill="#f3941c"/><path id="path6930" d="M54.16,127.16a1.15,1.15,0,0,1,.44.32c1.47,1.67-2.22,2.56-2.06,1,.06-.59.93-1.52,1.62-1.27" fill="#f3941c"/><path id="path6932" d="M40.83,127.53a.75.75,0,0,1,.32,1.41c-1.18.71-1.7-1.41-.32-1.41" fill="#f3941c"/><path id="path6934" d="M48.71,128.31c1.69,1.55-.76,3.88-2.3,2.33a1.76,1.76,0,0,1,1.18-2.83,1.83,1.83,0,0,1,1.12.5" fill="#f3941c"/><path id="path6936" d="M45.17,125c1.69,1.54-.75,3.87-2.3,2.32a1.63,1.63,0,1,1,2.3-2.32" fill="#fff"/><path id="path6938" d="M59,126.5c1.32,1.2-.59,3-1.79,1.81a1.37,1.37,0,0,1,.92-2.21,1.34,1.34,0,0,1,.87.4" fill="#fff"/><path id="path6940" d="M33.29,118.9c1,.93-.46,2.33-1.38,1.39a1,1,0,0,1,.7-1.69,1.07,1.07,0,0,1,.68.3" fill="#fff"/><path id="path6942" d="M27.74,117.8c1,.93-.45,2.33-1.38,1.4a1.06,1.06,0,0,1,.71-1.7,1,1,0,0,1,.67.3" fill="#fff"/><path id="path6944" d="M29.37,109.35c.62.56-.28,1.42-.85.85a.65.65,0,0,1,.44-1,.6.6,0,0,1,.41.19" fill="#fff"/><path id="path6946" d="M40.36,120.87c.79.72-.36,1.81-1.08,1.09a.83.83,0,0,1,.56-1.33.74.74,0,0,1,.52.24" fill="#fff"/><path id="path6948" d="M39.85,118.92l-.15-.28c-.72-1.56,3.25-7.57,4.43-8.93.27-.3,2.5-3,2.66-.92v.07c0,.28,0,.55-.06.83-.25,2.12-2.53,8.64-3.4,9.51a2.24,2.24,0,0,1-3.48-.28" fill="#f3941c"/><path id="path6950" d="M60.05,73.5S37.3,46.12,13.38,41.81c0,0-14.28-2-13.33,6.3S13.88,74.4,16,81.19s1.52,22,8.78,21.66S64,79.41,60.05,73.5" fill="#4a2a1b"/><path id="path6952" d="M32.18,54.29c2.1-.55,3.84.87,5.45,2,2.12,1.43,11.62,9,12.59,10,2.1,2,4.7,4,6.36,6.39.4.57,1.15,1.46,1.06,2.19-.07.54-1.71,0-2-.08A32.71,32.71,0,0,1,52,73.44c-4.69-2-16.52-9.42-18.21-10.33-1.51-.82-3.26-1.76-4.11-3.32-1.05-1.91.42-4.94,2.55-5.5" fill="#ec5b21"/><path id="path6954" d="M32.63,70.59A36,36,0,0,1,28,70.25c-1.75-.26-4.2-.72-5-2.56a5.7,5.7,0,0,1,.05-3.58c.8-2.41,2.52-3.69,5-2.87a24.06,24.06,0,0,1,4.47,2.47C34.84,65,41,69.27,41,70.07c-.16,1.54-7,.55-8.32.52" fill="#ec5b21"/><path id="path6956" d="M23,81a12.66,12.66,0,0,1-1.07-4.62c-.07-1.2,0-2.76,1-3.67,1.48-1.41,9.68-.61,11.74-.5a87.3,87.3,0,0,1,9.68.79c1,.18,4.69.25,4.49,2-.14,1.22-6.66,3.26-8.43,3.85-3.1,1-15.66,5.63-17.38,2.19" fill="#ef7e1c"/><path id="path6958" d="M52.36,76c1.09-.14,3.31-.5,4.23.35,1.35,1.25-1.42,3-2.25,3.73C50.29,83.76,38.57,92.35,37,93.26c-1.24.72-2.75,1.79-4.25,1.81-2.29,0-3.42-3.47-4.1-5.14-.85-2.09-.61-4.19,1.53-5.34,1.69-.91,3.43-1.79,5.15-2.63a142.49,142.49,0,0,1,17-6" fill="#ef7e1c"/><path id="path6960" d="M19.65,47c.87-.79,2.67-.23,3.6.08,1.89.62,5.86,3,4.65,5.49-.39.79-1.4.83-2.26.7-2.18.31-4.87-1.64-5.95-3.18-.68-1-1-2.24,0-3.09" fill="#ec5b21"/><path id="path6962" d="M9.31,46.45a7.07,7.07,0,0,0,4.22,3.47,2.09,2.09,0,0,0,2.58-.42,1.86,1.86,0,0,0,.58-1.75A3.16,3.16,0,0,0,15.53,46a7,7,0,0,0-2.26-1.64c-.92-.4-2.67-1-3.61-.33a1.87,1.87,0,0,0-.35,2.47" fill="#ec5b21"/><path id="path6964" d="M7.51,52.12a3.63,3.63,0,0,1,3.94,2,1,1,0,0,1-.28,1.07c-.69,1.12-2.56.36-3.36-.23s-1.92-2.37-.3-2.85" fill="#ec5b21"/><path id="path6966" d="M12.79,60v-.16h0c0-.22.19-.34.46-.31-.14,0-.06,0,0,0h.25a1.13,1.13,0,0,1,.56.27h0l.11.13,0,0v0h0a.6.6,0,0,1,.13.46.44.44,0,0,1-.45.34l.09,0a1,1,0,0,1-.76-.13.9.9,0,0,1-.44-.63" fill="#ef7e1c"/><path id="path6968" d="M13.76,67.27c.43-.68,1.52-.43,2.12-.25a7.18,7.18,0,0,1,2.37,1.36c.57.47,1.32,1.34,1.11,2.14a1,1,0,0,1-.18.35,1.28,1.28,0,0,1-1.58.64,6.67,6.67,0,0,1-3.67-2.72,1.43,1.43,0,0,1-.17-1.52" fill="#ef7e1c"/><path id="path6970" d="M18.26,57.7c.2-.32.72-.2,1-.12a3.53,3.53,0,0,1,1.11.64c.27.22.61.63.52,1l-.09.16a.6.6,0,0,1-.74.3,3.14,3.14,0,0,1-1.72-1.27.7.7,0,0,1-.08-.71" fill="#ef7e1c"/><path id="path6972" d="M17.29,75.11a1.24,1.24,0,0,1,1.16.12,1.28,1.28,0,0,1,.67.88.56.56,0,0,1-.37.61.87.87,0,0,1-.93-.24l-.23-.18c-.27-.22-.8-.92-.3-1.19" fill="#ef7e1c"/><path id="path6974" d="M19,81.31A2.6,2.6,0,0,1,21.3,82.5a2,2,0,0,1,.44,1.43c.05.61-.31,1.21-1.08,1a3.16,3.16,0,0,1-2.13-1.82c-.32-.6-.35-1.67.5-1.84" fill="#ef7e1c"/><path id="path6976" d="M25.35,95.38a2.45,2.45,0,0,1,1.85.42c.4.26,1.05,1.14.43,1.55a.9.9,0,0,1-.67.45,2.19,2.19,0,0,1-2.15-1.21.8.8,0,0,1,.54-1.21" fill="#ef7e1c"/><path id="path6978" d="M21.83,94.65a1.75,1.75,0,0,1,1.34.31c.29.19.75.82.31,1.12a.66.66,0,0,1-.49.32,1.58,1.58,0,0,1-1.55-.87.58.58,0,0,1,.39-.88" fill="#fff"/><path id="path6980" d="M24.87,84.49a1.28,1.28,0,0,1,1,.23c.22.14.57.62.23.84a.47.47,0,0,1-.37.24,1.2,1.2,0,0,1-1.16-.66.42.42,0,0,1,.3-.65" fill="#fff"/><path id="path6982" d="M10.15,63.74a1.31,1.31,0,0,1,1,.22c.22.15.56.62.23.84A.46.46,0,0,1,11,65a1.19,1.19,0,0,1-1.17-.65.43.43,0,0,1,.3-.65" fill="#fff"/><path id="path6984" d="M19.27,63.62a.69.69,0,0,1,.5.11c.1.07.28.31.11.42l-.18.13a.61.61,0,0,1-.59-.33.22.22,0,0,1,.16-.33" fill="#fff"/><path id="path6986" d="M3.08,48.7A1.87,1.87,0,0,1,4.56,49c.32.2.84.91.34,1.23a.71.71,0,0,1-.54.35,1.73,1.73,0,0,1-1.71-1,.63.63,0,0,1,.43-1" fill="#fff"/><path id="path6988" d="M14.69,52.4a1.91,1.91,0,0,1,1.48.33c.32.22.83.91.34,1.24a.71.71,0,0,1-.54.35,1.77,1.77,0,0,1-1.72-1,.63.63,0,0,1,.44-1" fill="#fff"/><path id="path6990" d="M24,88c1.5-.24,3.75,2.77,1.9,3-1.24.15-3.83-2.67-1.9-3" fill="#ef7e1c"/><path id="path6992" d="M20.32,91.38c.8-.13,2,1.49,1,1.6-.67.08-2.06-1.43-1-1.6" fill="#ef7e1c"/><path id="path6994" d="M22.53,98c.09-.21.36-.24.56-.2s.71.33.66.73l0,.09v.11c0,.26-.33.27-.52.22-.4-.11-.85-.5-.68-1" fill="#ef7e1c"/><path id="path7006" d="M40.24,94.9h0m.06,0,0,0,0,0m0,0a122.4,122.4,0,0,0,9.77-7.43h0a122.4,122.4,0,0,1-9.77,7.43m11-8.52h0c.74-.64,1.44-1.28,2.11-1.91l0,0c-.68.64-1.39,1.29-2.12,1.93" fill="#1b1511"/><path id="path7008" d="M16,81.4v0m0-.06,0,0,0,0M16,81.19h0C13.88,74.4,1,56.44.05,48.11c-.65-5.6,5.6-6.51,9.77-6.51.87,0,1.65,0,2.26.08h0c-.6,0-1.38-.08-2.25-.08-4.16,0-10.41.91-9.77,6.51C1,56.44,13.88,74.4,16,81.19h0" fill="#a39285"/><path id="path7010" d="M24.5,102.86h0c-6.94,0-6.52-14.61-8.48-21.44v-.07h0l0,0,0-.11h0C13.88,74.4,1,56.44.05,48.11c-.64-5.6,5.61-6.51,9.77-6.51.87,0,1.65,0,2.25.08a14.49,14.49,0,0,0-4.21,1.1,7.37,7.37,0,0,0-4.47,5.88,1.15,1.15,0,0,0-.31,0,.63.63,0,0,0-.43,1,1.89,1.89,0,0,0,.66.72c0,.3,0,.61.09.92C4.09,56,7,60.35,9.79,64.15a.57.57,0,0,0,.06.24,1.36,1.36,0,0,0,.5.51c2.41,3.25,5.3,6.46,7,10.17l-.09,0c-.5.27,0,1,.3,1.19l.23.18a1.56,1.56,0,0,0,.2.16,15.67,15.67,0,0,1,.6,2.16c.16.82.28,1.67.38,2.52-.82.18-.78,1.23-.47,1.83a4.35,4.35,0,0,0,.74,1.06,34.17,34.17,0,0,0,1.14,7.16h-.09c-.87.14,0,1.22.65,1.52.15.35.31.69.49,1a5.07,5.07,0,0,0,.43.72h-.06a.58.58,0,0,0-.39.88,1.64,1.64,0,0,0,1.35.89l.2,0a.85.85,0,0,0,.34-.14,8.38,8.38,0,0,0,5.51,1.87A11.77,11.77,0,0,0,30.79,98c5.23-.9,9.38-4.61,13.65-7.48,1.56-1,3.15-2.09,4.74-3.15l.8.07h.13a122.4,122.4,0,0,1-9.77,7.43h0l0,0,0,0h0c-6.48,4.43-12.69,7.78-15.46,7.95H24.5m-1.56-5.09a.42.42,0,0,0-.41.22c-.17.45.28.84.68,1l.19,0c.16,0,.32-.06.33-.24v-.11l0-.09c.05-.4-.32-.65-.66-.73l-.15,0M51.37,86.32c0-.13-.06-.26-.1-.39l2.21-1.52c-.67.63-1.37,1.27-2.11,1.91" fill="#2e1b14"/><path id="path7012" d="M18,76.64a1.56,1.56,0,0,1-.2-.16l-.23-.18c-.27-.22-.8-.92-.3-1.19l.09,0A16.64,16.64,0,0,1,18,76.64" fill="#9a481d"/><path id="path7014" d="M19.27,84.21a4.35,4.35,0,0,1-.74-1.06c-.31-.6-.35-1.65.47-1.83.11,1,.19,1.92.27,2.89" fill="#9a481d"/><path id="path7016" d="M22.79,96.42a1.64,1.64,0,0,1-1.35-.89.58.58,0,0,1,.39-.88h.06a7.26,7.26,0,0,0,1.44,1.62.85.85,0,0,1-.34.14l-.2,0" fill="#a49385"/><path id="path7018" d="M10.35,64.9a1.36,1.36,0,0,1-.5-.51.57.57,0,0,1-.06-.24l.51.68a.18.18,0,0,0,0,.07" fill="#a49385"/><path id="path7020" d="M3.31,50.38a1.89,1.89,0,0,1-.66-.72.63.63,0,0,1,.43-1,1.15,1.15,0,0,1,.31,0,8.9,8.9,0,0,0-.08,1.72" fill="#a49385"/><path id="path7022" d="M21,92.9c-.69-.3-1.52-1.38-.65-1.52h.09A14,14,0,0,0,21,92.9" fill="#9a481d"/><path id="path7024" d="M23.4,99l-.19,0c-.4-.11-.85-.5-.68-1a.42.42,0,0,1,.41-.22l.15,0c.34.08.71.33.66.73l0,.09v.11c0,.18-.17.24-.33.24" fill="#9a481d"/><path id="path7026" d="M35.72,55a5.12,5.12,0,0,0-2.6-.83,3.85,3.85,0,0,0-.94.12,3.49,3.49,0,0,0-.82.35c-1.18-.71-2.35-1.39-3.49-2l0-.05c1.21-2.48-2.76-4.87-4.65-5.49a8,8,0,0,0-2.32-.48,1.91,1.91,0,0,0-1.28.4,1.78,1.78,0,0,0-.55,1.76c-.43-.11-.84-.21-1.23-.28l-1.16-.18a2.13,2.13,0,0,0,0-.56A3.16,3.16,0,0,0,15.53,46a7,7,0,0,0-2.26-1.64,6.85,6.85,0,0,0-2.49-.64A1.84,1.84,0,0,0,9.66,44a1.87,1.87,0,0,0-.35,2.47,6.07,6.07,0,0,0,1.35,1.79c-3.95.6-5.33,2.44-5.33,2.44-1.07-6,3.41-7.11,6.81-7.11a18.1,18.1,0,0,1,3.51.35c5.9.28,13.4,4.66,20.41,9.94-.13.38-.24.75-.34,1.14" fill="#7f6756"/><path id="path7028" d="M39.38,59.83l-.12-.08a4.37,4.37,0,0,0,.31-.39c-.06.16-.13.31-.19.47m-2-1.36L36.6,58a1.54,1.54,0,0,0,.23-.18c.41-.36.83-.72,1.25-1.06a15.63,15.63,0,0,0-.71,1.75M35.28,57.1c-1.31-.85-2.62-1.68-3.92-2.46a3.49,3.49,0,0,1,.82-.35,3.85,3.85,0,0,1,.94-.12,5.12,5.12,0,0,1,2.6.83c-.17.68-.32,1.38-.44,2.1" fill="#f28b58"/><path id="path7030" d="M27.87,52.63a42.29,42.29,0,0,0-8.77-3.86A1.78,1.78,0,0,1,19.65,47a1.91,1.91,0,0,1,1.28-.4,8,8,0,0,1,2.32.48c1.89.62,5.86,3,4.65,5.49l0,.05" fill="#f28b58"/><path id="path7032" d="M16.71,48.31a24.27,24.27,0,0,0-3.42-.26,17.16,17.16,0,0,0-2.63.19,6.07,6.07,0,0,1-1.35-1.79A1.87,1.87,0,0,1,9.66,44a1.84,1.84,0,0,1,1.12-.31,6.85,6.85,0,0,1,2.49.64A7,7,0,0,1,15.53,46a3.16,3.16,0,0,1,1.16,1.8,2.13,2.13,0,0,1,0,.56" fill="#f28b58"/><path id="path7034" d="M43.62,129.54s-.86-.31-2.18-.91a.86.86,0,0,0,.07-.21c1.26.73,2.11,1.12,2.11,1.12M40.07,128a35.68,35.68,0,0,1-4.16-2.45.72.72,0,0,0,.15-.11.65.65,0,0,0-.4-1l0,0a.55.55,0,0,0-.46.61,19.78,19.78,0,0,1-5.4-5.65,6.89,6.89,0,0,1-.82-2.07,1.27,1.27,0,0,0,.78-.61c.37-.62.06-2.67-.64-3.68a18.14,18.14,0,0,1,1.43-3.82,5.43,5.43,0,0,0,.08.82c.1.59.35,1.09,1,1.09a19,19,0,0,0-.16,5.53,9.78,9.78,0,0,0,.58,2.28,1,1,0,0,0-.09,1.41,1,1,0,0,0,.69.31.85.85,0,0,0,.23,0,23.31,23.31,0,0,0,7.47,7.11.63.63,0,0,0-.23.29" fill="#6b5b4b"/><path id="path7036" d="M28.93,117.27a9.74,9.74,0,0,1,.14-4.29c.7,1,1,3.06.64,3.68a1.27,1.27,0,0,1-.78.61" fill="#f5b351"/><path id="path7038" d="M31.58,111.07c-.65,0-.9-.5-1-1.09a5.43,5.43,0,0,1-.08-.82,31.71,31.71,0,0,1,4.36-6.43,22.15,22.15,0,0,0-3.28,8.34" fill="#f5b351"/><path id="path7040" d="M35.91,125.52l-.76-.53a.55.55,0,0,1,.46-.61l0,0a.65.65,0,0,1,.4,1,.72.72,0,0,1-.15.11" fill="#f5b351"/><path id="path7042" d="M41.44,128.63c-.42-.19-.88-.41-1.37-.66a.63.63,0,0,1,.23-.29l1.21.74a.86.86,0,0,1-.07.21" fill="#f5b351"/><path id="path7044" d="M32.6,120.6a1,1,0,0,1-.69-.31,1,1,0,0,1,.09-1.41,12,12,0,0,0,.83,1.69.85.85,0,0,1-.23,0" fill="#fff"/><path id="path7046" d="M73.29,65l-2.14,1.19s2.58,11.13,13,29.13,15.77,21.29,27,15.8,18-21.84,10-29.55S73.29,65,73.29,65" fill="#301e15"/><path id="path7048" d="M73.29,65l-2.14,1.19s2.58,11.13,13,29.13,15.77,21.29,27,15.8,18-21.84,10-29.55S73.29,65,73.29,65" fill="#301e15"/><path id="path7050" d="M102.71,113.57c-3.6,0-6.73-1.76-10.15-5.69a16.66,16.66,0,0,0,9.9,3.68,12.29,12.29,0,0,0,3.71-.56c4.68-1.47,8.55-5.15,11.34-9,2.63-3.67,4.88-8.72,4-13.32a10.64,10.64,0,0,0-1.17-3.19,3.15,3.15,0,0,0-1.69-2.36,18.47,18.47,0,0,0-2.07-2,.72.72,0,0,0-.62-.5,23.88,23.88,0,0,0-2.59-1.69,37.94,37.94,0,0,0-13.89-4.18c-2.77-.35-5.55-.55-8.32-.88-2.46-.29-4.89-.71-7.34-1l-.29,0-1.15-.15c-1.11-.13-2.28-.35-3.45-.44,0-.37,0-.73,0-1.1h0c0-.15,0-.3,0-.45a107.33,107.33,0,0,0,22.63,3.5h.06c1.6.09,3.15.14,4.6.14,6.63,2.35,12.33,4.91,14.84,7.34a11.89,11.89,0,0,1,3.46,8.84c0,7.77-5.65,16.88-13.48,20.71h0a19.6,19.6,0,0,1-8.41,2.41" fill="#221712"/><path id="path7052" d="M104.84,84.34c-1.38-6.46-9.12-8.31-14.58-9.72-2-.52-4-1.05-6-1.72-.66-.22-2.45-.29-3,.23-1.21,1.15,10.83,9.63,13.62,11.31,2.34,1.43,5.81,3.37,8.65,2.27a1.89,1.89,0,0,0,1.31-2.37" fill="#f3941c"/><path id="path7054" d="M107.77,88.91a10.44,10.44,0,0,0,4,2.41,2.92,2.92,0,0,0,2.69-1,3,3,0,0,0,.3-3.23c-.64-1-2.08-1.33-3.16-1.58a4.8,4.8,0,0,0-3.75.42c-1.33.92-1,2-.07,3" fill="#f3941c"/><path id="path7056" d="M118.55,83.05l-.17,0c-1.7,0-.5,4,.44,4.51a1,1,0,0,0,1.65-.74c.17-1.21-.54-3.46-1.92-3.75" fill="#f3941c"/><path id="path7058" d="M122.38,92.43c-.87,0-.77,1.39-.09,1.59,1,.29,1.13-1.51.13-1.59h0" fill="#f3941c"/><path id="path7060" d="M114.73,82.18a8.51,8.51,0,0,0-.48-1c-1.83-3.52-5.74-4.18-9.34-4.32-.8,0-3.26-.61-2.74,1,.48,1.38,2.34,2.81,3.44,3.76A8.69,8.69,0,0,0,110,83.64a9.63,9.63,0,0,0,4.1.14c.91-.29.91-.93.66-1.6" fill="#f3941c"/><path id="path7062" d="M102.35,104.1a9.25,9.25,0,0,0-2-3c-1.11-1.34-2.41-2.53-3.59-3.81-1-1-1.9-2.14-2.85-3.22s-1.84-2.08-2.78-3.11c-2.92-3.17-5.88-6.32-8.79-9.5-1.31-1.43-2.64-2.86-4-4.26-.52-.56-1.11-1.29-1.74-2l-.23-.12c-.6-.28-1.18-.09-1.15.62,1.92,6.34,13.79,24.91,16.46,28.25,1.66,2,4.22,5.26,7.27,4.35,1.34-.4,3.05-1.26,3.4-2.73a2.74,2.74,0,0,0,0-1.45" fill="#f3941c"/><path id="path7064" d="M81.62,75.88c-.44-.32-2.53-2.3-3.17-1.78-1.72,1.4,24.39,27.37,26.1,28,1.45.56,3.34,0,3.44-1.84.17-3.2-23.92-22.65-26.37-24.4" fill="#f3941c"/><path id="path7066" d="M117.56,97.18h-.06a.67.67,0,0,0-.23.41.62.62,0,0,0,.42.71.49.49,0,0,0,.63-.57.58.58,0,0,0-.76-.55" fill="#f3941c"/><path id="path7068" d="M102.87,108.84a1.28,1.28,0,0,0-.22.5c-.44,2.19,3.2,1.1,2.26-.2-.35-.48-1.57-.86-2-.3" fill="#f3941c"/><path id="path7070" d="M114.6,102.51c-.7.4-.27,1.37.43,1.39a.69.69,0,0,0,.79-.77.78.78,0,0,0-1.22-.62" fill="#f3941c"/><path id="path7072" d="M108.17,107.13c-.7,2.17,2.58,3,3.15.86a1.75,1.75,0,0,0-2.43-1.86,1.73,1.73,0,0,0-.72,1" fill="#f3941c"/><path id="path7074" d="M109.56,102.46c-.69,2.18,2.59,3,3.15.87a1.63,1.63,0,1,0-3.15-.87" fill="#fff"/><path id="path7076" d="M98.35,110.68a1.28,1.28,0,1,0,2.46.68,1.38,1.38,0,0,0-1.9-1.46,1.35,1.35,0,0,0-.56.78" fill="#fff"/><path id="path7078" d="M116.84,91.27a1,1,0,1,0,1.89.52,1.06,1.06,0,0,0-1.46-1.12,1,1,0,0,0-.43.6" fill="#fff"/><path id="path7080" d="M121.1,87.55a1,1,0,1,0,1.89.52A1.06,1.06,0,0,0,121.53,87a1.08,1.08,0,0,0-.43.6" fill="#fff"/><path id="path7082" d="M115.46,81a.61.61,0,1,0,1.17.32.65.65,0,0,0-.9-.69.66.66,0,0,0-.27.37" fill="#fff"/><path id="path7084" d="M111.68,96.5a.77.77,0,1,0,1.48.41A.83.83,0,0,0,112,96a.89.89,0,0,0-.34.47" fill="#fff"/><path id="path7086" d="M111.16,94.56v-.31c-.17-1.72-6.6-5-8.3-5.53-.39-.14-3.66-1.35-2.77.52l0,.06c.15.24.3.47.46.69,1.28,1.72,6.51,6.23,7.7,6.55a2.24,2.24,0,0,0,2.87-2" fill="#f3941c"/><path id="path7088" d="M71,65.28S77.05,30.2,95.62,14.54c0,0,11.38-8.89,14.71-1.2s1.12,29.68,2.72,36.59,9.64,19.82,3.2,23.16S70.52,72.37,71,65.28" fill="#4a2a1b"/><path id="path7090" d="M85.56,34.73c-2.09.57-2.88,2.67-3.75,4.42-1.11,2.29-5.56,13.62-5.93,14.93-.81,2.79-2.07,5.8-2.32,8.71-.06.68-.27,1.83.17,2.42s1.48-.86,1.67-1a34.51,34.51,0,0,0,2.58-3c3.09-4,9.62-16.41,10.63-18,.9-1.46,1.94-3.15,1.91-4.93,0-2.17-2.84-4.08-5-3.49" fill="#ec5b21"/><path id="path7092" d="M93.3,49.08a36.27,36.27,0,0,0,3.86-2.61c1.38-1.1,3.27-2.72,3-4.7a5.64,5.64,0,0,0-1.83-3.08c-1.89-1.69-4-1.95-5.79,0a24.82,24.82,0,0,0-2.64,4.36c-1.32,2.27-4.55,9-4.08,9.69.9,1.26,6.32-3,7.46-3.69" fill="#ec5b21"/><path id="path7094" d="M106.84,53.32a12.83,12.83,0,0,0-1.37-4.54c-.54-1.08-1.39-2.39-2.67-2.7-2-.48-8.7,4.3-10.43,5.42a85.92,85.92,0,0,0-8,5.52c-.79.66-3.95,2.56-2.92,3.94.74,1,7.39-.5,9.23-.87,3.2-.65,16.38-2.93,16.15-6.77" fill="#ef7e1c"/><path id="path7096" d="M78.89,63.57c-1,.42-3.12,1.22-3.5,2.42-.55,1.76,2.72,1.86,3.81,2.11a217.13,217.13,0,0,0,21.6,2.81c1.43,0,3.28.18,4.59-.55,2-1.12,1.23-4.7,1-6.49-.3-2.24-1.55-3.94-4-3.87-1.92.06-3.86.16-5.77.3a141.15,141.15,0,0,0-17.72,3.27" fill="#ef7e1c"/><path id="path7098" d="M92.78,22.16c-1.14-.24-2.42,1.14-3.08,1.87-1.32,1.49-3.57,5.53-1.28,7.08.73.49,1.62,0,2.3-.53,2-.81,3.41-3.85,3.58-5.72.1-1.18-.26-2.43-1.52-2.7" fill="#ec5b21"/><path id="path7100" d="M99.93,14.56c-1.17-.14-2.36,1.28-3,2.08a7,7,0,0,0-1.14,2.55,3.18,3.18,0,0,0-.11,2.14,1.87,1.87,0,0,0,1.38,1.23,2.08,2.08,0,0,0,2.44-.93,7.08,7.08,0,0,0,1.93-5.1c-.09-1-.48-1.85-1.54-2" fill="#ec5b21"/><path id="path7102" d="M105.86,20.54a3.6,3.6,0,0,0-2.41,3.7,1,1,0,0,0,.77.8c1.16.62,2.4-1,2.79-1.89s.49-3-1.15-2.61" fill="#ec5b21"/><path id="path7104" d="M105.2,30l-.08-.14h0a.35.35,0,0,0-.55-.05v0l-.21.13a1,1,0,0,0-.35.52h0l0,.16v.07h0a.58.58,0,0,0,.12.46.47.47,0,0,0,.56.08l-.09,0a1,1,0,0,0,.59-.49.85.85,0,0,0,.07-.76" fill="#ef7e1c"/><path id="path7106" d="M108,36.78c-.71-.37-1.53.39-2,.85A7,7,0,0,0,104.66,40c-.26.69-.47,1.82.11,2.4l.33.21a1.27,1.27,0,0,0,1.69-.24,6.57,6.57,0,0,0,1.82-4.17,1.46,1.46,0,0,0-.61-1.41" fill="#ef7e1c"/><path id="path7108" d="M99.32,30.73c-.33-.17-.72.19-.92.41a3.18,3.18,0,0,0-.64,1.1c-.12.32-.22.85,0,1.12l.16.1a.59.59,0,0,0,.79-.11,3.14,3.14,0,0,0,.86-2,.7.7,0,0,0-.29-.66" fill="#ef7e1c"/><path id="path7110" d="M108.85,45.34a1.21,1.21,0,0,0-.94.68,1.3,1.3,0,0,0-.15,1.1.56.56,0,0,0,.63.35.89.89,0,0,0,.69-.68l.11-.26c.12-.33.23-1.21-.34-1.19" fill="#ef7e1c"/><path id="path7112" d="M110.44,51.58a2.64,2.64,0,0,0-1.38,2.17,2,2,0,0,0,.34,1.45.87.87,0,0,0,1.45.37,3.15,3.15,0,0,0,.94-2.64c0-.68-.53-1.63-1.35-1.35" fill="#ef7e1c"/><path id="path7114" d="M112,66.93a2.44,2.44,0,0,0-1.4,1.29c-.21.43-.33,1.51.41,1.56a.9.9,0,0,0,.8,0,2.17,2.17,0,0,0,1.26-2.11.79.79,0,0,0-1.07-.78" fill="#ef7e1c"/><path id="path7116" d="M114.67,64.54a1.78,1.78,0,0,0-1,.93c-.16.31-.24,1.1.29,1.13a.65.65,0,0,0,.58,0,1.59,1.59,0,0,0,.92-1.53.58.58,0,0,0-.78-.56" fill="#fff"/><path id="path7118" d="M107,57.25a1.29,1.29,0,0,0-.75.7c-.12.23-.18.82.21.84a.5.5,0,0,0,.45,0,1.21,1.21,0,0,0,.68-1.15.43.43,0,0,0-.59-.42" fill="#fff"/><path id="path7120" d="M109.36,31.92a1.29,1.29,0,0,0-.75.7c-.12.23-.19.82.22.85a.46.46,0,0,0,.43,0,1.19,1.19,0,0,0,.69-1.15.44.44,0,0,0-.59-.42" fill="#fff"/><path id="path7122" d="M101.41,36.37a.62.62,0,0,0-.38.35c-.06.11-.09.4.11.42h.22a.6.6,0,0,0,.34-.57.21.21,0,0,0-.29-.21" fill="#fff"/><path id="path7124" d="M108,15.36a2,2,0,0,0-1.12,1c-.17.34-.26,1.21.33,1.24a.69.69,0,0,0,.64,0,1.76,1.76,0,0,0,1-1.69.64.64,0,0,0-.86-.62" fill="#fff"/><path id="path7126" d="M99.77,24.36a1.94,1.94,0,0,0-1.11,1c-.17.34-.27,1.21.32,1.24a.75.75,0,0,0,.64,0,1.73,1.73,0,0,0,1-1.69.63.63,0,0,0-.86-.62" fill="#fff"/><path id="path7128" d="M109.45,59.89c-1.41.54-1.86,4.27-.16,3.54,1.15-.5,2-4.24.16-3.54" fill="#ef7e1c"/><path id="path7130" d="M114.34,61c-.76.29-1,2.29-.08,1.9.61-.27,1.07-2.27.08-1.9" fill="#ef7e1c"/><path id="path7132" d="M115.72,67.79a.47.47,0,0,0-.58.1.74.74,0,0,0-.21,1l.07.06,0,.1c.15.22.42.07.56-.07.29-.29.49-.86.11-1.15" fill="#ef7e1c"/><path id="path7144" d="M106.3,74.27c-1.45,0-3,0-4.6-.14,1.6.09,3.15.14,4.6.14h0m-4.63-.14h0" fill="#1b1511"/><path id="path7146" d="M106.77,74.28h-.47c-1.45,0-3,0-4.6-.14h-.06A117.66,117.66,0,0,1,82.1,71.45c3.64.33,7.31.51,10.9.76,3,.21,6.07.68,9.11.68a18.59,18.59,0,0,0,6.44-1,9,9,0,0,0,5.62-5.2h.08a.92.92,0,0,0,.28-.05,1.59,1.59,0,0,0,.92-1.53.57.57,0,0,0-.57-.59.76.76,0,0,0-.21,0l-.06,0a7.73,7.73,0,0,0,0-.84c0-.38,0-.75-.09-1.12.4-.55.59-1.7,0-1.7a.74.74,0,0,0-.22.05l-.08,0a33.46,33.46,0,0,0-2.59-6.78,4.13,4.13,0,0,0,.12-1.28c0-.6-.41-1.4-1.06-1.4a.82.82,0,0,0-.26,0c-.34-.78-.66-1.57-.93-2.37A16.87,16.87,0,0,1,109,47a1.22,1.22,0,0,0,.1-.24l.11-.26c.12-.33.23-1.19-.32-1.19h-.11c-.36-4.07.55-8.3,1-12.32a1.31,1.31,0,0,0,.17-.69.61.61,0,0,0-.07-.24c.52-4.68.88-9.9-.87-14.32-.12-.29-.24-.57-.38-.84a2.07,2.07,0,0,0,.22-1,.63.63,0,0,0-.63-.65.91.91,0,0,0-.23,0,1.48,1.48,0,0,0-.29.12,7.37,7.37,0,0,0-5.88-2.92c-.31,0-.62,0-.93,0a14.74,14.74,0,0,0-4.19,1.15c1.83-1.24,5.67-3.55,8.94-3.55a4.77,4.77,0,0,1,4.69,3.13h0c3.33,7.7,1.12,29.68,2.72,36.59,1.15,5,5.66,13.1,5.66,18.48,0,2.08-.66,3.75-2.46,4.68-1.57.81-5.08,1.19-9.48,1.19m8.76-6.56a.63.63,0,0,0-.39.17.74.74,0,0,0-.21,1l.07.06,0,.1a.22.22,0,0,0,.2.11.57.57,0,0,0,.36-.18c.29-.29.49-.86.11-1.15a.28.28,0,0,0-.19-.07" fill="#2e1b14"/><path id="path7148" d="M109,47c-.1-.56-.17-1.12-.22-1.68h.11c.55,0,.44.86.32,1.19l-.11.26a1.22,1.22,0,0,1-.1.24" fill="#9a481d"/><path id="path7150" d="M111.67,54.21c-.41-.88-.82-1.75-1.2-2.64a.82.82,0,0,1,.26,0c.65,0,1,.8,1.06,1.4a4.13,4.13,0,0,1-.12,1.28" fill="#9a481d"/><path id="path7152" d="M114.25,66.68h-.08a7.68,7.68,0,0,0,.44-2.12l.06,0a.76.76,0,0,1,.21,0,.57.57,0,0,1,.57.59,1.59,1.59,0,0,1-.92,1.53.92.92,0,0,1-.28.05" fill="#a49385"/><path id="path7154" d="M109.78,33a.28.28,0,0,1,0-.09l.09-.84a.61.61,0,0,1,.07.24,1.31,1.31,0,0,1-.17.69" fill="#a49385"/><path id="path7156" d="M108.63,16.94a9.06,9.06,0,0,0-.93-1.46,1.48,1.48,0,0,1,.29-.12.91.91,0,0,1,.23,0,.63.63,0,0,1,.63.65,2.07,2.07,0,0,1-.22,1" fill="#a49385"/><path id="path7158" d="M114.54,62.6a14.25,14.25,0,0,0-.28-1.61l.08,0a.74.74,0,0,1,.22-.05c.57,0,.38,1.15,0,1.7" fill="#9a481d"/><path id="path7160" d="M115.25,69.12a.22.22,0,0,1-.2-.11l0-.1-.07-.06a.74.74,0,0,1,.21-1,.63.63,0,0,1,.39-.17.28.28,0,0,1,.19.07c.38.29.18.86-.11,1.15a.57.57,0,0,1-.36.18" fill="#9a481d"/><path id="path7162" d="M80.89,41.25a6.6,6.6,0,0,0-.59-.8c3.66-9.54,8.59-19.22,14.42-23,0,0,3.8-3.49,7.36-3.49,1.94,0,3.8,1,4.94,4.2a5.11,5.11,0,0,0-1.86-.28,10.93,10.93,0,0,0-4,.83,6,6,0,0,0,.28-2.22c-.09-1-.48-1.85-1.54-2h-.16c-1.11,0-2.23,1.32-2.8,2.09a7,7,0,0,0-1.14,2.55,3.18,3.18,0,0,0-.11,2.14,2.27,2.27,0,0,0,.26.49c-.29.24-.6.48-.9.74a12.14,12.14,0,0,0-.93.86,1.8,1.8,0,0,0-1.37-1.26,1.27,1.27,0,0,0-.28,0c-1.06,0-2.19,1.23-2.8,1.9-1.32,1.49-3.57,5.53-1.28,7.08l0,0c-.67,1.11-1.35,2.28-2,3.48h-.08a2.82,2.82,0,0,0-.81.11c-2.09.57-2.88,2.67-3.75,4.42-.2.43-.53,1.17-.92,2.1" fill="#7f6756"/><path id="path7164" d="M82,43.22c-.21-.48-.57-.95-.76-1.32a6.91,6.91,0,0,0-.38-.65c.39-.93.72-1.67.92-2.1.87-1.75,1.66-3.85,3.75-4.42a2.82,2.82,0,0,1,.81-.11h.08c-1.52,2.74-3,5.68-4.42,8.6" fill="#f28b58"/><path id="path7166" d="M88.46,31.14l0,0c-2.29-1.55,0-5.59,1.28-7.08.61-.67,1.74-1.9,2.8-1.9a1.27,1.27,0,0,1,.28,0,1.8,1.8,0,0,1,1.37,1.26,41.77,41.77,0,0,0-5.69,7.72" fill="#f28b58"/><path id="path7168" d="M96,21.82a2.27,2.27,0,0,1-.26-.49,3.18,3.18,0,0,1,.11-2.14A7,7,0,0,1,97,16.64c.57-.77,1.69-2.09,2.8-2.09h.16c1.06.12,1.45,1,1.54,2a6,6,0,0,1-.28,2.22A20.92,20.92,0,0,0,96,21.82" fill="#f28b58"/><path id="path7170" d="M113.19,105.65s.54-.77,1.27-2a.61.61,0,0,0,.17.15c-.84,1.18-1.44,1.88-1.44,1.88m2.29-3.14a.64.64,0,0,0-.34-.13,23.19,23.19,0,0,0,2.92-9.88,1,1,0,0,0,.67-.71,1,1,0,0,0-.79-1.18,9.53,9.53,0,0,0-.64-2.26,19,19,0,0,0-2.89-4.72c.57-.32.53-.87.32-1.45a8.11,8.11,0,0,0-.34-.74,18.23,18.23,0,0,1,3.15,2.6c-.11,1.22.65,3.15,1.28,3.5a1.31,1.31,0,0,0,.67.19.84.84,0,0,0,.31,0,7.28,7.28,0,0,1,.33,2.2,19.83,19.83,0,0,1-1.88,7.6.53.53,0,0,0-.49-.34.51.51,0,0,0-.2,0h-.06a.67.67,0,0,0-.23.41.62.62,0,0,0,.42.71l.16,0h0a37.19,37.19,0,0,1-2.39,4.19" fill="#6b5b4b"/><path id="path7172" d="M119.49,87.73a1.31,1.31,0,0,1-.67-.19c-.63-.35-1.39-2.28-1.28-3.5a9.67,9.67,0,0,1,2.26,3.64.84.84,0,0,1-.31,0" fill="#f5b351"/><path id="path7174" d="M114.41,83.63a22.25,22.25,0,0,0-7-5.59,31.88,31.88,0,0,1,7,3.4,8.11,8.11,0,0,1,.34.74c.21.58.25,1.13-.32,1.45" fill="#f5b351"/><path id="path7176" d="M117.85,98.32l-.16,0a.62.62,0,0,1-.42-.71.67.67,0,0,1,.23-.41h.06a.51.51,0,0,1,.2,0,.53.53,0,0,1,.49.34c-.12.28-.25.56-.38.84h0" fill="#f5b351"/><path id="path7178" d="M114.63,103.77a.61.61,0,0,1-.17-.15c.21-.37.44-.79.68-1.24a.64.64,0,0,1,.34.13c-.3.47-.59.89-.85,1.26" fill="#f5b351"/><path id="path7180" d="M118.06,92.5a11.85,11.85,0,0,0-.12-1.89,1,1,0,0,1,.79,1.18,1,1,0,0,1-.67.71" fill="#fff"/><path id="path7182" d="M81.24,90.13A27.31,27.31,0,0,0,77.33,86l0,0a61.28,61.28,0,0,1,4.59,5.21c1.08,1.22,2.6,2.6,4.36,2.15v-.09c-2.25,0-3.65-1.63-5-3.18" fill="#a63a21"/><path id="path7184" d="M61.31,90.88c-.06,3.55.17,7.07.44,10.61l.06,0a83.4,83.4,0,0,0-.48-10.6h0" fill="#a63a21"/><path id="path7186" d="M83.93,52.61l-.18.13a2.17,2.17,0,0,0-.52.7,4.51,4.51,0,0,0-.36,1.32,12,12,0,0,0-.06,1.73c0,1.24.24,2.65.41,4.11.09.73.16,1.47.2,2.2,0,.37,0,.73,0,1.08a7,7,0,0,1-.09,1l-.06.29,0,.08h0l0,.09-.13.31a2.44,2.44,0,0,1-.51.57,4.5,4.5,0,0,1-.78.48,8.4,8.4,0,0,1-.92.37,15.54,15.54,0,0,1-2,.48c-.65.13-1.28.21-1.86.29a16.78,16.78,0,0,0-1.74.15c-.17,0-.49.08-.57.27s0,.49.16.52a19.92,19.92,0,0,0,2.16.37,18,18,0,0,0,2,.09A11.89,11.89,0,0,0,81.39,69l.61-.15c.21-.07.42-.13.63-.22A5.51,5.51,0,0,0,83.9,68,4.37,4.37,0,0,0,85,66.82a3.93,3.93,0,0,0,.36-.78l.07-.2v0l0-.08v-.07l.07-.3a7.93,7.93,0,0,0,.13-1.4,11,11,0,0,0-.06-1.3,18.87,18.87,0,0,0-.41-2.39c-.35-1.5-.77-2.83-1.09-4a9,9,0,0,1-.45-2.73,2.25,2.25,0,0,1,.19-.74c.09-.16.15-.25.15-.25l-.07,0" fill="#85311b"/><path id="path7188" d="M78.89,69.24h0c0-.09,0-.18-.05-.27s-.18-.36-.28-.53c.49,0,1-.09,1.45-.16a6.79,6.79,0,0,0,3.82-1.57,2.46,2.46,0,0,0,.68-1.28c.37-1.65-.09-3.31-.33-4.94-.13-.91-.21-1.84-.38-2.74a3.89,3.89,0,0,0-.66-2l-.09,0c0-.56.09-1.24.09-1.93V53.7a2,2,0,0,1,.11-.26,2.17,2.17,0,0,1,.52-.7l.18-.13.07,0s-.06.09-.15.25a2.25,2.25,0,0,0-.19.74c0,.08,0,.16,0,.25a10,10,0,0,0,.46,2.48c.32,1.13.74,2.46,1.09,4a18.87,18.87,0,0,1,.41,2.39,9.82,9.82,0,0,1,.06,1.09v.21a7.93,7.93,0,0,1-.13,1.4l-.07.3v.07l0,.08v0l-.07.2a3.93,3.93,0,0,1-.36.78A4.37,4.37,0,0,1,83.9,68a5.51,5.51,0,0,1-1.27.66l-.17.07-.46.15-.61.15a11.89,11.89,0,0,1-2.31.23h-.19" fill="#401515"/><path id="path7190" d="M83.82,63.24c0,.41,0,.83,0,1.24,0,.21,0,.43,0,.65a2.55,2.55,0,0,1-.4.85l.08.13A1.76,1.76,0,0,0,84,64.9a11.49,11.49,0,0,0-.13-1.66h-.07" fill="#b73e24"/><path id="path7192" d="M47,75.75a1.91,1.91,0,0,1,.33-.41,6.62,6.62,0,0,1,1-.84c.38-.27.79-.53,1.21-.77s.85-.48,1.28-.72.88-.47,1.33-.69l1.35-.69.77-.38a.63.63,0,0,0,.12-.5l-.17-.25-1,.2c-.5.11-1,.24-1.5.38s-1,.29-1.49.46a16.58,16.58,0,0,0-2.91,1.29,8.25,8.25,0,0,0-1.4,1,4.77,4.77,0,0,0-.65.74,2.62,2.62,0,0,0-.47,1.12,2.3,2.3,0,0,0,.2,1.37l.15.27.12.19.22.32.21.31.19.3c.12.2.25.39.37.61l.37.63.36.64c.23.44.47.87.69,1.31L48.35,83,49,84.32l.65,1.36.32.7-1,.22c-.33.06-.64.14-1,.21l-.47.13-.48.13.49.07.49.07,1,.1c.65.07,1.3.11,1.94.15h.17a.56.56,0,0,0,.41-.69l0-.12c-.13-.5-.27-1-.42-1.49s-.29-1-.46-1.47-.34-1-.52-1.45-.37-1-.58-1.44-.43-.94-.65-1.41-.47-.94-.73-1.4c-.12-.22-.27-.46-.41-.69l-.21-.35-.22-.32-.21-.31L47,76.18l0-.05,0-.11a.67.67,0,0,1,.12-.27" fill="#85311b"/><path id="path7194" d="M46.9,78.8A17.28,17.28,0,0,1,46,76.7a2.42,2.42,0,0,1,.24-2.53l0,0c-.5.49-1.09,1-1,1.81a8.09,8.09,0,0,0,1.55,3l.16-.12" fill="#b73e24"/><path id="path7196" d="M63.8,76.66a13.1,13.1,0,0,0-.33,3.8,56.1,56.1,0,0,0,.39,7.77c1.08,9.8,3.76,19.83,8.73,28.41a19,19,0,0,0,4.94,5.81A14,14,0,0,0,85.78,125a9.35,9.35,0,0,0,8-5.35c2.46-5.88-1.41-12.18-5-16.61-4.16-5.12-9.46-9.2-13.49-14.43a23.22,23.22,0,0,1-4.48-9.08c-1.85-8.42-5.58-6.79-7-2.91" fill="#9c5434"/><path id="path7198" d="M75.08,120.15a16,16,0,0,0,9.64-2.85,19.66,19.66,0,0,0,5.89-6.88A26.83,26.83,0,0,0,92,107.55a32.76,32.76,0,0,0-2.15-3.18c-.18.32-.35.63-.52.92a20,20,0,0,1-6.25,7,15.49,15.49,0,0,1-11.59,2.26c.36.7.74,1.4,1.14,2.08a22.17,22.17,0,0,0,2.49,3.51" fill="#301e15"/><path id="path7200" d="M80.21,123.94a13.34,13.34,0,0,0,5.57,1.1,9.35,9.35,0,0,0,8-5.35,10.5,10.5,0,0,0,.5-6.39c-2.25,5.56-8.29,10.26-14.1,10.64" fill="#301e15"/><path id="path7202" d="M75.6,80.18c2.47-2.89,4-7.39,3.22-11.21-1.07-2.31-3.27-3.71-5.9-4.87-3.55-1.56-7.5-3-11.44-2-3.45.88-5.15,4.21-6.71,7l-2-1.15c-2.62,4.38-2,10.78,2.88,14a19.81,19.81,0,0,0,10.4,3.25,15.73,15.73,0,0,0,9.53-5" fill="#14273d"/><path id="path7204" d="M82.12,50c.34.14,1.49-.13,1.45-.37a12.06,12.06,0,0,0-2-5.1l.57-.28c.32-.75-.53-1.71-.86-2.35a8.69,8.69,0,0,0-2.93-3.21l-.4-.24,1-.26c.48-.12,1.54-.67,1.41-.78a14,14,0,0,0-3.73-1.93,26.82,26.82,0,0,0-5.5-1.65A45.14,45.14,0,0,0,59,33.44a34.3,34.3,0,0,0-11.61,2.67A26.68,26.68,0,0,0,43,38.66c-.53.32-1,.66-1.54,1-1.08.78-2.68,1.82-3.28,3.06-.05.09,3.28-.94,4.86-1.52a29.67,29.67,0,0,0-3.56,3.05c-1.06,1-2.65,2.46-2.8,4A19.4,19.4,0,0,0,39.88,47c.82-.36,1.68-.66,2.51-1-.73.58-1.53,1.1-2.2,1.7a16.55,16.55,0,0,0-2.69,3.16c-1.59,2.41-2,5-2.47,7.73a4.68,4.68,0,0,0,1.8-.82c.41-.36.83-.72,1.25-1.06a11,11,0,0,0-1.21,5.41c0,.35,2-1.83,2.7-2.77a11.84,11.84,0,0,0-.47,8.41c0,.17,1-.94,1.16-1.55.17-.76.38-1.5.62-2.24a12.49,12.49,0,0,0,0,3.4c.19,1.24.67,3.78,1.95,4.33a13.36,13.36,0,0,0,.74-3.39c.09-.65.2-1.28.34-1.9,0,.26,0,.51,0,.75,0,3.36,1.61,5.58,4.31,7.42a17.22,17.22,0,0,0,.08-3.67,12.82,12.82,0,0,1,0-1.52,9.75,9.75,0,0,0,4.43,4.07c.63.31.94-2.42.84-3.31.16.29.34.59.53.89a8.5,8.5,0,0,0,3.15,2.74A9.66,9.66,0,0,0,61,75.39a6.19,6.19,0,0,0,.4-2.19c0-.36,0-.72,0-1.07A14.64,14.64,0,0,0,66,74.41c2.07.61,2.62-2.4,2.85-4.49.16.74,1,3.3,1.69,2.75A11.76,11.76,0,0,0,73.46,69c-.07.52-.25,1.88,0,1.84,2.14-.34,4-3.47,4.8-5.25A10.26,10.26,0,0,0,79,60.68a26.55,26.55,0,0,1,.54,3.58c0,.32,2.1-4.61,1.89-6.94a7.64,7.64,0,0,0-.81-2.56l.27.22c.74.59,1.15,1.43,1.86,2a13.25,13.25,0,0,0,0-5.79,5.35,5.35,0,0,0-.68-1.2" fill="#1f4374"/><path id="path7206" d="M74.85,44c.86-1.31,2.59-1.49,4-1.74-1.64-1.59-4.84-.89-6.85-.7l-.17-.23c.57-1.51,2.3-2,3.62-2.78-10-3.27-22-4.67-30.69,2.26l-.07.1-.63.49-.23.2-.07,0c-1.36,1.09-2.61,2.27-3.86,3.47,1.8-.5,3.5-1.41,5.42-1.39.15,0,.25.21.13.31-3,2.82-7.07,5.54-7.81,9.87a20.52,20.52,0,0,1,4-3c.19-.09-2.38,4.57-2.89,7,1.4-.89,2.5-2.16,4-2.94.18-.1-2,5.15-1.85,7.69.9-1.46,1.71-3,2.68-4.38.11-.17-1.15,5.39-1.14,8.14a20.12,20.12,0,0,1,2.92-4.81c0,2.46-.17,5,.58,7.37a13.83,13.83,0,0,1,.81-3.16,15.27,15.27,0,0,1,3.08-5.15c.14-.14.15,5.33,1.21,7.72.86-1.9,1.87-6.38,1.89-6.15a12.16,12.16,0,0,0,4.69,8.43c.4-2.66,1-5.29,1.26-8a59.2,59.2,0,0,1,.54,6.15c1.78-1.34,3.31-6,3.33-5.83a12.24,12.24,0,0,0,2.39,5.8c1.08-2.5,1.13-5.38,1.5-8.06,0-.19,2.35,4.36,4.3,5.71.49-2-.41-4.15-.87-6.06a30.06,30.06,0,0,1,2.55,4.8c.75-2.2.51-4.58.87-6.88a11.12,11.12,0,0,1,2.7,3.87,12,12,0,0,0,.37-6.3,5.47,5.47,0,0,1,1.35,2,9.12,9.12,0,0,0,.33-3.48,9.62,9.62,0,0,0-1.58-4,6.58,6.58,0,0,1,2.71.5c-.51-1.19-3-2.51-2.87-2.57a6,6,0,0,1,4.29-.2c-.15-2.38-6-3.95-5.93-4" fill="#182f4b"/><path id="path7208" d="M47.7,39.48s-8.42,6-5.54,11.88S54.07,59.53,63,58,78.7,48.8,76.42,42.75,61.16,30.61,47.7,39.48" fill="#9c5434"/><path id="path7210" d="M76.09,1.9C75.81.87,75.3-.16,74.47,0s-.14,1.32,0,1.65A3.56,3.56,0,0,1,75,4.08c-.47,5-5.61,8.73-9,11.81a41.14,41.14,0,0,0-3.25,3.22,16.84,16.84,0,0,0-2.27,3.25,17.05,17.05,0,0,0-1.92,4.55A21.41,21.41,0,0,0,59,37.6c.13.42.7-.13.69-.41-.15-4.39-.71-8.5.88-12.74,1.41-3.75,5.14-7,8.13-9.51A30.34,30.34,0,0,0,74,9.43c1.2-1.69,2.44-3.64,2.42-5.8a7.94,7.94,0,0,0-.28-1.73" fill="#392116"/><path id="path7212" d="M53.67,25.05C51,24.48,48,27,46.91,29.47c-1.68,3.81-2.56,10.92.9,14.06a6.54,6.54,0,0,0,3.87,1.54c3.86-.18,6-4.49,6.63-7.58.71-3.67.38-11.35-4.64-12.44" fill="#cac9c7"/><path id="path7214" d="M53.5,26.1c-2.38-.52-5.07,1.73-6.06,3.95-1.5,3.41-2.28,9.78.81,12.59A5.93,5.93,0,0,0,51.72,44c3.45-.16,5.39-4,5.93-6.79.64-3.29.34-10.16-4.15-11.13" fill="#fff"/><path id="path7216" d="M63.36,24.05c-2.69.41-4.61,3.82-4.75,6.53-.21,4.16,1.5,11.12,5.84,12.82a6.47,6.47,0,0,0,4.17.06c3.54-1.53,4-6.34,3.5-9.44-.64-3.68-3.69-10.74-8.76-10" fill="#cac9c7"/><path id="path7218" d="M63.57,25.08c-2.41.38-4.12,3.42-4.25,5.86-.2,3.72,1.33,9.94,5.22,11.47a5.84,5.84,0,0,0,3.74.06c3.17-1.38,3.61-5.68,3.13-8.46-.57-3.29-3.3-9.61-7.84-8.93" fill="#fff"/><path id="path7220" d="M55.46,36.36C55.35,39,54.07,41.13,52.61,41S50,38.69,50.12,36,51.5,31.24,53,31.33s2.59,2.34,2.49,5" fill="#1d1b19"/><path id="path7222" d="M52.39,34.06c-.18.79-.68,1.35-1.12,1.26s-.65-.82-.46-1.61.69-1.35,1.14-1.26.63.82.44,1.61" fill="#fff"/><path id="path7224" d="M68.07,34.87c.53,2.63-.22,5-1.67,5.22s-3.07-1.67-3.6-4.3.23-5,1.68-5.22,3.07,1.67,3.59,4.3" fill="#1d1b19"/><path id="path7226" d="M64.56,33.35c0,.82-.35,1.48-.8,1.49s-.82-.64-.83-1.45.36-1.48.81-1.49.81.64.82,1.45" fill="#fff"/><path id="path7228" d="M54.12,54.26a7.4,7.4,0,0,0,7.12,1.83,10.05,10.05,0,0,0,4.36-2,8,8,0,0,0,2.19-4.12,8.53,8.53,0,0,1,2.77-4,36.3,36.3,0,0,1-12,4.74c-2.45.54-5.76,1.21-8.17,0,1.31,1.12,2.44,2.43,3.74,3.58" fill="#c61c2f"/><path id="path7230" d="M60.84,51.69c-2,.51-4.25,1.83-4.81,3.89a7.31,7.31,0,0,0,5.21.51,10.05,10.05,0,0,0,4.36-2A5.37,5.37,0,0,0,67,52.23a9.56,9.56,0,0,0-6.13-.54" fill="#f28293"/><path id="path7232" d="M60.22,53.22c-.23-.62-1.17-.5-1.57-.16s-1,1-.73,1.69a.75.75,0,0,0,.87.33,1.4,1.4,0,0,0,.64-.35c.52-.31,1-.94.79-1.51" fill="#fff"/><path id="path7234" d="M61.24,52.28a.39.39,0,0,0-.3.26v.19l.06,0h0l0,0,.24-.13c.14-.12.19-.42-.07-.38" fill="#fff"/><path id="path7236" d="M63.8,76.66a13.1,13.1,0,0,0-.33,3.8,56.1,56.1,0,0,0,.39,7.77c1.08,9.8,3.76,19.83,8.73,28.41a19,19,0,0,0,4.94,5.81A14,14,0,0,0,85.78,125a9.35,9.35,0,0,0,8-5.35c2.46-5.88-1.41-12.18-5-16.61-4.16-5.12-9.46-9.2-13.49-14.43a23.22,23.22,0,0,1-4.48-9.08c-1.85-8.42-5.58-6.79-7-2.91" fill="#588986"/><path id="path7238" d="M75.08,120.15a16,16,0,0,0,9.64-2.85,19.66,19.66,0,0,0,5.89-6.88A26.83,26.83,0,0,0,92,107.55a32.76,32.76,0,0,0-2.15-3.18c-.18.32-.35.63-.52.92a20,20,0,0,1-6.25,7,15.49,15.49,0,0,1-11.59,2.26c.36.7.74,1.4,1.14,2.08a22.17,22.17,0,0,0,2.49,3.51" fill="#301e15"/><path id="path7240" d="M80.21,123.94a13.34,13.34,0,0,0,5.57,1.1,9.35,9.35,0,0,0,8-5.35,10.5,10.5,0,0,0,.5-6.39c-2.25,5.56-8.29,10.26-14.1,10.64" fill="#301e15"/><path id="path7242" d="M85.32,125.05a14.06,14.06,0,0,1-7.79-2.6,18.87,18.87,0,0,1-4.77-5.52,22.08,22.08,0,0,0,2.32,3.22c.28,0,.55,0,.83,0a12.35,12.35,0,0,0,2-.16,9.43,9.43,0,0,0,5.76,2.56,5.05,5.05,0,0,0,2.49-.64,4.73,4.73,0,0,0,2.22-4,6.23,6.23,0,0,0-.78-3.21,22,22,0,0,0,2.49-3.42A24.94,24.94,0,0,1,92.88,116c-2.84,4.31-7.84,7.62-12.67,7.93a13.61,13.61,0,0,0,5.12,1.11h0M72.74,116.9h0m-.15-.26A67.84,67.84,0,0,1,65.1,96.2a5.63,5.63,0,0,0,1.51.61A52.93,52.93,0,0,0,68.18,103a9.17,9.17,0,0,1-1.47-.32c.5,1.72,1.08,3.42,1.7,5.08a5.78,5.78,0,0,0,1.88.85,42.1,42.1,0,0,0,3.25,6.25,12.1,12.1,0,0,1-2.09-.3c.36.7.74,1.4,1.14,2.08m22-.64h0m0,0v0m0,0c.07-4.7-2.94-9.36-5.78-12.86-1.14-1.4-2.36-2.72-3.62-4h0c1.26,1.3,2.48,2.62,3.62,4,2.81,3.46,5.78,8.06,5.78,12.71v.15M84.72,111c-.64-.69-1.3-1.37-1.91-2.08-1-1.13-1.84-2.35-2.7-3.58A20.11,20.11,0,0,0,82.63,103c1.08,1.24,2.18,2.46,3.32,3.65l1.46,1.51A18.82,18.82,0,0,1,84.72,111m-7.87-10.27c-.89-1.29-1.77-2.59-2.61-3.91-.29-.46-.57-.92-.84-1.39a15.68,15.68,0,0,0,2-1.4c1.27,1.66,2.55,3.32,3.87,5a17.45,17.45,0,0,1-2.46,1.75M65.07,96.07c-.52-2.61-.92-5.23-1.21-7.84-.12-1.09-.22-2.18-.29-3.28h0c.06.9.14,1.8.23,2.7a3.25,3.25,0,0,1,1-1.22,3.48,3.48,0,0,1,2.05-.67c1.84,0,3.64,1.4,4.75,2.84a10.89,10.89,0,0,1-2,.91,4.72,4.72,0,0,0-2.41-1.64l-.28,0c-1,0-1.22,1.34-1.32,2.17A6.92,6.92,0,0,1,64,89.6c.26,2.16.62,4.32,1,6.47" fill="#4a7172"/><path id="path7244" d="M75.91,120.18c-.28,0-.55,0-.83,0a22.08,22.08,0,0,1-2.32-3.22h0l0,0h0l-.14-.25h0c-.4-.68-.78-1.38-1.14-2.08a12.1,12.1,0,0,0,2.09.3,27.38,27.38,0,0,0,2.73,3.59A17.69,17.69,0,0,0,77.91,120a12.35,12.35,0,0,1-2,.16m11.69-5.44A10.58,10.58,0,0,0,86.45,113c-.54-.69-1.13-1.33-1.73-2a18.82,18.82,0,0,0,2.69-2.88c.57.6,1.13,1.21,1.66,1.85q.5.61,1,1.32a22,22,0,0,1-2.49,3.42" fill="#2a1b14"/><path id="path7246" d="M85.33,125.05a13.61,13.61,0,0,1-5.12-1.11C85,123.63,90,120.32,92.88,116a10.78,10.78,0,0,1,1,3.61l0,.07h0a9.35,9.35,0,0,1-8,5.35h-.45" fill="#2a1b14"/><path id="path7248" d="M93.85,119.62h0l.1-.25-.09.25m.65-2.48s0-.11,0-.16c0-.32.06-.65.07-1a10.94,10.94,0,0,1-.09,1.14m.09-1.14v0m0,0h0" fill="#b59d8f"/><path id="path7250" d="M93.84,119.62h0a9.88,9.88,0,0,0,.68-2.64s0,.11,0,.16h0a10,10,0,0,1-.56,2.23h0l-.1.25h0" fill="#2a1b14"/><path id="path7252" d="M94.52,117a11.4,11.4,0,0,0-.21-3.68A15.31,15.31,0,0,1,92.88,116a24.94,24.94,0,0,0-2.79-4.69c.18-.3.35-.6.52-.9A26.83,26.83,0,0,0,92,107.55a32.76,32.76,0,0,0-2.15-3.18c-.18.32-.35.63-.52.92a25.62,25.62,0,0,1-1.88,2.86L86,106.64c-1.14-1.19-2.24-2.41-3.32-3.65a13.64,13.64,0,0,0,2.56-3.93c1.26,1.3,2.48,2.62,3.62,4,2.84,3.5,5.85,8.16,5.78,12.86h0v0h0c0,.33,0,.66-.07,1M79.31,99c-1.32-1.63-2.6-3.29-3.87-5a14.86,14.86,0,0,0,2.39-2.44c1.34,1.47,2.75,2.88,4.17,4.27A12.68,12.68,0,0,1,79.31,99m5.24-.59-.61-.61.61.61M71.65,88.6c-1.11-1.44-2.91-2.84-4.75-2.84a3.48,3.48,0,0,0-2.05.67,3.25,3.25,0,0,0-1,1.22c-.09-.9-.17-1.8-.23-2.7a17.57,17.57,0,0,0,2.5.21,17.55,17.55,0,0,0,5.93-2,24.09,24.09,0,0,0,2,3.7,11.6,11.6,0,0,1-2.36,1.78" fill="#3e5d5f"/><path id="path7254" d="M90.09,111.32q-.53-.7-1-1.32c-.53-.64-1.09-1.25-1.66-1.85a25.62,25.62,0,0,0,1.88-2.86c.17-.29.34-.6.52-.92A32.76,32.76,0,0,1,92,107.55a26.83,26.83,0,0,1-1.35,2.87c-.17.3-.34.6-.52.9" fill="#251913"/><path id="path7256" d="M93.84,119.62a10.78,10.78,0,0,0-1-3.61,15.31,15.31,0,0,0,1.43-2.71,11.4,11.4,0,0,1,.21,3.68h0a9.88,9.88,0,0,1-.68,2.64" fill="#251913"/><path id="path7258" d="M75.6,80.18c2.47-2.89,4-7.39,3.22-11.21-1.07-2.31-3.27-3.71-5.9-4.87-3.55-1.56-7.5-3-11.44-2-3.45.88-5.15,4.21-6.71,7l-2-1.15c-2.62,4.38-2,10.78,2.88,14a19.81,19.81,0,0,0,10.4,3.25,15.73,15.73,0,0,0,9.53-5" fill="#14273d"/><path id="path7260" d="M66.07,85.16a17.82,17.82,0,0,1-3.48-.38c0-.28-.08-.54-.12-.8s-.07-.42-.1-.62a11.2,11.2,0,0,0,1.29.1h.21a8.5,8.5,0,0,0,5.62-2,9.56,9.56,0,0,0,1.33.1,6.82,6.82,0,0,0,1-.07h.07c.37.31.74.64,1.13,1a17,17,0,0,1-7,2.68m-4.94-.75a18.44,18.44,0,0,1-2.8-1,3.16,3.16,0,0,0,.53-.13l.33-.15.29-.13c.15-.07.28-.15.41-.22a11.83,11.83,0,0,0,1.32.4q0,.44-.06.9c0,.12,0,.25,0,.37m-4.92-2.16-.54-.34a10.21,10.21,0,0,1-1.76-1.48,9.71,9.71,0,0,1-2.32-4.29,10.91,10.91,0,0,1-.32-2.61q0-.37,0-.75l.14-.08a11.6,11.6,0,0,0,1.33.77.18.18,0,0,0,.1,0c.34,0,.58-.94.69-1.87l.72-.36a8.8,8.8,0,0,0,3,2.53c.56.32,1.15.69,1.77,1A9.2,9.2,0,0,0,57.6,75h-.09a.53.53,0,0,0-.25.05s0,0,0,0a4,4,0,0,0-1.46.75c-1.41,1.19-.83,2.76.14,4a6.23,6.23,0,0,0,0,1.07,3.82,3.82,0,0,0,.32,1.34m18.33-1q-.35-.24-.69-.45a6.83,6.83,0,0,0,.69-.45,7.23,7.23,0,0,0,1-1l.22-.25.1-.11L76,79l.06-.08a3.53,3.53,0,0,0,.4-.74,3.17,3.17,0,0,0,.22-1.26,2.53,2.53,0,0,0,0-.28,5.77,5.77,0,0,0-.3-1.27,8.08,8.08,0,0,0-1.06-1.92,13.44,13.44,0,0,0-1.11-1.32L73.94,72h-.09c-.31,0-.45.26-.46.54v0c.23.43.48.94.72,1.48a9.09,9.09,0,0,1,.57,1.74,4.44,4.44,0,0,1,.08.86,1.8,1.8,0,0,1-.18.71l-.18.26-.17.18-.18.2a4.29,4.29,0,0,1-.77.64,4.12,4.12,0,0,1-.63.39l0,0a4.23,4.23,0,0,1-1.2.39h-.08l-.53-.26a1.16,1.16,0,0,1,0-.18c.33-1.6-.92-2.78-2.29-3.28A18.62,18.62,0,0,0,64.36,75c-1-.12-2.08-.21-3.12-.23a8.79,8.79,0,0,0,.18-1.54c0-.36,0-.72,0-1.07A14.64,14.64,0,0,0,66,74.41a2.06,2.06,0,0,0,.52.08c1.65,0,2.12-2.67,2.33-4.57.14.67.85,2.82,1.49,2.82a.32.32,0,0,0,.2-.07A11.76,11.76,0,0,0,73.46,69c-.06.51-.25,1.84,0,1.84h0c1.63-.26,3.11-2.14,4.07-3.8A7.18,7.18,0,0,1,78.82,69a10.63,10.63,0,0,1,.2,2.11c0,.37,0,.73,0,1.1a14.69,14.69,0,0,1-.3,1.84c-.06.24-.12.48-.19.72a16,16,0,0,1-.64,1.8,14.87,14.87,0,0,1-1.28,2.36c-.16.24-.33.48-.51.71l-.45.57a13.63,13.63,0,0,1-1.06,1.09M53.62,71a4.4,4.4,0,0,0,0-.83c.08.14.16.28.25.42h0a.91.91,0,0,1-.17.32.35.35,0,0,1-.05.08" fill="#131921"/><path id="path7262" d="M83.57,49.63a12.06,12.06,0,0,0-2-5.1l.57-.28c.32-.75-.53-1.71-.86-2.35a8.69,8.69,0,0,0-2.93-3.21l-.4-.24,1-.26c.48-.12,1.54-.67,1.41-.78a14,14,0,0,0-3.73-1.93,26.82,26.82,0,0,0-5.5-1.65A45.14,45.14,0,0,0,59,33.44a34.3,34.3,0,0,0-11.61,2.67A26.68,26.68,0,0,0,43,38.66c-.53.32-1,.66-1.54,1-1.08.78-2.68,1.82-3.28,3.06-.05.09,3.28-.94,4.86-1.52a29.67,29.67,0,0,0-3.56,3.05c-1.06,1-2.65,2.46-2.8,4A19.4,19.4,0,0,0,39.88,47c.82-.36,1.68-.66,2.51-1-.73.58-1.53,1.1-2.2,1.7a16.55,16.55,0,0,0-2.69,3.16c-1.59,2.41-2,5-2.47,7.73a4.68,4.68,0,0,0,1.8-.82c.41-.36.83-.72,1.25-1.06a11,11,0,0,0-1.21,5.41c0,.35,2-1.83,2.7-2.77a11.84,11.84,0,0,0-.47,8.41c0,.17,1-.94,1.16-1.55.17-.76.38-1.5.62-2.24a12.49,12.49,0,0,0,0,3.4c.19,1.24.67,3.78,1.95,4.33a13.36,13.36,0,0,0,.74-3.39c.09-.65.2-1.28.34-1.9,0,.26,0,.51,0,.75,0,3.36,1.61,5.58,4.31,7.42a17.22,17.22,0,0,0,.08-3.67,12.82,12.82,0,0,1,0-1.52,9.75,9.75,0,0,0,4.43,4.07c.63.31.94-2.42.84-3.31.16.29.34.59.53.89a8.5,8.5,0,0,0,3.15,2.74A9.66,9.66,0,0,0,61,75.39a6.19,6.19,0,0,0,.4-2.19c0-.36,0-.72,0-1.07A14.64,14.64,0,0,0,66,74.41c2.07.61,2.62-2.4,2.85-4.49.16.74,1,3.3,1.69,2.75A11.76,11.76,0,0,0,73.46,69c-.07.52-.25,1.88,0,1.84,2.14-.34,4-3.47,4.8-5.25A10.26,10.26,0,0,0,79,60.68a26.55,26.55,0,0,1,.54,3.58c0,.32,2.1-4.61,1.89-6.94a7.64,7.64,0,0,0-.81-2.56l.27.22c.74.59,1.15,1.43,1.86,2a13.25,13.25,0,0,0,0-5.79,5.35,5.35,0,0,0-.68-1.2c.34.14,1.49-.13,1.45-.37" fill="#1f4374"/><path id="path7264" d="M74.85,44c.86-1.31,2.59-1.49,4-1.74-1.64-1.59-4.84-.89-6.85-.7l-.17-.23c.57-1.51,2.3-2,3.62-2.78-10-3.27-22-4.67-30.69,2.26l-.07.1-.63.49-.23.2-.07,0c-1.36,1.09-2.61,2.27-3.86,3.47,1.8-.5,3.5-1.41,5.42-1.39.15,0,.25.21.13.31-3,2.82-7.07,5.54-7.81,9.87a20.52,20.52,0,0,1,4-3c.19-.09-2.38,4.57-2.89,7,1.4-.89,2.5-2.16,4-2.94.18-.1-2,5.15-1.85,7.69.9-1.46,1.71-3,2.68-4.38.11-.17-1.15,5.39-1.14,8.14a20.12,20.12,0,0,1,2.92-4.81c0,2.46-.17,5,.58,7.37a13.83,13.83,0,0,1,.81-3.16,15.27,15.27,0,0,1,3.08-5.15c.14-.14.15,5.33,1.21,7.72.86-1.9,1.87-6.38,1.89-6.15a12.16,12.16,0,0,0,4.69,8.43c.4-2.66,1-5.29,1.26-8a59.2,59.2,0,0,1,.54,6.15c1.78-1.34,3.31-6,3.33-5.83a12.24,12.24,0,0,0,2.39,5.8c1.08-2.5,1.13-5.38,1.5-8.06,0-.19,2.35,4.36,4.3,5.71.49-2-.41-4.15-.87-6.06a30.06,30.06,0,0,1,2.55,4.8c.75-2.2.51-4.58.87-6.88a11.12,11.12,0,0,1,2.7,3.87,12,12,0,0,0,.37-6.3,5.47,5.47,0,0,1,1.35,2,9.12,9.12,0,0,0,.33-3.48,9.62,9.62,0,0,0-1.58-4,6.58,6.58,0,0,1,2.71.5c-.51-1.19-3-2.51-2.87-2.57a6,6,0,0,1,4.29-.2c-.15-2.38-6-3.95-5.93-4" fill="#182f4b"/><path id="path7266" d="M47.7,39.48s-8.42,6-5.54,11.88S54.07,59.53,63,58,78.7,48.8,76.42,42.75,61.16,30.61,47.7,39.48" fill="#9c5434"/><path id="path7268" d="M76.42,42.75v0m0,0h0m0,0h0m0,0h0m0,0h0" fill="#141f28"/><path id="path7270" d="M57.55,58.44c-6.91,0-13.09-2.4-15.39-7.08h0c-1.33-2.74-.23-5.49,1.33-7.66h0a11.71,11.71,0,0,0-.72,1.11,3.76,3.76,0,0,1,.46-.2c-.66,2.55-1,5.85.59,7.92,3,3.84,9.39,5,14.4,5,.54,0,1.06,0,1.55,0,6.75-.34,14.89-4.37,15.78-11.82.18-1.48.32-4.33-.76-5.53a8.15,8.15,0,0,1,1.59,2.47h0v0h0v0h0a6.83,6.83,0,0,1,.44,2.44c0,5.5-6.17,11.42-13.9,12.78a31.31,31.31,0,0,1-5.41.47" fill="#733521"/><path id="path7272" d="M47.69,39.48h0" fill="#132536"/><path id="path7274" d="M50.09,49.37c.39-3-2.42-5-5.14-5a5.26,5.26,0,0,0-1.72.29c.08-.31.17-.62.26-.91a20.81,20.81,0,0,1,4.2-4.22h0A25.28,25.28,0,0,1,61.65,35c5.78,0,10.55,2.29,13.11,5.11a6.81,6.81,0,0,0-4.63,5.58l-.54.25a3.26,3.26,0,0,1-.39-2,.19.19,0,0,0-.16-.23H69a6.87,6.87,0,0,1-2.26.38,9,9,0,0,1-4.11-1.11,10.21,10.21,0,0,1-2.52-1.69c-.7-.68-.85-1.62-1.45-2.34l-.3.08c-1,2.77-2.91,6.66-6.21,6.66a4.55,4.55,0,0,1-1-.11h0a.19.19,0,0,0-.16.27,2.7,2.7,0,0,1-.81,3.45m-4.35-6.09h-.26l0,0a6.2,6.2,0,0,1,3.36,1.25A6.52,6.52,0,0,1,50.38,47a.09.09,0,0,0,.09.07c.1,0,.23-.14.2-.24-.52-2.35-2.67-3.5-4.93-3.5m27.55-3a5.57,5.57,0,0,0-2.62,1.52,3.69,3.69,0,0,0-1,3c0,.08.05.11.1.11a.34.34,0,0,0,.26-.23,7.14,7.14,0,0,1,1.09-2.66,7.28,7.28,0,0,1,2.23-1.73l0,0" fill="#834129"/><path id="path7276" d="M42.77,44.81a11.71,11.71,0,0,1,.72-1.11c-.09.29-.18.6-.26.91a3.76,3.76,0,0,0-.46.2" fill="#612a1c"/><path id="path7278" d="M50.47,47a.09.09,0,0,1-.09-.07,6.52,6.52,0,0,0-1.56-2.38,6.2,6.2,0,0,0-3.36-1.25l0,0h.26c2.26,0,4.41,1.15,4.93,3.5,0,.1-.1.24-.2.24" fill="#3a1814"/><path id="path7280" d="M76.09,1.9C75.81.87,75.3-.16,74.47,0s-.14,1.32,0,1.65A3.56,3.56,0,0,1,75,4.08c-.47,5-5.61,8.73-9,11.81a41.14,41.14,0,0,0-3.25,3.22,16.84,16.84,0,0,0-2.27,3.25,17.05,17.05,0,0,0-1.92,4.55A21.41,21.41,0,0,0,59,37.6c.13.42.7-.13.69-.41-.15-4.39-.71-8.5.88-12.74,1.41-3.75,5.14-7,8.13-9.51A30.34,30.34,0,0,0,74,9.43c1.2-1.69,2.44-3.64,2.42-5.79a7.92,7.92,0,0,0-.28-1.74" fill="#392116"/><path id="path7282" d="M37,3.36c.13-1.06.49-2.14,1.33-2.08s.33,1.28.19,1.64a3.62,3.62,0,0,0-.14,2.45c1.17,4.84,6.79,7.85,10.59,10.42a40.72,40.72,0,0,1,3.68,2.73,16.84,16.84,0,0,1,2.71,2.9,17.39,17.39,0,0,1,2.53,4.22,21.25,21.25,0,0,1,1,10.66c-.06.43-.7,0-.73-.3-.48-4.38-.5-8.52-2.67-12.5-1.93-3.51-6.07-6.18-9.39-8.27a29.74,29.74,0,0,1-6-4.71C38.76,9,37.25,7.26,37,5.12a8.16,8.16,0,0,1,0-1.76" fill="#392116"/><path id="path7284" d="M69.73,44.94s-.09,0-.1-.11a3.69,3.69,0,0,1,1-3,5.57,5.57,0,0,1,2.62-1.52l0,0a7.28,7.28,0,0,0-2.23,1.73A7.14,7.14,0,0,0,70,44.71a.34.34,0,0,1-.26.23" fill="#3a1814"/><path id="path7286" d="M53.67,25.05C51,24.48,48,27,46.91,29.47c-1.68,3.81-2.55,10.92.9,14.06a6.54,6.54,0,0,0,3.87,1.54c3.86-.18,6-4.49,6.63-7.58.71-3.67.38-11.35-4.64-12.44" fill="#cac9c7"/><path id="path7288" d="M53.5,26.1c-2.38-.52-5.07,1.73-6.06,3.95-1.5,3.41-2.28,9.78.81,12.59A5.93,5.93,0,0,0,51.72,44c3.45-.16,5.39-4,5.93-6.79.64-3.29.34-10.16-4.15-11.13" fill="#fff"/><path id="path7290" d="M63.36,24.05c-2.69.41-4.61,3.82-4.75,6.53-.21,4.16,1.5,11.11,5.84,12.82a6.47,6.47,0,0,0,4.17.06c3.54-1.53,4-6.34,3.5-9.44-.64-3.68-3.69-10.74-8.76-10" fill="#cac9c7"/><path id="path7292" d="M63.57,25.08c-2.41.38-4.12,3.42-4.25,5.86-.2,3.72,1.33,9.94,5.22,11.47a5.84,5.84,0,0,0,3.74.06c3.17-1.38,3.61-5.68,3.13-8.46-.57-3.29-3.3-9.61-7.84-8.93" fill="#fff"/><path id="path7294" d="M55.46,36.36C55.35,39,54.07,41.13,52.61,41S50,38.69,50.12,36,51.5,31.24,53,31.33s2.59,2.34,2.49,5" fill="#1d1b19"/><path id="path7296" d="M52.39,34.06c-.18.79-.68,1.35-1.12,1.26s-.65-.82-.46-1.61.69-1.35,1.14-1.26.63.82.44,1.61" fill="#fff"/><path id="path7298" d="M68.07,34.87c.53,2.63-.22,5-1.67,5.22s-3.07-1.67-3.6-4.3.23-5,1.68-5.22,3.07,1.67,3.59,4.3" fill="#1d1b19"/><path id="path7300" d="M64.56,33.35c0,.82-.35,1.48-.8,1.49s-.82-.64-.83-1.45.36-1.48.81-1.49.81.64.82,1.45" fill="#fff"/><path id="path7302" d="M59.12,56.92c-3,0-4.71-1.69-6.12-3.21a33.29,33.29,0,0,0-3.29-3.19c-.22-.54-.06-.69.18-.69a2,2,0,0,1,.7.21s.42.56,2.51.56A23.06,23.06,0,0,0,57.64,50a64.7,64.7,0,0,0,12-4.08,4.83,4.83,0,0,0,.5.77h0a5.8,5.8,0,0,1,0-1l.64-.3a.42.42,0,0,1,.25-.09c.25,0,.32.34.32.34a6.08,6.08,0,0,0-2.28,3.12c-.69,2.12-.18,5.22-5.92,7.33a11.85,11.85,0,0,1-4,.81" fill="#733521"/><path id="path7304" d="M70.09,46.73a4.83,4.83,0,0,1-.5-.77l.54-.25a5.8,5.8,0,0,0,0,1" fill="#60291c"/><path id="path7306" d="M54.12,54.26a7.4,7.4,0,0,0,7.12,1.83,10.05,10.05,0,0,0,4.36-2,8,8,0,0,0,2.19-4.12,8.53,8.53,0,0,1,2.77-4,36.3,36.3,0,0,1-12,4.74c-2.45.54-5.76,1.21-8.17,0,1.31,1.12,2.44,2.43,3.74,3.58" fill="#c61c2f"/><path id="path7308" d="M60.84,51.69c-2,.51-4.25,1.83-4.81,3.89a7.31,7.31,0,0,0,5.21.51,10.05,10.05,0,0,0,4.36-2A5.37,5.37,0,0,0,67,52.23a9.56,9.56,0,0,0-6.13-.54" fill="#f28293"/><path id="path7310" d="M60.22,53.22c-.23-.62-1.17-.5-1.57-.16s-1,1-.73,1.69a.75.75,0,0,0,.87.33,1.4,1.4,0,0,0,.64-.35c.52-.31,1-.94.79-1.51" fill="#fff"/><path id="path7312" d="M61.24,52.28a.39.39,0,0,0-.3.26v.19l.06,0h0l0,0,.24-.13c.14-.12.19-.42-.07-.38" fill="#fff"/><path id="path7314" d="M78.2,61.08l-.08,0a16.26,16.26,0,0,1-3.62,8.17l.11.11a10.09,10.09,0,0,0,3.59-8.3" fill="#4b78c4"/><path id="path7316" d="M80.11,55.55l0,0a16.43,16.43,0,0,1,0,5.19c0,.15.19.08.22,0,.54-1.66.88-3.6-.14-5.19" fill="#4b78c4"/><path id="path7318" d="M81.28,49.94l-.11.07a10.9,10.9,0,0,1,.68,2.07c.11.69.14,1.4.27,2.1,0,.16.24,0,.25-.09a5.26,5.26,0,0,0-1.09-4.15" fill="#4b78c4"/><path id="path7320" d="M66.33,73.52a11.42,11.42,0,0,1-5.36-3l0,0a7.48,7.48,0,0,0,5.29,3.15c.09,0,.23-.18.11-.21" fill="#4b78c4"/><path id="path7322" d="M52.05,72.24a9.44,9.44,0,0,1-3.42-3.65l-.07,0a6.27,6.27,0,0,0,3.37,3.76l.12-.16" fill="#4b78c4"/><path id="path7324" d="M41.46,64.51H41.4A8.89,8.89,0,0,0,42,70l.13-.08a25.53,25.53,0,0,1-.67-5.43" fill="#4b78c4"/><path id="path7326" d="M47.16,73.36c-.54-1-1.16-1.81-1.64-2.81a23,23,0,0,1-1.08-3.61l-.07,0A12.22,12.22,0,0,0,45,70.41a11.2,11.2,0,0,0,2.06,3l.1-.08" fill="#4b78c4"/><path id="path7328" d="M38.43,50.61a12.14,12.14,0,0,0-2.51,6.31c0,.15.17.07.2,0,.85-2.13,1.13-4.28,2.37-6.26l-.06,0" fill="#4b78c4"/><path id="path7330" d="M44.25,38.51a6.93,6.93,0,0,0-1.9,1.13c-.73.51-1.4,1.09-2.11,1.63l0,.08a37.28,37.28,0,0,0,4-2.51c.1-.09.17-.4,0-.33" fill="#4b78c4"/><path id="path7332" d="M78.45,36.76a37,37,0,0,0-5.08-1.59l-.06.1a18.61,18.61,0,0,0,5,1.84c.16,0,.34-.26.17-.35" fill="#4b78c4"/><path id="path7334" d="M83.06,122.4a18.28,18.28,0,0,1-4.15-2.57l.87-.22c1.09.89,2.26,1.7,3.42,2.59l-.14.2m-8.6-7.51a37.92,37.92,0,0,1-3.11-5.52c-.09-.2-.19-.41-.28-.62a6.84,6.84,0,0,0,.91.06h.3a39.11,39.11,0,0,0,3.36,6c-.4,0-.79,0-1.18,0m-5.14-11.83h-.4A61.21,61.21,0,0,1,67.37,97,5.65,5.65,0,0,0,68,97c.58,2,1.25,4.06,2,6-.2,0-.4,0-.61,0" fill="#c0b39b"/><path id="path7336" d="M78.91,119.83a24.09,24.09,0,0,1-4.45-4.94c.39,0,.78,0,1.18,0,.38.57.77,1.14,1.17,1.7a15.75,15.75,0,0,0,3,3.07l-.87.22" fill="#b26a38"/></g></g></g></g></svg>