<svg xmlns="http://www.w3.org/2000/svg" viewBox="0 0 154.44 133.33"><title>Cat</title><g id="Layer_2" data-name="Layer 2"><g id="svg2"><g id="g10"><g id="g12"><path id="path8750" d="M95.86,89.1c1.91,3.16,10.27,9.31,14.66,12.07-1.35,5.78-6.85,15.8-18.17,22.93-6.85,4.44-12.56,5.06-14.22,1.34-1.76-.21-2.7-4.75.42-6.1.83-1.75,3.42-1.44,4.88-.51s3.94,3.51,5.81,1.45,7.78-11.88,6.23-15-8.72-6.5-9.66-10.63c.49-1,4.6-4.93,10-5.57" fill="#745b6f"/><path id="path8752" d="M83.41,118.82h0M94,112.37h0a15.64,15.64,0,0,0,1.7-5.76,15.64,15.64,0,0,1-1.7,5.76m1.7-5.77h0m0,0h0m0,0h0" fill="#c0b1b9"/><path id="path8754" d="M82.43,127.87c-2.05,0-3.57-.79-4.3-2.43h0a1.43,1.43,0,0,1-.93-.59,2.8,2.8,0,0,0,.77-1.19,3.35,3.35,0,0,0,3.16,2.63A1.81,1.81,0,0,0,83,124c-.32-2.1-2.74-2.44-4.26-2.44a8.78,8.78,0,0,0-1.23.08s.18-1,1.64-1a4.47,4.47,0,0,1,.89.1,8.41,8.41,0,0,0,1.73.22c1.76,0,.59-1.19-3.14-1.71a2.8,2.8,0,0,1,1.52-.38,8.29,8.29,0,0,1,2,.33,10,10,0,0,0,1.32.33c.09,0,.13,0,.11-.1-.16-.55-1.64-1.24-1.64-1.24a4.69,4.69,0,0,1,1.39.58h0c1,.67,2.66,2.23,4.17,2.23a2.16,2.16,0,0,0,1.64-.78,18.45,18.45,0,0,0,1.22-1.62C89.74,120.14,90,121,91,121c1.58,0,5-2,9.64-6.79,8.32-8-.16-20.34-5.55-21.68a5.39,5.39,0,0,0-1.33-.17c-3.75,0-5.12,4.39-2.13,7,3.33,2.89,5.54,3.92,5.19,7.16a11.61,11.61,0,0,1-2.77,5.86h0a15.64,15.64,0,0,0,1.7-5.76h0v0h0v0h0a2.77,2.77,0,0,0-.25-1.24h0c-1.56-3.1-8.72-6.5-9.66-10.63.48-.93,4.44-4.79,9.74-5.53a44.51,44.51,0,0,0,6.86,6.27c2.84,2.23,6,4.4,8.11,5.76-1.35,5.78-6.85,15.8-18.17,22.93-3.84,2.48-7.31,3.77-9.92,3.77" fill="#553f4f"/><path id="path8756" d="M93.23,116.41c1.93-5.85,4.62-10.44,6.55-12.45,0,0-3.47,6.32-6.55,12.45" fill="#a18b9c"/><path id="path8758" d="M91.67,95.42a23.15,23.15,0,0,0,5.68,7.6c-3.54-2-6.09-5.63-5.68-7.6" fill="#a18e9b"/><path id="path8760" d="M80.9,122.68s-2.14-1-3.73.11c-1,.65.33-2.35,3.73-.11" fill="#a18e9b"/><path id="path8762" d="M81.12,120.44s-2.53-.77-3.79.22c.61-1.26,2.47-.93,3.79-.22" fill="#a18e9b"/><path id="path8764" d="M82.79,118.77S80.27,118,79,119c.6-1.26,2.47-.93,3.78-.22" fill="#a18e9b"/><path id="path8766" d="M106.68,58.52s20.81-1.08,31.18-7.5,15-14.21,7.08-29.81c-5.31-11.58-2.53-18,1.65-20.38s9.72.76,6.44,4.78c-1.64,2-9.25,4.48-3.92,14,5.95,10.57,17.58,36.86-36.41,41.51-2,.26-6-2.56-6-2.56" fill="#a18e9b"/><path id="path8768" d="M146.42,15.84c-.78-1-.72-.32-.66.36s.1,1.16-.38.68c-.84-.83-1.28.35-1.41,2C140,8.78,142.7,3.05,146.59.83c4.17-2.39,9.72.76,6.44,4.78-1.49,1.82-7.89,4-5.08,11.5a4.43,4.43,0,0,1-1.53-1.27" fill="#fff"/><path id="path8770" d="M148.81,49.4h0a17.76,17.76,0,0,0,5-8.16,17.68,17.68,0,0,1-5,8.17m5-8.18h0m-.75-35.63h0m0,0h0" fill="#c0b1b9"/><path id="path8772" d="M148.82,49.39c8.63-10.65,1.5-22.24-2.36-30.08a22.56,22.56,0,0,1-1-2.37.38.38,0,0,0,.21.12c.18,0,.14-.43.11-.86s-.08-.86.1-.86.27.14.56.5A4.43,4.43,0,0,0,148,17.11h0a9.45,9.45,0,0,1-.69-3.93c0,.15,0,.29,0,.44a12.41,12.41,0,0,0,1.86,6c2.82,5,6.91,13.55,4.7,21.64h0a17.76,17.76,0,0,1-5,8.16m-1.56-36.21v0m0,0h0M153,5.68h0m0,0h0m0,0h0m0,0h0m0,0h0m0,0h0m0,0h0" fill="#776171"/><path id="path8774" d="M148,17.11a4.43,4.43,0,0,1-1.53-1.27c-.29-.36-.46-.5-.56-.5s-.14.43-.1.86.07.86-.11.86a.38.38,0,0,1-.21-.12c-2.21-6.16.68-8.86,5.4-12.32,2-1.49,2.23-2.8,1.7-3.84,1.52,1,2.14,2.74.57,4.73h0l0,0h0v0h0l0,0H153c-1.26,1.44-5.41,3.14-5.71,7.45h0v0h0v0h0a9.45,9.45,0,0,0,.69,3.93" fill="#bfb1b9"/><path id="path8776" d="M112.65,61.09h0q1.45-.12,2.85-.27-1.39.15-2.85.27h0m-4.21-2.69h0A108.84,108.84,0,0,0,128.11,55h0a108.84,108.84,0,0,1-19.67,3.36" fill="#c0b1b9"/><path id="path8778" d="M112.65,61.09a24.61,24.61,0,0,0-4.21-2.69A108.84,108.84,0,0,0,128.11,55a30.54,30.54,0,0,1-7.53,2.66c-7.35,1.52-7,2.39-4.42,3l-.61.06q-1.39.15-2.85.27h0" fill="#776171"/><path id="path8780" d="M125.31,57.9c15.88-1.86,23.67-11,23.67-11-.94,4-11.53,10.68-23.67,11" fill="#e2d1dc"/><path id="path8782" d="M149.27,0a4.39,4.39,0,0,0-.83.14,6.34,6.34,0,0,0-.93.29,7.18,7.18,0,0,0-1.14.54,8,8,0,0,0-1.21.86A6.67,6.67,0,0,0,144,3.08a7.77,7.77,0,0,0-.92,1.53,11.1,11.1,0,0,0-.62,1.73c-.07.3-.14.6-.19.9s-.09.6-.12.9-.06.6-.07.9,0,.59,0,.87c0,.57,0,1.13.1,1.65s.13,1,.2,1.46.17.86.24,1.23.16.67.23.93l.21.81s0-.3-.16-.82c0-.26-.12-.58-.16-.95s-.14-.77-.19-1.22-.12-.94-.14-1.46,0-1.07-.06-1.63c0-.28,0-.57,0-.86s.05-.58.08-.88.08-.58.13-.88.12-.59.19-.88a9.84,9.84,0,0,1,.59-1.68,8,8,0,0,1,.86-1.49A8,8,0,0,1,145.31,2a8.17,8.17,0,0,1,1.16-.89,8.23,8.23,0,0,1,1.09-.57,6.52,6.52,0,0,1,.89-.34,5.33,5.33,0,0,1,.82-.2" fill="#a18e9b"/><path id="path8784" d="M35.25,80.6c.08-.27.15-.54.22-.8a9.5,9.5,0,0,0-1.67-8.36l16-4.54S55.62,72.45,61,72.07s15.59-6.86,21.73-11.19,12.76-5.45,19.84-4.41,17.19,7.8,19.46,20.39-1.86,18,2.4,20.28,9.34,2.38,7.89,14.25-5.4,21-10.59,21.59c-4.15.1-5.5-1.14-5.5-1.14-2.6,0-4.68-.62-5.2-3.3s1.56-4.34,2.91-2.89c1.35-1.24,3.43-.11,3.43-.11s1.14-.72,3.32.62c4.15-3.82,5-16.94-10.17-25-4.39-2.76-12.75-8.91-14.66-12.07-5.45.64-9.56,4.62-10,5.57-4.15,5.37-6.64,7-11.1,8C72,110.78,64.43,124.3,60,129.47c-2.36,2.71-4.87,4.14-9.38,3.82-2.84-.29-3.91-1.5-3.91-1.5-1.15.14-1.44-1-1.61-1.57-.9-.11-2.08-2.11-1.42-4.4a3.76,3.76,0,0,1,5.92-2.08c2.72,1.74,7.59,1.85,8.52.19s5.11-16.05,1-24a100.76,100.76,0,0,1-11-3.61S33.2,91.46,35.25,80.6" fill="#a18e9b"/><path id="path8786" d="M117.13,105.85a29.86,29.86,0,0,0-6.61-4.68h0a30,30,0,0,1,6.6,4.66v0" fill="#c0b1b9"/><path id="path8788" d="M121.23,133c-3.76,0-5-1.14-5-1.14h0s1.24,1.14,5,1.14h.5c5.19-.62,9.13-9.71,10.59-21.59a31.65,31.65,0,0,0,.25-3.76,31.65,31.65,0,0,1-.25,3.76c-1.46,11.88-5.4,21-10.59,21.59h-.5m-5.06-1.14h0m-2.23-6.19a1.51,1.51,0,0,0-1.12-.54h0a1.51,1.51,0,0,1,1.12.54m-64.38-1.91a4.5,4.5,0,0,0-2.11-.75,4.5,4.5,0,0,1,2.11.75M122,76.86s0,0,0-.07,0,0,0,.07m0-.08a.13.13,0,0,1,0-.06.13.13,0,0,0,0,.06m0-.08v0m0-.07s0,0,0-.06a.13.13,0,0,0,0,.06m0-.08a.11.11,0,0,0,0,0,.11.11,0,0,1,0,0m0-.07v0m0-.07,0,0,0,0m0-.07s0,0,0-.06a.13.13,0,0,1,0,.06m0-.07a.13.13,0,0,1,0-.06.13.13,0,0,0,0,.06m0-.07a25.56,25.56,0,0,0-4.18-9.75,25.56,25.56,0,0,1,4.18,9.75m-4.18-9.76,0,0,0,0m-.06-.08h0M82.73,60.88l0,0,0,0m.08-.05h0" fill="#c0b1b9"/><path id="path8790" d="M51.78,133.33c-.39,0-.79,0-1.2,0-2.84-.29-3.91-1.5-3.91-1.5h-.19c-1,0-1.26-1-1.42-1.58h0a1.09,1.09,0,0,1-.55-.27.82.82,0,0,0,.47-.43c.07.71.78,1.7,1.32,1.7a.36.36,0,0,0,.28-.12c.08.32,1.55,1.58,4.61,1.58l.83,0c3.63-.26,4.45-4.42,1.65-5.8a4.68,4.68,0,0,0-2.06-.52c-1.91,0-3.57,1.43-5,3.83.57-2.88,3.5-4.17,2.25-4.94a1.22,1.22,0,0,0-.68-.19c-1.27,0-2.94,1.57-3.38,3.58-.39-3.05,2.55-4.34,2-4.77a1.25,1.25,0,0,0-.74-.23,2.68,2.68,0,0,0-2,1.31l0,0a3.67,3.67,0,0,1,3.2-2h.24a4.5,4.5,0,0,1,2.11.75h0a10.09,10.09,0,0,0,5.16,1.37c1.58,0,2.92-.39,3.36-1.18.64-1.13,2.76-8.12,2.76-15a20.12,20.12,0,0,0-1.68-8.77c.3-1.09-3.84-8.18-9.54-13.4,0,0,5.35,6.14,7.16,10,.44,1,0,1.37-1.1,1.37-1.84,0-5.42-1.16-9.13-2.53.44.23.87.45,1.29.65-1.6-.56-12.79-4.86-12.79-13.62a10.34,10.34,0,0,1,.2-2h0c.08-.27.15-.54.22-.8a10.82,10.82,0,0,0,.3-2.36,8.19,8.19,0,0,0-.3-3.54c-.13-.42,0-.56.45-.56s1.49.21,2.88.37l.44,0c3.37,0,5.53-2.35,7.45-3.79a4.33,4.33,0,0,1,2.53-1.21,4.58,4.58,0,0,1,1.94.57,11.47,11.47,0,0,0,3.05.83,13.24,13.24,0,0,0,6.26,2l.53,0c5.39-.37,15.59-6.86,21.73-11.19h0l0,0,0,0h0a25.46,25.46,0,0,1,10.32-4.32c-.35.16-.72.31-1.14.46-5.14,1.86-14.17,9.76-22.42,13.79-2.47.87-2.42,1.3-1.2,1.3a18.27,18.27,0,0,0,5.4-1.14,3.23,3.23,0,0,1,1-.25c.62,0-.32.84-2.24,1.69A20.76,20.76,0,0,1,64.42,74q-.54,0-1.08,0c-8.1-.46-9.91-2-12.24-2.76A3.91,3.91,0,0,0,49.79,71c-2,0-4.28,1.33-6.85,3.13-4,2.81-5.76,3.56-5.76,9.14S44,92.76,50.88,95.7a11,11,0,0,0,3.53,1.1c1.81,0-.44-2.85-3.22-7-1.9-2.83-2.55-4-2.24-4s1.5,1.08,3.33,2.75C56,92,64.12,96.78,61.94,113.2c-1.3,7.08-3.18,10.69-2,11.06h0c1.36,0,12.72-15,13.59-30.93.43-11.83-2.74-15.71,1.69-15.71h.3c3.2.11,5.52,8,3.09,15.6-.17.58.12.85.68.85,2.6,0,11.16-5.61,9.75-12.48-1.71-8.36,2.8-11.31,5.61-12.39a.58.58,0,0,1,.18,0c2.39,0-2.21,21.92,17.67,27.77a5.46,5.46,0,0,0,1.3.17c8.49,0,10.57-22.62,1-34.12a25.52,25.52,0,0,1,2.86,3.37h0l0,0,0,0h0a25.56,25.56,0,0,1,4.18,9.75h0a.13.13,0,0,0,0,.06h0s0,0,0,.06v0l0,0v.09a.11.11,0,0,1,0,0v0s0,0,0,.06v.09a.13.13,0,0,0,0,.06h0s0,0,0,.07h0a45.52,45.52,0,0,1,.73,8.11c0,3.43-.37,6-.37,8s.41,3.35,2,4.21c3.74,2,8.14,2.32,8.14,10.49a31.65,31.65,0,0,1-.25,3.76c-1.46,11.88-5.4,21-10.59,21.59h-.5c-3.76,0-5-1.14-5-1.14h-.06a7.41,7.41,0,0,1-3.1-.54,1.08,1.08,0,0,0,.29-.48,2.47,2.47,0,0,0,2,.86,1.22,1.22,0,0,0,.77-.2,5.06,5.06,0,0,0,3.18,1c1,0,2-.27,2.23-.92.74-2.28-1.18-4.7-3.61-5a2.11,2.11,0,0,0-.35,0c-2.11,0-2.42,2.19-1.89,4.34-1.44-1.68-.08-4.43-1.14-4.58h-.15c-1,0-1.5,1.45-1.22,3.93-1.1-2.27.48-4.25-.81-4.29h0c-1.12,0-1.36,1.78-1.4,2.17-.16-1.77.81-3,1.84-3h0a1.51,1.51,0,0,1,1.12.54h0a2.27,2.27,0,0,1,1.58-.58,4.39,4.39,0,0,1,1.85.47,1.79,1.79,0,0,1,.9-.19,4.62,4.62,0,0,1,2.42.81,8.8,8.8,0,0,0,2.42-5.06,4.06,4.06,0,0,1-.1.86c-.45,2.36,0,4,1,4s2.7-2,4.34-7.21c2.59-11.5-2.71-18-7.47-18.39-.34,0-.67,0-1,0-3.69,0-5.6,1.95-2.73,5.54a30,30,0,0,0-6.6-4.66h0c-2.16-1.36-5.27-3.53-8.11-5.76.87.65,1.77,1.3,2.71,1.94h0c-18.74-15-12.24-25-11.4-26.12l.09-.11-.09.11c-4.59,6-3.19,12.08,1.83,17.91-5.3.74-9.26,4.6-9.74,5.53h0a37.78,37.78,0,0,1-3.13,3.65c-2.78,1.64-4.9,2.81-5.94,2.81-.65,0-.88-.46-.56-1.56.86-2.94.94-8.44,1.48-10s1.69-4.6.63-6.82c-.18-.36-.27-.53-.32-.53a16.38,16.38,0,0,1-.62,5.34c-.54-4-1-4.57-2.18-6.28,0,0,2.57,7.8-.46,21.33h0C72,110.78,64.43,124.3,60,129.47a9.86,9.86,0,0,1-8.18,3.86" fill="#776171"/><path id="path8792" d="M35.77,77.45a9.55,9.55,0,0,0-1.38-5.19h0a9.53,9.53,0,0,1,1.39,5,1.09,1.09,0,0,1,0,.18h0m18.44-7.32h0a25.14,25.14,0,0,1-3.83-2.69h0a25.14,25.14,0,0,0,3.83,2.69" fill="#c0b1b9"/><path id="path8794" d="M35.77,77.44a1.09,1.09,0,0,0,0-.18,9.53,9.53,0,0,0-1.39-5,9.46,9.46,0,0,0,3.34.6,10.38,10.38,0,0,0,2.07-.21,9.58,9.58,0,0,0,5.43-3.26s2.17-.73,5.15-2a25.14,25.14,0,0,0,3.83,2.69,11.47,11.47,0,0,1-3.05-.83,4.58,4.58,0,0,0-1.94-.57,4.33,4.33,0,0,0-2.53,1.21c-1.92,1.44-4.08,3.79-7.45,3.79l-.44,0c-1.39-.16-2.35-.37-2.88-.37s-.58.14-.45.56a8.19,8.19,0,0,1,.3,3.54" fill="#574250"/><path id="path8796" d="M59,100.32a.44.44,0,0,1-.15,0,69.94,69.94,0,0,1-10.82-4,0,0,0,0,1,0,0h0l-.19-.07h0l.19.07a100.76,100.76,0,0,0,11,3.61l.13.25a.17.17,0,0,1-.18.14" fill="#a18e9b"/><path id="path8798" d="M59.16,100.18,59,99.93a100.76,100.76,0,0,1-11-3.61l-.19-.07c-.42-.2-.85-.42-1.29-.65,3.71,1.37,7.29,2.53,9.13,2.53,1.07,0,1.54-.39,1.1-1.37-1.81-3.84-7.16-10-7.16-10,5.7,5.22,9.84,12.31,9.54,13.4" fill="#4a3642"/><path id="path8800" d="M74.71,102.62h0a14.13,14.13,0,0,0,8-4.3c.17-.09.34-.2.51-.3-3,3.72-8.48,4.6-8.48,4.6" fill="#a18e9b"/><path id="path8802" d="M74.71,102.62c3-13.53.46-21.33.46-21.33,1.17,1.71,1.64,2.25,2.18,6.28A16.38,16.38,0,0,0,78,82.23s.14.17.32.53c1.06,2.22-.08,5.27-.63,6.82s-.62,7-1.48,10c-.32,1.1-.09,1.56.56,1.56,1,0,3.16-1.17,5.94-2.81a14.13,14.13,0,0,1-8,4.3" fill="#4a3642"/><path id="path8804" d="M102.41,95.41a44.51,44.51,0,0,1-6.86-6.27l.31,0c1,1.61,3.61,4,6.55,6.31" fill="#36252e"/><path id="path8806" d="M105.12,97.35c-.94-.64-1.84-1.29-2.71-1.94-2.94-2.32-5.58-4.7-6.55-6.31l-.31,0c-5-5.83-6.42-12-1.83-17.91-.84,1.14-7.34,11.07,11.4,26.12M93.72,71.23l.09-.11-.09.11" fill="#4a3642"/><path id="path8808" d="M44.45,28.1a24,24,0,0,0-18.9,1.46C18.39,23,8,21.75,6.22,22.35S7.69,37.8,10.28,42.09C6.57,49.39,3.89,54.29,0,52.31A2.27,2.27,0,0,0,2.25,54.8a3,3,0,0,0,.09,4,2.67,2.67,0,0,1,2-2.67s.1,7.1,13.2,11C25,69.4,32.2,71,32.2,71a9.09,9.09,0,0,0,7.6,1.63,9.58,9.58,0,0,0,5.43-3.26s10.53-3.52,17-8.16,11.4-11.93,8-14.6c1.55,0,2.33.69,2.33,1a4.3,4.3,0,0,0-2.33-3.35,3.83,3.83,0,0,0,2.85-2.49s-5,3.78-11.57-4.38c.43-8.24-1.64-18.8-4.83-19.74C55.33,17.28,45.49,26,44.45,28.1" fill="#a18e9b"/><path id="path8810" d="M15.74,63.07c-4.14-1.77-7.47-7.51-1.87-10.58,0,0-5.68,5.33,1.87,10.58" fill="#e2d1dc"/><path id="path8812" d="M48.39,48.44a6.74,6.74,0,0,0-.73-.2A4.74,4.74,0,0,0,46.08,48a3.6,3.6,0,0,0-.66.06,6,6,0,0,0-1.38.18,2.77,2.77,0,0,1,1.19-.54s-1.82-3.53-.25-4.91a.62.62,0,0,1,.32-.09c1,0,2.43,2.55,1.36,5,0,0,1.38.3,1.73.84m-3-5.44h-.08c-.58.1-.86,1.23-.63,2.52S45.44,47.7,46,47.7h.08c.57-.1.86-1.23.63-2.52S45.89,43,45.34,43" fill="#776171"/><path id="path8814" d="M26.73,50.84A1.88,1.88,0,0,1,27.86,50s-2.41-4.47-.24-5.25a1.23,1.23,0,0,1,.48-.09c1.7,0,1.76,3.81,1.44,4.9a1.5,1.5,0,0,1,.45-.07,1.32,1.32,0,0,1,.93.36,4.23,4.23,0,0,0-.63,0H30a2,2,0,0,0-.35,0,3.56,3.56,0,0,0-1.44.35,6.18,6.18,0,0,0-1.51.74M27.9,45h-.08c-.57.09-.86,1.22-.63,2.52s.81,2.17,1.36,2.17h.08c.57-.1.86-1.22.63-2.52S28.45,45,27.9,45" fill="#776171"/><path id="path8816" d="M72.59,47.58h0a4.15,4.15,0,0,0-1.16-2.43,4.08,4.08,0,0,1,1.16,2.44m-.15-.25h0m0,0a3.1,3.1,0,0,0-2.17-.68h0a3.1,3.1,0,0,1,2.17.68m-1-2.18h0m-61.15-3a12.48,12.48,0,0,1-.68-1.33,12.48,12.48,0,0,0,.68,1.33h0m51.26-4.72h0a48.44,48.44,0,0,0-1-12.6,48.44,48.44,0,0,1,1,12.6m-36-7.81a28.58,28.58,0,0,0-9.8-5.67,28.58,28.58,0,0,1,9.8,5.67m18.9-1.46h0m0,0v0m0,0a1,1,0,0,0,.09-.15,1,1,0,0,1-.09.15m.09-.15h0m0,0v0m0,0h0m0,0h0m0,0h0m15.89-3.09h0m-44.76-.88h0" fill="#c0b1b9"/><path id="path8818" d="M37.73,72.87A8.67,8.67,0,0,1,32.2,71S25,69.4,17.53,67.16c-13.07-3.88-13.2-11-13.2-11h0a2.67,2.67,0,0,0-2,2.54v.13a2.82,2.82,0,0,1-.87-2,3.46,3.46,0,0,1,.78-2.06h0A2.27,2.27,0,0,1,0,52.56a2.18,2.18,0,0,1,0-.25,3.7,3.7,0,0,0,1.68.44c3,0,5.44-4.46,8.59-10.66h0a12.48,12.48,0,0,1-.68-1.33c-.29-.64-.58-1.39-.87-2.21h.15c.93,0,1.84-.46.95-2.64-1.56-3.82-3.12-9.71-2.28-12,.07-.31.42-.45,1-.45,2.35,0,8.39,2.72,11.6,5.92a1.46,1.46,0,0,0,1,.43,2.91,2.91,0,0,0,1.52-.74c.45-.29-3-3.76-8.4-5.71.5.15,1,.32,1.53.5h0a28.58,28.58,0,0,1,9.8,5.67h0C16.24,34.33,11.22,41.8,9.64,45.37s-4.12,7.46-6.54,8a1.77,1.77,0,0,0,1.05.26,16.12,16.12,0,0,0,4.77-1.29l-1.23.74a6.39,6.39,0,0,0-1.08.53,3.54,3.54,0,0,0-.8.61l-1.74,1c.22-.12,3-1.09,5.31-1.86a13.63,13.63,0,0,1,1.75-.12h.13a2.61,2.61,0,0,0-.57-.3c.84-.27,1.54-.48,1.89-.55-5.2,3.73-2.75,11.14,7.93,14.07,5.14,1.41,8.88,3.19,9.69,3.19.28,0,.21-.22-.3-.75s-.69-.89-.44-.89a13.1,13.1,0,0,1,3.17,1.44,13.53,13.53,0,0,0,3.52,1.6c.29,0,.31-.22-.06-.78-.88-1.31-.17-2.14-1.22-2.14a4.15,4.15,0,0,0-.75.08,3.83,3.83,0,0,1-.6,0c-2.26,0-5.37-1.93-5.69-4.72a7,7,0,0,1,3-6.5,1.13,1.13,0,0,0,0,.45c-.22.19-.43.39-.64.6a5.7,5.7,0,0,0-1.78,5.54c-.09,1.21.66,2.51,3.11,3.52a6,6,0,0,0,2.35.46A7.41,7.41,0,0,0,36.7,67c0,.13,0,.33,0,.57,0,1.11.3,3.13,2.41,3.13a4.27,4.27,0,0,0,.59,0h0c3.32-.5,2.16-4.13,2-4.66a4.29,4.29,0,0,0,1.07.13c3.18,0,6.85-3.19,7.44-4.93a2.15,2.15,0,0,0-.08-1.69c-.15-2.24-2.7-3.51-5.29-4.23a1.69,1.69,0,0,0-.48-.56c4,.79,6.32,2.83,6.32,5.21,0,5.56-7.89,6.42-7.78,8.38,0,1,.1,1.39.43,1.39s1.06-.5,2.42-1.44c1.77-.5,8.29-4.22,8.29-4.22,21.85-10.5,5.86-18.86,5.86-18.86s4,.36,7,.36c.68,0,1.3,0,1.82-.07-.24-.38-1.72-.85-3.12-1.27a6.17,6.17,0,0,0-1.14-.34,8,8,0,0,1-1.35-.48,11.18,11.18,0,0,0,2.73.23,8.34,8.34,0,0,0,3-.36,14,14,0,0,1-7.29-4.94,31.72,31.72,0,0,0-17-10.23h0v0h0a1,1,0,0,0,.09-.15h0v0h0c1-1.66,5.43-5.75,8.67-8.22a25,25,0,0,0-3.17,3.58c-2.59,3.51-3.32,3.92-.1,4.65a30.63,30.63,0,0,1,7.13-10c1.4.81,2.56,3.49,3.35,6.94h0a48.44,48.44,0,0,1,1,12.6h0C65,41.61,67.93,42.62,70,42.62a5.47,5.47,0,0,0,3.09-.87,3.83,3.83,0,0,1-2.85,2.49h0a5.05,5.05,0,0,1,1.16.89h0a4.15,4.15,0,0,1,1.16,2.43.47.47,0,0,0-.15-.24h0a3.1,3.1,0,0,0-2.17-.68h0A2.91,2.91,0,0,1,71.35,49c0,3.39-4.09,8.61-9.12,12.21-6.47,4.64-17,8.16-17,8.16a9.58,9.58,0,0,1-5.43,3.26,10.38,10.38,0,0,1-2.07.21m-25-34.28h0c2.7-3.2,8.41-6.5,8.41-6.5h0c-3.67-5.35-10-7.71-12-7.71a1.11,1.11,0,0,0-.46.07c-1.14.51-.52,5.37,4,14.14m38.1-8.77h0a30,30,0,0,1,9,5.68h0c2.18-11.78-3-16.32-3-16.32a14.12,14.12,0,0,0-6,10.64h0M37,66.47a8.58,8.58,0,0,0,2.09-2,2.14,2.14,0,0,1-.54,1,7.15,7.15,0,0,1-1.55,1m5.66-.58a2.73,2.73,0,0,1-.41,0l-.4-.08.43,0a8.79,8.79,0,0,0,2.58-.44,5.65,5.65,0,0,1-2.2.53M29.5,65.67a2.71,2.71,0,0,1-.89-1.4,5.28,5.28,0,0,0,.89,1.4" fill="#776171"/><path id="path8820" d="M72.59,47.59h0" fill="#c0b1b9"/><path id="path8822" d="M72.59,47.58h0" fill="#776171"/><path id="path8824" d="M39.1,54.39s11.8.53,10.94,5.92c-.82,5.1-10.15,7.3-10.69,3.73,0,0-2.43,4-6.54,3.39s-6.5-5.4-2.64-9.32a12.9,12.9,0,0,1,8.93-3.72" fill="#fff"/><path id="path8826" d="M39.75,64.82c3.23,3.71,9.61-1.26,10.4-3.6s-2-3.36-2.9-2.93A3,3,0,0,1,49.88,60c.68,1.65-4.51,6.31-7.68,5.89s-2.82-5-2.82-5l-.21.08s.47,3.45-.67,4.49-4.41,2.7-6.95,1.49S27.81,64.44,29,62c-1.06,1.52-1.17,3.66,2.47,5.16s7.29-1,8.25-2.35" fill="#543f4f"/><path id="path8828" d="M41.35,54A27.62,27.62,0,0,0,33,55.3c-3.36,1.34-2.68,3.48,1.35,5.54s7.14-.24,9.35-2.58,1.58-4.1-2.3-4.3" fill="#f682a6"/><path id="path8830" d="M37.39,61.63h0m0,0a6.7,6.7,0,0,1-3-.74,6.7,6.7,0,0,0,3,.74m-3.08-.79h0l-.07,0,.07,0h0m-.08,0h0m0,0h0m0,0h0m0,0h0m0,0h0m0,0h0m0,0h0m0,0,0,0,0,0m0,0h0m0,0h0m0,0h0m0,0h0m0,0h0m0,0h0m0,0h0m0,0h0m0,0h0m0,0h0m0,0h0m0,0h0m0,0h0m0,0h0m0,0h0m9.79-2.13h0m.12-.12,0,0h0l0,0m0,0a5.39,5.39,0,0,0,1.07-1.52,5.39,5.39,0,0,1-1.07,1.52m1.07-1.53h0" fill="#fac2d6"/><path id="path8832" d="M37.39,61.63h0a6.7,6.7,0,0,1-3-.74l-.11,0h0l-.07,0h-.17l0,0h-.32c-3.44-1.92-3.94-3.88-.95-5.15-1.21,1.76,1.16,4.55,4.62,4.55a7.3,7.3,0,0,0,3.57-1c2.35-1.32,3.44-2.48,3.9-3.41a1.79,1.79,0,0,1-.13,1.18h0a5.39,5.39,0,0,1-1.07,1.52v0h0l0,0-.11.11h0c-1.58,1.65-3.62,3.23-6.11,3.23h0" fill="#f35c86"/><path id="path8834" d="M43.32,55.54a.13.13,0,0,1-.08,0,14.08,14.08,0,0,0-3.9-.54,11.27,11.27,0,0,0-1.9.14,6.48,6.48,0,0,1,3-.78,4.58,4.58,0,0,1,2.32.6c.5.3.71.6.58.6" fill="#fbcee4"/><path id="path8836" d="M36.3,55.6c-.14,0-.24,0-.26-.1s.17-.25.44-.32a1,1,0,0,1,.29,0c.14,0,.24,0,.26.1s-.17.25-.44.32a1.11,1.11,0,0,1-.29,0" fill="#fbcee4"/><path id="path8838" d="M27.19,47.54c.22,1.29.87,2.26,1.44,2.16s.86-1.22.63-2.52-.87-2.26-1.44-2.16-.86,1.22-.63,2.52" fill="#332b2f"/><path id="path8840" d="M27.35,46.74c.06.51.3.9.56.88s.42-.47.37-1-.3-.9-.55-.88-.43.46-.38,1" fill="#fff"/><path id="path8842" d="M44.63,45.52c.22,1.3.87,2.27,1.44,2.17s.86-1.23.63-2.52S45.83,42.9,45.26,43s-.86,1.23-.63,2.52" fill="#332b2f"/><path id="path8844" d="M44.79,44.72c.06.51.3.91.56.88s.42-.46.37-1-.3-.91-.55-.88-.43.46-.38,1" fill="#fff"/><path id="path8846" d="M43.48,40.4c.28-2.09,1-3,1.81-3s1.48.75,2,2a2.35,2.35,0,0,0-1.64-1c-.64,0-1.39.45-2.13,2" fill="#826d7e"/><path id="path8848" d="M23.93,42.39c.38-1.93,1.22-2.65,2.11-2.65a3.14,3.14,0,0,1,2.46,1.82,2.85,2.85,0,0,0-2-1.05c-.76,0-1.66.44-2.58,1.88" fill="#826d7e"/><path id="path8850" d="M47.32,39s-1.94-2.79-3.77,1c.53-4,2.77-3.6,3.77-1" fill="#5c4b58"/><path id="path8852" d="M28.56,41.12S26.33,38.28,24,42c.78-4,3.53-2.79,4.56-.83" fill="#5c4b58"/><path id="path8854" d="M53.37,51.86S39.52,46,21.45,54.18c5.3-4,22.74-7.58,31.92-2.32" fill="#543f4f"/><path id="path8856" d="M41.62,66s1.63,4.18-1.95,4.72-3-3.79-3-3.79,2.44-1.09,2.84-2.61A4.19,4.19,0,0,0,41.62,66" fill="#f682a6"/><path id="path8858" d="M39.39,68.94s0-.23,0-.58c0,.11,0,.22,0,.33l.13-.23c-.11.3-.19.48-.19.48" fill="#f03f67"/><path id="path8860" d="M59.86,35.5a30,30,0,0,0-9-5.68,14.12,14.12,0,0,1,6-10.64s5.19,4.54,3,16.32" fill="#f682a6"/><path id="path8862" d="M21.14,32.09s-5.71,3.3-8.41,6.5C8.17,29.82,7.55,25,8.69,24.45s8.41,1.75,12.45,7.64" fill="#f682a6"/><path id="path8864" d="M59.86,35.5a30,30,0,0,0-9-5.68,14.12,14.12,0,0,1,6-10.64l.15.14c-1,2.13-2.74,6.22-2.74,9,0,3.47,2.83,3.27,5.61,7.18v0h0" fill="#f03f67"/><path id="path8866" d="M12.73,38.59h0l-.1-.2c1.86-4.65,6.46-5.62,4.88-7.75A21.49,21.49,0,0,0,8.4,24.73a.6.6,0,0,1,.29-.28,1.11,1.11,0,0,1,.46-.07c2,0,8.32,2.36,12,7.71,0,0-5.71,3.3-8.41,6.5" fill="#f03f67"/><path id="path8868" d="M47.42,59.47a.29.29,0,0,0,.3.3.3.3,0,1,0,0-.6.29.29,0,0,0-.3.3" fill="#a18e9b"/><path id="path8870" d="M46.8,60.53a.3.3,0,0,0,.3.31.31.31,0,0,0,.31-.31.3.3,0,0,0-.31-.3.29.29,0,0,0-.3.3" fill="#a18e9b"/><path id="path8872" d="M47.42,61.12a.29.29,0,0,0,.3.3.3.3,0,1,0,0-.6.29.29,0,0,0-.3.3" fill="#a18e9b"/><path id="path8874" d="M31.11,63.42a.31.31,0,1,0,.31-.3.3.3,0,0,0-.31.3" fill="#a18e9b"/><path id="path8876" d="M31.48,64.34a.3.3,0,0,0,.3.31.31.31,0,1,0,0-.61.3.3,0,0,0-.3.3" fill="#a18e9b"/><path id="path8878" d="M31.28,65.32a.31.31,0,1,0,.61,0,.31.31,0,0,0-.61,0" fill="#a18e9b"/><path id="path8880" d="M47.72,59.47l.23,0h.62l.42,0,.45-.08,1-.18a7.12,7.12,0,0,0,1-.27c.31-.09.59-.19.83-.27l.57-.22.22-.09-.24,0-.6.11c-.25,0-.54.11-.85.18l-.47.12a3.88,3.88,0,0,1-.49.11c-.33.07-.66.14-1,.22l-.45.11-.4.07c-.24.05-.45.11-.6.13l-.23,0" fill="#5e565e"/><path id="path8882" d="M47.1,60.53l.27.06.72.15c.59.1,1.38.22,2.18.32s1.59.16,2.19.19l.73,0h.28l-.27-.07-.72-.14c-.59-.11-1.38-.23-2.18-.32s-1.59-.16-2.19-.19l-.73,0H47.1" fill="#5e565e"/><path id="path8884" d="M47.72,61.12l.24.13.62.32.88.45c.33.15.67.32,1,.5s.68.35,1,.5l.87.46.61.34.24.12L53,63.77c-.13-.11-.31-.27-.55-.45s-.52-.35-.83-.54l-1-.54c-.35-.16-.69-.34-1-.47s-.65-.27-.93-.36c-.55-.19-.93-.29-.93-.29" fill="#5e565e"/><path id="path8886" d="M31.42,63.42l-.31,0-.81,0-2.45-.1c-.45,0-.89,0-1.31-.06l-.6,0-.54,0c-.16,0-.31,0-.45-.05l-.35,0-.31,0,.3.09.34.1a4,4,0,0,0,.44.12l.54.09c.19,0,.4.07.61.09.41,0,.86.09,1.31.1l.67,0c.22,0,.44,0,.65,0,.42,0,.81,0,1.15,0l.81-.07.31,0" fill="#5e565e"/><path id="path8888" d="M31.78,64.34l-.27,0-.7.1-1,.16-1.13.2-2.12.38-.7.1-.27.05.27,0c.18,0,.42,0,.72,0s.64,0,1-.08.75-.1,1.14-.17.77-.14,1.13-.23.69-.17,1-.26l.68-.21.25-.1" fill="#5e565e"/><path id="path8890" d="M31.59,65.32l-.24.09-.61.25-.85.37-1,.44-1,.45-.84.38-.58.3-.23.12.24-.07.64-.18.88-.29c.32-.13.65-.28,1-.43s.66-.31,1-.47l.81-.46c.47-.28.77-.5.77-.5" fill="#5e565e"/><path id="path8892" d="M72.59,47.59h0" fill="#a18e9b"/><path id="path8894" d="M4.06,55.24l-.12.11.12-.11" fill="#a18e9b"/><path id="path8896" d="M44.45,28.1a12.48,12.48,0,0,1-1.89-.58,13.06,13.06,0,0,1,1.89.58" fill="#a18e9b"/><path id="path8898" d="M66.28,43.21a2,2,0,0,1-.27-.15l.27.15" fill="#a18e9b"/><path id="path8900" d="M29.56,50.75A22.84,22.84,0,0,1,40,48.44,29,29,0,0,1,49.17,50a31.06,31.06,0,0,0-7.74-.85,41.79,41.79,0,0,0-8.54.9c-1.15.22-2.27.47-3.33.75" fill="#e2d1dc"/><path id="path8902" d="M29.14,51l.42-.23c1.06-.28,2.18-.53,3.33-.75-1.21.26-2.46.58-3.75,1" fill="#c4adbe"/><path id="path8904" d="M52.31,32s-8.83-4.4-16.09-4.4a13.85,13.85,0,0,0-2.68.24,9,9,0,0,1,4-.77c4,0,9.42,1.61,14.8,4.93" fill="#e2d1dc"/><path id="path8906" d="M21.87,54.08l.84-.45a46.53,46.53,0,0,1,18.21-3.81,38.43,38.43,0,0,1,10.53,1.4l.21.08a54.4,54.4,0,0,0-9.88-.82,53.76,53.76,0,0,0-19.91,3.6" fill="#776171"/><path id="path8908" d="M22.71,53.63a41.08,41.08,0,0,1,18.07-4.19,30.31,30.31,0,0,1,10.67,1.78,38.43,38.43,0,0,0-10.53-1.4,46.53,46.53,0,0,0-18.21,3.81" fill="#3e2c38"/><path id="path8910" d="M19.66,28.15a.46.46,0,0,1-.18-.09A21,21,0,0,0,7.34,22.9c.41,0,.82-.06,1.22-.06a15,15,0,0,1,8.34,2.65c2,1.33,3,2.66,2.76,2.66" fill="#e2d1dc"/><path id="path8912" d="M49.27,26.8c-.39,0,1.84-5.44,6.54-8.34a95.07,95.07,0,0,0-6.33,8.16q-.15.18-.21.18" fill="#e2d1dc"/><path id="path8914" d="M66.42,43.09l-.39,0h0a5.51,5.51,0,0,1-4.49-3.78s2.34,3.06,5.54,3.74a3.77,3.77,0,0,1-.66.06" fill="#e2d1dc"/><path id="path8916" d="M66,43.07h0" fill="#e2d1dc"/><path id="path8918" d="M66.9,44.91a16.67,16.67,0,0,0-4.34-.51c-.91,0-1.53.05-1.53.05a4.86,4.86,0,0,1,2.43-.66,5.39,5.39,0,0,1,1,.09l1.14.34a8,8,0,0,1,1.33.69" fill="#e2d1dc"/><path id="path8920" d="M65.57,44.22l-1.14-.34a6.17,6.17,0,0,1,1.14.34" fill="#d1bcca"/><path id="path8922" d="M4.87,53.09A2,2,0,0,1,4.33,53a8.4,8.4,0,0,0,4.59-4.64c.07,2.26-2.13,4.71-4,4.71" fill="#e2d1dc"/><path id="path8924" d="M5.75,54.45c-.12,0-.09-.1.06-.25l1.88-1.14a5.08,5.08,0,0,1,1.74-.34,3.28,3.28,0,0,1,1.26.24c-.41.12-.85.27-1.31.42a10.17,10.17,0,0,0-3.11.88,1.3,1.3,0,0,1-.52.19" fill="#e2d1dc"/><path id="path8926" d="M5.81,54.2a3.54,3.54,0,0,1,.8-.61,6.39,6.39,0,0,1,1.08-.53L5.81,54.2m3.57-.82c.46-.15.9-.3,1.31-.42a2.61,2.61,0,0,1,.57.3h-.13a13.63,13.63,0,0,0-1.75.12" fill="#d1bcca"/><path id="path8928" d="M41.62,66h0m0,0h0m0,0h0" fill="#52303f"/><path id="path8930" d="M39.08,70.73c-2.11,0-2.41-2-2.41-3.13a5.75,5.75,0,0,1,0-.71s2.44-1.09,2.84-2.61A4.19,4.19,0,0,0,41.62,66h0a5.55,5.55,0,0,1,.29,2.79c0-.36-.08-2.31-1.23-2.79a.27.27,0,0,0-.16,0c-.43,0-.31,1.37-.94,2.55,0,0,0-.08.05-.13a4.29,4.29,0,0,0,.18-.65c0-.12,0-.24.07-.37a2.6,2.6,0,0,0,0-.39,5.08,5.08,0,0,0,0-.78,3.48,3.48,0,0,0,0-.36l-.08-.31-.09-.26-.1-.19-.12-.14.06.17,0,.2,0,.25,0,.31v.34a2.36,2.36,0,0,1,0,.37c0,.12,0,.24,0,.37s0,.25,0,.38,0,.25,0,.37l0,.34,0,.31a.17.17,0,0,1,0,.07c-.06-1.14-.68-1.75-1.21-1.75-.36,0-.68.28-.76.86-.19,1.41.69,2.93,2.11,2.93l.32,0a2.53,2.53,0,0,0,1.75-.93,2.49,2.49,0,0,1-2,1.24h0a4.27,4.27,0,0,1-.59,0" fill="#f35c86"/><path id="path8932" d="M39.45,68.69c0-.11,0-.22,0-.33a.17.17,0,0,0,0-.07l0-.31,0-.34c0-.12,0-.25,0-.37s0-.25,0-.38,0-.25,0-.37a2.36,2.36,0,0,0,0-.37v-.34l0-.31,0-.25,0-.2-.06-.17.12.14.1.19.09.26.08.31a3.48,3.48,0,0,1,0,.36,5.08,5.08,0,0,1,0,.78,2.6,2.6,0,0,1,0,.39c0,.13-.05.25-.07.37a4.29,4.29,0,0,1-.18.65s0,.09-.05.13l-.13.23" fill="#ec3054"/><path id="path8934" d="M40.55,69.7l-.2,0a2.19,2.19,0,0,0,.82-2.58c.89,1.23.33,2.6-.62,2.6" fill="#fbcee4"/><path id="path8936" d="M48.66,48.67a10.3,10.3,0,0,0-2.88-.46,5.13,5.13,0,0,0-1.83.3,5.12,5.12,0,0,1,1.47-.5h.19a9.86,9.86,0,0,1,2,.24,10,10,0,0,1,1,.43" fill="#e2d1dc"/><path id="path8938" d="M47.66,48.24a9.86,9.86,0,0,0-2-.24h-.19a3.6,3.6,0,0,1,.66-.06,4.74,4.74,0,0,1,1.58.29" fill="#d1bcca"/><path id="path8940" d="M26.85,51.09a5,5,0,0,1,1.39-1A6.85,6.85,0,0,1,30,49.78a1.55,1.55,0,0,1,.77.33,3.84,3.84,0,0,0-.43,0,6.12,6.12,0,0,0-3.52,1" fill="#e2d1dc"/><path id="path8942" d="M28.24,50.1a3.56,3.56,0,0,1,1.44-.35,2,2,0,0,1,.35,0,6.85,6.85,0,0,0-1.79.32" fill="#d1bcca"/><path id="path8944" d="M58.71,61c10.5-8.63,1.83-14.51,1.83-14.51C68.7,50.74,63,59.06,58.71,61" fill="#e2d1dc"/><path id="path8946" d="M118.76,74c-5.71-15.41-18-16.91-22.54-16.91a14.42,14.42,0,0,0-1.76.09,26.16,26.16,0,0,1,4.36-.38c13.21,0,18.66,11.09,19.94,17.2" fill="#e2d1dc"/><path id="path8948" d="M4.87,123.89c.62-2.09,2.57-3.8,4.44-2.87,3.35-5.65,10.67-16.49,15.34-22.61,4.43-5.81,9.07-12.7,10.6-17.81C33.2,91.46,48,96.32,48,96.32s-4,3.89-13.18,9.14c-11.14,6.35-16.51,11.31-16.82,12s2,1.63,1.17,7.13-6.54,7.74-9.66,4.8A3.56,3.56,0,0,1,6.35,128c-.62.16-2.1-2-1.48-4.1" fill="#745b6f"/><path id="path8950" d="M12.85,130.69a4.78,4.78,0,0,1-3.31-1.3,1.64,1.64,0,0,1-.4,0A3.67,3.67,0,0,1,6.35,128H6.29a.45.45,0,0,1-.16,0l.16,0h.06a3.67,3.67,0,0,0,2.79,1.44,1.64,1.64,0,0,0,.4,0,4.78,4.78,0,0,0,3.31,1.3c2.79,0,5.75-2.26,6.35-6.1a15.26,15.26,0,0,0,.19-2.26,15.26,15.26,0,0,1-.19,2.26c-.6,3.84-3.56,6.1-6.35,6.1M6.13,128h0m3.18-7a2.38,2.38,0,0,0-1.08-.26h0a2.38,2.38,0,0,1,1.08.26m0,0c.24-.41.51-.85.8-1.32-.29.47-.56.91-.8,1.32m-1.17-.26h0m0,0h0M18,117.6a.32.32,0,0,1,0-.14c.31-.69,5.68-5.65,16.82-12,8.82-5,12.86-8.83,13.16-9.12h0c-6.13,6-6.6,5.37-13.16,9.12-11.14,6.35-16.51,11.31-16.82,12a.32.32,0,0,0,0,.14" fill="#c0b1b9"/><path id="path8952" d="M48,96.34h0l0,0h0a0,0,0,0,0,0,0" fill="#776171"/><path id="path8954" d="M21.5,102.68c1.12-1.56,2.19-3,3.15-4.27-1,1.25-2,2.71-3.15,4.27" fill="#c0b1b9"/><path id="path8956" d="M12.85,130.69a4.78,4.78,0,0,1-3.31-1.3,1.64,1.64,0,0,1-.4,0A3.67,3.67,0,0,1,6.35,128H6.29l-.16,0h0a3.56,3.56,0,0,1-1.39-2.79c.16.73.65,1.56,1.12,1.56a.48.48,0,0,0,.39-.23A2.2,2.2,0,0,0,8,128.31a.55.55,0,0,0,.54-.34,2.92,2.92,0,0,0,2.67,1.14c.21,0,.43,0,.66,0,1.93-.23,2.91-3.58,1.32-5.12a2.41,2.41,0,0,0-1.7-.72c-1.32,0-2.69,1.09-3.18,3-.19-2.94,1.63-3.58,1-3.88a1,1,0,0,0-.44-.1c-.65,0-1.59.54-2.58,2.21.22-2.59,2.27-2.75,1.55-3.12a.46.46,0,0,0-.23,0c-.82,0-2.31,1.48-2.31,1.48h0a3.65,3.65,0,0,1,2.81-2.06h.09a2.38,2.38,0,0,1,1.08.26h0c.24-.41.51-.85.8-1.32s.59-1,.91-1.47a2.55,2.55,0,0,0,2.34,3.64,2.5,2.5,0,0,0,2-1c1.78-2.33-.75-4.19,2.34-6.23,5.7-4.19,10.1-7.91,15.52-12.19s3.92-11,1.31-12.64a.91.91,0,0,0-.51-.14c-3.09,0-11,12.34-15.38,17.25l-.49.53c1.13-1.64,2.26-3.25,3.34-4.76s2.19-3,3.15-4.27h0c4.43-5.81,9.07-12.7,10.6-17.81a10.34,10.34,0,0,0-.2,2h0c0,9.44,13,13.69,13,13.69l0,0c-.3.29-4.34,4.08-13.16,9.12-11.14,6.35-16.51,11.31-16.82,12a.32.32,0,0,0,0,.14c0,.58,1.39,1.46,1.39,4.73a15.26,15.26,0,0,1-.19,2.26c-.6,3.84-3.56,6.1-6.35,6.1" fill="#553f4f"/><path id="path8958" d="M14.33,115.05C17,108.28,28.11,95.62,31.6,93c0,0-11.51,12.67-17.27,22" fill="#a18b9c"/><path id="path8960" d="M10.89,124.05s-2,.54-2,3.45c.12,1.19-.84-.65.31-2.6s2.4-1.42,1.7-.85" fill="#a18e9b"/><path id="path8962" d="M8.41,122.78s-2,1.11-1.46,4.1c.19.85-.81-1-.16-2.6s1.7-1.84,1.62-1.5" fill="#a18e9b"/><path id="path8964" d="M6.88,122a3.57,3.57,0,0,0-1.64,3.84c.13.82-.72-1,0-2.5S7,121.71,6.88,122" fill="#a18e9b"/><path id="path8966" d="M47.46,131a3,3,0,0,1,.36-2,3.34,3.34,0,0,1,3.2-2h.1a5.53,5.53,0,0,0-3.59,3.87c0,.07,0,.1-.07.1" fill="#e2d1dc"/><path id="path8968" d="M45,129.39a2.87,2.87,0,0,1,.36-2,3.32,3.32,0,0,1,3.19-2h.1a5.53,5.53,0,0,0-3.59,3.87c0,.07,0,.1-.06.1" fill="#e2d1dc"/><path id="path8970" d="M43.63,128a3.35,3.35,0,0,1,2.61-4.27,5.08,5.08,0,0,0-2.56,4.16c0,.07,0,.11,0,.11" fill="#e2d1dc"/><path id="path8972" d="M116.6,131.41a3.3,3.3,0,0,1-.84-2.49c0-1.38.64-2,.94-2,.11,0,.17.08.15.22s-1.33,1.22-.25,3.82c.08.29.07.41,0,.41" fill="#e2d1dc"/><path id="path8974" d="M114.08,131a3.36,3.36,0,0,1-.83-2.5c0-1.38.64-2,.93-2,.11,0,.18.07.15.21s-1.33,1.22-.25,3.83c.08.28.07.41,0,.41" fill="#e2d1dc"/><path id="path8976" d="M112.26,130.6a3.36,3.36,0,0,1-1-2.44c-.08-1.4.54-2,.84-2,.1,0,.16.07.14.2s-1.26,1.29,0,3.84c.1.28.09.4,0,.4" fill="#e2d1dc"/><path id="path8978" d="M123.5,121.46c2.22-11.26-5.6-16.37-5.6-16.37,5.84,2.32,7.94,10,5.6,16.37" fill="#e2d1dc"/><path id="path8980" d="M61.94,117.07c5.45-19-5.61-26.79-5.61-26.79,10.12,6.5,9.5,19.2,5.61,26.79" fill="#e2d1dc"/><path id="path8982" d="M50,94.14c-6-1.77-13.78-7.36-11.23-14.21,0,0-2,7.74,11.23,14.21" fill="#e2d1dc"/><path id="path8984" d="M57.7,21.47a18.57,18.57,0,0,1,1.67,11.18A12.46,12.46,0,0,0,57.7,21.47" fill="#fff"/><path id="path8986" d="M9.52,26.3a29.45,29.45,0,0,0,2.7,9.5,15.17,15.17,0,0,1-2.7-9.5" fill="#fff"/></g></g></g></g></svg>