<svg xmlns="http://www.w3.org/2000/svg" viewBox="0 0 178.59 133.33"><title>Dog</title><g id="Layer_2" data-name="Layer 2"><g id="svg2"><g id="g10"><g id="g12"><path id="path9944" d="M45,108c-1.08-2.32-4.07-3.78-6.24-4.85a36.91,36.91,0,0,0-7.16-2.6c-1.46-.36-3.72-.77-5,.3l-.28.1c-1.64,1.57-3.08,3.25-5.21,4.16-2.46,1-5.08,1.73-7.56,2.74a26.61,26.61,0,0,0-6.4,3.68,14.59,14.59,0,0,0-4,4.38A6.24,6.24,0,0,0,0,121.56c.14,3.5,4.07,5.62,7.18,4.35a9.49,9.49,0,0,0,3.91.55,3.87,3.87,0,0,0,2.34-.84,5,5,0,0,0,5.48-.47c1.27-1.06,1.46-2.88,1.26-4.42a8.06,8.06,0,0,0-.47-1.86,20.94,20.94,0,0,1,5.43-.5,33,33,0,0,0,7.08-.66,29.09,29.09,0,0,0,6.28-2.14A20.4,20.4,0,0,0,44,112.13l.06-.28a3.11,3.11,0,0,0,1-3.9" fill="#f39b39"/><path id="path9946" d="M45,108c-.82-1.77-2.75-3-4.58-4a10.49,10.49,0,0,1-.39,1.2,19.06,19.06,0,0,1-3.14,5.08c-2.55,3-6.15,5.74-10.17,6.12a8.24,8.24,0,0,1-5.39-1.26,16.9,16.9,0,0,0-3.63-2.16,14,14,0,0,0-3.89-.74,10.87,10.87,0,0,0-1.29.07c-1.31.12-2.94.24-3.46-.77a1.58,1.58,0,0,1,0-1.36,21.32,21.32,0,0,0-1.91,1.36,14.59,14.59,0,0,0-4,4.38A6.24,6.24,0,0,0,0,121.56c.14,3.5,4.07,5.62,7.18,4.35a9.49,9.49,0,0,0,3.91.55,3.87,3.87,0,0,0,2.34-.84,5,5,0,0,0,5.48-.47c1.27-1.06,1.46-2.88,1.26-4.42a8.06,8.06,0,0,0-.47-1.86,20.94,20.94,0,0,1,5.43-.5,33,33,0,0,0,7.08-.66,29.09,29.09,0,0,0,6.28-2.14A20.4,20.4,0,0,0,44,112.13l.06-.28a3.11,3.11,0,0,0,1-3.9" fill="#fbfbe7"/><path id="path9948" d="M10.3,125.82c-1.62,0-3.59-.47-4.29-1.86s.08-4,.7-5.46A13.73,13.73,0,0,1,9.06,115l.51-.39a2.87,2.87,0,0,1,1.6-.54,2.61,2.61,0,0,1,2.21,1.37c1.26,2.06,1.21,5.42.76,7.71a3.09,3.09,0,0,1-2.82,2.65,8.12,8.12,0,0,1-1,.06M11,114a1.27,1.27,0,0,0-.64.18l-.08,0a7.23,7.23,0,0,0-2.67,5.3,2.75,2.75,0,0,0,2.61,2.87,2.48,2.48,0,0,0,1-.23c2.28-1,2.47-3.72,2-5.9C13,115.21,12,114,11,114" fill="#ead9b6"/><path id="path9950" d="M25.81,116.38a8,8,0,0,1-4.5-1.3c-.77-.5-1.48-1.06-2.26-1.51l.31-.14c1.66-.73,7-1.17,6.16-4.05-.41-1.37-2.29-2-3.5-2.34a8.89,8.89,0,0,0-2.37-.32,15.15,15.15,0,0,0-3.67.54h-.21l-.13.08A23.73,23.73,0,0,0,9,110.48l-.07,0a1.64,1.64,0,0,1,.12-.4,21.32,21.32,0,0,0-1.91,1.36,26.61,26.61,0,0,1,6.4-3.68c2.48-1,5.1-1.69,7.56-2.74a10.06,10.06,0,0,0,2.25-1.38,22.74,22.74,0,0,0,1.56,2.54,23.19,23.19,0,0,0,3.74,3.67c1.27,1,4.1,3.22,1.95,4.87a9.28,9.28,0,0,1-3.75,1.56l-.13,0c-.3,0-.6,0-.89,0" fill="#e3832f"/><path id="path9952" d="M5.07,125.61l-.52,0a4.81,4.81,0,0,1-2.18-1,4.32,4.32,0,0,1-1.71-3.36A5.91,5.91,0,0,1,2,117.47a5.44,5.44,0,0,1,.79-.8l.1,0,.17-.21a13.45,13.45,0,0,1,2.34-1.17,13.91,13.91,0,0,0-2.84.94A6.31,6.31,0,0,0,.2,119.69a6.31,6.31,0,0,1,2.95-3.83,14.59,14.59,0,0,1,4-4.38h0A21.32,21.32,0,0,1,9,110.12a1.64,1.64,0,0,0-.12.4c-1.25.8-3,1.69-3.58,3.16-.35.37-.61.82-.17,1.1a2.42,2.42,0,0,0,1.24.27,4.23,4.23,0,0,0,1.42-.24.24.24,0,0,0,.14,0,.21.21,0,0,0,.17-.1,3.57,3.57,0,0,1,3-1.5,2.81,2.81,0,0,1,.73.09c.88.24,1.58,1,2.45,1.28a2.82,2.82,0,0,0,.92.15,10.38,10.38,0,0,0,3.85-1.21c.78.45,1.49,1,2.26,1.51a8,8,0,0,0,4.5,1.3c.29,0,.59,0,.89,0l.13,0h0c-1.55.34-3.14.75-4.7,1a6.81,6.81,0,0,1-1.07.09,6.56,6.56,0,0,1-2.57-.57,4.84,4.84,0,0,0-.84-.72,5.93,5.93,0,0,0-2.49-.74,1,1,0,0,0-.85.34,6.39,6.39,0,0,0-.56-1,2.93,2.93,0,0,0-2.44-1.31,3.2,3.2,0,0,0-1.33.29c-1.61.75-2.76,2.62-3.54,4.14l.08.13c-.2.36-.39.72-.56,1.1-.72,1.68-1.26,4-.22,5.68a3.08,3.08,0,0,0,.77.8c-.47,0-.93.09-1.4.09m-.15-9.56c-1.36,0-2.73,1.49-3.3,2.5-.8,1.39-1,3.28.6,4.12a2.09,2.09,0,0,0,.92.23A1.29,1.29,0,0,0,4.43,122l.06-.16a9.81,9.81,0,0,1,1.23-4.11c.18-.4.51-1.3-.08-1.57a1.86,1.86,0,0,0-.72-.15m11,9.5a5.59,5.59,0,0,1-2.05-.4,3.69,3.69,0,0,0,.71-1.24,12.7,12.7,0,0,0,.37-4.76,10.59,10.59,0,0,0-.55-3,.84.84,0,0,1,.64-.24,4.16,4.16,0,0,1,.87.14c-.6.3-.12,1.88.18,2.9.22.73.18,1.52.41,2.25a1.18,1.18,0,0,0,1.09.88,1.21,1.21,0,0,0,1-.6,3.5,3.5,0,0,0,.1-3.23,5,5,0,0,1,.29.62l-.06,0,.07.14.05,0a9.24,9.24,0,0,1,.48,2.2,4.17,4.17,0,0,1-.95,3.28,3.52,3.52,0,0,1-2.66,1" fill="#ead9b6"/><path id="path9954" d="M0,121.53H0" fill="#ead9b6"/><path id="path9956" d="M0,121.5H0" fill="#ead9b6"/><path id="path9958" d="M0,121.47H0" fill="#ead9b6"/><path id="path9960" d="M0,121.44H0" fill="#ead9b6"/><path id="path9962" d="M0,121.42H0" fill="#ead9b6"/><path id="path9964" d="M.18,119.81h0m0,0h0m0,0h0m0,0v0m0,0h0" fill="#ead9b6"/><path id="path9966" d="M20.5,118.7a20.9,20.9,0,0,1,4-.34,20.9,20.9,0,0,0-4,.34m2.83-15h0l.17-.14h0l-.16.13" fill="#dcb899"/><path id="path9968" d="M26.83,116.32a9.28,9.28,0,0,0,3.75-1.56c2.15-1.65-.68-3.83-1.95-4.87a23.19,23.19,0,0,1-3.74-3.67,22.74,22.74,0,0,1-1.56-2.54l.16-.13q.36.39.75.78h0l.07.08A43.73,43.73,0,0,0,35,112.19a14.68,14.68,0,0,1-8.14,4.13" fill="#c55e1f"/><path id="path9970" d="M19.57,118.55a6.09,6.09,0,0,0-1.12-1.71,6.56,6.56,0,0,0,2.57.57,6.81,6.81,0,0,0,1.07-.09c1.56-.24,3.15-.65,4.7-1h0A14.68,14.68,0,0,0,35,112.19c1.45.77,3,1.47,4.48,2.11-.58.33-1.17.64-1.79.92a28.76,28.76,0,0,1-6.9,2.08,41.28,41.28,0,0,1-6.57.42,10.18,10.18,0,0,0-4.62.83" fill="#c99a6b"/><path id="path9972" d="M10.56,126.47a8.75,8.75,0,0,1-3.37-.56,5.12,5.12,0,0,1-1.92.37A5.15,5.15,0,0,1,0,121.56v0a5.15,5.15,0,0,0,5.26,4.72,5.12,5.12,0,0,0,1.92-.37,8.75,8.75,0,0,0,3.37.56h.54a3.87,3.87,0,0,0,2.34-.84,4.44,4.44,0,0,0,2.33.62,5,5,0,0,0,3.15-1.09,4.27,4.27,0,0,0,1.33-3.4,4.27,4.27,0,0,1-1.33,3.4,5,5,0,0,1-3.15,1.09,4.44,4.44,0,0,1-2.33-.62,3.87,3.87,0,0,1-2.34.84h-.54M0,121.52v0m0,0v0m0,0v0m0,0v0m0,0v0m0,0a6.17,6.17,0,0,1,.17-1.56A6.24,6.24,0,0,0,0,121.27H0v.12m.17-1.56v0m0,0v0m0,0h0m0,0h0m0,0h0m0,0h0" fill="#dcb899"/><path id="path9974" d="M18.74,118.26a4.79,4.79,0,0,0-.37-.58,4.3,4.3,0,0,0-2.28-1.58l-.14,0a.53.53,0,0,1,.23,0,2.34,2.34,0,0,1,1.14.46,3.85,3.85,0,0,1,1.42,1.78" fill="#d7b388"/><path id="path9976" d="M10.56,126.47a8.75,8.75,0,0,1-3.37-.56,5.12,5.12,0,0,1-1.92.37A5.15,5.15,0,0,1,0,121.56v0H0v0H0v0H0v0H0v0H0v0H0v-.12a6.24,6.24,0,0,1,.17-1.44h0v0h0v0h0v0h0a6.31,6.31,0,0,1,2.36-3.44,13.91,13.91,0,0,1,2.84-.94,13.45,13.45,0,0,0-2.34,1.17l-.17.21-.1,0a5.44,5.44,0,0,0-.79.8,5.91,5.91,0,0,0-1.34,3.79,4.32,4.32,0,0,0,1.71,3.36,4.81,4.81,0,0,0,2.18,1l.52,0c.47,0,.93-.06,1.4-.09a3.08,3.08,0,0,1-.77-.8c-1-1.65-.5-4,.22-5.68.17-.38.36-.74.56-1.1l-.08-.13c.78-1.52,1.93-3.39,3.54-4.14a3.2,3.2,0,0,1,1.33-.29,2.93,2.93,0,0,1,2.44,1.31,6.39,6.39,0,0,1,.56,1,1,1,0,0,1,.85-.34,5.93,5.93,0,0,1,2.49.74,4.84,4.84,0,0,1,.84.72l-.37-.16a8.83,8.83,0,0,1,1.67,2.18l.75-.16-.79.17h0a8.06,8.06,0,0,1,.47,1.86,6.9,6.9,0,0,1,.07,1,4.27,4.27,0,0,1-1.33,3.4,5,5,0,0,1-3.15,1.09,4.44,4.44,0,0,1-2.33-.62,3.87,3.87,0,0,1-2.34.84h-.54M11.17,114a2.87,2.87,0,0,0-1.6.54l-.51.39a13.73,13.73,0,0,0-2.35,3.54C6.09,120,5.23,122.42,6,124s2.67,1.86,4.29,1.86a8.12,8.12,0,0,0,1-.06,3.09,3.09,0,0,0,2.82-2.65c.45-2.29.5-5.65-.76-7.71A2.61,2.61,0,0,0,11.17,114m3.91,1.89a.84.84,0,0,0-.64.24,10.59,10.59,0,0,1,.55,3,12.7,12.7,0,0,1-.37,4.76,3.69,3.69,0,0,1-.71,1.24,5.59,5.59,0,0,0,2.05.4,3.52,3.52,0,0,0,2.66-1,4.17,4.17,0,0,0,.95-3.28,9.24,9.24,0,0,0-.48-2.2l-.05,0-.07-.14.06,0a5,5,0,0,0-.29-.62,3.85,3.85,0,0,0-1.42-1.78,2.34,2.34,0,0,0-1.14-.46.53.53,0,0,0-.23,0,4.16,4.16,0,0,0-.87-.14" fill="#c99a6b"/><path id="path9978" d="M25.14,118.37h0" fill="#c99a6b"/><path id="path9980" d="M19.75,118.86a8.83,8.83,0,0,0-1.67-2.18l.37.16a6.09,6.09,0,0,1,1.12,1.71,10.18,10.18,0,0,1,4.62-.83,41.28,41.28,0,0,0,6.57-.42,28.76,28.76,0,0,0,6.9-2.08c.62-.28,1.21-.59,1.79-.92l.88.36c-.61.33-1.23.63-1.83.91a29.09,29.09,0,0,1-6.28,2.14,32.21,32.21,0,0,1-6.63.66H24.46a20.9,20.9,0,0,0-4,.34l-.75.16" fill="#af6d41"/><path id="path9982" d="M178.51,99a3,3,0,0,0-1.43-1.74c-1.05-.68-2.17-1.28-3.25-1.88-1.42-.79-2.89-1.49-4.37-2.17-.67-.31-1.36-.56-2-.84a5,5,0,0,1-1.79-1c-.42-2.43-.62-4.87-1.21-7.27a57.45,57.45,0,0,0-2.4-7.32,30,30,0,0,0-3.09-6.08,24.3,24.3,0,0,0-2.1-2.55c-6.05-8.64-14.42-15.82-24.46-19.28-4.79-1.66-10.18-3-15.19-1.71a28.06,28.06,0,0,0-7.13,3.21c-2.59,1.51-5.12,3.13-7.6,4.8-1.59,1.08-3.29,2.09-4.79,3.3-.53-.09-1.07-.19-1.6-.32a23.38,23.38,0,0,1-5.11-2,34.17,34.17,0,0,1-3-1.89c-.26-3.75-2.31-7.78-5.61-9.68l0-.11a18.37,18.37,0,0,0-5.56-4.85,29.41,29.41,0,0,0-6.88-3.35A36.07,36.07,0,0,0,62,35.05a69.34,69.34,0,0,0-8.28-.25,47.31,47.31,0,0,0-16,3,45.94,45.94,0,0,0-13,8.09,49.28,49.28,0,0,0-8.12,9c-2.31,3.31-3.15,7.1-3.52,11a17.13,17.13,0,0,0-.47,2.15c-.36,2.22-.64,5,.07,7.21l.1.08v0c0,.12.25.09.23-.05a5.76,5.76,0,0,1,1.22-4,10.88,10.88,0,0,0,0,6.17,32.57,32.57,0,0,0,2.18,14.55,34.55,34.55,0,0,0,7.81,12.27c6.61,6.72,15.77,11,24.92,13l-2.66,1a21.86,21.86,0,0,1-5.17,1.28c-.95.1-1.9.09-2.85.12a8.16,8.16,0,0,0-2,.06,3.77,3.77,0,0,0-1.59.75c-3.51-1-6.53,2.46-7.9,5.29a4.22,4.22,0,0,0-.18,4.1c1,1.61,3.65,1.7,5.31,1.8l.2-.05a5.87,5.87,0,0,0,4.95.34l.16-.2a4.34,4.34,0,0,0,.88.67c1.73,1,4,.88,5.91.4a7.76,7.76,0,0,0,2.64-1.22,14.7,14.7,0,0,0,2.27-2.26,8.63,8.63,0,0,1,2.46-1.41,12,12,0,0,1,3.47-.52c1.3,0,2.59-.11,3.88-.17,5.28-.22,10.56-.24,15.83-.27a76.39,76.39,0,0,0,15.77-1.28,16.41,16.41,0,0,0,6.32-2.63,13.27,13.27,0,0,0,2.39-2.35c.54,0,1.06-.06,1.54-.06a26.91,26.91,0,0,0,6.4-.57c1-.27,2-.72,3-1.06a12,12,0,0,1,3.63-.55c1.15,0,2.3,0,3.45,0s2.31,0,3.45,0l.09,0a6.64,6.64,0,0,0,4.07,1.5l.12,0,.31.26a10.45,10.45,0,0,0,2.58,1.14,2.82,2.82,0,0,0,2.26.22,5.73,5.73,0,0,0,.79.48c3.13,1.51,7.45.89,10.55-.31A22.14,22.14,0,0,0,147,118.3a12.48,12.48,0,0,1,1.94-1.24c1.12-.44,2.26-.85,3.41-1.21.42-.11.85-.23,1.26-.36l0,0c1.85-.54,3.72-1,5.62-1.38,3.42-.71,7.21-.93,10.24-2.82,2.54-1.58,5.35-3.38,6.93-6,.84-1.41,1-3.1,1.78-4.54a2.32,2.32,0,0,0,.32-1.69" fill="#f39b39"/><path id="path9984" d="M53,101.86c5.7-.75,7.24-1.78,11.79-4.3a50.86,50.86,0,0,0,10.64-7.75,41.42,41.42,0,0,0,7.72-10A24.35,24.35,0,0,0,86.58,68.3a10.85,10.85,0,0,0-.21-2.63,4.92,4.92,0,0,1,.52,1.27l.14.39a17.41,17.41,0,0,0-.64-13.63c-.08-.15.49.06.68.12s.55.18.82.26c-.33-3.69-2.36-7.59-5.59-9.45l0-.11a18.37,18.37,0,0,0-5.56-4.85,29.41,29.41,0,0,0-6.88-3.35A36.07,36.07,0,0,0,62,35.05a69.34,69.34,0,0,0-8.28-.25,47.31,47.31,0,0,0-16,3,45.94,45.94,0,0,0-13,8.09,49.28,49.28,0,0,0-8.12,9c-2.31,3.31-3.15,7.1-3.52,11a17.13,17.13,0,0,0-.47,2.15c-.36,2.22-.64,5,.07,7.21l.1.08v0c0,.12.25.09.23-.05a5.76,5.76,0,0,1,1.22-4,10.17,10.17,0,0,0-.2,5.34,18.12,18.12,0,0,0,2,5.32,21.73,21.73,0,0,0,3.41,4.45A22.5,22.5,0,0,1,19,84.18a9.45,9.45,0,0,0,2.47,4,55.77,55.77,0,0,0,19.94,12.59A29.58,29.58,0,0,0,53,101.86" fill="#fbfbe7"/><path id="path9986" d="M73.76,111a9.68,9.68,0,0,0-1.88,0,5.6,5.6,0,0,1-3.42-.57,4.89,4.89,0,0,1-1.64-5,20,20,0,0,1,2.06-4.95c-1.54,1.46-2.45,3.42-4,4.89l-.33,0a7.94,7.94,0,0,1-.95-1.94c-2.15,1.53-3.76,3.67-5.8,5.33a10.06,10.06,0,0,1-7.24,2.17A41.63,41.63,0,0,1,34.16,106a75,75,0,0,1-12.87-8.41,30.91,30.91,0,0,1-4.45-4.41,34.7,34.7,0,0,0,7.4,11.2c6.49,6.59,15.78,11,24.92,13,.47-.15.87-.42,1.35-.53,1.42-.34,2.36-.72,3.75-1.12.74-.22,1.48-.42,2.22-.62a60.52,60.52,0,0,1,6.79-1.79c3.31-.68,6.65-1.17,10-1.52,1-.1,2-.17,3-.22a21.08,21.08,0,0,0-2.5-.6" fill="#fbfbe7"/><path id="path9988" d="M178.55,99a3.05,3.05,0,0,0-1.44-1.74c-.79-.51-1.63-1-2.46-1.45,1.29,1,2.56,2.49,2.24,4.16-.47,2.48-2.55,4.49-4.6,5.79a37,37,0,0,1-8,3.61,31.93,31.93,0,0,1-9.06,1.82A17.25,17.25,0,0,1,151,111c-.63-.13-1.84-.32-2.06-1.08s.91-1.13,1.39-1.3c1.42-.53,2.75-1,4.16-1.54,3.64-1.45,5.28-1.65,8.22-2.92a67.08,67.08,0,0,0,7.21-3.08l-.12,0a5.43,5.43,0,0,1-1.66.12c-12.21,1.63-24.66,3.61-37,2.68-5.08-.38-11-1.6-14.35-5.84a11.1,11.1,0,0,1-2.43-6.48,28.54,28.54,0,0,1,.75-6.12c-3.11,7.35-5,14.84,5.39,21.1.08-.11.29.14.39.29,2.18,3.57-4.87,2.92-6.6,2.79a13.29,13.29,0,0,1-4.7-.77,5.22,5.22,0,0,1-2.5-2.77,54.41,54.41,0,0,1-1.82-5.45c-.75-2.38-1.47-4.76-2.31-7.11s-1.74-4.5-2.68-6.71a20.91,20.91,0,0,0-2.93-5.22,20.32,20.32,0,0,1,1.94,6.7c.31,3.25-.35,1.81-.47,1.63-1.11-1.81-3.87-7.45-6.37-9.28a28.91,28.91,0,0,1,5.51,8,42.63,42.63,0,0,1,3.76,11.31c1.14,6.48.9,14.91-5.19,19-4.09,2.73-9.19,3.82-14,4.3a122.21,122.21,0,0,1-16.46.2c-2.61-.09-5.23-.23-7.84-.12a49.47,49.47,0,0,1-8.52,0c-1.88-.25-9.22-1-8.21-2.41.36-.51,2.76-1.35,3-1.77a20.14,20.14,0,0,1-3.11.62c-1,.1-1.9.09-2.85.12a8.16,8.16,0,0,0-2,.06,3.77,3.77,0,0,0-1.59.75c-3.51-1-6.53,2.46-7.9,5.29a4.25,4.25,0,0,0-.18,4.1c1,1.61,3.66,1.7,5.32,1.8l.19-.05a5.87,5.87,0,0,0,4.95.34l.16-.2a5.09,5.09,0,0,0,.88.67c1.73,1,4,.88,5.91.4a7.76,7.76,0,0,0,2.64-1.22,14.7,14.7,0,0,0,2.27-2.26,8.63,8.63,0,0,1,2.46-1.41,12,12,0,0,1,3.48-.52c1.29,0,2.58-.11,3.87-.17,5.28-.22,10.56-.24,15.84-.27a76.35,76.35,0,0,0,15.76-1.28,16.41,16.41,0,0,0,6.32-2.63,13.27,13.27,0,0,0,2.39-2.35c.54,0,1.07-.06,1.54-.06a26.91,26.91,0,0,0,6.4-.57c1-.27,2-.72,3-1.06a12,12,0,0,1,3.63-.55c1.15,0,2.3,0,3.45,0s2.31,0,3.45,0l.09,0a6.57,6.57,0,0,0,4.08,1.49l.11,0,.32.26a10.39,10.39,0,0,0,2.57,1.14,2.82,2.82,0,0,0,2.26.22,5.3,5.3,0,0,0,.8.48c3.12,1.51,7.44.89,10.54-.31A22.38,22.38,0,0,0,147,118.3a11.94,11.94,0,0,1,1.93-1.24c1.13-.44,2.26-.85,3.41-1.21q.64-.16,1.26-.36l0,0c1.85-.54,3.73-1,5.62-1.38,3.43-.71,7.21-.93,10.25-2.82,2.53-1.58,5.34-3.38,6.92-6,.85-1.41,1-3.1,1.78-4.54a2.34,2.34,0,0,0,.33-1.69" fill="#fbfbe7"/><path id="path9990" d="M44.37,116.08c-1.59-.5-3.17-1.07-4.72-1.7,1.42.58,2.87,1.11,4.33,1.58l.39.12" fill="#e3832f"/><path id="path9992" d="M48.79,117.28c-1.47-.34-2.95-.74-4.42-1.2L44,116q2.4.77,4.82,1.32h0" fill="#ead9b6"/><path id="path9994" d="M50.89,116.78c2.24-.72,5.1-1.56,7.89-2.3-1.57.45-3.12.94-4.67,1.43-1.06.34-2.14.61-3.22.87" fill="#e3832f"/><path id="path9996" d="M72.68,112c1.57-.12,3.15-.22,4.73-.3h-.57l-2.69,0c.7-.06,1.41-.11,2.11-.14a21.08,21.08,0,0,0-2.5-.6,6,6,0,0,0-1-.06l-.91,0L71,111a4.3,4.3,0,0,1-2.5-.59,4.89,4.89,0,0,1-1.64-5,20,20,0,0,1,2.06-4.95c-1.54,1.46-2.45,3.42-4,4.89l-.33,0a7.94,7.94,0,0,1-.95-1.94c-2.15,1.53-3.76,3.67-5.8,5.33a9.91,9.91,0,0,1-6.39,2.2c-.28,0-.57,0-.85,0A41.63,41.63,0,0,1,34.16,106a75,75,0,0,1-12.87-8.41,30.91,30.91,0,0,1-4.45-4.41,34.77,34.77,0,0,0,6,9.74,35.95,35.95,0,0,1-8.77-22.71,25.83,25.83,0,0,1,.14-2.65h0l-.06-.27,0,.14c.12.47.25.93.41,1.39a12.41,12.41,0,0,0,.46,1.31c.2.47.47,1,.74,1.49l.24.43a9.77,9.77,0,0,0,.53.88A11.53,11.53,0,0,0,19,85.94l.1.11a1.76,1.76,0,0,0,.3.31l.08.09h0v0l0,0a.09.09,0,0,0,.06,0c.21.6.47,1.28.78,2,2.08,5.09,7.47,9.15,7.47,9.15h0c-.54-.44-1.5-1.73-1.24-1.73s.48.25,1.23,1c2.44,2.28,9.1,5.18,15.62,6.54s6.91,3.15,6.91,3.15c.5-2,6-2.72,11.08-5a43.82,43.82,0,0,0,11.7-8.38c.7-.71,1.06-1,1.22-1s-.08.82-.08.82a38.62,38.62,0,0,0,10.36-16,22.74,22.74,0,0,0,1.8-6.23A13.6,13.6,0,0,0,86.56,67c0-.36-.09-.78-.18-1.29l.18.41a9.78,9.78,0,0,0,.34,1h0a2,2,0,0,0,.08.22l.21-.53h0a14.67,14.67,0,0,0,.82-7.54c1,3.44.44,7.57,0,10.86a51,51,0,0,1-4.53,15.26,76.14,76.14,0,0,1-4.82,8.41A38,38,0,0,1,75,98.46a30.66,30.66,0,0,0-3.67,4.82c-.64,1.11-1.32,2.68-.72,3.94.74,1.56,2.68,2.42,4.15,3.12,1.17.56,2.4,1,3.6,1.52a25.48,25.48,0,0,1-2.9.12H72.68M22.91,102.9h0" fill="#e3832f"/><path id="path9998" d="M19.48,86.45l-.08-.09.07.06v0m-.38-.4-.1-.11.05,0,.05.07m-2.5-3.17a9.77,9.77,0,0,1-.53-.88l-.24-.43c.2.35.4.7.58,1a3.21,3.21,0,0,0,.19.31m-2-4.11c-.16-.46-.29-.92-.41-1.39h0c.13.48.27,1,.41,1.39M87,67.33a2,2,0,0,1-.08-.22l.17,0,0-.21.09-.06-.21.53M86.56,67a12.09,12.09,0,0,0-.27-1.46l.09.17c.09.51.15.93.18,1.29" fill="#ead9b6"/><path id="path10000" d="M49.63,115.12a25.4,25.4,0,0,1-7.86-1.35,49.79,49.79,0,0,1-6.35-2.44,52.32,52.32,0,0,1-14.57-11,34.7,34.7,0,0,0,3.33,3.94c-.44-.45-.86-.9-1.27-1.37h0l0,0h0a34.77,34.77,0,0,1-6-9.74,30.91,30.91,0,0,0,4.45,4.41A75,75,0,0,0,34.16,106a41.63,41.63,0,0,0,16.43,4.83c.28,0,.57,0,.85,0a9.91,9.91,0,0,0,6.39-2.2c2-1.66,3.65-3.8,5.8-5.33a7.94,7.94,0,0,0,.95,1.94l.33,0c1.52-1.47,2.43-3.43,4-4.89a20,20,0,0,0-2.06,4.95,4.89,4.89,0,0,0,1.64,5A4.3,4.3,0,0,0,71,111l.92,0,.91,0a6,6,0,0,1,1,.06,21.08,21.08,0,0,1,2.5.6c-.7,0-1.41.08-2.11.14-2.18,0-5,.14-6.74.38a9.5,9.5,0,0,0-1.08-2.33c-.74-1.47-2-2.53-2.78-4h0S65,109,65.3,109.7s.72,2.3-1.13,2.69c-2.61.56-4.8,1.16-7.4,1.77a30.86,30.86,0,0,1-7.14,1" fill="#ead9b6"/><path id="path10002" d="M63.25,113.37c1.22-.27,2.32-.5,3.22-.65.67-.11,1.34-.2,2-.29-1.75.26-3.49.58-5.22.94" fill="#e3832f"/><path id="path10004" d="M24.24,104.33l-.06-.06.06.06" fill="#ead9b6"/><path id="path10006" d="M48.72,100.67a22.94,22.94,0,0,1-5.06-.54C29.28,96.91,21,85.86,19,82.94a9.9,9.9,0,0,1-.21-1.11h-.14v.3l-.12.08h0a1.61,1.61,0,0,0,0,.37,11.89,11.89,0,0,0,.05,2.23A23.8,23.8,0,0,1,15.39,79a13.54,13.54,0,0,1-.32-9L15,69.94l0,.09h-.18a7.15,7.15,0,0,0-1.8,2.65c0-.33,0-.65,0-1,.06-1.09.15-2.17.29-3.25A19.17,19.17,0,0,1,14,65a64.57,64.57,0,0,0,10.9,8.21,60.55,60.55,0,0,0,6.24,3.49c1.07.5,2.17.94,3.28,1.34a23.33,23.33,0,0,1,2.32.87,14.28,14.28,0,0,0,1.66,1.36l.07.05a11,11,0,0,0-.21,2,5.65,5.65,0,0,0,1.17,3.57,7.55,7.55,0,0,0,6.07,2.82,8.6,8.6,0,0,0,4.55-1.28h0a6.06,6.06,0,0,0,3.1-5.34h0c0-.11,0-.21,0-.32a9.41,9.41,0,0,0-.28-1.83,10.52,10.52,0,0,0,3-4H56a35,35,0,0,0,8.86-4.43,42.81,42.81,0,0,0,7.06-5.6C75.8,62,79.68,57.1,81,51.61h0l.1-.22h0l0-.12c.45-1.77.91-3.53,1.19-5.34A24.63,24.63,0,0,1,80.19,60.1a37.57,37.57,0,0,1-11,14.14,30,30,0,0,1-7.74,4.36c-2.15.78-4,1.43-5.13,3.53-1.28,2.33-.64,5.12-2.52,7.22a7,7,0,0,1-5.35,2c-.34,0-.67,0-1,0a9.22,9.22,0,0,1-4.27-1.51,7.71,7.71,0,0,1-1.18-1l-.14-.22-.11,0c-.21-.21-.41-.43-.63-.63a5.07,5.07,0,0,0-1.52-1c-.69-.72-1.33-1.5-2.08-2.15a15.07,15.07,0,0,0-4.8-2.33,52.11,52.11,0,0,1-12-6.84h0l0,0-.24,0-.08.16c-.11,5,3.45,9.54,6.79,12.94a32,32,0,0,0,13.15,7.88,32.66,32.66,0,0,0,10.16,1.66,30.68,30.68,0,0,0,5.64-.53,38.1,38.1,0,0,0,14.8-6.78,65.8,65.8,0,0,0,6.55-5.46,32.45,32.45,0,0,0,5.66-6.55c2.66-4.35,3.18-9.42,2.6-14.39A23.18,23.18,0,0,1,86,66.89a17.91,17.91,0,0,1-.18,3.87,30.43,30.43,0,0,1-1,4.67c-4.78,12.92-21.65,25.24-36.19,25.24" fill="#ead9b6"/><path id="path10008" d="M87.05,66.31A2.41,2.41,0,0,0,86.9,66a.25.25,0,0,0,.17-.15c1-2.7.25-5.57.1-8.37.1.46.18.92.25,1.39a26.9,26.9,0,0,1,.22,3.91,21,21,0,0,1-.59,3.55m-.73-1.13-.2-.22a2.17,2.17,0,0,0-.07-.24l.27.46" fill="#ead9b6"/><path id="path10010" d="M102.26,58.94c-1.16,0-1.31-.92-.07-2.07a61.83,61.83,0,0,1,10.2-7.53,30.33,30.33,0,0,1,2.85-1.43,21.36,21.36,0,0,0-5.72,4.2c-.79.8-2.84,3.13-1.28,4.19a4.23,4.23,0,0,0,2.4.59,22.15,22.15,0,0,0,2.89-.3c.77-.1,1.55-.28,2.34-.44a53,53,0,0,1-5.63,2.27l.52-.2a39.37,39.37,0,0,1-7.28.69c-.29,0-.72,0-1.21,0h0m-7.71-.72A18.19,18.19,0,0,1,92.07,57l.06,0c.84.41,1.64.8,2.42,1.15" fill="#e3832f"/><path id="path10012" d="M74.18,123.53c-2.71,0-5.42-.09-8.12-.18l-1.69-.07c5.14-.09,10.28-.46,15.4-1a41.76,41.76,0,0,0,9.5-1.94,17.12,17.12,0,0,0,8.8-5.33c2.81-3.32,3.2-7.54,3-11.73a37.42,37.42,0,0,0-3.56-13.84,62.71,62.71,0,0,0-3.94-7c-.36-.57-.72-1.16-1.07-1.76a53.64,53.64,0,0,1,8.81,19.17,37.08,37.08,0,0,1,.81,8.73c-.46,4.08-2,7.92-5.57,10.29-4.09,2.73-9.19,3.82-14,4.3a83.11,83.11,0,0,1-8.34.38m-21.29-.1a25.14,25.14,0,0,1-2.88-.15,16.55,16.55,0,0,1,2.16-.18h.77c1.7,0,3.4.07,5.1.13-1.71.07-3.43.2-5.15.2" fill="#e3832f"/><path id="path10014" d="M41.59,132.64a7.3,7.3,0,0,1-2.46-.41c-3-1.1-2.34-3.44-1-5.52-.34,1-.24,2.1.94,2.5a3.08,3.08,0,0,0,1.05.17,5.86,5.86,0,0,0,3.43-1.28,15.31,15.31,0,0,0,2.61-3.43,9.84,9.84,0,0,1,3.8-1.39,25.14,25.14,0,0,0,2.88.15c1.72,0,3.44-.13,5.15-.2,1.17,0,2.33.08,3.5.08h.06l2.77,0,1.69.07c2.7.09,5.41.18,8.12.18a83.11,83.11,0,0,0,8.34-.38c4.82-.48,9.92-1.57,14-4.3,3.54-2.37,5.11-6.21,5.57-10.29,0,.83-.07,1.66-.16,2.48a20.26,20.26,0,0,1-1.14,5.1,28.2,28.2,0,0,1-2.18,4.1A13.48,13.48,0,0,1,95.9,123a18.39,18.39,0,0,1-7.28,2.49,95.74,95.74,0,0,1-15.78.93c-5.28,0-10.57.09-15.84.37-2.11.11-4.24.07-6.22.91A12.63,12.63,0,0,0,46.7,131a8.27,8.27,0,0,1-1.88,1,9,9,0,0,1-3.23.61m-6.15-.83a5.83,5.83,0,0,1-4.09-1.59c-1-1.13-.48-2.84.08-4.09,0,.86.36,1.65,1.35,1.68h.07c1.88,0,3-2,4-3.26a5,5,0,0,1,2.88-2,4.86,4.86,0,0,1,1.09-.11,7.68,7.68,0,0,1,2.64.5,7.17,7.17,0,0,0-3,1.1l.32-.31-.12-.13a11.42,11.42,0,0,0-3.94,4.53,3.17,3.17,0,0,0,.33,3.41h0a3.94,3.94,0,0,1-1.58.29M31.2,131c-1.42-.1-3-.32-3.87-1.43a3.09,3.09,0,0,1,0-3,1.11,1.11,0,0,0,.78.3,1.39,1.39,0,0,0,.91-.34c1-.9,1.63-2.25,2.53-3.27A16,16,0,0,1,34.1,121l.25,0a11.42,11.42,0,0,0-1.82,2,14.26,14.26,0,0,0-2,3.37c-.57,1.41-.8,3.27.4,4.44l.23.21" fill="#ead9b6"/><path id="path10016" d="M154,111.24h-.68a50.42,50.42,0,0,0,6.73-2.31c2.24-.91,4.47-1.84,6.62-2.93a27.37,27.37,0,0,0,6-3.95c.41-.36,1.76-2,.51-2.15h-.22a5.27,5.27,0,0,0-2.3.92l-2,1.15a34.14,34.14,0,0,1-3.18,1.36l-.95.33c-.81.27-1.62.52-2.42.77l.68-.28a67.08,67.08,0,0,0,7.21-3.08l-.12,0a5.57,5.57,0,0,1-1.22.14l-.44,0c-10.05,1.34-20.26,2.92-30.44,2.92-2.19,0-4.38-.07-6.57-.24-5.08-.38-11-1.6-14.35-5.84a11.1,11.1,0,0,1-2.43-6.48,28.54,28.54,0,0,1,.75-6.12,32.55,32.55,0,0,0-2.22,6.9c.08-.83.21-1.66.36-2.48-1.84,2.63-2.71,10.17-.74,14.5a9.88,9.88,0,0,1,.75,5.19,9.71,9.71,0,0,1-3.67-.7,5.22,5.22,0,0,1-2.5-2.77,54.41,54.41,0,0,1-1.82-5.45c-.75-2.38-1.47-4.76-2.31-7.11s-1.74-4.5-2.68-6.71a20.91,20.91,0,0,0-2.93-5.22,14.62,14.62,0,0,1,1,2.48c-.19-.46-.39-.91-.62-1.34l0,0c-.32-.65-.71-1.27-1-1.88-.76-1.45-1.42-2.94-2.12-4.42,1.21,1.1,2.27,2.37,3.39,3.57.71.75,1.4,1.53,2.06,2.33a11.5,11.5,0,0,0,1.94,2.33A6.74,6.74,0,0,0,106,86a9,9,0,0,0,5-1.76c3.09-2.14,5.41-5.27,8-7.91a43.18,43.18,0,0,1,8.19-6.51l-.91.75a17.55,17.55,0,0,0-2.9,3.13,57.86,57.86,0,0,0-5.28,7.72c-2.19,4.14-3.71,9.4-1.25,13.76s7.92,6.11,12.59,6.82a101.53,101.53,0,0,0,15.2,1q1.65,0,3.27,0a83.1,83.1,0,0,0,18.54-2.06c1.5-.37,7.47-2.25,4.7-4.7a8.17,8.17,0,0,0-3.66-1.44c-.73-.15-1.47-.27-2.22-.37l-.3-.09a2,2,0,0,1-1.52-2.22c0-1.45.34-2.9.37-4.36a21.82,21.82,0,0,0-.44-4.63c-1-4.87-3.77-9.59-8.69-11.16a48.86,48.86,0,0,0-9.24-1.46A41.09,41.09,0,0,1,136,68.54c-5.5-2-10.25-6-13.91-10.53a26.38,26.38,0,0,1-3.53-5.67,44.46,44.46,0,0,1-1.62-5.06l.11,0a25.51,25.51,0,0,0,8.58,13,31.92,31.92,0,0,0,14,6.13,37.73,37.73,0,0,0,7,.66h1.09a14.34,14.34,0,0,0,3.59-.55h0a10.69,10.69,0,0,0,1.12.07,5.06,5.06,0,0,0,1.81-.3,11.58,11.58,0,0,1,2.53,2.69,11.17,11.17,0,0,0,.94,1.35.06.06,0,0,0,0,0h0a.43.43,0,0,0,.42.4.34.34,0,0,0,.19-.05l.39-.23.25.35A30,30,0,0,1,162,76.83a57.45,57.45,0,0,1,2.4,7.32c.59,2.4.79,4.84,1.21,7.27a5,5,0,0,0,1.79,1c.68.28,1.37.53,2,.84,1.48.68,2.95,1.38,4.37,2.17l.9.5c1.27,1,2.47,2.45,2.16,4.09-.47,2.48-2.55,4.49-4.6,5.79a37,37,0,0,1-8,3.61,31.93,31.93,0,0,1-9.06,1.82l-1.3,0" fill="#e3832f"/><path id="path10018" d="M135.44,122.28a14.52,14.52,0,0,1-2.38-.2,5.55,5.55,0,0,1-3.6-1.89,3.5,3.5,0,0,1-.69-2.61,2.39,2.39,0,0,0,.8,1.26,1.73,1.73,0,0,0,1.17.46c1.14,0,2.3-1.08,3-1.83a6,6,0,0,1,2.91-2.08l.57-.12h.1a8.67,8.67,0,0,1,1.61-.12h1.18a9.87,9.87,0,0,0,1.22-.06,9.71,9.71,0,0,0,2.88-.88,36,36,0,0,1,3.84-1.77,30.42,30.42,0,0,1,3.88-.93q.66-.14,1.32-.3H154l1.3,0a31.93,31.93,0,0,0,9.06-1.82,37,37,0,0,0,8-3.61c2.05-1.3,4.13-3.31,4.6-5.79.31-1.64-.89-3.07-2.16-4.09.75.42,1.51.84,2.23,1.31l-.46-.29a4.8,4.8,0,0,1,1.3,1.68c.57,1.56-.52,3-1.28,4.34a9.76,9.76,0,0,1-.62,1.77,9,9,0,0,1-1.52,2,20.52,20.52,0,0,1-3.4,2.76,17.87,17.87,0,0,1-4.11,2.3,30.17,30.17,0,0,1-4.61,1c-1.63.31-3.26.62-4.88,1A36.46,36.46,0,0,0,150.5,116a14.18,14.18,0,0,0-2.12.79,42.65,42.65,0,0,0-4.68,3.16,15.44,15.44,0,0,1-8.26,2.38m-6-1.09a8.83,8.83,0,0,1-1.59-.48,12,12,0,0,1-2.15-.93,3.12,3.12,0,0,1-1.46-2.92,1.15,1.15,0,0,0,1,.62,2.58,2.58,0,0,0,1.69-.85,10.76,10.76,0,0,0,1.32-2.08,4,4,0,0,1,1.16-1.29c.36-.25.89-.36,1.27-.58a.23.23,0,0,0,.11-.2l.73.14,0-.13a5.39,5.39,0,0,0-1.38-.42h0c-.78-.17-1.54-.41-2.32-.6,3.35-.38,6.7-.79,10-1.35a79.61,79.61,0,0,0,7.92-1.28c-1.88.43-3.77.82-5.68,1.12a93.21,93.21,0,0,1-9.31,1.52,6.36,6.36,0,0,0,3.64.75l1.33,0,1.28,0a9.66,9.66,0,0,1,1.69.12,22.85,22.85,0,0,0,3.29.51,6.89,6.89,0,0,1-1.64.5v0h-.21a12.32,12.32,0,0,1-2.83-.41,9.83,9.83,0,0,0-1.59-.35,10,10,0,0,0-2-.22h0a6.25,6.25,0,0,0-4.38,2.24,4.91,4.91,0,0,0-1.25,4.22,4.82,4.82,0,0,0,1.3,2.44m-18.88-9.08c-3.16,0-5.28-2.35-7.09-8.46l0-.17A35,35,0,0,0,101,95.92c-.35-1.1-.74-2.2-1.17-3.28A18.6,18.6,0,0,0,98.37,84a14.62,14.62,0,0,0-1-2.48,20.91,20.91,0,0,1,2.93,5.22c.94,2.21,1.87,4.45,2.68,6.71s1.56,4.73,2.31,7.11a54.41,54.41,0,0,0,1.82,5.45,5.22,5.22,0,0,0,2.5,2.77,9.71,9.71,0,0,0,3.67.7c-.24,1.43-1,2.54-2.36,2.6h-.32M133,109.43a17,17,0,0,1-1.75-.07,31.78,31.78,0,0,1-10-2.58,15.35,15.35,0,0,1-7.53-7.6,13.73,13.73,0,0,1-.83-6.89,32.55,32.55,0,0,1,2.22-6.9,28.54,28.54,0,0,0-.75,6.12A11.1,11.1,0,0,0,116.79,98c3.33,4.24,9.27,5.46,14.35,5.84,2.19.17,4.38.24,6.57.24,10.18,0,20.39-1.58,30.44-2.92l.44,0a5.57,5.57,0,0,0,1.22-.14l.12,0a67.08,67.08,0,0,1-7.21,3.08l-.68.28-.9.27,0,0c-.95.25-1.89.53-2.84.81A104.08,104.08,0,0,1,133,109.43" fill="#ead9b6"/><path id="path10020" d="M124.82,120.12a6.61,6.61,0,0,1-4.06-1.5h0l.27.22a6.77,6.77,0,0,0,3.79,1.28" fill="#e3832f"/><path id="path10022" d="M124.24,119.33c-1.35-.35-2.68-.63-3.59-1.85a3.12,3.12,0,0,1-.07-3.13,1.1,1.1,0,0,0,.21.66,1.39,1.39,0,0,0,1.17.62,1.85,1.85,0,0,0,1.18-.46c1.18-1,1.59-2.63,3.06-3.3l0,0h.06a.19.19,0,0,0,.17-.24,3.18,3.18,0,0,0,.62.05h.16a4.1,4.1,0,0,0-1,.66,7.59,7.59,0,0,0-2.69,4.39,3.53,3.53,0,0,0,.68,2.63m-3.48-.71h0m-.54-.74h0a1.36,1.36,0,0,1-.1-.21l.14.22m9.28-5.68h0m-2.35-.87H127a3.49,3.49,0,0,1-.83-.21c.32.06.64.14,1,.22m-1.83,0c-.3,0-.6,0-.9,0a5.44,5.44,0,0,0-.57,0l.08,0a1.81,1.81,0,0,1,.56-.08,3.4,3.4,0,0,1,.83.12" fill="#ead9b6"/><path id="path10024" d="M162.31,104.35l2.15-.71.81-.27c-1,.36-2,.69-3,1" fill="#e3832f"/><path id="path10026" d="M98.64,88.36c-.24,0-.56-.26-.92-.94a23.13,23.13,0,0,0-3.16-4.57,14.88,14.88,0,0,0-1.39-1.64c-.34-.4-.69-.83-1-1.3l-.07,0c-.34-.54-.68-1.08-1-1.59a40.57,40.57,0,0,1,3,2.85,30,30,0,0,0,4,4.14.13.13,0,0,0,.1,0,.25.25,0,0,0,.22-.22,3.81,3.81,0,0,0-.11-1.12,12.56,12.56,0,0,1,.83,3.22c.07.61-.1,1.08-.42,1.08" fill="#e3832f"/><path id="path10028" d="M94.56,82.85c-.44-.52-.9-1-1.39-1.64a14.88,14.88,0,0,1,1.39,1.64" fill="#ead9b6"/><path id="path10030" d="M100.48,120.79h0" fill="#d7b388"/><path id="path10032" d="M161.65,104.57l.21-.09.45-.13-.66.22" fill="#d46e23"/><path id="path10034" d="M145.8,108.83c1.59-.37,3.16-.76,4.75-1.14,2.6-.62,5.15-1.42,7.71-2.18,1-.26,1.91-.53,2.88-.83l.72-.2-.21.09a156.46,156.46,0,0,1-15.85,4.26" fill="#d7b388"/><path id="path10036" d="M117,109.7c-1.12,0-2.17-.09-2.7-.13l-1-.07a9.88,9.88,0,0,0-.75-5.19c-2-4.33-1.1-11.87.74-14.5-.15.82-.28,1.65-.36,2.48-.87,5,.48,9.9,7.61,14.2,0,0,0,0,0,0s.26.19.34.32c1.51,2.47-1.39,2.92-3.9,2.92" fill="#c55e1f"/><path id="path10038" d="M104.79,119.49c-3.08,0-3.44-1.67-3.06-3.12a32.26,32.26,0,0,0,.3-16.26A38.35,38.35,0,0,0,101,95.92a35,35,0,0,1,2.54,7.56l0,.17c1.81,6.11,3.93,8.46,7.09,8.46h.32c1.41-.06,2.12-1.17,2.36-2.6l1,.07c.53,0,1.58.13,2.7.13,2.51,0,5.41-.45,3.9-2.92-.08-.13-.24-.32-.34-.32s0,0,0,0c-7.13-4.3-8.48-9.18-7.61-14.2a13.73,13.73,0,0,0,.83,6.89,15.35,15.35,0,0,0,7.53,7.6,31.78,31.78,0,0,0,10,2.58,17,17,0,0,0,1.75.07,104.08,104.08,0,0,0,25.24-3.92c-2.56.76-5.11,1.56-7.71,2.18-1.59.38-3.16.77-4.75,1.14a79.61,79.61,0,0,1-7.92,1.28c-3.32.56-6.67,1-10,1.35l-.36-.08-.08,0h-.27c-.33-.08-.65-.16-1-.22s-.47-.18-.7-.27a3,3,0,0,0-1-.2,3.33,3.33,0,0,0-1.1.2A6.16,6.16,0,0,0,120,114a4.07,4.07,0,0,0-.26,3.18,3.17,3.17,0,0,0,.31.49,1.36,1.36,0,0,0,.1.21h-1.63c-.61,0-1.22,0-1.83,0l-1.56,0h-.3a24.35,24.35,0,0,0-6.17,1,16.41,16.41,0,0,1-3.9.58" fill="#c99a6b"/><path id="path10040" d="M161.86,104.48l.18-.07c.8-.25,1.61-.5,2.42-.77l-2.15.71-.45.13" fill="#c55e1f"/><path id="path10042" d="M161.14,104.68l.9-.27-.18.07-.72.2" fill="#c99a6b"/><path id="path10044" d="M119.44,118.65l-2.23,0c-.73,0-1.47,0-2.2,0h0c.73,0,1.47,0,2.2,0l2.23,0h0" fill="#dcb899"/><path id="path10046" d="M115,118.6h0" fill="#d7b388"/><path id="path10048" d="M165.27,103.37l.14-.06,2.5-.87-2.64.93" fill="#d46e23"/><path id="path10050" d="M164.46,103.64l.95-.33-.14.06-.81.27" fill="#c55e1f"/><path id="path10052" d="M14.19,77.24a10.21,10.21,0,0,1,.08-5.9v0a8.53,8.53,0,0,0-.44,2.5v0h0c0,.1,0,.2,0,.3a13.53,13.53,0,0,0,.38,3" fill="#dcb899"/><path id="path10054" d="M13.82,73.9h0m0,0h0a8.53,8.53,0,0,1,.44-2.5h0a8.47,8.47,0,0,0-.44,2.5" fill="#d7b388"/><path id="path10056" d="M86.84,66a.18.18,0,0,1-.16-.11l-.36-.7a5.48,5.48,0,0,1,.58.8h-.06m-.79-1.27a6.67,6.67,0,0,0-.43-.61c0,.14,0,.28,0,.42,0-.22-.09-.43-.13-.65l.19,0a9.25,9.25,0,0,1,.32.88" fill="#d7b388"/><path id="path10058" d="M87.92,54.32h0" fill="#dcb899"/><path id="path10060" d="M88.07,59.25c0-.11-.07-.22-.11-.34a16.15,16.15,0,0,0-1.57-5.21s0-.06,0-.06a3,3,0,0,1,.63.18l.22.08.3.2,0-.12.33.1h0a13.16,13.16,0,0,0-3.19-7.47,13.18,13.18,0,0,1,3.21,7.7h0s0,0,0,0a4.56,4.56,0,0,1-1.14-.21,11.11,11.11,0,0,1,.48,1.25,20.15,20.15,0,0,1,.84,3.77l0,.1M84.69,46.6v0m0,0h0" fill="#d46e23"/><path id="path10062" d="M88,58.91a9.44,9.44,0,0,0-.81-1.84c0,.13,0,.26,0,.39a19.74,19.74,0,0,0-.71-2.53c-.33-.94-.87-1.73-1.24-2.65l.17-.08c.22.33.49.64.73.95.4.24.78.49,1.17.75l-.22-.08a3,3,0,0,0-.63-.18s-.07,0,0,.06A16.15,16.15,0,0,1,88,58.91m-.07-4.83-.33-.1c-1-3.28-2.46-6.62-5.14-8.74,0-.16,0-.33.08-.49a10.23,10.23,0,0,1,2.15,1.8h0l0,0v0h0a13.16,13.16,0,0,1,3.19,7.47" fill="#d7b388"/><path id="path10064" d="M19.57,86.48a.09.09,0,0,1-.06,0l0,0c0-.14-.14-.5-.23-.88l.33.94m-.17-.12a1.76,1.76,0,0,1-.3-.31l.3.31m-.4-.42a11.53,11.53,0,0,1-2.4-3.06A22.15,22.15,0,0,0,19,85.94m-3.17-4.37c-.27-.5-.54-1-.74-1.49a12.41,12.41,0,0,1-.46-1.31,19.18,19.18,0,0,0,1.2,2.8m-1.61-4.19,0-.14a13.53,13.53,0,0,1-.38-3c0-.1,0-.2,0-.3a12.46,12.46,0,0,0,.25,2.78l.15.7m-.4-3.49v0m.44-2.52v0h0v0" fill="#c55e1f"/><path id="path10066" d="M19.47,86.42l-.07-.06-.3-.31L19.05,86l-.05,0a22.15,22.15,0,0,1-2.4-3.06,3.21,3.21,0,0,1-.19-.31c-.18-.3-.38-.65-.58-1a19.18,19.18,0,0,1-1.2-2.8c-.14-.43-.28-.91-.41-1.39h0l-.15-.7a12.46,12.46,0,0,1-.25-2.78h0v0a8.47,8.47,0,0,1,.44-2.5v0h0A6.47,6.47,0,0,0,13,74.72h0a4.46,4.46,0,0,0,.05.63v0a.1.1,0,0,1-.11.1.12.12,0,0,1-.12-.07v0l-.1-.08a10.56,10.56,0,0,1-.44-3.23,24.92,24.92,0,0,1,.37-4,17.13,17.13,0,0,1,.47-2.15c.05-.56.11-1.11.19-1.66l.66.65,0,0a19.17,19.17,0,0,0-.79,3.5c-.14,1.08-.23,2.16-.29,3.25,0,.32,0,.64,0,1A7.15,7.15,0,0,1,14.72,70h.18l0-.09.12.07a13.54,13.54,0,0,0,.32,9,23.8,23.8,0,0,0,3.2,5.82,11.89,11.89,0,0,1-.05-2.23,13,13,0,0,0,.7,3c.09.38.18.74.23.88M19,82.94l-.46-.72h0l.12-.08v-.3h.14A9.9,9.9,0,0,0,19,82.94" fill="#c99a6b"/><path id="path10068" d="M84.62,77.09c.17-.49.31-.94.44-1.37a21.48,21.48,0,0,0,1.52-7.42,11.76,11.76,0,0,0,0-1.3,13.6,13.6,0,0,1-.14,3.86,22.74,22.74,0,0,1-1.8,6.23m2.28-10a9.78,9.78,0,0,1-.34-1l-.18-.41v0a4.92,4.92,0,0,1,.52,1.27l.06.17h0m.34-.32A17,17,0,0,0,88,58.91c0,.12.07.23.11.34a14.67,14.67,0,0,1-.82,7.54h0" fill="#c55e1f"/><path id="path10070" d="M85.06,75.72A24.3,24.3,0,0,0,85.88,72a21.59,21.59,0,0,1-1,3.39,30.43,30.43,0,0,0,1-4.67A17.91,17.91,0,0,0,86,66.89a23.18,23.18,0,0,0-.37-2.36c0-.14,0-.28,0-.42a6.67,6.67,0,0,1,.43.61,2.17,2.17,0,0,1,.07.24l.2.22.36.7a.18.18,0,0,0,.16.11h.06a2.41,2.41,0,0,1,.15.33,21,21,0,0,0,.59-3.55,26.9,26.9,0,0,0-.22-3.91c-.07-.47-.15-.93-.25-1.39,0-.13,0-.26,0-.39A9.44,9.44,0,0,1,88,58.91a17,17,0,0,1-.72,7.89l-.09.06,0,.21-.17,0-.06-.17a4.92,4.92,0,0,0-.52-1.27v0l-.09-.17A12.09,12.09,0,0,1,86.56,67a11.76,11.76,0,0,1,0,1.3,21.48,21.48,0,0,1-1.52,7.42" fill="#c99a6b"/><path id="path10072" d="M38.18,126.71a4.21,4.21,0,0,1,.59-1.11A6.54,6.54,0,0,1,40.46,124a19.43,19.43,0,0,0-2.28,2.7" fill="#d7b388"/><path id="path10074" d="M38.71,119.8c.7,0,1.39,0,2.09-.08h0c-.69,0-1.38,0-2.07.07" fill="#dcb899"/><path id="path10076" d="M27,125.9c1.2-2.49,3.68-5.47,6.65-5.47h0c-2.95,0-5.42,3-6.63,5.45v0l0,.06m7.93-5.29h0a3.83,3.83,0,0,1,1.58-.74,6.3,6.3,0,0,1,1.15-.09h0a6.19,6.19,0,0,0-1.14.09,3.77,3.77,0,0,0-1.59.75m3.63-.81h.2c.69,0,1.38,0,2.07-.07h0c-.75,0-1.51,0-2.26.07" fill="#d46e23"/><path id="path10078" d="M27.37,126.58a1.06,1.06,0,0,1-.2-.26,1.85,1.85,0,0,1-.18-.44c1.21-2.48,3.68-5.44,6.63-5.45a4.47,4.47,0,0,1,1.23.18h0a3.77,3.77,0,0,1,1.59-.75,6.19,6.19,0,0,1,1.14-.09q.44,0,.87,0h0c.75,0,1.51,0,2.26-.07l-.66.14c-.6.13-1.24.22-1.86.35a7.85,7.85,0,0,0-1.28.15,4.88,4.88,0,0,0-2.57,1.54,15.52,15.52,0,0,0-2.85,4l-.12.25a4.39,4.39,0,0,1,.29-1.6,7.55,7.55,0,0,1,.81-1.51A15.63,15.63,0,0,1,34,121.35l.41-.39h-.07l.42-.38-.09,0c-.2.13-.39.27-.58.42a6.23,6.23,0,0,0-3.85,1.51,10.87,10.87,0,0,0-2.5,3.25c-.12.25-.26.53-.38.83" fill="#d7b388"/><path id="path10080" d="M98.23,84.06c-.16-.43-.34-.87-.53-1.36h0a6.25,6.25,0,0,1,.52,1.36m-5.75-3.4L92,80l0,0c.14.23.28.47.43.7" fill="#d46e23"/><path id="path10082" d="M41.43,133.33a6.14,6.14,0,0,1-3.16-.77,4.54,4.54,0,0,1-.86-.66h0a5.09,5.09,0,0,0,.88.67,6,6,0,0,0,3.14.77h0m-6.09-.83a6.9,6.9,0,0,1-3.05-.75h0a7.08,7.08,0,0,0,3.06.75h0m-3.26-.7c-1.66-.1-4.3-.19-5.31-1.8a3.06,3.06,0,0,1-.46-1.67A5.67,5.67,0,0,1,27,125.9h0l0-.06v.06a4.25,4.25,0,0,0-.18,4.1c1,1.6,3.64,1.7,5.3,1.79h0M55,127.56h0m47.11-19a37.08,37.08,0,0,0-.81-8.73,53.64,53.64,0,0,0-8.81-19.17c-.15-.23-.29-.47-.43-.7l.07,0c.36.47.71.9,1,1.3a5.68,5.68,0,0,0-.72-.62,28.91,28.91,0,0,1,5.51,8,44.23,44.23,0,0,1,2.62,6.6q-.39-.73-.84-1.44a39.64,39.64,0,0,1,2.5,11.06,26.49,26.49,0,0,1-.14,3.78M99.2,90.34c-.14,0-.32-.39-.38-.47a79.15,79.15,0,0,0-4.26-7,23.13,23.13,0,0,1,3.16,4.57c.36.68.68.94.92.94s.49-.47.42-1.08a12.56,12.56,0,0,0-.83-3.22,6.25,6.25,0,0,0-.52-1.36l0,0c.23.43.43.88.62,1.34a22.25,22.25,0,0,1,.92,4.22c.16,1.67.06,2.1-.09,2.1" fill="#c55e1f"/><path id="path10084" d="M41.44,133.33h0a6,6,0,0,1-3.14-.77,5.09,5.09,0,0,1-.88-.67h0l-.16.2a4.12,4.12,0,0,1-1.78.41h-.08a7.08,7.08,0,0,1-3.06-.75h0l-.18,0h0c-1.66-.09-4.29-.19-5.3-1.79a4.25,4.25,0,0,1,.18-4.1v0a1.85,1.85,0,0,0,.18.44,1.06,1.06,0,0,0,.2.26,3.09,3.09,0,0,0,0,3c.85,1.11,2.45,1.33,3.87,1.43l-.23-.21c-1.2-1.17-1-3-.4-4.44a14.26,14.26,0,0,1,2-3.37,7.55,7.55,0,0,0-.81,1.51,4.39,4.39,0,0,0-.29,1.6c-.56,1.25-1.09,3-.08,4.09a5.83,5.83,0,0,0,4.09,1.59,3.94,3.94,0,0,0,1.58-.29h0a3.17,3.17,0,0,1-.33-3.41,11.42,11.42,0,0,1,3.94-4.53l.12.13-.32.31a6.54,6.54,0,0,0-1.69,1.59,4.21,4.21,0,0,0-.59,1.11c-1.39,2.08-2,4.42,1,5.52a7.3,7.3,0,0,0,2.46.41,9,9,0,0,0,3.23-.61,8.27,8.27,0,0,0,1.88-1,12.63,12.63,0,0,1,4.08-3.37c2-.84,4.11-.8,6.22-.91,5.27-.28,10.56-.34,15.84-.37a95.74,95.74,0,0,0,15.78-.93A18.39,18.39,0,0,0,95.9,123a13.48,13.48,0,0,0,2.72-2.72,28.2,28.2,0,0,0,2.18-4.1,20.26,20.26,0,0,0,1.14-5.1c.09-.82.14-1.65.16-2.48a26.49,26.49,0,0,0,.14-3.78c0,.26,0,.52.05.79a32.78,32.78,0,0,1-1.52,11.92,25.15,25.15,0,0,1-1.34,3.35l1,0-1.27.06a13.27,13.27,0,0,1-2.39,2.35,16.41,16.41,0,0,1-6.32,2.63,76.39,76.39,0,0,1-15.77,1.28c-5.27,0-10.55,0-15.83.27-1.17.05-2.34.12-3.5.16H55a11.42,11.42,0,0,0-3.44.51,8.63,8.63,0,0,0-2.46,1.41,14.7,14.7,0,0,1-2.27,2.26A7.76,7.76,0,0,1,44.18,133a11.18,11.18,0,0,1-2.74.37M34.1,121c.19-.15.38-.29.58-.42l.09,0-.42.38-.25,0M101,95.92l-.39-.76A44.23,44.23,0,0,0,98,88.56a28.91,28.91,0,0,0-5.51-8,5.68,5.68,0,0,1,.72.62c.49.59,1,1.12,1.39,1.64a79.15,79.15,0,0,1,4.26,7c.06.08.24.47.38.47s.25-.43.09-2.1A22.25,22.25,0,0,0,98.37,84a18.6,18.6,0,0,1,1.43,8.62c.43,1.08.82,2.18,1.17,3.28" fill="#c99a6b"/><path id="path10086" d="M113.76,118.61h0" fill="#c99a6b"/><path id="path10088" d="M119.44,118.65h0" fill="#c55e1f"/><path id="path10090" d="M119.46,118.65h1.2a5.19,5.19,0,0,1-.48-.77h0c.18.25.37.52.54.74h0l-.09,0h-1.2" fill="#c99a6b"/><path id="path10092" d="M119.44,118.65l-2.23,0c-.73,0-1.47,0-2.2,0h0q1.11,0,2.22,0l2.22,0h0m-17.2-13.87a39.64,39.64,0,0,0-2.5-11.06q.45.7.84,1.44a40.37,40.37,0,0,1,1.14,4.71,34.83,34.83,0,0,1,.52,4.91" fill="#a9441f"/><path id="path10094" d="M99.43,120.84a25.15,25.15,0,0,0,1.34-3.35,32.78,32.78,0,0,0,1.52-11.92c0-.27,0-.53-.05-.79a34.83,34.83,0,0,0-.52-4.91,40.37,40.37,0,0,0-1.14-4.71l.39.76a38.35,38.35,0,0,1,1.06,4.19,32.26,32.26,0,0,1-.3,16.26c-.38,1.45,0,3.12,3.06,3.12a16.41,16.41,0,0,0,3.9-.58,24.35,24.35,0,0,1,6.17-1h.3l1.56,0c.61,0,1.22,0,1.83,0h1.63a5.19,5.19,0,0,0,.48.77h-1.2l-2.22,0q-1.11,0-2.22,0h-1.26a12,12,0,0,0-3.63.55c-1,.34-2,.79-3,1.06a26.91,26.91,0,0,1-6.4.57h-.27l-1,0" fill="#af6d41"/><path id="path10096" d="M128.77,117.58a2.7,2.7,0,0,1,.66-2.22,5.56,5.56,0,0,1,3.38-2.73,6.73,6.73,0,0,1,1.71-.21,8.73,8.73,0,0,1,1.24.09c.53.1,1.06.23,1.59.35a10,10,0,0,1,1.35.53h.48a7.09,7.09,0,0,0,1.22-.1v.09a7.5,7.5,0,0,1-.82,0c-1.62,0-3.2-.41-4.82-.5h-.35a5.69,5.69,0,0,0-4.65,2.24,5.26,5.26,0,0,0-1,2.42m-4.51-.72,0-.07c-.61-1.15,1-3.07,1.79-3.79a3,3,0,0,1,2.21-.93,6.93,6.93,0,0,1,1.16.12,4.54,4.54,0,0,0-.82-.07,2.72,2.72,0,0,0-2.08.85,7.07,7.07,0,0,0-2.19,3.63l0,.26m-3.68-2.51c0-.95,1.09-2,1.7-2.45a3.26,3.26,0,0,1,1.57-.62,5.43,5.43,0,0,0-2.81,2.23,5.18,5.18,0,0,0-.46.84m10.26-1.87c-.45-.1-.9-.2-1.34-.28l.12,0h.28a4.21,4.21,0,0,1,.78.08.19.19,0,0,1,.16.19m-4.36-.88-.13,0c-.34-.07-.69-.19-1-.28l1,.11a.25.25,0,0,1,.2.19m50.6-14.31-.12-.07.12.07" fill="#e1c69e"/><path id="path10098" d="M135.25,123.08a10.09,10.09,0,0,1-4.37-.89,5,5,0,0,1-.78-.47h0a5.3,5.3,0,0,0,.8.48,10,10,0,0,0,4.34.89h0m-5.91-1.21a4.25,4.25,0,0,1-1.51-.38,10.45,10.45,0,0,1-2.58-1.14l-.31-.25h0l.32.26a10.39,10.39,0,0,0,2.57,1.14,4.15,4.15,0,0,0,1.5.38h0m-4.52-1.75h0a6.77,6.77,0,0,1-3.79-1.28l-.27-.22h0a6.52,6.52,0,0,0,4.06,1.49h0" fill="#ce6722"/><path id="path10100" d="M135.26,123.08h0a10,10,0,0,1-4.34-.89,5.3,5.3,0,0,1-.8-.48h0a1.75,1.75,0,0,1-.73.16h0a4.15,4.15,0,0,1-1.5-.38,10.39,10.39,0,0,1-2.57-1.14l-.32-.26h0l-.1,0h0a6.52,6.52,0,0,1-4.06-1.49h0c-.17-.22-.36-.49-.54-.74h0l-.14-.22a2.67,2.67,0,0,1-.14-.36,5,5,0,0,1,1-4.57,4.2,4.2,0,0,1,3.61-1.79,9.54,9.54,0,0,1,1.66.17,3.49,3.49,0,0,0,.83.21h.14l.61.15h.1c.78.19,1.54.43,2.32.6h0a5.39,5.39,0,0,1,1.38.42l0,.13-.73-.14a.19.19,0,0,0-.16-.19,4.21,4.21,0,0,0-.78-.08h-.28l-.12,0h-.12a6.93,6.93,0,0,0-1.16-.12A3,3,0,0,0,126,113c-.75.72-2.4,2.64-1.79,3.79l0,.07a3.12,3.12,0,0,0,1.46,2.92,12,12,0,0,0,2.15.93,8.83,8.83,0,0,0,1.59.48,4.82,4.82,0,0,1-1.3-2.44,4.91,4.91,0,0,1,1.25-4.22,6.25,6.25,0,0,1,4.38-2.24h0a10,10,0,0,1,2,.22,8.73,8.73,0,0,0-1.24-.09,6.73,6.73,0,0,0-1.71.21,5.56,5.56,0,0,0-3.38,2.73,2.7,2.7,0,0,0-.66,2.22,3.5,3.5,0,0,0,.69,2.61,5.55,5.55,0,0,0,3.6,1.89,14.52,14.52,0,0,0,2.38.2,15.44,15.44,0,0,0,8.26-2.38,42.65,42.65,0,0,1,4.68-3.16,14.18,14.18,0,0,1,2.12-.79,36.46,36.46,0,0,1,6.88-2.18c1.62-.37,3.25-.68,4.88-1a30.17,30.17,0,0,0,4.61-1,17.87,17.87,0,0,0,4.11-2.3,20.52,20.52,0,0,0,3.4-2.76,9,9,0,0,0,1.52-2,9.76,9.76,0,0,0,.62-1.77c.76-1.36,1.85-2.78,1.28-4.34a4.8,4.8,0,0,0-1.3-1.68l.46.29.12.07h0A3,3,0,0,1,178.51,99a1.47,1.47,0,0,1,.05.42,2.56,2.56,0,0,1-.37,1.27c-.8,1.44-.94,3.13-1.78,4.54-1.58,2.62-4.39,4.42-6.93,6-3,1.89-6.82,2.11-10.24,2.82-1.9.39-3.77.84-5.62,1.38l0,0c-.41.13-.84.25-1.26.36-1.15.36-2.29.77-3.41,1.21A12.48,12.48,0,0,0,147,118.3a22.14,22.14,0,0,1-5.55,3.58,17.55,17.55,0,0,1-6.17,1.2m-14.68-8.73a3.12,3.12,0,0,0,.07,3.13c.91,1.22,2.24,1.5,3.59,1.85a3.53,3.53,0,0,1-.68-2.63,7.59,7.59,0,0,1,2.69-4.39,4.1,4.1,0,0,1,1-.66h-.16a3.18,3.18,0,0,1-.62-.05.25.25,0,0,0-.2-.19l-1-.11a3.4,3.4,0,0,0-.83-.12,1.81,1.81,0,0,0-.56.08l-.08,0a3.26,3.26,0,0,0-1.57.62c-.61.44-1.7,1.5-1.7,2.45m18.6-.95h-.48a10,10,0,0,0-1.35-.53,12.32,12.32,0,0,0,2.83.41h.21v0a7.09,7.09,0,0,1-1.22.1" fill="#d0a97d"/><path id="path10102" d="M120.08,117.66a3.17,3.17,0,0,1-.31-.49A4.07,4.07,0,0,1,120,114a6.16,6.16,0,0,1,3.3-3.15,3.33,3.33,0,0,1,1.1-.2,3,3,0,0,1,1,.2c.23.09.46.19.7.27a9.54,9.54,0,0,0-1.66-.17,4.2,4.2,0,0,0-3.61,1.79,5,5,0,0,0-1,4.57,2.67,2.67,0,0,0,.14.36m7.68-6.18-.61-.15h.27l.08,0,.36.08h-.1" fill="#b4784b"/><path id="path10104" d="M49.33,117.31l.77-.34.79-.19-1.56.53" fill="#cb631f"/><path id="path10106" d="M49.21,117.35l-.41-.07h0l1.3-.31-.77.34-.12,0" fill="#cea371"/><path id="path10108" d="M58.78,114.48c1.26-.36,2.53-.69,3.81-1l.66-.15c-1.38.32-2.92.7-4.47,1.11" fill="#cb631f"/><path id="path10110" d="M39.65,114.38a46.31,46.31,0,0,1-15.24-9.88l.17.18a46.58,46.58,0,0,0,15.07,9.7" fill="#cb631f"/><path id="path10112" d="M24.58,104.68l-.17-.18c-.06-.06-.12-.11-.17-.17h0l.34.35" fill="#cea371"/><path id="path10114" d="M68.47,112.43c.8-.12,1.59-.22,2.39-.31.6-.07,1.21-.11,1.82-.13-1.41.12-2.81.26-4.21.44" fill="#cb631f"/><path id="path10116" d="M24.18,104.27h0" fill="#cea371"/><path id="path10118" d="M50.1,117a3.24,3.24,0,0,1,.41-.13c1.42-.34,2.36-.72,3.75-1.12.74-.22,1.48-.42,2.22-.62a60.52,60.52,0,0,1,6.79-1.79c3.31-.68,6.65-1.17,10-1.52l.88-.08,2.69,0h.57c-1.58.08-3.16.18-4.73.3-.61,0-1.22.06-1.82.13-.8.09-1.59.19-2.39.31s-1.33.18-2,.29c-.9.15-2,.38-3.22.65l-.66.15c-1.28.27-2.55.6-3.81,1-2.79.74-5.65,1.58-7.89,2.3l-.79.19M44,116c-1.46-.47-2.91-1-4.33-1.58a46.58,46.58,0,0,1-15.07-9.7A49.29,49.29,0,0,0,44,116" fill="#be551f"/><path id="path10120" d="M48.8,117.28Q46.39,116.73,44,116a49.29,49.29,0,0,1-19.4-11.28l-.34-.35h0l-.06-.06h0a34.7,34.7,0,0,1-3.33-3.94,52.32,52.32,0,0,0,14.57,11,49.79,49.79,0,0,0,6.35,2.44,25.4,25.4,0,0,0,7.86,1.35,30.86,30.86,0,0,0,7.14-1c2.6-.61,4.79-1.21,7.4-1.77,1.85-.39,1.45-2,1.13-2.69s-1.75-3.94-1.75-3.94h0c.75,1.47,2,2.53,2.78,4a9.5,9.5,0,0,1,1.08,2.33c1.78-.24,4.56-.34,6.74-.38l-.88.08c-3.35.35-6.69.84-10,1.52a60.52,60.52,0,0,0-6.79,1.79c-.74.2-1.48.4-2.22.62-1.39.4-2.33.78-3.75,1.12a3.24,3.24,0,0,0-.41.13l-1.3.31" fill="#c18b59"/><path id="path10122" d="M101.15,59.82a15.4,15.4,0,0,1-6.6-1.6A21.17,21.17,0,0,0,102,59.59h.24a27.58,27.58,0,0,0,7.56-1l.47-.14a27.72,27.72,0,0,1-9,1.4h-.11" fill="#d46e23"/><path id="path10124" d="M90.86,56.15l-.57-.32-.16-.09h0l-.39-.23,0,0c.37.23.75.45,1.13.66" fill="#dcb899"/><path id="path10126" d="M92.07,57a9.24,9.24,0,0,1-2.32-1.53l.39.23A16.71,16.71,0,0,0,92.07,57M91,56.2l-.66-.37.57.32.09.05m19.1-5.78a30.48,30.48,0,0,1,6.3-3c-.38.15-.75.3-1.11.46l.62-.29a31.39,31.39,0,0,0-5.81,2.8" fill="#d46e23"/><path id="path10128" d="M90.29,55.83l-.15-.09h0l.16.09" fill="#cd9e79"/><path id="path10130" d="M102.21,59.59H102a21.17,21.17,0,0,1-7.42-1.37c-.78-.35-1.58-.74-2.42-1.15l-.06,0a16.71,16.71,0,0,1-1.93-1.3l.15.09.66.37h0a23.38,23.38,0,0,0,5.11,2c.53.13,1.07.23,1.6.32,1.5-1.21,3.2-2.22,4.79-3.3,2.48-1.67,5-3.29,7.6-4.8h0a31.39,31.39,0,0,1,5.81-2.8l-.62.29a30.33,30.33,0,0,0-2.85,1.43,61.83,61.83,0,0,0-10.2,7.53c-1.24,1.15-1.09,2.07.07,2.07h0c.49,0,.92,0,1.21,0a39.37,39.37,0,0,0,7.28-.69l-.52.2-.47.14a27.58,27.58,0,0,1-7.56,1" fill="#c55e1f"/><path id="path10132" d="M167.12,38.7a36.48,36.48,0,0,0-7.86-13.55c-3.66-3.86-8.76-6.14-13.74-7.75a27.12,27.12,0,0,0-8-1.48,24,24,0,0,0-8.43,1.43c-4.8,1.71-9,5.22-10.44,10.25a1.48,1.48,0,0,1-.39-.57,2,2,0,0,1,.62-2.13l-.08-.12a1.71,1.71,0,0,0-.78.67c-1.43,1.2-2.36,3.34-1.06,4.95a3,3,0,0,0-1.73,1.15c-.92,1.15-.82,2.47-.81,3.82a1.41,1.41,0,0,0,0,.41V36l.15,0a6.64,6.64,0,0,0,.22-1,3.79,3.79,0,0,1,1.67-1.54,3.8,3.8,0,0,0-.84,1.58,12.75,12.75,0,0,0,0,4.27h.2l.06-.74a8.66,8.66,0,0,1,.78-1.55c.13-.22.29-.44.44-.66-2.73,8.6,1.59,18.27,8.49,23.78a31.92,31.92,0,0,0,14,6.13,36.82,36.82,0,0,0,8,.64,14.34,14.34,0,0,0,3.59-.55,6.13,6.13,0,0,0,2.93-.23,11.58,11.58,0,0,1,2.53,2.69,11.17,11.17,0,0,0,.94,1.35.41.41,0,0,0,.6.39c2.66-1.5,4.44-4.61,5.81-7.23a42,42,0,0,0,2-5,18.5,18.5,0,0,0,1-3.93,39.05,39.05,0,0,0,1.17-7.69,23.92,23.92,0,0,0-1.22-8" fill="#f39b39"/><path id="path10134" d="M167.12,38.7a36.48,36.48,0,0,0-7.86-13.55c-3.66-3.86-8.76-6.14-13.74-7.75a27.12,27.12,0,0,0-8-1.48,24,24,0,0,0-8.43,1.43c-4.8,1.71-9,5.22-10.44,10.25a1.48,1.48,0,0,1-.39-.57,2,2,0,0,1,.62-2.13l-.08-.12a1.71,1.71,0,0,0-.78.67c-1.43,1.2-2.36,3.34-1.06,4.95a3,3,0,0,0-1.73,1.15c-.92,1.15-.82,2.47-.81,3.82a1.41,1.41,0,0,0,0,.41V36l.15,0a6.64,6.64,0,0,0,.22-1,3.79,3.79,0,0,1,1.67-1.54,3.8,3.8,0,0,0-.84,1.58,12.75,12.75,0,0,0,0,4.27h.2l.06-.74a8.66,8.66,0,0,1,.78-1.55c.13-.22.29-.44.44-.66-2.73,8.6,1.59,18.27,8.49,23.78a31.92,31.92,0,0,0,14,6.13,36.82,36.82,0,0,0,8,.64,14.34,14.34,0,0,0,3.59-.55q.44,0,.87.06a6.28,6.28,0,0,0,1-5.4,9.19,9.19,0,0,0-4.15-6,41.15,41.15,0,0,0-6.13-2.43A13.54,13.54,0,0,1,138.17,50a9.88,9.88,0,0,1-2.25-3.31c-.13,1.51-.79.6-1.33-.32-.41-.71-.75-1.42-.71-1,0,.22,1.38,3.81,1.28,3.64-2.21-3.71-3.31-8.72-1.5-12.78-.94.9-3.24,5.43-1.94-.42,0-.11-.3.67-.62,1.46s-.64,1.56-.62,1.46c.56-3.5.59-6.4,3.31-8.78-1,.28-3.72,2.71.09-1.24a9.14,9.14,0,0,0-1,.65,9.84,9.84,0,0,1-1,.65c5.1-5.24,12.29-5.29,18.81-2.46,8.8,3.8,15.88,17,15.67,26.43a43.82,43.82,0,0,1-.47,5.22l.32-.87a18.5,18.5,0,0,0,1-3.93,39.05,39.05,0,0,0,1.17-7.69,23.92,23.92,0,0,0-1.22-8" fill="#fbfbe7"/><path id="path10136" d="M161.08,64.81a.77.77,0,0,1-.61-.31c-.57-.68-.34-2.34-.28-3.14a26.52,26.52,0,0,0-.65-9,13.52,13.52,0,0,0-3.71-6.05c-1.87-2-4.23-4-4.28-6.94h-.16a5.92,5.92,0,0,0,.69,3.78c-2.71-2.62-4.28-10,1.27-10.21V32.8a13,13,0,0,1,2.59.76c-1.68.31-2.56,2.24-2.6,4a.23.23,0,0,0,.22.22.19.19,0,0,0,.1,0,7.77,7.77,0,0,1,2.77-1.25c-2,1.92-.72,4.94.56,7.14.9,1.53,2,2.93,2.93,4.45a14.62,14.62,0,0,1,2.14,6.66.21.21,0,0,0,.21.2.23.23,0,0,0,.19-.1,10.61,10.61,0,0,0,.58-.9,18.92,18.92,0,0,0,0,3.53l.2.15c1.48,0,2.36-1.88,2.93-3l.09-.19c0,.87-.1,1.74-.18,2.62-.44,1.18-.91,2.33-1.41,3.44-.21.46-2.2,4.34-3.61,4.34m-8.33-5.06a9,9,0,0,0-3.52-4.5c.69-1.19,0-2.67-.66-3.83a12.23,12.23,0,0,1,2.16,1.79.21.21,0,0,0,.15.07.22.22,0,0,0,.2-.27c-.91-4.07-4.38-5.92-7.8-7.68a4,4,0,0,1,.83-.08c1.86,0,3.69,1.14,5.29,2a.23.23,0,0,0,.11,0,.22.22,0,0,0,.18-.32,34.3,34.3,0,0,0-3-4.41,5.5,5.5,0,0,1-.55-5.79,6.89,6.89,0,0,1,3.54-3.57,3.27,3.27,0,0,0-.37.28l-.11,0C147,35.9,145.8,39,147.35,42.16s5.88,4.44,6.73,7.84a4.32,4.32,0,0,0-1.3-.36,4.58,4.58,0,0,0-2.51-1v.13a3.78,3.78,0,0,1,1.6.8v.11h0l.17,0a8,8,0,0,1,1.66,2.3,5.67,5.67,0,0,1,.65,2.09A2.28,2.28,0,0,1,154,55.6a9,9,0,0,0-1.65-1.18h-.25a6.66,6.66,0,0,0-1.09-.77l-.08.13a6.37,6.37,0,0,1,1.93,5.44,3.65,3.65,0,0,1-.11.52" fill="#e3832f"/><path id="path10138" d="M167.17,54.44c.34-1.49.66-3,.88-4.47-.22,1.5-.53,3-.88,4.47m.88-4.47v0M114.47,36v0l.11,0-.12,0m.52-4.1a3.58,3.58,0,0,1,.41-.55l-.14.16a4.56,4.56,0,0,0-.27.39m2-1.54v0m0,0v0m0,0v0m0,0h0m0,0h0m0,0v0m0,0v0m0,0,0,0,0,0m0,0h0m0,0,0,0,0,0m0,0a2.7,2.7,0,0,1-.43-1.91,2.53,2.53,0,0,0,0,.38,2.8,2.8,0,0,0,.18,1h0a2.46,2.46,0,0,0,.28.53m-.43-1.91h0" fill="#f0ddce"/><path id="path10140" d="M145,63.75a39.82,39.82,0,0,1-8.1-1.33,24.16,24.16,0,0,1-7-2.66,23,23,0,0,1-9.72-12.16,25,25,0,0,1-1.4-7.62,12.76,12.76,0,0,1,2.37-8.23l-.1-.11-.1.07h-.08A7.85,7.85,0,0,0,116,36.53a4.22,4.22,0,0,1,1.93-3.7l0-.13-.25,0,0,0h-.28a2.61,2.61,0,0,0-1.47.49,5.43,5.43,0,0,1,4.25-2.09h.33a6.57,6.57,0,0,0-1.11-.29,12.63,12.63,0,0,0-1.5-.23,3.11,3.11,0,0,1-1.33-2.71,2.87,2.87,0,0,0,.08,1.74,2.8,2.8,0,0,1-.18-1,2.53,2.53,0,0,1,0-.38h0a3.92,3.92,0,0,1,.52-1.48,2.8,2.8,0,0,0,.57,1.93,1.89,1.89,0,0,0,1.52.71,4.21,4.21,0,0,0,2.43-1c.16-.12.1-.4-.09-.4l-.08,0a3.29,3.29,0,0,1-.92.16,1.49,1.49,0,0,1-1.32-.68,1.3,1.3,0,0,1-.1-.15,5.59,5.59,0,0,1,.26-1.21,16.18,16.18,0,0,1,9.3-8.58,16.21,16.21,0,0,0-3.2,2.36,23.8,23.8,0,0,0-4.44,6.47.11.11,0,0,1,0,0s.38-.56.52-.73A7.66,7.66,0,0,1,127,22.81h.11A12.89,12.89,0,0,0,123,28.48c-1.35,3.73-1.86,5.68-1.45,10a17.34,17.34,0,0,0,.24,1.8,0,0,0,0,0,0,0,10,10,0,0,1,3.06-5.06c-3.11,7.34,0,15.57,6.79,19.8a19.74,19.74,0,0,0,10.27,3,17.19,17.19,0,0,0,2.27-.15c1.77-.25,3.8-.91,4.9-2.4l.14-.21a9,9,0,0,1,3.52,4.5,4.84,4.84,0,0,1-2,2.54A10.83,10.83,0,0,1,145,63.75h0M166.1,57c.08-.88.15-1.75.18-2.62A22.48,22.48,0,0,0,168.16,49,37.47,37.47,0,0,1,166.1,57M115,31.94h0a4.56,4.56,0,0,1,.27-.39l.14-.16h0l-.14.16h0a4.56,4.56,0,0,0-.27.39m1.56-2.29h0" fill="#ead9b6"/><path id="path10142" d="M118.68,27.6l0-.06,0,.06m0-.07v0m-.53-1.06h0m0,0h0m0,0h0a2.2,2.2,0,0,1,.61-1.41h0a2.17,2.17,0,0,0-.63,1.42" fill="#dcb899"/><path id="path10144" d="M119.34,28.47a2.14,2.14,0,0,1-1-.43c-.86-.71-.43-1.83,0-2.7a3.57,3.57,0,0,1,.37-.31,2.2,2.2,0,0,0-.61,1.41h0a1.61,1.61,0,0,0,.12.56,1.48,1.48,0,0,0,.39.57h0l0-.06h0v0a11.82,11.82,0,0,1,.48-1.34h0a9.75,9.75,0,0,0-.35.95,1.61,1.61,0,0,0,.09.26c0,.13,0,.25,0,.37l0,0,0,0a1,1,0,0,0,.39.66" fill="#d7b388"/><path id="path10146" d="M118.93,27.38a1.61,1.61,0,0,1-.09-.26,9.75,9.75,0,0,1,.35-.95,5.59,5.59,0,0,0-.26,1.21" fill="#c99a6b"/><path id="path10148" d="M153.36,32.8l-.51-.07,0-.13h0l.06.06.42.1v0" fill="#e3832f"/><path id="path10150" d="M168.05,50h0m0,0c.06-.41.11-.83.16-1.25a2.56,2.56,0,0,0-.05.27c.1-.81.16-1.6.18-2.39v.19h0a30.05,30.05,0,0,1-.29,3.18" fill="#ead9b6"/><path id="path10152" d="M158.1,70.68a.43.43,0,0,1-.42-.4.06.06,0,0,1,0,0h0a11.17,11.17,0,0,1-.94-1.35,11.58,11.58,0,0,0-2.53-2.69,5.06,5.06,0,0,1-1.81.3,10.69,10.69,0,0,1-1.12-.07,10.32,10.32,0,0,0,1.1.07,5.24,5.24,0,0,0,1.72-.26l.53-.21h0l.43-.25a5.42,5.42,0,0,0,2-3.09,6.67,6.67,0,0,0,.06-3.38,8.93,8.93,0,0,0-.41-6.6,4.59,4.59,0,0,0-.48-.87A6.2,6.2,0,0,0,154,47.15c-1.74-1.65-3.88-2.68-5.32-4.67-2.36-3.26-.67-9.73,3.82-9.73l.36,0v0l.51.07v.12c-5.55.2-4,7.59-1.27,10.21a5.92,5.92,0,0,1-.69-3.78h.16c0,2.92,2.41,5,4.28,6.94a13.52,13.52,0,0,1,3.71,6.05,26.52,26.52,0,0,1,.65,9c-.06.8-.29,2.46.28,3.14a.77.77,0,0,0,.61.31c1.41,0,3.4-3.88,3.61-4.34.5-1.11,1-2.26,1.41-3.44-.08.74-.17,1.48-.28,2.21a33.42,33.42,0,0,1-1.72,4.16c-1.37,2.62-3.15,5.73-5.81,7.23a.34.34,0,0,1-.19.05" fill="#d57126"/><path id="path10154" d="M165.83,59.24c.1-.29.2-.58.31-.87-.11.29-.21.58-.31.87" fill="#d57126"/><path id="path10156" d="M165.82,59.24h0c.11-.73.2-1.47.28-2.21A37.47,37.47,0,0,0,168.16,49a2.56,2.56,0,0,1,.05-.27c-.05.42-.1.84-.16,1.25v0h0c-.22,1.5-.54,3-.88,4.47a18.5,18.5,0,0,1-1,3.93h0c-.11.29-.21.58-.31.87h0" fill="#d9b88f"/><path id="path10158" d="M117,30.38h0m0,0h0m0,0h0m0,0h0m0,0h0m0,0h0m0,0h0m0,0h0m0,0h0" fill="#f0ddce"/><path id="path10160" d="M114.48,36h0v-.21h0a1.48,1.48,0,0,1,0-.21,1.41,1.41,0,0,1,0-.2h0c0-.27,0-.54,0-.8a4.91,4.91,0,0,1,.55-2.63,1.62,1.62,0,0,1-.1.18,5,5,0,0,1,.37-.57h0l.14-.16a2.71,2.71,0,0,1,2.06-.79h.34c.08.06.16.1.24.15a3.24,3.24,0,0,0-2.69,1.78,4.94,4.94,0,0,0-.41,1.56,3.14,3.14,0,0,1,.89-.89A6.65,6.65,0,0,0,114.48,36M117,30.38h0" fill="#ead9b6"/><path id="path10162" d="M152.44,66.1l.09-.14a7.61,7.61,0,0,0,1.77-1.13l0-.09-.28.13a8.4,8.4,0,0,1-1.24.7,6.65,6.65,0,0,0,.4-4.48,10.76,10.76,0,0,0-.39-1.34,3.65,3.65,0,0,0,.11-.52,6.37,6.37,0,0,0-1.93-5.44l.08-.13a6.66,6.66,0,0,1,1.09.77h.25A9,9,0,0,1,154,55.6a2.28,2.28,0,0,0,.35-1.44,5.67,5.67,0,0,0-.65-2.09,8,8,0,0,0-1.66-2.3l-.17,0a5.21,5.21,0,0,1,4.31,3.41,10.14,10.14,0,0,1,.62,5.34,6.81,6.81,0,0,0-2.4-2.37l-.1.12a6.49,6.49,0,0,1,2,2.52,6.39,6.39,0,0,1,.22,3.33,5.17,5.17,0,0,1-1.62,3,4.5,4.5,0,0,1-2.44,1" fill="#d57126"/><path id="path10164" d="M117,30.4h0v0h0l0,0h0" fill="#ddbca2"/><path id="path10166" d="M117,30.38h0v0h0v0h0v0h0v0h0l0,0h0l0,0h0a2.46,2.46,0,0,1-.28-.53,3,3,0,0,0,.42.73m-.42-.73h0" fill="#ddbca2"/><path id="path10168" d="M146.61,67a37.73,37.73,0,0,1-7-.66,31.92,31.92,0,0,1-14-6.13c-5.47-4.37-9.32-11.36-9.32-18.35a18.08,18.08,0,0,1,.83-5.43h0c-.15.22-.31.44-.44.66a8.66,8.66,0,0,0-.78,1.55l-.06.74h-.2c-.08-.85-.2-1.74-.2-2.62a6.53,6.53,0,0,1,.19-1.65,3.8,3.8,0,0,1,.84-1.58h0a3.79,3.79,0,0,0-1.67,1.54,6.64,6.64,0,0,1-.22,1l-.11,0a6.65,6.65,0,0,1,1.35-2.79,2.61,2.61,0,0,1,1.47-.49h.28l0,0,.25,0,0,.13a4.22,4.22,0,0,0-1.93,3.7,7.85,7.85,0,0,1,4.85-4.83h.08l.1-.07.1.11A12.76,12.76,0,0,0,118.75,40a25,25,0,0,0,1.4,7.62,23,23,0,0,0,9.72,12.16,24.16,24.16,0,0,0,7,2.66,39.82,39.82,0,0,0,8.1,1.33h0a10.83,10.83,0,0,0,5.82-1.46,4.84,4.84,0,0,0,2-2.54,10.76,10.76,0,0,1,.39,1.34,6.65,6.65,0,0,1-.4,4.48,11.64,11.64,0,0,1-2.42.8c-1.06.24-2.17.46-3.29.62h-.42m5.47-.85.45-.19-.09.14-.36.05m-37.19-34a1.62,1.62,0,0,0,.1-.18,4.56,4.56,0,0,1,.27-.39,5,5,0,0,0-.37.57m.51-.73a3,3,0,0,1,1.59-1h0l0,0h0a3,3,0,0,1-.42-.73h0a2.87,2.87,0,0,1-.08-1.74,3.11,3.11,0,0,0,1.33,2.71h-.34a2.71,2.71,0,0,0-2.06.79" fill="#d9b88f"/><path id="path10170" d="M155.7,51.19A4.73,4.73,0,0,0,154.08,50c-.85-3.4-5.21-4.79-6.73-7.84s-.32-6.26,1.89-8.69l.11,0c-1.85,1.58-2.59,4.8-2.19,7.08s2.46,4.1,4.31,5.46a15.93,15.93,0,0,1,3.08,2.71,6.91,6.91,0,0,1,1.15,2.5m-3.83-1.46h0v-.11a3.78,3.78,0,0,0-1.6-.8v-.13a4.58,4.58,0,0,1,2.51,1,3.69,3.69,0,0,0-.58,0h-.32v.12" fill="#d57126"/><path id="path10172" d="M147.58,67h.12a14.34,14.34,0,0,0,3.59-.55h0a14.34,14.34,0,0,1-3.59.55h-.12" fill="#c55e1f"/><path id="path10174" d="M154.08,50a4.26,4.26,0,0,0-1.28-.35h0a4.32,4.32,0,0,1,1.3.36h0" fill="#c55e1f"/><path id="path10176" d="M149.72,33.16a3.73,3.73,0,0,1,2.15-.67,4.52,4.52,0,0,1,1,.11,5.19,5.19,0,0,0-1-.11,3.79,3.79,0,0,0-2.14.66h0" fill="#d46e23"/><path id="path10178" d="M149.35,33.44a3.27,3.27,0,0,1,.37-.28h0c-.13.09-.25.19-.37.29h0" fill="#c55e1f"/><path id="path10180" d="M149.73,33.15a3.79,3.79,0,0,1,2.14-.66,5.19,5.19,0,0,1,1,.11h0l0,.13c-.25,0-.51,0-.77,0a6.3,6.3,0,0,0-1.3.13,6.77,6.77,0,0,0-1.05.33" fill="#c55e1f"/><path id="path10182" d="M152.39,66.5a10.32,10.32,0,0,1-1.1-.07h0q.44,0,.87.06l.28-.39a4.5,4.5,0,0,0,2.44-1,5.17,5.17,0,0,0,1.62-3,6.39,6.39,0,0,0-.22-3.33,6.49,6.49,0,0,0-2-2.52l.1-.12a6.81,6.81,0,0,1,2.4,2.37,10.14,10.14,0,0,0-.62-5.34,5.21,5.21,0,0,0-4.31-3.41h0v-.12h.32a3.69,3.69,0,0,1,.58,0h0a4.26,4.26,0,0,1,1.28.35h0a4.73,4.73,0,0,1,1.62,1.19,6.91,6.91,0,0,0-1.15-2.5A15.93,15.93,0,0,0,151.47,46c-1.85-1.36-3.87-3.06-4.31-5.46s.34-5.5,2.19-7.08h0c.12-.1.24-.2.37-.29a6.77,6.77,0,0,1,1.05-.33,6.3,6.3,0,0,1,1.3-.13c.26,0,.52,0,.77,0v0l-.36,0c-4.49,0-6.18,6.47-3.82,9.73,1.44,2,3.58,3,5.32,4.67a6.2,6.2,0,0,1,2.21,4.69,4.59,4.59,0,0,1,.48.87,8.93,8.93,0,0,1,.41,6.6,6.67,6.67,0,0,1-.06,3.38,5.42,5.42,0,0,1-2,3.09l-.43.25h0l-.53.21a5.24,5.24,0,0,1-1.72.26m.14-.54.21-.39a8.4,8.4,0,0,0,1.24-.7l.28-.13,0,.09A7.61,7.61,0,0,1,152.53,66" fill="#b7511f"/><path id="path10184" d="M147,67c1.12-.16,2.23-.38,3.29-.62a11.64,11.64,0,0,0,2.42-.8l-.21.39-.45.19.36-.05-.28.39q-.43,0-.87-.06h0a14.34,14.34,0,0,1-3.59.55H147" fill="#bc8555"/><path id="path10186" d="M50.34,106.6s-.39-1.78-6.91-3.15-13.18-4.26-15.62-6.54c-.75-.71-1.11-1-1.23-1s.7,1.29,1.24,1.73c0,0-5.39-4.06-7.47-9.15-.31-.77-.57-1.45-.78-2h0a.17.17,0,0,0,.13-.25v0l0,0v0A6.38,6.38,0,0,1,19,84.29c0-.05,0-.08,0-.11l.15.39a9.35,9.35,0,0,0,1,2l.15.23a21.33,21.33,0,0,0,4.23,4.27h0l-.45-.52a55.84,55.84,0,0,0,17.31,10.16,28.66,28.66,0,0,0,8.8,1.28,22.9,22.9,0,0,0,2.77-.15c5.7-.75,7.24-1.78,11.79-4.3a50.86,50.86,0,0,0,10.64-7.75,41.42,41.42,0,0,0,7.72-10c.38-.7.76-1.42,1.11-2.16l.09,0c.12-.2.22-.4.32-.6a38.62,38.62,0,0,1-10.36,16s.38-.82.08-.82-.52.24-1.22,1a43.82,43.82,0,0,1-11.7,8.38c-5.09,2.32-10.58,3-11.08,5" fill="#c55e1f"/><path id="path10188" d="M50.18,102a28.66,28.66,0,0,1-8.8-1.28A55.84,55.84,0,0,1,24.07,90.57L22.75,89A15.81,15.81,0,0,1,19,82.94c2,2.92,10.28,14,24.66,17.19a22.94,22.94,0,0,0,5.06.54c14.54,0,31.41-12.32,36.19-25.24-.21.74-.44,1.48-.7,2.21h0c-.35.74-.73,1.46-1.11,2.16a41.42,41.42,0,0,1-7.72,10,50.86,50.86,0,0,1-10.64,7.75c-4.55,2.52-6.09,3.55-11.79,4.3a22.9,22.9,0,0,1-2.77.15M20.29,86.82l-.15-.23.15.23m-1.17-2.25L19,84.18s0,.06,0,.11l0-.23V84c0,.19.12.39.18.58m-.58-2a1.61,1.61,0,0,1,0-.37h0v.37" fill="#c99a6b"/><path id="path10190" d="M24.52,91.09a21.33,21.33,0,0,1-4.23-4.27,9.9,9.9,0,0,0,1.15,1.32c.5.49,1.39,1.36,2.63,2.43l.45.52m-4.38-4.5a9.35,9.35,0,0,1-1-2,11.73,11.73,0,0,0,1,2m-.53-.1h0l-.33-.94c-.11-.47-.22-1-.26-1.25a6.38,6.38,0,0,0,.71,1.86v0l0,0v0a.17.17,0,0,1-.13.25" fill="#a9441f"/><path id="path10192" d="M24.07,90.57c-1.24-1.07-2.13-1.94-2.63-2.43a9.9,9.9,0,0,1-1.15-1.32l-.15-.23a11.73,11.73,0,0,1-1-2c-.06-.19-.13-.39-.18-.58v.07l0,.23c0,.26.15.78.26,1.25a13,13,0,0,1-.7-3v-.37l.46.72A15.81,15.81,0,0,0,22.75,89l1.32,1.53" fill="#af6d41"/><path id="path10194" d="M84.3,77.69l-.09,0c.3-.63.58-1.27.85-1.93-.13.43-.27.88-.44,1.37-.1.2-.2.4-.32.6" fill="#a9441f"/><path id="path10196" d="M84.21,77.65h0c.26-.73.49-1.47.7-2.21a21.59,21.59,0,0,0,1-3.39,24.3,24.3,0,0,1-.82,3.68c-.27.66-.55,1.3-.85,1.93" fill="#af6d41"/><path id="path10198" d="M82.22,112.67c-6.44-.75-13.2.22-19.55,1.3a57,57,0,0,0-18,5.89c-.13.08,0,.3.13.25a93.14,93.14,0,0,1,18-5.13c3.07-.51,6.15-.87,9.24-1.25,3.39-.41,6.83-.45,10.21-.89v-.17" fill="#fcce9b"/><path id="path10200" d="M90.4,79.14l-.14.1a93,93,0,0,1,5.93,10.59,52.26,52.26,0,0,1,4.07,10.49l.13,0c-.79-7.51-4.92-15.64-10-21.15" fill="#fcce9b"/><path id="path10202" d="M129.46,69.18c-4,2.23-7.11,6-9.55,9.78a24.77,24.77,0,0,0-4.15,12.63c0,.13.22.14.23,0,1.16-8.9,6.91-16.57,13.61-22.21a.13.13,0,0,0-.14-.21" fill="#fcce9b"/><path id="path10204" d="M82.65,42.47a6.57,6.57,0,0,0-1.14-3c-2.37-4-6.8-5.89-9.66-9.4l-.25-.32.16-.23c.71-3.12,1.61-6.14,2-9.33a44.74,44.74,0,0,0,.17-9.47c-.13-1.57-.39-3.13-.61-4.68a17.53,17.53,0,0,0-1-4.11c-.23-.56-.44-1.67-1.15-1.85a2.27,2.27,0,0,0-.86,0,12,12,0,0,0-5.62,1.19A31.56,31.56,0,0,0,59,4.48,28.19,28.19,0,0,0,53.81,9a23.41,23.41,0,0,0-3.9,5.42,27.88,27.88,0,0,0-10.33-.6A34.77,34.77,0,0,0,33,15.12a22.28,22.28,0,0,0-3.58,1.4c-1.31-1.57-2.5-3.22-3.95-4.66a38.61,38.61,0,0,0-4.69-4A51.39,51.39,0,0,0,15.85,5a7.7,7.7,0,0,0-3.64-1.28,1.14,1.14,0,0,0-.89.09c-.78.41-1.13,1.87-1.41,2.59A31.76,31.76,0,0,0,8,15.9c-.34,6,.74,12.74,4.28,17.76l0,0c-.41.93-.84,1.86-1.33,2.74A10.71,10.71,0,0,1,8.7,38.73a21.88,21.88,0,0,0-2.17,2.54,15.66,15.66,0,0,0-2,3.59,9.67,9.67,0,0,0-.63,1.7c-.08.2-.14.4-.21.59l0,.11a6.66,6.66,0,0,0-.11,1c-.08,2.17,1.06,4.38,2,6.24A42.41,42.41,0,0,0,14,64.93a64.17,64.17,0,0,0,10.94,8.25,60.55,60.55,0,0,0,6.24,3.49c1.07.5,2.17.94,3.28,1.34a23.33,23.33,0,0,1,2.32.87,14.28,14.28,0,0,0,1.66,1.36A11.07,11.07,0,0,0,43.19,82a21.16,21.16,0,0,0,5.45,0,5.89,5.89,0,0,0,2.51-.94,10.11,10.11,0,0,0,4.68-5.13H56a35,35,0,0,0,8.86-4.43,42.81,42.81,0,0,0,7.06-5.6C75.8,62,79.68,57.1,81,51.61l.1-.22c.47-1.83.94-3.65,1.23-5.53a16.78,16.78,0,0,0,.32-3.39" fill="#f39b39"/><path id="path10206" d="M82.65,42.47a6.57,6.57,0,0,0-1.14-3c-2.37-4-6.8-5.89-9.66-9.4l-.25-.32.16-.23c.71-3.12,1.61-6.14,2-9.33a44.74,44.74,0,0,0,.17-9.47c-.13-1.57-.39-3.13-.61-4.68a17.53,17.53,0,0,0-1-4.11c-.23-.56-.44-1.67-1.15-1.85a2.27,2.27,0,0,0-.86,0,12,12,0,0,0-5.62,1.19A31.56,31.56,0,0,0,59,4.48,28.19,28.19,0,0,0,53.81,9a23.41,23.41,0,0,0-3.9,5.42,27.88,27.88,0,0,0-10.33-.6A34.77,34.77,0,0,0,33,15.12a22.28,22.28,0,0,0-3.58,1.4c-1.31-1.57-2.5-3.22-3.95-4.66a38.61,38.61,0,0,0-4.69-4A51.39,51.39,0,0,0,15.85,5a7.7,7.7,0,0,0-3.64-1.28,1.14,1.14,0,0,0-.89.09c-.78.41-1.13,1.87-1.41,2.59A31.76,31.76,0,0,0,8,15.9c-.34,6,.74,12.74,4.28,17.76l0,0c-.41.93-.84,1.86-1.33,2.74A10.71,10.71,0,0,1,8.7,38.73a21.88,21.88,0,0,0-2.17,2.54,15.66,15.66,0,0,0-2,3.59,9.67,9.67,0,0,0-.63,1.7c-.08.2-.14.4-.21.59l0,.11a6.66,6.66,0,0,0-.11,1c-.08,2.17,1.06,4.38,2,6.24A42.41,42.41,0,0,0,14,64.93a64.17,64.17,0,0,0,10.94,8.25,60.55,60.55,0,0,0,6.24,3.49c1.07.5,2.17.94,3.28,1.34a23.33,23.33,0,0,1,2.32.87,14.28,14.28,0,0,0,1.66,1.36A11.07,11.07,0,0,0,43.19,82a21.16,21.16,0,0,0,5.45,0,5.89,5.89,0,0,0,2.51-.94,10.11,10.11,0,0,0,4.68-5.13H56a35,35,0,0,0,8.86-4.43,42.81,42.81,0,0,0,7.06-5.6C75.8,62,79.68,57.1,81,51.61l.1-.22c.47-1.83.94-3.65,1.23-5.53a16.78,16.78,0,0,0,.32-3.39" fill="#f39b39"/><path id="path10208" d="M81.1,51.39c.38-1.48.76-3,1-4.46.33-3-.15-5.81-3.18-7.26a23,23,0,0,0-4.14-1.33c-1.21-.34-2.43-.66-3.66-.9-2.72-.54-5.77-.92-8.33.39a.22.22,0,0,1-.31-.24,6.87,6.87,0,0,0-1.9-7,9.66,9.66,0,0,0-5.75-3c-7-.36-2.44,9-1.52,12v.09c.11.07.16.21,0,.3-.59.48-1.83,1.27-1.5,2.2.21.57.75.79,1.17,1.17a2.73,2.73,0,0,1,.73,2.52,17.47,17.47,0,0,1-.95,3.68c-.37,1.1-.61,5.2-1,6.28-.16.4-.36,0-.63-.48s-.52-.75-.89-.61c-1.19.45-2.41-.06-3.58-.34A13.29,13.29,0,0,0,41,54c-.54.12-1.06.26-1.59.41l-.19.14a3.75,3.75,0,0,0-.45,0,12.76,12.76,0,0,1-2.23.44l-.17-.08a3.84,3.84,0,0,1-2.12-.28c-1.68-.87-2.08-3.51-2.41-5.18a6.36,6.36,0,0,1,.64-5.05,8.08,8.08,0,0,0,1.14-2.2c.25-1.23-.95-1.73-1.92-2.06l-.15-.27c1-2.46,4.16-9.38,1.45-11.24-4-2.76-14.36,4.12-9.85,10.29.09.11-.07.26-.21.27-7.21.34-17.83,2-19.28,10a15.86,15.86,0,0,0,2,5.31A42.41,42.41,0,0,0,14,64.93a64.17,64.17,0,0,0,10.94,8.25,60.55,60.55,0,0,0,6.24,3.49c1.07.5,2.17.94,3.28,1.34a23.33,23.33,0,0,1,2.32.87,14.28,14.28,0,0,0,1.66,1.36A11.07,11.07,0,0,0,43.19,82a21.16,21.16,0,0,0,5.45,0,5.89,5.89,0,0,0,2.51-.94,10.11,10.11,0,0,0,4.68-5.13H56a35,35,0,0,0,8.86-4.43,42.81,42.81,0,0,0,7.06-5.6C75.8,62,79.68,57.1,81,51.61l.1-.22" fill="#fbfbe7"/><path id="path10210" d="M64.17,58.88a17,17,0,0,0-1.13-5,25,25,0,0,0-3.6-6.2,54.53,54.53,0,0,0-4.78-5.19c-.47-.47-1-.93-1.46-1.38l-.58.72c-.44.58-1,1.36-.68,2.14.22.56.76,1,.89,1.59a3.74,3.74,0,0,1-.12,2,13.56,13.56,0,0,0-.49,3.29,37.25,37.25,0,0,1-.59,5.78l-.2.15c-2.86,0-5.75-.14-8.59,0a47.93,47.93,0,0,1-7.57.28c.17.5.38.89.63.92s.16.45-.11.41c-.47-.06-.75-.76-.92-1.38l-.23,0c-.27,0-.16-.44.11-.41l-.08-.32c-.45-1.66-.77-3.35-1.06-5a16,16,0,0,0-.92-4.12c-.32-.7-.83-1.52-.5-2.3.19-.45.64-.73.77-1.22a2.46,2.46,0,0,0-.11-2.06c-.51.5-1,1-1.5,1.53a36.74,36.74,0,0,0-4.72,6,25.86,25.86,0,0,0-3.57,8.7,13.07,13.07,0,0,0,.18,5.4,10.54,10.54,0,0,0,.54,2.4,10.1,10.1,0,0,0,2.51,3.59,16.82,16.82,0,0,0,7.51,4.27,8.83,8.83,0,0,0,7.14-1.05,8,8,0,0,0,2.7-3.16l.12-.3a5.29,5.29,0,0,0,2.75,2.54,20,20,0,0,0,4.92,1.35,4.52,4.52,0,0,0,2.65-.34c.55-.19,1.09-.43,1.61-.63s1.17-.63,1.71-1a15.64,15.64,0,0,0,4.1-3.59,11.84,11.84,0,0,0,2.67-8.42" fill="#fbfbe7"/><path id="path10212" d="M58.57,15.4c-.25,1.07-.51,1.53.71,2.17s6.13,3.78,7.85,6.77,3.13-2.63,3.32-9.07.06-12.39-2.3-11.11S60,9.27,58.57,15.4" fill="#f79789"/><path id="path10214" d="M14.18,30.75a37.21,37.21,0,0,1,6.51-9.58c.76-.76,1.18-1.69.16-3.41s-4.6-7.47-7.28-8-3.26,5.87-2.43,10.59a65.29,65.29,0,0,0,3,10.38" fill="#f79789"/><path id="path10216" d="M74.71,32.84l-.26-.21.26.21m-1.95-1.77c-.2-.21-.4-.42-.59-.64.19.22.39.43.59.63h0" fill="#dcb899"/><path id="path10218" d="M12,34.44c.11-.24.23-.49.34-.74h0l-.32.72,0,0m.3-.78A20.7,20.7,0,0,1,10.19,30a20.7,20.7,0,0,0,2.07,3.71m-2.07-3.72,0,0,0,0" fill="#dcb899"/><path id="path10220" d="M5.69,54.49a26.81,26.81,0,0,1-1.5-3.24,20.33,20.33,0,0,0,1,2.23c.17.35.35.69.52,1h0" fill="#dcb899"/><path id="path10222" d="M5.69,54.49c-.17-.32-.35-.66-.52-1,.17.35.35.69.52,1h0" fill="#d7b388"/><path id="path10224" d="M81.1,51.39l0-.12,0,.12" fill="#c99a6b"/><path id="path10226" d="M4.19,51.24h0m0,0h0" fill="#dcb899"/><path id="path10228" d="M23.44,61.29,22.9,61c0-.34,0-.69,0-1a12.06,12.06,0,0,1,.2-2.22,25.86,25.86,0,0,1,3.57-8.7l.33-.51a23.93,23.93,0,0,0-3.52,12.73" fill="#d0b081"/><path id="path10230" d="M63,53.89l0,0,0,0m0-.08h0m0-.06h0" fill="#d0b081"/><path id="path10232" d="M63.57,60a13.35,13.35,0,0,0-.67-4.51,44.59,44.59,0,0,0-2.51-6.35c-.11-.22-.36-.59-.58-1A23.73,23.73,0,0,1,63,53.75h0v0h0v0l0,0h0a17,17,0,0,1,1.13,5c0,.28,0,.56,0,.84h0l-.62.29" fill="#d0b081"/><path id="path10234" d="M42.74,52c-3.24,0-7.86-3.19-8.23-6.39s3.54-5.09,8.92-5.09h.49c12.42.25,8.68,10.56-.75,11.46l-.43,0" fill="#f5b54a"/><path id="path10236" d="M72.38,1.91h0" fill="#dcb899"/><path id="path10238" d="M81.13,51.27c0-.14.07-.29.11-.43.33-1.3.65-2.59.9-3.91.24-2.14,0-4.23-1.22-5.77-.49-2.31-2.68-4.47-4.34-5.75s-4.34-2.89-6.78-2.89h-.21a2.91,2.91,0,0,0,.38-2c-.32-2.28-1.88-4.29-3.32-6a43.34,43.34,0,0,0-5.88-5.44,19.22,19.22,0,0,0-5.66-3.37h.06c.43,0,.86,0,1.28,0,.63-.07.88-.57,1.15-1.08a33.1,33.1,0,0,1,5.17-7.25,15.25,15.25,0,0,1,4.91-3.6,5.27,5.27,0,0,1,1.8-.54.68.68,0,0,1,.71.41,15.84,15.84,0,0,1,1.15,3.64c.29,1.32.6,1.75.88,1.75.47,0,.85-1.2.85-1.37,0-1-.48-5.88-1.5-7.43a4.43,4.43,0,0,1,.81,1.66h0a17.53,17.53,0,0,1,1,4.11c.22,1.55.48,3.11.61,4.68l0-.23a30.61,30.61,0,0,1-.64,8.29q-.12,1.18-.3,2.37c-.41,2.71-1.24,5.31-1.86,8-.6-.8-1.15-1.63-1.71-2.46a10.22,10.22,0,0,0-.75-1.83c1-1.17,1.65-5.15,1.79-9.5,0,.25,0,.51.07.77.08-2.62,0-5.22,0-7.84,0-.17,0-.34-.07-.51A18.32,18.32,0,0,0,70,5.06C69.82,4.49,69.54,4,69,4a.62.62,0,0,0-.19,0h0a1.27,1.27,0,0,0-.6.18c-.19.1-.41.22-.64.36A17.61,17.61,0,0,0,63.7,7.33a19.31,19.31,0,0,0-3.09,3.51,10.82,10.82,0,0,0-2.4,6l0,.19,0,0v.06a.09.09,0,0,0,.09.1.14.14,0,0,0,.09,0,9.51,9.51,0,0,0,1.25.59,30.29,30.29,0,0,1,3.06,2.06h0a22.28,22.28,0,0,1,4.44,4.5h0a2.8,2.8,0,0,0,.39.54c1.17,1.65,2.2,3.4,3.43,5,.74,1,1.23,1,2.12,1.8l1.81,1.35a.8.8,0,0,0-.17-.21c2.44,2,5.13,3.82,6.8,6.61a6.57,6.57,0,0,1,1.14,3c0,.13,0,.25,0,.38a13.4,13.4,0,0,1-.16,1.9c0,.16,0,.33-.08.49l-.09.62a54.9,54.9,0,0,1-1.2,5.41" fill="#d46e23"/><path id="path10240" d="M9.91,6.36v0h0v0" fill="#dcb899"/><path id="path10242" d="M4.18,51.2a8.22,8.22,0,0,1-.53-2.74,1.48,1.48,0,0,1,0-.21,6.66,6.66,0,0,1,.11-1h0l0-.11c.07-.19.13-.39.21-.59a9.67,9.67,0,0,1,.63-1.7,15.66,15.66,0,0,1,2-3.59A21.88,21.88,0,0,1,8.7,38.73,10.71,10.71,0,0,0,11,36.44c.37-.66.7-1.33,1-2,.23-.3.45-.6.66-.92.41-.66.82-1.31,1.26-1.95l.14-.32c.86-1.88,2-3.58,2.95-5.4.17-.27.36-.53.54-.79l.75-1,.07.07c.83-.76,1.38-1.76,2.18-2.55a2.58,2.58,0,0,0,1-2.39,8.57,8.57,0,0,0-1.42-2.85A27.48,27.48,0,0,0,17.73,13c-.7-.84-3.26-3.74-4.89-3.74a1.06,1.06,0,0,0-.81.35,1.48,1.48,0,0,0-.57.57,4.51,4.51,0,0,0-.54,1.46,22.64,22.64,0,0,0,0,7l0,.12c.06.54.13,1.07.22,1.58a61,61,0,0,0,2.57,9.13c-.12.55-.22,1.1-.3,1.66-.27.59-.53,1.19-.78,1.79a21.6,21.6,0,0,1-2.17-4.22,24.72,24.72,0,0,1-2.07-5,27,27,0,0,0,1.78,6.17A30.42,30.42,0,0,1,7.92,18q0-1,.06-2.07A31.76,31.76,0,0,1,9.91,6.36h0v0a17.35,17.35,0,0,0-.17,3.92.24.24,0,0,0,.23.21.19.19,0,0,0,.13-.06c.73-.88,1.08-2.32,2.21-2.76a1.47,1.47,0,0,1,.5-.09c1.29,0,2.65,1.72,3.39,2.51,2.46,2.66,4.62,5.56,7,8.29l.25,0a9.34,9.34,0,0,1,2.12-.78A38.9,38.9,0,0,0,13.93,32.29a22.71,22.71,0,0,0-1.23,2.47,3.07,3.07,0,0,0,.55,3.31h-.17c-3.65,0-6.55,3.44-7.33,6.81a8.82,8.82,0,0,0-2,4.3A8.75,8.75,0,0,0,4,50.62v0c.06.21.13.41.2.61" fill="#d46e23"/><path id="path10244" d="M74.45,32.63c-.59-.47-1.57-1.16-1.69-1.56a22.78,22.78,0,0,0,1.69,1.56m-2.28-2.2c-.11-.12-.22-.25-.32-.38.1.13.21.26.32.38" fill="#d46e23"/><path id="path10246" d="M10.19,30h0" fill="#d46e23"/><path id="path10248" d="M25,70.12h0a2.54,2.54,0,0,1-.78-.12,9.74,9.74,0,0,1-2.93-1.43,28.45,28.45,0,0,1-3.44-2.43c-2.29-1.9-4.32-4-6.42-6.14-2.55-2.55-5.49-5.43-7.2-8.8L4,50.62a8.75,8.75,0,0,1-.29-1.44,8.82,8.82,0,0,1,2.05-4.3h0c-1.08,4.74,3.55,8.11,7,10.45a50.75,50.75,0,0,0,7.51,4.38c.84.39,1.74.86,2.67,1.31,0,.19,0,.37.05.55-.76,2.7,1,6,2.23,8.22a.22.22,0,0,1-.18.32M62.18,69h0a.22.22,0,0,1-.19-.32c1.32-2.81,2.86-5.8,2.3-9a40.9,40.9,0,0,0,7.48-4.38c3.9-3,8-7.38,9.18-12.3a4,4,0,0,0,0-1.86c1.27,1.54,1.46,3.63,1.22,5.77-.25,1.32-.57,2.61-.9,3.91.1-.39.2-.78.29-1.18-.46,1.23-1,2.44-1.56,3.62a44.29,44.29,0,0,1-3.56,4.87,40.1,40.1,0,0,1-7.06,7.14c-1.28.91-2.64,1.75-4,2.53A6.75,6.75,0,0,1,62.18,69m2-9.23v0h0v0" fill="#d7b388"/><path id="path10250" d="M67.52,24.88a2.8,2.8,0,0,1-.39-.54l.39.54m1.14-.07c-.75-1.48-1.76-2.88-2.56-4.23a5.13,5.13,0,0,1-1-3.3,15,15,0,0,1,1.64-3.75c.23-.46,1.51-2.83,2.46-2.83.25,0,.48.18.66.62a12.65,12.65,0,0,1,.51,3.19c0,.26,0,.53.08.8-.14,4.35-.82,8.33-1.79,9.5m-6-5a30.29,30.29,0,0,0-3.06-2.06l.42.2a20.78,20.78,0,0,1,2.23,1.45l.46.35,0,.06m-2.09-9A19.31,19.31,0,0,1,63.7,7.33a24.09,24.09,0,0,0-1.91,2c-.4.48-.8,1-1.18,1.49m6.9-6.32c.23-.14.45-.26.64-.36a1.27,1.27,0,0,1,.6-.18h0l-.22.06-.16.06v0c-.31.13-.61.28-.9.43" fill="#d96a51"/><path id="path10252" d="M13.71,29.5a61,61,0,0,1-2.57-9.13c-.09-.51-.16-1-.22-1.58.26.89.52,1.79.79,2.68h0a7.87,7.87,0,0,1,.35-2.84c.18-.57.4-.79.63-.79.43,0,.88.81,1.07,1.41.42,1.35.86,2.66,1.38,4a2.62,2.62,0,0,1-.06,2.3,17,17,0,0,0-1.37,4" fill="#d96a51"/><path id="path10254" d="M58.3,17.21a.09.09,0,0,1-.09-.1v-.06l.18.13a.14.14,0,0,1-.09,0m-.09-.37a10.82,10.82,0,0,1,2.4-6,14,14,0,0,0-2,4.45,7.3,7.3,0,0,0-.34,1.19c0,.12,0,.24,0,.36M63.7,7.33a17.61,17.61,0,0,1,3.81-2.81A23.93,23.93,0,0,0,63.7,7.33" fill="#b64f1f"/><path id="path10256" d="M58.6,15.29a14,14,0,0,1,2-4.45c.38-.52.78-1,1.18-1.49a21.15,21.15,0,0,1,5.72-4.83c.29-.15.59-.3.9-.43v0a6.42,6.42,0,0,0-1.3.74A26,26,0,0,0,61.2,10.5a17.44,17.44,0,0,0-2.29,4c-.1.27-.21.54-.31.82" fill="#bd4b34"/><path id="path10258" d="M74.88,33.05,73.07,31.7c-.89-.81-1.38-.81-2.12-1.8-1.23-1.62-2.26-3.37-3.43-5a.81.81,0,0,0,.55.29l.13,0a14.27,14.27,0,0,1,1.4,2.25h0a7,7,0,0,0-.19-.76c.56.83,1.11,1.66,1.71,2.46.62-2.66,1.45-5.26,1.86-8q.18-1.18.3-2.37a30.61,30.61,0,0,0,.64-8.29l0,.23h0c.12,1.3.17,2.61.17,3.92a44.58,44.58,0,0,1-.34,5.55c-.4,3.19-1.3,6.21-2,9.33l-.16.23.25.32h0c.1.13.21.26.32.38s.39.43.59.64c.12.4,1.1,1.09,1.69,1.56l.26.21a.8.8,0,0,1,.17.21m-7.75-8.71h0a22.28,22.28,0,0,0-4.44-4.5h0a17.19,17.19,0,0,1,4.43,4.51h0" fill="#b64f1f"/><path id="path10260" d="M68.07,25.17a.81.81,0,0,1-.55-.29l-.39-.54h0a17.19,17.19,0,0,0-4.43-4.51l0-.06a33,33,0,0,1,2.81,2.46,27.58,27.58,0,0,1,2.64,2.92l-.13,0" fill="#bd4b34"/><path id="path10262" d="M12,34.42l.32-.72h0l0,0A20.7,20.7,0,0,1,10.19,30h0l0,0a27,27,0,0,1-1.78-6.17,24.72,24.72,0,0,0,2.07,5A21.6,21.6,0,0,0,12.63,33c.25-.6.51-1.2.78-1.79,0,.25-.08.5-.11.75a2,2,0,0,1,.39-.45l.11-.05c1.08-1.85,2-3.8,3.19-5.58-.94,1.82-2.09,3.52-2.95,5.4l-.14.32c-.44.64-.85,1.29-1.26,1.95-.21.32-.43.62-.66.92" fill="#b64f1f"/><path id="path10264" d="M34.41,55.29s0,0,0,0l.4-.26-.39.31" fill="#d7b388"/><path id="path10266" d="M36.5,71.08a13.53,13.53,0,0,1-3.4-.47,13.86,13.86,0,0,1-9.57-8.2c0-.37-.07-.74-.09-1.12a12.11,12.11,0,0,0,4.81,1.38h0c2.1,0,2.74-2.81,3.38-4.3a7.32,7.32,0,0,1,2.76-3.13s0,0,0,0l-.16.15a3.76,3.76,0,0,0-1.83,2.84v0A4.15,4.15,0,0,0,34,62.62c2.5,2,5.5,2.31,8.51,2.81a.18.18,0,0,1,.13.28c.57.19.35,1.13.21,1.63a4.43,4.43,0,0,1-2.06,2.59,8,8,0,0,1-4.32,1.15M50.4,71a7.6,7.6,0,0,1-3.95-1.06c-.7-.43-1.37-.88-1.4-1.63a5.18,5.18,0,0,1,.29-2.68c.29-.46,1.22-.48,1.68-.59a25.89,25.89,0,0,0,2.74-.77c1.92-.68,4.22-1.88,4.65-4.09A5.23,5.23,0,0,0,53,55.8c.2.17.39.35.58.54a13.9,13.9,0,0,1,1.92,3.14,3.59,3.59,0,0,0,3.33,1.9A12.35,12.35,0,0,0,63.57,60a11.62,11.62,0,0,1-.28,2.12,16.58,16.58,0,0,1-6.24,6.67,13.94,13.94,0,0,1-5.9,2.12c-.24,0-.49,0-.75,0" fill="#d7b388"/><path id="path10268" d="M4.19,51.25h0" fill="#d46e23"/><path id="path10270" d="M4.19,51.23v0" fill="#d46e23"/><path id="path10272" d="M81.1,51.39c0-.18.09-.37.14-.55,0,.14-.07.29-.11.43l0,.12" fill="#b64f1f"/><path id="path10274" d="M5.17,53.48a20.33,20.33,0,0,1-1-2.23h0v0h0c-.07-.2-.14-.4-.2-.61v0c0,.09.06.18.08.26h0q.15.47.33.93c.23.58.5,1.14.77,1.68" fill="#b64f1f"/><path id="path10276" d="M5.69,54.49c-.17-.32-.35-.66-.52-1h0c-.27-.54-.54-1.1-.77-1.68.38.94.85,1.85,1.29,2.69M80,53.28c.58-1.18,1.1-2.39,1.56-3.62-.09.4-.19.79-.29,1.18,0,.18-.1.37-.14.55h0l-.1.22.08-.19q-.52.94-1.11,1.86M4.23,51.2l-.16-.32c0-.08-.05-.17-.08-.26l.24.58" fill="#bb8150"/><path id="path10278" d="M18.35,24.1,18.28,24c.46-.61.93-1.22,1.43-1.8l.38-.45c.2-.2.39-.41.6-.61.74-.74,1.15-1.63.26-3.24a8.93,8.93,0,0,0-1.12-1.81c-1.48-2.28-4-5.65-6-6.28a7.59,7.59,0,0,0-.77-.35l-.33,0a1.49,1.49,0,0,0-.7.15,1.06,1.06,0,0,1,.81-.35c1.63,0,4.19,2.9,4.89,3.74a27.48,27.48,0,0,1,2.36,3.3,8.57,8.57,0,0,1,1.42,2.85,2.58,2.58,0,0,1-1,2.39c-.8.79-1.35,1.79-2.18,2.55" fill="#b64f1f"/><path id="path10280" d="M20.09,21.78c.75-.85,1.48-1.76,1.16-3a6.38,6.38,0,0,0-.3-.87c.89,1.61.48,2.5-.26,3.24-.21.2-.4.41-.6.61m-.26-5.66c-.61-.79-1.31-1.54-1.92-2.3a14.31,14.31,0,0,0-4.08-4c2,.63,4.52,4,6,6.28" fill="#bd4b34"/><path id="path10282" d="M23.53,62.41c-.16-.41-.3-.84-.43-1.27l-.15.44c0-.18,0-.36-.05-.55l.54.26c0,.38,0,.75.09,1.12m39.76-.27A11.62,11.62,0,0,0,63.57,60l.62-.29v0a13,13,0,0,1-.9,2.39" fill="#b37f4d"/><path id="path10284" d="M64.2,59.73h0l.06,0h0l-.06,0" fill="#d7b388"/><path id="path10286" d="M53,55.8l-.16-.13h0l.16.14h0" fill="#d7b388"/><path id="path10288" d="M38.6,79.68l-.33-.21a7.4,7.4,0,0,1-.7-.51,4.17,4.17,0,0,0-1-.83c-.69-.59-1.36-1.19-2.08-1.74a.13.13,0,0,0-.08,0,.13.13,0,0,0-.08.22l1.05,1c-.79-.31-1.61-.54-2.29-.82a46.1,46.1,0,0,1-6-3.08,70.65,70.65,0,0,1-11.19-7.91A54,54,0,0,1,11.14,61c-2.7-3.1-5.29-6-6.91-9.82,1.71,3.37,4.65,6.25,7.2,8.8,2.1,2.1,4.13,4.24,6.42,6.14a28.45,28.45,0,0,0,3.44,2.43A9.74,9.74,0,0,0,24.22,70a2.54,2.54,0,0,0,.78.12h0a.22.22,0,0,0,.18-.32c-1.22-2.27-3-5.52-2.23-8.22a13.92,13.92,0,0,0,.29,1.59,10.54,10.54,0,0,0,.54,2.4,10.1,10.1,0,0,0,2.51,3.59,16.82,16.82,0,0,0,7.51,4.27,10,10,0,0,0,2.48.31A8.68,8.68,0,0,0,39,73.32a12.65,12.65,0,0,1,.12,3.59h0c-.05.38-.11.77-.19,1.15-.11.55-.23,1.1-.34,1.63m14.09-.42c-.24-.83-.54-1.64-.81-2.46-.13-.41-.25-.83-.35-1.25v0h0a15.82,15.82,0,0,1-.38-2.81h0l-.47-.09h0a16.6,16.6,0,0,1-4.18-1.21,7.59,7.59,0,0,1-1.79-1.18h0a7.59,7.59,0,0,0,1.79,1.18,20,20,0,0,0,4.92,1.35,4,4,0,0,0,.76.07,4.9,4.9,0,0,0,1.89-.41c.55-.19,1.09-.43,1.61-.63s1.17-.63,1.71-1a15.64,15.64,0,0,0,4.1-3.59,11.8,11.8,0,0,0,2.69-7.55v0l.06,0c.56,3.16-1,6.15-2.3,9a.22.22,0,0,0,.19.32h0a6.75,6.75,0,0,0,3.18-1.16c1.35-.78,2.71-1.62,4-2.53a40.1,40.1,0,0,0,7.06-7.14A44.29,44.29,0,0,0,80,53.28s0,0,0,.06a44.13,44.13,0,0,1-8.62,12.11,41.94,41.94,0,0,1-6.92,5.47,38.73,38.73,0,0,1-8.29,4.21l.1-.34a.12.12,0,0,0-.13-.16.13.13,0,0,0-.13.08c-.11.2-.23.4-.34.61l-.14.25a19.32,19.32,0,0,1-1.69,2.54,11,11,0,0,1-1,1.12l-.06,0m-12.3-6.54h0m0,0a5.74,5.74,0,0,0,.53-.32,8,8,0,0,0,2.7-3.16l.12-.3a3.13,3.13,0,0,0,.37.7h0a3.13,3.13,0,0,1-.37-.7l-.12.3a8,8,0,0,1-2.7,3.16,5.74,5.74,0,0,1-.53.32" fill="#bb8150"/><path id="path10290" d="M36.43,73a11.21,11.21,0,0,1-3-.43,16.34,16.34,0,0,1-6.5-3.75,10.68,10.68,0,0,1-2.63-3.48c-.06-.14-.12-.29-.17-.44a10.64,10.64,0,0,1-.6-2.53,13.86,13.86,0,0,0,9.57,8.2,13.53,13.53,0,0,0,3.4.47,8,8,0,0,0,4.32-1.15,4.43,4.43,0,0,0,2.06-2.59c.14-.5.36-1.44-.21-1.63a.18.18,0,0,0-.13-.28c-3-.5-6-.83-8.51-2.81a4.15,4.15,0,0,1-1.61-4.31,3,3,0,0,0,.26,1.11,4.64,4.64,0,0,0,1.52,1.76,15.69,15.69,0,0,0,2.58,1.56,15.24,15.24,0,0,0,6.78,1.58c0,.15,0,.29,0,.44l0,.12q0,.34,0,.69v.77a7.09,7.09,0,0,1-.64,2.87,7.32,7.32,0,0,1-2.76,2.87,7,7,0,0,1-3.69,1m15.68-.89a4.29,4.29,0,0,1-.79-.07A24.94,24.94,0,0,1,47,71a7.43,7.43,0,0,1-1.95-1.12,2.66,2.66,0,0,1-.9-2.46c0-1-.06-2-.14-3.07A12.86,12.86,0,0,0,49.58,63h0c1.64-.86,3.61-2.39,4-4.32h0v0h0a3.08,3.08,0,0,0,.07-.61h0a3.31,3.31,0,0,0,0-.44,3.42,3.42,0,0,0-.85-1.92l.16.13a5.23,5.23,0,0,1,1.45,4.35c-.43,2.21-2.73,3.41-4.65,4.09A25.89,25.89,0,0,1,47,65c-.46.11-1.39.13-1.68.59a5.18,5.18,0,0,0-.29,2.68c0,.75.7,1.2,1.4,1.63A7.6,7.6,0,0,0,50.4,71c.26,0,.51,0,.75,0a13.94,13.94,0,0,0,5.9-2.12,16.58,16.58,0,0,0,6.24-6.67A11.75,11.75,0,0,1,61,66.85a15.5,15.5,0,0,1-4.68,3.85l-.06,0c-1.36.64-2.62,1.43-4.11,1.43" fill="#bb8150"/><path id="path10292" d="M4.4,51.8q-.18-.46-.33-.93h0c.1.31.21.62.33.92" fill="#9d391e"/><path id="path10294" d="M38.48,80.29l-.07-.05a14.28,14.28,0,0,1-1.66-1.36A23.33,23.33,0,0,0,34.43,78c-1.11-.4-2.21-.84-3.28-1.34a60.55,60.55,0,0,1-6.24-3.49A64.57,64.57,0,0,1,14,65l0,0-.66-.65a41,41,0,0,1-7.62-9.79h0c-.44-.84-.91-1.75-1.29-2.69-.12-.3-.23-.61-.33-.92l.16.32C5.85,55,8.44,57.92,11.14,61a54,54,0,0,0,4.71,4.74A70.65,70.65,0,0,0,27,73.67a46.1,46.1,0,0,0,6,3.08c.68.28,1.5.51,2.29.82l-1.05-1a.13.13,0,0,1,.08-.22.13.13,0,0,1,.08,0c.72.55,1.39,1.15,2.08,1.74a4.17,4.17,0,0,1,1,.83,7.4,7.4,0,0,0,.7.51l.33.21c-.05.21-.09.41-.12.61m14.39-.35c0-.22-.12-.45-.18-.68l.06,0a11,11,0,0,0,1-1.12,19.32,19.32,0,0,0,1.69-2.54l.14-.25c.11-.21.23-.41.34-.61a.13.13,0,0,1,.13-.08.12.12,0,0,1,.13.16l-.1.34a38.73,38.73,0,0,0,8.29-4.21,41.94,41.94,0,0,0,6.92-5.47A44.13,44.13,0,0,0,80,53.34s0,0,0-.06q.59-.91,1.11-1.86l-.08.19C79.68,57.1,75.8,62,71.87,65.89a42.81,42.81,0,0,1-7.06,5.6A35,35,0,0,1,56,75.92h-.12a10.52,10.52,0,0,1-3,4" fill="#a15b33"/><path id="path10296" d="M36.28,73.74a10,10,0,0,1-2.48-.31,16.82,16.82,0,0,1-7.51-4.27,10.1,10.1,0,0,1-2.51-3.59,10.54,10.54,0,0,1-.54-2.4A13.92,13.92,0,0,1,23,61.58l.15-.44c.13.43.27.86.43,1.27a10.64,10.64,0,0,0,.6,2.53c.05.15.11.3.17.44a10.68,10.68,0,0,0,2.63,3.48,16.34,16.34,0,0,0,6.5,3.75,11.21,11.21,0,0,0,3,.43,7,7,0,0,0,3.69-1,7.32,7.32,0,0,0,2.76-2.87,7.09,7.09,0,0,0,.64-2.87v-.77q0-.34,0-.69l0-.12c0-.15,0-.29,0-.44h.49c.08,1,.15,2,.14,3.07a2.66,2.66,0,0,0,.9,2.46A7.43,7.43,0,0,0,47,71a24.94,24.94,0,0,0,4.28,1.12,4.29,4.29,0,0,0,.79.07c1.49,0,2.75-.79,4.11-1.43l.06,0A15.5,15.5,0,0,0,61,66.85a11.75,11.75,0,0,0,2.33-4.71,13,13,0,0,0,.9-2.39A11.8,11.8,0,0,1,61.5,67.3a15.64,15.64,0,0,1-4.1,3.59c-.54.32-1.12.64-1.71,1s-1.06.44-1.61.63a4.9,4.9,0,0,1-1.89.41,4,4,0,0,1-.76-.07,20,20,0,0,1-4.92-1.35,7.59,7.59,0,0,1-1.79-1.18h0a4.1,4.1,0,0,1-.59-.66h0a3.13,3.13,0,0,1-.37-.7l-.12.3a8,8,0,0,1-2.7,3.16,5.74,5.74,0,0,1-.53.32l0,0h0c-.27.14-.54.27-.82.39h0c-.19.09-.38.15-.57.22h0a8.68,8.68,0,0,1-2.72.42" fill="#9a5932"/><path id="path10298" d="M35,54.88h0a11.73,11.73,0,0,1,1.51-.74h0a11.73,11.73,0,0,0-1.51.74" fill="#d46e23"/><path id="path10300" d="M34.8,55h0l.16-.09h0l-.18.1" fill="#d7b388"/><path id="path10302" d="M35.08,54.9l-.1,0a11.73,11.73,0,0,1,1.51-.74,16,16,0,0,0-1.41.76" fill="#b64f1f"/><path id="path10304" d="M34.42,55.32v0L34.8,55l.18-.1.1,0-.48.3-.18.12" fill="#bb8150"/><path id="path10306" d="M34.25,55.44l.16-.15v0l-.17.12" fill="#bb8150"/><path id="path10308" d="M69.41,26.64c-.35-.52-.7-1-1.06-1.55a1,1,0,0,0,.31-.28,10.22,10.22,0,0,1,.75,1.83m-9.77-8.87a9.51,9.51,0,0,1-1.25-.59.13.13,0,0,0,0-.06l.06-.18a1.94,1.94,0,0,0,.79.63l.36.2m-1.43-.72,0,0,0-.19v.21m12.31-1c0-.26,0-.52-.07-.77v0c.17-5.8.08-11.19-1.65-11.28A.62.62,0,0,1,69,4c.55,0,.83.52,1,1.09a18.32,18.32,0,0,1,.42,2.67c0,.17,0,.34.07.51,0,2.62.11,5.22,0,7.84" fill="#b64f1f"/><path id="path10310" d="M68.35,25.09c-.2-.27-.39-.54-.6-.81a21.55,21.55,0,0,0-5-4.52h0l-.46-.35A20.78,20.78,0,0,0,60.06,18l-.42-.2-.36-.2a1.94,1.94,0,0,1-.79-.63,19.7,19.7,0,0,1,1.38-3.83,22.69,22.69,0,0,1,2.29-3.45,26.23,26.23,0,0,1,6.29-5.5l0,0,.16-.06L68.8,4c1.73.09,1.82,5.48,1.65,11.28v0c0-.27-.06-.54-.08-.8a12.65,12.65,0,0,0-.51-3.19c-.18-.44-.41-.62-.66-.62-1,0-2.23,2.37-2.46,2.83a15,15,0,0,0-1.64,3.75,5.13,5.13,0,0,0,1,3.3c.8,1.35,1.81,2.75,2.56,4.23a1,1,0,0,1-.31.28" fill="#bd4b34"/><path id="path10312" d="M58.39,17.18l-.18-.13v-.21c0-.12,0-.24,0-.36a7.3,7.3,0,0,1,.34-1.19l0,.11c-.17.7-.33,1.14-.08,1.54l-.06.18a.13.13,0,0,1,0,.06" fill="#9d391e"/><path id="path10314" d="M58.49,16.94c-.25-.4-.09-.84.08-1.54l0-.11c.1-.28.21-.55.31-.82a17.44,17.44,0,0,1,2.29-4,26,26,0,0,1,5.92-5.65,6.42,6.42,0,0,1,1.3-.74l0,0a26.23,26.23,0,0,0-6.29,5.5,22.69,22.69,0,0,0-2.29,3.45,19.7,19.7,0,0,0-1.38,3.83" fill="#a23821"/><path id="path10316" d="M69.6,27.4a14.27,14.27,0,0,0-1.4-2.25.47.47,0,0,0,.15-.06c.36.51.71,1,1.06,1.55a7,7,0,0,1,.19.76" fill="#9d391e"/><path id="path10318" d="M68.2,25.15a27.58,27.58,0,0,0-2.64-2.92,33,33,0,0,0-2.81-2.46h0a21.55,21.55,0,0,1,5,4.52c.21.27.4.54.6.81a.47.47,0,0,1-.15.06" fill="#a23821"/><path id="path10320" d="M13.41,31.16c.08-.56.18-1.11.3-1.66l.21.58-.13.26c-.13.27-.26.54-.38.82M17,25.83l.09-.19q.54-.81,1.17-1.65l0,0-.75,1c-.18.26-.37.52-.54.79m-6.07-7,0-.12a22.64,22.64,0,0,1,0-7,4.51,4.51,0,0,1,.54-1.46A1.48,1.48,0,0,1,12,9.62a2.19,2.19,0,0,0-.45,1l.14.05c.26-.55.58-.94,1.09-.94a1.32,1.32,0,0,1,.32.05h0c-2,.22-2.63,4.88-2.2,9" fill="#b64f1f"/><path id="path10322" d="M13.92,30.08l-.21-.58a17,17,0,0,1,1.37-4,2.62,2.62,0,0,0,.06-2.3c-.52-1.32-1-2.63-1.38-4-.19-.6-.64-1.41-1.07-1.41-.23,0-.45.22-.63.79a7.87,7.87,0,0,0-.35,2.84c-.27-.89-.53-1.79-.79-2.68-.43-4.15.17-8.81,2.2-9a4.91,4.91,0,0,0-1.22,2.59,7.64,7.64,0,0,0,0,3.77l.1,0a12.81,12.81,0,0,1,.31-3.15,9.57,9.57,0,0,1,.59-1.81c.19-.43.52-.76.73-1.16a7.81,7.81,0,0,1,1.19.94,23.93,23.93,0,0,1,2.78,3A22.88,22.88,0,0,1,20.7,18.8c.52,1.21-.32,2-1,2.89-.53.74-1,1.52-1.52,2.26l0,0q-.63.84-1.17,1.65c.07-.13.13-.26.19-.39l-.12-.07a49.92,49.92,0,0,0-3.23,4.9" fill="#bd4b34"/><path id="path10324" d="M13.3,31.91c0-.25.07-.5.11-.75s.25-.55.38-.82l.13-.26.26.67a39,39,0,0,1,2.9-5.11l-.09.19c-1.18,1.78-2.11,3.73-3.19,5.58l-.11.05a2,2,0,0,0-.39.45" fill="#9d391e"/><path id="path10326" d="M14.18,30.75l-.26-.67a49.92,49.92,0,0,1,3.23-4.9l.12.07c-.06.13-.12.26-.19.39a39,39,0,0,0-2.9,5.11" fill="#a23821"/><path id="path10328" d="M18.28,24l0,0c.57-.75,1.18-1.49,1.84-2.21l-.38.45c-.5.58-1,1.19-1.43,1.8M21,17.93l-.1-.17c-.23-.38-.58-1-1-1.64A8.93,8.93,0,0,1,21,17.93m-9.23-7.29-.14-.05a2.19,2.19,0,0,1,.45-1,1.49,1.49,0,0,1,.7-.15l.33,0a7.59,7.59,0,0,1,.77.35l-.26-.06-.3,0h-.14a1.32,1.32,0,0,0-.32-.05c-.51,0-.83.39-1.09.94" fill="#9d391e"/><path id="path10330" d="M18.25,24l0,0c.53-.74,1-1.52,1.52-2.26.65-.91,1.49-1.68,1-2.89a22.88,22.88,0,0,0-3.08-4.89,23.93,23.93,0,0,0-2.78-3A7.81,7.81,0,0,0,13.65,10c-.21.4-.54.73-.73,1.16a9.57,9.57,0,0,0-.59,1.81A12.81,12.81,0,0,0,12,16.09l-.1,0a7.64,7.64,0,0,1,0-3.77,4.91,4.91,0,0,1,1.22-2.59h.15l.3,0,.26.06a14.31,14.31,0,0,1,4.08,4c.61.76,1.31,1.51,1.92,2.3.44.68.79,1.26,1,1.64l.1.17a6.38,6.38,0,0,1,.3.87c.32,1.22-.41,2.13-1.16,3S18.82,23.24,18.25,24" fill="#a23821"/><path id="path10332" d="M54.26,24.5l-.16-.07v-.05c-.86-1.6-2.77-4.2-5-1.93-1.12,1.13-1,2.63.06,3.2a2.84,2.84,0,0,0,2.1-.07c1-.33,2-.69,3-1l0-.12" fill="#fbfbe7"/><path id="path10334" d="M31.92,42.5c-.17-.16-1-.94-2.07-1.78a15,15,0,0,0,1.22-7.38c-.12-.76-.52-1.08-1.05-1.08-1.25,0-3.21,1.82-3.76,3.86-.78,2.9-.51,3.73,0,4.15a9.47,9.47,0,0,0-3.71,1.53,7,7,0,0,0-.75.29,9.41,9.41,0,0,1,3.38-2c-.53-.43-.89-1.73-.11-4.62.65-2.39,2.89-5.3,4.76-5.3A1.69,1.69,0,0,1,31,30.6c2,1.71-.6,10-.6,10a5.33,5.33,0,0,1,1.54,1.88v0" fill="#eee2c2"/><path id="path10336" d="M32,42.53h0l0,0v0l0,.05" fill="#eee2c2"/><path id="path10338" d="M22.21,42.12a3.68,3.68,0,0,1,.37-.32l.35-.12-.15.1v0h.08a4.22,4.22,0,0,0-.66.3" fill="#e1c69e"/><path id="path10340" d="M31.92,42.5A7.34,7.34,0,0,0,30.87,42h0l.1-.21a5,5,0,0,0-1.62-.93c.5-.46,1-1.55,1.28-3.94.21-1.66.4-3.16-.57-3.16H30c-1.54.22-3,3-3.2,4.8A3.07,3.07,0,0,0,27,40.5a8.45,8.45,0,0,0-4.08,1.18l-.35.12a9.47,9.47,0,0,1,3.71-1.53c-.54-.42-.81-1.25,0-4.15.55-2,2.51-3.86,3.76-3.86.53,0,.93.32,1.05,1.08a15,15,0,0,1-1.22,7.38c1.06.84,1.9,1.62,2.07,1.78h0" fill="#d4b085"/><path id="path10342" d="M32,42.53l0,0h0l0,0" fill="#d4b085"/><path id="path10344" d="M30.87,42a12.26,12.26,0,0,0-3.94-.85h-.2a21.09,21.09,0,0,0-3.86.68,10.92,10.92,0,0,1,4-.72l.79,0h.09l.51,0h.06a11.81,11.81,0,0,1,2.58.79" fill="#a7672b"/><path id="path10346" d="M28.29,41.19h0m-.06,0-.51,0,.51,0m-.53,0h0m-.06,0h0" fill="#9f5b26"/><path id="path10348" d="M22.79,41.83v0l.15-.1a13.33,13.33,0,0,1,3.87-.58l.83,0-.79,0a10.92,10.92,0,0,0-4,.72h-.08m5.45-.65h0m-.52,0h0m0,0h0" fill="#96501f"/><path id="path10350" d="M30.91,42h0a11.81,11.81,0,0,0-2.58-.79h-.06l-.51,0h-.09l-.83,0a13.33,13.33,0,0,0-3.87.58A8.45,8.45,0,0,1,27,40.5a1.57,1.57,0,0,0,1.47.67h.18a1.12,1.12,0,0,0,.73-.32,5,5,0,0,1,1.62.93l-.1.21" fill="#8f481c"/><path id="path10352" d="M37,23.33c-.65-3.11-4.14-1.91-5.7.1a2.26,2.26,0,0,0-.77,1c-.07.2,0,.38.21.37,1.77-.06,3,1.69,4.71,1.73,1.48,0,1.8-2,1.55-3.18" fill="#fbfbe7"/><path id="path10354" d="M29.39,40.85a6.72,6.72,0,0,0-2.2-.35H27a3.07,3.07,0,0,1-.26-1.94c.17-1.76,1.66-4.58,3.2-4.8h.15c1,0,.78,1.5.57,3.16-.3,2.39-.78,3.48-1.28,3.94" fill="#351813"/><path id="path10356" d="M28.48,41.17A1.57,1.57,0,0,1,27,40.5h.18a6.72,6.72,0,0,1,2.2.35,1.12,1.12,0,0,1-.73.32h-.18" fill="#261412"/><path id="path10358" d="M29.56,35.74c-.48.73-1.09,1.17-1.37,1s-.14-.92.33-1.66,1.08-1.17,1.37-1,.13.92-.33,1.66" fill="#fff"/><path id="path10360" d="M53.53,41.42h0a5.29,5.29,0,0,1,1.32-2l.13.17a8,8,0,0,0-1.44,1.85" fill="#eee2c2"/><path id="path10362" d="M53.51,41.46a.18.18,0,0,1,0-.05h0a.11.11,0,0,1,0,0h0" fill="#eee2c2"/><path id="path10364" d="M63.52,39.94a7.09,7.09,0,0,0-.78-.21,9.43,9.43,0,0,0-3.85-1.12c.49-.48.68-1.33-.41-4.13-.74-1.89-2.62-3.43-3.88-3.43-.61,0-1.07.35-1.2,1.18a10.79,10.79,0,0,0-.11,2.68c-.6-2.16-1-4.49-.1-5.41a1.67,1.67,0,0,1,1.27-.56c1.84,0,4.23,2.54,5.1,4.77,1.08,2.79.87,4.12.38,4.6a9.46,9.46,0,0,1,3.58,1.63M57,39.74l0,0,0,0m.05,0h0m0,0h0m0,0h0m0,0h0m0,0h0m0,0h0m.05,0h0m0,0h0m0,0h0m.05,0h0m0,0h0" fill="#eee2c2"/><path id="path10366" d="M63.15,40a9.33,9.33,0,0,0-3.46-.59,12,12,0,0,0-2.13.2,13.06,13.06,0,0,1,2.32-.21q.48,0,.9,0l.33,0a11.39,11.39,0,0,1,1.63.26,3.71,3.71,0,0,1,.41.28m-6.1-.29h0m.05,0h0m0,0h0m.05,0h0m0,0h0m0,0h0m.05,0h0m0,0h0m0,0h0m0,0h0m0,0h0m-2.68-.23a9,9,0,0,1-1.55-4.49,38,38,0,0,0,1.57,4.47l0,0" fill="#e1c69e"/><path id="path10368" d="M53.54,41.43h0A8,8,0,0,1,55,39.57l-.13-.17,0,0a38,38,0,0,1-1.57-4.47,10.79,10.79,0,0,1,.11-2.68c.13-.83.59-1.18,1.2-1.18,1.26,0,3.14,1.54,3.88,3.43,1.09,2.8.9,3.65.41,4.13a9.43,9.43,0,0,1,3.85,1.12,11.39,11.39,0,0,0-1.63-.26l1.23.09v-.05A8.15,8.15,0,0,0,59,38.79a8,8,0,0,0-1.3.11,4,4,0,0,0,.27-1.61c0-1.76-1.21-4.72-2.71-5.09l-.24,0c-.88,0-.84,1.47-.8,3.09.08,3.15.69,4.11,1.32,4.37a4.81,4.81,0,0,0-1.31,1.06l.13.19.49-.24a9.18,9.18,0,0,0-1.28.79" fill="#d4b085"/><path id="path10370" d="M53.51,41.46a.11.11,0,0,0,0,0h0l0,0" fill="#d4b085"/><path id="path10372" d="M56.64,39.84a7.55,7.55,0,0,1,1.7-.4,9.73,9.73,0,0,1,1.07-.06c.46,0,.92,0,1.37.06q-.42,0-.9,0a13.06,13.06,0,0,0-2.32.21H57l-.37.11" fill="#d4b085"/><path id="path10374" d="M54.82,40.64a13.76,13.76,0,0,1,1.82-.8,17.07,17.07,0,0,0-1.82.8" fill="#a7672b"/><path id="path10376" d="M61.11,39.47l-.33,0,.33,0" fill="#96501f"/><path id="path10378" d="M54.33,40.88l-.13-.19a4.81,4.81,0,0,1,1.31-1.06,1.45,1.45,0,0,0,.26.07,4.26,4.26,0,0,0,.47,0,1.43,1.43,0,0,0,1.43-.84,8,8,0,0,1,1.3-.11,8.15,8.15,0,0,1,3.38.72v.05l-1.23-.09-.33,0c-.45,0-.91-.06-1.37-.06a9.73,9.73,0,0,0-1.07.06,7.55,7.55,0,0,0-1.7.4,13.76,13.76,0,0,0-1.82.8l-.49.24" fill="#8f481c"/><path id="path10380" d="M55.51,39.63c-.63-.26-1.24-1.22-1.32-4.37,0-1.62-.08-3.09.8-3.09l.24,0c1.5.37,2.7,3.33,2.71,5.09a4,4,0,0,1-.27,1.61,6.35,6.35,0,0,0-2.16.73" fill="#351813"/><path id="path10382" d="M56.24,39.74a4.26,4.26,0,0,1-.47,0,1.45,1.45,0,0,1-.26-.07,6.35,6.35,0,0,1,2.16-.73,1.43,1.43,0,0,1-1.43.84" fill="#261412"/><path id="path10384" d="M54.49,34c0,.84.26,1.5.6,1.47s.39-.85.41-1.68-.23-1.26-.57-1.24-.43.61-.44,1.45" fill="#fff"/><path id="path10386" d="M53.41,57.4c-.35-3.15-4.64-4.16-7.15-4.59A16.37,16.37,0,0,0,34.6,55.2c-1.48,1-2.73,2.41-1.92,4.22.66,1.5,2.49,2.43,3.86,3.13,3.7,1.91,9,2.2,12.8.26,1.94-1,4.34-3,4.07-5.41" fill="#62554c"/><path id="path10388" d="M49.58,63c1.64-.86,3.61-2.39,4-4.32-.41,1.93-2.38,3.46-4,4.32m4-4.33h0" fill="#6d4a32"/><path id="path10390" d="M52.8,55.66l-.25-.19a5.62,5.62,0,0,0-.55-.54,6.19,6.19,0,0,1,.8.73" fill="#949286"/><path id="path10392" d="M52.8,55.67l-.25-.2h0l.25.19h0" fill="#7e6750"/><path id="path10394" d="M53.39,58.32a3.31,3.31,0,0,0,0-.55c0-.12,0-.25,0-.37a3.46,3.46,0,0,0-.86-1.93l.25.2a3.42,3.42,0,0,1,.85,1.92,3.31,3.31,0,0,1,0,.44l-.28.29" fill="#6d4a32"/><path id="path10396" d="M36.48,59.84a9.08,9.08,0,0,1-1.64-.14,3.54,3.54,0,0,1-1.69-.79c-.48-1.43,1-2.7,2.25-3.5A15.59,15.59,0,0,1,38.11,54a18.9,18.9,0,0,1,5.27-.84,14.29,14.29,0,0,1,1.83.12c2.5.36,7.23,1.14,7.56,4.33A2.85,2.85,0,0,1,52.55,59a4.85,4.85,0,0,1-2.14.71,5.44,5.44,0,0,1-.57,0A17.74,17.74,0,0,1,47,59.35a17.72,17.72,0,0,0-2.81-.21c-.8,0-1.61,0-2.42.12-1.71.17-3.5.58-5.25.58M43.08,54a15.86,15.86,0,0,0-4.54.62c-.6.18-4.89,2.13-3.07,3.14a1.69,1.69,0,0,0,.85.2,4.05,4.05,0,0,0,1.18-.21c1-.3,1.8-.75,2.77-1a15,15,0,0,1,4.08-.53,23.69,23.69,0,0,1,2.9.2,22.05,22.05,0,0,0,3.28.68,1.13,1.13,0,0,0,.74-.19.59.59,0,0,0,.16-.29c.16-.91-2.79-1.95-3.52-2.1a25.89,25.89,0,0,0-4.83-.5" fill="#3b312c"/><path id="path10398" d="M53.6,58.68h0m0,0v0m0,0a3.08,3.08,0,0,0,.07-.61h0a3.08,3.08,0,0,1-.07.61" fill="#6d4a32"/><path id="path10400" d="M43.56,64.32a15.24,15.24,0,0,1-6.78-1.58,15.69,15.69,0,0,1-2.58-1.56,16.89,16.89,0,0,0,2.34,1.37,15.28,15.28,0,0,0,6.86,1.58h.18c0,.06,0,.13,0,.19m.49,0c0-.06,0-.13,0-.19a12.84,12.84,0,0,0,5.31-1.31c1.69-.88,3.73-2.48,4-4.49l.28-.29a3.08,3.08,0,0,1-.07.61h0v0h0c-.41,1.93-2.38,3.46-4,4.32h0a12.86,12.86,0,0,1-5.53,1.31" fill="#412b20"/><path id="path10402" d="M43.64,64.32h-.08c0-.06,0-.13,0-.19H44c0,.06,0,.13,0,.19h-.41" fill="#342018"/><path id="path10404" d="M43.31,63.6a13.65,13.65,0,0,1-6-1.36,11.64,11.64,0,0,1-3.71-2.51,2.47,2.47,0,0,1-.49-.82,3.54,3.54,0,0,0,1.69.79,9.08,9.08,0,0,0,1.64.14c1.75,0,3.54-.41,5.25-.58.81-.07,1.62-.12,2.42-.12a17.72,17.72,0,0,1,2.81.21,17.74,17.74,0,0,0,2.88.37,5.44,5.44,0,0,0,.57,0A4.85,4.85,0,0,0,52.55,59c-.67,1.57-2.6,2.79-3.94,3.44a11.91,11.91,0,0,1-5.3,1.18" fill="#251e1b"/><path id="path10406" d="M34.2,61.18a4.64,4.64,0,0,1-1.52-1.76,2.76,2.76,0,0,1-.26-1.14A4,4,0,0,1,34.6,55.2a16.22,16.22,0,0,1,8.87-2.62,17.5,17.5,0,0,1,2.79.23c1.69.29,4.18.84,5.74,2.12A13.62,13.62,0,0,0,46.5,53a16.33,16.33,0,0,0-11.66,2.38c-1.39.9-2.56,2.22-2.06,3.87a2.55,2.55,0,0,0,.14.35,4.31,4.31,0,0,0,1.28,1.58" fill="#1b1615"/><path id="path10408" d="M32.78,59.25c-.5-1.65.67-3,2.06-3.87A16.33,16.33,0,0,1,46.5,53,13.62,13.62,0,0,1,52,54.93a3.68,3.68,0,0,1,1.41,2.47c0,.12,0,.25,0,.37a3.31,3.31,0,0,1,0,.55,6,6,0,0,1-.84.66,2.85,2.85,0,0,0,.22-1.39c-.33-3.19-5.06-4-7.56-4.33a14.29,14.29,0,0,0-1.83-.12,18.9,18.9,0,0,0-5.27.84,15.59,15.59,0,0,0-2.71,1.43c-1.25.8-2.73,2.07-2.25,3.5a3.37,3.37,0,0,1-.48-.52,2.61,2.61,0,0,0,.11.86" fill="#161312"/><path id="path10410" d="M34.2,61.18h0a4.31,4.31,0,0,1-1.28-1.58,2.55,2.55,0,0,1-.14-.35,2.55,2.55,0,0,0,.14.35,4.31,4.31,0,0,0,1.28,1.58" fill="#161312"/><path id="path10412" d="M43.4,64.13a15.28,15.28,0,0,1-6.86-1.58,16.89,16.89,0,0,1-2.34-1.37,4.31,4.31,0,0,1-1.28-1.58,2.55,2.55,0,0,1-.14-.35,2.61,2.61,0,0,1-.11-.86,3.37,3.37,0,0,0,.48.52,2.47,2.47,0,0,0,.49.82,11.64,11.64,0,0,0,3.71,2.51,13.65,13.65,0,0,0,6,1.36,11.91,11.91,0,0,0,5.3-1.18c1.34-.65,3.27-1.87,3.94-3.44a6,6,0,0,0,.84-.66c-.32,2-2.36,3.61-4,4.49A12.84,12.84,0,0,1,44,64.12H43.4" fill="#141210"/><path id="path10414" d="M48.23,55.59c-4.53-1.13-6.1-.88-9.13,0-2.32.66-1.67,1.33-1.24,1.34.86,0,2.89-.22,5.35-.35s4.34,0,4.77,0c1.71,0,.71-.86.25-1" fill="#fff"/><path id="path10416" d="M43.76,68.92l-.12.3a8,8,0,0,1-2.7,3.16,7.72,7.72,0,0,1-1.94.94,12.36,12.36,0,0,1-.06,4.73c-.57,2.76-1.39,5.37.5,7.84,2.48,3.23,7.32,3.61,10.62,1.54a6,6,0,0,0,3.09-5.66,18.73,18.73,0,0,0-1.27-5,14.87,14.87,0,0,1-.72-4,18.69,18.69,0,0,1-4.65-1.3,5.29,5.29,0,0,1-2.75-2.54" fill="#f799bd"/><path id="path10418" d="M45.51,88.71a7.55,7.55,0,0,1-6.07-2.82,5.65,5.65,0,0,1-1.17-3.57,22.09,22.09,0,0,1,.67-4.27c.08-.38.14-.77.19-1.15h0c-.05.38-.11.77-.19,1.15-.54,2.61-1.29,5.07.2,7.41a7.42,7.42,0,0,1-.37-4.89c.22-1.77.83-3.55,1-5.27,0-.15,0-.29,0-.44a2.26,2.26,0,0,1,.26-.37c1.1-1.37,2.82-2,3.94-3.37a.12.12,0,0,1,.07-.05c-.09,1.08-.18,2.17-.19,3.26a35.07,35.07,0,0,0,1,9.25l.12,0A42.16,42.16,0,0,1,44.37,75c0-1.08.07-2.15.17-3.22a4.92,4.92,0,0,0,3.17,1.67c.85.17,2.26,0,3,.63,0,.31,0,.62.1.93a24.79,24.79,0,0,0,1.13,3.93,7.24,7.24,0,0,1,.56,2.45,6.68,6.68,0,0,1,0,1.61,5.74,5.74,0,0,1-2.63,4.22,9.51,9.51,0,0,1-2.26,1.23,8.31,8.31,0,0,0,2.44-1,8.6,8.6,0,0,1-4.55,1.28m-3-15.17a1.06,1.06,0,0,0-.29,0c-1.9.43-1.68,1.39-2.38,3.8a14.77,14.77,0,0,0-.3,6.48A5.22,5.22,0,0,0,43,87.42a7.27,7.27,0,0,0,2.26.35c2.84,0,5.86-1.51,6.43-4.39.39-1.91-.42-3.75-1.24-5.43-.52-1-.32-2.3-.94-3.28a2.5,2.5,0,0,0-2-.81h-.19a2.46,2.46,0,0,0-1.85.75c-1.88,2-.82,8.64.14,10.94-2.11-2.23-2-6.87-2.14-10.17,0-.79-.19-1.84-1.06-1.84" fill="#d6576e"/><path id="path10420" d="M39.12,76.91A12.65,12.65,0,0,0,39,73.32h0a13,13,0,0,1,.2,2.25,12,12,0,0,1-.07,1.33h0" fill="#9d4b33"/><path id="path10422" d="M39,73.32h0" fill="#813621"/><path id="path10424" d="M51.54,75.57v0a15.58,15.58,0,0,1-.37-2.79,15.82,15.82,0,0,0,.38,2.81" fill="#9d4b33"/><path id="path10426" d="M39.75,74.86a8.59,8.59,0,0,0-.18-1.75,8.2,8.2,0,0,0,1.37-.73,8,8,0,0,0,2.7-3.16l.12-.3a3.13,3.13,0,0,0,.37.7l0,.34L44,71.07a.12.12,0,0,0-.07.05c-1.12,1.35-2.84,2-3.94,3.37a2.26,2.26,0,0,0-.26.37m11-.78c-.73-.63-2.14-.46-3-.63a4.92,4.92,0,0,1-3.17-1.67c0-.45.1-.89.16-1.33l0-.17a7.59,7.59,0,0,0,1.79,1.18,16.6,16.6,0,0,0,4.18,1.21,13.26,13.26,0,0,0,0,1.41" fill="#b43742"/><path id="path10428" d="M39.14,85.46c-1.49-2.34-.74-4.8-.2-7.41.08-.38.14-.77.19-1.15l.06-.13h0a4.91,4.91,0,0,1,.54-1.9c0,.15,0,.29,0,.44-.13,1.72-.74,3.5-1,5.27a7.42,7.42,0,0,0,.37,4.89" fill="#bf404f"/><path id="path10430" d="M39,73.32c.19-.07.38-.13.57-.22h0q-.28.12-.57.21" fill="#894025"/><path id="path10432" d="M39.13,76.9a12,12,0,0,0,.07-1.33h0a13,13,0,0,0-.2-2.25h0q.28-.09.57-.21a8.59,8.59,0,0,1,.18,1.75,4.91,4.91,0,0,0-.54,1.9h0l-.06.13" fill="#9e2a32"/><path id="path10434" d="M47.62,88.45a9.51,9.51,0,0,0,2.26-1.23A5.74,5.74,0,0,0,52.51,83a6.68,6.68,0,0,0,0-1.61,7.24,7.24,0,0,0-.56-2.45A24.79,24.79,0,0,1,50.8,75c0-.31-.08-.62-.1-.93a1.29,1.29,0,0,1,.16.17,5.34,5.34,0,0,1,.67,1.3c.1.42.22.84.35,1.25a18.73,18.73,0,0,1,1.27,5c0,.11,0,.21,0,.32a6.06,6.06,0,0,1-3.1,5.34h0a8.31,8.31,0,0,1-2.44,1" fill="#bf404f"/><path id="path10436" d="M51.16,72.76l-.47-.09h0l.47.09" fill="#a55b3b"/><path id="path10438" d="M51.53,75.55a5.34,5.34,0,0,0-.67-1.3,1.29,1.29,0,0,0-.16-.17,13.26,13.26,0,0,1,0-1.41l.47.09h0a15.58,15.58,0,0,0,.37,2.79" fill="#9e2a32"/><path id="path10440" d="M44.81,83.58a35.07,35.07,0,0,1-1-9.25c0-1.09.1-2.18.19-3.26h0a.23.23,0,0,1,.2.14,2.36,2.36,0,0,0,.27.58c-.1,1.07-.16,2.14-.17,3.22a42.16,42.16,0,0,0,.56,8.55l-.12,0" fill="#bf404f"/><path id="path10442" d="M44.72,70.28a4.1,4.1,0,0,1-.59-.66h0a4.1,4.1,0,0,0,.59.66h0" fill="#894025"/><path id="path10444" d="M44.54,71.78a2.36,2.36,0,0,1-.27-.58.23.23,0,0,0-.2-.14h0L44.11,70l0-.34a4.1,4.1,0,0,0,.59.66l0,.17c-.06.44-.12.88-.16,1.33" fill="#9e2a32"/><path id="path10446" d="M49.86,84.65a37.34,37.34,0,0,1-4,1.14,5.08,5.08,0,0,1-4.19-1.08.19.19,0,0,0-.29.2C42.65,88,48.88,88,50,84.8l-.13-.15" fill="#fef3f9"/><path id="path10448" d="M51.28,82.5v0c-.42-.48-1.43,1.08-1.07,1.71s1.53-1.11,1.08-1.69" fill="#fef3f9"/><path id="path10450" d="M11.46,4.8C13.2,4.21,15.58,6,16.83,7A80.1,80.1,0,0,1,23,12.31c1,.93,2,1.89,3,2.78a3.78,3.78,0,0,0,2.15,1.05c-3.12-4.08-6.62-6.72-10.86-9.56-1.9-1.28-5.89-4.05-6.76-1.08a2.32,2.32,0,0,1,.89-.7" fill="#fcce9b"/><path id="path10452" d="M67.76,1c-3.5.75-7,3-9.76,5.18s-5.29,5.07-6.28,8.47l.16.08a35.77,35.77,0,0,1,7.24-8c1.27-1,2.6-2,4-2.9,1.51-1,5.28-2.42,6.87-3.28.11-.07-2,.47-2.18.5" fill="#fcce9b"/><path id="path10454" d="M26.34,18.49s5.17-3.73,14-4.31,12.83,1.92,14.07,2.4c0,0-14.46-4-28,1.91" fill="#fcce9b"/></g></g></g></g></svg>