<svg xmlns="http://www.w3.org/2000/svg" viewBox="0 0 169.99 133.33"><title>Elephant</title><g id="Layer_2" data-name="Layer 2"><g id="svg2"><g id="g10"><g id="g12"><path id="path44" d="M160.58,54.27a4.17,4.17,0,0,1,1.28-2.46c2.67-3.17,4.85-11.19-2.84-22.88s-18-12.69-18-12.69l4.18,7.68s9-.5,15.2,10.36c4.17,8.51,3.67,15.69-1.51,19.54l-.15.12a2.67,2.67,0,0,1,1.88.33" fill="#bcbcd1"/><path id="path46" d="M160.58,54.27a2.68,2.68,0,0,0-1.35-.38h0a2.56,2.56,0,0,0-.39,0h-.11l.15-.11a10.78,10.78,0,0,0,4.3-9.1,24.13,24.13,0,0,0-2.79-10.44C156,26.6,150.19,24.6,147.18,24.09a29.13,29.13,0,0,0-5.33-7.71,19.51,19.51,0,0,1,2.54.7c-.12.22-.09.53.17,1a12.11,12.11,0,0,0,5.32,5.17c2.73,1.41,13.54,7.83,13.87,20.86a15.8,15.8,0,0,0,0,4.11,10.18,10.18,0,0,1-1.88,3.63h0a4.24,4.24,0,0,0-1.28,2.43v0" fill="#a0a2bc"/><path id="path48" d="M165.2,58c-2.89-1.67-4.6-2.45-4.62-3.72a2.73,2.73,0,0,0-1.88-.34c-5,3.81-5.84,7.6-4,9.91,1.17,3.5,2.67,3.17,4.34,3.67A3.5,3.5,0,0,1,161.53,71c.83.33,1.16-1.17,1.16-1.17a3.88,3.88,0,0,1-1,3.51,8.36,8.36,0,0,0,5.52-9.19c1,1.84,2.33-3.67-2-6.18" fill="#676b7e"/><path id="path50" d="M161.72,73.35a8.33,8.33,0,0,0,5.59-7.89h0a8.32,8.32,0,0,1-5.59,7.89m5.77-13.09h0A5.92,5.92,0,0,0,165.2,58a6.07,6.07,0,0,1,2.29,2.27" fill="#b6b6bd"/><path id="path52" d="M161.69,73.36a3.43,3.43,0,0,0,1.08-2.66,4.21,4.21,0,0,0-.08-.85s-.27,1.22-.93,1.22a.68.68,0,0,1-.23,0c0-.1,0-.2,0-.3A3.57,3.57,0,0,0,159,67.51c-1.67-.5-3.17-.17-4.34-3.67a4.09,4.09,0,0,1-.89-2.59c0-2.12,1.47-4.72,4.91-7.32a4.38,4.38,0,0,1,.51,0,2.68,2.68,0,0,1,1.37.38c0,1.27,1.73,2,4.62,3.72h0a5.92,5.92,0,0,1,2.27,2.26A9.69,9.69,0,0,0,164,57.4c-2.76-1.12-3.14-.89-3.66-1.78a.46.46,0,0,0-.42-.25c-.78,0-2.14,1.49-2.26,3.37.1.74.05,1,0,1a3.18,3.18,0,0,1-.34-2.37c.06-.36,0-.52-.16-.52-.63,0-2.6,2.73-2.3,5.08.15.52.27.72.4.72s.54-.87.94-1.32c0,0,.07-.07.1-.07.38,0-.4,4.36,2.89,4.92,2.61.52,2.83,1.94,2.83,2.83,0,.16,0,.23.1.23.29,0,1-1.53.42-3.06-.16-.41-.17-.59-.09-.59.29,0,1.73,2.26,1.44,4.24-.1.64.07.92.37.92.89,0,2.95-2.39,3.06-5,0-.14,0-.26,0-.37a8.33,8.33,0,0,1-5.59,7.89h0" fill="#474a5c"/><path id="path54" d="M165.53,67.18c2.88-4.55-3.26-9.58-3.26-9.58,5.56,2.22,5.57,6.12,5.57,6.12s-.47-1.72-1.64-1.89c1.17,2,1,4.68-.67,5.35" fill="#acadbf"/><path id="path56" d="M162.09,35.32c-3.79-9.45-12.53-14.49-12.53-14.49,5.28,1.81,10.87,8.9,12.53,14.49" fill="#f1f1f9"/><path id="path58" d="M104,98.83A85.64,85.64,0,0,1,102.89,118s3.36,3.21,12.18,2.66,11.77-4.77,11.77-8c0-6.44-1.82-14.57-2.38-17.93-.37-2.24-.68-3-.31-3.69L124,91c-3.19,3.19-14.49,7.53-20,7.87" fill="#999bae"/><path id="path60" d="M126.84,112.63c0-.22,0-.45,0-.67,0,.23,0,.45,0,.67m-1-10.36h0c-.09-.57-.19-1.12-.28-1.66.09.54.19,1.1.28,1.67" fill="#babac7"/><path id="path62" d="M113.06,120.68c-7.33,0-10.17-2.72-10.17-2.72h0c2.67,2.11,6.79,2.7,10.14,2.7a27.74,27.74,0,0,0,3.09-.17c.41,0,.77-.1,1.09-.16h0c-.19-3.14-1.74-5.41-3-5.42h-.11c-1.24.14-1.38,2.31-1.38,2.31s-.83-2.87-2.39-2.88h-.12c-2.2.24-3.11,3.58-3.11,3.58s-1.07-4.18-2.44-4.28h0a.63.63,0,0,0-.27.06h0a3.87,3.87,0,0,0-1.11,2.25,89,89,0,0,0,.89-13h0c0-1.31,0-2.69-.08-4.13,5.48-.34,16.78-4.68,20-7.87l.15.05a1.47,1.47,0,0,0-.17.74,26.17,26.17,0,0,0,.48,3c.22,1.34.65,3.44,1.08,5.9.09.54.19,1.09.28,1.66-.74-2.5-2.24-5.43-5.26-5.43a5.94,5.94,0,0,0-2,.39c-7.17,2.58-10.55,4-11,9.35-.32,4.25.37,5.64,2.14,5.64a6.41,6.41,0,0,0,1.64-.27,4.54,4.54,0,0,1,1.1-.17,1.3,1.3,0,0,1,1.12.54,1.48,1.48,0,0,0,1.25.53,4.9,4.9,0,0,0,.91-.1,4.52,4.52,0,0,1,.92-.1c2.11,0,2.28,1.92,2.46,3.68.06.55.66.82,1.5.82,2.1,0,5.73-1.72,6.21-5.24V112c0,.22,0,.45,0,.67h0c0,3.22-2.94,7.42-11.77,8q-1,.06-2,.06" fill="#6b6f89"/><path id="path64" d="M39.83,81.93s-11.36,10.8,1.22,34.63c2.22,3.78,5.46,9.35,12.25,8S66,120.79,66.88,114.22c.67-4.56.56-6.12-1.44-8.13A61.54,61.54,0,0,1,53.19,90.62C48.4,81.93,42.83,80,39.83,81.93" fill="#999bae"/><path id="path66" d="M43.1,119.81c-.38-.53-.73-1.06-1.05-1.58h0c.32.52.67,1,1.05,1.58m-7.55-18.72C34,91.47,37,85.64,38.76,83.23h0C37,85.64,34,91.47,35.55,101.09h0" fill="#babac7"/><path id="path68" d="M55.05,124.2a.27.27,0,0,0,.08-.07h0l.07,0-.15,0m4.7-1.49a1.89,1.89,0,0,0,.1-.63,2.62,2.62,0,0,0-.45-1.45,5.36,5.36,0,0,0-4-2.57c-1.12,0-2,.71-2,2.48,0,.21,0,.43,0,.67-1.24-1.6-2.65-2.47-3.73-2.47s-1.82.82-1.82,2.6c0,.22,0,.45,0,.7-1.18-1.44-2.48-2.35-3.32-2.35-.46,0-.78.27-.87.89-.2-.25-.4-.51-.58-.77-.38-.53-.73-1.06-1.05-1.58a2,2,0,0,1,1.5-.56,8.53,8.53,0,0,1,1.74.26,9,9,0,0,0,1.72.25,1.92,1.92,0,0,0,1.28-.4,2,2,0,0,1,1.3-.45,5.32,5.32,0,0,1,1.76.41,4.74,4.74,0,0,0,1.4.41.53.53,0,0,0,.55-.37,3,3,0,0,1,2.61-1.9,2.56,2.56,0,0,1,1.73.73c1.26,1.15,2.61,2.46,3.81,2.46a1.85,1.85,0,0,0,1.54-.95c1.25-1.81,1.57-4.66-6-10.1a21.8,21.8,0,0,0,4.45-5.93c1.72,1.87,3.15,3.17,4,4a5.42,5.42,0,0,1,1.81,4.35,27.39,27.39,0,0,1-.37,3.78c-.58,4.34-3.36,6.88-7.13,8.49m-24.2-21.62C34,91.47,37,85.64,38.76,83.23c3.76,4.68,5.69,9.25,5.69,13a10,10,0,0,1-.23,2.15C39.85,93,40.56,88.29,39,88.29a1.06,1.06,0,0,0-.43.1c-2.84,1.17-3,12.69-3,12.69h0" fill="#6b6f89"/><path id="path70" d="M164,83.82c-2.23,0-4.46,2.23-8.25-1.33-6.67-6.68-4.89-12.92-3.55-24.5,1.78-36.08-12-46.54-22.94-48.1s-17.15,4-17.15,4-33.4,40.25-44.6,45.43S49,77.7,56.64,87.05,75.71,97.92,78.51,97.36c-1,6.58-4.48,14.15-8.82,22.13-1.47,2.7-1.93,4.42-1.49,5.73,1.2-.69,3.59-1,8.26,0,8.9,1.93,20.54,4.46,22.36,6.7,4.87-2.8,4.07-14,4.07-14A85.64,85.64,0,0,0,104,98.83c5.48-.34,16.78-4.68,20-7.87l.15.05a4.35,4.35,0,0,1,1.15-1.21c1.82-1.54,3.83-3.41,3.83-3.41.33,20.2,18.23,23.57,22.07,24.55a28.84,28.84,0,0,1,8.35,3.19C163.84,115.78,170,105.65,170,97s-3.79-13.14-6-13.14" fill="#bcbcd1"/><path id="path72" d="M130.44,10.1l-1.2-.21,1.2.21" fill="#e0e0ea"/><path id="path74" d="M96.32,128.87a10.34,10.34,0,0,1-3.16-.62c-4.79-1.56-6.1-1.86-7.37-4.19s-2.82-3.7-4.27-3.7c-.63,0-1.16.11-1.65.11A2,2,0,0,1,78,119.39,3.84,3.84,0,0,0,75,117.64a2.56,2.56,0,0,0-1.07.22.61.61,0,0,1-.3.08c-1,0-1.08-2.64.42-6.5a8.46,8.46,0,0,0,.4-1.34A56.32,56.32,0,0,0,78,99.87a10,10,0,0,0,.53-1.14c1.51-3.86,2.26-10.27,1.77-10.27-.16,0-.45.66-.88,2.28a5.54,5.54,0,0,1-5.69,3.89c-3.89,0-8.21-2.73-8.08-6.11,0-6-1.33-16.21-1.33-16.21a1.92,1.92,0,0,0,.31,0c.81,0,3.06-.33,5.18-3.71,3.94-.16,13.48-7,18.71-13.18,7-8.41,6-12,8.88-14s5.55-2.66,8.88-7.77c7.33-1.33,7.55-13.32,7.55-13.32s.12,1.23.47,1.23.79-1,1.52-4.78a10.92,10.92,0,0,1,3.67-6.47,22.1,22.1,0,0,0-3.49,1.2h0a23.25,23.25,0,0,1,9.4-1.92,27.08,27.08,0,0,1,3.81.27h0l1.2.21.44.09-.76-.07a12.77,12.77,0,0,0-1.38-.08c-6.2,0-12.08,4.3-13.53,16.11-1.56,12.69-8.91,15.14-14.92,18.26S90.71,62.89,74.68,69.79c-7.57,3.35-9.2,8.79-6.91,14.7,1.72,4.41,4.84,7,7.38,7,2.09,0,3.78-1.75,4-5.66.18-3.49.72-5.07,1.24-5.07.78,0,1.52,3.52,1,9.52-1.11,8.24-3.12,11.36.45,11.58,2.8.2,1.27,1.85-.69,1.85a3.09,3.09,0,0,1-.66-.07,1.33,1.33,0,0,0-.28,0c-1.75,0-2.07,4.09-4.61,9.38-2.68,4.69,5.12,3.79,9.35,8s6,5.57,10.25,5.79h0c4.21,0,8.61-25.26,4.4-46.54-.3-1.46-.26-2,0-2,.66,0,2.76,4.13,3.57,6.72.25.81.5,1.15.73,1.15.78,0,1.43-3.82,1.94-6,.18-.77.42-1.15.65-1.15.63,0,1.16,2.83,0,8-.28,1.27.77,1.93,2.65,1.93,8.73,0,35.43-14.15,32.31-48-.19-1-.14-1.38.06-1.38,1.17,0,7.59,14.83,1.5,29.66-6.45,16-12,19.37-8.46,26.27,1.76,3.41,3.35,4.38,4.68,4.38s2.44-1,3.12-1.48a1.64,1.64,0,0,1,.89-.33c.8,0,1.07,1.09-.45,3.45-1.91,3,5.46,6.93,10.59,6.93.26,0,.52,0,.77,0,5.12-.44,11.35-5.56,10.91-13.81-.3-5.53-1.7-6.55-3.88-6.55-1.06,0-2.3.25-3.69.32h-.2c-4.28,0-12-6.89-8.26-20A132.93,132.93,0,0,0,152.3,54.5c0,1.14-.07,2.3-.12,3.49h0c-.59,5.11-1.27,9.18-1.27,12.71a15.18,15.18,0,0,0,4.82,11.79,6.14,6.14,0,0,0,4.27,2c1.5,0,2.74-.69,4-.69,2.22,0,6,4.46,6,13.14a23.76,23.76,0,0,1-1.44,7.82c.1-.29.14-.46.14-.46h0a7.33,7.33,0,0,0-1.31-.12h0a2.88,2.88,0,0,0-2.24.76l0,0,0,0,0,0a2,2,0,0,0-.36,1.2,3.32,3.32,0,0,0,.47,1.61,5.45,5.45,0,0,0-2-.46h0a2.84,2.84,0,0,0-1.69.53l0,0a2,2,0,0,0-.67,1.61,6.23,6.23,0,0,0,.67,2.48l-.09,0a10.45,10.45,0,0,0-3.64-1.22h0a1.05,1.05,0,0,0-.86.33h0l0,0h0c-.45.78.35,1.57,1.26,2.17a27.11,27.11,0,0,0-6.79-2.4c-3.7-1-20.41-4.09-22-22.33a27.48,27.48,0,0,0,.44,3.15c.23-5.67,4-10.94,8.24-17.29,5.39-8.08,5.71-17.61,5.16-17.61-.13,0-.31.55-.48,1.8-1,7.4-3.56,14.48-14.92,25.16C120.15,90.91,112.45,94,107.91,94c-2.3,0-3.78-.8-4-2.26-.35-2.33-1.52-6.38-1.9-6.38-.16,0-.18.75.07,2.71,1.5,11,.83,24-.34,32.4-.88,6.28-2.58,8.41-5.41,8.41m64.2-14.56h-.21a5.79,5.79,0,0,0,2.55-.84,4.23,4.23,0,0,1-2.34.85M129.24,88.57v0a0,0,0,0,0,0,0m-.11-2.12v0" fill="#a0a2bc"/><path id="path76" d="M78,99.88c.2-.86.36-1.69.48-2.52-.12.82-.28,1.66-.48,2.51h0" fill="#a5a7be"/><path id="path78" d="M78,99.87c.2-.85.36-1.69.48-2.51h0a6.5,6.5,0,0,1-1.31.1,27.71,27.71,0,0,1-13.14-4,48.75,48.75,0,0,0-.41-13.21h0a76.84,76.84,0,0,1-1-9.87,3.91,3.91,0,0,1,0-.48,3.4,3.4,0,0,0,2.4.89,4.07,4.07,0,0,0,3.78-2.39c13-4.35,22.72-16.87,25.39-26.89h0c6.06-4.25,9.79-7.12,9.8-9.36h0a1.93,1.93,0,0,0-.12-.67,2.47,2.47,0,0,0,1.59.6c3.15,0,6.51-6.26,6.93-9.11a4.32,4.32,0,0,0,.06-.77h0a3.39,3.39,0,0,0-1.12-2.5c0-.1.19-.15.73-.24,1.14-.19,2.44-1.73,3.23-3.75h0a10.6,10.6,0,0,0,.72-3.75c0-.12,0-.25,0-.37a22.1,22.1,0,0,1,3.49-1.2,10.92,10.92,0,0,0-3.67,6.47c-.73,3.79-1.22,4.78-1.52,4.78s-.47-1.23-.47-1.23-.22,12-7.55,13.32c-3.33,5.11-6,5.78-8.88,7.77s-1.83,5.58-8.88,14c-5.23,6.23-14.77,13-18.71,13.18-2.12,3.38-4.37,3.71-5.18,3.71a1.92,1.92,0,0,1-.31,0s1.33,10.21,1.33,16.21c-.13,3.38,4.19,6.11,8.08,6.11a5.54,5.54,0,0,0,5.69-3.89c.43-1.62.72-2.28.88-2.28.49,0-.26,6.41-1.77,10.27A10,10,0,0,1,78,99.87" fill="#62688b"/><path id="path80" d="M159.86,114.32s-4.14-1.66-3.09-3.21c.83-1.1,4.59.94,4.59.94s-1.5-2.87,0-4.09,3.8-.11,3.8-.11a2.74,2.74,0,0,1-.11-2.81c.89-1.27,3.64-.72,3.64-.72s-2.75,10.05-8.83,10" fill="#dddcec"/><path id="path82" d="M29.91,67.85a7,7,0,0,1-2.67,2c-2,1,1.17,3.17,4.85,3.34a48.87,48.87,0,0,0-2.18-5.34" fill="#ede9c6"/><path id="path84" d="M31.79,73.17a10,10,0,0,1-2.11-.38,10,10,0,0,0,2.11.38h0" fill="#ede9c6"/><path id="path86" d="M31.79,73.17a10,10,0,0,1-2.11-.38A7.66,7.66,0,0,1,27.84,72a4.33,4.33,0,0,0,1.33.26c1.47,0,1.37-1.35.83-2.43-.23-.46-.41-.61-.62-.61-.41,0-.93.56-2.14.61a7,7,0,0,0,2.67-2l.14.28a27.56,27.56,0,0,0,1.74,5" fill="#dad297"/><path id="path88" d="M26.89,70.31a3.12,3.12,0,0,0,2.61-.82c.29.82-1.51,1.85-2.61.82" fill="#fff"/><path id="path90" d="M37.43,19.61s-3.55-6.06-9.63-6.29S18.18,19.78,9.22,28.43C4.24,33.2-.25,34,0,36.76c.32,3.43,2.39,7.2,4.23,7-.82,2,4.72,10.57,9.57,9.84.58,2.81,5.84,4.26,7.84,4.72s8.22,1.35,8.13-.51c1.06-7.63,7.65-38.21,7.65-38.21" fill="#bcbcd1"/><path id="path92" d="M4.1,43.78h0m0,0c-1.8,0-3.77-3.68-4.08-7-.24-2.49,3.43-3.39,7.83-7.09h0C3.44,33.37-.23,34.27,0,36.76c.31,3.34,2.28,7,4.08,7M17.19,20h0C21,16,23.76,13.31,27.48,13.31h0C23.76,13.31,21,16,17.19,20" fill="#c4d9e5"/><path id="path94" d="M4.1,43.78h0c-1.8,0-3.77-3.68-4.08-7-.24-2.49,3.43-3.39,7.82-7.09a3.59,3.59,0,0,1-.32.36c-1.18,1.2-1.32,1.87-.7,1.87,1,0,4-1.74,7.91-5.78,6.27-6.53,10.08-9.19,12-9.38s3-1.9.8-2.46a3.59,3.59,0,0,0-.81-.09c-4,0-9.34,5.89-9.34,5.89l-.14,0C21,16,23.76,13.31,27.48,13.31h.32c4.63.18,7.79,3.73,9,5.41A24.08,24.08,0,0,0,34.59,21c-2.27-2.1-4.28-3.26-6.38-3.26-1.92,0-3.91,1-6.25,3.06h0l-.35.32c-2.94,2.66-5.69,5.57-8.66,8.3h0C11.69,30.6,10.4,31.73,9,32.79A38.15,38.15,0,0,1,4.24,36,7.31,7.31,0,0,0,.72,39.82h0c.81,2.2,2.13,4,3.39,4h0" fill="#8b9bb9"/><path id="path96" d="M4.24,36c7-4,12-10.09,17.72-15.19s9.31-3.52,14.71,2.31c-1.75,8.26-6.05,28.65-6.89,34.69.09,1.86-6.13,1-8.13.51s-7.26-1.91-7.84-4.72C9,54.34,3.42,45.73,4.24,43.77,3,43.9,1.55,42.1.72,39.82A7.31,7.31,0,0,1,4.24,36" fill="#f68aca"/><path id="path98" d="M9,32.79c1.37-1.06,2.66-2.19,3.93-3.36h0C11.69,30.6,10.4,31.73,9,32.79M21.61,21.14l.35-.32-.35.32" fill="#8679a6"/><path id="path100" d="M26.92,59h0a27.9,27.9,0,0,1-5.26-.62c-2-.46-7.26-1.91-7.84-4.72a3.81,3.81,0,0,1-.59,0h0c-4.37,0-9-6.91-9-9.4a1.15,1.15,0,0,1,.08-.48H4.11c-1.26,0-2.58-1.76-3.39-4A7.31,7.31,0,0,1,4.24,36,38.15,38.15,0,0,0,9,32.79c1.37-1.06,2.66-2.19,3.92-3.35l-.1.17c-2.84,4.5-9.67,6.9-8.92,9.62a2.17,2.17,0,0,0,2.19,1.85,3.27,3.27,0,0,0,1.17-.23S6.1,42,6.81,45.4c.6,2.9,5,5.3,7.24,5.3a1.52,1.52,0,0,0,1-.26,5,5,0,0,0,5,4,3.43,3.43,0,0,0,3.3-1.86,16,16,0,0,0,.91,1.66,20.63,20.63,0,0,0,3.69,4.7c-.31,0-.65.05-1,.05m-4.61-14.4a5,5,0,0,1,1.45-3.79,20.94,20.94,0,0,0,4.72-13.87c0-4.77-1.26-6.42-3.38-6.42a10.4,10.4,0,0,0-4,1.16l-.07,0,.58-.52.35-.32h0c2.34-2.09,4.33-3.06,6.25-3.06,2.1,0,4.11,1.16,6.38,3.26a25.83,25.83,0,0,0-3.43,5.16h0a30,30,0,0,0-3.16,13h0c-.22.64-1.15.93-3.45,2.6h0l-.15.12-.51.37a4.84,4.84,0,0,0-1.59,2.26" fill="#f365b4"/><path id="path102" d="M13.8,25.18c-.51,0,1-2.93,5.12-6.44,3.45-2.95,5.9-4,6.62-4,.41,0,.24.37-.65,1,0,0-4.51,1.74-10,8.52-.57.7-.95,1-1.11,1" fill="#f1f1f9"/><path id="path104" d="M108.14,11.24c-4.23-.26-9.39-1.85-19.71-5.15-8.52-2.73-13.09,3-14.81,6.35s6.48,14,10.32,18.25c6.61,1,10.85,3.3,10.27,10.77,6.69-4.68,10.53-7.68,9.69-10,3.51,2.85,8-5.17,8.52-8.51s-2.33-3.18-.33-3.51c1.14-.19,2.44-1.73,3.22-3.75-.59-3.07-3.69-4.2-7.17-4.42" fill="#83abc8"/><path id="path106" d="M115.93,10.56c-.42-2.52-7.35-2.84-15-5.51S81.19-1.63,76,.7s-9.69,12.87-9.69,12.87-8.51-4.18-21.54.33C27.41,20.75,28,39.2,28,39.2c-.24.69-1.32,1-4.11,3.09s-2.56,7.24.34,11.91,4.23,4.8,5.23,6.35c-.11,1.34-1.22,10.8,7.91,21S47,102,37.82,104.31s-15.13-6.18-17-11.78-6.12-3.47-9.24.8-1.8,7.29-.81,7.81,1.15.4,1.75,1.62c5,8.85,15.2,14.86,30.57,12.35,23.21-5.84,22-24.55,20.54-34.91-1.21-8.36-1-10.35-1-10.35a4,4,0,0,0,6.18-1.5c13-4.35,22.72-16.87,25.38-26.89.58-7.47-3.66-9.72-10.27-10.77-3.84-4.23-12-14.95-10.32-18.25s6.29-9.08,14.81-6.35c10.32,3.3,15.48,4.89,19.71,5.15,3.48.22,6.58,1.35,7.17,4.42a9.77,9.77,0,0,0,.62-5.1" fill="#bcbcd1"/><path id="path108" d="M39.35,41.53a2.15,2.15,0,0,1,1.37-1.21c-1-2.13-.41-4.49.46-4.49l.11,0c1.53.4.89,4.35.89,4.35a2.63,2.63,0,0,1,1.65.77,4.94,4.94,0,0,0-1-.26,4.19,4.19,0,0,0-.95-.11,3.78,3.78,0,0,0-2.09.62,3.38,3.38,0,0,0-.48.31m1.84-5.39h0c-.48,0-.82,1-.75,2.17s.53,2.1,1,2.1h0c.49,0,.82-1,.74-2.17s-.52-2.1-1-2.1" fill="#8589aa"/><path id="path110" d="M61.43,39.06s.39-2.23,1.16-2.56c-1.72-1.33-2.5-4.17-1.5-4.79a1.11,1.11,0,0,1,.39-.07c1.62,0,2.73,4,2.73,4a6.2,6.2,0,0,1,2-.33,4.9,4.9,0,0,1,1.29.16H67.3a7.12,7.12,0,0,0-1.26.11A5.66,5.66,0,0,0,62,38.22a5.34,5.34,0,0,0-.52.84" fill="#8589aa"/><path id="path112" d="M42.19,38.24c.08,1.18-.25,2.15-.74,2.17s-1-.92-1-2.1.27-2.15.75-2.17.95.92,1,2.1" fill="#100f0d"/><path id="path114" d="M41.9,37.57c.06.46-.07.85-.28.87s-.44-.32-.51-.78.07-.85.29-.88.44.33.5.79" fill="#fff"/><path id="path116" d="M63.13,33.68c.49,1.07.53,2.1.08,2.29S62,35.46,61.5,34.38s-.54-2.09-.09-2.29,1.22.52,1.72,1.59" fill="#100f0d"/><path id="path118" d="M62.61,33.16c.22.4.24.81,0,.92s-.53-.15-.75-.56-.24-.81,0-.91.52.15.75.55" fill="#fff"/><path id="path120" d="M54.64,29.37c1.06-3.95,2.46-5.51,4.15-5.51,1.25,0,2.65.83,4.2,2.17a7.16,7.16,0,0,0-2.41-.45c-3.92,0-5.94,3.79-5.94,3.79" fill="#8589aa"/><path id="path122" d="M36.94,33.55c.16-2.74.83-3.89,1.76-3.89S41,31,42.28,33.05A5.69,5.69,0,0,0,39,31.53c-1.76,0-2.08,2-2.08,2" fill="#8589aa"/><path id="path124" d="M54.47,28.76s2.84-5.34,8.35-3.34c-3.68-3.17-6.51-3.5-8.35,3.34" fill="#545970"/><path id="path126" d="M36.76,32.94s.67-4.18,5.35-.5c-2.51-4-5-5.18-5.35.5" fill="#545970"/><path id="path128" d="M28,39.19a30,30,0,0,1,3.16-13h0a30,30,0,0,0-3.16,13" fill="#d657a2"/><path id="path130" d="M36.33,115.68c-11.62,0-19.55-5.45-23.79-12.92-.38-.78-.59-1-.95-1.22l.1.06,1.08,0c4.3,0,5.31-1.48,6.84-3.5.57-.75,1-1.18,1.47-1.18s1.27.63,2.43,2.1a20.76,20.76,0,0,0,8.11,5.78c2.75,1,2.63,1.93,2.63,1.93.34-.67.9-1.33,2.9-1.56,1.15-.12,2.16-.47,3.12-.47a3.07,3.07,0,0,1,2.12.81h0a1.93,1.93,0,0,1,0-2.45c1.14-1.86,2.34-3.68,5-3.68-1.33-.83-2.34-1.83-2.17-4.5s2.84-4.18,2.84-4.18c-1-.34-4.34-.34-5.51-3.84s1.67-4.51,1.67-4.51a21.19,21.19,0,0,1-2.85.58,2.46,2.46,0,0,1-2-.92c-1.5-1.84-2.16-3.67,2.68-4.84a4.27,4.27,0,0,0-.52,0l-1.07,0c-.38,0-.79,0-1.21,0a6,6,0,0,1-4.89-1.89c-3.17-4.67-3-8.52,1.51-10.52a8.19,8.19,0,0,1-2.1.32c-2.33,0-3.55-1.5-3.41-4.66.9-5.74,6.14-8.58,14-8.58.84,0,1.71,0,2.6.09h0a20.6,20.6,0,0,0-7.27-1.37,24.05,24.05,0,0,0-3.42.26,6.15,6.15,0,0,1-.88.07c-1.09,0-2-.36-.6-1.69,4.68-4.77,9.61-6.44,14.07-6.44a19.45,19.45,0,0,1,7.42,1.52c.22.19.43.4.64.61L57,44.84a12.53,12.53,0,0,1,1.91,2.46A15,15,0,0,0,49,43.89a17.15,17.15,0,0,0-12,5c-2.67,2.45,10.74-.22,13.42,5a22.13,22.13,0,0,0-7.71-1.52c-6.89,0-11.22,4.19-11,9.7.08,1.51.92,1.89,2.17,1.89A19.42,19.42,0,0,0,36,63.7a20.68,20.68,0,0,1,2.42-.18,6.5,6.5,0,0,1,4,1.16c-6.24.21-11.59,2.66-7.58,9.57a5,5,0,0,0,4.42,1.92c.62,0,1.25,0,1.92-.09S42.52,76,43.24,76H44a11.56,11.56,0,0,1,4.11.92L48,76.85q.33.14.66.3A15.21,15.21,0,0,0,47,77.07c-1.62,0-4.09.23-5.59,1.46-2.1,1.73-.85,3.26,1.17,3.26a3.9,3.9,0,0,0,.88-.1,12.34,12.34,0,0,1,2.41-.25,7.13,7.13,0,0,1,3.33.68c-3.94,0-6.08,2.4-5.31,4.88s2.39,2.56,4.53,2.9a4.8,4.8,0,0,1,3,1.46,3.91,3.91,0,0,0-.67,0c-1.35,0-4.26.51-4.51,4.85-.33,2.4,2.07,2.4,3.6,5.35a4.77,4.77,0,0,0-2.67-1c-1.22,0-2.28.77-3.33,2.22-1.75,2.4-1,2.73-.11,5.35a5.09,5.09,0,0,0-4.51-2.26,12.5,12.5,0,0,0-2.47.29c-2.62.55-2.29,1.2-2.95,3.27-.11-3-1-2.43-5.53-5.11s-4.68-3.33-6.18-5.34c-.33-.42-.59-.6-.84-.6-.92,0-1.57,2.43-3.68,3.61-2.67,1.5,3,10.35,14.87,11.69a25.57,25.57,0,0,0,2.94.16c11.51,0,25.74-7.34,25.12-28.39-.48-8.24-2.34-13.74-2.63-17.27a6.33,6.33,0,0,0,3,1.09c-.66,2.36,1.14,7.72,2.24,17,1.21,10.18-.55,15.73-6.47,22.12l-.13.14a31,31,0,0,1-13.37,6.6c-.89.15-1.77.26-2.63.35a39.71,39.71,0,0,1-4.15.22M11,101.23l-.18-.09.18.09m-.18-.09h0m-.52-.49a3.92,3.92,0,0,1-.62-2.25,8.76,8.76,0,0,1,1.95-5.07c1.78-2.44,3.94-4.18,5.81-4.18a3.21,3.21,0,0,1,2.84,2,3.54,3.54,0,0,0-2.09-1.89,4,4,0,0,1,1,1.36c.81,1.73,1.09,4.27.06,6l-.12.19a8.84,8.84,0,0,0,.67-3.34,6,6,0,0,0-.22-1.71v0a.49.49,0,0,0,0-.11c-.47-1.47-1.35-1.81-2-1.84h-.11a2.16,2.16,0,0,0-.66.1h0l-.24.1h0c-1.4.58-3.84,2-5.61,6,0,0,0,0,0,0a0,0,0,0,0,0,0l0,0v0a.77.77,0,0,0-.07.16h0v0c-.65,1.65-.58,2.78-.05,3.51a4.94,4.94,0,0,1-1-.51,3.41,3.41,0,0,0,.54,1.37M65.38,69.59A3.24,3.24,0,0,1,63.74,69a3.93,3.93,0,0,0,.58-.19c2.22-.89,3-1.78,3-2.92A4.69,4.69,0,0,0,66.83,64a4.85,4.85,0,0,0-1.94-2.08C88.13,53.6,73.75,40.36,76,40.36a.91.91,0,0,1,.25,0,12.26,12.26,0,0,0,2.69.28c5.52,0,11.67-3.17,5.77-7.07A11.9,11.9,0,0,0,78.21,32a19.82,19.82,0,0,0-4.87.61,8,8,0,0,1-2,.31c-1.54,0-1.49-.81,2.37-1.81,8.19-2.34-.5-13-3.17-13.53s-.67-3.67,3-8.68a10.79,10.79,0,0,1,9.24-4.74,23.69,23.69,0,0,1,7.79,1.57c5.56,2,10.24,2.81,12.47,2.81,1,0,1.5-.17,1.39-.47-.33-1-11-4.18-21-6.35a13.6,13.6,0,0,0-3-.33c-5.6,0-9.11,3.68-10.72,5.89,1.73-2.71,4-5.49,6.32-6.57A10.17,10.17,0,0,1,80.1,0c6,0,14.74,2.94,20.8,5.05,7.68,2.67,14.61,3,15,5.51a7.61,7.61,0,0,1,.11,1.35,10.6,10.6,0,0,1-.72,3.75c-.6-3.07-3.7-4.2-7.18-4.42C104,11,98.84,9.42,88.7,6.17h0l-.27-.08h0l-.07,0a14.19,14.19,0,0,0-4.19-.69h0c-5.82,0-9.13,4.36-10.54,7.07h0a2.39,2.39,0,0,0-.23,1.11h0c0,3,3.81,8.77,7.2,13.13.31,1.72-.11,3.15-2,3.65,9.39,2.35,12.84,4.38,12,8.76s-11.14,2.2-9.86,7.2C82.47,52.87,81.19,61,70,64.34a3.29,3.29,0,0,0,0-2.42c0-.07-.07-.1-.1-.1-.39,0,0,6.6-4,7.71a2,2,0,0,1-.48.06m-7.56-2.75c.1-1.87.92-3,3.16-3.67l.81-.24a16.77,16.77,0,0,1-4,3.91M27.58,52.13a2.45,2.45,0,0,1-1.5-.49c-5.23-3.75-1.69-9.57-1.52-9.84,2.3-1.67,3.23-2,3.45-2.6h0a30,30,0,0,1,3.16-13C30.48,28.28,29,33.6,29.69,38c.08,1,.47,1.32,1.1,1.32a9.13,9.13,0,0,0,1.7-.3,10.6,10.6,0,0,1,2.33-.31,6.74,6.74,0,0,1,1.56.18c2.22.22-10.47,2.45-10,8,.18,2.27,1.14,3.06,2.4,3.06,1.82,0,4.26-1.66,5.84-2.84S42.75,41.71,49,41.71a11.85,11.85,0,0,1,4,.65,10.72,10.72,0,0,1,3.16,1.83,14.78,14.78,0,0,0-7.67-2.27c-4.75,0-8.87,2.55-12.36,5.11s-6.35,5.1-8.59,5.1M21.94,47h0a5.66,5.66,0,0,1,2-4.7l.51-.37-.51.37a5.66,5.66,0,0,0-2,4.7" fill="#a0a2bc"/><path id="path132" d="M108.14,11.24c-4.23-.26-9.39-1.85-19.71-5.15-8.52-2.73-13.09,3-14.81,6.35s6.48,14,10.32,18.25c6.61,1,10.85,3.3,10.27,10.77,6.69-4.68,10.53-7.68,9.69-10,3.51,2.85,8-5.17,8.52-8.51s-2.33-3.18-.33-3.51c1.14-.19,2.44-1.73,3.22-3.75-.59-3.07-3.69-4.2-7.17-4.42" fill="#f68aca"/><path id="path134" d="M73.51,6.22c1.55-3.17,4.55-4.09,7.37-4.09a15.79,15.79,0,0,1,5,.86c1.23.43,1.85.86,1.33.86a3.8,3.8,0,0,1-.84-.14,18.83,18.83,0,0,0-4.5-.57c-5.72,0-8.36,3.08-8.36,3.08" fill="#f1f1f9"/><path id="path136" d="M32.92,26.76c.63-6,8.84-12.27,13.69-12.27a5.49,5.49,0,0,1,.84.07,26.27,26.27,0,0,0-14.53,12.2" fill="#f1f1f9"/><path id="path138" d="M11.59,101.54l-.62-.31c.26.13.46.22.62.31m-.81-.41a1.51,1.51,0,0,1-.51-.48,1.51,1.51,0,0,0,.51.48m10.06-8.6a7.54,7.54,0,0,0-.59-1.39,7.54,7.54,0,0,1,.59,1.39" fill="#d3d3e0"/><path id="path140" d="M24.41,41.92l.15-.12h0l-.15.12" fill="#c8529b"/><path id="path142" d="M34.25,106.76s.12-1-2.63-1.93a20.76,20.76,0,0,1-8.11-5.78c-1.16-1.47-1.85-2.1-2.43-2.1s-.9.43-1.47,1.18c-1.53,2-2.54,3.5-6.84,3.5l-1.08,0-.1-.06c-.16-.09-.36-.18-.62-.31l-.18-.09h0a1.51,1.51,0,0,1-.51-.48,3.41,3.41,0,0,1-.54-1.37,4.94,4.94,0,0,0,1,.51,3.19,3.19,0,0,0,2.48,1.09l.52,0a6.36,6.36,0,0,0,1.17-.11l.11,0h.14l.19-.07a2.87,2.87,0,0,0,.93-.44,7,7,0,0,0,2.88-3.46l.12-.19c1-1.71.75-4.25-.06-6a4,4,0,0,0-1-1.36,3.54,3.54,0,0,1,2.09,1.89,7.54,7.54,0,0,1,.59,1.39h0c1.64,5,6.51,12.18,13.92,12.18a12.37,12.37,0,0,0,3.06-.4c4.46-1.14,6.63-4.14,6.63-8.1h0c0-4.16-2.4-9.37-7.07-14.61-7.1-8-8-15.46-8-19a19.34,19.34,0,0,1,.1-2h0a9.07,9.07,0,0,0-1.54-1.65,20.63,20.63,0,0,1-3.69-4.7,16,16,0,0,1-.91-1.66A13.29,13.29,0,0,1,21.93,47a5.69,5.69,0,0,1,2-4.7l.51-.37.15-.12c-.17.27-3.71,6.09,1.51,9.84a2.5,2.5,0,0,0,1.51.49c2.24,0,5.1-2.55,8.59-5.1s7.61-5.11,12.36-5.11a14.73,14.73,0,0,1,7.66,2.27l.2.17A19.45,19.45,0,0,0,49,42.84c-4.46,0-9.39,1.67-14.07,6.44-1.45,1.33-.49,1.69.6,1.69a6.15,6.15,0,0,0,.88-.07,24.05,24.05,0,0,1,3.42-.26A20.6,20.6,0,0,1,47.07,52c-.9-.06-1.76-.09-2.6-.09-7.91,0-13.15,2.84-14,8.58-.14,3.16,1.08,4.66,3.41,4.66a8.19,8.19,0,0,0,2.1-.32c-4.51,2-4.68,5.85-1.51,10.52a6,6,0,0,0,4.89,1.89c.42,0,.83,0,1.21,0l1.07,0a4.27,4.27,0,0,1,.52,0c-4.84,1.17-4.18,3-2.68,4.84a2.46,2.46,0,0,0,2,.92,21.19,21.19,0,0,0,2.85-.58s-2.84,1-1.67,4.51,4.51,3.5,5.51,3.84c0,0-2.67,1.5-2.84,4.18s.84,3.67,2.17,4.5c-2.67,0-3.87,1.82-5,3.68a1.93,1.93,0,0,0,0,2.45,3.07,3.07,0,0,0-2.12-.81c-1,0-2,.35-3.12.47-2,.23-2.56.89-2.9,1.56" fill="#7f84a5"/><path id="path144" d="M16.76,89.84s2-.78,2.8,1.89-.45,7.68-4.45,9c-3.23.56-6.13-.45-4.24-4.79s4.55-5.6,5.89-6.12" fill="#f68aca"/><path id="path146" d="M11.69,98.75h0c-1.12-.11-.56-2.11.44-3.89.63-1.13,1.31-1.67,1.72-1.67.24,0,.4.18.4.55,0,0-1.42,5-2.53,5" fill="#f1439c"/><path id="path148" d="M15.36,97.65c-1.69,0,0-4.36,0-4.36.25-.83.58-1.36.85-1.36s.39.31.48,1c.23,1.68.89,4.35-1.11,4.68l-.19,0" fill="#f1439c"/><path id="path150" d="M14.86,100.79h0l.11,0-.11,0m.14,0h0" fill="#6d6b8c"/><path id="path152" d="M10.74,96.28v0m.08-.18v0m0-.07a0,0,0,0,1,0,0,0,0,0,0,0,0,0m8.7-4.34a.49.49,0,0,0,0-.11.49.49,0,0,1,0,.11M16.48,90h0m.28-.11a2.16,2.16,0,0,1,.66-.1,2.16,2.16,0,0,0-.66.1m.77-.1h0" fill="#8e86a2"/><path id="path154" d="M13.17,100.88c-2.22-.13-3.7-1.4-2.43-4.6v0h0a.77.77,0,0,1,.07-.16v0l0,0a0,0,0,0,1,0,0s0,0,0,0a16.12,16.12,0,0,1,.75-1.5c-.76,1.66-1.81,4.53-.08,4.84,1.24,0,1.91-1.61,2.25-1.61.09,0,.16.11.2.39a1.35,1.35,0,0,0,1.44,1c1,0,2.16-.66,2.79-2.42,1-2.82.65-6.71-1.39-6.71l-.35,0h0l.24-.1h0a2.16,2.16,0,0,1,.66-.1h.11c.63,0,1.51.37,2,1.84a.49.49,0,0,1,0,.11v0a6,6,0,0,1,.22,1.71,8,8,0,0,1-3.55,6.8,1.07,1.07,0,0,0,.16-.14,8.16,8.16,0,0,1-2.8.56,3.27,3.27,0,0,1-3.24-1.77c.17,1.27,1.45,1.87,2.82,2m1.69-.09.44-.11-.19.07H15l-.11,0" fill="#f46cb2"/><path id="path156" d="M12.19,94.53c.48-1.62,2.34-4,4.07-4a1.93,1.93,0,0,1,.62.11s-2.27.23-4.69,3.85" fill="#fcd2eb"/><path id="path158" d="M13.69,100.9l-.52,0h.4a9.58,9.58,0,0,0,1.29-.1,6.36,6.36,0,0,1-1.17.11m1.61-.22a5.67,5.67,0,0,0,.93-.44,2.87,2.87,0,0,1-.93.44" fill="#602d35"/><path id="path160" d="M13.57,100.89h0m0,0h0" fill="#c33042"/><path id="path162" d="M13.57,100.89h0m0,0a9.58,9.58,0,0,0,1.29-.1h0a9.58,9.58,0,0,1-1.29.1" fill="#53262d"/><path id="path164" d="M13.57,100.89h-.4c-1.37-.12-2.65-.72-2.82-2a3.27,3.27,0,0,0,3.24,1.77,8.16,8.16,0,0,0,2.8-.56,1.07,1.07,0,0,1-.16.14,5.67,5.67,0,0,1-.93.44l-.44.11a9.58,9.58,0,0,1-1.29.1h0" fill="#bf293b"/><path id="path166" d="M57,44.84l-.49-.46-.07-.07h0A10.11,10.11,0,0,0,53,42.36a12.5,12.5,0,0,0-4.38-.75,22,22,0,0,0-9.58,2.56c3.71-2.45,7-3.36,9.66-3.36a9.74,9.74,0,0,1,8.21,4" fill="#f1f1f9"/><path id="path168" d="M57,45c-.21-.21-.42-.42-.64-.61l.1,0h0l0,0,.49.46L57,45m-.66-.67-.18-.11A10.55,10.55,0,0,0,53,42.36a10.11,10.11,0,0,1,3.33,1.94" fill="#e9eaf5"/><path id="path170" d="M56.46,44.38l-.09-.08h0l.07.07" fill="#e7e7f4"/><path id="path172" d="M56.49,44.4l-.1,0-.2-.17.18.11.09.08,0,0" fill="#e2e3f1"/><path id="path174" d="M88.7,6.17h0l-.27-.08.27.08" fill="#9c7ea8"/><path id="path176" d="M94.21,41.46c0-.45.06-.89.06-1.3h0c0-6.43-4.12-8.48-10.33-9.47h0c-.93-1-2.11-2.43-3.35-4h0c-3.39-4.36-7.19-10.09-7.2-13.13a2.39,2.39,0,0,1,.23-1.11C75,9.73,78.34,5.37,84.17,5.37a13.87,13.87,0,0,1,4.26.72h0l.27.08c-.39,0-.78,0-1.16,0-4.71,0-8.7,2.63-6.63,7.11,4.23,9.13,9.58,12.47,13.36,13.14s1.34,5.34,4.23,6.45a1.94,1.94,0,0,0,.72.15c2.47,0,3.94-5.11,3.74-8.16a5.2,5.2,0,0,0,2.22.51c3.39,0,6-3.52,2.68-7.19,6-1.61,4.8-4.67.24-6.89h0c3.48.22,6.58,1.35,7.17,4.42-.78,2-2.08,3.56-3.22,3.75-.54.09-.73.14-.73.24a3.39,3.39,0,0,1,1.12,2.5,4.32,4.32,0,0,1-.06.77C112,25.77,108.64,32,105.49,32a2.47,2.47,0,0,1-1.59-.6h0a1.93,1.93,0,0,1,.12.67c0,2.24-3.74,5.11-9.81,9.36" fill="#f365b4"/><path id="path178" d="M61.46,102.09h0a26.1,26.1,0,0,0,2.59-8.68h0a26.35,26.35,0,0,1-2.6,8.68" fill="#d3d3e0"/><path id="path180" d="M56.48,108.51h0L57,108h0c-.17.17-.35.33-.53.49" fill="#7a7d99"/><path id="path182" d="M57,108h0a22,22,0,0,0,4.45-5.93h0A21.8,21.8,0,0,1,57,108" fill="#555876"/><path id="path184" d="M64.06,93.41h0a36.57,36.57,0,0,0,.3-4.74,59.74,59.74,0,0,0-.7-8.47,48.75,48.75,0,0,1,.41,13.21" fill="#4e5378"/><path id="path186" d="M56.48,108.51l.13-.14c5.92-6.39,7.68-11.94,6.47-22.12-1.1-9.33-2.9-14.69-2.24-17a10,10,0,0,0,1.1.07,6.78,6.78,0,0,0,1.8-.23,3.24,3.24,0,0,0,1.64.55,2,2,0,0,0,.48-.06c4-1.11,3.6-7.71,4-7.71,0,0,.06,0,.1.1a3.29,3.29,0,0,1,0,2.42C81.19,61,82.47,52.87,80.78,46.29c-1.28-5,9.08-2.82,9.86-7.2s-2.66-6.41-12-8.76c1.89-.5,2.31-1.93,2-3.65,1.24,1.58,2.42,3,3.35,4h0c6.21,1,10.32,3,10.33,9.47,0,.41,0,.85,0,1.3C91.55,51.48,81.86,64,68.83,68.35a4.06,4.06,0,0,1-3.77,2.39,3.43,3.43,0,0,1-2.41-.89s0,.14,0,.48h0a75.71,75.71,0,0,0,1,9.87h0a59.74,59.74,0,0,1,.7,8.47,38.39,38.39,0,0,1-.29,4.74,26.35,26.35,0,0,1-2.6,8.68A22,22,0,0,1,57,108l-.53.49" fill="#7f84a5"/><path id="path188" d="M83.94,30.69c-.93-1-2.11-2.43-3.35-4h0c1.24,1.58,2.42,3,3.35,4" fill="#c8529b"/><path id="path190" d="M62.82,61.5s-2.51,3.84-5,5.34C56,68,61,70.19,64.32,68.85s3.51-2.67,2.51-4.85-3.68-3-4-2.5" fill="#ede9c6"/><path id="path192" d="M39.17,41.77a3.71,3.71,0,0,1,.66-.55,4.61,4.61,0,0,1,3-.51,3.72,3.72,0,0,1,1.33.6,6,6,0,0,0-2-.36,5.88,5.88,0,0,0-3,.82" fill="#f1f1f9"/><path id="path194" d="M39.83,41.22a3.78,3.78,0,0,1,2.09-.62,4.19,4.19,0,0,1,.95.11,4.61,4.61,0,0,0-3,.51" fill="#e3e3f2"/><path id="path196" d="M61.57,39.43A3.42,3.42,0,0,1,62,38.22,6.59,6.59,0,0,1,66,35.61a6.3,6.3,0,0,1,.75,0,4.08,4.08,0,0,1,1.36.21l-.51,0c-3.91,0-6.07,3.68-6.07,3.68" fill="#f1f1f9"/><path id="path198" d="M62,38.22A5.66,5.66,0,0,1,66,35.61,6.59,6.59,0,0,0,62,38.22" fill="#e3e3f2"/><path id="path200" d="M61.94,69.27c-2.31,0-4.53-1-4.53-1.86a.73.73,0,0,1,.4-.57,19.26,19.26,0,0,0,4.71-4.9,2.5,2.5,0,0,0,0,.48,4.26,4.26,0,0,1-3.31,4.37c-1.48.23.68,1.49,3,1.49a4.79,4.79,0,0,0,2.51-.64c2.21-1.36,1.85-3.59.75-5.31A4.78,4.78,0,0,1,66.83,64a4.69,4.69,0,0,1,.53,1.93c0,1.14-.82,2-3,2.92a6.35,6.35,0,0,1-2.38.42" fill="#dad297"/><path id="path202" d="M63.24,62.09a5.52,5.52,0,0,1-3.76,5.07c4.7-.27,4.83-4.64,3.76-5.07" fill="#fff"/><path id="path204" d="M52.13,53.32C48.47,50.11,41.6,50,40.44,50h-.17a7,7,0,0,1,3-.55c3.52,0,8.08,1.53,8.83,3.9" fill="#f1f1f9"/><path id="path206" d="M44.84,64.81a15.37,15.37,0,0,0-6.73-1.46,16.38,16.38,0,0,0-3.82.42,10.18,10.18,0,0,1,4.78-1.17,7.88,7.88,0,0,1,5.77,2.21" fill="#f1f1f9"/><path id="path208" d="M48,76.85A12,12,0,0,0,44,76c-.63,0-1.27-.06-1.86-.06a32.28,32.28,0,0,0-3.33.17,11.52,11.52,0,0,1,4.19-.9,9.07,9.07,0,0,1,5,1.63" fill="#f1f1f9"/><path id="path210" d="M48.08,76.93A11.56,11.56,0,0,0,44,76a12,12,0,0,1,4,.84l.12.08" fill="#e9eaf5"/><path id="path212" d="M44.7,124.81s4.24,1.11,4.45.28c0,0,3.4,1.13,6-1,2.35,1.25,6-.67,4.27-3.5s-6.52-4.18-6,.58c-2.59-3.34-5.93-3.51-5.51.83-2.67-3.26-5.92-3.82-3.17,2.77" fill="#dddcec"/><path id="path214" d="M102.89,118s.44-4.42,1.81-4.32,2.44,4.28,2.44,4.28.91-3.34,3.11-3.58c1.64-.13,2.51,2.88,2.51,2.88s.14-2.17,1.38-2.31,2.87,2.18,3.07,5.42c-3,.54-10.31.8-14.32-2.37" fill="#dddcec"/><path id="path216" d="M150,44.06c-3.21-31.12-21.2-31.74-22.62-31.74h-.09c.58-.05,1.15-.07,1.72-.07,14.63,0,22.92,16.37,21,31.81" fill="#f1f1f9"/><path id="path218" d="M81.93,100.14c-.31,0-.43-.52-.12-1.62,1.33-4.9,1.55-14,1.55-14,3.11,9.5-.34,15.65-1.43,15.65" fill="#f1f1f9"/><path id="path220" d="M76.69,115.26c-.3,0-.31-.4.17-1.23a79.86,79.86,0,0,0,3.6-8.2c.21-.46.38-.67.49-.67.44,0,.17,2.91-1.09,6.07-1,2.61-2.6,4-3.17,4" fill="#f1f1f9"/><path id="path222" d="M69.69,119.49c1.74-3.21,3.36-6.35,4.72-9.4h0c-1.36,3-3,6.18-4.72,9.39m59.55-30.88v0m0-.07c0-.67-.09-1.37-.1-2.09,0,.72.05,1.42.1,2.09" fill="#bcbcd1"/><path id="path224" d="M98.82,131.94c-1.27-1.56-7.36-3.28-13.95-4.83-.06-3.59-2.32-5.77-3.61-5.77h0c-.83,0-1.69,1.15-2.21,2h0c-.3.46-.48.83-.49.84h0c-.31-2.06-1.18-4.61-3-4.73H75.4a2,2,0,0,0-1.31.5h0a3.51,3.51,0,0,0-.65.76,4.3,4.3,0,0,0-.45.92s.13-2.06-1.3-2.43h0a1.24,1.24,0,0,0-.27,0H71.2A4.6,4.6,0,0,0,69,121c.21-.45.46-.94.74-1.46h0c1.75-3.21,3.36-6.35,4.72-9.39a8.46,8.46,0,0,1-.4,1.34c-1.5,3.86-1.39,6.5-.42,6.5a.61.61,0,0,0,.3-.08,2.56,2.56,0,0,1,1.07-.22A3.84,3.84,0,0,1,78,119.39a2,2,0,0,0,1.85,1.08c.49,0,1-.11,1.65-.11,1.46,0,3,1.36,4.27,3.7s2.58,2.63,7.37,4.19a10.34,10.34,0,0,0,3.16.62c2.83,0,4.53-2.13,5.42-8.41,1.16-8.35,1.83-21.38.33-32.4-.25-2-.23-2.71-.07-2.71.38,0,1.55,4.05,1.9,6.38.23,1.46,1.71,2.26,4,2.26,4.53,0,12.23-3.08,19.76-10.17C139,73.14,141.58,66.06,142.6,58.66c.17-1.25.35-1.8.48-1.8.55,0,.23,9.53-5.16,17.61-4.23,6.35-8,11.62-8.24,17.29a27.48,27.48,0,0,1-.44-3.15v-.07c0-.67-.09-1.37-.1-2.09v-.06h0s-2,1.87-3.83,3.41A4.35,4.35,0,0,0,124.15,91h0L124,91c-3.19,3.19-14.49,7.53-20,7.87h0c.06,1.44.08,2.82.08,4.13a89,89,0,0,1-.89,13,16.5,16.5,0,0,0-.33,2h0s0,.68,0,1.76c0,3.27-.46,10.12-4.12,12.22" fill="#72769a"/><path id="path226" d="M82.32,126.53l-5.86-1.29-.15,0-.12,0-.17,0h0l-.52-.1c2,.33,4.2.81,6,1.27h0l.28.07.4.11.13,0M68.2,125.22h0l0,0a4.38,4.38,0,0,1,2.6-.6,5.84,5.84,0,0,0-2.63.62" fill="#72769a"/><path id="path228" d="M102.89,118h0a16.5,16.5,0,0,1,.33-2h0c-.19,1.28-.33,2-.33,2" fill="#9d9ebd"/><path id="path230" d="M76.46,125.24c-4.67-1-7.06-.71-8.26,0,.53,1.61,2.41,2.61,5.41,4.08,8.68,3.78,19.75,5.32,24.94,2.8l.27-.16c-1.82-2.24-13.46-4.77-22.36-6.7" fill="#f68aca"/><path id="path232" d="M68.5,121.59s1.75-2.81,3.18-2.43,1.3,2.43,1.3,2.43.75-2.31,2.55-2.18,2.68,2.67,3,4.73c0,0,1.43-2.8,2.74-2.8s3.61,2.24,3.61,5.91c-3.61-1.12-14.6-3.87-16.67-2a4,4,0,0,1,.3-3.63" fill="#dddcec"/><path id="path234" d="M91.65,133.33a48.25,48.25,0,0,1-18-4c-3-1.47-4.88-2.47-5.41-4.08h0a5.84,5.84,0,0,1,2.63-.62h.89a32.25,32.25,0,0,1,3.73.42l1,.2,5.86,1.29.64.17h0l.19.05h0l.63.18h0l.11,0H84l.06,0,.09,0h0l.06,0h.08l.06,0,0,0,.22.06h0l.08,0h0l0,0h0v-.14c6.59,1.55,12.68,3.27,13.95,4.83l-.27.16a16.21,16.21,0,0,1-6.9,1.23M73,126.08c-4.25,0,2.8,3.69,9.15,5.11a45.91,45.91,0,0,0,9.11,1.11c3,0,4.28-.62,1.08-2.12-5.86-2.75-18.28-4-18.28-4-.41,0-.76-.06-1.06-.06" fill="#f365b4"/><path id="path236" d="M140.31,97.86c-1.06,0-6.14-4.07-3.95-9.8a12.56,12.56,0,0,0,3.35,8.46c.86.92.94,1.34.6,1.34" fill="#f1f1f9"/><path id="path238" d="M153.29,106.49a11.43,11.43,0,0,1-4.23-.84c-4.89-2-5.15-3.91-3.78-3.91a2.2,2.2,0,0,1,.66.12s5.57,3.12,9.35,3.12c2.74,0,1.18,1.51-2,1.51" fill="#f1f1f9"/><path id="path240" d="M34.62,113.25c-5.73,0-12.89-2.58-15.84-8.94a21.07,21.07,0,0,0,16.95,8.08,26.21,26.21,0,0,0,5.1-.51,12.61,12.61,0,0,1-6.21,1.37" fill="#f1f1f9"/><path id="path242" d="M53.33,125.09a2.73,2.73,0,0,0,1.34-1.49,2.83,2.83,0,0,0,1.88.7,3,3,0,0,0,1.39-.34,2.29,2.29,0,0,0,.75-3.26,4.15,4.15,0,0,0-3.15-1.94,2,2,0,0,0-.69.12c-1.47.51-.92,2.61-1.12,3.84-1.26-.91-1.94-3-3.66-3l-.37,0c-1.84.29-1.34,2.33-1.44,3.74a25.63,25.63,0,0,0-3.4-3.43,4.46,4.46,0,0,0-.61-.36,1,1,0,0,1,.31,0c.83,0,2.13.91,3.31,2.35h0c0-.25,0-.48,0-.7,0-1.78.75-2.6,1.81-2.6s2.49.87,3.73,2.47h0c0-.24,0-.46,0-.67,0-1.77.89-2.48,2-2.48a5.36,5.36,0,0,1,4,2.57,2.73,2.73,0,0,1,.46,1.45c0,1.46-1.54,2.44-3.11,2.44a3.48,3.48,0,0,1-1.55-.35l-.07,0h0a5.44,5.44,0,0,1-1.8,1" fill="#bbb9d6"/><path id="path244" d="M71.68,119.16a1.27,1.27,0,0,0-.28,0h0a1.24,1.24,0,0,1,.27,0" fill="#5f628c"/><path id="path246" d="M72.62,122a7.08,7.08,0,0,0-1.51-2.87l.09,0h.2a1.27,1.27,0,0,1,.28,0h0c1.26.33,1.31,2,1.3,2.35a4.8,4.8,0,0,0-.36.52" fill="#bbb9d6"/><path id="path248" d="M68.2,125.22a3.89,3.89,0,0,1-.27-1h0a4,4,0,0,0,.27,1h0" fill="#dddcec"/><path id="path250" d="M81.48,126.31c-1.83-.46-4-.94-6-1.27h0c2,.33,4.2.81,6,1.27M68.23,125.2a4.38,4.38,0,0,1,2.6-.6h0a4.38,4.38,0,0,0-2.6.6m10.29-1.06s.19-.38.49-.84h0c-.3.46-.48.83-.49.84m2.71-2.8h0m0,0h0m-7.81-.67a3.51,3.51,0,0,1,.65-.76,3.51,3.51,0,0,0-.65.76m.65-.76h0" fill="#5f628c"/><path id="path252" d="M84.87,127.11l-2.55-.58-.13,0-.4-.11-.28-.07h0c-1.83-.46-4-.94-6-1.27h0a22.2,22.2,0,0,0-4.1-.45h-.52a4.38,4.38,0,0,0-2.6.6l0,0h0a4,4,0,0,1-.27-1,10.73,10.73,0,0,1,1.4-.2l.64,0a20.75,20.75,0,0,1,2.94.28,22.17,22.17,0,0,0,2.92.27,8.23,8.23,0,0,0,1.56-.14l.13-.16a3.85,3.85,0,0,0-2-3.56,1.81,1.81,0,0,0-.76-.17,2.37,2.37,0,0,0-1.73.94,5.83,5.83,0,0,1,.4-.78,3.51,3.51,0,0,1,.65-.76h0a2,2,0,0,1,1.31-.5h.13c1.81.12,2.68,2.67,3,4.73h0s.19-.38.49-.84a5.39,5.39,0,0,0,.21.86,2.28,2.28,0,0,0,2.37,1.24,6.23,6.23,0,0,0,.77-.05c1.1-.16,1.29-1.66.55-2.55a2.86,2.86,0,0,0-2.36-1.08h-.21a1.72,1.72,0,0,1,.88-.39h0c1.29,0,3.55,2.18,3.61,5.77" fill="#bbb9d6"/><path id="path254" d="M84.83,127.24l0,0,0,0m-.09,0-.08,0,.08,0m-.1,0-.22-.06.22.06m-.27-.08-.06,0,.06,0m-.09,0h0m0,0-.06,0,.06,0m-.07,0-.09,0,.09,0M84,127h0m-.18,0h0m-.64-.18h0m-.2-.05h0M75.45,125a32.25,32.25,0,0,0-3.73-.42,32.25,32.25,0,0,1,3.73.42h0m-3.84-.43h0m-.78,0h0" fill="#d256a3"/><path id="path256" d="M84.87,127.25h0l0,0h0l-.08,0h0l-.22-.06,0,0-.06,0h-.08l-.06,0h0l-.09,0L84,127H84l-.11,0h0l-.63-.18h0l-.19-.05h0l-.64-.17,2.55.58v.14M75.45,125a32.25,32.25,0,0,0-3.73-.42h-.37a22.2,22.2,0,0,1,4.1.45" fill="#b58fbe"/><path id="path258" d="M116.12,120.49c.41,0,.77-.1,1.09-.16h0c-.32.06-.68.11-1.09.16m-2-5.58h0m.11,0h0m-4-.57h0m.12,0h0m-6-.62h0m0,0h0m0,0h0m0,0h0m0,0a.63.63,0,0,1,.27-.06h0a.66.66,0,0,0-.27.06" fill="#595c7d"/><path id="path260" d="M113,120.66c.42-.07.84-.15,1.26-.26a2,2,0,0,0,1.55-1.29c.19-.62-.37-1.37-.72-1.83a1.32,1.32,0,0,0-.9-.6.65.65,0,0,0-.32.09c-.65.41-.68,1.2-1.06,1.78-.81-1.13-1.53-2.55-3.09-2.63h-.1c-1.49,0-1.8,1.84-2.46,2.88-1-1-1.54-2.46-2.65-3.42a1.48,1.48,0,0,0-1-.43h0a2.31,2.31,0,0,1,.8-1.21h0a.66.66,0,0,1,.27-.06h0c1.37.1,2.44,4.28,2.44,4.28s.91-3.34,3.11-3.58h.12c1.56,0,2.39,2.88,2.39,2.88s.14-2.17,1.38-2.31h.11c1.22,0,2.77,2.28,3,5.42-.32.06-.68.11-1.09.16a28.13,28.13,0,0,1-3.11.17" fill="#bbb9d6"/><path id="path262" d="M168.19,105.84h0c.15-.42.27-.77.35-1v0c-.08.26-.2.63-.36,1.06" fill="#dddcec"/><path id="path264" d="M161.27,112a10.45,10.45,0,0,0-3.64-1.22h0a10.45,10.45,0,0,1,3.64,1.22m-4.54-.83h0m0,0,0,0,0,0m0,0h0m0,0a1.05,1.05,0,0,1,.86-.33,1.05,1.05,0,0,0-.86.33m4.64-3.19a2.84,2.84,0,0,1,1.69-.53,2.84,2.84,0,0,0-1.69.53m1.72-.53h0m1.94-2.38,0,0,0,0m0-.05a2.88,2.88,0,0,1,2.24-.76,2.88,2.88,0,0,0-2.24.76m3.43-.14c.1-.32.15-.5.15-.5h0s0,.17-.14.46v0m-1.16-.62h0" fill="#868aac"/><path id="path266" d="M162,112.74c-1.45-.23-2.81-.9-4.3-1h-.2a2.26,2.26,0,0,0-.82.15.89.89,0,0,1,.09-.72h0l0,0h0a1.05,1.05,0,0,1,.86-.33h0a10.45,10.45,0,0,1,3.64,1.22l.09,0h0a6.23,6.23,0,0,1-.67-2.48,2,2,0,0,1,.67-1.61l0,0a2.84,2.84,0,0,1,1.69-.53h0a5.45,5.45,0,0,1,2,.46h0a3.32,3.32,0,0,1-.47-1.61,2,2,0,0,1,.36-1.2l0,0,0,0,0,0a2.88,2.88,0,0,1,2.24-.76h0a7.33,7.33,0,0,1,1.31.12s-.05.18-.15.5h0c-.08.25-.2.6-.35,1a1.24,1.24,0,0,0-1.14-1,1.55,1.55,0,0,0-.49.09c-1.48.5-.83,2.27-.9,3.45a5.11,5.11,0,0,0-2.28-.62,2.46,2.46,0,0,0-1.47.43c-1.51,1.11.33,3.09.05,4.5" fill="#bbb9d6"/><path id="path268" d="M69.34,123.63c-.24,0-.83-.85-.46-1.74a5.19,5.19,0,0,1,1.59-2.12s.06.06,0,.18-1.6,1.94-1.12,3.18c.12.35.08.5,0,.5" fill="#f8f9fd"/><path id="path270" d="M160.38,114.17a1.55,1.55,0,0,1-.64-.14c-1.14-.51-2.31-1.67-2-1.67l.14,0a5.29,5.29,0,0,0,2.67,1.27,1.45,1.45,0,0,0,.47-.08,1.13,1.13,0,0,1,.34-.07c.23,0,.19.17,0,.33a1.56,1.56,0,0,1-1,.32" fill="#f8f9fd"/><path id="path272" d="M163.9,112.06a1.59,1.59,0,0,1-1.23-.58c-.76-.94-1.26-2.42-1.07-2.42,0,0,.07,0,.13.1s.94,2.32,2.26,2.5c.73.12.45.4-.09.4" fill="#f8f9fd"/><path id="path274" d="M166.93,107.74a.8.8,0,0,1-.64-.3c-.4-.49-.66-1.26-.56-1.26a.15.15,0,0,1,.07.06s.49,1.2,1.18,1.29c.37.06.23.21,0,.21" fill="#f8f9fd"/><path id="path276" d="M73.77,124a1.54,1.54,0,0,1-.67-1.53,2.57,2.57,0,0,1,1-1.53s.06,0,0,.16-1.06,1.37-.46,2.49c.15.29.15.41.07.41" fill="#f8f9fd"/><path id="path278" d="M80.29,124.91a1.53,1.53,0,0,1-.67-1.53,2.57,2.57,0,0,1,1-1.52c.05,0,.07,0,0,.15s-1,1.37-.46,2.49c.15.29.15.41.08.41" fill="#f8f9fd"/><path id="path280" d="M45.47,124.3a3.06,3.06,0,0,1-1.13-3.83,15,15,0,0,0,1.1,3.55c.12.19.11.28,0,.28" fill="#f8f9fd"/><path id="path282" d="M50.06,124.6a3,3,0,0,1-1.13-3.82,15,15,0,0,0,1.1,3.54c.12.19.11.28,0,.28" fill="#f8f9fd"/><path id="path284" d="M55.75,123.5a3,3,0,0,1-1.13-3.82,14.82,14.82,0,0,0,1.1,3.54c.12.19.11.28,0,.28" fill="#f8f9fd"/><path id="path286" d="M103.62,118.33c-.22,0-.81-1.6.4-2.85a12.73,12.73,0,0,0-.33,2.61c0,.17,0,.24-.07.24" fill="#f8f9fd"/><path id="path288" d="M108.42,119.52c-.22,0-.81-1.6.4-2.85a13.52,13.52,0,0,0-.33,2.61c0,.17,0,.24-.07.24" fill="#f8f9fd"/><path id="path290" d="M113.74,120c-.22,0-.81-1.6.41-2.86a13.39,13.39,0,0,0-.34,2.62c0,.17,0,.24-.07.24" fill="#f8f9fd"/></g></g></g></g></svg>