<svg xmlns="http://www.w3.org/2000/svg" viewBox="0 0 119.15 133.33"><title>Lion</title><g id="Layer_2" data-name="Layer 2"><g id="svg2"><g id="g10"><g id="g12"><path id="path8034" d="M111.43,55.15c3.35-4.7,1.09-11.52-3-16.41S95.91,24.81,95.91,24.81l6.22,14.66s6,2.24,8.08,8-.75,7.23-5.32,13.82S104,72.42,104,72.42a2.25,2.25,0,0,1,.69-1.64c-2.63-5.51,3.35-10.92,6.7-15.63" fill="#ca661d"/><path id="path8036" d="M115.31,79.12c1,.42,2.76-.64,2.23-1.81-1.06,1.28-2.44-.32-2.55-1.38s0-2.55-3.08-4-4.23-3-7.18-1.11a2.25,2.25,0,0,0-.69,1.64c-.29.28-.55.56-.79.83-2.91,3.37-2.07,6.85.68,8.42,3,1.7.43,3.72.43,3.72a2.93,2.93,0,0,0,2.55-.53c-.64,3.83,1.59,3.51,4.36,4.35s3.51,2.45,1.91,5.75c6.8-6.38,4.25-11.38,4.25-11.7s1.07,1,1.07,1a3.18,3.18,0,0,0,.63-1.49c.11-.85-.1-1.06-3.82-3.61" fill="#732318"/><path id="path8038" d="M106.75,36.72h0c-.76-.88-1.59-1.82-2.44-2.77.86,1,1.69,1.9,2.46,2.78" fill="#ca661d"/><path id="path8040" d="M105.9,59.85c4-5.42,6.27-7.1,4.31-12.41h0a14.67,14.67,0,0,0-7.36-7.65c-.82-5.58-3.61-9.23-5.45-12.54-.44-.79-.88-1.55-1.32-2.27.83.89,4.69,5,8.21,9,.85,1,1.68,1.89,2.44,2.77-1-1-2.67-2.54-3.54-2.54-.33,0-.53.23-.53.8,0,2.71,2,2.58,4.62,5.84s9.11,8.83-.55,18.22l-.83.82" fill="#a02b1f"/><path id="path8042" d="M104.73,70.78a7.64,7.64,0,0,1,.87-.47,7.64,7.64,0,0,0-.87.47" fill="#b88a76"/><path id="path8044" d="M113.18,95A6.81,6.81,0,0,0,114,92.1c0-1.46-.94-2.33-2.74-2.89-2.44-.74-4.47-.58-4.47-3.17a7.84,7.84,0,0,1,.11-1.18h0a3.53,3.53,0,0,1-1.91.63,1.81,1.81,0,0,1-.64-.1,2.73,2.73,0,0,0,1-1.82c0-.6-.35-1.27-1.45-1.9a4.71,4.71,0,0,1-2.5-4.14,6.65,6.65,0,0,1,1.82-4.28c.24-.27.5-.55.79-.83a2.25,2.25,0,0,1,.69-1.64h0a7.64,7.64,0,0,1,.87-.47l.28-.12a3,3,0,0,0-.08,3.34,1.4,1.4,0,0,0-.41-.06A2.83,2.83,0,0,0,105,79c3.87,1.58,1.94,3.52,1.94,3.52a2.33,2.33,0,0,0,.92.2c.81,0,1.86-.51,1.86-3.11.8,1.26,1.51,1.76,2.11,1.76,1.47,0,2.23-3.07,1.88-5.39,1,1.24,1.6,2.47,2.61,2.47a2.34,2.34,0,0,0,1.34-.56,1.89,1.89,0,0,1-1.83,1.36,1.09,1.09,0,0,1-.48-.1h0c3.31,2.27,3.84,2.69,3.84,3.35a2.46,2.46,0,0,1,0,.26,3.18,3.18,0,0,1-.63,1.49s-.84-1-1-1a0,0,0,0,0,0,.05h0A8.8,8.8,0,0,1,117.9,86c0,2.13-.83,5.33-4.72,9" fill="#501914"/><path id="path8046" d="M114,75.63c-.11,0-.33-.19-.65-.64-1.88-2.71-5.4-2.81-5.93-2.81h-.07a5.5,5.5,0,0,1,2.2-.5,4.68,4.68,0,0,1,3.72,2c.75,1,1,2,.73,2" fill="#b63b20"/><path id="path8048" d="M112.93,51.43a12.26,12.26,0,0,0-.36-5,9.7,9.7,0,0,1,.36,5" fill="#ca661d"/><path id="path8050" d="M110.38,55.7c5.68-7.91-1.18-14.62-1.64-15.05a14.08,14.08,0,0,1,3.83,5.74,12.26,12.26,0,0,1,.36,5,7.33,7.33,0,0,1-2.55,4.27m-1.64-15.05s0,0,0,0l0,0" fill="#f2aa0e"/><path id="path8052" d="M74.91,22.63A13.26,13.26,0,0,1,84,15c3.18-.8,8.76,3.83,13.39,12.28,4,7.17,12.43,15.94-4.31,42.41C89.75,73.49,89.27,76,90.38,78s1.51,6.68-3.24,13.8c-3,4.24-4.62,5.56-3.1,7.65,1.65,2.27,2.69,7.74-2.27,8.67-1.34,1.24-6.19,1.76-7.64.51-1.86.83-4.55-1.55-3.92-5.16s1.85-3.51,4.74-5.57,5-2.89,5.48-10.54-.93-9.18-.93-9.18-2.89,2.16-4.65,2.27,1.76-7.75,1.76-7.75,28.12-25.31-1.7-50" fill="#ca661d"/><path id="path8054" d="M83.46,97.86c0-1.43,1.47-3,3.68-6.11.27-.4.52-.8.76-1.19-.23.39-.49.79-.76,1.19-2.21,3.14-3.68,4.68-3.68,6.11" fill="#e3b26f"/><path id="path8056" d="M81.8,108.07h0m0,0h0m-4.6-.71H77c-2.19-.09-3.24-2.17-3-4.55l.06-.15.15-.45c.07-.13.13-.27.2-.4l.09-.21.12-.18a3.28,3.28,0,0,1,.22-.37c.16-.22.31-.45.47-.63s.32-.35.45-.5.28-.27.39-.36l.25-.23.1-.07-.11,0-.32.16a4.12,4.12,0,0,0-.46.27,4.85,4.85,0,0,0-.56.44,5.47,5.47,0,0,0-.59.59c-.1.12-.18.24-.28.37l-.14.19-.13.22c-.07.14-.16.28-.24.43h0c-1.82,2.31-1.24,4.94-2,4.94a.8.8,0,0,1-.4-.16c-1.24-.83-.87-3.84-.73-4.76v0c.7-2.22,2-2.41,4.41-4.16,2.89-2.07,5-2.89,5.48-10.54.08-1.15.11-2.16.11-3,0-5-1-6.13-1-6.13a16,16,0,0,1-3.73,2.07,37.79,37.79,0,0,0,1.14-3.92c2.93-1.86,3.31-4.17,3.31-5.23h0a3.64,3.64,0,0,0,0-.59h0c.15.18,1.54,1.82,2.65,1.85h0a1,1,0,0,0,.58-.19h0a2.82,2.82,0,0,1-.6-1.55c0-1,.9-2.2,3.63-4.35A8.79,8.79,0,0,0,90.29,59h0a11.67,11.67,0,0,0-1.44-5.43h0a3.7,3.7,0,0,0,1.22.2h0a3.07,3.07,0,0,0,2.54-1.28h0a.76.76,0,0,0,.08-.11h0c-2.4-.52-3.48-1.75-3.47-3.74a11.48,11.48,0,0,1,.94-4,11,11,0,0,0,1-4.3c0-3.13-1.81-6.59-6.74-12.61A36,36,0,0,0,78.39,22a3.52,3.52,0,0,0,1.52-2.37h0v0h0a13.4,13.4,0,0,0-.27-2.66A12.9,12.9,0,0,1,84,15a2.94,2.94,0,0,1,.74-.09c2.9,0,7.26,3.6,11.19,9.89l0,0s-5.48-7.73-9.57-7.73a2.77,2.77,0,0,0-1.7.56c-4,3,11.1,9.76,8.91,23.22-1,7.06-1.51,10.59,1,10.59s0,3.36-1.85,3.53,0,3.87-2.18,9.93c3-1.52,7.56-11.44,7.9-18.34,0-.9.15-1.31.26-1.31.6,0,1.2,14.13-9,25.19-4.38,5.38-6.23,5.56-5.89,9.42s-1,8.75-2.69,12.28c-.83,1.74-.23,3.11,1.12,3.11S85.79,93.81,88,89.8a5.83,5.83,0,0,1,1.2-1.63c-.37.76-.8,1.56-1.31,2.39-.24.39-.49.79-.76,1.19-2.21,3.14-3.68,4.68-3.68,6.11A2.65,2.65,0,0,0,84,99.4a7.15,7.15,0,0,1,1.11,2.44c.43,2.12,0,3.75-1,3.83h-.08c-.81,0-.81-1.14-1.14-2.62a2.11,2.11,0,0,0,0-.25,2,2,0,0,0,0-.43c0-.14-.05-.28-.08-.41a5.22,5.22,0,0,0-.23-.76l-.13-.34-.16-.31a3.33,3.33,0,0,0-.33-.5,2.16,2.16,0,0,0-.29-.35,2.29,2.29,0,0,0-.3-.25l.05.08.15.25c.06.11.12.24.19.39s.13.33.2.53l.09.31.08.33a7.13,7.13,0,0,1,.13.72l.06.55c-.12,3.56-2.81,4.74-5.1,4.74" fill="#b5461f"/><path id="path8058" d="M50.2,89.44s3.65,6.09,2.52,8.27c-.54,1-1,.75-1.53.47s-1.37-.63-2.56.84c-.87-1-1.83-.61-2.61.17-1.39-2-4.43,1.48-3.75,4.79.87,4.21,4.26,5.73,5.43,4.77a1.71,1.71,0,0,0,2-.49c2,1.17,7.87.14,8.56-5,.34-4.28-1.66-5.73-1.31-8s.83-6.77.06-8.64L50.2,89.44" fill="#ca661d"/><path id="path8060" d="M52.73,97.7h0m0,0h0m0,0h0m0,0a2.91,2.91,0,0,0,.16-1.62v0h0a2.89,2.89,0,0,1-.16,1.59m-.45-3.9a29.12,29.12,0,0,0-1.57-3.41,29.12,29.12,0,0,1,1.57,3.41h0m-1.58-3.41h0" fill="#e3b26f"/><path id="path8062" d="M46,106h-.16c-1-.13-1.24-1.79-1.22-3.13,0-.13,0-.26.07-.4.08-.31.15-.61.25-.89a8.32,8.32,0,0,1,.3-.8A12.35,12.35,0,0,1,46,99.19s-.13.12-.34.36a7.36,7.36,0,0,0-.77,1.07,8.34,8.34,0,0,0-.56,1.12c-.54.9-1.38,2.69-.6,4.26-.81-.15-1.27-1.22-1.53-2.32l.05.3a5.54,5.54,0,0,1-.1-1c0-2.29,1.56-4.39,2.84-4.39a1.22,1.22,0,0,1,1,.59,2.21,2.21,0,0,1,1.48-.79,1.47,1.47,0,0,1,1.13.62c.69-.85,1.23-1.1,1.69-1.1a1.93,1.93,0,0,1,.87.26,1.76,1.76,0,0,0,.72.26c.26,0,.52-.18.81-.73h0a2.89,2.89,0,0,0,.16-1.59c.28,1,.81,1.55,1.32,1.55.7,0,1.37-1,1.37-3,0-3.08-.14-5.08-1.56-5.08a2.45,2.45,0,0,0-.85.18c-2.21.83-.83,4.06-.83,4.06l-.06,0a29.12,29.12,0,0,0-1.57-3.41h0l-.13-.24a27,27,0,0,1,6.16-2.67l.49-.15a12,12,0,0,1,.2,2.38A40.13,40.13,0,0,1,57,95.21a3.35,3.35,0,0,0,0,.54,7.94,7.94,0,0,0,.65,2.6c.4,4.41-3.56,6.7-6.36,7.43A5,5,0,0,1,50,106c-1.81,0-2.46-1.5-2.7-4.14a9.17,9.17,0,0,1,1.06-2.41c.15-.25.24-.38.24-.38a2.82,2.82,0,0,0-.34.3,6.11,6.11,0,0,0-.78.94,5.57,5.57,0,0,0-1,3.59c0,.12,0,.23,0,.35.08,1,.22,1.81-.53,1.81" fill="#b5461f"/><path id="path8064" d="M46,99.19a12.35,12.35,0,0,0-.78,1.59,8.32,8.32,0,0,0-.3.8c-.1.28-.17.58-.25.89a8,8,0,0,0-.14,1,4.78,4.78,0,0,0,0,1,4.29,4.29,0,0,0,.07.5c.05.15.08.32.14.47s.12.3.19.45a2.78,2.78,0,0,0,.22.42,3.3,3.3,0,0,0,.26.39,2.39,2.39,0,0,0,.28.35l.29.33.28.29c.2.16.38.33.55.46s.31.26.44.35a4.23,4.23,0,0,1,.4.29l-.46-.18a5,5,0,0,1-.52-.26,4.39,4.39,0,0,1-.63-.38,2.88,2.88,0,0,1-.35-.26,3.27,3.27,0,0,1-.35-.3,5,5,0,0,1-.66-.77,4.34,4.34,0,0,1-.28-.46,2.94,2.94,0,0,1-.23-.51,4.88,4.88,0,0,1-.18-.54,5.48,5.48,0,0,1-.1-.56,5.34,5.34,0,0,1,0-1.13,6.86,6.86,0,0,1,.21-1.06,7.23,7.23,0,0,1,.76-1.72,7.36,7.36,0,0,1,.77-1.07c.21-.24.34-.36.34-.36" fill="#732318"/><path id="path8066" d="M48.63,99s-.09.13-.24.38a8.37,8.37,0,0,0-.56,1,8.89,8.89,0,0,0-.55,1.54,6.61,6.61,0,0,0-.15.89,4.82,4.82,0,0,0,0,.93,4.55,4.55,0,0,0,.15.91,7.22,7.22,0,0,0,.28.86c.13.27.25.53.39.76a2.8,2.8,0,0,0,.21.34l.21.32a6.62,6.62,0,0,0,.4.53l.32.4.3.35L49,108c-.12-.09-.26-.19-.42-.33s-.32-.29-.5-.47a6.34,6.34,0,0,1-1-1.41,5.46,5.46,0,0,1-.37-.93,5.85,5.85,0,0,1-.19-1,6,6,0,0,1,0-1,6.18,6.18,0,0,1,1.77-3.49,2.82,2.82,0,0,1,.34-.3" fill="#732318"/><path id="path8068" d="M58.26,101.22a11.62,11.62,0,0,0-.69-2.87h0a11.08,11.08,0,0,1,.69,2.87h0" fill="#ca661d"/><path id="path8070" d="M46.81,109c-1.49,0-3.83-1.65-4.54-5h0l-.05-.3c.26,1.1.72,2.17,1.53,2.32-.78-1.57.06-3.36.6-4.26-.07.19-.14.39-.2.6a6.86,6.86,0,0,0-.21,1.06,5.34,5.34,0,0,0,0,1.13,5.48,5.48,0,0,0,.1.56,4.88,4.88,0,0,0,.18.54,2.94,2.94,0,0,0,.23.51,4.34,4.34,0,0,0,.28.46,5,5,0,0,0,.66.77,3.27,3.27,0,0,0,.35.3,2.88,2.88,0,0,0,.35.26,4.39,4.39,0,0,0,.63.38,5,5,0,0,0,.52.26l.46.18h0a1.41,1.41,0,0,1-.89.28m1.6-.15a2.19,2.19,0,0,1-.71-.13h0a4.23,4.23,0,0,0-.4-.29c-.13-.09-.27-.21-.44-.35s-.35-.3-.55-.46l-.28-.29-.29-.33a2.39,2.39,0,0,1-.28-.35,3.3,3.3,0,0,1-.26-.39,2.78,2.78,0,0,1-.22-.42c-.07-.15-.13-.3-.19-.45s-.09-.32-.14-.47a4.29,4.29,0,0,1-.07-.5,4.78,4.78,0,0,1,0-1c0-.19,0-.39.07-.58,0,1.34.18,3,1.22,3.13H46c.75,0,.61-.77.53-1.81,0,.23.09.46.15.68a5.46,5.46,0,0,0,.37.93,6.34,6.34,0,0,0,1,1.41c.18.18.34.34.5.47s.3.24.42.33l.38.25h0l-.3-.35-.32-.4a6.62,6.62,0,0,1-.4-.53l-.21-.32a2.8,2.8,0,0,1-.21-.34c-.14-.23-.26-.49-.39-.76a7.22,7.22,0,0,1-.28-.86,4.55,4.55,0,0,1-.15-.91,4.82,4.82,0,0,1,0-.93,6.61,6.61,0,0,1,.15-.89l0-.17c.24,2.64.89,4.14,2.7,4.14a5,5,0,0,0,1.18-.17c2.8-.73,6.76-3,6.36-7.43a11.62,11.62,0,0,1,.69,2.87l0,0-.05.11h0q-1.77,3.52-3.24,6.55a7.43,7.43,0,0,1-3.26.79,4,4,0,0,1-2-.44,1.68,1.68,0,0,1-1.3.62" fill="#8f221d"/><path id="path8072" d="M47.7,108.75l-.46-.18a5,5,0,0,1-.52-.26,4.39,4.39,0,0,1-.63-.38,2.88,2.88,0,0,1-.35-.26,3.27,3.27,0,0,1-.35-.3,5,5,0,0,1-.66-.77,4.34,4.34,0,0,1-.28-.46,2.94,2.94,0,0,1-.23-.51,4.88,4.88,0,0,1-.18-.54,5.48,5.48,0,0,1-.1-.56,5.34,5.34,0,0,1,0-1.13,6.86,6.86,0,0,1,.21-1.06c.06-.21.13-.41.2-.6.22-.35.39-.57.39-.57a14.79,14.79,0,0,0-.12,1.7c0,.19,0,.39-.07.58a4.78,4.78,0,0,0,0,1,4.29,4.29,0,0,0,.07.5c.05.15.08.32.14.47s.12.3.19.45a2.78,2.78,0,0,0,.22.42,3.3,3.3,0,0,0,.26.39,2.39,2.39,0,0,0,.28.35l.29.33.28.29c.2.16.38.33.55.46s.31.26.44.35a4.23,4.23,0,0,1,.4.29" fill="#591715"/><path id="path8074" d="M49.39,108.27,49,108c-.12-.09-.26-.19-.42-.33s-.32-.29-.5-.47a6.34,6.34,0,0,1-1-1.41,5.46,5.46,0,0,1-.37-.93c-.06-.22-.11-.45-.15-.68a4.38,4.38,0,0,1,.73-3.24c0,.29,0,.58.07.85l0,.17a6.61,6.61,0,0,0-.15.89,4.82,4.82,0,0,0,0,.93,4.55,4.55,0,0,0,.15.91,7.22,7.22,0,0,0,.28.86c.13.27.25.53.39.76a2.8,2.8,0,0,0,.21.34l.21.32a6.62,6.62,0,0,0,.4.53l.32.4.3.35" fill="#591715"/><path id="path8076" d="M23.24,78.29s6.46,14,9,19.59c1.76,6.07,3.23,10.19,1.07,11.66s-6,4.71-7.84,3.82-4.11-1.37-5.38.89S17,122.18,21.86,123c1.47,2.35,3,2.25,3.92,1.76a10,10,0,0,0,9.8.68c2.06-1.27,3-3.62,4.9-5.28s4.51-2.75,2.35-5.69-4.21-9.9-5-17A39,39,0,0,1,38,85.83s-4.61-5.49-14.79-7.54" fill="#f68d11"/><path id="path8078" d="M26.21,113.51a1.62,1.62,0,0,1-.73-.15,1.62,1.62,0,0,0,.73.15,7.58,7.58,0,0,0,3.49-1.42,7.58,7.58,0,0,1-3.49,1.42m5.58-16.64-.44-1,.44,1h0" fill="#e2b16f"/><path id="path8080" d="M31,124.29a7.78,7.78,0,0,1-2.11-.3c-3.53-1-3.73-3-2.61-5.8a5.06,5.06,0,0,1,.9-1.23l.28-.24.3-.2a3.23,3.23,0,0,1,.68-.24,4.8,4.8,0,0,1,.93-.08l.57,0,.74.07.72.07,1.29.21.31,0,.16,0h.16l.3-.06.25-.13.12-.08.09-.08.17-.15.28-.29.2-.26.14-.19.1-.17-.13.14-.16.18-.24.2a1.67,1.67,0,0,1-.31.24l-.19.13-.09.07-.09,0a.86.86,0,0,1-.39.09,2.35,2.35,0,0,1-.6-.1c-.39-.11-.83-.23-1.3-.32l-.72-.13-.77-.1c-.28,0-.58,0-.88,0a4.19,4.19,0,0,0-.78.07,3,3,0,0,0-.85.29c-.13.08-.27.15-.39.24l-.34.29a5.19,5.19,0,0,0-1,1.41,7.36,7.36,0,0,0-.36.75c-.1.25-.19.49-.28.73s-.12.35-.17.52c-.58,1.17-1.06,2.14-1.63,2.14A.64.64,0,0,1,23,122c-1.33-.86-1.63-3.25-.61-5.93h0l.1-.15.17-.3.19-.26.2-.25.22-.22.25-.2.25-.18a2.92,2.92,0,0,1,.54-.25,3,3,0,0,1,.58-.13l.29,0h.28l.29,0,.27.05a4.35,4.35,0,0,1,.52.1,11.83,11.83,0,0,1,1.58.56l.59.27-.14-.1a3.76,3.76,0,0,0-.39-.28,6.38,6.38,0,0,0-.64-.38,4.92,4.92,0,0,0-.89-.42,4.72,4.72,0,0,0-1.15-.29l-.32,0h-.33a4.27,4.27,0,0,0-.7.12,3.57,3.57,0,0,0-.68.27l-.31.2-.3.24-.27.26-.24.3-.23.3,0,0c-1.91,2.06-1.78,4.77-2.33,4.77a.43.43,0,0,1-.28-.16c-1.28-1.31.2-4.78.2-4.78l0,0a10.34,10.34,0,0,0-1,4.44c0-.1,0-.2,0-.3a11,11,0,0,1,1.44-5,2.89,2.89,0,0,1,2.66-1.63,6.6,6.6,0,0,1,2.72.74h0a1.62,1.62,0,0,0,.73.15,7.58,7.58,0,0,0,3.49-1.42c1.25-.8,2.5-1.77,3.46-2.44a30.78,30.78,0,0,1-3.56,3.14c-1.35,1.06.38,2.54,2.45,2.54a4,4,0,0,0,2.38-.77c2.66-2,5.52-2.86,3.74-7.49C35,98.84,34.83,87.15,31.94,87.15h-.07c-2.52.17-.69,7.51-.08,9.72l-.44-1c-2.36-5.15-6.22-13.53-7.6-16.52l.13,0,.08,0,.09,0h.08a1.2,1.2,0,0,1,.31,0h0c.92,0,.81,1,.81,1.81v0h0c0,.29.08.4.23.4h0a6.09,6.09,0,0,0,1.59-.86h0l.14-.08,0,0a4.2,4.2,0,0,0-.12,1h0c0,2.62,3.06,3.61,7.22,3.82a23,23,0,0,1,3.63.75A34.11,34.11,0,0,0,37.53,92a50.62,50.62,0,0,0,.3,5.41c.75,6.85,2.67,13.51,4.72,16.65a3.35,3.35,0,0,1-2,3.85,7,7,0,0,0-3.67,3A6.84,6.84,0,0,1,31,124.29M21.83,123h0m0,0h0m0,0h0m-3.11-3.44h0" fill="#e35e1b"/><path id="path8082" d="M42.83,114.44l-.28-.4h0l.28.4" fill="#c7661d"/><path id="path8084" d="M31.2,126.37a10.4,10.4,0,0,1-5.42-1.64h0a2.25,2.25,0,0,1-.41-.62,3.27,3.27,0,0,1-.26-.8,3.89,3.89,0,0,1-.08-.51c0-.18,0-.37,0-.57l0-.3,0-.32c0-.21.08-.42.12-.64s.13-.45.19-.68.17-.46.26-.69.2-.47.31-.71.22-.46.35-.69h0c-1.12,2.82-.92,4.8,2.61,5.8a7.78,7.78,0,0,0,2.11.3,6.84,6.84,0,0,0,5.86-3.37,7,7,0,0,1,3.67-3,3.35,3.35,0,0,0,2-3.85l.28.4h0a3.47,3.47,0,0,1,.81,2c0,1.55-1.8,2.46-3.16,3.69-1.86,1.66-2.84,4-4.9,5.28a11.41,11.41,0,0,1-4.38,1" fill="#b22a22"/><path id="path8086" d="M24.7,125c-.84,0-1.86-.48-2.84-2h0l0-.17c0-.11-.06-.27-.11-.46s-.08-.45-.12-.73-.07-.59-.09-.94,0-.72,0-1.11.07-.81.14-1.22a7.32,7.32,0,0,1,.33-1.26c.08-.21.15-.42.25-.62l.14-.31,0-.05,0-.07c-1,2.68-.72,5.07.61,5.93a.64.64,0,0,0,.31.09c.57,0,1.05-1,1.63-2.14a2,2,0,0,1-.07.23c-.05.25-.11.49-.15.73a5.39,5.39,0,0,0-.08,1.37,3.79,3.79,0,0,0,.07.6c.05.19.08.37.14.53a3.14,3.14,0,0,0,.39.8,1.9,1.9,0,0,0,.37.43l.15.13h0a2.3,2.3,0,0,1-1.08.28" fill="#b22a22"/><path id="path8088" d="M21.86,123h0m0,0h0m0,0h0m0,0h0m0,0a3.41,3.41,0,0,1-3.08-3.44A3.41,3.41,0,0,0,21.75,123m-3.08-3.45h0" fill="#c7661d"/><path id="path8090" d="M21.86,123h-.11a3.41,3.41,0,0,1-3.08-3.44h0a10.34,10.34,0,0,1,1-4.44l0,0s-1.48,3.47-.2,4.78a.43.43,0,0,0,.28.16c.55,0,.42-2.71,2.33-4.77l-.16.28-.09.15,0,.07,0,.1-.15.33a5.6,5.6,0,0,0-.26.68,4.15,4.15,0,0,0-.19.69c-.05.23-.08.46-.11.68a7.39,7.39,0,0,0-.06,1.31,8,8,0,0,0,.12,1.15c0,.18.07.35.1.51s.08.3.12.44.17.52.24.71a4.81,4.81,0,0,0,.27.6h0" fill="#b22a22"/><path id="path8092" d="M22.41,116a11.19,11.19,0,0,1,.81-1.68,6,6,0,0,0-1.1.92l0,0,.23-.3.24-.3.27-.26.3-.24.31-.2a3.57,3.57,0,0,1,.68-.27,4.27,4.27,0,0,1,.7-.12h.33l.32,0a4.72,4.72,0,0,1,1.15.29,4.92,4.92,0,0,1,.89.42,6.38,6.38,0,0,1,.64.38,3.76,3.76,0,0,1,.39.28l.14.1-.59-.27a11.83,11.83,0,0,0-1.58-.56,4.35,4.35,0,0,0-.52-.1l-.27-.05-.29,0H25.2l-.29,0a3,3,0,0,0-.58.13,2.92,2.92,0,0,0-.54.25l-.25.18-.25.2-.22.22-.2.25-.19.26-.17.3-.1.15h0" fill="#a4351f"/><path id="path8094" d="M21.86,123a4.81,4.81,0,0,1-.27-.6c-.07-.19-.16-.43-.24-.71s-.08-.28-.12-.44-.06-.33-.1-.51a8,8,0,0,1-.12-1.15,7.39,7.39,0,0,1,.06-1.31c0-.22.06-.45.11-.68a4.15,4.15,0,0,1,.19-.69,5.6,5.6,0,0,1,.26-.68l.15-.33,0-.1,0-.07.09-.15.16-.28a6,6,0,0,1,1.1-.92,11.19,11.19,0,0,0-.81,1.68l0,.07,0,.05-.14.31c-.1.2-.17.41-.25.62a7.32,7.32,0,0,0-.33,1.26c-.07.41-.11.82-.14,1.22s0,.77,0,1.11.05.66.09.94.08.53.12.73.08.35.11.46l0,.17" fill="#801d1b"/><path id="path8096" d="M25,119.91c.05-.17.11-.34.17-.52s.18-.48.28-.73a7.36,7.36,0,0,1,.36-.75,5.19,5.19,0,0,1,1-1.41l.34-.29c.12-.09.26-.16.39-.24a3,3,0,0,1,.85-.29,4.19,4.19,0,0,1,.78-.07c.3,0,.6,0,.88,0l.77.1.72.13c.47.09.91.21,1.3.32a2.35,2.35,0,0,0,.6.1.86.86,0,0,0,.39-.09l.09,0,.09-.07.19-.13a1.67,1.67,0,0,0,.31-.24l.24-.2.16-.18.13-.14-.1.17-.14.19-.2.26-.28.29-.17.15-.09.08-.12.08-.25.13-.3.06h-.16l-.16,0-.31,0-1.29-.21-.72-.07-.74-.07-.57,0a4.8,4.8,0,0,0-.93.08,3.23,3.23,0,0,0-.68.24l-.3.2-.28.24a5.06,5.06,0,0,0-.9,1.23c.19-.46.41-.94.66-1.45a11.63,11.63,0,0,0-2,3.17" fill="#a4351f"/><path id="path8098" d="M25.78,124.73l-.15-.13a1.9,1.9,0,0,1-.37-.43,3.14,3.14,0,0,1-.39-.8c-.06-.16-.09-.34-.14-.53a3.79,3.79,0,0,1-.07-.6,5.39,5.39,0,0,1,.08-1.37c0-.24.1-.48.15-.73a2,2,0,0,0,.07-.23,11.63,11.63,0,0,1,2-3.17c-.25.51-.47,1-.66,1.45h0c-.13.23-.23.46-.35.69s-.21.48-.31.71-.17.47-.26.69-.14.45-.19.68-.1.43-.12.64l0,.32,0,.3c0,.2,0,.39,0,.57a3.89,3.89,0,0,0,.08.51,3.27,3.27,0,0,0,.26.8,2.25,2.25,0,0,0,.41.62" fill="#801d1b"/><path id="path8100" d="M58.45,85.29s3,9.45-.15,15.85-5.73,11.53-7.44,15.7c-1.34,2.46-4.1,5.21-5.13,9.38s2.82,7.81,8,6.18c1.78,1.41,6.69,1.33,8-1,3.35,1.19,7.29-.52,7.37-6.48s-6.7-5.69-6-13.1c.71-8.63,2.7-14.76,7.72-21.94a39.21,39.21,0,0,0,6.22-14.43s-9.41-.55-18.62,9.81" fill="#f68d11"/><path id="path8102" d="M35,10.25A19.74,19.74,0,0,1,48.49,0s-4.66,4.13,6.26,9.86a13.27,13.27,0,0,1-.4-2.67s-.2,1.6,3.73,3.6C64.34,14,77.26,18.91,84.45,27.71s7.73,12.12,5.73,16.91c-1.73,4.4-1.2,6.93,2.53,7.73a3.31,3.31,0,0,1-3.86,1.2s4.48,7.5-2.37,12.68c-4.15,3.27-4.07,4.31-3,5.9-1.2.88-3.27-1.67-3.27-1.67s1.27,6.13-9.65,8.05c-3,0-4,2.07-3.19,3.19-1.43.07-2-.08-2.39-1-.32,2.15-2.55,5.1-8.21,6.78s-9.81,4.78-10.52,6.93c-.48-3.83-3.67-8-11.88-9-4.63-.23-7.89-1.43-7.1-4.78-1.27.72-2,1.44-2,.56s.16-2.07-1.12-1.83-7.17,2.07-10,.23-1.51-3.18-1.28-5.49.24-1.84-.55-1.36a3.34,3.34,0,0,1-3.51.08c2.47-.8,3.9-4.86,1-6.06s-8-1.35-6.3-5.82,1.91-5.42,1.91-5.42a4.46,4.46,0,0,1-3.83,1.12c2.63-2.79,3.12-6.86,2.87-7.5S-.58,43.19.06,37.85,6,28.68,12,24.54,33.3,12.58,34.1,8.36A2.06,2.06,0,0,1,35,10.25" fill="#732318"/><path id="path8104" d="M54.35,7.33v0" fill="#732318"/><path id="path8106" d="M2.52,56.7h0m0,0a4.82,4.82,0,0,0,3-1.23h0a4.82,4.82,0,0,1-3,1.23m-.79-.09h0M58.08,10.79c-3.22-1.64-3.67-3-3.72-3.45h0c0,.42.46,1.79,3.73,3.46m-23-.54a1.08,1.08,0,0,0,0-.16,1.08,1.08,0,0,1,0,.16h0m19.72-.39h0a17.59,17.59,0,0,1-.38-2.24,17.59,17.59,0,0,0,.38,2.24" fill="#b88a76"/><path id="path8108" d="M90.08,53.75h0m0,0a3.07,3.07,0,0,0,2.54-1.28,3.07,3.07,0,0,1-2.54,1.28m2.54-1.29a.76.76,0,0,0,.08-.11h0a.76.76,0,0,1-.08.11" fill="#82291a"/><path id="path8110" d="M47.78,89c.52-5.69-1.89-6.55-8.78-6.55s-10-2.59-9.31-6.55a8.08,8.08,0,0,0-2.42,2.76s-.52-.69-.34-4.14c-1.68,1.84-4.54,2.6-6.9,2.6-2.75,0-4.82-1-3.62-2.6,2.24-2.93,2.07-10.34,2.07-10.34S16.92,68,14,69.36c2.8-2.15,1.82-7.45-4-7.45l-.82,0c-.35,0-.67,0-1,0-5.36,0-3.35-4.17-3.35-4.17l-.2.11c.69-2,.82-2.45.82-2.45h0a4.82,4.82,0,0,1-3,1.23h0a3.44,3.44,0,0,1-.77-.09h0l-.08,0h0a11.51,11.51,0,0,0,2.93-7,1.42,1.42,0,0,0-.06-.49C4.3,48.49,0,43.81,0,38.82a7.89,7.89,0,0,1,.06-1C.62,33.16,4.74,29.64,9.84,26c2.6,1.86,4.64,2.11,8.56,2.15h0a14.88,14.88,0,0,1-.73-1.74s2,.81,2.8,1h0c0-.08,0-.16,0-.24,0-2,1.92-4.51,1.92-4.51s.47,1.31.89,2.25h0a2.72,2.72,0,0,1,0-.28,2.43,2.43,0,0,1,.74-1.8h0A6.45,6.45,0,0,1,23.56,20a18.8,18.8,0,0,1,.21-2.74C29,14,33.67,10.66,34.1,8.36A2.16,2.16,0,0,1,35,10.09a1.08,1.08,0,0,1,0,.16h0A17.19,17.19,0,0,1,37.2,6.93c-1.05,2.25-1.82,4.63-2.61,6.53a3.72,3.72,0,0,0-.81-3.53s-.42,3-6,5.62-.43,4.9-2.45,7.24c-1.51,1.74-1.77,4.27-2.39,4.27-.2,0-.45-.29-.8-1,0,0,.37,2.72-1.28,2.72a2.85,2.85,0,0,1-1.27-.38c1,.83,1.54,1.29-1.39,1.29-1.18,0-2.91-.08-5.41-.23h-.27C3.53,29.48.34,40,4.32,43c5.31,4.55,2.58,8,.15,10.47,4.86-2.13,6.68-4.86,6.68-4.86s-2.43,4.26,0,7a7.36,7.36,0,0,1,3.55-6.33,5.59,5.59,0,0,0-1.62,3.8c.11,2.67,3.61,3.75,8.7,5,4.75,1.16,11.13,5.1,11.13,6.49s-1,5.46,4.42,6.39c.69,1.86,4.06,3.24,5.8,3.59-.58,1.63-.81,2.09-.81,2.09l4.41-1.16-1,1.86s3.71-1,4.76-2.21a4.23,4.23,0,0,0,2.44,1.39h0s-.82-1.74-.24-2.08a13.55,13.55,0,0,1,2.79-.7S53.8,72.79,55,72a6.82,6.82,0,0,0,2.09-4.06c3.37-2.79,3.6-4.41,2.9-6.5,5.34-6,8.82-7.89,14-9.52,2.31-.71,3.65-2,4.15-3.41a6.36,6.36,0,0,1,.26,2.4c2.28-1.52,2.28-5.17,2.28-5.17s1.52,3.65,6.83,5.47a8.72,8.72,0,0,1-1.06-9.86c2.86-5.72-4.92-15.56-11.53-15.56h-.17c-4.78.18-6.47.36-7.53,1.95-.44-2.74.18-3.54.18-3.54s-1.68,1.06-1.68,1.95c-.09-3.1-.62-3.81-.62-3.81l-1.42,1.86s.27-7.44-2.75-9.92-5.58-4.52-5.58-4.52A18.65,18.65,0,0,0,56.68,13h0c-.09,0-13.84-8.1-8.39-13l.19,0a3.37,3.37,0,0,0-1,2.38c0,1.77,1.36,4.39,7.25,7.48h0a17.59,17.59,0,0,1-.38-2.24c0-.12,0-.21,0-.28,0,.44.5,1.81,3.72,3.45h0c1.41.72,3.16,1.52,5.1,2.44a6,6,0,0,0,0,.73h0c.48,3.73,1.12,7.6,1.12,7.6A3.76,3.76,0,0,0,64.76,20a1.85,1.85,0,0,0-.05-.46,10.88,10.88,0,0,1,1.81,3.35,5,5,0,0,1,2.84-.8h.19a2.68,2.68,0,0,0-.9,1.88v0a26.79,26.79,0,0,1,4.3-.31A9.89,9.89,0,0,0,78.39,22a36,36,0,0,1,6.06,5.75c4.93,6,6.73,9.48,6.74,12.61a11,11,0,0,1-1,4.3,11.48,11.48,0,0,0-.94,4c0,2,1.07,3.22,3.47,3.74a.76.76,0,0,1-.08.11h0a3.07,3.07,0,0,1-2.54,1.28h0a3.7,3.7,0,0,1-1.22-.2h0A11.67,11.67,0,0,1,90.29,59h0a11.67,11.67,0,0,0-1.44-5.43c1.24,4,1.18,8.39-3.48,9.77a5.15,5.15,0,0,0-4,5.49c-.08-.67-.5-2.81-2.39-3.25,2.07,5.69-6.38,7.76-10.34,8.63-3,.77-2.94,3.46-2.74,4.78l-.44.27-4.06-3.15c2.06,6-2.24,6-13.63,12.92M3.24,62.47h0a4.47,4.47,0,0,1,.33-1.58c.25-.69.48-1.3.68-1.83l-.68,1.83a4.47,4.47,0,0,0-.33,1.58M34.42,13.86h0c0-.12.11-.24.15-.36s0,0,0,0a4.34,4.34,0,0,1-.17.4" fill="#501914"/><path id="path8112" d="M14.7,49.26c2.88-3,8.59-3.4,8.59-3.4a4.73,4.73,0,0,0-1-.39,7.43,7.43,0,0,1,2.91.7,16.77,16.77,0,0,0-5.78,1.6,11.48,11.48,0,0,0-4.69,1.49m63.44-.78a5.82,5.82,0,0,0-3.09-3.41,6.45,6.45,0,0,0-1.2-1.56,5.89,5.89,0,0,0-4.16-1.45,11.74,11.74,0,0,0-3.59.6A5.48,5.48,0,0,1,68.65,41h0a4.75,4.75,0,0,0-1-.09,23.31,23.31,0,0,0-6.59,1.58S62,40,65.88,37.77h0c-.74-4.46-6.28-13.55-7.65-13.71h-.09c-1.91,0-8,6.73-8.84,8.72a21.79,21.79,0,0,0-.85-2.87h0a43.09,43.09,0,0,0-3.36,5.4h0a14.73,14.73,0,0,0-1.53,4.27c-4.36-5-5.11-7.44-5.11-7.44a5.82,5.82,0,0,0-.73,2.44A16.87,16.87,0,0,0,37,33a6.58,6.58,0,0,1,.81-2.49s.81,2.66,5.57,8.12c.58-4.18,5.34-10.56,5.34-10.56a23.81,23.81,0,0,1,.93,3.13c.91-2.17,7.56-9.51,9.65-9.51h.09c1.5.17,7.54,10.1,8.36,15-4.3,2.43-5.22,5.1-5.22,5.1s4.34-1.72,7.2-1.72a4.74,4.74,0,0,1,1,.1A6,6,0,0,0,68,42a13,13,0,0,1,3.92-.65A6.38,6.38,0,0,1,76.43,43a5.29,5.29,0,0,1,1.71,5.51" fill="#501914"/><path id="path8114" d="M45.68,77.31l1-1.86-4.41,1.16s.23-.46.81-2.09c-1.74-.35-5.11-1.73-5.8-3.59-5.46-.93-4.42-5-4.42-6.39s-6.38-5.33-11.13-6.49c-5.09-1.24-8.59-2.32-8.7-5a5.59,5.59,0,0,1,1.62-3.8,11.48,11.48,0,0,1,4.69-1.49c-1.87,1-3.49,2.53-3.57,5h0c.1,2.44,3.31,3.43,8,4.57C28.15,58.39,34,62,34,63.29c0,.35-.07.89-.07,1.5,0,1.61.5,3.72,4.11,4.34h0c.64,1.7,3.72,3,5.32,3.29a19.57,19.57,0,0,1-.75,1.92h0l4-1.07-1,1.7h0s3.41-1,4.36-2c1.39,1.27,2.23,1.27,2.23,1.27h0a4.54,4.54,0,0,1-.4-1.45.52.52,0,0,1,.19-.47,13.06,13.06,0,0,1,2.55-.63h0s-.81-.46-.8-1a.71.71,0,0,1,.38-.58,6.38,6.38,0,0,0,1.91-3.73h0a7.21,7.21,0,0,0,2.51-2.74A3.44,3.44,0,0,0,59.05,62a4.86,4.86,0,0,0-.29-1.55c4.89-5.53,8.08-7.22,12.86-8.71,2.78-.87,4-2.6,4-4.42a4.61,4.61,0,0,0-.59-2.21,5.82,5.82,0,0,1,3.09,3.41c-.5,1.43-1.84,2.7-4.15,3.41-5.22,1.63-8.7,3.49-14,9.52.7,2.09.47,3.71-2.9,6.5A6.82,6.82,0,0,1,55,72c-1.16.82.47,1.74.47,1.74a13.55,13.55,0,0,0-2.79.7c-.58.34.24,2.08.24,2.08a4.23,4.23,0,0,1-2.44-1.39c-1,1.16-4.76,2.21-4.76,2.21" fill="#361514"/><path id="path8116" d="M21.73,45.34a13.87,13.87,0,0,0-2.39-.29,6.71,6.71,0,0,1,3.05-.63,12.89,12.89,0,0,1,3.1.4s-5.1-3.71-5.1-4.41c0-8.58,7.77-15.9,7.77-15.9a16.14,16.14,0,0,1,8.52,8,15,15,0,0,0-7-5.91s-7.12,6.7-7.12,14.56h0c0,.64,4.68,4,4.68,4a11.7,11.7,0,0,0-2.84-.37,6.24,6.24,0,0,0-2.62.5" fill="#501914"/><path id="path8118" d="M29.63,26.61s-7.12,6.7-7.12,14.56c0,.64,4.68,4,4.68,4s-3.4-1-5.64.21a8.29,8.29,0,0,1,3.62.75s-9.14.64-9.35,6.59c.1,2.44,3.31,3.43,8,4.57C28.15,58.39,34,62,34,63.29s-1,5,4,5.84c.64,1.7,3.72,3,5.32,3.29a19.57,19.57,0,0,1-.75,1.92l4-1.07-1,1.7s3.41-1,4.36-2c1.39,1.27,2.23,1.27,2.23,1.27s-.74-1.59-.21-1.92a13.06,13.06,0,0,1,2.55-.63s-1.49-.85-.42-1.59a6.38,6.38,0,0,0,1.91-3.73c3.08-2.55,3.29-4,2.66-6,4.89-5.53,8.08-7.22,12.86-8.71s5-5.53,2.23-8.19-7.75-.85-7.75-.85A5.48,5.48,0,0,1,68.65,41c-2.45-.53-7.55,1.49-7.55,1.49S62,40,65.88,37.77c-.74-4.46-6.28-13.55-7.65-13.71-1.81-.21-8.08,6.69-8.93,8.72a21.79,21.79,0,0,0-.85-2.87s-4.36,5.84-4.89,9.67c-4.36-5-5.11-7.44-5.11-7.44a5.82,5.82,0,0,0-.73,2.44,14.66,14.66,0,0,0-8.09-8" fill="#f68d11"/><path id="path8120" d="M45.09,35.31a43.09,43.09,0,0,1,3.36-5.4,43.09,43.09,0,0,0-3.36,5.4h0" fill="#441715"/><path id="path8122" d="M45.68,75l1-1.7-4,1.07a19.57,19.57,0,0,0,.75-1.92h0c-1.6-.31-4.68-1.59-5.32-3.29a26.81,26.81,0,0,0,5.38.76c2.19,0,2.93-.75,3.1-2.13a2.64,2.64,0,0,0,2.61,1.78c2.13,0,4.93-1.75,7-3.18a6.38,6.38,0,0,1-1.91,3.73.71.71,0,0,0-.38.58c0,.55.8,1,.8,1a13.06,13.06,0,0,0-2.55.63.52.52,0,0,0-.19.47,4.54,4.54,0,0,0,.4,1.45s-.84,0-2.23-1.27c-.95,1.06-4.36,2-4.36,2m1.79-3s.28.45-.8,2.11c1.1-.72,1.79-2.53,2.54-2.53a.63.63,0,0,1,.45.24c.71.77,1.49,2,1.83,2,.11,0,.17-.12.18-.39,0-1.19-.7-1.7-.34-1.92a.55.55,0,0,1,.23,0,7.76,7.76,0,0,1,.92.11,6.35,6.35,0,0,0,.9.11c.21,0,.29-.05.13-.21-.55-.55-1.94-.66-.48-1.21,2-.82,2-2.19,1.25-2.19a.9.9,0,0,0-.49.17,9.11,9.11,0,0,1-4.92,1.71,4.93,4.93,0,0,1-2.3-.53,3.33,3.33,0,0,1-2.79,1.06,10.31,10.31,0,0,1-2.45-.33c-1.63.11-.07,1.75,2.3,1.75a5.29,5.29,0,0,0,2.42-.6c-.13.57-2.38,1.87-1.67,1.87l.28,0A10.1,10.1,0,0,0,47.47,72M38,69.13c-3.61-.62-4.11-2.73-4.11-4.34,0-.61.07-1.15.07-1.5h0c0-1.28-5.84-4.9-10.2-6-4.66-1.14-7.87-2.13-8-4.57.21-5.95,9.35-6.59,9.35-6.59h0a8.29,8.29,0,0,0-3.62-.75,6.15,6.15,0,0,1,2.8-.58,11.7,11.7,0,0,1,2.84.37h0s-4.68-3.4-4.68-4c0-7.86,7.12-14.56,7.12-14.56a14.66,14.66,0,0,1,8.09,8s-4.1-5.8-7-5.8a2,2,0,0,0-.48.06c-2.87.75-8.18,10.53-3.08,14.25,3.2,2.48,3.28,5,5,5a3.16,3.16,0,0,0,1.21-.31,20.75,20.75,0,0,1,2.66-1c-.47.2-.91.4-1.32.61A29.44,29.44,0,0,0,32,48.89c-.61.38-.95.64-.95.64l.26-.15.6-.31a9.07,9.07,0,0,0-1.15.82.66.66,0,0,1-.38.14c-.86,0-.9-2.65-3.44-3.12A4.78,4.78,0,0,1,28,48.72a3.68,3.68,0,0,0-2.25-.64,7.42,7.42,0,0,0-3.6,1.07c-5,2.75-1.59,6.37,2.77,6.8a9.37,9.37,0,0,1,6.59,3,.34.34,0,0,0,.23.1c1,0,1.46-5.83,7.1-11.47-2.15,3.75-5.46,10.05-2.8,10.05a4.07,4.07,0,0,0,1.42-.37A25.29,25.29,0,0,1,43,55.69l4.49-.47,1.43,0a23.17,23.17,0,0,1,4.78.44,2.44,2.44,0,0,0,.56.07c2.77,0-1.32-6.49-3.33-9a40,40,0,0,1,6,8c.81,1.57,1.46,2.16,2.06,2.16s1-.41,1.44-1c1.07-1.27,4.68-4.68,8.4-5s5.84-2.6,4.36-5.21c-.77-1.37-2.57-2-4.56-2a10.25,10.25,0,0,0-4.69,1.15,7.78,7.78,0,0,1,1.49-2.56A6.69,6.69,0,0,0,61.73,44c-1.08,1.16-2.21,2.21-4.09,2.21a7.07,7.07,0,0,1-2.14-.38c-.32-.13-.71-.26-1.15-.42l-.68-.21-1-.29a.9.9,0,0,0,.43-.48,9.11,9.11,0,0,1,1.58.21,5.4,5.4,0,0,0,1.27.17c1.36,0,2.76-.65,3.73-2.82C61,39.15,64.18,37.56,63,34.26c-.72-2-2.66-6.53-6-6.53-2.06,0-4.66,1.73-7.83,6.85a16.79,16.79,0,0,1-.85-2.34s-1.41.31-3.25,3.07a43.09,43.09,0,0,1,3.36-5.4h0a21.79,21.79,0,0,1,.85,2.87c.83-2,6.93-8.72,8.84-8.72h.09c1.37.16,6.91,9.25,7.65,13.71C62,40,61.1,42.45,61.1,42.45h0a23.31,23.31,0,0,1,6.59-1.58,4.75,4.75,0,0,1,1,.09,5.48,5.48,0,0,0-2.55,1.7h0a11.74,11.74,0,0,1,3.59-.6,5.89,5.89,0,0,1,4.16,1.45,5.34,5.34,0,0,1,1.79,3.77c0,1.82-1.24,3.55-4,4.42-4.78,1.49-8,3.18-12.86,8.71h0A4.86,4.86,0,0,1,59.05,62a3.44,3.44,0,0,1-.44,1.66,3.19,3.19,0,0,0-.07-3.2,6.76,6.76,0,0,1-.59.88,2.27,2.27,0,0,0,.46-1.19.75.75,0,0,0-.06-.31c-.75-1.66-2-1.88-4.64-2.71a20.91,20.91,0,0,0-5.15-.6,30.48,30.48,0,0,0-9.38,1.56s-5.76,2.23-5.33,3.89h0V62h0a2.9,2.9,0,0,0,.78,1c-.24-.19-.36-.3-.36-.3-.79,3.51.5,5.51,3.75,6.38m8.38-1.93a18.11,18.11,0,0,1-6-1,19.36,19.36,0,0,0,5.87,1h.29a12.39,12.39,0,0,0,3-.45,12.64,12.64,0,0,1-3.22.5m5.86-22.37a6.87,6.87,0,0,0-1.5-.25H50.7s.56-.08,1.33-.11a1.07,1.07,0,0,0,.24.35" fill="#e35e1b"/><path id="path8124" d="M50.41,40.59c-.74-.74,4.25-5,4.78-5s2.13,2.45,2.13,3.09-6.91,1.91-6.91,1.91" fill="#e35e1b"/><path id="path8126" d="M38,42.4s-5.63-.75-6.48-1c0,0-.1-3.52.28-3.52h0c.42.21,5.21,2.55,6.16,4.47" fill="#e35e1b"/><path id="path8128" d="M50.26,39.9s6.91-1.28,6.91-1.92S55.57,34.9,55,34.9s-5.53,4.25-4.78,5" fill="#712618"/><path id="path8130" d="M37.82,41.71s-5.63-.75-6.49-1c0,0-.1-3.72.32-3.51s5.21,2.56,6.17,4.47" fill="#712618"/><path id="path8132" d="M36.17,44.67c0,1.13-.44,2-.91,2s-.81-1-.78-2.09.43-2,.9-2,.82.95.79,2.08" fill="#100f0d"/><path id="path8134" d="M35.94,44c0,.44-.13.8-.34.8s-.39-.34-.41-.78.14-.81.35-.81.38.35.4.79" fill="#fff"/><path id="path8136" d="M53.46,43c0,1.13-.43,2-.9,2s-.82-1-.79-2.09.43-2,.9-2,.82,1,.79,2.08" fill="#100f0d"/><path id="path8138" d="M53.23,42.32c0,.43-.13.8-.34.81s-.39-.36-.41-.8.14-.8.35-.8.39.34.4.79" fill="#fff"/><path id="path8140" d="M39.18,58.05s7.51-2.75,14.53-1c2.66.83,3.89,1,4.64,2.71S52.88,67,46.61,67.15s-12.34-3.54-12.76-5.21,5.33-3.89,5.33-3.89" fill="#502a1f"/><path id="path8142" d="M32,49.07a39.28,39.28,0,0,1,5.66-2.58A6.67,6.67,0,0,0,36,46.8l.53-.23c.67-.27,1.38-.54,2.13-.78s1.53-.48,2.34-.67c.41-.09.81-.19,1.23-.26s.82-.16,1.24-.22l.17,0h0l.71-.08.71-.06c.24,0,.48,0,.71,0h2.6l.56,0,1,.08.76.11.66.08-.65-.15-.14,0,.13,0,1,.18.6.13a.45.45,0,0,0,.22.08h.14c.35.08.67.17,1,.26s.92.31,1.47.51l.36.12.09,0,1.06.45L55.55,46c-.34-.11-.78-.21-1.26-.34l-.79-.17c-.28-.06-.57-.13-.88-.17s-.62-.11-.95-.15l-1-.13L49.55,45l-1.14,0H47.24L46,45l-.79.07a1.75,1.75,0,0,0-.55-.08,1.93,1.93,0,0,0-1,.26l-.15,0c-.4.06-.81.12-1.22.2s-.8.16-1.2.25L40,46l-1.14.31a42.19,42.19,0,0,0-4,1.42c-1.15.48-2.1.92-2.74,1.25l-.16.08" fill="#c93922"/><path id="path8144" d="M31.09,49.53s.34-.26.95-.64a29.44,29.44,0,0,1,2.66-1.48c.41-.21.85-.41,1.32-.61a6.67,6.67,0,0,1,1.59-.31A39.28,39.28,0,0,0,32,49.07l-.6.31-.26.15M55.5,45.87l-.36-.12c-.55-.2-1-.37-1.47-.51l.68.21c.44.16.83.29,1.15.42" fill="#b22a22"/><path id="path8146" d="M52.58,45h0a.45.45,0,0,1-.22-.08l.31.07h-.07" fill="#100f0d"/><path id="path8148" d="M34.28,62.75A20.07,20.07,0,0,0,46.41,67.2c5.39-.11,10.68-4.11,12.13-6.78.88,1.28.69,3.77-2.44,5.94s-8,5.13-9.59,1.4c-.27,2.17-1.94,2.79-8.48,1.37-3.25-.87-4.54-2.87-3.75-6.38" fill="#fbd25f"/><path id="path8150" d="M46.34,67.15h0m0,0h0M33.86,62h0" fill="#95381d"/><path id="path8152" d="M46.34,67.15h0a19.12,19.12,0,0,1-5.88-1,20.92,20.92,0,0,1-5.8-3.11,2.9,2.9,0,0,1-.78-1h0v-.06h0a1,1,0,0,1,.24-.85c0,.68.42,1.36,1.77,1.36a5.73,5.73,0,0,0,1.08-.12,20.2,20.2,0,0,1,3.34-.44c1.33,0,2,.45,3.11,1.51a4.43,4.43,0,0,0,2.83,1.46c1.15,0,2.12-.89,3.08-2.53a3.89,3.89,0,0,1,3.5-2.21,7.71,7.71,0,0,1,3,.73,1.23,1.23,0,0,0,.54.12c.89,0,1.34-1.09.23-2.19s-3.77-2.19-9.09-2.19H46.11c.79-.07,1.62-.11,2.47-.11a20.75,20.75,0,0,1,5.13.6c2.66.83,3.89,1,4.64,2.71a.75.75,0,0,1,.06.31A2.27,2.27,0,0,1,58,61.3a17,17,0,0,1-8.32,5.4,12.39,12.39,0,0,1-3,.45h-.27m-2.83-1h0s-1.12-3.66-3.83-3.83H39.4c-1.17,0-1.78.46-1.87.92s.33.93,1.22.93H39l.48,0a4.72,4.72,0,0,1,4.07,2m9.35-5.44c-1.43,0-3.38,1.06-3.38,4.88,0,0,1-2.47,2.64-2.63s2.79-.87,2.15-1.75a1.82,1.82,0,0,0-1.41-.5" fill="#331b16"/><path id="path8154" d="M43.51,66.15a4.72,4.72,0,0,0-4.07-2l-.48,0h-.21c-.89,0-1.32-.46-1.22-.93s.7-.92,1.87-.92h.28c2.71.17,3.83,3.83,3.83,3.83" fill="#1a1311"/><path id="path8156" d="M49.48,65.59c0-3.82,2-4.88,3.38-4.88a1.82,1.82,0,0,1,1.41.5c.64.88-.48,1.6-2.15,1.75s-2.64,2.63-2.64,2.63" fill="#1a1311"/><path id="path8158" d="M49.63,66.7h0A17,17,0,0,0,58,61.3h0c-1.19,1.82-4.53,4.38-8.32,5.4m-9.19-.54a16.53,16.53,0,0,1-5.8-3.11,20.92,20.92,0,0,0,5.8,3.11" fill="#a57838"/><path id="path8160" d="M52.39,58.44a3.25,3.25,0,0,1-.51,0c-.57-.12-1-.41-1-.64s.28-.24.62-.24a2.5,2.5,0,0,1,.51.06c.57.12,1,.4.95.63s-.28.24-.62.24" fill="#fff"/><path id="path8162" d="M35.54,60.78a22.72,22.72,0,0,1,11.17-3.44,8.57,8.57,0,0,1,2.72.36c.51.19.58.37.16.37l-.28,0C48.66,58,48,58,47.39,58a28.23,28.23,0,0,0-11.85,2.81" fill="#fff"/><path id="path8164" d="M42.39,69.17A11.33,11.33,0,0,1,40.66,69c-5.25-.83-5.75-4.15-4.46-4.15a.84.84,0,0,1,.27,0A17.43,17.43,0,0,0,44.4,67.5c1.48.17.93,1.67-2,1.67" fill="#fcfaab"/><path id="path8166" d="M49.82,68.73c-1.48,0-2-.84-1.14-1.26,0,0,5.35-1.48,8.13-4a1.25,1.25,0,0,1,.69-.38c.77,0-.15,2.63-4.52,4.74a6.86,6.86,0,0,1-3.16.94" fill="#fcfaab"/><path id="path8168" d="M37,66.87l-.34.06a8,8,0,0,1-.93.1c-.38,0-.83,0-1.32,0-.24,0-.49,0-.74,0s-.51,0-.77-.08a6.71,6.71,0,0,1-.76-.13c-.25,0-.49-.1-.73-.16l-.67-.2c-.21-.06-.41-.13-.59-.2L29.67,66l-.36-.18L29,65.69l.34.1.38.14.5.13c.18.06.39.11.6.16s.43.1.67.14.47.1.72.14.49.08.75.12c.5.07,1,.11,1.48.16l.68,0,.62,0c.76,0,1.27,0,1.27,0" fill="#100f0d"/><path id="path8170" d="M38.08,67.67s-.16.08-.43.25-.63.4-1.06.72c-.22.15-.44.33-.68.52s-.48.4-.73.62-.5.45-.74.7-.24.25-.37.37l-.35.39c-.24.26-.46.53-.68.81s-.41.55-.6.82-.35.54-.52.8-.16.25-.23.38-.13.25-.19.36-.24.45-.33.65l-.22.51-.21.45.14-.47c.05-.15.12-.33.18-.54s.17-.43.28-.68.11-.25.17-.38.14-.26.21-.4a8.26,8.26,0,0,1,.49-.84,9.26,9.26,0,0,1,.59-.85c.22-.28.44-.56.68-.83s.24-.27.37-.4l.38-.37c.24-.26.52-.47.77-.7s.52-.41.77-.59.49-.34.72-.48a12.65,12.65,0,0,1,1.13-.63,3.39,3.39,0,0,1,.46-.19" fill="#100f0d"/><path id="path8172" d="M39.43,68.4l-.33.26c-.2.16-.49.42-.83.72-.17.15-.35.31-.54.5s-.37.38-.57.57l-.59.64c-.19.23-.4.45-.58.7s-.37.47-.54.71l-.25.36-.23.37-.22.34-.2.35a5.69,5.69,0,0,0-.33.65l-.27.56c-.07.17-.13.32-.17.44l-.16.39s0-.15.09-.4l.13-.47.21-.6a5.47,5.47,0,0,1,.3-.68c0-.12.11-.24.17-.36s.14-.25.21-.37L35,72.7c.08-.13.17-.25.25-.37s.36-.5.55-.74.39-.47.59-.7l.62-.63c.21-.2.42-.39.62-.55s.39-.33.57-.47a9.12,9.12,0,0,1,.92-.63c.22-.14.36-.21.36-.21" fill="#100f0d"/><path id="path8174" d="M53,67.1s.17,0,.48-.08L54,67a5.94,5.94,0,0,1,.74,0c.27,0,.56,0,.87,0s.64.06,1,.11.68.11,1,.21l.52.14.52.17a9.55,9.55,0,0,1,1,.41,9,9,0,0,1,.93.48,6.86,6.86,0,0,1,.83.52c.12.1.25.17.36.27l.33.27a7,7,0,0,1,.55.48l.4.42.34.36L63,70.51l-.42-.37c-.17-.14-.38-.27-.59-.43l-.33-.25-.38-.23c-.27-.15-.53-.34-.84-.48s-.59-.31-.91-.44-.65-.28-1-.39l-.5-.17-.51-.13c-.33-.11-.67-.16-1-.24s-.65-.12-1-.16l-.86-.09c-.53,0-1,0-1.29,0a4.68,4.68,0,0,0-.49,0" fill="#100f0d"/><path id="path8176" d="M54.33,66.36S55,66.18,56,66c.51-.08,1.12-.18,1.77-.24l1-.08c.35,0,.69,0,1,0h1l1,0c.33,0,.65,0,.94.1l.84.12.7.16a5.26,5.26,0,0,1,.53.15l.46.14-.47-.08c-.15,0-.33-.07-.54-.09l-.71-.1L62.84,66c-.29,0-.61,0-.93,0s-.66,0-1,0h-1c-.34,0-.69,0-1,0s-.68,0-1,.06c-.65,0-1.25.09-1.77.14l-1.25.12-.48,0" fill="#100f0d"/><path id="path8178" d="M53.31,65.86l.53-.1,1.39-.27c.57-.11,1.23-.26,1.94-.42s1.46-.35,2.2-.58q.57-.15,1.11-.33c.36-.12.71-.24,1.05-.37s.66-.26,1-.39.58-.28.84-.41A6.85,6.85,0,0,0,64,62.6l.28-.18.23-.17.41-.34-.37.38-.21.2-.27.2a5.38,5.38,0,0,1-.66.46c-.25.14-.52.32-.83.46a8.47,8.47,0,0,1-1,.44c-.35.14-.7.28-1.06.4s-.75.24-1.12.35-.76.2-1.13.3l-1.1.24c-.72.14-1.4.24-2,.33s-1.07.12-1.41.15l-.54,0" fill="#100f0d"/><path id="path8180" d="M36.16,46.36s.22-.11.61-.27.95-.4,1.64-.62c.35-.12.73-.23,1.13-.35s.83-.23,1.27-.33.91-.2,1.38-.28,1-.16,1.44-.21l.72-.08.73,0,.71,0h1.37l.64,0,.61,0,.57.07,1,.14.75.16.65.15-.66-.08-.76-.11-1-.08-.56,0h-.61c-.42,0-.85,0-1.3,0H45.8c-.23,0-.47,0-.71,0l-.71.06-.71.08c-.49,0-1,.13-1.43.2s-.93.16-1.37.25-.87.18-1.28.28-.78.19-1.12.29c-.7.2-1.28.38-1.68.51l-.63.22" fill="#fff"/><path id="path8182" d="M39.81,56.08c-.52,0-.77-.15-.67-.53a27.15,27.15,0,0,1,2.69-7.75,5.29,5.29,0,0,1,1.9-2.55c.51-.08,1-.14,1.51-.18C48.39,46,51.36,54.21,51,55.2A18.12,18.12,0,0,0,48.42,55h-.61c-.25-1.24-2.11-9.88-3.25-9.88h-.07c-1.15.34-1.77,9.56-1.83,10.48a20.17,20.17,0,0,1-2.85.43" fill="#f9b010"/><path id="path8184" d="M43.73,45.25a1.93,1.93,0,0,1,1-.26,1.75,1.75,0,0,1,.55.08c-.5,0-1,.1-1.51.18" fill="#e36e19"/><path id="path8186" d="M42.65,55.73a.45.45,0,0,1,0-.08l.56-.1A31.84,31.84,0,0,1,47.81,55l0,.14-.39,0a36.79,36.79,0,0,0-4.49.47l-.31,0" fill="#fbc673"/><path id="path8188" d="M43,55.69a36.79,36.79,0,0,1,4.49-.47L43,55.69" fill="#f1ae72"/><path id="path8190" d="M42.66,55.65c.06-.92.68-10.14,1.83-10.48h.07c1.14,0,3,8.64,3.25,9.88a31.84,31.84,0,0,0-4.59.51l-.56.1" fill="#fbda75"/><path id="path8192" d="M24,22.89s-.86-1.53-.18-6-4.32-6.62-10.6-2.76C8.13,17.71,7,23.27,9.7,25.94c2.67,1.95,4.71,2.21,8.7,2.25a14.88,14.88,0,0,1-.73-1.74s2,.81,2.8,1c-.16-2,1.91-4.75,1.91-4.75s.47,1.31.89,2.25A2.47,2.47,0,0,1,24,22.89" fill="#f68d11"/><path id="path8194" d="M11.92,19.14s1.75-3.37,4.8-3.76c2.19-.28,4.16,2.54,3.83,5.71s-3.05,4.68-6.69,3.57-2.66-4.08-1.94-5.52" fill="#d2501f"/><path id="path8196" d="M9.68,25.92a5.26,5.26,0,0,1-1.34-4.6,5.29,5.29,0,0,0,1.34,4.6M8.34,21.3h0" fill="#e2b16f"/><path id="path8198" d="M18.4,28.19c-4,0-6-.3-8.7-2.25h0l0,0a5.29,5.29,0,0,1-1.34-4.6v0h0a9.77,9.77,0,0,1,2.26-4.76c-.73,1.14-3.31,5.64-.28,8.28a2.48,2.48,0,0,0,1.34.61c.62,0,.69-.73-.29-2-1.5-1.92-.47-5.33,2.81-7.72a5.61,5.61,0,0,1,3.21-1.2,3.56,3.56,0,0,1,3.49,3.42c.15,1.16.46,1.63.79,1.63.59,0,1.27-1.45,1.38-3.16.16-2.47-1.26-4.14-4.32-4.14-.28,0-.57,0-.88,0h-.12a8.14,8.14,0,0,1,1.58-.16c3.06,0,5,1.91,4.51,4.76h0A21,21,0,0,0,23.56,20,6.45,6.45,0,0,0,24,22.89a2.43,2.43,0,0,0-.74,1.8,2.72,2.72,0,0,0,0,.28c-.42-.94-.89-2.25-.89-2.25s-1.92,2.51-1.92,4.51c0,.08,0,.16,0,.24-.8-.21-2.8-1-2.8-1h0a14.88,14.88,0,0,0,.73,1.74M16.13,25h0a4.14,4.14,0,0,0,4.41-3.83v-.11h0v0c.3-3-1.46-5.68-3.52-5.69h0l-.3,0h0c-3,.39-4.8,3.76-4.8,3.76-.67,1.34-1.57,4.05,1.31,5.29h0a4,4,0,0,0,.64.23l0,0a8,8,0,0,0,2.22.35h0" fill="#e35e1b"/><path id="path8200" d="M16.13,25h0m0,0a8,8,0,0,1-2.22-.35,8,8,0,0,0,2.22.35m-1-.34a6.53,6.53,0,0,1-1.79-.28l-.07,0c-2.88-1.24-2-3.95-1.31-5.29,0,0,1.75-3.37,4.8-3.76h0c-3,.39-4.8,3.76-4.8,3.76a6.63,6.63,0,0,0-.56,1.53c.3-.77,1.67-3.75,4.42-3.75l.54,0c3.2.43,3.66,7.74-1.23,7.74m5.45-3.49v0m0-.15c.3-3-1.46-5.68-3.52-5.69,2.06,0,3.82,2.68,3.52,5.69M17,15.36h0" fill="#bb3921"/><path id="path8202" d="M16.13,25h0m0,0a4.14,4.14,0,0,0,4.41-3.83A4.14,4.14,0,0,1,16.13,25m-2.23-.35,0,0a3.58,3.58,0,0,1-.63-.23h0a4.61,4.61,0,0,0,.63.23l0,0m6.65-3.59h0v0h0m-3.83-5.71.3,0-.3,0m.31,0h0" fill="#bb2523"/><path id="path8204" d="M16.13,25h0a8,8,0,0,1-2.22-.35l0,0a4.61,4.61,0,0,1-.63-.23l.07,0a6.53,6.53,0,0,0,1.79.28c4.89,0,4.43-7.31,1.23-7.74l-.54,0c-2.75,0-4.12,3-4.42,3.75a6.63,6.63,0,0,1,.56-1.53s1.75-3.37,4.8-3.76h0l.3,0h0c2.06,0,3.82,2.68,3.52,5.69v0h0v.11A4.14,4.14,0,0,1,16.13,25h0" fill="#991b20"/><path id="path8206" d="M9.57,22.17c-.53,0-.7-2.38,1.36-5.34a7,7,0,0,1,4.7-3.22c.47,0,.45.28-.45.67a9.5,9.5,0,0,0-5.1,7.23c-.17.46-.36.66-.51.66" fill="#fbc673"/><path id="path8208" d="M64.34,21.56s-.64-3.87-1.12-7.6,3-6.69,7.81-5.85,8.88,5.27,8.88,11.48c-.26,2.34-3.51,3.94-7,4.05a26.79,26.79,0,0,0-4.3.31,2.62,2.62,0,0,1,.9-1.91,5.08,5.08,0,0,0-3,.8,10.88,10.88,0,0,0-1.81-3.35,3.48,3.48,0,0,1-.37,2.07" fill="#f68d11"/><path id="path8210" d="M75.05,12.91s-2.72-2.9-6-2.35-3.09,4.95-.62,7.36,6.78,2.59,7.66.3a4.47,4.47,0,0,0-1-5.31" fill="#d2501f"/><path id="path8212" d="M66.52,22.84a10.88,10.88,0,0,0-1.81-3.35h0a10.88,10.88,0,0,1,1.81,3.35,5,5,0,0,1,2.84-.8,5,5,0,0,0-2.84.8" fill="#441715"/><path id="path8214" d="M79.91,19.55h0" fill="#a0321f"/><path id="path8216" d="M68.65,24v0a2.68,2.68,0,0,1,.9-1.88h-.19a5,5,0,0,0-2.84.8,10.88,10.88,0,0,0-1.81-3.35h0a1.85,1.85,0,0,1,.05.46,3.76,3.76,0,0,1-.42,1.61s-.64-3.87-1.12-7.6h0c-.41-3.24,2.2-5.92,6-6a5.62,5.62,0,0,0-4,2.39c-.64,1.31-.51,1.84-.09,1.84A2.64,2.64,0,0,0,66.76,11a4.4,4.4,0,0,1,3.36-1.15A7.44,7.44,0,0,1,76.21,13c3,4.11.1,7.29-2.53,7.57-2,.22-1.33,1.62.79,1.62a6.6,6.6,0,0,0,2.4-.49c2.73-1.07,3.09-3.23,2.63-5.4a13,13,0,0,1,.41,3.25h0v0c-.26,2.34-3.51,3.94-7,4.05a26.79,26.79,0,0,0-4.3.31m-.21-6a6.93,6.93,0,0,0,4.66,1.91,3,3,0,0,0,3-1.61,4.47,4.47,0,0,0-1-5.31s-.14-.14-.39-.36h0a8.69,8.69,0,0,0-3.13-1.81h0a5.56,5.56,0,0,0-1.59-.24,6,6,0,0,0-.84.07,2.93,2.93,0,0,0-2.47,3.16,6.08,6.08,0,0,0,1.85,4.2h0" fill="#e35e1b"/><path id="path8218" d="M73.1,19.83a6.93,6.93,0,0,1-4.66-1.91,6.93,6.93,0,0,0,4.66,1.91,4,4,0,0,0,2.09-.52,5.38,5.38,0,0,1-1.89.35c-3.48,0-6.11-3.59-3.83-6.49a3.28,3.28,0,0,1,2.65-1.35,5.53,5.53,0,0,1,2.54.73c.25.22.39.36.39.36a4.47,4.47,0,0,1,1,5.31,3,3,0,0,1-3,1.61m-6.51-6.11a2.93,2.93,0,0,1,2.47-3.16,6,6,0,0,1,.84-.07,5.56,5.56,0,0,1,1.59.24,5.58,5.58,0,0,0-1.6-.24,5.93,5.93,0,0,0-.83.07,2.93,2.93,0,0,0-2.47,3.16m4.94-3h0m0,0h0" fill="#bb3921"/><path id="path8220" d="M74.66,12.55h0a8.69,8.69,0,0,0-3.13-1.81,8.69,8.69,0,0,1,3.13,1.81m-3.13-1.81h0m0,0h0" fill="#b12a22"/><path id="path8222" d="M73.1,19.83a6.93,6.93,0,0,1-4.66-1.91h0a6.08,6.08,0,0,1-1.85-4.2,2.93,2.93,0,0,1,2.47-3.16,5.93,5.93,0,0,1,.83-.07,5.58,5.58,0,0,1,1.6.24h0a8.69,8.69,0,0,1,3.13,1.81,5.53,5.53,0,0,0-2.54-.73,3.28,3.28,0,0,0-2.65,1.35c-2.28,2.9.35,6.49,3.83,6.49a5.38,5.38,0,0,0,1.89-.35,4,4,0,0,1-2.09.52" fill="#911e1e"/><path id="path8224" d="M78.28,19.1c-.31,0-.55-.36-.41-1,1-4.78-3.52-7.33-3.52-7.33-.36-.41-.33-.63-.06-.63.74,0,3.21,1.52,4.37,4.77,1,2.93.21,4.21-.38,4.21" fill="#fbc673"/><path id="path8226" d="M34.42,13.86l.17-.42a.14.14,0,0,1,0,.06l-.15.36" fill="#501914"/><path id="path8228" d="M34.42,13.86h0l.15-.36c0,.12-.1.24-.15.36" fill="#361514"/><path id="path8230" d="M81.41,69a1.12,1.12,0,0,1,0-.2l0,.2" fill="#361514"/><path id="path8232" d="M4.25,59.06c.15-.43.29-.8.41-1.14h0c-.12.34-.26.71-.41,1.14" fill="#b88a76"/><path id="path8234" d="M17.63,80.35h0m0,0a27.7,27.7,0,0,0,6.11-1h0a27.7,27.7,0,0,1-6.11,1m-4.75-6.3a.13.13,0,0,0,0-.06.13.13,0,0,1,0,.06m0-.09h0m0-.23h0m-2.36-.5h0m0,0a3.38,3.38,0,0,0,1.65-.47,3.38,3.38,0,0,1-1.65.47M9,72.83H9m0,0-.05,0,.05,0m-.05,0,0,0h0l0,0m3.37,0h0m0,0,0,0,0,0m.08,0h0m0,0,.06,0-.06,0m.57-.38h0m0,0h0" fill="#854738"/><path id="path8236" d="M38,86.11a23,23,0,0,0-3.63-.75c-4.16-.21-7.22-1.2-7.22-3.82h0c0,2.62,3.06,3.61,7.22,3.82a23,23,0,0,1,3.63.75h0m-12.72-5v0m2-.53,0,0h0l0,0m-3.46-1.21h0l.13,0-.13,0m.21,0,.09,0-.09,0m.12,0h0m0,0h0a1.25,1.25,0,0,1,.31,0,1.2,1.2,0,0,0-.31,0h0m.32,0h0" fill="#772119"/><path id="path8238" d="M46.22,94.37c-.41-3.2-2.7-6.62-8.25-8.26a23,23,0,0,0-3.63-.75c-4.16-.21-7.22-1.2-7.22-3.82a4.2,4.2,0,0,1,.12-1h0l0,0-.14.08h0a6.25,6.25,0,0,1-1.59.86h0c-.15,0-.23-.11-.23-.4h0v0c0-.16,0-.32,0-.49,0-.66-.08-1.31-.82-1.32h0a1.25,1.25,0,0,0-.31,0h-.08l-.09,0-.08,0-.13,0h0a27.7,27.7,0,0,1-6.11,1h0a6.33,6.33,0,0,1-3.45-.81h0c-1.4-.91-1.77-1.71-1.77-2.57s.37-1.77.49-2.92h0a.13.13,0,0,0,0-.06v0h0l0-.22h0c.06-.62.1-1,.1-1.21s0-.23-.08-.23h0c-.1,0-.26.19-.51.34l-.06,0h0l-.06,0,0,0h0a3.38,3.38,0,0,1-1.65.47h0A4,4,0,0,1,9,72.83H9l0,0-.05,0h0l0,0a4.12,4.12,0,0,0,2.62-3.71h0a2.42,2.42,0,0,0-1.58-2.35c-2.49-1-6.64-1.29-6.63-4.24a4.47,4.47,0,0,1,.33-1.58l.68-1.83c.15-.43.29-.8.41-1.14l.2-.11S2.85,62,8.21,62c.29,0,.61,0,1,0l.82,0c5.83,0,6.81,5.3,4,7.45,2.92-1.38,4.48-5.17,4.48-5.17s.17,7.41-2.07,10.34c-1.2,1.58.87,2.6,3.62,2.6,2.36,0,5.22-.76,6.9-2.6-.18,3.45.34,4.14.34,4.14a8.08,8.08,0,0,1,2.42-2.76c-.7,4,2.41,6.55,9.31,6.55s9.3.86,8.78,6.55c11.39-6.89,15.69-6.89,13.63-12.92l4.06,3.15a32.9,32.9,0,0,0-7,6.05s.17.52.38,1.41c-.49.21-1,.4-1.6.59l-.49.15a27,27,0,0,0-6.16,2.67h0c-2.37,1.43-3.94,3-4.36,4.26" fill="#361514"/><path id="path8240" d="M82.87,72.32h0m0,0a1,1,0,0,0,.58-.19h0a1,1,0,0,1-.58.19" fill="#5b1c13"/><path id="path8242" d="M65.91,79c-.2-1.32-.22-4,2.74-4.78,4-.87,12.41-2.94,10.34-8.63,1.89.44,2.31,2.58,2.39,3.25a5.15,5.15,0,0,1,4-5.49c4.66-1.38,4.72-5.75,3.48-9.77A11.67,11.67,0,0,1,90.29,59a8.79,8.79,0,0,1-3.81,7.25c-2.73,2.15-3.63,3.34-3.63,4.35h0a2.82,2.82,0,0,0,.6,1.55,1,1,0,0,1-.58.19h0c-1.11,0-2.5-1.67-2.65-1.85h0a3.64,3.64,0,0,1,0,.59c0,1.06-.38,3.37-3.31,5.23.11-.51.16-.8.16-.8h-.25A21.91,21.91,0,0,0,65.91,79m15.5-10h0l0-.2h0a1.12,1.12,0,0,0,0,.2h0" fill="#361514"/><path id="path8244" d="M37.25,15c-2.42-3.51-2.06-10.3,9-13.32,0,0-11.14,3.63-9,13.32" fill="#b63b20"/><path id="path8246" d="M27.74,17a4.42,4.42,0,0,1-1.29-.18,11.18,11.18,0,0,0,7.39-5.51c.4,3.54-3.27,5.69-6.1,5.69" fill="#b63b20"/><path id="path8248" d="M41.59,18.48c-4-1.91-5.26-6.86-1.43-9.73a8.83,8.83,0,0,0,1.43,9.73" fill="#b63b20"/><path id="path8250" d="M63.73,131.78h0a4.89,4.89,0,0,0,4.44-2.71,4.89,4.89,0,0,1-4.44,2.71" fill="#e35e1b"/><path id="path8252" d="M58.19,101.36l.05-.11a.37.37,0,0,1-.05.11h0" fill="#7e1c1a"/><path id="path8254" d="M57.45,130.09c-5.41-.24-3.5-8.77-3.5-8.77s-1.91.88-2.07,4.15c-.1,2-.74,4.15-2.42,4.15a2.84,2.84,0,0,1-1.25-.33c-2.58-1.25-2.47-4.12-.43-7.76-.19.3-.37.61-.55.93,1.22-2.22,2.74-4,3.63-5.62.94-2.29,2.13-4.87,3.53-7.78-2.29,4.91-3.49,7.67-1.76,9.3a2.21,2.21,0,0,0,1.6.63,6.71,6.71,0,0,0,1.77-.33,6.92,6.92,0,0,1,1.83-.33,2.6,2.6,0,0,1,1.62.52,4,4,0,0,0,2.27.89c1.28,0,2-1.15.61-3.76-2.08-4,0-12.86,4.25-20.58,4-7.2,5.36-12.16,2.32-12.16a4,4,0,0,0-.73.08c-4,.79-7.13,3.37-6.94,7.92.17,3.75-1.54,7.57-3,10.12a.37.37,0,0,0,.05-.11l.06-.11A16.15,16.15,0,0,0,59.76,94a31.39,31.39,0,0,0-.93-7.27C63,85,64.67,82.53,65,80.66l0,0c.33.78.79,1,1.79,1h.57a1.54,1.54,0,0,1-.27-.86c0-1.08,1.11-2.33,3.46-2.33a17.55,17.55,0,0,0,6.38-2.23,40.22,40.22,0,0,1-6.06,13.63c-5,7.18-7,13.31-7.72,21.94,0,.39-.05.76-.05,1.11,0,6.25,6,6.35,6,11.89v.1a10.54,10.54,0,0,1-.45,3,3.38,3.38,0,0,1-2.85,1.68l-.44,0c-2.71-.4-.72-5.1-2.55-6.54.4,3.83-1.75,7-5.35,7" fill="#e35e1b"/><path id="path8256" d="M66.78,81.71h0m0,0c-1,0-1.46-.22-1.79-1,.33.78.79,1,1.79,1m.44,0h0m.1,0h0" fill="#651d15"/><path id="path8258" d="M66.06,79.7l-.59-.46.44-.27a4.62,4.62,0,0,0,.15.73" fill="#441715"/><path id="path8260" d="M58.83,86.7h0C63,85,64.67,82.53,65,80.66l0,0,0,0c-.28,1.87-2,4.33-6.12,6m8-5h0m0,0h0m.49,0h0" fill="#762118"/><path id="path8262" d="M58.83,86.7c-.21-.89-.38-1.41-.38-1.41a32.9,32.9,0,0,1,7-6.05l.59.46a4.62,4.62,0,0,1-.15-.73,21.91,21.91,0,0,1,10.91-3.5h.25s0,.29-.16.8a17.55,17.55,0,0,1-6.38,2.23c-2.35,0-3.46,1.25-3.46,2.33h0a1.54,1.54,0,0,0,.27.86h-.57c-1,0-1.46-.22-1.79-1l0,0c-.28,1.87-2,4.33-6.12,6h0" fill="#2f1513"/><path id="path8264" d="M68.17,129.06h0" fill="#e35e1b"/><path id="path8266" d="M57.18,133.33a6,6,0,0,1-3.49-.93,8.25,8.25,0,0,1-2.46.4,5.35,5.35,0,0,1-5.68-5.23,5.35,5.35,0,0,0,5.68,5.23,8.25,8.25,0,0,0,2.46-.4,6,6,0,0,0,3.49.93c1.85,0,3.78-.58,4.54-1.9a6.19,6.19,0,0,0,1.73.35,6.19,6.19,0,0,1-1.73-.35c-.76,1.32-2.69,1.9-4.54,1.9m11-4.26h0m0,0a6.38,6.38,0,0,0,.46-1.09h0a6.73,6.73,0,0,1-.46,1.09m-22.45-2.83a15.07,15.07,0,0,1,1.5-3.76,15.07,15.07,0,0,0-1.5,3.76" fill="#c7661d"/><path id="path8268" d="M57.18,133.33a6,6,0,0,1-3.49-.93,8.25,8.25,0,0,1-2.46.4,5.24,5.24,0,0,1-5.5-6.58h0a15.07,15.07,0,0,1,1.5-3.76c.18-.32.36-.63.55-.93-2,3.64-2.15,6.51.43,7.76a2.84,2.84,0,0,0,1.25.33c1.68,0,2.32-2.17,2.42-4.15C52,122.2,54,121.32,54,121.32s-1.91,8.53,3.5,8.77c3.6,0,5.75-3.19,5.35-7,1.83,1.44-.16,6.14,2.55,6.54l.44,0A3.38,3.38,0,0,0,68.64,128a6.38,6.38,0,0,1-.46,1.09h0a4.89,4.89,0,0,1-4.44,2.71h-.28a6.19,6.19,0,0,1-1.73-.35c-.76,1.32-2.69,1.9-4.54,1.9" fill="#b22a22"/><path id="path8270" d="M55,119.65a5.47,5.47,0,0,0-.24.52c-.14.33-.34.8-.54,1.38-.11.29-.2.61-.31,1s-.19.69-.28,1.06-.18.75-.24,1.15c0,.2-.07.4-.1.6l-.07.6c-.06.4-.07.81-.09,1.2s0,.8,0,1.18v.28l0,.28c0,.18,0,.36,0,.54a9.72,9.72,0,0,0,.12,1c0,.3.07.58.13.83s.1.46.13.63c.08.36.12.57.12.57s-.09-.19-.23-.53c-.08-.17-.16-.38-.26-.61a8.15,8.15,0,0,1-.25-.82c-.05-.15-.09-.31-.14-.47s-.06-.34-.1-.52a9.65,9.65,0,0,1-.15-1.13c0-.2,0-.4,0-.6l0-.31v-.31a10.76,10.76,0,0,1,.07-1.26c0-.21.05-.42.08-.63l.12-.62c.07-.4.2-.8.29-1.18s.25-.73.39-1.07.27-.65.41-.93.29-.53.41-.75.25-.41.36-.56a4.53,4.53,0,0,1,.35-.45" fill="#732318"/><path id="path8272" d="M60.89,120.12a2.13,2.13,0,0,1,.43.27l.21.17.24.23.24.28a3.15,3.15,0,0,1,.25.33c.07.12.16.24.24.38s.14.27.21.42a3.85,3.85,0,0,1,.19.47,2.91,2.91,0,0,1,.16.5,7.51,7.51,0,0,1,.21,1.09c0,.19,0,.38,0,.56v.57c0,.38,0,.76-.08,1.13a8.83,8.83,0,0,1-.19,1.07,7,7,0,0,1-.25,1l-.28.86a6.9,6.9,0,0,1-.3.71l-.24.52c-.14.3-.23.47-.23.47l.11-.51c0-.15.08-.34.13-.56s.13-.46.17-.73.11-.57.18-.87.1-.64.16-1c0-.17.05-.34.07-.51s0-.35.05-.52a9.73,9.73,0,0,0,.06-1.07v-.54c0-.18,0-.35,0-.53a10.2,10.2,0,0,0-.15-1,3.72,3.72,0,0,0-.11-.48,3,3,0,0,0-.13-.45l-.15-.42-.18-.38a3.65,3.65,0,0,0-.18-.34l-.18-.29-.18-.26-.17-.21-.25-.27-.09-.09" fill="#732318"/><path id="path8274" d="M76.49,99.25l-.1.07-.25.23c-.11.09-.24.22-.39.36s-.29.31-.45.5-.31.41-.47.63a3.28,3.28,0,0,0-.22.37l-.12.18-.09.21c-.07.13-.13.27-.2.4l-.15.45-.09.22,0,.23-.1.47c0,.31-.09.63-.1.94s0,.64,0,.94.07.59.1.87.13.54.18.78l.07.35.09.31.15.51c.08.28.12.45.12.45s-.09-.14-.24-.4l-.26-.47-.15-.29-.13-.35c-.09-.24-.19-.5-.29-.78s-.13-.6-.2-.92a2.63,2.63,0,0,1,0-.49c0-.17,0-.34,0-.51,0-.35.06-.71.09-1.05l.13-.51.06-.27.1-.24c.06-.16.12-.32.19-.48s.17-.29.24-.43l.13-.22.14-.19c.1-.13.18-.25.28-.37a5.47,5.47,0,0,1,.59-.59,4.85,4.85,0,0,1,.56-.44,4.12,4.12,0,0,1,.46-.27l.32-.16.11,0" fill="#732318"/><path id="path8276" d="M81.38,99.45a2.29,2.29,0,0,1,.3.25,2.16,2.16,0,0,1,.29.35,3.33,3.33,0,0,1,.33.5l.16.31.13.34a5.22,5.22,0,0,1,.23.76c0,.13.05.27.08.41a2,2,0,0,1,0,.43,6.19,6.19,0,0,1,0,.86l0,.44c0,.15,0,.29,0,.43a6.67,6.67,0,0,1-.14.82c-.07.27-.12.53-.2.76s-.14.46-.22.66a4,4,0,0,1-.22.54c-.08.16-.14.3-.2.41s-.18.35-.18.35,0-.15.06-.39.12-.59.18-1c0-.2.07-.43.12-.66s.06-.49.1-.75,0-.25,0-.38l0-.41c0-.13,0-.27,0-.4v-.41a7.45,7.45,0,0,0,0-.82,6.46,6.46,0,0,0-.07-.78,7.13,7.13,0,0,0-.13-.72l-.08-.33L82,100.7c-.07-.2-.14-.37-.2-.53s-.13-.28-.19-.39l-.15-.25-.05-.08" fill="#732318"/><path id="path8278" d="M81.76,108.08h0m0,0h0m0,0a4.1,4.1,0,0,0,3.58-4.35,7.46,7.46,0,0,0-.26-1.87v0c.66,2.49.24,5.56-3.32,6.26m-11.62-4.64a9.52,9.52,0,0,1,.33-1.41,9.52,9.52,0,0,0-.33,1.41" fill="#ca661d"/><path id="path8280" d="M77.06,109.3h0m0,0a8.45,8.45,0,0,0,4.65-1.18,8.45,8.45,0,0,1-4.65,1.18m-3.73-.55h0m0,0a1.82,1.82,0,0,0,.76-.16,1.82,1.82,0,0,1-.76.16m8.41-.67h0M70.2,103.47v0" fill="#b5461f"/><path id="path8282" d="M77.06,109.3h0a4.84,4.84,0,0,1-2.92-.72h0a1.82,1.82,0,0,1-.76.16h0c-1.53,0-3.21-1.72-3.22-4.27a6,6,0,0,1,.09-1v0h0a9.52,9.52,0,0,1,.33-1.41v0c-.14.92-.51,3.93.73,4.76a.8.8,0,0,0,.4.16c.75,0,.17-2.63,2-4.94-.07.15-.13.31-.19.47l-.1.24-.06.27-.13.51c0,.34-.09.7-.09,1.05,0,.17,0,.34,0,.51a2.63,2.63,0,0,0,0,.49c.07.32.14.63.2.92s.2.54.29.78l.13.35.15.29.26.47c.15.26.24.4.24.4h0s0-.17-.12-.45l-.15-.51-.09-.31L74,107.1q-.08-.36-.18-.78c0-.28-.06-.57-.1-.87s0-.62,0-.94.06-.63.1-.94l.1-.47,0-.23,0-.07c-.24,2.38.81,4.46,3,4.55h.24c2.29,0,5-1.18,5.1-4.74a1.77,1.77,0,0,1,0,.23,7.45,7.45,0,0,1,0,.82v.41c0,.13,0,.27,0,.4l0,.41c0,.13,0,.25,0,.38s0,.51-.1.75-.08.46-.12.66c-.06.42-.14.76-.18,1s-.06.39-.06.39h0l0,0a8.45,8.45,0,0,1-4.65,1.18h0m4.71-1.23s.07-.12.18-.35.12-.25.2-.41a4,4,0,0,0,.22-.54c.08-.2.15-.42.22-.66s.13-.49.2-.76a6.67,6.67,0,0,0,.14-.82c0-.14,0-.28,0-.43l0-.44a4.19,4.19,0,0,0,0-.61c.33,1.48.33,2.62,1.14,2.62h.08c1-.08,1.39-1.71,1-3.83a7.46,7.46,0,0,1,.26,1.87,4.1,4.1,0,0,1-3.58,4.35h-.06" fill="#8f221d"/><path id="path8284" d="M74.44,108.72s-.09-.14-.24-.4l-.26-.47-.15-.29-.13-.35c-.09-.24-.19-.5-.29-.78s-.13-.6-.2-.92a2.63,2.63,0,0,1,0-.49c0-.17,0-.34,0-.51,0-.35.06-.71.09-1.05l.13-.51.06-.27.1-.24c.06-.16.12-.32.19-.47a5.67,5.67,0,0,1,.67-.74A6.91,6.91,0,0,0,74,102.8l0,.07,0,.23-.1.47c0,.31-.09.63-.1.94s0,.64,0,.94.07.59.1.87.13.54.18.78l.07.35.09.31.15.51c.08.28.12.45.12.45" fill="#591715"/><path id="path8286" d="M81.77,108.07h0s0-.15.06-.39.12-.59.18-1c0-.2.07-.43.12-.66s.06-.49.1-.75,0-.25,0-.38l0-.41c0-.13,0-.27,0-.4v-.41a7.45,7.45,0,0,0,0-.82,1.77,1.77,0,0,0,0-.23,9.15,9.15,0,0,0-.11-1.68,8,8,0,0,1,.75,2.12,4.19,4.19,0,0,1,0,.61l0,.44c0,.15,0,.29,0,.43a6.67,6.67,0,0,1-.14.82c-.07.27-.12.53-.2.76s-.14.46-.22.66a4,4,0,0,1-.22.54c-.08.16-.14.3-.2.41s-.18.35-.18.35h0" fill="#591715"/><path id="path8288" d="M85.31,92.19c-.09,0,0-.2.23-.66,4.63-7.1,3.62-13.18,3.62-13.18,2.73,6.34-3.27,13.84-3.85,13.84" fill="#f2aa0e"/><path id="path8290" d="M99.05,55.52c7.44-15.72-6.81-33.16-6.81-33.16,13.18,13.82,11.27,25.51,6.81,33.16" fill="#f2aa0e"/><path id="path8292" d="M55.62,117.82c-1.17,0-2.82-2.71-1.27-6.7,2-5.18,6.17-11.12,6.43-11.12.07,0-.09.32-.53,1.07,0,0-4.63,9.73-3.87,13.55.45,2.23-.07,3.2-.76,3.2" fill="#f9b010"/></g></g></g></g></svg>