<svg xmlns="http://www.w3.org/2000/svg" viewBox="0 0 130.9 133.33"><title>Mouse</title><g id="Layer_2" data-name="Layer 2"><g id="svg2"><g id="g10"><g id="g12"><path id="path3346" d="M130.49,43a10.37,10.37,0,0,0-5.72-.93c-.28,0-1.58.27-1.12-.33a3.59,3.59,0,0,1,.74-.61,6.45,6.45,0,0,1,1.57-.74c1.61-.54,3.18-1.16,3.8-2.89a1.18,1.18,0,0,0-.33-1.44c-.59-.42-1.55-.05-2.13.16-1,.38-1.94.88-2.89,1.34-.49.24-1,.45-1.5.68s-2,.75-1.63-.29c.23-.63,1-1.15,1.54-1.55a16.84,16.84,0,0,0,1.45-1.23c1-.93,1.94-2.54.71-3.67s-2.57,1.21-3,1.89c-1.23,1.72-3,3-4.45,4.57a7.5,7.5,0,0,1,.11-1.18,23.83,23.83,0,0,0,.52-3c0-1.29-1.82-3.63-3.2-2.45-.58.48-.17,1.42,0,2,.55,1.47-.36,3.3-.8,4.69a14.05,14.05,0,0,0-.76,3.56,5.47,5.47,0,0,1-.52,2.28,15.44,15.44,0,0,1-1.29,1.93l0,.14a1.38,1.38,0,0,0,.17,1.51c.53.76,1.5.36,2.2.16a4.86,4.86,0,0,1,2.09-.3,6.54,6.54,0,0,1,1.73.77,3.74,3.74,0,0,0,2.84.26c1.15-.35,1.8-1.42,2.55-2.27,1-1.07,2.58-.9,3.86-.64,1.07.22,2.1.63,3.16.13a1.59,1.59,0,0,0,.77-1.42,1.52,1.52,0,0,0-.41-1.08" fill="#ec8793"/><path id="path3348" d="M122.91,38.28c.47-.21.94-.41,1.4-.63h0l-1.39.62m-1.68,0a.71.71,0,0,1,0-.27c.23-.63,1-1.15,1.54-1.55a16.84,16.84,0,0,0,1.45-1.23,5.19,5.19,0,0,0,.88-1.12,5.19,5.19,0,0,1-.88,1.12,16.84,16.84,0,0,1-1.45,1.23c-.5.4-1.31.92-1.54,1.55a.71.71,0,0,0,0,.27M117.48,38l.29-.31-.29.31m0,0a8.31,8.31,0,0,1,.11-1.14,23.83,23.83,0,0,0,.52-3h0a23.83,23.83,0,0,1-.52,3,8.31,8.31,0,0,0-.11,1.14" fill="#ebacba"/><path id="path3350" d="M119.43,48.15a2.89,2.89,0,0,1-1-.16,19.93,19.93,0,0,1-1.84-.94l0,0h0a3.3,3.3,0,0,0-2.35-.83,5.86,5.86,0,0,1,1.68-1.42h0l-.12,0c-.26,0-.65-.28-.89-.36l-.07,0a2.85,2.85,0,0,0-.49,0c-.39,0-.85,0-.94.23a4.17,4.17,0,0,0,.47-1.72,1,1,0,0,0,0-.17,3.23,3.23,0,0,0-.07-.5c0-.71,0-1.43,0-2.13v0a11.33,11.33,0,0,1,.11-1.43,12.84,12.84,0,0,0-.57,2.74h0a14.89,14.89,0,0,1,.75-3.35,13.09,13.09,0,0,0,1-3.66,3,3,0,0,0-.17-1,3.83,3.83,0,0,1-.34-1.27.86.86,0,0,1,.3-.7l.07-.06a2.12,2.12,0,0,0,.06.84,5.44,5.44,0,0,0,1,1.59,1.44,1.44,0,0,0,1.2.66h0c.55,0,.81-.24.89-.58a23.83,23.83,0,0,1-.52,3,8.31,8.31,0,0,0-.11,1.14v0h0l.29-.31c.34-.34.69-.67,1-1a1.34,1.34,0,0,0-.1.45c0,.34.35.47.62.5h.08c.55,0,1.1-.63,1.41-1A7.46,7.46,0,0,1,122.67,35a5.38,5.38,0,0,0,2-1.68,2.18,2.18,0,0,0,.45-1.56,2,2,0,0,1,0,2.36,5.19,5.19,0,0,1-.88,1.12,16.84,16.84,0,0,1-1.45,1.23c-.5.4-1.31.92-1.54,1.55a.71.71,0,0,0,0,.27c0,.25.2.34.46.34a3.52,3.52,0,0,0,1.22-.32h0l1.39-.62-.76.52a2.57,2.57,0,0,0-1.15,1.37c-.12.45,0,.61.34.61a7.24,7.24,0,0,0,2.16-.87c.49-.15,1-.12,1.51-.24a4.3,4.3,0,0,0,1.15-.53,4,4,0,0,0,1.8-1.56.89.89,0,0,0,.06-.87h0a1,1,0,0,1,.44.87,1.69,1.69,0,0,1-.11.57c-.62,1.73-2.19,2.35-3.8,2.89a6.45,6.45,0,0,0-1.57.74,3.59,3.59,0,0,0-.74.61.42.42,0,0,0-.09.22c0,.15.21.19.46.19a5,5,0,0,0,.75-.08h.06a3.11,3.11,0,0,0-1.33.72.48.48,0,0,0,0,.77.63.63,0,0,0,.4.11,4.81,4.81,0,0,0,1-.19,3.74,3.74,0,0,1,.78-.09,4.83,4.83,0,0,1,2,.54,4.13,4.13,0,0,0,1.66.43,2.19,2.19,0,0,0,.36,0,1.23,1.23,0,0,0,1-1.14,1.86,1.86,0,0,1,.25.9,1.59,1.59,0,0,1-.77,1.42,1.42,1.42,0,0,0,.73-1.11,1.39,1.39,0,0,1-.3.47,1.93,1.93,0,0,1-1.44.54,5.06,5.06,0,0,1-1.61-.31c-.69-.11-1.37-.27-1.85-.32a4.89,4.89,0,0,0-.54,0,3.68,3.68,0,0,0-1.53.31c-.8.37-1.27,1.26-1.78,1.93a3,3,0,0,1-2.38,1.13m-3.08-10.83a.69.69,0,0,0-.51.23c-.65.69-.55,2.25-.48,3.08.09,1.1.32,2,1.36,2.44.8.36.54,1.21.66,1.87a1.92,1.92,0,0,0,.58,1,2.37,2.37,0,0,0,1.65.66,1.84,1.84,0,0,0,1.86-1.36,5.25,5.25,0,0,0-2.35-5.37l-.07,0a.15.15,0,0,0-.16.2c0,.07.31.8.2.8h0a5.1,5.1,0,0,1-.86-.6c-.32-.25-1.33-1.49-1.13-2l0-.08v0l-.09-.28a.82.82,0,0,0-.71-.47" fill="#d65769"/><path id="path3352" d="M117.3,36.07a7.66,7.66,0,0,0-.16,2.34c.1.93,1,1.51,1.67,2l0,0c-.39-.57-1-.93-1.24-1.59l0,0a.9.9,0,0,1-.11-.86,8.83,8.83,0,0,1,.11-1.06,23.83,23.83,0,0,0,.52-3,2.8,2.8,0,0,0-.45-1.36,5.66,5.66,0,0,1-.36,3.63" fill="#cb3652"/><path id="path3354" d="M123.66,42.56c.38-.13.79-.2,1.18-.33a5.27,5.27,0,0,1,.91-.23,8.16,8.16,0,0,0-1,.11c-.28,0-1.58.27-1.12-.33a3.59,3.59,0,0,1,.74-.61,6.45,6.45,0,0,1,1.57-.74c1.61-.54,3.18-1.16,3.8-2.89a1.24,1.24,0,0,0,.09-.38,3.52,3.52,0,0,1-1.35,1.92c-1.46,1-3.29,1.32-4.86,2.18a1.18,1.18,0,0,0-.5.78c0,.3.26.45.52.52" fill="#cb3652"/><path id="path3356" d="M130.56,44.9c-.77.8-2.06.57-3,.23-.69-.11-1.37-.27-1.85-.32a4,4,0,0,0-2.07.28c-.8.37-1.27,1.26-1.78,1.93a3.05,3.05,0,0,1-3.34,1c-.75-.25-1.38-.79-2.14-1.06a3.47,3.47,0,0,0-2.09,0c-.51.13-1,.32-1.52.4s-.93-.58-.91-1.13l.17-.09a8,8,0,0,0,1.57-2.54c.43-1.12.17-2.32.3-3.48v0a11.33,11.33,0,0,1,.11-1.43,11.87,11.87,0,0,0-.58,3,5.47,5.47,0,0,1-.52,2.28,15.44,15.44,0,0,1-1.29,1.93l0,.14a1.38,1.38,0,0,0,.17,1.51c.53.76,1.5.36,2.2.16a4.86,4.86,0,0,1,2.09-.3,6.54,6.54,0,0,1,1.73.77,3.74,3.74,0,0,0,2.84.26c1.15-.35,1.8-1.42,2.55-2.27,1-1.07,2.58-.9,3.86-.64,1.07.22,2.1.63,3.16.13a1.42,1.42,0,0,0,.73-1.11,1.39,1.39,0,0,1-.3.47" fill="#cb3652"/><path id="path3358" d="M122,38.94a12.39,12.39,0,0,0,1.54-.81l1.46-.82-.6.29c-.49.24-1,.45-1.5.68s-2,.75-1.63-.29c.23-.63,1-1.15,1.54-1.55a16.84,16.84,0,0,0,1.45-1.23c.85-.83,1.72-2.19,1-3.28a2.37,2.37,0,0,1,0,1.38,3.81,3.81,0,0,1-1.36,1.58l-.16.16c-.91.88-2.12,1.5-2.67,2.7a.88.88,0,0,0,.08,1,1.05,1.05,0,0,0,.85.24" fill="#cb3652"/><path id="path3360" d="M119.13,39.56l0,0A7.87,7.87,0,0,1,122,44.84h.06a5.77,5.77,0,0,0-3-5.27" fill="#cb3652"/><path id="path3362" d="M129.13,36.19a4.7,4.7,0,0,0-3.08.8,14.66,14.66,0,0,0-3.13,2.16l0,.05a25.07,25.07,0,0,1,2.74-1.71,8.41,8.41,0,0,1,3.43-1.18v-.12" fill="#fabac6"/><path id="path3364" d="M130.31,43.39a5.24,5.24,0,0,0-2.89-1.34,5.36,5.36,0,0,0-3.3.56l0,.07a6.27,6.27,0,0,1,3.21-.31,8.88,8.88,0,0,1,2.87,1.11l.08-.09" fill="#fabac6"/><path id="path3366" d="M124.28,31.32a3.92,3.92,0,0,0-2.23,2.08,9.43,9.43,0,0,1-1.45,1.82,10.08,10.08,0,0,0-1.5,1.63l.05,0a31.74,31.74,0,0,0,2.59-2.46c.83-1.06,1.28-2.4,2.58-3l0-.11" fill="#fabac6"/><path id="path3368" d="M115.19,31.36l0,.08c1.22-.56,2.1,1,2.54,1.9h.09c.16-1-1.7-2.8-2.68-2" fill="#fabac6"/><path id="path3370" d="M118.77,41.13c-.17-1.08-1.37-1.73-1.76-2.72H117a4.12,4.12,0,0,0,.87,1.62,2.43,2.43,0,0,1,.13,3.11l.06.08a2.34,2.34,0,0,0,.76-2.1" fill="#fabac6"/><path id="path3372" d="M120.28,41.08l0,0a4.59,4.59,0,0,1,.75,4.54l.1.06c1.26-1.27.25-3.6-.81-4.63" fill="#fabac6"/><path id="path3374" d="M72.25,122.34a2.41,2.41,0,0,0-1-2.14,8,8,0,0,1-1.88-2.44,2.16,2.16,0,0,0-3.61-.68c-1.41,1.2-2.07,3.07-3.54,4.19a15.09,15.09,0,0,1-4.9,2,13.85,13.85,0,0,1-3,.14,15.81,15.81,0,0,1-3.43-.38c-1.43-.37-3.13-1.23-4.58-.41-1.11.62-2.11,1.92-.92,2.95-.9,1.45-.91,3.61,1,3.91a1.82,1.82,0,0,0,.63,1.21,3.94,3.94,0,0,0,3.67.57A2.85,2.85,0,0,0,52.44,133c2.93,1.06,5.88-.6,8.07-2.41,1.52-1.25,4.29-3.42,5.93-4.54,1.83-1.25,5.52-.45,5.81-3.71" fill="#ec8793"/><path id="path3376" d="M46.32,129.51h0m0,0h0m0,0a1.75,1.75,0,0,1-1.17-.68,1.75,1.75,0,0,0,1.17.68m-1.18-.69h0m15-6.43h0q.75-.34,1.47-.75h0c-.48.27-1,.53-1.47.76" fill="#ebacba"/><path id="path3378" d="M54.34,132.79h-.47c-1.28-.09-2.68-.67-2.85-2.1a1.33,1.33,0,0,1,.42-1.1,1,1,0,0,0,.48,1,2.69,2.69,0,0,0,1.65.49,6.8,6.8,0,0,0,2.52-.6A17.59,17.59,0,0,0,60.42,128c.72-.61,1.39-1.29,2.13-1.9a9.12,9.12,0,0,1,2.92-1.51c1.44-.5,3.11-1,4-2.29.24-.33.6-.89.36-1.32-.41-.73-1.35-.53-1.79-1.22l-.22-.06a3.26,3.26,0,0,0-.66.56,2.86,2.86,0,0,1-1.41.78,6.43,6.43,0,0,0-1.91.81,2.91,2.91,0,0,1-1.54.48h0a2.33,2.33,0,0,1-.36,0l-.38,0a.91.91,0,0,0-.23,0,3.5,3.5,0,0,1-.9.18,1.61,1.61,0,0,1-.37,0c.5-.23,1-.49,1.47-.76a5,5,0,0,0,1.09-.08h0a4.38,4.38,0,0,0,1.86-1h0l.08-.07a4.65,4.65,0,0,0,1-1.29c0,.28-.09.56-.12.84l-.11.24.11.07a4.78,4.78,0,0,1,1.26-.72,3.6,3.6,0,0,0,1-.86h0a2.26,2.26,0,0,0,.35-.61,2.61,2.61,0,0,0,.55.65,3,3,0,0,0,1.75.74h.15a6.92,6.92,0,0,0,.67.65,2.45,2.45,0,0,1,1.06,1.93c0,.06,0,.12,0,.18a2.13,2.13,0,0,0-.42-1.46,2.37,2.37,0,0,1-.45,2.7,6.41,6.41,0,0,1-3,1.22,10.12,10.12,0,0,0-2.54,1.1,29.49,29.49,0,0,0-3.75,2.83c-2.26,1.94-4.68,4.09-7.78,4.09m-5.13-1.93a2.81,2.81,0,0,1-2.14-.78,1.12,1.12,0,0,1,0-1.6h0a.57.57,0,0,0,.05.6,1.47,1.47,0,0,0,1.27.68,6.77,6.77,0,0,0,2.79-1.09,9.23,9.23,0,0,1,3.54-1.08,21.57,21.57,0,0,0,3.21-.45A10.69,10.69,0,0,0,60.63,126l-.06.08a11.3,11.3,0,0,1-2,1.47,3.51,3.51,0,0,1-1.63.33l-.72,0-.73,0h0a7.93,7.93,0,0,0-3.21.7,2.55,2.55,0,0,0-1.7,2.07v.19h-.07c-.4,0-.81.09-1.21.09h0M46.36,129a1.52,1.52,0,0,1-1-1.89,1.06,1.06,0,0,0,.37.07l.31,0a12.14,12.14,0,0,0,2.07-.88A5.37,5.37,0,0,1,50,126c.39,0,.78,0,1.17,0l.51,0,.41,0c.21,0,.42,0,.64,0h.68l.63,0a17.91,17.91,0,0,0,2.61-.49,23.83,23.83,0,0,0,2.73-.76,6.82,6.82,0,0,1-3.06,1.5,14.06,14.06,0,0,0,2.55-1.11l0-.07a18.74,18.74,0,0,1-6.3,1.5,5.25,5.25,0,0,1-.56,0c-.35,0-.7,0-1.05,0s-.7,0-1,0a5.82,5.82,0,0,0-.59,0,3.68,3.68,0,0,0-2,1,2.66,2.66,0,0,0-.87,1.38m25.89-6.67h0" fill="#d65769"/><path id="path3380" d="M45.32,125.6h0m0,0c-1-.9-.38-2,.53-2.68h0a2.3,2.3,0,0,0-1,1.65,1.36,1.36,0,0,0,.52,1" fill="#ebacba"/><path id="path3382" d="M52.94,125.39h-.53a9.31,9.31,0,0,1-3.25-.64,4.91,4.91,0,0,0-1.75-.5,2,2,0,0,0-.42,0,2.4,2.4,0,0,0-1.34.85c-.51-.46-.33-1,.06-1.41a1.27,1.27,0,0,0,.82.2,4.5,4.5,0,0,0,.77-.07,2.81,2.81,0,0,1,.65-.07,9.55,9.55,0,0,1,2.42.49,12.51,12.51,0,0,0,2.85.43h.26c.27,0,.55,0,.82,0h0a17.27,17.27,0,0,0,2.35-.27c.54-.08,1.08-.16,1.62-.27a11.45,11.45,0,0,1-1.1.57,11.81,11.81,0,0,1-4.26.67" fill="#d65769"/><path id="path3384" d="M37.29,67.34l-.13-.06c-1.26.06-2.36.48-3.64.19s-2-1.84-2.81-2.7a7.52,7.52,0,0,1-1.62-3.07,2.66,2.66,0,0,0-1-1.66c-1.28-.73-1.7,2-1.64,2.68a4.43,4.43,0,0,0,1,2.06,9.49,9.49,0,0,1,.89,1.46h0a15.48,15.48,0,0,1-2.95,1.3,12.28,12.28,0,0,1-3.58-.06,5.21,5.21,0,0,0-2.66,0,2.29,2.29,0,0,0-.93.9,1.35,1.35,0,0,0-.37.66l0,.08,0,0c0,.52.51,1,1.23,1.2,1.72.59,3.41,0,5.13-.22a2.31,2.31,0,0,1,1.6.15c.18.11-.39.45-.46.49a9.58,9.58,0,0,1-1.89.8,14.05,14.05,0,0,0-3,1.31c-.94.61-1.6,1.56-.84,2.57s2.65.36,3.61-.13a29.42,29.42,0,0,1,3.26-1.67c.38-.14,1.68-.64,1.76.07.09.91-1,2-1.41,2.77-.63,1.08-1.53,2.91-.4,4s2.55-.8,3-1.62a19.72,19.72,0,0,0,1-2.77c.36-1,1.6-1.2,2.4-1.64a8.24,8.24,0,0,0,2.05-1.62,11.1,11.1,0,0,1,2.53-2l0-.21a4.08,4.08,0,0,0,.4-1.19c.13-.7.24-1.69-.5-2.06" fill="#ec8793"/><path id="path3386" d="M19.62,75.49a1.42,1.42,0,0,1-.32-1.08,1.42,1.42,0,0,0,.32,1.08h0m8.31-.61a2,2,0,0,0,.32-1.12v.12a2.13,2.13,0,0,1-.32,1m-.84-8h0a12.86,12.86,0,0,1,1.23-.62c-.43.18-.83.41-1.23.62m.35-2.08-.17-.24h0l.17.24" fill="#ebacba"/><path id="path3388" d="M27.07,80.41a.82.82,0,0,1-.53-.2,1.76,1.76,0,0,1-.53-.75.72.72,0,0,0,.65.43h0c1.06,0,1.67-1.39,2-2.22.28-.67.93-2.13.41-2.83a.44.44,0,0,0-.38-.21,1.17,1.17,0,0,0-.58.22c.46-.77.68-1.52,0-1.77a1.55,1.55,0,0,0-.53-.09l-.35,0c.08-.84.11-1.69.11-2.53A10.41,10.41,0,0,0,28,71.86a3.92,3.92,0,0,0,.29.53.83.83,0,0,0,.09.16.63.63,0,0,0,.08.11,3.24,3.24,0,0,0,1.29,1.15,2,2,0,0,0,.79.15,3.72,3.72,0,0,0,2.19-.78c.93-.76.66-1.54-.39-2-.62-.24.28-1.28.33-1.7a2.71,2.71,0,0,0-.37-1.69,2.66,2.66,0,0,0-2-1.38,1.09,1.09,0,0,0-.6.17,1.08,1.08,0,0,0-.35.8,7.72,7.72,0,0,1-.12.82c-.08.33-.2.45-.35.45s-.6-.41-.78-.63-.35-.34-.47-.34-.2.1-.26.25a5.32,5.32,0,0,1,.14-.78c.32-.17.64-.35,1-.49h0a10,10,0,0,1,.22,1.66h.09a5.48,5.48,0,0,0-.24-2.61,3.27,3.27,0,0,0-.46-.77,1.15,1.15,0,0,0,.39.07c.37,0,.61-.23.4-.9a11.34,11.34,0,0,1-.62-1.61c-.07-.59-.06-1.19-.14-1.78a3.27,3.27,0,0,0-.14-.62,2.38,2.38,0,0,1,.42.79l0,.09c.18.38.28.79.42,1.18a7.71,7.71,0,0,0,1.4,2.54c.66.76,1.19,1.6,1.84,2.36a3.19,3.19,0,0,0,2.52.94h.12l-.19.16a10.11,10.11,0,0,0-1.06,1.2,10.24,10.24,0,0,1-.73,1.12v0l0,.1c.56,0,1.11-.1,1.66-.1a6.2,6.2,0,0,1,.86,0l.21,0a7.15,7.15,0,0,0-.68,1.55,10.8,10.8,0,0,1-2.71,2.16,5.65,5.65,0,0,0-1.88,1.18c-.65.75-.73,2.06-1.11,2.95a3.39,3.39,0,0,1-.67,1l0,.15c-.36.33-.88.83-1.4.83m-6.16-4.65a1.76,1.76,0,0,1-1.62-1.11,1.63,1.63,0,0,0,.33.84,1.35,1.35,0,0,1-.13-1.6,1.27,1.27,0,0,0,.06,1,.69.69,0,0,0,.65.34,4.73,4.73,0,0,0,1.59-.49c.51-.21,1.21-.44,1.91-.73l-.15.52h0l-.06.17c-.26.14-.51.28-.77.4a3.88,3.88,0,0,1-1.62.64h-.2m-.09-5.52-.36,0c-.82-.07-2.53-.4-2.28-1.31a.84.84,0,0,1,0-.31,1.12,1.12,0,0,0,.58.68,3.21,3.21,0,0,0,1.58.29h.45A16.51,16.51,0,0,0,24,69.3a4.11,4.11,0,0,0,.43-.1c0,.17,0,.33,0,.49A12.39,12.39,0,0,0,22.8,70a9.47,9.47,0,0,1-2,.29M32,66.39c-.47-.54-.88-1.18-1.29-1.62a7.52,7.52,0,0,1-1.62-3.07,2.66,2.66,0,0,0-1-1.66L28,60v0l.12.06a2.66,2.66,0,0,1,1,1.66,7.52,7.52,0,0,0,1.62,3.07c.41.44.82,1.08,1.29,1.62h0" fill="#d65769"/><path id="path3390" d="M27.27,64.54h0a3.8,3.8,0,0,1-.84-1.82,2.9,2.9,0,0,1,0-.74,2.9,2.9,0,0,0,0,.74,3.8,3.8,0,0,0,.84,1.82" fill="#df8297"/><path id="path3392" d="M28.54,72.75a.34.34,0,0,1-.09-.09,2.46,2.46,0,0,1-.17-.27c-.1-.17-.2-.35-.29-.53s-.2-.44-.29-.66a9.2,9.2,0,0,1-.33-1c0-.61,0-1.22-.1-1.82a.08.08,0,0,0,0,0,1.72,1.72,0,0,1,.09-.36,7.56,7.56,0,0,0,1.07,4.54c.1.18.12.24.1.24M28.11,65a2.68,2.68,0,0,1-.84-.43,3.8,3.8,0,0,1-.84-1.82,2.9,2.9,0,0,1,0-.74,4.85,4.85,0,0,1,.24-1c-.56,2.33.6,3,1.4,4" fill="#cd4356"/><path id="path3394" d="M28.45,72.66a.63.63,0,0,1-.08-.11.83.83,0,0,1-.09-.16,2.46,2.46,0,0,0,.17.27m-.46-.8a10.41,10.41,0,0,1-.61-1.37c0-.1,0-.2,0-.3a9.2,9.2,0,0,0,.33,1c.09.22.18.44.29.66m-.72-3.49c0-.49-.1-1-.17-1.46a.11.11,0,0,1,0,0c.4-.21.8-.44,1.23-.62h0a9.49,9.49,0,0,0-.89-1.46l-.17-.24a2.68,2.68,0,0,0,.84.43,3.27,3.27,0,0,1,.46.77,5.48,5.48,0,0,1,.24,2.61h-.09a10,10,0,0,0-.22-1.66h0c-.33.14-.65.32-1,.49a5.32,5.32,0,0,0-.14.78,1.72,1.72,0,0,0-.09.36.08.08,0,0,1,0,0" fill="#bd2f40"/><path id="path3396" d="M23.39,71.63l0,0h0" fill="#df8297"/><path id="path3398" d="M23.42,71.62h0l.82-.29c0,.05,0,.09,0,.14a6.28,6.28,0,0,0-.82.16" fill="#cd4356"/><path id="path3400" d="M17.83,69.06a1.35,1.35,0,0,1,.37-.66l.25-.34a1.72,1.72,0,0,0-.24.54.55.55,0,0,1,0-.18,1.31,1.31,0,0,0-.36.64" fill="#cd4356"/><path id="path3402" d="M20.73,70.65a5.16,5.16,0,0,1-1.68-.26c-.72-.25-1.23-.68-1.23-1.2l0,0,0-.08h0a1.31,1.31,0,0,1,.36-.64.55.55,0,0,0,0,.18.84.84,0,0,0,0,.31c-.25.91,1.46,1.24,2.28,1.31l.36,0a9.47,9.47,0,0,0,2-.29,12.39,12.39,0,0,1,1.58-.26c0,.15,0,.3,0,.46l-.18,0a22.89,22.89,0,0,1-3.45.48" fill="#bd2f40"/><path id="path3404" d="M26.67,76.83l.17-.3c.27-.46.77-1,1.09-1.65,0,.09-.1.18-.15.27a3.25,3.25,0,0,1,.37-.3,18.43,18.43,0,0,1-1.48,2" fill="#cd4356"/><path id="path3406" d="M27.78,75.15c0-.09.11-.18.15-.27a2.13,2.13,0,0,0,.32-1v-.12c0-.28-.25-.37-.54-.37a2.06,2.06,0,0,0-.48.07c0-.15,0-.29,0-.44l.35,0a1.55,1.55,0,0,1,.53.09c.68.25.46,1,0,1.77a3.25,3.25,0,0,0-.37.3" fill="#bd2f40"/><path id="path3408" d="M20.9,76.08a1.51,1.51,0,0,1-1.28-.59h0a1.63,1.63,0,0,1-.33-.84,1.76,1.76,0,0,0,1.62,1.11h.2a3.88,3.88,0,0,0,1.62-.64c.26-.12.51-.26.77-.4,0,0,0,.08,0,.11s-.07.32-.11.48l-.12.06a5.6,5.6,0,0,1-2.33.72" fill="#bd2f40"/><path id="path3410" d="M27.18,80.82a1,1,0,0,1-.74-.32,1.6,1.6,0,0,1-.36-.47,1.55,1.55,0,0,0,.26.37h0v0h0l0,0h0l0,0h0a1,1,0,0,0,.74.32c.95,0,1.91-1.29,2.28-1.94a19.72,19.72,0,0,0,1-2.77c.36-1,1.6-1.2,2.4-1.64a7.94,7.94,0,0,0,1.82-1.38h0a7.94,7.94,0,0,1-1.82,1.38c-.8.44-2,.69-2.4,1.64a19.72,19.72,0,0,1-1,2.77c-.37.65-1.33,1.94-2.28,1.94M26.08,80h0" fill="#df8297"/><path id="path3412" d="M26.43,80.49h0m0,0h0m0,0h0m0,0h0m0,0h0m0,0a1.55,1.55,0,0,1-.26-.37h0a1.86,1.86,0,0,1-.17-.73h0a1.69,1.69,0,0,0,.43,1.12M26,79.46a.72.72,0,0,1-.09-.2v-.05a1.83,1.83,0,0,0,.08.25m2-19.33a1.14,1.14,0,0,0-.19-.19L28,60a.5.5,0,0,1,.05.13" fill="#cd4356"/><path id="path3414" d="M27.18,80.82a1,1,0,0,1-.74-.32h0a1,1,0,0,0,.74.32c.95,0,1.91-1.29,2.28-1.94a19.72,19.72,0,0,0,1-2.77c.36-1,1.6-1.2,2.4-1.64a7.94,7.94,0,0,0,1.82-1.38h0a7.94,7.94,0,0,1-1.82,1.38c-.8.44-2,.69-2.4,1.64a19.72,19.72,0,0,1-1,2.77c-.37.65-1.33,1.94-2.28,1.94m-.76-.33,0,0,0,0m0,0,0,0,0,0m0,0h0m0,0v0m0,0h0" fill="#cc526d"/><path id="path3416" d="M27.18,80.82a1,1,0,0,1-.74-.32h0l0,0h0l0,0h0v0h0a1.69,1.69,0,0,1-.43-1.12v0a.72.72,0,0,0,.09.2,1.76,1.76,0,0,0,.53.75.82.82,0,0,0,.53.2c.52,0,1-.5,1.4-.83l0-.15a3.39,3.39,0,0,0,.67-1c.38-.89.46-2.2,1.11-2.95a5.65,5.65,0,0,1,1.88-1.18,10.8,10.8,0,0,0,2.71-2.16c-.09.3-.17.61-.23.92a7.94,7.94,0,0,1-1.82,1.38c-.8.44-2,.69-2.4,1.64a19.72,19.72,0,0,1-1,2.77c-.37.65-1.33,1.94-2.28,1.94M34.65,68a3.19,3.19,0,0,1-2.52-.94c-.65-.76-1.18-1.6-1.84-2.36a7.71,7.71,0,0,1-1.4-2.54c-.14-.39-.24-.8-.42-1.18l0-.09a2.38,2.38,0,0,0-.42-.79A.5.5,0,0,0,28,60l.12,0a2.66,2.66,0,0,1,1,1.66,7.52,7.52,0,0,0,1.62,3.07c.41.44.82,1.08,1.29,1.62.15.69,1,1,1.59,1.21a5.44,5.44,0,0,0,1.4.19h.08a2.25,2.25,0,0,0-.3.24h-.12" fill="#bd2f40"/><path id="path3418" d="M24.22,67.8c-.66-.06-1.32,0-2-.15s-1.09-.2-1.65-.24a2,2,0,0,0-2,.89l.06,0c1.52-1.29,3.82,0,5.6-.45v-.1" fill="#fabac6"/><path id="path3420" d="M25.6,71.31a29.38,29.38,0,0,0-3.84,1.17c-.94.41-2.08,1.18-2,2.33l.13,0c1-2.35,3.9-2.26,5.78-3.45l0-.07" fill="#fabac6"/><path id="path3422" d="M28.31,75c-.77,1.22-2.82,2.93-2,4.57l.12,0c-.11-1.71,1.29-3,1.92-4.51l-.06,0" fill="#fabac6"/><path id="path3424" d="M28.71,72.51A6.82,6.82,0,0,1,28,70.33a4.43,4.43,0,0,1,0-2.08l-.11-.09c-.56.5-.4,1.28-.27,1.94a5.89,5.89,0,0,0,1.09,2.45l.06,0" fill="#fabac6"/><path id="path3426" d="M31.46,67.37c-.32-.45-1.12-.87-1.6-.41a1.31,1.31,0,0,0-.36.84c0,.34,0,1-.46,1.12v0c.48.06.6-.46.69-.82s.11-.81.5-1,.81.15,1.15.3l.08-.1" fill="#fabac6"/><path id="path3428" d="M27.51,60.2c-.66.21-.86,1.08-.9,1.68a2.45,2.45,0,0,0,.77,2l.05-.05A3.29,3.29,0,0,1,27,62.08a3.85,3.85,0,0,1,.63-1.74l-.13-.14" fill="#fabac6"/><path id="path3430" d="M15.41,50.69a12.54,12.54,0,0,0-11.72,1C.29,53.84-.21,57.38.06,61a12.64,12.64,0,0,1,.68-3.12,9.08,9.08,0,0,1,8.18-6.32,13.9,13.9,0,0,1,10.24,4.16,19.25,19.25,0,0,1,4.3,19.09,34.93,34.93,0,0,1-4,9.71,33.46,33.46,0,0,0-4.09,9.66c-1.57,7.31,2.52,14.47,9.2,17.62A19.72,19.72,0,0,0,36.73,113a20.82,20.82,0,0,0,5.85-2c1.55-.9,2.3-2.75,3.38-4a37.82,37.82,0,0,0-6.11,1.32,24.68,24.68,0,0,1-6.32.83,14,14,0,0,1-10.45-5.3c-7.1-8.48.35-16.78,3-25.09a25.91,25.91,0,0,0,1-11.76c-1-6.65-5.32-13.56-11.69-16.22" fill="#a34750"/><path id="path3432" d="M12.34,50a11.42,11.42,0,0,0-8.86,2.2A7,7,0,0,0,.86,55.63l.13.06c2-4,7.17-5.21,11.32-4.57s7.38,4,9.5,7.36c4.83,7.63,3,16.37-.93,23.93-3.27,6.21-7.25,13-4.4,20.11s11.87,10.62,19,8.49a9.42,9.42,0,0,0,2-.72c.39-.22.66-1.45.23-1.37a19,19,0,0,1-12-1.31,13.28,13.28,0,0,1-7.23-10C17.63,92,22.3,85,24.86,78A22.94,22.94,0,0,0,22,56.25,17.48,17.48,0,0,0,12.34,50" fill="#ec8793"/><path id="path3434" d="M12.53,51.94c-.46-.11-.93-.19-1.39-.26h0a13.3,13.3,0,0,1,1.4.27h0" fill="#d96c85"/><path id="path3436" d="M12.53,51.94a13.3,13.3,0,0,0-1.4-.27,3.87,3.87,0,0,1-.21-.34A.85.85,0,0,1,10.8,51a12.45,12.45,0,0,1,1.51.15l.16,0a2.92,2.92,0,0,0,.08.77l0,0m.3-1.88L12.34,50c-.26-.05-.52-.09-.79-.12l.14-.08c.42,0,.83.1,1.24.18l-.1.13" fill="#8b232c"/><path id="path3438" d="M12.47,51.14l-.16,0A12.45,12.45,0,0,0,10.8,51a.81.81,0,0,1,.07-.41,11.56,11.56,0,0,1,1.66.19,2.63,2.63,0,0,0-.06.39m.22-.85a12.37,12.37,0,0,0-1.49-.18c.11-.1.23-.19.35-.28s.53.07.79.12l.49.11a1.76,1.76,0,0,0-.14.23" fill="#c93a4c"/><path id="path3440" d="M4.74,52.84h0a6.3,6.3,0,0,1,.72-.4h0c-.24.12-.48.25-.71.39" fill="#d96c85"/><path id="path3442" d="M4.73,52.84a2.81,2.81,0,0,1-.4-.51,9,9,0,0,1,.94-.44,3.57,3.57,0,0,0,.12.4l.06.15a6.3,6.3,0,0,0-.72.4M4,51.77c0-.09-.06-.17-.08-.25a12.23,12.23,0,0,1,1.18-.65,1.93,1.93,0,0,0,0,.24A12.47,12.47,0,0,0,4,51.77" fill="#8b232c"/><path id="path3444" d="M4.33,52.33a1.48,1.48,0,0,1-.16-.27c.34-.17.68-.33,1-.47,0,.1,0,.2.07.3a9,9,0,0,0-.94.44M4.12,52,4,51.77a12.47,12.47,0,0,1,1.11-.66,1.5,1.5,0,0,0,0,.22,11.89,11.89,0,0,0-1,.62" fill="#c93a4c"/><path id="path3446" d="M19.85,56.47c-.22-.25-.45-.5-.69-.74h0c.24.24.47.48.69.74h0m-.74-.79c-.18-.18-.36-.35-.56-.52h0l.55.52" fill="#d96c85"/><path id="path3448" d="M19.85,56.47c-.22-.26-.45-.5-.69-.74h0l-.05,0-.55-.52a2.12,2.12,0,0,1,.16-.56A18.64,18.64,0,0,1,20,56a3.37,3.37,0,0,0-.15.48m1-1.52a18.14,18.14,0,0,0-1.34-1.27l.09,0,.26-.13c.46.41.91.84,1.34,1.29l-.35.16" fill="#8b232c"/><path id="path3450" d="M20,56a18.64,18.64,0,0,0-1.28-1.39,2.07,2.07,0,0,1,.27-.45l.42.42c.3.31.58.62.86.94A2.27,2.27,0,0,0,20,56m.52-.76c-.4-.47-.81-.93-1.23-1.37l.25-.18A18.14,18.14,0,0,1,20.88,55a1.93,1.93,0,0,0-.36.28" fill="#c93a4c"/><path id="path3452" d="M27,75.29a3,3,0,0,0-1.1-.78c.14-.65.24-1.3.32-2a2.66,2.66,0,0,1,1.07.67h0c-.07.69-.17,1.38-.29,2.07" fill="#8b232c"/><path id="path3454" d="M23.7,74c.07-.24.13-.48.19-.72v0c0,.25-.12.49-.19.73h0" fill="#c93a4c"/><path id="path3456" d="M23.55,74.54,23.7,74h0l-.15.53h0" fill="#b82b38"/><path id="path3458" d="M23.56,74.54l.15-.53c.07-.24.14-.48.19-.73l.4-.3c-.09.47-.19.93-.3,1.4a1.91,1.91,0,0,0-.44.16" fill="#8b232c"/><path id="path3460" d="M25.85,74.51a2.92,2.92,0,0,0-.88-.22c0-.1,0-.2,0-.3H25c0,.1,0,.2-.06.3h-.38a4,4,0,0,0-.52.09c.11-.47.21-.93.3-1.4a2.9,2.9,0,0,1,.92-.45c0,.28,0,.55-.09.83h.08c0-.28.05-.56.08-.84a1.74,1.74,0,0,1,.39,0,1.67,1.67,0,0,1,.49.08c-.08.66-.18,1.31-.32,2" fill="#c93a4c"/><path id="path3462" d="M22.9,86.22a4.31,4.31,0,0,0-.48-1,2.17,2.17,0,0,0-.47-.49c.22-.46.43-.93.64-1.39a2.91,2.91,0,0,1,.88,1.6l-.57,1.24" fill="#8b232c"/><path id="path3464" d="M19.64,84.18c.21-.38.42-.75.62-1.13h0c-.2.38-.41.75-.62,1.12h0" fill="#d96c85"/><path id="path3466" d="M19.65,84.17c.21-.37.42-.74.62-1.12l.3-.06c-.2.38-.4.75-.59,1.13l-.25,0-.08,0" fill="#8b232c"/><path id="path3468" d="M22,84.77a3,3,0,0,0-1-.52c.21-.45.43-.89.64-1.34a1.77,1.77,0,0,1,.7.24,1.7,1.7,0,0,1,.3.23c-.21.46-.42.93-.64,1.39m-1.56-.64H20c.19-.38.39-.75.59-1.13l.44-.07-.62,1.21" fill="#c93a4c"/><path id="path3470" d="M20.2,94.42h0a13.58,13.58,0,0,1,.29-1.65h0c-.12.55-.22,1.1-.29,1.65" fill="#d96c85"/><path id="path3472" d="M20.2,94.42a4.34,4.34,0,0,0-1.48-1.11c.13-.56.28-1.12.45-1.69.27.19.52.4.74.59s.38.35.58.56a13.58,13.58,0,0,0-.29,1.65m-4.71-.8c.17-.68.36-1.35.59-2a3.67,3.67,0,0,1,.6-.36c-.24.68-.45,1.36-.62,2a3.25,3.25,0,0,0-.57.33" fill="#8b232c"/><path id="path3474" d="M18.72,93.31a3.16,3.16,0,0,0-.54-.2,3.41,3.41,0,0,0-.6-.1q.2-1,.48-2a3.32,3.32,0,0,1,1.11.56c-.17.57-.32,1.13-.45,1.69m-2.66,0c.17-.68.38-1.36.62-2a2.57,2.57,0,0,1,.76-.23q-.32,1-.54,2a2.94,2.94,0,0,0-.84.26" fill="#c93a4c"/><path id="path3476" d="M27,112.71a14.65,14.65,0,0,1-1.69-.58,2.4,2.4,0,0,1-.38-1.72,18.32,18.32,0,0,0,1.9.62l0,.16a2.8,2.8,0,0,0,.2,1.52" fill="#8b232c"/><path id="path3478" d="M29.22,108.23l-.65-.26h0l.64.26h0" fill="#d96c85"/><path id="path3480" d="M28.54,108.65c-.45-.13-.89-.28-1.35-.44a10.19,10.19,0,0,1,1.38-.24l.65.26a7.74,7.74,0,0,0-.68.42" fill="#8b232c"/><path id="path3482" d="M26.81,111a18.32,18.32,0,0,1-1.9-.62,2.57,2.57,0,0,1,.15-.5,3.17,3.17,0,0,1,.27-.52c.64.21,1.29.39,1.94.54a3.47,3.47,0,0,0-.46,1.1m.74-1.48c-.62-.18-1.23-.39-1.82-.62a3.34,3.34,0,0,1,1.46-.72c.46.16.9.31,1.35.44a5,5,0,0,0-1,.9" fill="#c93a4c"/><path id="path3484" d="M34.32,113.33a3.68,3.68,0,0,1-1-1.86,14.57,14.57,0,0,0,2.16-.46l.14,0a3.49,3.49,0,0,0,1.07,2,23.11,23.11,0,0,1-2.38.35" fill="#8b232c"/><path id="path3486" d="M34,109.06h0c.72,0,1.44-.06,2.14-.14h0a19.06,19.06,0,0,1-2.14.13" fill="#d96c85"/><path id="path3488" d="M33.82,109.35l.19-.29a19.06,19.06,0,0,0,2.14-.13,2.4,2.4,0,0,0-.16.27,20.3,20.3,0,0,1-2.17.15" fill="#8b232c"/><path id="path3490" d="M33.33,111.47a2.71,2.71,0,0,1,.13-1.39,3.54,3.54,0,0,1,.36-.73A20.3,20.3,0,0,0,36,109.2a1.24,1.24,0,0,0-.1.2,2.9,2.9,0,0,0-.26,1.57l-.14,0a14.57,14.57,0,0,1-2.16.46" fill="#c93a4c"/><path id="path3492" d="M19.69,108.38c-.38-.39-.74-.79-1.09-1.2a4.7,4.7,0,0,1-.17-1.38,12.69,12.69,0,0,0,1.38,1.46,3.54,3.54,0,0,0-.12,1.12" fill="#8b232c"/><path id="path3494" d="M24,104.72h0q-.45-.47-.87-1c.28.33.58.65.88,1m-.88-1,0-.06h0l0,.06" fill="#d96c85"/><path id="path3496" d="M22,104.9a13.07,13.07,0,0,1-1.23-1.55,3,3,0,0,1,.43,0,5,5,0,0,1,1.83.38l0,.06h0q.42.49.87,1l-.56,0a4.3,4.3,0,0,0-1.39.21" fill="#8b232c"/><path id="path3498" d="M19.81,107.26a12.69,12.69,0,0,1-1.38-1.46,2.87,2.87,0,0,1,.22-1,11.83,11.83,0,0,0,1.51,1.65,3.4,3.4,0,0,0-.35.84m.91-1.56A12.21,12.21,0,0,1,19.26,104a2.69,2.69,0,0,1,1.14-.54,2.38,2.38,0,0,1,.37-.06A13.07,13.07,0,0,0,22,104.9a3.21,3.21,0,0,0-1.28.8" fill="#c93a4c"/><path id="path3500" d="M27,66.45a2.85,2.85,0,0,0-.92-.38c-.07-.51-.17-1-.28-1.5a2.34,2.34,0,0,1,.45.07,2.67,2.67,0,0,1,.4.13c.14.56.26,1.12.35,1.68" fill="#8b232c"/><path id="path3502" d="M24.21,66.39c-.05-.35-.1-.7-.16-1h0c.07.34.12.69.17,1h0" fill="#d96c85"/><path id="path3504" d="M24.22,66.38c0-.34-.1-.69-.17-1a2.26,2.26,0,0,1,.34-.35c.08.4.14.8.19,1.2a3,3,0,0,0-.36.18" fill="#8b232c"/><path id="path3506" d="M24.58,66.2c0-.4-.11-.8-.19-1.2a2.5,2.5,0,0,1,.41-.25c.1.43.18.86.25,1.3a1.71,1.71,0,0,0-.3.09l-.17.06m1.51-.13a2.1,2.1,0,0,0-.56-.07h-.15c0-.47-.11-.93-.19-1.39a1.84,1.84,0,0,1,.47-.06h.15c.11.5.21,1,.28,1.5" fill="#c93a4c"/><path id="path3508" d="M31.25,110.36a18.58,18.58,0,0,1-4-.43,3.73,3.73,0,0,1,.28-.38,21.1,21.1,0,0,0,4,.73v.08h-.26m-5.92-1a14.94,14.94,0,0,1-5.17-3l.1-.15a2.94,2.94,0,0,1,.46-.57,15.1,15.1,0,0,0,5,3.23,2.59,2.59,0,0,0-.4.46m-6.68-4.62a10.8,10.8,0,0,1-2-4.5A17.75,17.75,0,0,1,16.9,93a3.15,3.15,0,0,1,.44,0h.24a17,17,0,0,0-.21,6.08A12,12,0,0,0,19.26,104a2.15,2.15,0,0,0-.61.82m-.59-13.71a1.75,1.75,0,0,0-.4,0h-.22a48.74,48.74,0,0,1,2.95-6.89,2.8,2.8,0,0,1,.56.12A51.46,51.46,0,0,0,18.77,89c-.26.69-.5,1.39-.71,2.1m3-8.14c.46-.91.93-1.82,1.38-2.72a.14.14,0,0,1,.13-.08c.09,0,.2.09.16.2-.32.89-.69,1.74-1.09,2.59h-.24l-.34,0" fill="#f8c0c7"/><path id="path3510" d="M21,84.25a2.8,2.8,0,0,0-.56-.12L21,82.92l.34,0h.24c-.21.45-.43.89-.64,1.34" fill="#eb909f"/><path id="path3512" d="M16.9,93q.23-1,.54-2h.22a1.75,1.75,0,0,1,.4,0q-.28,1-.48,2h-.24a3.15,3.15,0,0,0-.44,0" fill="#eb909f"/><path id="path3514" d="M27.27,109.93c-.65-.15-1.3-.33-1.94-.54a2.59,2.59,0,0,1,.4-.46c.59.23,1.2.44,1.82.62a3.73,3.73,0,0,0-.28.38" fill="#eb909f"/><path id="path3516" d="M20.16,106.42a11.83,11.83,0,0,1-1.51-1.65,2.15,2.15,0,0,1,.61-.82,12.21,12.21,0,0,0,1.46,1.75,2.94,2.94,0,0,0-.46.57l-.1.15" fill="#eb909f"/><path id="path3518" d="M25.22,72.53a26.89,26.89,0,0,0-.17-6.48,1.86,1.86,0,0,1,.33,0,33,33,0,0,1-.09,6.51h-.07m-.42-7.78a20.75,20.75,0,0,0-4.53-9.24,1.32,1.32,0,0,1,.25-.28,20.88,20.88,0,0,1,4.18,7.34,17.39,17.39,0,0,1,.49,2.05,1.79,1.79,0,0,0-.39.13M19,54.15a12.53,12.53,0,0,0-6.46-3.4,1.79,1.79,0,0,1,.16-.46,11.57,11.57,0,0,1,6.19,3.15l.41.42a2.76,2.76,0,0,0-.3.29m-15.08-2,0-.06L4.12,52a.54.54,0,0,0,0,.11l-.26.13m1.29-.6a2.34,2.34,0,0,1,0-.26,11.4,11.4,0,0,1,5.28-1.24c.25,0,.51,0,.76,0a1.41,1.41,0,0,0-.33.45h-.54a13.63,13.63,0,0,0-5.13,1" fill="#f8c0c7"/><path id="path3520" d="M12.53,50.75a11.56,11.56,0,0,0-1.66-.19,1.41,1.41,0,0,1,.33-.45,12.37,12.37,0,0,1,1.49.18,1.79,1.79,0,0,0-.16.46" fill="#eb909f"/><path id="path3522" d="M4.17,52.06a.54.54,0,0,1,0-.11,11.89,11.89,0,0,1,1-.62,2.34,2.34,0,0,0,0,.26c-.35.14-.69.3-1,.47" fill="#eb909f"/><path id="path3524" d="M20.27,55.51c-.28-.32-.56-.63-.86-.94L19,54.15a2.76,2.76,0,0,1,.3-.29c.42.44.83.9,1.23,1.37a1.32,1.32,0,0,0-.25.28" fill="#eb909f"/><path id="path3526" d="M25.21,73.36h-.08c0-.28.06-.55.09-.83h.07c0,.28-.05.56-.08.84" fill="#eb909f"/><path id="path3528" d="M25.05,66.05c-.07-.44-.15-.87-.25-1.3a1.79,1.79,0,0,1,.39-.13c.08.46.15.92.19,1.39a1.86,1.86,0,0,0-.33,0" fill="#eb909f"/><path id="path3530" d="M24.69,75.32l-.08,0c.06-.35.2-.67.29-1H25a5,5,0,0,1-.28,1" fill="#f8c0c7"/><path id="path3532" d="M25,74.29H24.9c0-.1.05-.2.06-.3H25c0,.1,0,.2,0,.3" fill="#eb909f"/><path id="path3534" d="M119,75.84a18.55,18.55,0,0,0-5.06-1.06c-2.27-.28-4.58-.35-6.87-.45a18.64,18.64,0,0,0-6.44.62,21.57,21.57,0,0,0-3.46,1.48c-.07-.26-.13-.52-.21-.77A61.46,61.46,0,0,0,94.12,68a22.68,22.68,0,0,1,1.68-4.45,26,26,0,0,1,5.35-7,36.09,36.09,0,0,1,7.34-5.22c1.41-.77,2.86-1.47,4.32-2.13a23,23,0,0,1,4.28-1.3l.13,0c-.15,0-.46-.76-.62-.92a3.3,3.3,0,0,0-2.35-.83,5.86,5.86,0,0,1,1.68-1.42c-.27.13-.82-.31-1.08-.36s-1.3-.08-1.43.2a3.91,3.91,0,0,0,.46-1.89c0-.28-.15-1.14-.54-1.41,0,.82-.83,1.18-1.4,1.66s-1.36.64-2,.91A20.19,20.19,0,0,1,105,45.36a25.5,25.5,0,0,1-5.31.27c-1.41-.05-2.83-.21-4.24-.2-.57-.12-1.14-.24-1.71-.33a7.34,7.34,0,0,0-4.94.69,6.26,6.26,0,0,0-1,.67,13.5,13.5,0,0,0-2.14-.73A26.19,26.19,0,0,0,79,45.05c-3.54,0-7.23,1-9.72,3.54a2,2,0,0,0-1.4-1c-2-.35-4,1.48-5.38,2.67a70.36,70.36,0,0,1-5.78,4.54c-1.89,1.3-3.89,2.41-5.86,3.58-1.48.63-3,1.14-4.53,1.66a37.44,37.44,0,0,0-6,2.77c-1.62.89-3.19,1.84-4.83,2.7-.71.38-3,1.65-3.42.45L32,66v.16c0,.85.9,1.25,1.62,1.45a5.27,5.27,0,0,0,1.48.19,4.74,4.74,0,0,0-.49.4,10.11,10.11,0,0,0-1.06,1.2,10.24,10.24,0,0,1-.73,1.12v0l0,.1a11.81,11.81,0,0,1,2.52,0l.21,0a9,9,0,0,0-1.06,3.32l.07,0v0l0,0c.48-1.37,2.53-2.24,3.81-2.66a30.07,30.07,0,0,1,6.27-1,29.63,29.63,0,0,1,6.59,0c1,.12,2.16.27,3.27.29-.29.48-.58,1-.85,1.48-.9,1.66-1.67,3.39-2.54,5.07a26.92,26.92,0,0,0-1.88,4.55A39.45,39.45,0,0,0,42.15,93a44.32,44.32,0,0,0-3.45,13.62,13.6,13.6,0,0,0,.53,5.88,9.28,9.28,0,0,0,3.07,4.07,10.28,10.28,0,0,0,5.56,2.15c2.39.19,4.81-.44,7.16-.75a16.08,16.08,0,0,0,6.6-2.23l.2.23a4.08,4.08,0,0,1,.53,1.87,3.87,3.87,0,0,1-1.76,3.81l0,0h0l0,.08a10.83,10.83,0,0,1,2-.25,4.38,4.38,0,0,0,1.86-1,4.8,4.8,0,0,0,1-1.37c0,.29-.09.57-.12.85l-.11.24.11.07a4.78,4.78,0,0,1,1.26-.72,3.6,3.6,0,0,0,1-.86,2.26,2.26,0,0,0,.35-.61,2.41,2.41,0,0,0,.55.65,2.6,2.6,0,0,0,2.14.68l0,0a3,3,0,0,0,.45.19l0-.11c-2-1.21-1.67-4.43-1.22-6.34a18.7,18.7,0,0,1,1-2.82,27.21,27.21,0,0,0,2.72.25A29.16,29.16,0,0,0,84,108.54,38.55,38.55,0,0,0,92.89,104a26.08,26.08,0,0,1,7-3.79c-.21,1.22-.33,2.46-.58,3.64a60.16,60.16,0,0,1-1.75,7.51,1.42,1.42,0,0,0-.27.79l.12,0c.26-.74,1-1,1.59-1.41a8.33,8.33,0,0,0,1.34-1.18,5.85,5.85,0,0,0,.59-.71,17.75,17.75,0,0,0,.59,3l0,0v.21h.15a5.87,5.87,0,0,1,2-3,3.13,3.13,0,0,0,.4,1.29c.35.63,1,1.47,1.76,1.46h0l.3.22.11-.13c-.77-.85-.33-2,0-2.94.46-1.11,1-2.18,1.56-3.24.23-.45.44-.91.66-1.37.52-.77,1.07-1.52,1.54-2.33.81-1.37,1.64-2.73,2.47-4.08,1.24-2,2.51-4,3.74-6.07a54.11,54.11,0,0,0,3.9-7.24c1.14-2.76,2.28-7.34-1.21-8.87" fill="#c18c45"/><path id="path3536" d="M76.45,53.27a11.94,11.94,0,0,1-6.58-2.6,22.24,22.24,0,0,0-4.32-2.62,4.65,4.65,0,0,1,1.27-.43l2.19.59a1.86,1.86,0,0,1,.3.38l.26-.25.19,0a18.77,18.77,0,0,0,2.67,1.26,14.26,14.26,0,0,1,2.21,1.82,3.92,3.92,0,0,0,2.41.77A4.22,4.22,0,0,0,78.6,52a6.57,6.57,0,0,0,2.8-2.37c1.31-1.7,3.84-2.28,5.74-3.41L87,46.11h0l.89.35a7.06,7.06,0,0,1,1-.67,6.65,6.65,0,0,1,3.1-.82c-.87.5-1.78,1-2.72,1.42A35.93,35.93,0,0,0,84.47,49c-1.54,1-3,2.28-4.57,3.27a6.4,6.4,0,0,1-3.45,1" fill="#ad6832"/><path id="path3538" d="M77.05,52.23a3.92,3.92,0,0,1-2.41-.77,14.26,14.26,0,0,0-2.21-1.82,18.77,18.77,0,0,1-2.67-1.26,33.13,33.13,0,0,0,4.06.7l.61.06A4,4,0,0,0,76,52a1.21,1.21,0,0,0,.7.19c.59,0,1.2-.31,1.24-.74a1.29,1.29,0,0,0,.6.16l.22,0H79c.69,0,1.17-.58,1.36-1.32h0a2.46,2.46,0,0,0,.08-.67h0a6,6,0,0,0-.07-.84l.46-.12a11.4,11.4,0,0,0,3.4-1.3c1-.35,1.88-.75,2.8-1.18l.15.06c-1.9,1.13-4.43,1.71-5.74,3.41A6.57,6.57,0,0,1,78.6,52a4.22,4.22,0,0,1-1.55.28" fill="#8b381c"/><path id="path3540" d="M62.64,121.54a4.38,4.38,0,0,0,1.86-1,4.38,4.38,0,0,1-1.86,1m1.94-1a4.7,4.7,0,0,0,1-1.3h0a4.65,4.65,0,0,1-1,1.29" fill="#ac332d"/><path id="path3542" d="M71.27,119.65h0l0-.11,0,.11m-.74-.1h0a.87.87,0,0,0,.22,0,.87.87,0,0,1-.22,0" fill="#cc8b60"/><path id="path3544" d="M70.38,119.56h0" fill="#ac332d"/><path id="path3546" d="M70.77,119.5l0,0h0l0,0" fill="#cc8b60"/><path id="path3548" d="M67.73,118.78a2.26,2.26,0,0,0,.35-.61h0a2.26,2.26,0,0,1-.35.61" fill="#ac332d"/><path id="path3550" d="M48.75,118.77h0A48.84,48.84,0,0,0,55,118l.72-.1h.1A16.06,16.06,0,0,0,61.19,116,16.38,16.38,0,0,1,55,118a49.21,49.21,0,0,1-6.28.79m21.33-5.57a14.34,14.34,0,0,1,.5-1.66h0a14.34,14.34,0,0,0-.5,1.66m-30.85-.69h0l0-.12,0,.12h0m58.16-.39c.26-.72,1-1,1.58-1.39a6.09,6.09,0,0,0,.84-.68h0a6.75,6.75,0,0,1-.84.68c-.6.4-1.32.67-1.58,1.39M71,110.49l0-.11,0,.11m13-1.95A38.55,38.55,0,0,0,92.89,104,38.55,38.55,0,0,1,84,108.54m9.17-4.76a25.17,25.17,0,0,1,6.69-3.6h0a25,25,0,0,0-6.69,3.6M41.29,95.16c.27-.73.56-1.44.86-2.15-.3.71-.59,1.42-.86,2.15m74.19-1.9h0c.27-.43.53-.87.8-1.31a54.11,54.11,0,0,0,3.9-7.24,13,13,0,0,0,1.12-5.17,13,13,0,0,1-1.12,5.17,54.11,54.11,0,0,1-3.9,7.24c-.27.44-.53.88-.8,1.31m5.82-13.72h0M97.14,76.43c-.07-.26-.13-.52-.21-.77.08.25.14.51.21.77M34.57,74h0v0l0,0a2.71,2.71,0,0,1,.88-1.17h0a.39.39,0,0,1,.1-.08h0s0,0,0,0h0a9.51,9.51,0,0,1,2.76-1.35h0a30.07,30.07,0,0,1,6.27-1,32.43,32.43,0,0,1,3.4-.19h0a32.43,32.43,0,0,0-3.4.19,30.07,30.07,0,0,0-6.27,1c-1.27.42-3.32,1.29-3.81,2.66l0,0v0" fill="#cc8b60"/><path id="path3552" d="M32.83,70.64h0c.56,0,1.11-.1,1.66-.1h0c-.55,0-1.1,0-1.66.1" fill="#ac332d"/><path id="path3554" d="M94.19,67.73a22.24,22.24,0,0,1,1.61-4.21c.23-.44.46-.87.72-1.29q-.37.63-.72,1.29a22.24,22.24,0,0,0-1.61,4.21m5.09-9.25c.59-.67,1.22-1.32,1.87-1.94a36.09,36.09,0,0,1,7.34-5.22c1.41-.77,2.86-1.47,4.32-2.13a23,23,0,0,1,4.28-1.3l.12,0h0l-.12,0a23,23,0,0,0-4.28,1.3c-1.46.66-2.91,1.36-4.32,2.13a36.09,36.09,0,0,0-7.34,5.22c-.65.62-1.28,1.26-1.87,1.94h0" fill="#cc8b60"/><path id="path3556" d="M116.6,47a3.3,3.3,0,0,0-2.35-.83,6,6,0,0,1,1.66-1.41h0a5.86,5.86,0,0,0-1.68,1.42,3.3,3.3,0,0,1,2.35.83m-.79-2.23c-.26,0-.65-.28-.89-.36.24.08.63.36.89.36h0" fill="#ac332d"/><path id="path3558" d="M110.94,43.46l.12-.06-.12.06h0m.84-.41.16-.08-.16.08" fill="#cc8b60"/><path id="path3560" d="M47.07,118.64h0m0,0a10.37,10.37,0,0,1-4.7-2l0,0h0a9.35,9.35,0,0,1-3.07-4.07h0l0-.12c-.08-.22-.14-.43-.2-.65a6.29,6.29,0,0,0,2.71,2.05,7.75,7.75,0,0,0,2.94.55,9.87,9.87,0,0,0,6.9-2.89,6.56,6.56,0,0,0,1.9-4.66,9.48,9.48,0,0,0-1.58-4.67,28.5,28.5,0,0,1-3-5.88,19.82,19.82,0,0,1-.71-3.49,15.23,15.23,0,0,0-.5-3.08c-.21-.69-.7-1.53-1.42-1.53a1.22,1.22,0,0,0-.5.12A6.72,6.72,0,0,0,43.36,91a24.54,24.54,0,0,0-2,4.23c-.34.86-.64,1.73-.93,2.61.27-.89.57-1.77.89-2.64s.56-1.44.86-2.15h0a40.06,40.06,0,0,1,7-11.2c-.34.37-.67.75-1,1.14a.55.55,0,0,1,.18,0,.52.52,0,0,1,.24,0c.61.27.2,1,.15,1.5a20.8,20.8,0,0,0-.12,4.39,15.29,15.29,0,0,0,2.22,7.22h0a31.93,31.93,0,0,1-1.6-10.71A19.75,19.75,0,0,1,50,80c.24-.71.63-1.49.91-2.28a26.77,26.77,0,0,0-1.36,3.22,29,29,0,0,1,1.63-3.76c.87-1.68,1.64-3.41,2.54-5.07l0,0c.43-.52.88-1.43,1.3-2A53.32,53.32,0,0,1,58,65.46a59.55,59.55,0,0,0-5.56,10.72c-1.33,3.39-2.1,7.13-1.13,10.72s4,6.68,7.29,8.44a20.31,20.31,0,0,0,9.54,2.13c.48,0,1,0,1.42,0a29.23,29.23,0,0,0,10.95-2.67A22,22,0,0,0,92.58,77.32c.51-4.76-1.24-9.21-2.88-13.58-1.56-4.14-3.15-8.59-2.25-13,0,.26.06.52.1.78A8.51,8.51,0,0,0,87.62,54c.23,1,.63,2,1,2.95.6,1.83,1.16,3.66,1.9,5.44a24.55,24.55,0,0,0,3,5.45c.46.62.93,1.24,1.37,1.87a53.16,53.16,0,0,1,2.07,5.92h0c.08.25.14.51.21.77h0A21.57,21.57,0,0,1,100.6,75h0l-.59.29a2.75,2.75,0,0,0-1,4c1,1.83,3.78,2.43,5.71,2.47h.2a11.49,11.49,0,0,0,4.31-1A16.69,16.69,0,0,0,112,79.38c-.37.43-.79.83-1.17,1.24a.16.16,0,0,0,.11.28l.08,0A23.08,23.08,0,0,1,114.93,79a35.56,35.56,0,0,0-4.16,3,22,22,0,0,0-4.19,4.92A19.5,19.5,0,0,0,103.21,98c0,1,.43,2.2,1.55,2.2l.31,0,.29-.07c-.09.52-.18,1-.29,1.51-.2.87-.39,1.73-.57,2.59l0,0h0l-.06.37-.09.45c-.18.89-.41,1.77-.6,2.66,0,.16-.07.3-.11.45l-.24.54c-.34.43-.72.79-1.08.79a.57.57,0,0,1-.4-.17c-.62-.58-.52-1.64-.38-2.61a1.43,1.43,0,0,1-1.15.94l-.15-.12a8.84,8.84,0,0,1,.32-3.35c.28-1.3.53-2.61.76-3.92a55.59,55.59,0,0,1,1.61-7.67,21.89,21.89,0,0,1,3.41-6.44,22.58,22.58,0,0,1,2.24-2.73c.71-.69,1.45-1.34,2.09-2.08-3,1.69-5.14,4.58-7.2,7.25A16.89,16.89,0,0,1,100.38,92a1.46,1.46,0,0,1-.8.32A.63.63,0,0,1,99,92a4.43,4.43,0,0,1-.43-2.36c0-1.09,0-2.18,0-3.27,0-3.39,0-6.94-1.56-10,0,.24,0,.48,0,.72.52,10.08-1.36,22.09-15.22,28.87a23.9,23.9,0,0,1-10.46,2.3H71a25,25,0,0,1-11.21-2.54A41.15,41.15,0,0,1,54.3,102a13.13,13.13,0,0,1-2.89-2.73,14.69,14.69,0,0,0,2.5,3.56A19.24,19.24,0,0,0,59.06,107a21.33,21.33,0,0,1,3.66,1.94c2.53,2.16-1.41,4.37-3.16,5.14a53.3,53.3,0,0,1-11.35,3.52,9.74,9.74,0,0,1-1.69.15,10.28,10.28,0,0,1-3.47-.62,10.47,10.47,0,0,0,4,1.53m65.4-24.18v-.18h0a6,6,0,0,0-.07-.94,2.31,2.31,0,0,0-.15-.53l1-1.37c1.3-1.75,2.64-3.48,3.87-5.29a16.4,16.4,0,0,0,3.14-7.44,4,4,0,0,0-.5-2.43,4,4,0,0,1,1.56,3.25h0a13,13,0,0,1-1.12,5.17,54.11,54.11,0,0,1-3.9,7.24c-.27.44-.53.88-.8,1.31a1.81,1.81,0,0,0-.35-.13,2.18,2.18,0,0,0-.49-.06,2.84,2.84,0,0,0-2.16,1.37h0v0M34.57,74l-.07,0a9,9,0,0,1,1.06-3.32l-.21,0a6.2,6.2,0,0,0-.86,0h0c-.55,0-1.1,0-1.66.1h0l0-.1v0a12,12,0,0,0,.74-1.12,9.21,9.21,0,0,1,1-1.2,4.74,4.74,0,0,1,.49-.4H35a5.44,5.44,0,0,1-1.4-.19C32.87,67.4,32,67,32,66.15V66l.11,0a.77.77,0,0,0,.82.5A5.41,5.41,0,0,0,35,65.8c-.28.38-.4.75-.16,1.08a1.06,1.06,0,0,0,.89.34,4.81,4.81,0,0,0,1.12-.17,2.85,2.85,0,0,0,.5-.14,3.81,3.81,0,0,0-1.26,1.17c-.41.63.13.77.73.77.41,0,.86-.07,1-.08a45.4,45.4,0,0,0,12.1-2.38A28.21,28.21,0,0,0,59.57,61a21.53,21.53,0,0,0,4.86-7.42c-.24,1-.55,2-.69,3a.15.15,0,0,0,.16.16.16.16,0,0,0,.12,0,17.48,17.48,0,0,1,2.42-1.86c-2.9,3.48-6,6.78-8.49,10.58a55.87,55.87,0,0,1,8.49-10.58,45,45,0,0,0-3.62,3.43h0s.37-.84.42-1c.36-1.1.81-2.19,1-2.93-.38.87-.75,1.73-1.2,2.56a27.45,27.45,0,0,1-2.77,4.68c-1.82,2.27-3.46,5.75-6,7.31a7.18,7.18,0,0,1-3.81.81l-1.24,0H47.38a32.2,32.2,0,0,0-4.71.28c-1.83.28-3.9.48-5.51,1.47a10.7,10.7,0,0,0-1.67,1.27,2.71,2.71,0,0,0-.88,1.17l0,0v0m1-1.31h0m0,0h0m0,0h0m0,0a9.63,9.63,0,0,1,2.76-1.35,9.51,9.51,0,0,0-2.76,1.35m59.12-3.07L94.12,68h0l.66,1.57M93.2,63.39c-.88,0-1.7-.61-2.32-2.26s-1.44-2.86-1.68-4.54a34.52,34.52,0,0,0-.17-4.9c-.17,1.1-.15,4-.16,5.15h0a14.64,14.64,0,0,1-.57-1.43,11.57,11.57,0,0,1-.73-3.81A24.13,24.13,0,0,0,88.4,55a.17.17,0,0,0,.16.12.16.16,0,0,0,.16-.16,23.57,23.57,0,0,1,.33-3.47A7.45,7.45,0,0,0,94.75,54c4.81,0,9.86-3.71,11.44-4.52,2.83-1.44,6.46-1.52,8.47-4.33l-.1-.24a2.5,2.5,0,0,0-1-.17,5,5,0,0,0-.85.08,2.69,2.69,0,0,0,.5-.39c.39-.36.47-1.22-.16-1.41a1.51,1.51,0,0,0-.41-.06,2.9,2.9,0,0,0-1,.21l-.77.28.12-.06c.24-.11.48-.22.72-.35l.16-.08h0c.57-.48,1.39-.84,1.4-1.66.39.27.52,1.13.54,1.41a1,1,0,0,1,0,.17,4.17,4.17,0,0,1-.47,1.72h0c.09-.18.55-.23.94-.23a2.85,2.85,0,0,1,.49,0l.07,0c.24.08.63.36.89.36h.1a6,6,0,0,0-1.66,1.41,3.3,3.3,0,0,1,2.35.83h0c.15.15.46.85.61.91l-.12,0a23,23,0,0,0-4.28,1.3c-1.46.66-2.91,1.36-4.32,2.13a36.09,36.09,0,0,0-7.34,5.22c-.65.62-1.28,1.27-1.87,1.94l-.47.38c-.81.7-3.4,4.53-5.61,4.53" fill="#9a491f"/><path id="path3562" d="M117.22,47.94h0" fill="#9a491f"/><path id="path3564" d="M53.71,72.05c.27-.5.55-1,.84-1.46-.28.48-.57,1-.84,1.46h0" fill="#cc8b60"/><path id="path3566" d="M53.71,72.05c.27-.5.56-1,.84-1.46h0c-1.11,0-2.23-.17-3.27-.29a28.56,28.56,0,0,0-3.19-.18h0a28.56,28.56,0,0,1,3.19.18c1,.12,2.16.27,3.28.29-.29.47-.58,1-.84,1.45h0" fill="#9a491f"/><path id="path3568" d="M35.49,72.75h0a.39.39,0,0,1,.1-.08.39.39,0,0,0-.1.08m.1-.08s0,0,0,0,0,0,0,0m0,0h0m0,0h0m0,0h0" fill="#a34928"/><path id="path3570" d="M35.49,72.75a10.7,10.7,0,0,1,1.67-1.27c1.61-1,3.68-1.19,5.51-1.47a32.2,32.2,0,0,1,4.71-.28h1.78l1.24,0A7.18,7.18,0,0,0,54.21,69c2.59-1.56,4.23-5,6-7.31A27.45,27.45,0,0,0,63,57c.45-.83.82-1.69,1.2-2.56-.19.74-.64,1.83-1,2.93,0,.14-.46,1-.42,1h0a45,45,0,0,1,3.62-3.43A55.87,55.87,0,0,0,58,65.46h0A53.32,53.32,0,0,0,55,70.09c-.42.52-.87,1.43-1.3,2,.26-.49.55-1,.84-1.45-1.12,0-2.24-.17-3.28-.29a28.56,28.56,0,0,0-3.19-.18h0a32.43,32.43,0,0,0-3.4.19,30.07,30.07,0,0,0-6.27,1h0a9.63,9.63,0,0,0-2.76,1.35h0s0,0,0,0h0a.39.39,0,0,0-.1.08" fill="#7c2a1a"/><path id="path3572" d="M49.28,81.69c.06-.22.13-.43.2-.64-.07.21-.14.42-.2.64" fill="#cc8b60"/><path id="path3574" d="M49.16,81.81l.12-.12-.12.12m.12-.12h0c.06-.22.13-.43.2-.64a.88.88,0,0,0,.05-.15c-.09.26-.17.52-.25.79" fill="#9a491f"/><path id="path3576" d="M50.83,96.09a15.29,15.29,0,0,1-2.22-7.22,20.8,20.8,0,0,1,.12-4.39c.05-.47.46-1.23-.15-1.5a.52.52,0,0,0-.24,0,.55.55,0,0,0-.18,0c.33-.39.66-.77,1-1.14l.12-.12h0c.08-.27.16-.53.25-.79a26.77,26.77,0,0,1,1.36-3.22c-.28.79-.67,1.57-.91,2.28a19.75,19.75,0,0,0-.75,5.42,31.93,31.93,0,0,0,1.6,10.71" fill="#7c2a1a"/><path id="path3578" d="M94.86,69.74h0l-.08-.2.08.2m1.66-7.51a24.81,24.81,0,0,1,2.76-3.75l0,0a23.94,23.94,0,0,0-2.79,3.78" fill="#cc8b60"/><path id="path3580" d="M87.57,51.61l0-.1h0l0,.1" fill="#9a491f"/><path id="path3582" d="M94.12,68h0a22.68,22.68,0,0,1,1.68-4.45,24.33,24.33,0,0,1,3.48-5h0a24.81,24.81,0,0,0-2.76,3.75c-.26.42-.49.85-.72,1.29a22.24,22.24,0,0,0-1.61,4.21,2.17,2.17,0,0,0-.07.24" fill="#a34928"/><path id="path3584" d="M94.86,69.74c-.44-.63-.91-1.25-1.37-1.87a24.55,24.55,0,0,1-3-5.45c-.74-1.78-1.3-3.61-1.9-5.44-.33-1-.73-1.94-1-2.95a8.51,8.51,0,0,1-.07-2.52l0,.1a11.57,11.57,0,0,0,.73,3.81,14.64,14.64,0,0,0,.57,1.43h0c0-1.11,0-4.05.16-5.15a34.52,34.52,0,0,1,.17,4.9c.24,1.68,1.09,3,1.68,4.54s1.44,2.26,2.32,2.26c2.21,0,4.8-3.83,5.61-4.53l.47-.38a24.33,24.33,0,0,0-3.48,5A22.68,22.68,0,0,0,94.12,68h0l.66,1.57.08.2" fill="#7c2a1a"/><path id="path3586" d="M47.61,118.71h0m-.13,0h0m0,0h0m0,0h0" fill="#cc8b60"/><path id="path3588" d="M60.57,121.7l0,0a3.82,3.82,0,0,0,1.78-3.31,3.31,3.31,0,0,0,0-.44,3.86,3.86,0,0,1-1.76,3.75l0,0m4.86-1.34-.11-.07.11-.24-.11.24.11.07m0-.36c0-.26.07-.53.11-.79h0c0,.27-.08.54-.11.8m5.82-.35a3,3,0,0,1-.45-.19h0a3,3,0,0,0,.45.19h0m-.88-.09a3,3,0,0,1-1.75-.74,2.61,2.61,0,0,1-.55-.65h0a2.61,2.61,0,0,0,.55.65,3.08,3.08,0,0,0,1.75.74h0m-22.79-.85h-.22l-.3,0,.52.07h0m-.56-.07h0m15.32-.79a4.08,4.08,0,0,0-.53-1.87,4.08,4.08,0,0,1,.53,1.87" fill="#9a491f"/><path id="path3590" d="M61.55,121.62h0a5,5,0,0,0,1.09-.08,4.38,4.38,0,0,0,1.86-1,4.8,4.8,0,0,0,1-1.37h0a4.7,4.7,0,0,1-1,1.3l-.08.07h0a4.38,4.38,0,0,1-1.86,1h0a5,5,0,0,1-1.09.08" fill="#8a211d"/><path id="path3592" d="M60.6,121.79l0-.08h0l0,0a3.86,3.86,0,0,0,1.76-3.75v-.06h0a4.08,4.08,0,0,0-.53-1.87h0l-.2-.23a15.82,15.82,0,0,1-5.78,2.11,15.7,15.7,0,0,0,5.59-2l.09-.07A20.92,20.92,0,0,0,63.63,114c.9-.91,1.58-1.22,2.19-2.36a21,21,0,0,1-4.45,3.52,25.83,25.83,0,0,1-6.14,2.36,27.58,27.58,0,0,1-6.75,1.09h-.63c-.36,0-.72,0-1.07,0,.27,0,.53.09.81.12l-.52-.07h0a10.47,10.47,0,0,1-4-1.53,10.28,10.28,0,0,0,3.47.62,9.74,9.74,0,0,0,1.69-.15,53.3,53.3,0,0,0,11.35-3.52c1.75-.77,5.69-3,3.16-5.14A21.33,21.33,0,0,0,59.06,107a19.24,19.24,0,0,1-5.15-4.13,14.69,14.69,0,0,1-2.5-3.56A13.13,13.13,0,0,0,54.3,102a41.15,41.15,0,0,0,5.53,3.63A25,25,0,0,0,71,108.19h.3a23.9,23.9,0,0,0,10.46-2.3C95.66,99.11,97.54,87.1,97,77c0-.24,0-.48,0-.72,1.51,3.11,1.52,6.66,1.56,10,0,1.09,0,2.18,0,3.27A4.43,4.43,0,0,0,99,92a.63.63,0,0,0,.55.3,1.46,1.46,0,0,0,.8-.32,16.89,16.89,0,0,0,3.07-3.46c2.06-2.67,4.21-5.56,7.2-7.25-.64.74-1.38,1.39-2.09,2.08a22.58,22.58,0,0,0-2.24,2.73,21.89,21.89,0,0,0-3.41,6.44,55.59,55.59,0,0,0-1.61,7.67c-.23,1.31-.48,2.62-.76,3.92a8.84,8.84,0,0,0-.32,3.35l.15.12a1.43,1.43,0,0,0,1.15-.94c-.14,1-.24,2,.38,2.61a.57.57,0,0,0,.4.17c.36,0,.74-.36,1.08-.79l-.39.88h0a8.14,8.14,0,0,0-1.15,1.71.16.16,0,0,1-.13.08.18.18,0,0,1-.17-.12,12.44,12.44,0,0,1-.49-2.63,9.34,9.34,0,0,1-.83,1l-.06.07h0l-.06.07-.29.33a6.09,6.09,0,0,1-.84.68c-.61.4-1.33.67-1.59,1.41l-.12,0a1.42,1.42,0,0,1,.27-.79c.32-1,.58-1.9.8-2.86q.19-.66.36-1.35c.36-1.67.85-3.3,1.22-5s.68-3.24,1-4.86a28.46,28.46,0,0,1,3.21-8.8,34.94,34.94,0,0,1,5.12-6l0,0a19.08,19.08,0,0,0-2,1.71,22.39,22.39,0,0,0-4.2,5.66,55.11,55.11,0,0,0-3.2,10.28h0a26.08,26.08,0,0,0-7,3.79A38.55,38.55,0,0,1,84,108.54a30.81,30.81,0,0,1-9.48,2.09q.77,0,1.53-.09h-.87a22.51,22.51,0,0,1-3.38-.24,32.54,32.54,0,0,1-8-2.3,35,35,0,0,1-10.71-6.54c.29.32.59.63.86.94a11.41,11.41,0,0,0,3,2.24,73.24,73.24,0,0,0,6.69,3.64,37.31,37.31,0,0,0,4.08,1.57c.55.17,1.1.3,1.64.45a1.45,1.45,0,0,1,.73.39,2.41,2.41,0,0,1,.44.84,14.34,14.34,0,0,0-.5,1.66,12.58,12.58,0,0,0-.35,2.75h0a3.92,3.92,0,0,0,1.57,3.59l0,.11a3,3,0,0,1-.45-.19h0l0,0a1.27,1.27,0,0,1-.39.06,3.08,3.08,0,0,1-1.75-.74,2.61,2.61,0,0,1-.55-.65h0a2.26,2.26,0,0,1-.35.61,3.6,3.6,0,0,1-1,.86,4.78,4.78,0,0,0-1.26.72h0l-.11-.07.11-.24a.11.11,0,0,1,0,0c0-.26.07-.53.11-.8h0a4.8,4.8,0,0,1-1,1.37,4.38,4.38,0,0,1-1.86,1,5,5,0,0,1-1.09.08h0a2.25,2.25,0,0,0-.95.17" fill="#7c2a1a"/><path id="path3594" d="M55.74,117.88h0" fill="#7c2a1a"/><path id="path3596" d="M55.79,117.87h0" fill="#7c2a1a"/><path id="path3598" d="M99.09,104.76c.06-.31.12-.63.19-.94l0-.17h0l0,.17c-.07.31-.13.63-.19.94" fill="#7c2a1a"/><path id="path3600" d="M48.75,118.77a8.83,8.83,0,0,1-.89,0l-.25,0,.16,0h.09a8.83,8.83,0,0,0,.89,0h0" fill="#cc8b60"/><path id="path3602" d="M47.82,118.73h0m0,0h0" fill="#9a491f"/><path id="path3604" d="M48.75,118.77h0A48.84,48.84,0,0,0,55,118l.72-.1L55,118a48.84,48.84,0,0,1-6.27.79m7-.89h0m.07,0h0" fill="#a34928"/><path id="path3606" d="M48.75,118.77a8.83,8.83,0,0,1-.89,0h0c.28,0,.57,0,.86,0h0m-.94,0h0m0,0-.16,0h0l.18,0" fill="#a34928"/><path id="path3608" d="M48.75,118.77c-.29,0-.58,0-.86,0,.28,0,.57,0,.86,0h0m-.89,0h-.09l-.18,0h0l.27,0" fill="#7c2a1a"/><path id="path3610" d="M48.75,118.77c-.29,0-.58,0-.86,0h0l-.27,0c-.28,0-.54-.07-.81-.12.35,0,.71,0,1.07,0h.63a27.58,27.58,0,0,0,6.75-1.09,25.83,25.83,0,0,0,6.14-2.36,21,21,0,0,0,4.45-3.52c-.61,1.14-1.29,1.45-2.19,2.36a20.92,20.92,0,0,1-2.11,1.78l-.09.07a15.7,15.7,0,0,1-5.59,2h-.1L55,118a48.84,48.84,0,0,1-6.27.79" fill="#621c15"/><path id="path3612" d="M70.58,111.55h0c.13-.35.26-.7.4-1.05-.14.35-.27.7-.4,1.06m3.65-.92h-.48a27.21,27.21,0,0,1-2.72-.25h0a27.21,27.21,0,0,0,2.72.25h.48" fill="#cc8b60"/><path id="path3614" d="M70.58,111.54h0c.14-.39.29-.78.45-1.16h0l0,.11c-.14.35-.27.7-.4,1.05" fill="#a34928"/><path id="path3616" d="M70.58,111.54a2.41,2.41,0,0,0-.44-.84,1.45,1.45,0,0,0-.73-.39c-.54-.15-1.09-.28-1.64-.45a37.31,37.31,0,0,1-4.08-1.57A73.24,73.24,0,0,1,57,104.65a11.41,11.41,0,0,1-3-2.24c-.27-.31-.57-.62-.86-.94A35,35,0,0,0,63.84,108a32.54,32.54,0,0,0,8,2.3,22.51,22.51,0,0,0,3.38.24h.87q-.76.08-1.53.09h-.77a27.21,27.21,0,0,1-2.72-.25c-.16.38-.31.77-.45,1.16" fill="#621c15"/><path id="path3618" d="M98.33,108.48c.28-1.23.51-2.47.76-3.72-.25,1.25-.48,2.48-.76,3.71h0" fill="#cc8b60"/><path id="path3620" d="M99.31,103.65c.23-1.13.35-2.31.55-3.47h0c-.2,1.16-.32,2.34-.55,3.47" fill="#7c2a1a"/><path id="path3622" d="M98.33,108.47c.28-1.23.51-2.46.76-3.71.06-.31.12-.63.19-.94l0-.17c.23-1.13.35-2.31.55-3.47h0a55.11,55.11,0,0,1,3.2-10.28,22.39,22.39,0,0,1,4.2-5.66,19.08,19.08,0,0,1,2-1.71l0,0a34.94,34.94,0,0,0-5.12,6,28.46,28.46,0,0,0-3.21,8.8c-.37,1.62-.69,3.24-1,4.86s-.86,3.3-1.22,5q-.16.69-.36,1.35" fill="#621c15"/><path id="path3624" d="M54.34,133.33a5.51,5.51,0,0,1-1.9-.33,2.85,2.85,0,0,1-1.82-1.71,2.87,2.87,0,0,1-1.21.23,3.9,3.9,0,0,1-2.46-.8,1.82,1.82,0,0,1-.63-1.21h0a1.82,1.82,0,0,0,.63,1.21,3.9,3.9,0,0,0,2.46.8,2.87,2.87,0,0,0,1.21-.23A2.85,2.85,0,0,0,52.44,133a5.51,5.51,0,0,0,1.9.33c2.27,0,4.46-1.32,6.17-2.74,1.52-1.25,4.29-3.42,5.93-4.54,1.83-1.25,5.52-.45,5.81-3.71h0c-.29,3.26-4,2.46-5.81,3.71-1.64,1.12-4.41,3.29-5.93,4.54-1.71,1.42-3.9,2.74-6.17,2.74m2.93-10a10.57,10.57,0,0,0,1.29-.32h0a10.25,10.25,0,0,1-1.27.32m15-1h0" fill="#df8297"/><path id="path3626" d="M51.44,129.58a1.23,1.23,0,0,1,.61-.69,7,7,0,0,1,3.74-.84,5.89,5.89,0,0,0,3.31-.67,6.24,6.24,0,0,0,1.47-1.33l.16-.14,0,0c-1,1.06-2.17,2.18-3.7,2.27-.33,0-.66,0-1,0h-.26a7.4,7.4,0,0,0-2.37.28,5.33,5.33,0,0,0-2,1.06m-5.14-.07h0m0,0h0m-1.18-.69h0m0,0a2.08,2.08,0,0,1-.36-1.24,3.86,3.86,0,0,1,.59-2l-.13.23a4.61,4.61,0,0,1,1.06-1.06,1.63,1.63,0,0,1,1-.32,5,5,0,0,1,1.93.59,8.27,8.27,0,0,0,3.48.73,10.74,10.74,0,0,0,4.54-1,6.76,6.76,0,0,0,.69-.29l0,.07a7.5,7.5,0,0,1-3.66,1.2c-.68.06-1.38.12-2.09.12a8.11,8.11,0,0,1-2.15-.25,10.92,10.92,0,0,0-2.58-.73,1.74,1.74,0,0,0-1.47.81,3.51,3.51,0,0,0-.64,1.46.55.55,0,0,1-.34-.37l-.05-.08v-.29a2.71,2.71,0,0,0,.14,2.44m2-.33c-.07-1.37,2.09-1.67,3.29-1.67h1.24a18.35,18.35,0,0,0,4.69-.48h0a17.22,17.22,0,0,1-1.78.47,12.51,12.51,0,0,1-2.51.33h0c-.62,0-1.25-.1-1.88-.1l-.5,0a4.53,4.53,0,0,0-2.52,1.41m7.57-4.72a17,17,0,0,1-3.48-.43,14.58,14.58,0,0,0-3-.57,3.28,3.28,0,0,0-.94.13l-.31.08a3.21,3.21,0,0,0-1.17.77c-.14-.12-.17-.32,0-.62l.13-.21a3.54,3.54,0,0,1,.41-.26,2.7,2.7,0,0,1,1.37-.34,13.4,13.4,0,0,1,3.21.75,15.81,15.81,0,0,0,3.43.38l1,0a11.65,11.65,0,0,0,2.05-.16h0a10.25,10.25,0,0,0,1.27-.32,10.84,10.84,0,0,1-3.09.75c-.26,0-.53,0-.8,0" fill="#cd4356"/><path id="path3628" d="M54.34,133.33a5.51,5.51,0,0,1-1.9-.33,2.85,2.85,0,0,1-1.82-1.71,2.87,2.87,0,0,1-1.21.23,3.9,3.9,0,0,1-2.46-.8,1.82,1.82,0,0,1-.63-1.21h0a1.75,1.75,0,0,1-1.17-.68h0a2.71,2.71,0,0,1-.14-2.44v.29l.05.08a.55.55,0,0,0,.34.37,1.52,1.52,0,0,0,1,1.89,2.66,2.66,0,0,1,.87-1.38,3.68,3.68,0,0,1,2-1,5.82,5.82,0,0,1,.59,0c.35,0,.7,0,1,0s.7,0,1.05,0a5.25,5.25,0,0,0,.56,0,18.74,18.74,0,0,0,6.3-1.5l0,.07a14.06,14.06,0,0,1-2.55,1.11h0a18.35,18.35,0,0,1-4.69.48H50.37c-1.2,0-3.36.3-3.29,1.67a1.12,1.12,0,0,0,0,1.6,2.81,2.81,0,0,0,2.14.78h0c.4,0,.81-.09,1.21-.09h.07v-.19a2.55,2.55,0,0,1,1.7-2.07,7.93,7.93,0,0,1,3.21-.7h0l.73,0,.72,0a3.51,3.51,0,0,0,1.63-.33,11.3,11.3,0,0,0,2-1.47,6.24,6.24,0,0,1-1.47,1.33,5.89,5.89,0,0,1-3.31.67,7,7,0,0,0-3.74.84,1.23,1.23,0,0,0-.61.69,1.33,1.33,0,0,0-.42,1.1c.17,1.43,1.57,2,2.85,2.1h.47c3.1,0,5.52-2.15,7.78-4.09a29.49,29.49,0,0,1,3.75-2.83,10.12,10.12,0,0,1,2.54-1.1,6.41,6.41,0,0,0,3-1.22,2.37,2.37,0,0,0,.45-2.7,2.13,2.13,0,0,1,.42,1.46h0c-.29,3.26-4,2.46-5.81,3.71-1.64,1.12-4.41,3.29-5.93,4.54-1.71,1.42-3.9,2.74-6.17,2.74" fill="#bd2f40"/><path id="path3630" d="M45.19,125.83l.13-.23h0a1.36,1.36,0,0,1-.52-1,2.3,2.3,0,0,1,1-1.65l-.13.21c-.16.3-.13.5,0,.62-.39.43-.57,1-.06,1.41A2.4,2.4,0,0,1,47,124.3a2,2,0,0,1,.42,0,4.91,4.91,0,0,1,1.75.5,9.31,9.31,0,0,0,3.25.64h.53a11.81,11.81,0,0,0,4.26-.67,10.74,10.74,0,0,1-4.54,1,8.27,8.27,0,0,1-3.48-.73,5,5,0,0,0-1.93-.59,1.63,1.63,0,0,0-1,.32,4.61,4.61,0,0,0-1.06,1.06" fill="#bd2f40"/><path id="path3632" d="M65.75,48.51a49.56,49.56,0,0,0-6.59,5.69,21.57,21.57,0,0,1-7.5,4.88,39.7,39.7,0,0,1-4,1.08,31.12,31.12,0,0,0-4,1.47C41,62.71,38.92,64.19,35.19,66l.3-.15a47.5,47.5,0,0,1,4.82-2c1.35-.57,2.72-1.09,4.08-1.61C47.18,61.18,50,60.14,52.71,59a22.5,22.5,0,0,0,6.64-3.81c2.26-2.06,4.44-4.31,6.58-6.5.11-.11-.06-.28-.18-.19" fill="#fbfaee"/><path id="path3634" d="M107.1,45.24a33.32,33.32,0,0,1-10.45.64c-2.55-.21-5-.86-7.31.63l.09.19a7.45,7.45,0,0,1,4.77-.41,24.85,24.85,0,0,0,12.94-.94l0-.11" fill="#fbfaee"/><path id="path3636" d="M45,90.37l-.18-.08a37.24,37.24,0,0,0-4.72,11.49c-.69,3.31-1,8.19,1.42,10.91a.17.17,0,0,0,.27-.19c-2-3.12-1.28-7.66-.61-11.12a50.05,50.05,0,0,1,3.82-11" fill="#fbfaee"/><path id="path3638" d="M119.47,76.19a25.36,25.36,0,0,0-18.63-.38l0,.1c6.05-1.7,12.46-.49,18.48.61a.18.18,0,0,0,.11-.33" fill="#fbfaee"/><path id="path3640" d="M115.77,79.63a19.78,19.78,0,0,0-11.72,15.56l.13,0a26,26,0,0,1,4-9,25.21,25.21,0,0,1,7.73-6.38c.14-.08,0-.32-.13-.25" fill="#fbfaee"/><path id="path3642" d="M65.49,57.41C61,63,55.83,68.22,53.28,75c-2.17,5.78-1.81,14.47,4.13,18l.11-.16c-11.13-11.26,1.3-25.63,8.16-35.29.1-.13-.09-.29-.19-.16" fill="#fbfaee"/><path id="path3644" d="M103.82,7.28c-1.41-2.78-3.51-5.66-6.5-6.85s-5.86.12-7.88,2.26c-2.26,2.39-3.56,5.68-4.63,8.74-.15.43-.3.86-.44,1.3a30.07,30.07,0,0,0-5.52-.5,56.7,56.7,0,0,0-7.14.32A33.45,33.45,0,0,0,65.16,14a17.44,17.44,0,0,0-2.61,1.07l-.32.18a24.38,24.38,0,0,1-3.35-5.17,19.26,19.26,0,0,0-2.74-4.55c-2.59-2.83-6.18-1.42-8.57.87A22.86,22.86,0,0,0,41.73,17a15.26,15.26,0,0,0-.52,6,5.9,5.9,0,0,0,.53,2.55A3.83,3.83,0,0,0,42,26V26a4.09,4.09,0,0,0,2.91,2.1,11.81,11.81,0,0,0,5.68-.94,43,43,0,0,0,7-3.12,16.66,16.66,0,0,0-1.11,2.7,26.16,26.16,0,0,0-.73,2.62,8.81,8.81,0,0,0-4.64.06,3,3,0,0,0-2,4.24c.45,2.86,2.28,5.24,4.43,7.24A28.16,28.16,0,0,0,64.7,47c4.38,1.36,9.24,2.67,13.87,2.09a17.67,17.67,0,0,0,4.94-1.52c6.6-2.38,12.93-6.42,16.28-12.69,1.52-2.83,1.88-6.64-1-8.77-2.08-1.57-4.51-1.21-6.75-.26-.32-1-.65-2.09-1-3.11A16.82,16.82,0,0,0,89.65,20a21,21,0,0,0,10.23,3,6.81,6.81,0,0,0,5.37-1.77,3.57,3.57,0,0,0,.91-1.88.25.25,0,0,0,.32-.26,28.82,28.82,0,0,0-2.66-11.82" fill="#c18c45"/><path id="path3646" d="M55.78,29.4l-.4-.09.4.09m6.45-14.17q-.4-.46-.78-1h0q.38.5.78,1m.32-.18.63-.31-.63.31" fill="#cc8b60"/><path id="path3648" d="M57.61,30.56a14.65,14.65,0,0,0-2-.91,8.39,8.39,0,0,0-2.1-.52h.05a9.61,9.61,0,0,1,1.86.18l.4.09h0a26.16,26.16,0,0,1,.73-2.62,16.66,16.66,0,0,1,1.11-2.7h0a43,43,0,0,1-7,3.12,13.91,13.91,0,0,1-4.61,1,7.71,7.71,0,0,1-1.07-.08A4.09,4.09,0,0,1,42,26V26h0a3.83,3.83,0,0,1-.25-.44A5.9,5.9,0,0,1,41.21,23a11.6,11.6,0,0,1-.11-1.57A17.5,17.5,0,0,1,41.73,17l0-.09a19.57,19.57,0,0,0-.24,5.46.21.21,0,0,0,.19.16.13.13,0,0,0,.13-.12c.76-3.35,1-6.84,2.36-10,1.26-3,3.88-6.11,7.13-6.94a4.31,4.31,0,0,1,1.1-.14c2.37,0,3.91,2.12,4.89,4.24,1.3,2.81,1.52,5.92,2.58,8.81a.17.17,0,0,0,.16.11.16.16,0,0,0,.14-.08,8.58,8.58,0,0,0,1.25-4.12q.38.5.78,1h0l.32-.18h0l.63-.31c.36-.16.72-.31,1.08-.44a11,11,0,0,0-2.22,2,18,18,0,0,0-3,6c-.39,1.15-.75,2.32-1,3.5a21.13,21.13,0,0,0-.76,3.33,2.07,2.07,0,0,0,.41,1.43m-13.4-16a33.66,33.66,0,0,0-1.43,5c-.34,1.73-.64,3.91.38,5.47a2.55,2.55,0,0,0,2.27,1.07,7.82,7.82,0,0,0,2.42-.47,29.48,29.48,0,0,0,3.37-1.57,23.71,23.71,0,0,0,3.21-1.83h0a8.35,8.35,0,0,0,3.09-3.85h0A15.41,15.41,0,0,1,58,20.87v0a17.3,17.3,0,0,0,.15-2.35,5.24,5.24,0,0,0,0-.72,24.53,24.53,0,0,0-1.81-7.48c-.91-2.07-2.62-4-4.87-4a4.16,4.16,0,0,0-1.31.21c-3,1-4.67,4.68-5.72,7.36h0l-.24.64h0" fill="#9a491f"/><path id="path3650" d="M106.47,19.05v0m0-.15v0m-22-6.35.12-.36-.12.36m.43-1.27.15-.43h0l-.15.43" fill="#cc8b60"/><path id="path3652" d="M90.34,28.43c1.11-3.89-1.2-7.5-2.87-10.93-.72-1.48-1.63-3.65-3.08-4.84a.76.76,0,0,1,0-.11l.12-.36c.08-.25.17-.5.26-.76a.88.88,0,0,1,0-.15l.15-.43A4.06,4.06,0,0,0,85.39,13a1.82,1.82,0,0,0,1.36,1,.78.78,0,0,0,.64-.34,7,7,0,0,0,.85-3.27A11.4,11.4,0,0,1,89.68,6a10.1,10.1,0,0,1,3.93-4,5,5,0,0,1,2.33-.58,5.76,5.76,0,0,1,3.3,1.11A12.33,12.33,0,0,1,103,7.65a18.89,18.89,0,0,1,2.12,7.2,15,15,0,0,0,.34,3.34.16.16,0,0,0,.16.12.15.15,0,0,0,.14-.08,5.5,5.5,0,0,0,.57-1.73q.12,1.17.18,2.34v.21s0,0,0,.05v0a.25.25,0,0,1-.26.25h-.06a3.57,3.57,0,0,1-.91,1.88A6.55,6.55,0,0,1,100.33,23h-.45a21,21,0,0,1-10.23-3h0a16.82,16.82,0,0,1,1.4,2.74c.39,1,.72,2.06,1,3.11A9.52,9.52,0,0,1,95.38,25a7.52,7.52,0,0,0-2,.82,16.11,16.11,0,0,0-3,2.59m7.11-8a11.86,11.86,0,0,0,2.76.39A4.67,4.67,0,0,0,103,20a4.5,4.5,0,0,0,1.49-4.28,13.08,13.08,0,0,0-.79-4.19c-.87-3-2.28-6.28-4.91-8.11H98.7l0,0h0a5.84,5.84,0,0,0-.76-.45h-.08l0,0h0a4.2,4.2,0,0,0-1.89-.48c-2.23,0-4,2-5,4.06a24.91,24.91,0,0,0-2.24,6.92,11,11,0,0,0-.43,2.9c0,.27,0,.55,0,.82v.12l.07,0,0,.23h.12a11.61,11.61,0,0,1,.42-2,5.44,5.44,0,0,0,2.9,3.08,26.11,26.11,0,0,0,5.67,1.91h0" fill="#9a491f"/><path id="path3654" d="M87,46.11h0c5.28-2.46,10-6.1,12.79-11.25a9.9,9.9,0,0,0,1.08-3.21,9.9,9.9,0,0,1-1.08,3.21C97,40,92.28,43.65,87,46.11m13.87-14.46h0" fill="#cc8b60"/><path id="path3656" d="M73.82,49.08A36.23,36.23,0,0,1,69,48.21l-2.19-.59c-.72-.21-1.43-.42-2.12-.64a29.16,29.16,0,0,1-10.24-5.26,41.35,41.35,0,0,1,4.72-.26c.85,0,1.69,0,2.54.07A28.35,28.35,0,0,1,71.45,44l.12,0a.31.31,0,0,0,.12-.59,31.46,31.46,0,0,0-8.22-2.34A2.75,2.75,0,0,0,65,39.33c.24-.66.39-1.35.61-2a3,3,0,0,1,.3-.63c-.39,1.31.94,2.9,3.78,4.41h0l.24.13a6.43,6.43,0,0,0,1.29,1.09,9.78,9.78,0,0,0,4.08,1.26.3.3,0,0,1,.22.29c.16,1.84-.74,2.94-2.33,2.94a4.2,4.2,0,0,1-1-.12A8.4,8.4,0,0,1,69,45.57c-.54-.4-.4-1-.16-1.54h0a2.14,2.14,0,0,0,.13-.19l0,0a3.94,3.94,0,0,0-.44.5A2,2,0,0,0,67.87,47a3.41,3.41,0,0,0,1.94,1.28,25.71,25.71,0,0,0,4,.82m10.37-1.79a4.63,4.63,0,0,0,1.74-1.8,4.12,4.12,0,0,0,.51-3.34c-.11-.24-.22-.47-.34-.7A5.52,5.52,0,0,1,81,46.57a4,4,0,0,1-2-.52c-1.28-.72-2.87-2.47-.66-3,2.69-.7,5.9-2.91,5.87-6a3.42,3.42,0,0,0,.47-2.24l.72.68c.72.73,1.36,1.76,2.35,2.15a1.79,1.79,0,0,0,.69.12A9,9,0,0,0,91.11,37a21.83,21.83,0,0,0,7.1-3.55,6.87,6.87,0,0,0,2.11-3.18,4.48,4.48,0,0,0,0-2.41,6.27,6.27,0,0,1,.54,3.81h0a9.9,9.9,0,0,1-1.08,3.21C97,40,92.28,43.65,87,46.11c-.92.43-1.86.82-2.81,1.18" fill="#9a491f"/><path id="path3658" d="M80.33,48.71v0l.46-.1-.46.12" fill="#9a491f"/><path id="path3660" d="M54.14,41.44l-.56-.5c-2.15-2-4-4.38-4.43-7.24h0a2.82,2.82,0,0,1-.08-2.45c.11.46.27.92.31,1a8.69,8.69,0,0,0,2.55,3.91,26.73,26.73,0,0,0,5.23,3.85,10.56,10.56,0,0,0,1.84.86,30.36,30.36,0,0,0-4.86.53" fill="#9a491f"/><path id="path3662" d="M74.43,49.14l-.61-.06.61.05h0m6.36-.55a23,23,0,0,0,2.72-1l.68-.26a11.4,11.4,0,0,1-3.4,1.3" fill="#702217"/><path id="path3664" d="M75.57,47.49a3.93,3.93,0,0,0,.93-1h0a3.93,3.93,0,0,1-.93,1" fill="#7c2a1a"/><path id="path3666" d="M74.43,49.13l-.61-.05a25.71,25.71,0,0,1-4-.82A3.41,3.41,0,0,1,67.87,47a2,2,0,0,1,.63-2.68c-.66.91-.57,1.79.49,2.66s2.78,1,4.17,1.16l.48,0a3.82,3.82,0,0,0,.68-.07,9.11,9.11,0,0,0,.11,1.05" fill="#7c2a1a"/><path id="path3668" d="M80.33,48.69c0-.12,0-.24,0-.35-.05-.37-.08-.76-.11-1.14a7.47,7.47,0,0,0,1.31.11l.46,0A4.6,4.6,0,0,0,85,45.34a4,4,0,0,0,1.29-3.27h-.06c-.13.43-.17.88-.33,1.3A4.6,4.6,0,0,1,85,44.67c-.81.93-1.5,2-2.78,2.28a2.62,2.62,0,0,1-.57.06,9.81,9.81,0,0,1-3-.77,3.29,3.29,0,0,1-2-1.83c-.13-.71-.16-1.42-.27-2.13A10.14,10.14,0,0,0,81.7,40l0,0,.06,0h0l0,0h0A11,11,0,0,0,84.2,37c0,3.06-3.18,5.27-5.87,6-2.21.58-.62,2.33.66,3a4,4,0,0,0,2,.52,5.52,5.52,0,0,0,5.13-5.12c.12.23.23.46.34.7a4.12,4.12,0,0,1-.51,3.34,4.63,4.63,0,0,1-1.74,1.8l-.68.26a23,23,0,0,1-2.72,1l-.46.1m-7-.82a7.6,7.6,0,0,1-2.81-.65,6.5,6.5,0,0,1-1.38-.79,2.58,2.58,0,0,1-.7-.84c-.28-.53.13-1.11.45-1.56h0c-.24.54-.38,1.14.16,1.54a8.4,8.4,0,0,0,3.22,1.11,4.2,4.2,0,0,0,1,.12c1.59,0,2.49-1.1,2.33-2.94a.3.3,0,0,0-.22-.29,9.78,9.78,0,0,1-4.08-1.26A6.43,6.43,0,0,1,70,41.22a11.16,11.16,0,0,0,5,1.16h0c.32,0,.63,0,1,0a6.11,6.11,0,0,1,.37,3.42,3.26,3.26,0,0,1-2.59,2.09l-.37,0" fill="#7c2a1a"/><path id="path3670" d="M68.5,44.3a3.94,3.94,0,0,1,.44-.5l0,0a2.14,2.14,0,0,1-.13.19,2.42,2.42,0,0,0-.36.27" fill="#6e3418"/><path id="path3672" d="M73.64,48.15l-.48,0c-1.39-.17-3-.23-4.17-1.16s-1.15-1.75-.49-2.66a2.42,2.42,0,0,1,.36-.27c-.32.45-.73,1-.45,1.56a2.58,2.58,0,0,0,.7.84,6.5,6.5,0,0,0,1.38.79,7.6,7.6,0,0,0,2.81.65l.37,0a3.26,3.26,0,0,0,2.59-2.09,6.11,6.11,0,0,0-.37-3.42l.51-.06c.11.71.14,1.42.27,2.13a3.29,3.29,0,0,0,2,1.83,9.81,9.81,0,0,0,3,.77,2.62,2.62,0,0,0,.57-.06c1.28-.28,2-1.35,2.78-2.28a4.6,4.6,0,0,0,.93-1.31c.16-.42.2-.87.33-1.3h.06A4,4,0,0,1,85,45.34,4.6,4.6,0,0,1,82,47.29l-.46,0a7.47,7.47,0,0,1-1.31-.11h0c-.2,0-.39-.07-.59-.12A4.49,4.49,0,0,1,77,45.58l-.17-.28h0v.08a1.86,1.86,0,0,1-.22.86l-.11.21h0a3.93,3.93,0,0,1-.93,1,2.82,2.82,0,0,1-.9.49l-.35.09h0a3.82,3.82,0,0,1-.68.07" fill="#562115"/><path id="path3674" d="M86.25,41.85v0" fill="#375352"/><path id="path3676" d="M71.69,43.45A29.88,29.88,0,0,0,61.81,41a28.68,28.68,0,0,0-10.05,1.09l0,.07a41.9,41.9,0,0,1,9.94-.59A28.35,28.35,0,0,1,71.45,44a.31.31,0,0,0,.24-.57" fill="#454130"/><path id="path3678" d="M70.36,43.91a24.15,24.15,0,0,0-17.47,1.14l0,0a25.24,25.24,0,0,1,8.16-1.65,25,25,0,0,1,9.06,1c.36.11.6-.43.23-.55" fill="#454130"/><path id="path3680" d="M70.2,45a12.16,12.16,0,0,0-4,.16,43.14,43.14,0,0,0-4.66.78,15.35,15.35,0,0,0-6.89,3l0,.06a20.17,20.17,0,0,1,7.15-2.56c1.47-.29,2.94-.54,4.42-.71a23.3,23.3,0,0,0,4-.41c.19-.05.12-.3,0-.34" fill="#454130"/><path id="path3682" d="M99.15,35.65c-3.09-.15-6.3.94-9.14,2.1a21.25,21.25,0,0,0-3.94,2.16,8.27,8.27,0,0,0-2.88,2.63c-.14.25.24.44.41.25A20.8,20.8,0,0,1,90.43,38a31,31,0,0,1,4.07-1.4,21.2,21.2,0,0,1,4.65-.94v-.05" fill="#454130"/><path id="path3684" d="M98.66,39.67a32.15,32.15,0,0,0-7.84.31c-2.28.41-5,1-6.73,2.64a.16.16,0,0,0,.19.26,21.42,21.42,0,0,1,6.89-2.49,32.06,32.06,0,0,1,3.52-.5c1.32-.09,2.65,0,4-.12v-.1" fill="#454130"/><path id="path3686" d="M100,43.08c-1.38-.3-2.78-.53-4.19-.7s-2.84-.13-4.25-.16a22,22,0,0,0-4.14.21,16.59,16.59,0,0,0-3.75,1.21.16.16,0,0,0,.07.31c1.28-.17,2.48-.73,3.73-1a19.77,19.77,0,0,1,4.14-.23c1.48,0,3-.07,4.47,0,1.31.1,2.6.34,3.92.33v0" fill="#454130"/><path id="path3688" d="M80.29,48.34c-.05-.37-.08-.76-.11-1.14-.2,0-.39-.07-.59-.12A4.49,4.49,0,0,1,77,45.58l-.17-.28a1.94,1.94,0,0,1-.22.94l-.11.21A3.49,3.49,0,0,1,74.67,48l-.35.09A4.65,4.65,0,0,0,76,52c.67.45,1.89.06,1.94-.55a1.24,1.24,0,0,0,.82.14c.79.1,1.33-.52,1.53-1.32a5.4,5.4,0,0,0,0-1.88" fill="#f9f7e8"/><path id="path3690" d="M76.73,52.14A1.21,1.21,0,0,1,76,52a4.65,4.65,0,0,1-1.71-3.88,5.83,5.83,0,0,0,.85,3h0a3.81,3.81,0,0,1-.19-1v0a2.31,2.31,0,0,0,1.26,1.5,1.58,1.58,0,0,0,.54.11.65.65,0,0,0,.7-.74,3.56,3.56,0,0,1-.3-1c-.11-.47-.2-.93-.28-1.39a3.25,3.25,0,0,1,.36.57,2.26,2.26,0,0,1,.16-.85c.15,1,.33,2.86,1.34,3,.5-.09,1-.26,1-.87a6.37,6.37,0,0,0,0-1.38c0-.3-.07-.6-.1-.9a.87.87,0,0,1,.28.35,4,4,0,0,1,.32,1.72h0c-.19.74-.67,1.32-1.36,1.32h-.17l-.22,0a1.29,1.29,0,0,1-.6-.16c0,.43-.65.74-1.24.74" fill="#b0ad90"/><path id="path3692" d="M80.4,49.55a11.57,11.57,0,0,0-.11-1.21c-.05-.37-.08-.76-.11-1.14-.2,0-.39-.07-.59-.12h0c.2.05.39.09.59.12,0,.38.06.77.11,1.14a11.57,11.57,0,0,1,.11,1.21h0" fill="#b0ad90"/><path id="path3694" d="M67,35.41a22.5,22.5,0,0,1,14-2.92c5.63.83,4.06,4.53.83,7.4a10.88,10.88,0,0,1-12.09,1.2C65.87,39,64.79,36.87,67,35.41" fill="#ec8593"/><path id="path3696" d="M74.93,42.38h0m0,0c.32,0,.63,0,1,0h0c-.32,0-.63,0-1,0m1.46-.1h0A10.11,10.11,0,0,0,81.7,40a10.14,10.14,0,0,1-5.3,2.3" fill="#712018"/><path id="path3698" d="M75.89,42.34h0l.51-.06h0l-.51.06" fill="#4e1a14"/><path id="path3700" d="M81.74,39.94l.06,0h0l-.06,0m.09-.08h0" fill="#712018"/><path id="path3702" d="M74.93,42.38h0a11,11,0,0,1-5.21-1.29h0c-3.24-1.72-4.51-3.54-3.51-4.94a2,2,0,0,0,1.07,1.18A7.18,7.18,0,0,0,70.5,38a32.24,32.24,0,0,0,4.57-.48,38.3,38.3,0,0,0,7.22-1.79c.91-.33,1.85-.91,2-1.67,1.12,1.55-.3,3.89-2.49,5.84h0l0,0h0l-.06,0,0,0a10.11,10.11,0,0,1-5.3,2.3l-.51.06c-.32,0-.63,0-1,0h0" fill="#d65469"/><path id="path3704" d="M67.52,36.25A.16.16,0,0,1,67.4,36c1.23-1.54,3.26-1.85,5.06-2.34a18.11,18.11,0,0,1,4.67-.89,7,7,0,0,1,1,.08.49.49,0,0,1,0,1c-1.79.38-3.62.38-5.43.84a26.34,26.34,0,0,0-5.14,1.58l-.06,0" fill="#f8bec7"/><path id="path3706" d="M80.57,34.41h0c-.41,0-1.21,0-1.37-.54a.59.59,0,0,1,.39-.84l.1-.06a4.28,4.28,0,0,1,1.15-.15,2.11,2.11,0,0,1,1.8.69.46.46,0,0,1-.3.74,11,11,0,0,1-1.72.16" fill="#f8bec7"/><path id="path3708" d="M80.32,50.23h0a2.46,2.46,0,0,0,.08-.67,2.46,2.46,0,0,1-.08.67h0" fill="#622a17"/><path id="path3710" d="M75,50.06a9.14,9.14,0,0,1-.24-1.64c0-.15,0-.29-.07-.44a3.49,3.49,0,0,0,1.83-1.53l.11-.21h0a18.65,18.65,0,0,0,.3,2.32l-.18-.19a.69.69,0,0,0-.52-.21,1.12,1.12,0,0,0-.95.55A2.62,2.62,0,0,0,75,50.06m2.45-1.78L77.37,48c-.15-.78-.27-1.58-.37-2.37a4.49,4.49,0,0,0,2.59,1.5h0c0,.36.08.72.13,1.08a2.16,2.16,0,0,0-1.26-.35,2.4,2.4,0,0,0-.56.06.67.67,0,0,0-.47.41" fill="#b0ad90"/><path id="path3712" d="M75.17,51.1a5.83,5.83,0,0,1-.85-3h0l.35-.09h0c0,.15,0,.29.07.44A9.14,9.14,0,0,0,75,50.06a3.81,3.81,0,0,0,.19,1" fill="#7b795c"/><path id="path3714" d="M80.32,50.23A4,4,0,0,0,80,48.51a.87.87,0,0,0-.28-.35c0-.36-.09-.72-.13-1.08.2.05.39.09.59.12,0,.38.06.77.11,1.14a11.57,11.57,0,0,1,.11,1.21,2.46,2.46,0,0,1-.08.67h0" fill="#7b795c"/><path id="path3716" d="M77.27,49.13a3.25,3.25,0,0,0-.36-.57,18.65,18.65,0,0,1-.3-2.32,1.86,1.86,0,0,0,.22-.86h0V45.3l.17.28h0c.1.79.22,1.59.37,2.37l.06.33a2.26,2.26,0,0,0-.16.85" fill="#7b795c"/><path id="path3718" d="M66.71,33.84a3.78,3.78,0,0,1-1.45-.49c-1-.41-2.74-1.2-.53-2.41a26.66,26.66,0,0,1,12.45-3.37,20.59,20.59,0,0,1,6.39,1c1.75.56,1.92,1.32.25,2.82-.71.64-1.09.84-1.44.84s-.86-.37-1.91-.54a6.87,6.87,0,0,0-1-.05c-2.82,0-9.09.78-10.89,1.63a4.69,4.69,0,0,1-1.86.57" fill="#d6b585"/><path id="path3720" d="M60.49,33.06c1.22-1.94,4.82-4.36,4.82-4.36-1.51-1.3,1-6.06,2-6.06a.2.2,0,0,1,.11,0c.94.4.8,5.23.8,5.23A24.54,24.54,0,0,1,77,26.3a22.23,22.23,0,0,1,4,.33c-.12-.08-.35-.55-.28-3.06,0-1.31.32-1.83.69-1.83.57,0,1.36,1.2,1.84,2.6.79,2.3.31,2.53.31,2.53a17.49,17.49,0,0,1,5.31,2.84l-.71-.42.13.06h0a11.14,11.14,0,0,0-2.55-1.25,21.75,21.75,0,0,0-7.48-1.25,28.25,28.25,0,0,0-3.94.29,31.74,31.74,0,0,0-6.93,1.62,20.09,20.09,0,0,0-6.14,3.6l0,0a7.82,7.82,0,0,0-.8.66M75,27.62a26.85,26.85,0,0,1,3.45-.23c.84,0,1.72,0,2.74.12l.88.09c-.93-.09-2-.14-3.17-.14s-2.46.05-3.9.16" fill="#aa7b3d"/><path id="path3722" d="M61.29,32.4h0a25.82,25.82,0,0,1,13.47-4.76l.2,0-.39.06a32.63,32.63,0,0,0-7.28,1.67,32,32,0,0,0-3.1,1.27,31.7,31.7,0,0,0-2.9,1.78m26.88-3.11A24.82,24.82,0,0,0,82,27.6a15.37,15.37,0,0,1,6.14,1.69" fill="#89612f"/><path id="path3724" d="M61.29,32.4l0,0a20.09,20.09,0,0,1,6.14-3.6,31.74,31.74,0,0,1,6.93-1.62,28.25,28.25,0,0,1,3.94-.29,21.75,21.75,0,0,1,7.48,1.25,11.14,11.14,0,0,1,2.55,1.25h0l-.13-.06A15.37,15.37,0,0,0,82,27.6l-.88-.09c-1-.08-1.9-.12-2.74-.12a26.85,26.85,0,0,0-3.45.23l-.2,0A25.82,25.82,0,0,0,61.29,32.4" fill="#795529"/><path id="path3726" d="M67.55,27c0-1.76-.06-3-.67-2.66S65.67,27.5,66,28.24s.75.68,1.1.48.42-1.13.42-1.73" fill="#1b1712"/><path id="path3728" d="M66.59,24.86a1.21,1.21,0,0,0-.1,1.22c.14.2.34-.16.43-.76s.07-1.22-.33-.46" fill="#fff"/><path id="path3730" d="M68.63,21.4c-.24,0-.67-.72-.94-1.25a.58.58,0,0,0-.51-.38c-.42,0-.91.52-1.23.9a.62.62,0,0,1-.45.27.38.38,0,0,1-.34-.46,7.46,7.46,0,0,1,1-1.9,4.42,4.42,0,0,0-.43,1.06q0,.21.06.21c.09,0,.27-.14.54-.46s.72-.79,1.09-.79c.2,0,.38.11.53.42.34.65.67,1.3.8,1.3s.06-.09,0-.28c0,0-.13-2.44-1.25-2.51h0c1.12.07,1.25,2.51,1.25,2.51.13,1,0,1.36-.12,1.36" fill="#9f7139"/><path id="path3732" d="M66.12,18.58c.3-.53.75-1,1.33-1h0c-.47,0-.94.48-1.34,1" fill="#89612f"/><path id="path3734" d="M68.71,20.32c-.13,0-.46-.65-.8-1.3-.15-.31-.33-.42-.53-.42-.37,0-.77.43-1.09.79s-.45.46-.54.46-.08-.07-.06-.21a4.42,4.42,0,0,1,.43-1.06c.4-.57.87-1,1.34-1h0c1.12.07,1.25,2.51,1.25,2.51,0,.19,0,.28,0,.28" fill="#714f26"/><path id="path3736" d="M81.23,25.55c-.14-1.75-.16-3,.47-2.7s1.44,3.06,1.15,3.83-.71.73-1.07.56-.5-1.09-.55-1.69" fill="#1b1712"/><path id="path3738" d="M82,23.35a1.24,1.24,0,0,1,.19,1.22c-.12.2-.35-.14-.48-.73s-.17-1.21.29-.49" fill="#fff"/><path id="path3740" d="M80,20c-.21,0-.24-.8-.17-1.36,0,0,.19-2.43,1.31-2.47h0c-1.12,0-1.31,2.47-1.31,2.47,0,.2,0,.29,0,.29s.47-.64.82-1.29c.16-.29.34-.4.53-.4.37,0,.78.44,1.08.82s.44.47.53.47.09-.07.07-.21a4.51,4.51,0,0,0-.57-1.35,7.62,7.62,0,0,1,1,1.89c.18.53.13.72,0,.72s-1.09-.8-1.4-1.18a.37.37,0,0,0-.3-.17c-.42,0-.92.77-1.3,1.46-.12.22-.21.31-.29.31" fill="#9f7139"/><path id="path3742" d="M82.36,16.93a1.65,1.65,0,0,0-1.17-.8h0a1.49,1.49,0,0,1,1.16.8" fill="#89612f"/><path id="path3744" d="M79.9,18.89c-.05,0-.07-.09,0-.29,0,0,.19-2.43,1.31-2.47h0a1.65,1.65,0,0,1,1.17.8,4.51,4.51,0,0,1,.57,1.35c0,.14,0,.21-.07.21s-.27-.14-.53-.47-.71-.82-1.08-.82c-.19,0-.37.11-.53.4-.35.65-.7,1.29-.82,1.29" fill="#714f26"/><path id="path3746" d="M104.49,15.73a13.08,13.08,0,0,0-.79-4.19c-1-3.33-2.63-7.08-5.91-8.7-3.11-1.55-5.62,1-6.92,3.58a24.91,24.91,0,0,0-2.24,6.92,10.19,10.19,0,0,0-.39,3.72v.12l.07,0,0,.23h.12a11.61,11.61,0,0,1,.42-2,5.44,5.44,0,0,0,2.9,3.08,26.11,26.11,0,0,0,5.67,1.91c1.78.43,4,.74,5.55-.41a4.5,4.5,0,0,0,1.49-4.28" fill="#ec8593"/><path id="path3748" d="M56.36,10.34c-1.08-2.45-3.29-4.72-6.18-3.79s-4.67,4.68-5.72,7.36a33.87,33.87,0,0,0-1.68,5.67c-.34,1.73-.64,3.91.38,5.47s3.23,1.09,4.69.6a29.48,29.48,0,0,0,3.37-1.57,23.71,23.71,0,0,0,3.21-1.83,8.35,8.35,0,0,0,3.09-3.85A12.44,12.44,0,0,1,58,20.87a14.74,14.74,0,0,0,.13-3.05,24.53,24.53,0,0,0-1.81-7.48" fill="#ec8593"/><path id="path3750" d="M98.79,3.43h0m0,0h0m0,0h0m0,0,0,0,0,0m0,0a5.84,5.84,0,0,0-.76-.45,5.84,5.84,0,0,1,.76.45m-.77-.46h0m0,0h0m0,0,0,0,0,0" fill="#8e331c"/><path id="path3752" d="M99.44,20.77a14,14,0,0,1-2-.35h0a26.11,26.11,0,0,1-5.67-1.91,5.44,5.44,0,0,1-2.9-3.08,11.61,11.61,0,0,0-.42,2h-.12l0-.23-.07,0v-.12h0c0-.27,0-.55,0-.82a11,11,0,0,1,.43-2.9,24.91,24.91,0,0,1,2.24-6.92c1-2.06,2.8-4.06,5-4.06a4.2,4.2,0,0,1,1.89.48h0l0,0h.08a5.84,5.84,0,0,1,.76.45h0l0,0h.09A13.08,13.08,0,0,1,103.2,10a11.75,11.75,0,0,0-3-3.77,3.14,3.14,0,0,0-1.82-.64,2.49,2.49,0,0,0-1,.21,4.3,4.3,0,0,0-2.22,2.86c-.91,2.68-1.31,6.24,0,8.81a7,7,0,0,0,4.21,3.29" fill="#d65469"/><path id="path3754" d="M44.21,14.57h0m0,0,.24-.64-.24.64" fill="#8e331c"/><path id="path3756" d="M52.63,23.35c.29-.82.54-1.65.79-2.4a14.12,14.12,0,0,0,.27-5.57,10,10,0,0,0-1.44-4.84,2.15,2.15,0,0,0-1.78-1c-1.48,0-3.11,1.47-4,2.5a19.21,19.21,0,0,0-2.81,4.21c.17-.57.37-1.13.57-1.69h0l.24-.64h0c1-2.68,2.7-6.4,5.72-7.36a4.16,4.16,0,0,1,1.31-.21c2.25,0,4,1.93,4.87,4a24.53,24.53,0,0,1,1.81,7.48,5.24,5.24,0,0,1,0,.72,17.3,17.3,0,0,1-.15,2.35v0a15.41,15.41,0,0,0-.51-2.48h0a8.35,8.35,0,0,1-3.09,3.85h0a17.69,17.69,0,0,1-1.8,1.1" fill="#d65469"/><path id="path3758" d="M99.72,27.89c-2.77-4.45-7.18-.82-10,1.51l.06.11c1.37-.58,2.51-1.57,3.83-2.24,2.1-1.06,3.87-.26,5.63,1a.3.3,0,0,0,.43-.4" fill="#fbfaee"/><path id="path3760" d="M59.54,32.55c-2.26-2-8.66-5-10.15-.51a.2.2,0,0,0,.34.22c2.83-2.64,6.77-1,9.72.43l.09-.14" fill="#fbfaee"/><path id="path3762" d="M99.22,1.57A5.88,5.88,0,0,0,94.89.25a7.38,7.38,0,0,0-3.75,1.61c-2.33,1.79-3.87,4.65-4.94,7.33l.06,0A19.89,19.89,0,0,1,90.92,2.6,7.86,7.86,0,0,1,94.52.78a7.34,7.34,0,0,1,2-.05,6.58,6.58,0,0,1,2.55,1l.11-.18" fill="#fbfaee"/><path id="path3764" d="M57.52,7.85a8.45,8.45,0,0,0-2.75-3.12c-2.54-1.66-5.69.19-7.51,2.09l.06.07a10.19,10.19,0,0,1,3.85-2.25,4.19,4.19,0,0,1,4,.91c2,1.64,3,4.39,4.17,6.61l.08,0a25.61,25.61,0,0,0-1.93-4.27" fill="#fbfaee"/><path id="path3766" d="M83.63,13.76a10.45,10.45,0,0,0-4.71-1.24c-1.91,0-3.82,0-5.72.14-3.54.25-7.1,1.22-9.77,3.65l.06.12a34,34,0,0,1,21.28-2c.13,0-.31-.28-1.14-.65" fill="#fbfaee"/><path id="path3768" d="M61.09,125.88c-.71.56-1.37,1.17-2.11,1.7a5.92,5.92,0,0,1-2.82.82c-1.56.17-2.86,0-4.11,1.14h0a4.73,4.73,0,0,1,2.58-.7,11,11,0,0,0,2.36-.22,9.28,9.28,0,0,0,4.15-2.7l0-.05" fill="#fabac6"/><path id="path3770" d="M59.66,125.07a22.68,22.68,0,0,1-7.53,2c-1.68.13-3.82-.16-4.89,1.47l0,0c1.52-1.58,4.1-1,6.07-1.28a21.73,21.73,0,0,0,6.35-2.18l0-.05" fill="#fabac6"/><path id="path3772" d="M58.13,124.77c-2.52.73-5.44,1.68-8,.73a5,5,0,0,0-2.84-.6,3.07,3.07,0,0,0-1.85,1.46l.08.07a2.82,2.82,0,0,1,2.92-1.16c1.11.19,2.09.72,3.23.85a10.86,10.86,0,0,0,3.31-.36,20.39,20.39,0,0,0,3.19-.9l0-.09" fill="#fabac6"/><path id="path3774" d="M57.45,123.41a14.73,14.73,0,0,1-6.57-.25c-1.68-.38-3.37-.83-4.84.37l.07.09c1.91-1,3.9-.26,5.91,0a11,11,0,0,0,5.44-.22v0" fill="#fabac6"/><path id="path3776" d="M117.6,101.69a4.85,4.85,0,0,0,.83-2.28,3.68,3.68,0,0,0-.59-2.69,1,1,0,0,0-1.5-.08c.06-.3.12-.59.15-.89.12-1-.23-2.34-1.36-2.62a2.58,2.58,0,0,0-2.66,1.32h0v0a6.07,6.07,0,0,0-.07-1.12,2.18,2.18,0,0,0-2.31-1.91,4.07,4.07,0,0,0-2.86,2.06c-1.48,2.34-1.52,5.46-2.12,8.09-.2.87-.39,1.73-.57,2.59l0,0c0,.27-.1.55-.15.82-.18.89-.41,1.77-.6,2.66a4.62,4.62,0,0,1-.74,1.87,8.14,8.14,0,0,0-1.15,1.71.17.17,0,0,1-.3,0,12.44,12.44,0,0,1-.49-2.63,9.34,9.34,0,0,1-.83,1c-.19.21-.37.44-.58.65-.08,1.45-.26,2.91-.24,4.36a7.07,7.07,0,0,0-1,3.14,3.09,3.09,0,0,0,2.15,3.13c1.26.34,2.64-.46,3.57-1.22a9,9,0,0,0,2.58-4.44,12.51,12.51,0,0,1,3.13-4.63,11.17,11.17,0,0,0,2.54-3.22,2.71,2.71,0,0,1,1-.51,13.4,13.4,0,0,1,1.78-.26,4.57,4.57,0,0,0,2.57-1.11c1-1,1.36-3.19-.09-3.78" fill="#ec8793"/><path id="path3778" d="M118.42,99.51h0m0,0h0m0,0v0m0-.08h0m-2.1-2.74h0l.13-.08-.13.08" fill="#ebacba"/><path id="path3780" d="M112.47,94.45h0" fill="#8e331c"/><path id="path3782" d="M107.2,93.48a4,4,0,0,1,.31-.45,4,4,0,0,0-.31.45m1-1.2h0m0,0,.17-.14h0l-.17.14" fill="#b15b36"/><path id="path3784" d="M102.32,119.82a2.89,2.89,0,0,1-.7-.08c-.78-.17-1.61-.49-1.82-1.35a9.57,9.57,0,0,1,1.25-6.48l.25,0a1.2,1.2,0,0,1,.44.91l-.2.35,0,0a21,21,0,0,0,2.16-4,34.37,34.37,0,0,0,1.13-4.84c.41-1.7.86-3.37,1.17-5.09.21-1.14.39-2.28.7-3.39a7.45,7.45,0,0,1,1.06-2.35,10.75,10.75,0,0,0,.06,2.53,18.81,18.81,0,0,1-.56,4.54c-.06.33-.3,1.64.35,1.66h0c.68,0,1-1,1.22-1.54a21.21,21.21,0,0,1,1.88-3.31,8.1,8.1,0,0,0,1.17-3.09,8.54,8.54,0,0,1-1.71,4.61,8.13,8.13,0,0,0-1.54,3.77l0,0a10.78,10.78,0,0,1,1.18-2.41c.44-.66.91-1.31,1.31-2a8.16,8.16,0,0,0,1.16-3.22,8.9,8.9,0,0,1,1-1,6.48,6.48,0,0,0-.16,1.49,6.05,6.05,0,0,1-.77,3.08,12.37,12.37,0,0,0-1.59,3.49.16.16,0,0,0,.16.2h.08c.8-.37,1-1.42,1.66-2a9.91,9.91,0,0,0,2.27-2.16,7.54,7.54,0,0,0,.94-3,7.06,7.06,0,0,1-.67,2.89,8.74,8.74,0,0,1-2.58,2.9,4.64,4.64,0,0,0-1.71,2.54,3.43,3.43,0,0,0-2.06-.73,2.85,2.85,0,0,0-1.7.57,4.6,4.6,0,0,1,1.42-.24,3.45,3.45,0,0,1,2.18.74,3.14,3.14,0,0,1,1.29,2.58c-.05-.28-.13-.55-.19-.78l-.19-.11a2.92,2.92,0,0,0-1.88-1.72,5.34,5.34,0,0,0-1.35-.17c-1,0-2.14.32-2.34,1.35-.13.69.54,1,1.08,1.13a6.94,6.94,0,0,1,1.56.56,13,13,0,0,1,1.38,1.2,1.88,1.88,0,0,0,1,.43.76.76,0,0,0,.27,0,12.64,12.64,0,0,1-1.23,1.85l-.33.33-.19.13a27.25,27.25,0,0,0-3.21,2c-1.12,1-1,2.07-.93,3.44a3.31,3.31,0,0,1-.87,2.57,3.52,3.52,0,0,1-2.49,1.23m8.14-9.86a9.07,9.07,0,0,0,1.93-2.61,9.07,9.07,0,0,1-1.93,2.61m-7-.89c.11-.44.25-1,.32-1.23-.09.42-.2.83-.32,1.23m.19-1c0-.15.07-.29.11-.45.19-.89.42-1.77.6-2.66l.09-.45c0,.14-.06.28-.08.41h0c-.2.94-.39,1.89-.57,2.83l-.15.32m9-1.47a2.46,2.46,0,0,0,0-1,8.39,8.39,0,0,1,1.55-1.77,25.06,25.06,0,0,1,2.3-1,3.62,3.62,0,0,0,1-.85l0,0a1.68,1.68,0,0,0-.37.38,7.52,7.52,0,0,0-.43.79,3.2,3.2,0,0,1-1.11,1c-.21.14-2.34,1.38-1.37,1.78a1.89,1.89,0,0,0,.7.13,4.68,4.68,0,0,0,2.82-1.43l.19-.19a3,3,0,0,1-2,1.56c-1,.28-2.28.17-3.21.65m-.17-1.44a4.23,4.23,0,0,0-1.07-1.41,6.67,6.67,0,0,1,1.42-2.14c.59-.59,1.27-1.09,1.87-1.68a6,6,0,0,0,1.54-2.81,2,2,0,0,1,.53-.26,9.05,9.05,0,0,0-.87,2.51,4.52,4.52,0,0,1-1.61,2.33,3.61,3.61,0,0,0-1.46,2.33l.2.15.12,0a4.49,4.49,0,0,0-.67,1m1.79-2a1.92,1.92,0,0,1,1.16-.72,3.25,3.25,0,0,0,1.21-.47,4,4,0,0,1-.84.56c-.47.22-1,.33-1.45.58l-.08,0" fill="#d65769"/><path id="path3786" d="M101.19,120.94a2.15,2.15,0,0,1-.62-.08h0a2.15,2.15,0,0,0,.62.08,5,5,0,0,0,3-1.3,9,9,0,0,0,2.58-4.44,12.51,12.51,0,0,1,3.13-4.63l.16-.16h0l-.16.16a12.51,12.51,0,0,0-3.13,4.63,9,9,0,0,1-2.58,4.44,5,5,0,0,1-3,1.3" fill="#ebacba"/><path id="path3788" d="M103.38,108.61l.24-.54-.09.34-.15.2" fill="#8e331c"/><path id="path3790" d="M103,109.49l.39-.88.15-.2a3.53,3.53,0,0,1-.54,1.08" fill="#712018"/><path id="path3792" d="M101.19,120.94a2.15,2.15,0,0,1-.62-.08,2.15,2.15,0,0,0,.62.08,4,4,0,0,0,2-.64,3.87,3.87,0,0,1-1.59.38,2.29,2.29,0,0,1-1-.19A2.58,2.58,0,0,1,99,118.14a3.55,3.55,0,0,1,0-.86,6.1,6.1,0,0,1,.14-.72,20.16,20.16,0,0,1,1.07-3.37l-.44.75c.11-.73.21-1.46.29-2.2s.07-1.39.11-2.09l.06-.07a9.34,9.34,0,0,0,.83-1,12.44,12.44,0,0,0,.49,2.63.18.18,0,0,0,.17.12.16.16,0,0,0,.13-.08,8.14,8.14,0,0,1,1.15-1.71h0a3.76,3.76,0,0,0,.63-1.42l.15-.32a.09.09,0,0,0,0,0v0c-.07.25-.21.79-.32,1.23a21.37,21.37,0,0,1-1.69,3.71,1.2,1.2,0,0,0-.44-.91l-.25,0a9.57,9.57,0,0,0-1.25,6.48c.21.86,1,1.18,1.82,1.35a2.89,2.89,0,0,0,.7.08,3.52,3.52,0,0,0,2.49-1.23,3.31,3.31,0,0,0,.87-2.57c0-1.37-.19-2.45.93-3.44a27.25,27.25,0,0,1,3.21-2l.19-.13-.16.16a12.51,12.51,0,0,0-3.13,4.63,9,9,0,0,1-2.58,4.44,5,5,0,0,1-3,1.3" fill="#c53c4c"/><path id="path3794" d="M99.4,114.31h0c0-1.35.17-2.72.24-4.08l.46-.51-.46.51c-.07,1.36-.24,2.73-.24,4.08" fill="#c53c4c"/><path id="path3796" d="M100.1,109.72l.06-.07h0l-.06.07" fill="#6b1c17"/><path id="path3798" d="M101.19,120.94a2.15,2.15,0,0,1-.62-.08h0a3.1,3.1,0,0,1-2.15-3.11v0a7.07,7.07,0,0,1,1-3.14h0v-.28c0-1.35.17-2.72.24-4.08l.46-.51.06-.07c0,.7,0,1.39-.11,2.09s-.18,1.47-.29,2.2l.44-.75a20.16,20.16,0,0,0-1.07,3.37,6.1,6.1,0,0,0-.14.72,3.55,3.55,0,0,0,0,.86,2.58,2.58,0,0,0,1.64,2.35,2.29,2.29,0,0,0,1,.19,3.87,3.87,0,0,0,1.59-.38,4,4,0,0,1-2,.64" fill="#ab2330"/><path id="path3800" d="M110.34,110.08h0l.12-.12-.12.12" fill="#df8297"/><path id="path3802" d="M104.42,104.51l.06-.37-.06.37" fill="#872a1c"/><path id="path3804" d="M111.57,108.23a6.27,6.27,0,0,0,.43-1,3.27,3.27,0,0,0,.18-.89,2.19,2.19,0,0,1-.09,1.35.85.85,0,0,1-.52.49m6.12-2.76a3.2,3.2,0,0,0,.79-2.74,2.86,2.86,0,0,1-.59,1.66c0-.07,0-.13.07-.2a2,2,0,0,0-.5-2.25.83.83,0,0,1,.31-.16l-.17-.09a1.6,1.6,0,0,1,1,1.6,3.34,3.34,0,0,1-.86,2.18m-4.56-1.33a4.91,4.91,0,0,1,1.12-.93,2.89,2.89,0,0,1-1.12.93m3.49-2.12a3.47,3.47,0,0,0,.69-.79,4.37,4.37,0,0,0,.59-3.08,1.91,1.91,0,0,0-.5-1.19.66.66,0,0,0-.41-.14,1,1,0,0,0-.24,0,2.12,2.12,0,0,1,.45-.49h-.08a1.32,1.32,0,0,0-.65.19,1.33,1.33,0,0,1,.65-.2.92.92,0,0,1,.72.36,3.23,3.23,0,0,1,.62,2.09c0,.19,0,.38,0,.56,0-.16,0-.33,0-.5a5.37,5.37,0,0,1-.95,2.32,3.2,3.2,0,0,1-.89.83m1-.33a4.55,4.55,0,0,0,.47-.87l0-.21.16-.15a5.21,5.21,0,0,0,.21-.95,4.84,4.84,0,0,1-.82,2.18m.82-2.18v0m0,0h0m0,0v0m0,0v0m-1.94-3.66a2.88,2.88,0,0,0-.48-2,6.74,6.74,0,0,1,0,1.42,1.84,1.84,0,0,0-.37-1,1.31,1.31,0,0,0-1-.56,2.05,2.05,0,0,0-1.2.53,2,2,0,0,1,.43-.85,3.73,3.73,0,0,0-1.37,1.2,2.84,2.84,0,0,1,2.16-1.37,2.18,2.18,0,0,1,.49.06,2.15,2.15,0,0,1,1.39,2.25,2.22,2.22,0,0,1,0,.37m-4.55-1.45a3.25,3.25,0,0,0,0-.44c-.11-.74-.39-1.73-1.28-1.88l-.31,0a2.81,2.81,0,0,0-1.7.66,4.61,4.61,0,0,0-.82.89,3,3,0,0,1,.39-1.08l.21-.3a3,3,0,0,1,1.65-.7h.15a2.17,2.17,0,0,1,2.16,1.91,2.23,2.23,0,0,0-.25-.74,8.94,8.94,0,0,1-.09,1.17c0,.18,0,.36-.08.53m-4.75-.81h0m.32-.46v0m0,0a5.36,5.36,0,0,1,.7-.73,5.36,5.36,0,0,0-.7.73m.7-.74h0" fill="#cd4356"/><path id="path3806" d="M101.58,113.16l0,0,.2-.35h0a12.69,12.69,0,0,0,1.52-3.09s.08-.3.17-.62.23-.81.32-1.23c0-.07,0-.12,0-.14l0,0c.18-.94.37-1.89.57-2.83h0c0-.13,0-.27.08-.41l.06-.37h0l0,0c.18-.86.37-1.72.57-2.59.6-2.63.64-5.75,2.12-8.09h0a4,4,0,0,1,.31-.45v0h0a5.36,5.36,0,0,1,.7-.73h0l.17-.14-.21.3a3,3,0,0,0-.39,1.08,7.45,7.45,0,0,0-1.06,2.35c-.31,1.11-.49,2.25-.7,3.39-.31,1.72-.76,3.39-1.17,5.09a34.37,34.37,0,0,1-1.13,4.84,21,21,0,0,1-2.16,4m8.76-3.08a12.64,12.64,0,0,0,1.23-1.85.85.85,0,0,0,.52-.49,2.19,2.19,0,0,0,.09-1.35,3.14,3.14,0,0,0-1.29-2.58,3.45,3.45,0,0,0-2.18-.74,4.6,4.6,0,0,0-1.42.24,2.85,2.85,0,0,1,1.7-.57,3.43,3.43,0,0,1,2.06.73,4.64,4.64,0,0,1,1.71-2.54,8.74,8.74,0,0,0,2.58-2.9,7.06,7.06,0,0,0,.67-2.89,6.74,6.74,0,0,0,0-1.42,2.88,2.88,0,0,1,.48,2h0c0,.3-.09.59-.15.89h0l.13-.08a1.32,1.32,0,0,1,.65-.19h.08a2.12,2.12,0,0,0-.45.49,2,2,0,0,0-.53.26,6,6,0,0,1-1.54,2.81c-.6.59-1.28,1.09-1.87,1.68a6.67,6.67,0,0,0-1.42,2.14,4.23,4.23,0,0,1,1.07,1.41,4.49,4.49,0,0,1,.67-1,2.89,2.89,0,0,0,1.12-.93l.08,0c.46-.25,1-.36,1.45-.58a4,4,0,0,0,.84-.56,3.2,3.2,0,0,0,.89-.83,5.37,5.37,0,0,0,.95-2.32c0,.17,0,.34,0,.5h0v0h0v0h0v0h0a5.21,5.21,0,0,1-.21.95l-.16.15,0,.21a4.55,4.55,0,0,1-.47.87h0l.17.09a.83.83,0,0,0-.31.16l0,0a3.62,3.62,0,0,1-1,.85,25.06,25.06,0,0,0-2.3,1,8.39,8.39,0,0,0-1.55,1.77,2.46,2.46,0,0,1,0,1c.93-.48,2.24-.37,3.21-.65a3,3,0,0,0,2-1.56,2.86,2.86,0,0,0,.59-1.66,3.2,3.2,0,0,1-.79,2.74h0a4.57,4.57,0,0,1-2.57,1.11,13.4,13.4,0,0,0-1.78.26,2.71,2.71,0,0,0-1,.51h0a9.07,9.07,0,0,1-1.93,2.61l-.12.12m-1.6-7.38,0,0a8.13,8.13,0,0,1,1.54-3.77,8.54,8.54,0,0,0,1.71-4.61c0-.17.06-.35.08-.53a8.94,8.94,0,0,0,.09-1.17,2.23,2.23,0,0,1,.25.74h0a6,6,0,0,1,.07.94v.18h0v0h0a3.73,3.73,0,0,1,1.37-1.2,2,2,0,0,0-.43.85,8.9,8.9,0,0,0-1,1,8.16,8.16,0,0,1-1.16,3.22c-.4.68-.87,1.33-1.31,2a10.78,10.78,0,0,0-1.18,2.41" fill="#bd2f40"/><path id="path3808" d="M101.74,112.78h0a21.37,21.37,0,0,0,1.69-3.71c-.09.32-.15.58-.17.62a12.69,12.69,0,0,1-1.52,3.09m2-4.94v0a.09.09,0,0,1,0,0l0,0s0,.07,0,.14" fill="#ab2330"/><path id="path3810" d="M107.2,95.25v0" fill="#fabac6"/><path id="path3812" d="M109.49,92.36a3.1,3.1,0,0,0-2.13,2.29l.11,0a4,4,0,0,1,1.7-1.73,1.72,1.72,0,0,1,2.28.65l.18,0c-.14-1.13-1.14-1.41-2.14-1.21" fill="#fabac6"/><path id="path3814" d="M114.72,93.8c-.84-.17-1.32.67-1.86,1.14l.07.1a4.39,4.39,0,0,1,1.36-.85c.67-.13,1.09.76,1.34,1.23l.17-.06c-.11-.58-.42-1.42-1.08-1.56" fill="#fabac6"/><path id="path3816" d="M117.73,97.11c-.38-.49-.86-.17-1,.31l.12,0c.43-.76.82.12.88.59s0,.86,0,1.29h.08c.11-.69.33-1.62-.13-2.22" fill="#fabac6"/><path id="path3818" d="M117.38,102.51v.13c.66.08.4,1,.34,1.5l.1,0c.27-.46.45-1.81-.44-1.66" fill="#fabac6"/><path id="path3820" d="M106.75,104.25l0,.11c2-.56,4.51.2,5,2.41l.15,0c0-2.72-3.17-3.56-5.24-2.49" fill="#fabac6"/></g></g></g></g></svg>