<svg xmlns="http://www.w3.org/2000/svg" viewBox="0 0 161.37 133.33"><title>Panda</title><g id="Layer_2" data-name="Layer 2"><g id="svg2"><g id="g10"><g id="g12"><path id="path11504" d="M35.81,7S31.8,1.41,26,5,20.17,15.1,23.59,18C28.28,13.93,35.81,7,35.81,7" fill="#342e32"/><path id="path11506" d="M24.71,12.08c-2.57,0-2.24-3.8.1-5.76a7.2,7.2,0,0,1,4.71-2A6.17,6.17,0,0,1,33.63,6c1.36,1.47-2.26,3.27-6.9,5.54a4.8,4.8,0,0,1-2,.56" fill="#605460"/><path id="path11508" d="M35.64,6.82h0m0,0a7.24,7.24,0,0,0-.53-.58h0a7.24,7.24,0,0,1,.53.58h0" fill="#342e32"/><path id="path11510" d="M23.31,17.77a7.16,7.16,0,0,1-1.78-6.86c0,1.64.81,2.79,2.48,2.79a5.19,5.19,0,0,0,1.36-.21c3.51-1,8.24-5.71,9.73-7.26a7.24,7.24,0,0,1,.53.58l0,0,0,0h0c-3.29,3.16-7.53,6.74-12.33,11" fill="#151312"/><path id="path11512" d="M32.35,5.28a8.48,8.48,0,0,0-8.55,4.1c.35-2.85,4.81-6.41,8.55-4.1" fill="#fff"/><path id="path11514" d="M28,87.51s-1.63,5.75-3.28,9.85-2.46,8.55-.58,10,3.63,5,0,5.75c0,0-1.64,1.4-3.17.82-1.29,1.76-5.27.82-8.2-2.23S-1.08,94.55.09,74.15C1.26,58.44,4,48.72,5.83,45c0,0,4.46,31.77,22.15,42.55" fill="#342e32"/><path id="path11516" d="M17.62,109.37a4.88,4.88,0,0,1,1.08.11,4.1,4.1,0,0,1,2.14,1.09,2.84,2.84,0,0,1,.4.56,2.39,2.39,0,0,1,.21.62,2.55,2.55,0,0,1,0,.61,2.66,2.66,0,0,1-.09.53,3.05,3.05,0,0,1-.15.43,2.33,2.33,0,0,1-.14.31l-.15.26.08-.29a1.65,1.65,0,0,0,.08-.32,4.16,4.16,0,0,0,.08-.43,3.85,3.85,0,0,0,0-.49,2.5,2.5,0,0,0-.07-.54,1.83,1.83,0,0,0-.21-.53,2.62,2.62,0,0,0-.34-.48,3.39,3.39,0,0,0-.46-.39,4.65,4.65,0,0,0-.5-.32,7.58,7.58,0,0,0-1-.42c-.3-.11-.56-.19-.74-.24l-.29-.07" fill="#100f0d"/><path id="path11518" d="M22,108.77a4,4,0,0,1,.91.22,4.34,4.34,0,0,1,.88.42,3,3,0,0,1,.82.8,1.91,1.91,0,0,1,.33,1.12l0,.27-.06.25a2.24,2.24,0,0,1-.17.44,2.93,2.93,0,0,1-.37.58l-.16.2a1.75,1.75,0,0,1,.11-.24,4.74,4.74,0,0,0,.23-.61,2.58,2.58,0,0,0,.1-.42l0-.23v-.24a2,2,0,0,0-.08-.48,1.85,1.85,0,0,0-.23-.44,2.91,2.91,0,0,0-.7-.74,8.32,8.32,0,0,0-.78-.5c-.24-.12-.45-.23-.6-.29l-.23-.11" fill="#100f0d"/><path id="path11520" d="M18.86,114.77h0m0,0a2.48,2.48,0,0,0,2.05-.84,2.48,2.48,0,0,1-2.05.84m2.87-.74h0m0,0a4.22,4.22,0,0,0,2.37-1h0c1.54-.3,2.11-1.13,2.11-2.1,0,1-.57,1.8-2.11,2.1a4.22,4.22,0,0,1-2.37,1m-.75-.12h0m0,0h0m-8-2,0,0,0,0m0,0-.18-.19C10,108.77,0,96,0,77.21,0,96,10,108.77,12.75,111.66l.18.19m11.19-4.53h0m0,0h0m0,0h0m0,0h0m0,0h0m0,0h0m0,0v0m0,0a4.25,4.25,0,0,1-.9-3.46v0c-.1,1.53.14,2.79.89,3.48m.57-9.39h0c0-.14.11-.27.16-.41-.05.14-.1.27-.16.41" fill="#989597"/><path id="path11522" d="M18.86,114.77h0A9.26,9.26,0,0,1,13,111.89l0,0h0l-.18-.19C10,108.77,0,96,0,77.21q0-1.5.09-3.06C1.16,59.8,3.5,50.44,5.33,46.07a86.7,86.7,0,0,0,2.3,12C14.06,79.13,23.5,86.46,26.27,88.23a25.45,25.45,0,0,0,.29,3.91c-.55,1.69-1.2,3.59-1.86,5.22h0v0c-.05.14-.11.27-.16.41.54-5.49-2.28-8-8.79-15.19-5.38-6-7.09-13.52-9.14-13.52-.46,0-.93.37-1.46,1.21C2.22,74.94,2.58,96.87,14.4,105a12.69,12.69,0,0,0,5.22,1.62c1.82,0,2.85-1,3.44-2.92a4.25,4.25,0,0,0,.9,3.46h0v0H24l0,0h.06A5.27,5.27,0,0,1,26.23,111c0,1-.57,1.8-2.11,2.1l.16-.2a2.93,2.93,0,0,0,.37-.58,2.24,2.24,0,0,0,.17-.44l.06-.25,0-.27a1.91,1.91,0,0,0-.33-1.12,3,3,0,0,0-.82-.8,4.34,4.34,0,0,0-.88-.42,4,4,0,0,0-.91-.22l.23.11c.15.06.36.17.6.29s.41.24.63.39a5.77,5.77,0,0,0-2.86-.54l-1,0s3.43,0,3,3.14c-.13.94.21,1.33.64,1.33a1.68,1.68,0,0,0,1.33-1.79,2.59,2.59,0,0,0-.47-1.68,1.93,1.93,0,0,1,.28.36,1.85,1.85,0,0,1,.23.44,2,2,0,0,1,.08.48v.24l0,.23a2.58,2.58,0,0,1-.1.42,4.74,4.74,0,0,1-.23.61,1.75,1.75,0,0,0-.11.24h0a4.22,4.22,0,0,1-2.37,1h0a2.39,2.39,0,0,1-.74-.12H21l.15-.26a2.33,2.33,0,0,0,.14-.31,3.05,3.05,0,0,0,.15-.43,2.66,2.66,0,0,0,.09-.53,2.55,2.55,0,0,0,0-.61,2.39,2.39,0,0,0-.21-.62,2.84,2.84,0,0,0-.4-.56,4.1,4.1,0,0,0-2.14-1.09,5.36,5.36,0,0,0-1-.11h-.06l.29.07c.18,0,.44.13.74.24a6.28,6.28,0,0,1,.65.26,5.6,5.6,0,0,0-1.86-.28,11.2,11.2,0,0,0-2.34.28s5.19,0,3.59,3.06c-.57.82-.09,1.35.58,1.35A1.84,1.84,0,0,0,20.93,113a2.3,2.3,0,0,0-.21-2,2.2,2.2,0,0,1,.21.32,1.83,1.83,0,0,1,.21.53,2.5,2.5,0,0,1,.07.54,3.85,3.85,0,0,1,0,.49,4.16,4.16,0,0,1-.08.43,1.65,1.65,0,0,1-.08.32l-.08.29h0l0,0a2.48,2.48,0,0,1-2.05.84h0m4.23-6.25A2.08,2.08,0,0,1,25.38,111c-.08.82.05,1.17.22,1.17s.47-.54.47-1.39c0-1.39-.48-2.24-2.43-2.24l-.65,0h.1" fill="#211d1e"/><path id="path11524" d="M21,113.89h0l.08-.29a1.65,1.65,0,0,0,.08-.32,4.16,4.16,0,0,0,.08-.43,3.85,3.85,0,0,0,0-.49,2.5,2.5,0,0,0-.07-.54,1.83,1.83,0,0,0-.21-.53,2.2,2.2,0,0,0-.21-.32,2.71,2.71,0,0,0-1.42-1,6.28,6.28,0,0,0-.65-.26c-.3-.11-.56-.19-.74-.24l-.29-.07h.06a5.36,5.36,0,0,1,1,.11,4.1,4.1,0,0,1,2.14,1.09,2.84,2.84,0,0,1,.4.56,2.39,2.39,0,0,1,.21.62,2.55,2.55,0,0,1,0,.61,2.66,2.66,0,0,1-.09.53,3.05,3.05,0,0,1-.15.43,2.33,2.33,0,0,1-.14.31l-.15.26h0" fill="#100f0d"/><path id="path11526" d="M24.12,113.07h0a1.75,1.75,0,0,1,.11-.24,4.74,4.74,0,0,0,.23-.61,2.58,2.58,0,0,0,.1-.42l0-.23v-.24a2,2,0,0,0-.08-.48,1.85,1.85,0,0,0-.23-.44,1.93,1.93,0,0,0-.28-.36,2,2,0,0,0-.57-.49c-.22-.15-.44-.28-.63-.39s-.45-.23-.6-.29l-.23-.11a4,4,0,0,1,.91.22,4.34,4.34,0,0,1,.88.42,3,3,0,0,1,.82.8,1.91,1.91,0,0,1,.33,1.12l0,.27-.06.25a2.24,2.24,0,0,1-.17.44,2.93,2.93,0,0,1-.37.58l-.16.2h0" fill="#100f0d"/><path id="path11528" d="M19.27,114.35c-.67,0-1.15-.53-.58-1.35,1.6-3-3.59-3.06-3.59-3.06a11.2,11.2,0,0,1,2.34-.28,5.6,5.6,0,0,1,1.86.28l.33.16a4.65,4.65,0,0,1,.5.32,3.39,3.39,0,0,1,.46.39c0,.06.09.11.13.16a2.3,2.3,0,0,1,.21,2,1.84,1.84,0,0,1-1.66,1.39" fill="#4e454e"/><path id="path11530" d="M20.72,111s-.09-.1-.13-.16a3.39,3.39,0,0,0-.46-.39,4.65,4.65,0,0,0-.5-.32l-.33-.16a2.71,2.71,0,0,1,1.42,1" fill="#342e32"/><path id="path11532" d="M23.13,113.52c-.43,0-.77-.39-.64-1.33.46-3.14-3-3.14-3-3.14l1,0a5.77,5.77,0,0,1,2.86.54l.15.11a3.7,3.7,0,0,1,.42.38,2.59,2.59,0,0,1,.47,1.68,1.68,1.68,0,0,1-1.33,1.79" fill="#4e454e"/><path id="path11534" d="M24,110.05a3.7,3.7,0,0,0-.42-.38l-.15-.11a2,2,0,0,1,.57.49" fill="#342e32"/><path id="path11536" d="M25.6,112.12c-.17,0-.3-.35-.22-1.17a2.08,2.08,0,0,0-2.29-2.43H23l.65,0c1.95,0,2.43.85,2.43,2.24,0,.85-.26,1.39-.47,1.39" fill="#4e454e"/><path id="path11538" d="M27.06,88.69S15.24,83,7.63,58.07C3.2,40.13,4.68,36.75,12.91,27.24,22.63,18,31.28,11.2,36.78,5.7s8.87-7,16.68-4.64a52.14,52.14,0,0,1,12.88,5.7s24.49-1,34.63,6.12C87.88,15,27.06,88.69,27.06,88.69" fill="#fff"/><path id="path11540" d="M66.34,6.76a61.93,61.93,0,0,0-12.88-5.7C41.87-2.65,38.83,4.89,35.59,6.84c4-2.79,9.93-10,19.44-3.34,7,4.92-8.79,3.33-10.45,7.13-.87,2,4.16.92,10.51-.14,5.81-1,12.74-1.94,17.28-.58,9.5,2.85-26.81,19.28-44.44,57.21-3.49,7.52-32.71-21.26-6.08-48.07C19,21.55,16,24.27,12.91,27.24,4.68,36.75,3.2,40.13,7.63,58.07,15.24,83,27.06,88.69,27.06,88.69S87.88,15,101,12.88C90.83,5.71,66.34,6.76,66.34,6.76" fill="#dad2d5"/><path id="path11542" d="M151,56.94S128.71,9.82,98.84,12.14C78.66,13.5,67.22,21.65,42.58,51.33,30.17,69.18,21.63,85.28,29,99.63s19.4,26.19,29.1,31.82c5.44,3.1,8.05,1.75,9.68.34,2.27,1.18,4.14.86,5.08-.07,1.25.93,3.83-.08,3.83-2.35s-2.81-2.42-4.92-3.43-4.38-10.78-5.55-16-1.32-8.44,2.66-9.76c5.46,3,24.27,5.69,47.19-.13-2.85,4.16-4,6.76-2.38,9.5,3.21,5.35,3.92,8.79,7.25,14.25s5.46,6.65,8.31,7a8.91,8.91,0,0,0,5-.83s1.9.95,4.64-.72a2.41,2.41,0,0,0,3.68-1.89c.11-1.67-2.62-2.62-3.92-3.21s-3.33-3.32,1.19-8.31,10.8-10.1,16.32-17.93,10.15-12.29-5.16-41" fill="#342e32"/><path id="path11544" d="M138.63,124.15h0m0,0h0m0,0h0m0,0c-.89-.43-2.05-1.81-1.34-4.18h0c-.71,2.38.46,3.76,1.34,4.19m16.59-24.9q.48-.65,1-1.32c2.73-3.87,5.23-6.91,5.23-12.44,0,5.53-2.5,8.57-5.23,12.44q-.48.68-1,1.32M151,56.94h0m0,0h0m0,0h0m0,0c-.09-.18-1.1-2.3-2.91-5.51h0c1.81,3.21,2.82,5.33,2.91,5.51M132.6,29.56a74.19,74.19,0,0,0-8.61-8.2,74.19,74.19,0,0,1,8.61,8.2h0" fill="#989597"/><path id="path11546" d="M42.58,51.33c3.2-3.86,6.18-7.35,9-10.51l0,0c-2.79,3.15-5.76,6.63-9,10.47" fill="#7e787f"/><path id="path11548" d="M124,21.36l-.2-.17.2.17m-.21-.17,0,0,0,0m-.09-.07,0,0,0,0m-.07-.06h0m-.07,0h0m-.06-.05h0" fill="#989597"/><path id="path11550" d="M63.86,133.33a11.83,11.83,0,0,1-5.76-1.88C48.4,125.82,36.38,114,29,99.63a24.44,24.44,0,0,1-2.44-7.49,25.45,25.45,0,0,1-.29-3.91h0c0-11.34,7.09-23.64,16.31-36.9h0c3.19-3.84,6.16-7.32,9-10.47-37.8,47.33,6.7,82,9.66,83.4a5.92,5.92,0,0,0,2.49.58c1.75,0,3.17-1,2.76-3.12.52,1.38.84,2,1,2,.6,0-2.19-11.45-6.43-20.6a11.7,11.7,0,0,1,4.79-9.94c7.53-5.81,11.06-6.18,7.63-14.74s-7.63-8.87,3.67-22.23c1.23-1.44,2.56-2.92,4-4.38a8.11,8.11,0,0,0,2.45.38,11.06,11.06,0,0,0,7.22-3.11C86.89,54.15,82.23,60,81.12,60.6a11.74,11.74,0,0,0-3.27-.5c-1.79,0-3.83.53-4.66,2.68h0a2.85,2.85,0,0,1,1.65-.46,5.31,5.31,0,0,1,1.77.33,4.49,4.49,0,0,0-3,4.23h0a3.51,3.51,0,0,1,2.19-1.36,6.31,6.31,0,0,0-1.42,4.28h0c0,3.14,1.75,8,9.07,14.45a109.14,109.14,0,0,0,19.49,10.43h0l.16.06c.55.21.85.31.86.31h0A13.87,13.87,0,0,0,111,97a13.44,13.44,0,0,0,7.32-2.2,46.13,46.13,0,0,0,29.53-12.72c4-4.34,5.48-7.9,5.48-10.32h0a3.38,3.38,0,0,0-1.65-3.22,2.89,2.89,0,0,1,.5,0,3.83,3.83,0,0,1,2.1.73,1.87,1.87,0,0,0,.08-.56c0-.84-.49-2.39-3.9-2.86a10.23,10.23,0,0,1,2.33-.35c.69,0,.85.17.85.17h0a5.48,5.48,0,0,0-4.43-2.1,8.28,8.28,0,0,0-3,.6s-1.87-4.19-7.62-14l.32.38.12.09a8.52,8.52,0,0,0,5.17,1.74h0a8.06,8.06,0,0,0,3.81-1c1.81,3.21,2.82,5.33,2.91,5.51h0c7.76,14.53,10.4,22.85,10.39,28.53s-2.5,8.57-5.23,12.44q-.48.68-1,1.32c-.52.7-1,1.37-1.57,2,.38-.59.77-1.21,1.17-1.85,3.16-5.05,2.37-14.5-2.38-14.5a4.48,4.48,0,0,0-1.2.18c-5.79,1.71-12.61,6.48-22,12.78s-6.14,12.28-4.1,18.24c2,5.72,5.18,7.68,7.7,7.68h.32c2.34-.16,3-1.61,4.11-3.82-.71,2.37.45,3.75,1.34,4.18h0c1.28.58,3.93,1.51,3.92,3.11v.1a2.5,2.5,0,0,1-2.42,2.28,2.27,2.27,0,0,1-1.27-.39,6,6,0,0,1-3.17,1,3.52,3.52,0,0,1-1.46-.27,8.71,8.71,0,0,1-3.91.9,8.25,8.25,0,0,1-1.08-.07c-2.84-.36-5-1.55-8.3-7s-4-8.9-7.25-14.25a4.92,4.92,0,0,1-.75-2.58c0-1.81,1-3.77,2.74-6.35-2.32,3.47-3.35,5.84-2.36,8.19a7.81,7.81,0,0,1,3.45-6.33c5.12-3.41,8.87-5.29,11.08-8.52-6.13,3.58-8.86,5.11-22.5,5.79-3.33.17-7,.27-10.64.27-11.18,0-21.43-1-16.8-4.36,5-4.6,4.26-5.62,4.26-7.5q0-.27-.12-.27c-.76,0-5.13,7.3-14.36,10.84a4,4,0,0,0-2.58,2.15,6.26,6.26,0,0,0-1.16,4,13.07,13.07,0,0,0,.65,4,8.45,8.45,0,0,0,2.24,3.86c1.25,5.34,3.15,12.43,4.93,13.29,2.11,1,4.92,1.17,4.92,3.43a2.71,2.71,0,0,1-2.7,2.69,1.91,1.91,0,0,1-1.13-.34s.09-.11.23-.31a2.65,2.65,0,0,0,.24-.37l.13-.23.13-.28a3.65,3.65,0,0,0,.22-.66,3.31,3.31,0,0,0,.08-.79,3.13,3.13,0,0,0,0-.43,2.2,2.2,0,0,0-.12-.44,2.79,2.79,0,0,0-.48-.79,3.66,3.66,0,0,0-1.45-.94,4.63,4.63,0,0,0-.74-.21,6.22,6.22,0,0,0-.68-.1,5,5,0,0,0-.53,0,4.38,4.38,0,0,0-.85.07l.37.09.75.21-.69,0-1.09,0s3.59,0,3.1,3.29c-.13,1,.23,1.39.68,1.39a1.4,1.4,0,0,0,1.06-.7c0,.15-.07.3-.1.43s-.08.3-.12.41l-.1.37h0a3.17,3.17,0,0,1-2.28.83,6.06,6.06,0,0,1-2.8-.76,5.73,5.73,0,0,1-3.92,1.54m4.51-4.84.08.17.07.19a1.67,1.67,0,0,1,.08.4v.42l0,.21,0,.22a3.06,3.06,0,0,1-.13.43c0,.15-.1.29-.16.43a8.21,8.21,0,0,1-.44.83l.34-.33c.11-.12.21-.25.31-.38s.18-.26.26-.4a4.66,4.66,0,0,0,.22-.45L69,130l.07-.25.05-.25,0-.26a2,2,0,0,0,0-.54l-.07-.26-.11-.25h0v0c-.1-.14-.19-.3-.31-.44l-.17-.2-.2-.19a2.93,2.93,0,0,0-.43-.34,3.52,3.52,0,0,0-1-.46,3.25,3.25,0,0,0-.52-.12,3.29,3.29,0,0,0-.54,0h-.52a5.83,5.83,0,0,0-1,.17,6.52,6.52,0,0,0-1,.33,7,7,0,0,0-1.75,1,18.56,18.56,0,0,1,1.88-.59c.31-.06.61-.13.92-.17a10.48,10.48,0,0,0-2.08.66,8.85,8.85,0,0,1,1.44-.12c1.42,0,3.3.38,2.63,2.49-.38.81,0,1.25.6,1.25a1.76,1.76,0,0,0,1.59-1.68,2.46,2.46,0,0,0-.13-1.25l0,0m5.25-1.43s2,.81,1.3,2.65c-.36.94-.09,1.36.31,1.36a1.35,1.35,0,0,0,1.1-1c.43-1.36-.6-2.66-2.71-3m61.56,1.69a3,3,0,0,1-.29.44c-.12.17-.23.31-.33.43l-.33.35.11-.06a2.62,2.62,0,0,0,.31-.19,4.43,4.43,0,0,0,.45-.34,3.42,3.42,0,0,0,.5-.55A2.58,2.58,0,0,0,136,128a1.76,1.76,0,0,0,0-1.09,2.32,2.32,0,0,0-.25-.53l-.18-.24-.2-.21-.19-.17,0,0,0,0h0l0,0-.12-.08-.26-.16-.26-.12-.28-.1-.27-.06a2.72,2.72,0,0,0-.56-.09H133c-.24,0-.48,0-.71,0a6.8,6.8,0,0,0-1,.19c-.29.07-.56.17-.82.26a9.5,9.5,0,0,0-1.16.54l-.41.25.47-.12c.18,0,.41-.11.69-.16a6.22,6.22,0,0,0-1.22.64,9.67,9.67,0,0,1,2.1-.27c1.25,0,2.49.37,2,2-.18.64.22.93.77.93a2.17,2.17,0,0,0,1.45-.61m4.29-.68s0,0,0,0c-.07.18-.14.33-.21.47s-.14.26-.2.36l-.18.32a3,3,0,0,0,.29-.23,3.85,3.85,0,0,0,.31-.29,4.29,4.29,0,0,0,.35-.43,3.17,3.17,0,0,0,.34-.58,2.35,2.35,0,0,0,.21-.75,1.62,1.62,0,0,0,0-.44l0-.22-.08-.24-.05-.12,0-.09-.1-.17,0,0,0,0,0,0-.08-.09-.16-.16a2.57,2.57,0,0,0-.75-.46,3,3,0,0,0-.39-.14l-.39-.09a4.93,4.93,0,0,0-.73-.08h-.25l-.4,0a5.31,5.31,0,0,0-1.31.23l.36,0c.23,0,.55.06.93.12h0a2.76,2.76,0,0,0-.86.25s3,.36,2.28,2.37c-.3.84-.13,1.2.2,1.2a1.52,1.52,0,0,0,1-.74m.5-3s1.77.72,1.17,2.22c-.33.8-.08,1.19.28,1.19s.72-.31.88-.91c.33-1.28-.78-2.22-2.33-2.5m-74.19-5.25a90.47,90.47,0,0,1-3.43-9.07c1.16,2.81,2.33,5.85,3.43,9.07m49.92-19.27v0M96.47,41.78l0-.06A21.6,21.6,0,0,0,98,37.15c6.52-4.65,12.59-7.79,16.24-7.79a4.92,4.92,0,0,1,1.19.14,25.43,25.43,0,0,0,5.81.78c4.9,0,8-2.22,0-9.68a36.62,36.62,0,0,0-11.57-7.19A43.26,43.26,0,0,1,123.48,21h0l.05,0h0l0,0h0a.08.08,0,0,1,0,0l0,0,0,0,.06,0h0l.2.16h0a75,75,0,0,1,8.61,8.2,9.12,9.12,0,0,0-2.88,7,10.41,10.41,0,0,0,.22,2.22c.16.16.39.43.67.78-3.57-3-8-4.79-14.53-5.56a22.33,22.33,0,0,0-2.55-.15c-7.43,0-13.15,3.9-17.06,8" fill="#211d1e"/><path id="path11552" d="M115.68,100.61s0,0,0,0,0,0,0,0m0,0c.11-.17.23-.35.36-.53-.13.18-.25.36-.36.53" fill="#342e32"/><path id="path11554" d="M113.32,108.8c-1-2.35,0-4.72,2.36-8.19,0,0,0,0,0,0v0c.11-.17.23-.35.36-.53h0a108.66,108.66,0,0,1-26.57,3.43,68.68,68.68,0,0,1-15.76-1.61,6.66,6.66,0,0,1,.9-1.32h0A16,16,0,0,0,69,99.27a4.76,4.76,0,0,0-3.93,1.6,4,4,0,0,1,2.58-2.15c9.23-3.54,13.6-10.84,14.36-10.84q.12,0,.12.27c0,1.88.69,2.9-4.26,7.5C73.28,99,83.53,100,94.71,100c3.61,0,7.32-.1,10.64-.27,13.64-.68,16.37-2.21,22.5-5.79-2.21,3.23-6,5.11-11.08,8.52a7.81,7.81,0,0,0-3.45,6.33" fill="#131110"/><path id="path11556" d="M74.64,100.54s-3.59,3.83.6,6.45c2.63,1.8,3.47,4.91-.24,4.67a2.16,2.16,0,0,1-2.29.62c-.5-.07-.91-.15-1.06.09-3.1,2.28-5.62.84-7.05-3.58s-1.44-12.68,10-8.25" fill="#342e32"/><path id="path11558" d="M68.9,113.44a3.15,3.15,0,0,1-2.06-.79,8.45,8.45,0,0,1-2.24-3.86,13.39,13.39,0,0,1-.65-4c0-2.85,1.17-5.57,5.09-5.57a16,16,0,0,1,5.6,1.27,6.66,6.66,0,0,0-.9,1.32,4.38,4.38,0,0,0-.53,2,3.68,3.68,0,0,0,2,3.14,4.6,4.6,0,0,1,2.26,3.23c0,.83-.62,1.45-2.11,1.45H75l.11-.18.12-.23.12-.3c0-.11.07-.24.1-.37s0-.29,0-.45a2.18,2.18,0,0,0-.08-.49,1.85,1.85,0,0,0-.21-.48,1.91,1.91,0,0,0-.33-.41,2.78,2.78,0,0,0-.41-.29,3.22,3.22,0,0,0-.42-.16,1.46,1.46,0,0,0-.39-.07h-.2a3.07,3.07,0,0,0-.38,0l-.14,0a2.43,2.43,0,0,0-.38,0,2.75,2.75,0,0,0-1.1.23,2.37,2.37,0,0,1,2.19,2.42c-.07.55.25.84.6.84a.88.88,0,0,0,.74-.47.81.81,0,0,0,0,.16c0,.14,0,.22,0,.22a1.75,1.75,0,0,1-1.5.7,5,5,0,0,1-.79-.08,6.06,6.06,0,0,0-.65-.07.59.59,0,0,0-.28.05l.06-.05L72,112a2.77,2.77,0,0,0,.21-.31,2.22,2.22,0,0,0,.19-.41,1.93,1.93,0,0,0,0-1.11,1.88,1.88,0,0,0-.27-.55,2.28,2.28,0,0,0-.9-.7,2.44,2.44,0,0,0-.47-.17l-.43-.09-.43,0a2.34,2.34,0,0,0-.46,0h0l.77.38a6.82,6.82,0,0,1,.72.41,2.65,2.65,0,0,1,.62.58l.19.35a1.18,1.18,0,0,1,.09.38,1.7,1.7,0,0,1,0,.39c0,.14,0,.26-.05.38s-.1.45-.14.6l-.06.23h0a4.73,4.73,0,0,1-2.75,1.07m.1-4.63a4.35,4.35,0,0,0-1.07.13,3.52,3.52,0,0,1,2.12,3.71c-.09.2,0,.3.12.3a2,2,0,0,0,1.24-2.72A2.46,2.46,0,0,0,69,108.81m5.57-.83a2.42,2.42,0,0,1,1.73,3.4c1.18-.29,1.79-2.52-1.73-3.4a1.58,1.58,0,0,0-.31-.07l.31.07" fill="#151312"/><path id="path11560" d="M69.5,108.67a2.49,2.49,0,0,1,.89,0l.43.09a2.44,2.44,0,0,1,.47.17,2.28,2.28,0,0,1,.9.7,1.88,1.88,0,0,1,.27.55,1.93,1.93,0,0,1,0,1.11,2.22,2.22,0,0,1-.19.41A2.77,2.77,0,0,1,72,112l-.18.21-.19.16.06-.23c0-.15.09-.36.14-.6s0-.25.05-.38a1.7,1.7,0,0,0,0-.39,1.18,1.18,0,0,0-.09-.38l-.19-.35a2.65,2.65,0,0,0-.62-.58,6.82,6.82,0,0,0-.72-.41c-.44-.23-.77-.38-.77-.38" fill="#100f0d"/><path id="path11562" d="M72.85,108.31l.21-.06a2.55,2.55,0,0,1,.58,0,1.46,1.46,0,0,1,.39.07,3.22,3.22,0,0,1,.42.16,2.78,2.78,0,0,1,.41.29,1.91,1.91,0,0,1,.33.41,1.85,1.85,0,0,1,.21.48,2.18,2.18,0,0,1,.08.49c0,.16,0,.31,0,.45s-.07.26-.1.37l-.12.3-.12.23-.11.18s0-.08,0-.22,0-.32,0-.54l0-.34-.06-.36c0-.12-.08-.23-.11-.35l-.16-.32-.21-.29-.26-.25-.29-.2-.29-.17-.48-.23-.2-.08" fill="#100f0d"/><path id="path11564" d="M70.17,113c-.14,0-.21-.1-.12-.3a3.52,3.52,0,0,0-2.12-3.71,4.35,4.35,0,0,1,1.07-.13,2.46,2.46,0,0,1,2.41,1.42A2,2,0,0,1,70.17,113" fill="#3e363b"/><path id="path11566" d="M74.23,111.75c-.35,0-.67-.29-.6-.84a2.37,2.37,0,0,0-2.19-2.42,2.75,2.75,0,0,1,1.1-.23,2.43,2.43,0,0,1,.38,0l-.07,0,.2.08.48.23.29.17.29.2.26.25.21.29.16.32c0,.12.09.23.11.35l.06.36,0,.34c0,.14,0,.27,0,.38a.88.88,0,0,1-.74.47" fill="#3e363b"/><path id="path11568" d="M75,111.28c0-.11,0-.24,0-.38l0-.34-.06-.36c0-.12-.08-.23-.11-.35l-.16-.32-.21-.29-.26-.25-.29-.2-.29-.17-.48-.23-.2-.08.07,0a2.45,2.45,0,0,1,2.23,2.24,1.48,1.48,0,0,1-.18.75" fill="#342e32"/><path id="path11570" d="M76.3,111.38a2.42,2.42,0,0,0-1.73-3.4c3.52.88,2.91,3.11,1.73,3.4M74.57,108l-.31-.07a1.58,1.58,0,0,1,.31.07" fill="#3e363b"/><path id="path11572" d="M96.51,41.72s5.33-11.14-2.35-14.43S74.77,33,75.06,44.91c.18,5.15,10.86,14.89,21.45-3.19" fill="#342e32"/><path id="path11574" d="M81.05,51.81c-3.56-1.13-5.91-4.51-6-6.9v0c.08,2.39,2.43,5.77,6,6.9h0" fill="#151312"/><path id="path11576" d="M75.06,44.85a.13.13,0,0,0,0-.06.13.13,0,0,1,0,.06m0-.06c0-.24,0-.48,0-.71,0,.23,0,.47,0,.71m0-.72v0m0-.06v0m0-.06v0m0-.06v0m0-.07v0m0-.08h0" fill="#151312"/><path id="path11578" d="M83.5,52.19a8.11,8.11,0,0,1-2.45-.38c-3.56-1.13-5.91-4.51-6-6.9v-.06h0a.13.13,0,0,0,0-.06h0c0-.24,0-.48,0-.71h0v0h0v0h0v-.21h0a18.15,18.15,0,0,1,1.86-7.24,7.5,7.5,0,0,1-.28.84c-1.87,4.72-1.87,9.14,2,11.6a4.39,4.39,0,0,0,2.36.75c2.6,0,4-2.81,1.18-3.5-5.5-1.67-4.91-8.45,1.48-12.88,2.61-1.81,4.73-2.56,6.4-2.56,2.41,0,3.87,1.58,4.51,3.84.25.88.53,1.24.81,1.24.91,0,1.68-4,.47-6.16-1.09-1.76-3.32-2.31-5.65-2.31A22.83,22.83,0,0,0,85.3,28a12.54,12.54,0,0,1,5.43-1.35,8.7,8.7,0,0,1,3.43.67c3.21,1.38,4.15,4.12,4.15,6.85a20.27,20.27,0,0,1-1.8,7.58l0,.06a35.53,35.53,0,0,0-2.78,3.29c-.13.16-.25.33-.37.49h0c-.77,1.07-1.66,2.27-2.6,3.52a11.06,11.06,0,0,1-7.22,3.11M87,32.48A21.21,21.21,0,0,0,84.22,34c-7.77,5.18-5.85,12.11,1,12.11l.6,0h0c5.72-.32,7.58-5.68,7.59-9.8A10.73,10.73,0,0,0,93,33.22a2.36,2.36,0,0,0-2.47-1.75,5.58,5.58,0,0,0-1.37.19h0a12.4,12.4,0,0,0-2.23.82h0" fill="#151312"/><path id="path11580" d="M84.22,34s7.44-5.18,8.82-.82c1.17,3.71.2,12.5-7.17,12.91S76.23,39.37,84.22,34" fill="#f68092"/><path id="path11582" d="M87,32.48a12.4,12.4,0,0,1,2.23-.82,12.59,12.59,0,0,0-2.22.82h0m2.24-.82h0" fill="#151211"/><path id="path11584" d="M85.27,46.15c-4.46,0-6.84-2.9-5.86-6.34-.11,3.13,1.23,4.35,3,4.35,3.43,0,8.51-4.41,8.44-8.46,0-2.52-1.45-3.27-3.13-3.27a7.13,7.13,0,0,0-.79,0,12.59,12.59,0,0,1,2.22-.82h0a5.58,5.58,0,0,1,1.37-.19A2.36,2.36,0,0,1,93,33.22a10.73,10.73,0,0,1,.42,3.11c0,4.12-1.87,9.48-7.59,9.8h0l-.6,0" fill="#ef3f51"/><path id="path11586" d="M77.2,42.78c-.72,0-1.88-4.41,2.26-9.19,3.27-3.77,7.77-5.36,9.48-5.36,1,0,1,.52-.54,1.45,0,0-10.61,3.8-10.83,12.28,0,.57-.2.82-.37.82" fill="#605460"/><path id="path11588" d="M83.19,31.12s-5.5,3.6-6,9.51c-.8-2.91,1.7-7.41,6-9.51" fill="#fff"/><path id="path11590" d="M129.94,38.73s-1.78-7.31,4.78-10.59,17.52,2.06,18,13.77c-.09,10.77-9.08,12.36-13.76,8.62-2.72-3.19-7.78-10.59-9-11.8" fill="#342e32"/><path id="path11592" d="M148.06,51.41h0c2.6-1.41,4.6-4.45,4.64-9.5h0c0,5.05-2,8.09-4.64,9.5" fill="#342e32"/><path id="path11594" d="M148.06,51.41h0" fill="#211d1e"/><path id="path11596" d="M144.25,52.36a8.18,8.18,0,0,0,3.81-1h0a8.06,8.06,0,0,1-3.81,1m-5.19-1.74-.12-.09-.32-.38h0l.32.38.12.09" fill="#131110"/><path id="path11598" d="M152.7,41.91c0-.59-.07-1.16-.14-1.71.07.55.12,1.12.14,1.71" fill="#342e32"/><path id="path11600" d="M144.23,52.36h0a8.52,8.52,0,0,1-5.17-1.74l-.12-.09-.32-.38c-.4-.69-.83-1.41-1.28-2.15a33,33,0,0,0-6.73-8.49,8.73,8.73,0,0,0-.67-.78,10.41,10.41,0,0,1-.22-2.22,8.9,8.9,0,0,1,5-8.37,9.4,9.4,0,0,1,4.22-.95,12.43,12.43,0,0,1,4.6.93,10,10,0,0,0-2.95-.5,4.77,4.77,0,0,0-4,1.87c-4,5.31,7.27-.69,10.73,7.15s-.12,9.92-1,10.84c-.22.21.19.4.87.4,2.27,0,7.63-2.07,4.08-12.16l.07,0a16.37,16.37,0,0,1,1.27,4.5c.07.55.12,1.12.14,1.71h0c0,5.05-2,8.09-4.64,9.5h0a8.15,8.15,0,0,1-3.81,1h0m-3.35-6a5.36,5.36,0,0,0,2.14.46c3.26,0,5.89-3.31,3.44-8.89a7.11,7.11,0,0,0-2.49-3h0a3.36,3.36,0,0,0-.56-.31h0a4.61,4.61,0,0,0-1.94-.42,5.82,5.82,0,0,0-1.76.29c-2,.65-2.81,2.5-2.8,4.58,0,2.91,1.63,6.26,4,7.3h0" fill="#151312"/><path id="path11602" d="M146.46,37.94s-2-5-6.76-3.45-2.85,10.1,1.18,11.88,8.55-1.66,5.58-8.43" fill="#f68092"/><path id="path11604" d="M144,34.94h0a3.36,3.36,0,0,0-.56-.31,3.36,3.36,0,0,1,.56.31m-.57-.31h0" fill="#151211"/><path id="path11606" d="M143,46.83a5.36,5.36,0,0,1-2.14-.46h0c-2.35-1-4-4.39-4-7.3,0-2.08.82-3.93,2.8-4.58a5.82,5.82,0,0,1,1.76-.29,4.61,4.61,0,0,1,1.94.42h0a3.36,3.36,0,0,1,.56.31,5.28,5.28,0,0,0-2.12-.5,3.47,3.47,0,0,0-2,.6c-2.81,1.93-.45,10,3.6,10a3.58,3.58,0,0,0,.64-.07c4.14-.86,3-5.25,2.79-5.84,1.63,4.88-.85,7.75-3.88,7.75" fill="#ef3f51"/><path id="path11608" d="M150.69,40.62c-.31,0-.65-.48-.87-1.58a11.19,11.19,0,0,0-7.75-8.64c-2-.65-1.55-2,.23-2,1.39,0,3.57.81,5.91,3.39,4,4.43,3.41,8.8,2.48,8.8" fill="#605460"/><path id="path11610" d="M144.52,29.91s4.67,2.42,5.79,7.09c.56-1.59-2-6.07-5.79-7.09" fill="#fff"/><path id="path11612" d="M81.12,60.59s-6.29-2.05-7.93,2.19c1.37-1,3.42-.13,3.42-.13a4.49,4.49,0,0,0-3,4.23,3.51,3.51,0,0,1,2.19-1.36s-6.29,6.42,7.65,18.73C96,92.46,104,95.05,104,95.05a13.63,13.63,0,0,0,14.36-.27,46.13,46.13,0,0,0,29.53-12.72c6.7-7.25,6.29-12.3,3.83-13.54a3.6,3.6,0,0,1,2.6.69s.95-2.76-3.82-3.42c2.71-.65,3.18-.18,3.18-.18s-2.34-3.47-7.4-1.5A179.63,179.63,0,0,0,137.34,48c-5.15-8.62-10.12-12.74-21.26-14S97.25,40.13,93.32,45.56s-10.82,14.23-12.2,15" fill="#fff"/><path id="path11614" d="M119.9,91.84c9.48-5.17,10.69-9.83,8.27-17.54,0,0-4.11-12.68-14.57-14.23s-19.7,13.36-20,19.2c-.19,3.26,3.26,9.46,8.6,11.7-.45.83-.25,2.24.79,3.71.66.26,1,.37,1,.37a13.63,13.63,0,0,0,14.36-.27s2.44-1.22,1.58-2.94" fill="#dad2d5"/><path id="path11616" d="M110.13,84s.46,3.92-1.38,5.76-3.84,2-6.6,1.26c1.54,1,4.8.63,5.8.35a1.17,1.17,0,0,1,1,.29,1.25,1.25,0,0,0,1.59.08c1.33-.8,1.75-.33,2.84.39s3.35,1,6.47-.24c-2.83.61-7.18.33-8.74-2-.94-1.75-.59-5.38-1-5.9" fill="#342e32"/><path id="path11618" d="M96.48,48.67C92.38,51.4,88,56.82,87.67,61.9a6.77,6.77,0,0,0,5.74,6.87c3.79.53,6.51-1.79,8.94-4.41,4.5-4.87,5.59-14.61,1.26-17-2-1.08-5.23.1-7.13,1.36" fill="#342e32"/><path id="path11620" d="M120.93,51.1s-1.9,8,5.23,15.34c6.58,5.5,18.33,2,11.73-10.28-6-9-11.19-10.74-13.62-9.93s-3.25,3.43-3.34,4.87" fill="#342e32"/><path id="path11622" d="M96.35,61.45l-.09,0-.08,0,.17.08m.63-.1a2.39,2.39,0,0,0-1.14-.47,5.29,5.29,0,0,1,.45-3.26C97,56.05,98,55,98.69,55A.58.58,0,0,1,99,55c.72.32.71,2,0,3.79A5.14,5.14,0,0,1,97,61.35m1.34-5.28c-.48,0-1.14.73-1.57,1.75s-.5,2.28,0,2.5a.47.47,0,0,0,.17,0c.47,0,1.14-.72,1.57-1.75s.5-2.28,0-2.49a.47.47,0,0,0-.17,0" fill="#605460"/><path id="path11624" d="M98.47,58.6c-.49,1.16-1.27,1.93-1.74,1.72s-.47-1.33,0-2.5,1.26-1.93,1.74-1.71.47,1.32,0,2.49" fill="#100f0d"/><path id="path11626" d="M98.51,57.81c-.16.47-.47.79-.69.71s-.26-.52-.1-1,.46-.78.68-.7.26.52.11,1" fill="#fff"/><path id="path11628" d="M129.82,61.76h-.1a3.06,3.06,0,0,1,.6-.25.78.78,0,0,1-.3.22.69.69,0,0,1-.2,0m-.58-.2A5.36,5.36,0,0,1,127.51,59c-.65-1.75-.59-3.37.14-3.62a.69.69,0,0,1,.2,0c.73,0,1.71,1.14,2.31,2.74a5.28,5.28,0,0,1,.35,3,2.7,2.7,0,0,0-1.27.45m-1.07-5.16a.31.31,0,0,0-.13,0c-.5.17-.54,1.26-.1,2.44s1.07,1.85,1.55,1.85a.32.32,0,0,0,.14,0c.5-.17.54-1.26.1-2.44s-1.07-1.86-1.56-1.86" fill="#605460"/><path id="path11630" d="M129.73,58.26c.44,1.18.4,2.27-.1,2.44s-1.25-.65-1.69-1.83-.4-2.27.1-2.44,1.25.64,1.69,1.83" fill="#100f0d"/><path id="path11632" d="M129.22,57.66c.2.45.19.89,0,1s-.55-.2-.76-.65-.19-.88,0-1,.55.2.76.65" fill="#fff"/><path id="path11634" d="M100.73,45.22a6.35,6.35,0,0,1,4.7.56c.57.47-.38-2.44-1.32-2.35a13.72,13.72,0,0,0-3.38,1.79" fill="#dad2d5"/><path id="path11636" d="M120.65,45.4a5.21,5.21,0,0,1,6-1.87c.66.18-1.69-2.64-3-2.17s-2.73,2.63-3,4" fill="#dad2d5"/><path id="path11638" d="M100.73,44.81a6.41,6.41,0,0,1,4.7.56c.57.47-.38-2.44-1.32-2.35a13.72,13.72,0,0,0-3.38,1.79" fill="#342e32"/><path id="path11640" d="M120.65,45a5.22,5.22,0,0,1,6-1.88c.66.19-1.69-2.63-3-2.16s-2.73,2.63-3,4" fill="#342e32"/><path id="path11642" d="M119.84,93.62s1.24-1.24.06-1.78h0c9.48-5.17,10.69-9.83,8.27-17.54A27.74,27.74,0,0,0,125,68c4.42,4,5.25,10.57,5.25,13,0,.8,1.29,1.19,3.2,1.19,4,0,10.58-1.71,13.63-5.09,4.3-4.76,2.41-8.08.74-8.08a1.07,1.07,0,0,0-.25,0,5.92,5.92,0,0,1,3-.86h.17a3.19,3.19,0,0,0-2.26-1,3.71,3.71,0,0,0-1.76.49c.24-1.46,2.44-2.31,2.44-2.31a4.09,4.09,0,0,0-1.74-.32,9.59,9.59,0,0,0-5.71,2.27c1.35-2.32,3.42-2.81,1.1-7.56s-2.43-6.54-7.1-13.19c-2.47-3.51-2.08-3.74-5.19-7.14A32.84,32.84,0,0,1,137.34,48a179.63,179.63,0,0,1,8.9,16.11,8.07,8.07,0,0,1,3-.6,5.48,5.48,0,0,1,4.43,2.1s-.16-.17-.85-.17a10.23,10.23,0,0,0-2.33.35h0c3.41.47,3.9,2,3.9,2.86a1.87,1.87,0,0,1-.08.56,3.83,3.83,0,0,0-2.1-.73,2.89,2.89,0,0,0-.5,0h0a3.38,3.38,0,0,1,1.65,3.22h0a3.38,3.38,0,0,0-1.65-3.22c2.52,3.41.38,8.3-5.13,13.26-11.43,10.88-26.71,11.84-26.71,11.84" fill="#dad2d5"/><path id="path11644" d="M93.32,45.56c.12-.16.24-.33.37-.49-.13.16-.25.33-.37.49" fill="#141211"/><path id="path11646" d="M101.07,93c-.86,0-2.8-.93-7.54-3.61C76.18,80.26,74,70.21,75.79,65.52a6.31,6.31,0,0,0-1.42,4.28h0a6.31,6.31,0,0,1,1.42-4.28h0a3.51,3.51,0,0,0-2.19,1.36,4.49,4.49,0,0,1,3-4.23h0a5.31,5.31,0,0,0-1.77-.33,2.85,2.85,0,0,0-1.65.46c.83-2.15,2.87-2.68,4.66-2.68a12,12,0,0,1,3.27.49c1.38-.8,8.27-9.6,12.2-15h0c.12-.16.24-.33.37-.49a35.32,35.32,0,0,1,3.08-3.6c-1.78,3.22-6.55,9.27-9.94,14-4.07,4.91-2.37,3.93-.41,5.88a12.47,12.47,0,0,0-1.73-.12c-2.16,0-4.29.55-5.35,1.71A8.7,8.7,0,0,1,81,62.74c1.34,0,1.75.41,1.75.41s-4.15,1.1-4.27,3.42A4.14,4.14,0,0,1,80.77,66a8.31,8.31,0,0,1,1.74.19s-9.76,4.27,1.34,10.86c2.55,1.41,4.33,2,5.68,2,3.79,0,4.2-4.75,8.42-9.83-2.61,3.69-4.25,7.62-4.4,10-.19,3.26,3.26,9.46,8.6,11.7a1.74,1.74,0,0,0-.2.62l0,0c-.18.8-.17,1.4-.86,1.4" fill="#dad2d5"/><path id="path11648" d="M110.91,95.72c-.3,0-.58,0-.85,0-3.16-.28-6.86-1.64-8.11-4.1a1.74,1.74,0,0,1,.2-.62c-5.34-2.24-8.79-8.44-8.6-11.7.15-2.4,1.79-6.33,4.4-10l.42-.49c-3.17,6.1-3.66,11.1,3.3,13.3a7.55,7.55,0,0,0,1.78.45c1.18,0-2.68-2.49-1.48-4.19a4.17,4.17,0,0,0,1.5,2.63h0l0,0h0a12,12,0,0,0,5.27,2.66h0l.08,0h.39s0,0,0,0h.3l.08,0h1a16,16,0,0,0,1.67.09c4,0,7-1.66,7.65-3.39a1.81,1.81,0,0,1-.63,2c-.5.47.13.8,1.24.8,3.49,0,11.72-3.27,4.13-15.68L125,68a27.74,27.74,0,0,1,3.2,6.3c2.42,7.71,1.21,12.37-8.27,17.54h0c-1.07,2.52-5.77,3.88-9,3.88m.86-4.44c.55,0,1,.35,1.66.8a4.72,4.72,0,0,0,2.51.6,11,11,0,0,0,4-.84,13,13,0,0,1-2.74.28c-2.38,0-4.89-.62-6-2.27-.94-1.75-.59-5.39-1-5.91,0,0,.46,3.92-1.38,5.77a5.21,5.21,0,0,1-3.91,1.66,11,11,0,0,1-2.69-.4,6.18,6.18,0,0,0,3.12.64,11.48,11.48,0,0,0,2.68-.29.77.77,0,0,1,.25,0,1.49,1.49,0,0,1,.8.33,1.48,1.48,0,0,0,.84.33,1.41,1.41,0,0,0,.75-.25,2.37,2.37,0,0,1,1.18-.41" fill="#b5a8af"/><path id="path11650" d="M115.94,92.68a4.72,4.72,0,0,1-2.51-.6c-.68-.45-1.11-.8-1.66-.8a2.37,2.37,0,0,0-1.18.41,1.41,1.41,0,0,1-.75.25,1.48,1.48,0,0,1-.84-.33,1.49,1.49,0,0,0-.8-.33.77.77,0,0,0-.25,0,11.48,11.48,0,0,1-2.68.29,6.18,6.18,0,0,1-3.12-.64,11,11,0,0,0,2.69.4,5.21,5.21,0,0,0,3.91-1.66c1.84-1.84,1.38-5.76,1.38-5.76.44.52.09,4.15,1,5.9,1.11,1.65,3.62,2.27,6,2.27a13,13,0,0,0,2.74-.28,10.83,10.83,0,0,1-4,.84" fill="#2c2629"/><path id="path11652" d="M110.23,88.31a5.39,5.39,0,0,1-1.44,2.12c-.68.48,1.1,1.51,2,.55s-.48-.82-.55-2.67" fill="#ec3967"/><path id="path11654" d="M105,76.19s7.53-.28,12.16,1.3c6.41,1.87,1.41,7.38-6.51,6.51-7.72-.85-11.94-7.38-5.65-7.81" fill="#342e32"/><path id="path11656" d="M110.67,84h0m0,0h0m-.05,0h0m0,0h0m0,0h0m0,0h0m0,0h0m0,0h0m-.06,0h0m0,0h0m-.09,0h0m0,0h0m-.06,0h0m0,0h0m-.1,0h0m0,0h0m-.09,0h0m0,0h0m-.06,0h0m0,0h0m-.09,0h0m0,0h0m0,0h0m0,0h0m0,0h0m-.05,0h0m0,0h0m0,0s0,0,0,0,0,0,0,0m0,0h0m0,0h0m0,0h0m0,0h0m0,0h0m0,0h0m0,0h0m0,0h0m0,0h0m0,0-.08,0,.08,0m-.08,0A12.1,12.1,0,0,1,103.53,81a12.1,12.1,0,0,0,5.27,2.67M103.53,81l0,0,0,0m0,0h0m0,0h0" fill="#261f22"/><path id="path11658" d="M112.34,84.09a16,16,0,0,1-1.67-.09H110l-.09,0h0l-.08,0h-.14l-.08,0h-.71l-.08,0h0A12.1,12.1,0,0,1,103.53,81h0l0,0h0c-1.18-1.11-1.72-2.32-1.41-3.25.56,1.26,2.23,2.67,6.53,3.64a18.46,18.46,0,0,0,4.1.49c3.57,0,6.06-1.22,7.22-2.57,1.08,2.1-2.39,4.83-7.57,4.83" fill="#151312"/><path id="path11660" d="M103.22,77.58a33.42,33.42,0,0,1,12.11.43c2.61.57-3.51-3-12.11-.43" fill="#fff"/><path id="path11662" d="M118.12,78.58c-.06.14-.4.12-.75,0s-.59-.4-.53-.53.39-.12.74,0,.59.39.54.52" fill="#fff"/><path id="path11664" d="M97.91,62.91a3.64,3.64,0,0,0-1.56-1.46l.18,0a1,1,0,0,0,.45-.12,2.54,2.54,0,0,1,.93,1.56m-1.73-1.54a4.18,4.18,0,0,0-1.64-.32,3.73,3.73,0,0,0-.71.06,4.31,4.31,0,0,1,1.47-.28,3.29,3.29,0,0,1,.54.05.91.91,0,0,0,.34.49" fill="#605460"/><path id="path11666" d="M96.53,61.47l-.18,0-.17-.08a.91.91,0,0,1-.34-.49,2.39,2.39,0,0,1,1.14.47,1,1,0,0,1-.45.12" fill="#857784"/><path id="path11668" d="M128.26,63.17a2.54,2.54,0,0,1,1-1.61,1.2,1.2,0,0,0,.48.2,3.62,3.62,0,0,0-1.46,1.41m2.06-1.66a1.35,1.35,0,0,0,.19-.4l.36,0a4,4,0,0,1,1.46.28,3.68,3.68,0,0,0-.7-.06,4.22,4.22,0,0,0-1.31.2" fill="#605460"/><path id="path11670" d="M129.72,61.76a1.2,1.2,0,0,1-.48-.2,2.7,2.7,0,0,1,1.27-.45,1.35,1.35,0,0,1-.19.4,3.06,3.06,0,0,0-.6.25" fill="#857784"/><path id="path11672" d="M99.16,74.72c-1.49-4.3,4.3-13,11.71-13.19,0,0-10.08,4-11.71,13.19" fill="#fbf9fb"/><path id="path11674" d="M118.32,94.78s2.44-1.22,1.58-2.94c1.18.54-.06,1.78-.06,1.78s15.28-1,26.71-11.84c5.51-5,7.65-9.85,5.13-13.26a3.38,3.38,0,0,1,1.65,3.22c0,2.42-1.46,6-5.48,10.32a46.13,46.13,0,0,1-29.53,12.72" fill="#877b84"/><path id="path11676" d="M104,95.05s-.31-.1-.86-.31c.55.21.85.31.86.31" fill="#877b84"/><path id="path11678" d="M102.93,94.68A109.14,109.14,0,0,1,83.44,84.25c-7.32-6.46-9.07-11.31-9.07-14.45a6.31,6.31,0,0,1,1.42-4.28c-1.81,4.69.39,14.74,17.74,23.83C98.27,92,100.21,93,101.07,93c.69,0,.68-.6.86-1.4l0,0a4.52,4.52,0,0,0,1,3.09" fill="#877b84"/><path id="path11680" d="M111,97a13.87,13.87,0,0,1-7-1.93h0s-.31-.1-.86-.31h0l-.17-.06h0a4.52,4.52,0,0,1-1-3.09c1.25,2.46,5,3.82,8.11,4.1.27,0,.55,0,.85,0,3.22,0,7.92-1.36,9-3.88h0c.86,1.72-1.58,2.94-1.58,2.94h0A13.44,13.44,0,0,1,111,97" fill="#6f636d"/><path id="path11682" d="M67.78,131.79a6.59,6.59,0,0,0,.44-.83c.06-.14.11-.28.17-.43s.09-.28.12-.43l0-.22,0-.21v-.42a1.67,1.67,0,0,0-.08-.4l-.07-.19-.08-.17,0,0A2.66,2.66,0,0,0,65.6,127a7.24,7.24,0,0,0-1.32.14c-.31,0-.61.12-.92.18a18.56,18.56,0,0,0-1.88.59,7.18,7.18,0,0,1,1.75-1,6.93,6.93,0,0,1,1-.33,5.83,5.83,0,0,1,1-.17h.52a3.29,3.29,0,0,1,.54,0,3.25,3.25,0,0,1,.52.12,3.2,3.2,0,0,1,.52.18,4.48,4.48,0,0,1,.47.28,2.93,2.93,0,0,1,.43.34l.2.19.17.2c.12.14.21.3.31.44v0h0l.1.25.07.26a2,2,0,0,1,0,.54l0,.26-.05.25L69,130l-.09.24a4.66,4.66,0,0,1-.22.45c-.08.14-.17.27-.26.4s-.2.26-.31.38l-.34.33" fill="#100f0d"/><path id="path11684" d="M72.86,131.72h0l.1-.37c0-.11.08-.25.12-.41s.07-.28.1-.43a2.16,2.16,0,0,0,.33-1.18c0-1.63-.68-2.66-3.38-2.81l-.76-.21-.37-.09a4.38,4.38,0,0,1,.85-.07,5.25,5.25,0,0,1,.54,0,6.43,6.43,0,0,1,.67.1,4.63,4.63,0,0,1,.74.21,3.66,3.66,0,0,1,1.45.94,2.79,2.79,0,0,1,.48.79,2.2,2.2,0,0,1,.12.44,2.09,2.09,0,0,1,0,.43,3.31,3.31,0,0,1-.08.79,3.65,3.65,0,0,1-.22.66l-.13.28-.13.23a2.65,2.65,0,0,1-.24.37c-.14.2-.23.31-.23.31" fill="#100f0d"/><path id="path11686" d="M134.23,130l.33-.35c.1-.12.21-.26.33-.43a3.73,3.73,0,0,0,.29-.44,1.7,1.7,0,0,0,.52-1c.12-1.16-1.31-2.13-3.22-2.13a6.28,6.28,0,0,0-2.39.48l-.69.17-.47.12.41-.25a7.89,7.89,0,0,1,1.17-.54,7.21,7.21,0,0,1,.82-.26,6.65,6.65,0,0,1,.95-.19c.23,0,.47,0,.71,0l.35,0a3.6,3.6,0,0,1,.56.08l.27.07.28.1.26.12.26.15.12.09,0,0h0l0,0,0,0,.19.17.2.21.18.24a2.14,2.14,0,0,1,.25.53,1.76,1.76,0,0,1,0,1.09,2.39,2.39,0,0,1-.42.81,3.32,3.32,0,0,1-.5.54,4.72,4.72,0,0,1-.45.35,2.62,2.62,0,0,1-.31.19l-.11.06" fill="#100f0d"/><path id="path11688" d="M138.87,129.25l.18-.31.19-.36c.07-.14.14-.29.21-.47a.08.08,0,0,0,0,0,2.8,2.8,0,0,0,.42-1c.27-1.35-1.16-2.1-2.55-2.1a4.36,4.36,0,0,0-.51,0h0c-.38-.06-.7-.1-.93-.12l-.36,0a5.31,5.31,0,0,1,1.31-.23l.4,0h.25a4.79,4.79,0,0,1,.73.08c.13,0,.26.06.39.09a2,2,0,0,1,.39.14,2.57,2.57,0,0,1,.75.46l.16.16.08.09,0,0v0l0,0,.1.17,0,.09.05.12.08.24,0,.22a3.23,3.23,0,0,1,0,.44,2.64,2.64,0,0,1-.22.75,3.17,3.17,0,0,1-.34.58,4.29,4.29,0,0,1-.35.43,3.85,3.85,0,0,1-.31.29,2.53,2.53,0,0,1-.28.22" fill="#100f0d"/><path id="path11690" d="M43,62.64c-1.1,0,5.52-25.89,35.75-41.33,0,0-24,14.25-35.15,40.38-.28.65-.49,1-.6,1" fill="#605460"/><path id="path11692" d="M66.87,131.37c-.57,0-1-.43-.6-1.24.67-2.12-1.21-2.49-2.63-2.49a9.64,9.64,0,0,0-1.44.11,12,12,0,0,1,2.08-.66h0l.47,0,.47,0h.07l.4,0c.15,0,.3,0,.45.06a3.15,3.15,0,0,1,.44.11,3,3,0,0,1,.42.16,2.82,2.82,0,0,1,.38.21,2.42,2.42,0,0,1,.36.27l.32.31.24.3a2.46,2.46,0,0,1,.13,1.25,1.75,1.75,0,0,1-1.59,1.67" fill="#4e454e"/><path id="path11694" d="M68.33,128.45l-.24-.3-.32-.31a2.42,2.42,0,0,0-.36-.27,2.82,2.82,0,0,0-.38-.21,3,3,0,0,0-.42-.16,3.15,3.15,0,0,0-.44-.11c-.15,0-.3,0-.45-.06l-.4,0h-.07l-.47,0-.47,0h0A7.24,7.24,0,0,1,65.6,127a2.66,2.66,0,0,1,2.73,1.5" fill="#342e32"/><path id="path11696" d="M72.12,131.21c-.45,0-.81-.41-.68-1.39.49-3.29-3.1-3.29-3.1-3.29l1.09,0,.7,0,.18,0a9.06,9.06,0,0,1,1.24.49,4.89,4.89,0,0,1,.63.36,3,3,0,0,1,.53.47,2.32,2.32,0,0,1,.38.58,2.93,2.93,0,0,1,.18.66,3.64,3.64,0,0,1,0,.66l0,.32,0,.3,0,.1a1.4,1.4,0,0,1-1.06.7" fill="#4e454e"/><path id="path11698" d="M73.18,130.51l0-.1,0-.3,0-.32a3.64,3.64,0,0,0,0-.66,2.93,2.93,0,0,0-.18-.66,2.32,2.32,0,0,0-.38-.58,3,3,0,0,0-.53-.47,4.89,4.89,0,0,0-.63-.36,9.06,9.06,0,0,0-1.24-.49l-.18,0c2.7.15,3.38,1.18,3.38,2.81a2.16,2.16,0,0,1-.33,1.18" fill="#342e32"/><path id="path11700" d="M75.23,131.07c-.4,0-.67-.42-.31-1.36.71-1.84-1.3-2.65-1.3-2.65,2.11.32,3.14,1.62,2.71,3a1.36,1.36,0,0,1-1.1,1" fill="#4e454e"/><path id="path11702" d="M112.71,18.69a29.92,29.92,0,0,0-11.25-2.15,27.27,27.27,0,0,0-7.13.86c1.3-1.12,5-2.17,8.84-2.17,3.57,0,7.32.9,9.54,3.46" fill="#605460"/><path id="path11704" d="M133.73,129.36c-.55,0-.95-.29-.77-.93.5-1.63-.74-2-2-2a10,10,0,0,0-2.1.26,7.51,7.51,0,0,1,1.22-.64l.53-.11.81-.13a8.6,8.6,0,0,1,.9-.08h.27a4.92,4.92,0,0,1,.67,0,2.43,2.43,0,0,1,.47.08l.23.06.21.08.21.09.19.11.1.06h0l0,0,.19.17.15.16.14.15a1.19,1.19,0,0,1,.19.35,1.32,1.32,0,0,1,.07.76,2.2,2.2,0,0,1-.25.72l-.07.14a2.17,2.17,0,0,1-1.45.61" fill="#4e454e"/><path id="path11706" d="M135.18,128.75l.07-.14a2.2,2.2,0,0,0,.25-.72,1.41,1.41,0,0,0-.07-.76,1.19,1.19,0,0,0-.19-.35l-.14-.15-.15-.16-.19-.17,0,0h0l-.1-.06-.19-.11-.21-.09-.21-.09-.23,0a2.43,2.43,0,0,0-.47-.08,4.92,4.92,0,0,0-.67,0h-.27a8.6,8.6,0,0,0-.9.08l-.81.13-.53.11a6.28,6.28,0,0,1,2.39-.48c1.91,0,3.34,1,3.22,2.13a1.7,1.7,0,0,1-.52,1" fill="#342e32"/><path id="path11708" d="M138.45,128.81c-.33,0-.5-.36-.2-1.2.73-2-2.28-2.37-2.28-2.37a2.76,2.76,0,0,1,.86-.25l.57.1c.21,0,.43.1.65.17a4,4,0,0,1,.65.25,2.33,2.33,0,0,1,.56.36l.11.11,0,.06,0,0h0l.1.16.06.09,0,.05,0,.12,0,.15,0,.3a3.21,3.21,0,0,1-.09.61,4,4,0,0,1-.18.52,1.52,1.52,0,0,1-1,.74" fill="#4e454e"/><path id="path11710" d="M139.47,128.07a4,4,0,0,0,.18-.52,3.21,3.21,0,0,0,.09-.61l0-.3,0-.15,0-.12,0-.05-.06-.09-.1-.16h0l0,0,0-.06-.11-.11a2.33,2.33,0,0,0-.56-.36,4,4,0,0,0-.65-.25c-.22-.07-.44-.12-.65-.17l-.57-.1a4.36,4.36,0,0,1,.51,0c1.39,0,2.82.75,2.55,2.1a2.8,2.8,0,0,1-.42,1" fill="#342e32"/><path id="path11712" d="M141.42,128.52c-.36,0-.61-.39-.28-1.19.61-1.5-1.17-2.22-1.17-2.22,1.55.28,2.66,1.22,2.33,2.5-.16.6-.56.91-.88.91" fill="#4e454e"/><path id="path11714" d="M66.44,121.72q-.28-.77-.66-1.86h0a7.11,7.11,0,0,1,.66,1.86m-4.09-10.93a146.56,146.56,0,0,0-9-18.23c2.75,1.53,5.39,5.72,7.62,10.54a27.93,27.93,0,0,0,1.36,7.69" fill="#605460"/><path id="path11716" d="M67.42,123.7c-.14,0-.46-.6-1-2a7.11,7.11,0,0,0-.66-1.86h0c-1.1-3.22-2.27-6.27-3.43-9.07A27.93,27.93,0,0,1,61,103.1c4.24,9.15,7,20.6,6.43,20.6" fill="#4e454e"/><path id="path11718" d="M138.73,115.81c-.19,0-.1-.3.33-1a156.07,156.07,0,0,0,14.41-19.43c-.36,7.27-13.52,20.38-14.74,20.38" fill="#605460"/></g></g></g></g></svg>