<svg xmlns="http://www.w3.org/2000/svg" viewBox="0 0 153.33 133.33"><title>Papegoya_1</title><g id="Layer_2" data-name="Layer 2"><g id="svg2"><g id="g10"><g id="g12"><path id="path8294" d="M83,114.05a10.2,10.2,0,0,0-1.79.14l0-.06c0-.7.11-1.12-.31-1.68s-1.33-.46-1.76-.36c-1.1.27-4.62,2.09-5.59.88a2.8,2.8,0,0,1-.12-.46c.7-1.76,2.37-3.44,3.45-4.69A13.21,13.21,0,0,0,79,104.19l.08-.06c.36-.5.87-1.09.55-1.73s-1.29-.32-1.74-.12a2.83,2.83,0,0,0-1.55,1.35,11,11,0,0,0-.22,1.76A30.79,30.79,0,0,1,73,110.23a12.32,12.32,0,0,1-2.56,3c-1.33,1-3.69,1.27-5.35,1.29-4.1.07-8.41.48-12.12,2.35-.48.25-1.18.79-.89,1.43a2.2,2.2,0,0,0,3.25,1.18c2.4-1,4.37-2.09,7-2.21.57,0,1.14,0,1.69,0s1.09,0,1.62,0c-.71.3-1.42.57-2.08.85-1.35.56-2.85.71-4,1.66s-1.4,2.73.11,3.42c.69.32,1.72-.49,2.24-.82a25.58,25.58,0,0,1,5.41-2.64,96.71,96.71,0,0,1,9.46-2.7,19.91,19.91,0,0,1,5,.61c.87.26,2.72.71,3.24-.43.85-1.85-.11-3.08-2.09-3.16" fill="#3fa0c4"/><path id="path8296" d="M65.46,117.34h0m.05,0,.06,0-.06,0m.06,0a.05.05,0,0,0,0,0h0a.05.05,0,0,1,0,0m-12.65-.41.24-.11-.24.11" fill="#3fa0c4"/><path id="path8298" d="M54,119.79a2.2,2.2,0,0,1-.36,0l.06,0c.44-.66-.13-1.52-.84-1.76a.75.75,0,0,0-.37-.09A1.6,1.6,0,0,0,52,118c0-.5.57-.91,1-1.11h0l.24-.11.29-.14a3.74,3.74,0,0,1,1.23.57,1.57,1.57,0,0,0,.8.3h.17l.12.21.2-.1,0-.14a27.37,27.37,0,0,0,3.37-.89,23,23,0,0,1,3.55-.62c0,.09.07.19.11.28l.18-.11a1.18,1.18,0,0,0,0-.2l1-.07a.49.49,0,0,0,0,.11l.12-.06a.13.13,0,0,1,0-.06,12.27,12.27,0,0,0,3.93-.74A7.15,7.15,0,0,0,70,114a3,3,0,0,1-.28.63,10.75,10.75,0,0,1-2,1.42,12.13,12.13,0,0,1-2,1.2l-.8,0H63.21l-.88,0c-2.68.12-4.65,1.16-7,2.21a3.24,3.24,0,0,1-1.28.3m10.51-2.06.95-.39h.05l.06,0h0a.05.05,0,0,0,0,0l-.24.11v.05l.39-.12-.09,0c-.38.15-.77.27-1.16.39" fill="#285f98"/><path id="path8300" d="M73.52,112.29a20,20,0,0,1,3.33-4.43,19.87,19.87,0,0,0-3.31,4.41l0,0m3.34-4.44h0" fill="#3fa0c4"/><path id="path8302" d="M60,123.27a.72.72,0,0,1-.35-.08h0l-.11,0,.54-.35a1.09,1.09,0,0,0-.3-1.12.79.79,0,0,0-.7-.44,1.06,1.06,0,0,0-.47.12,2.56,2.56,0,0,1,.74-1.41l0,.28c.06.62.49.82,1,.82a3.57,3.57,0,0,0,.78-.11c0,.12.07.24.12.36l.16-.07a1.45,1.45,0,0,0,0-.36,7.63,7.63,0,0,0,1.07-.41c.23-.1.45-.22.68-.33l.08.12.15-.1a.53.53,0,0,0,0-.13c.79-.41,1.56-.84,2.35-1.23,1.08-.53,2.25-.81,3.31-1.38a7.41,7.41,0,0,0,3.22-3.92,25.76,25.76,0,0,1,2.84-5h0l.11-.12,0,0c.61-.87,1.24-1.72,1.85-2.59l0,0v.08c0,.21,0,.42,0,.64a5.37,5.37,0,0,1,0,.8.09.09,0,0,0,0,0,.14.14,0,0,0,.12.16c-.09.12-.18.23-.28.34h0l0,0h0a20,20,0,0,0-3.33,4.43l-.11.13c-.26,1.27.34,1.9,1.61,1.93h.08a8.58,8.58,0,0,0,2.41-.47l.69-.21.09.23.16-.1a.63.63,0,0,0,0-.19,5.89,5.89,0,0,1,1.43-.21l.36,0a1.13,1.13,0,0,0,.86.7l-.69.17a29.35,29.35,0,0,1-4.17.42c-2.15,0-3.82-.59-2.47-3h0c-.68,1-1,2-.36,2.73-.05.06-.08.13,0,.19a3.16,3.16,0,0,0,3.09,1.55c1.38,0,2.9-.39,4-.47a3.85,3.85,0,0,1,.48,0,5.46,5.46,0,0,1,2.78.74,1,1,0,0,0,.48.13.8.8,0,0,0,.3-.06,1,1,0,0,0,.29.31h.42a3,3,0,0,1-.15.38h0a1.46,1.46,0,0,1-1.47.74,6.62,6.62,0,0,1-1.77-.31,19.91,19.91,0,0,0-5-.61,96.71,96.71,0,0,0-9.46,2.7,25.58,25.58,0,0,0-5.41,2.64,4.32,4.32,0,0,1-1.89.9" fill="#285f98"/><path id="path8304" d="M58.08,124.47a6.18,6.18,0,0,1,2-1.68,1.09,1.09,0,0,0-.3-1.12c-.5-.84-1.51-.35-2.07.52a4.42,4.42,0,0,0-.71,2.55,4.29,4.29,0,0,0,.29,1.83,5.19,5.19,0,0,1,.77-2.1" fill="#201e1d"/><path id="path8306" d="M50.61,121.12c.93-.7,2.12-.83,3.09-1.4.44-.66-.13-1.52-.84-1.76-.77-.43-2.28.87-2.8,1.35a3.25,3.25,0,0,0-.93,2.09,3,3,0,0,0,.08,1.54,4.42,4.42,0,0,1,1.4-1.82" fill="#201e1d"/><path id="path8308" d="M49.29,122.29c.1-.87.12-2.11.84-2.75a5,5,0,0,1,2.17-1.35v0a5.56,5.56,0,0,0-3,4.06h0" fill="#a2a2a1"/><path id="path8310" d="M57.21,125a5.52,5.52,0,0,1,.34-2.2c.21-.56.79-.89,1.19-1.3h0a5.8,5.8,0,0,0-1,1.5,19.47,19.47,0,0,0-.51,2l-.07,0" fill="#a2a2a1"/><path id="path8312" d="M115.37,122a6.18,6.18,0,0,1,3.76,2.11c0-.23,0-.49,0-.67a2.74,2.74,0,0,0-.31-1.69c-.6-1-2.19-1.22-3.35-1.17h-.28v0h.08a1.29,1.29,0,0,0,.08,1.37" fill="#201e1d"/><path id="path8314" d="M112.88,119.19a1.55,1.55,0,0,0-.5-2.55,4.71,4.71,0,0,0-3.79,0c-1.14.36-4.23,2.42-5.6,1.42-.79-2.44,1.07-6.76,1.54-9.06.29-1.46,1.1-3.91.07-5.24a1.94,1.94,0,0,0-2.85-.13c-.48.42,0,1.68.27,2.56a53.88,53.88,0,0,1-.47,5.47c-.41,2.94-2.08,7.16-5.28,7.89A65.42,65.42,0,0,1,89,120.72a34.68,34.68,0,0,0-6.32,1.09c-2.71.87-.46,2.54,1.39,2.65,2.21.15,4.8-1.06,6.92-1.56a22.55,22.55,0,0,1,3.27-.55,10,10,0,0,1,2.51.2c-2.62,1.91-7,2.24-9.81,3.17-1.12.37-3.83,1.26-2.37,3,1.8,2.17,4.07.77,6-.4A66.81,66.81,0,0,1,96.54,125c1.6-.76,3.27-1.35,4.89-2.06a28.91,28.91,0,0,1,9.24-.22c1.66.23,5.13,1,6.12-.86.86-1.64-2.48-2.43-3.91-2.7" fill="#3fa0c4"/><path id="path8316" d="M99,119.38l0,0c.31,1.63-1.6,2.34-2.46,3.35l.07.08c1-.66,3.24-1.89,2.43-3.46" fill="#2b6f8c"/><path id="path8318" d="M84.47,124.47H84.1a4.15,4.15,0,0,1-1.08-.22l.26-.12a1.34,1.34,0,0,0-.69-1.25,1.08,1.08,0,0,0-.75-.28,1.37,1.37,0,0,0-.34,0c.12-.3.48-.58,1.18-.81a6.78,6.78,0,0,1,1.65.58,6.17,6.17,0,0,0,.2.65l.16-.07a1.12,1.12,0,0,0,0-.45,4.33,4.33,0,0,0,1.51.23h.35a35.93,35.93,0,0,0,5.59-1.12c1.65-.33,3.38-.34,5-.78a2.65,2.65,0,0,0,1.83-1.44c.28,1.5-1.32,2.23-2.24,3.12a12.13,12.13,0,0,0-1.92-.2,3.85,3.85,0,0,0-.48,0h0a22.55,22.55,0,0,0-3.27.55c-2,.47-4.43,1.57-6.55,1.57m14.67-4.39a1.53,1.53,0,0,0-.17-.7l0,0a2,2,0,0,0,.09-.26,2,2,0,0,1,.11.94" fill="#285f98"/><path id="path8320" d="M96.79,122.54h-.1c.92-.89,2.52-1.62,2.24-3.12h0l0,0a1.53,1.53,0,0,1,.17.7c-.14,1-1.19,1.89-2.35,2.46" fill="#1c4268"/><path id="path8322" d="M112.9,119.17h0a2.5,2.5,0,0,0,.25-.41,2.5,2.5,0,0,1-.25.41m.25-.42h0m-9.67-.49A1.67,1.67,0,0,1,103,118a1.38,1.38,0,0,0,.48.21h0" fill="#3fa0c4"/><path id="path8324" d="M86.84,129.89a2.55,2.55,0,0,1-1.07-.23,9.21,9.21,0,0,1,1.39-.51,1.16,1.16,0,0,0-.06-.52,1.67,1.67,0,0,0-.73-1,1.56,1.56,0,0,0-.84-.23,2.47,2.47,0,0,0-1.33.43,1.07,1.07,0,0,1,.15-.58,2.38,2.38,0,0,1,1.57-.64,2.47,2.47,0,0,1,1.11.28c.57.28.67.68,1.3.77l.18,0c.95,0,2.24-1,3-1.39,1.66-.82,3.33-1.66,5-2.42,1.25-.56,2.6-.9,3.9-1.34h.15c1.71-.55,3.33-1.36,5.15-1.42H106a18.46,18.46,0,0,1,2.23.19,18.47,18.47,0,0,0,2.22.19l.54,0c.37,0,1.46-.23,1.42-.81s-.84-1-1.36-1.12l-.21-.05-.1-.07,2.2-.13,0-.08c1.31.26,3.93.91,3.93,2.17a1,1,0,0,1-.14.51,1.41,1.41,0,0,1-.24.36,3.36,3.36,0,0,1-2.62.87,25.29,25.29,0,0,1-3.26-.37,30.54,30.54,0,0,0-4-.27,27.69,27.69,0,0,0-5.21.49c-1.62.71-3.29,1.3-4.89,2.06a66.81,66.81,0,0,0-5.89,3.32,8.28,8.28,0,0,1-3.81,1.54m27.22-10.25-.1.08a5,5,0,0,1,.31.66,1.51,1.51,0,0,1,0,1l0,0a1.55,1.55,0,0,0,.14-.88,1.38,1.38,0,0,0-.44-.86m1.62.91-.15.06c0,.17.09.44-.06.57l0,.1a.58.58,0,0,0,.16-.73m-10.75-.33a2.81,2.81,0,0,1-2.75-1.69,6.51,6.51,0,0,1-.34-3.76c0-.15,0-.3.07-.45h0l.09-.16,0,0c.11-.56.25-1.11.4-1.65h0c.07-.23.13-.46.2-.69.25-.9.3-1.83.48-2.75a.14.14,0,0,0-.14-.18.31.31,0,0,0-.17.07,10.64,10.64,0,0,0-1,1.15c.11-1,.23-2.29.27-3.42,0-.05,0-.1,0-.15a4.52,4.52,0,0,1,.28,1.39c0,.18.09.25.21.25a.87.87,0,0,0,.64-.43c.17-.44.32-.9.45-1.36.11.65.18,1.3.24,1.9,0,.21.1.29.2.29s.58-.42.72-.63c-.09.39-.18.75-.24,1.07-.39,1.9-1.73,5.19-1.73,7.65A4.81,4.81,0,0,0,103,118h0a1.67,1.67,0,0,0,.49.22c.21.5.77.68,1.44.68a11.67,11.67,0,0,0,3.53-.84,7.33,7.33,0,0,1,2.61-.39h.33a1.08,1.08,0,0,0,.86.74h.11a3.59,3.59,0,0,1,.79-.08h.14a2.43,2.43,0,0,1-.13.38h0a2.5,2.5,0,0,1-.25.41,8,8,0,0,0-1.75-.17c-.71,0-1.42.06-2.14.12-1.18.11-2.33.32-3.52.4h-.26c-2.82,0-2.7-2.46-2.39-4.4h0c-.55,2.3-.91,4.41,1.89,4.88a4.7,4.7,0,0,0,.76,0,11.08,11.08,0,0,0,1.79-.18h0a11.42,11.42,0,0,1-2.31.34m5.63-.77h0" fill="#285f98"/><path id="path8326" d="M84.24,130.77a6,6,0,0,1,2.92-1.62,1.16,1.16,0,0,0-.06-.52,1.67,1.67,0,0,0-.73-1,2.3,2.3,0,0,0-2.78.74,4.81,4.81,0,0,0-1.06,2.79c0,.52-.06,1.85.51,2.17a5,5,0,0,1,1.2-2.56" fill="#201e1d"/><path id="path8328" d="M78.66,127.64a3.49,3.49,0,0,1,1.7-2.15,2.81,2.81,0,0,1,.9-.48c.66-.31,1.36-.58,2-.89a1.34,1.34,0,0,0-.69-1.25c-.75-.67-1.93,0-2.78.68s-1.92,2.9-1.17,4.07l0,0" fill="#201e1d"/><path id="path8330" d="M78.63,126.32a4.44,4.44,0,0,1,1-2.19,5.68,5.68,0,0,1,2.16-1.23v0a5.63,5.63,0,0,0-2,1.49,9.37,9.37,0,0,0-1,1.89h-.15" fill="#a2a2a1"/><path id="path8332" d="M82.84,132.22c-.15-1.67.34-4.53,2.54-4.53h.11v0c-2,.57-2.41,2.7-2.57,4.47l-.07,0" fill="#a2a2a1"/><path id="path8334" d="M118.91,123l-.44-.57a4.14,4.14,0,0,0-.3-.5,3,3,0,0,0-.76-.74l-.27-.3a2.4,2.4,0,0,1,1.25.7,3.26,3.26,0,0,1,.52,1.41" fill="#a2a2a1"/><path id="path8336" d="M84.65,122.53H84.6l-.27-.12a.94.94,0,0,0-.14-.26,4.41,4.41,0,0,0-.58-.47l.06-.07c.24.1.6.19.75.44a2,2,0,0,1,.23.49" fill="#285f98"/><path id="path8338" d="M84.53,123.05a6.17,6.17,0,0,1-.2-.65l.27.12h.05a1.12,1.12,0,0,1,0,.45l-.16.07" fill="#213c6e"/><path id="path8340" d="M86.13,122.21a2.4,2.4,0,0,0-.5-.75l0,0c.3.11.65.39.63.73l-.15.07" fill="#285f98"/><path id="path8342" d="M89.4,122.13c-.21-.42-.17-1-.61-1.24l0,0a1.21,1.21,0,0,1,.75,1.2l-.16.07" fill="#285f98"/><path id="path8344" d="M90.51,126c-.15,0-.2-.19-.32-.29a3.52,3.52,0,0,1-.41-.36l0,0a4.71,4.71,0,0,0,.48.29l.31.26-.09.14" fill="#285f98"/><path id="path8346" d="M92.13,125.32c-.22,0-.28-.23-.42-.36l.08-.11a.81.81,0,0,1,.44.33l-.1.14" fill="#285f98"/><path id="path8348" d="M145.35,103.84c-3.76-1.18-7.52-3.22-11.09-4.89-3.84-1.8-7.84-3.32-11.75-5-1.69-.72-3.33-1.55-5-2.22a10.53,10.53,0,0,0-3.28-.94.39.39,0,0,0-.34.26c-.35,1,1.8,2,3.07,2.63a88.2,88.2,0,0,0,28.71,15.78c2.64.76,4,.22,4.91-2.23.8-2-4.2-3.12-5.19-3.43" fill="#2d2c2c"/><path id="path8350" d="M152.51,97.11c-1.09-.86-3.11-.86-4.4-1-2.5-.23-5-.92-7.52-1.35-2.22-.39-4.48-.6-6.7-.94a85.82,85.82,0,0,1-8.6-2.16c-2.18-.59-4.13-2-6.38-2.36-.94-.15-2.64-.62-3.57,0-2.13,1.36,2.68,3.58,4.37,4.21,2.45,1.36,5.06,2.52,7.45,3.88a99.07,99.07,0,0,0,14.33,6.34,39.25,39.25,0,0,0,6.67,1.77c1.06.19,2.27.7,3.05-.23.93-1.1,1.09-3,1.69-4.26s.71-3-.39-3.9" fill="#1e1d1b"/><path id="path8352" d="M146.92,92.73c-7.54-1.43-15.46-1.09-22.35-4.92l0,0c.12.09.25.17.38.25-1.07-.32-1.56.5-1.65,1.63-.18,2.31,3.58,4.07,5.22,4.83,3.21,1.48,7,1.86,10.46,2.33,1.95.26,3.88.43,5.85.5a40.1,40.1,0,0,0,5.36.21c1.92-.19,3.16.09,3.1-2.12-.08-2.49-4.75-2.43-6.35-2.74" fill="#2d2c2c"/><path id="path8354" d="M133.61,115.56a5,5,0,0,1-.54-.07,5,5,0,0,0,.54.07m6.81-1a5.14,5.14,0,0,1-2-.46,5.18,5.18,0,0,0,2,.46m-10.73-.26a49.69,49.69,0,0,1-6-3.29c-1.42-.9-2.91-1.93-4.34-3,1.43,1.1,2.92,2.13,4.34,3a49.13,49.13,0,0,0,6,3.3m14.89-4.88a4,4,0,0,0-.37-.29l0,0,0,0a4,4,0,0,1,.37.29" fill="#979797"/><path id="path8356" d="M147.52,109.82a6.91,6.91,0,0,1-1.89-.32h0l-1.52-.47a15.39,15.39,0,0,0-1.43-.89c.26,0,.52-.08.78-.13.86.27,1.73.51,2.63.72h.09c-.48-.34-1-.67-1.48-1a19.47,19.47,0,0,0,1.92-.59c.11,0,.3-.21.19-.34a4.49,4.49,0,0,0-2.51-1.12,9,9,0,0,0,2.44-.46c.47.1.94.19,1.42.27a10.55,10.55,0,0,0,1.81.31h.13a1.29,1.29,0,0,1,.44,1.46h0c-.7,1.78-1.58,2.55-3,2.55m-13.59-6.64-.41-.16-1.13-.83c-1.21-.89-2.49-1.73-3.79-2.54-.09-.4-.18-.73-.21-.94s-.1-.49-.16-.72c1.16.62,2.35,1.21,3.56,1.78l-1.49-.43h0c-.15,0-.37.22-.25.35a25.89,25.89,0,0,0,3.91,3.49" fill="#1e1c1b"/><path id="path8358" d="M150,105.81a10.55,10.55,0,0,1-1.81-.31c-.48-.08-.95-.17-1.42-.27a4.9,4.9,0,0,0,.65-.32c.09,0,.27-.26.1-.34-.54-.26-1.1-.49-1.66-.7a21.92,21.92,0,0,0,3.86.42l-2.18-1.11-1.2-.31.43-.09c.11,0,.33-.28.15-.37a27.36,27.36,0,0,0-3.3-1.26c.66.06,1.35.1,2,.1,2.67,0,5.26-.66,5.27-3.68v0a4.18,4.18,0,0,0,1.72-.32c1,.89.82,2.66.28,3.8h0c-.6,1.28-.76,3.16-1.69,4.26h0a1.45,1.45,0,0,1-1.12.54H150m-14.39-4.89c-1.26-.39-2.52-.78-3.79-1.15-1.21-.57-2.4-1.16-3.56-1.78a11.29,11.29,0,0,0-.63-1.83c.63.65,1.12,1.72,1.92,2.14h0a8.91,8.91,0,0,0-.21-3.39A36.47,36.47,0,0,0,138,96.74a31.76,31.76,0,0,0,3.8,1.35c-3.09-.36-6.15-.92-9.23-1.45h0c-.13,0-.41.23-.27.35a15.9,15.9,0,0,0,2.42,1.65c-.67-.17-1.34-.35-2-.56h0a.3.3,0,0,0-.15,0l-.87-.23.73.42a.11.11,0,0,0,0,.11,27.76,27.76,0,0,0,3.23,2.49" fill="#181615"/><path id="path8360" d="M150.9,97.53a1.5,1.5,0,0,0-1.12-1.6,25.32,25.32,0,0,0-5.35-.71,57.87,57.87,0,0,1-11-1.87h0c-.15,0-.41.24-.27.36a24.82,24.82,0,0,0,2.49,1.75l-.85-.14-.65,0c.93.31,1.87.6,2.83.86l.83.44.17.08a36.47,36.47,0,0,1-8.62-1.83,5.3,5.3,0,0,0-.51-1.52,12.57,12.57,0,0,1,1.32.41,20.06,20.06,0,0,0,2.53.88s.05,0,.05,0a5.9,5.9,0,0,0-3.12-3.44l1.47-.9c5.14,1.29,10.59,1.42,15.85,2.42,1.6.31,6.27.25,6.35,2.74,0,1-.21,1.48-.65,1.74h0a4.18,4.18,0,0,1-1.72.32" fill="#1e1c1b"/><path id="path8362" d="M58.64,81.83a31.35,31.35,0,0,1-1.12-6.58,54.4,54.4,0,0,1,1.37-15.63c.11-.47,1.85-6.57-.27-6.07a5.8,5.8,0,0,0-2.88,2.09c-.56.49-1.08,1.22-1.49,1.62a20,20,0,0,0-3.82,5.88c-1.82,4-2.68,9.82.37,13.42l.27-.07a10.85,10.85,0,0,0,2.09,5c.76.94,3,3.32,4.52,3.9a3.52,3.52,0,0,0,2.42,1.46.35.35,0,0,0,.33-.36c-.2-1.51-1.38-3.14-1.79-4.65" fill="#464547"/><path id="path8364" d="M52.84,79.38a.13.13,0,0,1-.12-.07,13,13,0,0,1-1.56-7.66,27.21,27.21,0,0,1,1-5.77.49.49,0,0,1,.4-.27c.08,0,.13,0,.12.15-.57,4.45.07,8.84.56,13.27,0,.13-.21.35-.38.35m-2-2.82a9.49,9.49,0,0,1-2-6.21,18,18,0,0,1,1.65-7.21,24.73,24.73,0,0,1,2.43-4.26c0,.13,0,.26,0,.39h0a6.25,6.25,0,0,0,.45,2.38A20.26,20.26,0,0,0,50,69.6a.49.49,0,0,1-.4.33c-.08,0-.13,0-.13-.16,0-1.57.08-3.13.19-4.69-1.24,3.76-1.46,8.43,1.12,11.48m3-15.61a9.58,9.58,0,0,1,.39-1,10.34,10.34,0,0,1,1.27-1.88c-.2.42-.38.85-.55,1.28-.37.5-.75,1-1.11,1.56" fill="#2b2928"/><path id="path8366" d="M58.67,86.31a7.15,7.15,0,0,1-1-.93c-1.54-.58-3.76-3-4.52-3.9a10.85,10.85,0,0,1-2.09-5l-.27.07h0c-2.58-3-2.36-7.72-1.12-11.48-.11,1.56-.18,3.12-.19,4.69,0,.12,0,.16.13.16a.49.49,0,0,0,.4-.33,20.26,20.26,0,0,1,3.28-7.95l0,.1a3,3,0,0,0,.41-.8c.36-.53.74-1.06,1.11-1.56a31.78,31.78,0,0,0-1.6,5.71c-.95,5.06.23,11.1,2.17,15.78h0a23.1,23.1,0,0,0,3.24,5.43m-6.13-20.7a.49.49,0,0,0-.4.27,27.21,27.21,0,0,0-1,5.77,13,13,0,0,0,1.56,7.66.13.13,0,0,0,.12.07c.17,0,.39-.22.38-.35-.49-4.43-1.13-8.82-.56-13.27,0-.11,0-.15-.12-.15" fill="#1c1b1a"/><path id="path8368" d="M51.63,77.43c-.93-3.15-.52-6.26.22-9.59h0c-1.2,3.91-2,7.41,0,11.07a10.87,10.87,0,0,1-.2-1.49" fill="#141210"/><path id="path8370" d="M126.85,89.8c-.65-1-1.28-2.07-1.89-3.13-1-3.17-1.92-6.35-3.12-9.48-.71-1.82-1.6-3.62-2.43-5.39a52.3,52.3,0,0,0-2.92-6.2c-2.49-3.86-4.56-7.89-7.26-11.64-.35-.48-.7-1-1.06-1.42-2.72-4.06-6.12-7.75-8.92-11.69A27.64,27.64,0,0,1,97,35.91a47.71,47.71,0,0,1-2.14-7.33,70,70,0,0,0-4.12-12C87.85,10.31,82.91,3.83,76.35,1.19,76,1,75.51.87,75,.72L74.5.54A7.71,7.71,0,0,0,72.73.19c-1.89-.32-3.9-.3-5.2.56A9.24,9.24,0,0,0,64.22,4.3c-.07-.88-.14-1.75-.2-2.63,0-.27-.34-.22-.5-.12-1.18.8-1.32,2.34-1.56,3.7-.42-.73-.85-1.67-1.41-1.83a.5.5,0,0,0-.54.25c-.47,1,0,2.38.19,3.37a17.39,17.39,0,0,0,.6,2.72A52.63,52.63,0,0,0,62,15.17c1.2,4.79,2.06,9.7,3.22,14.5,1.22,5,1.94,11.32-.54,16.07-1.61,3.1-6,5-6.85,8.59h0c-2.6,2.87-3.92,7.24-4.58,10.76-.95,5.06.23,11.1,2.17,15.78s5.81,8.72,9.8,11.72c4.2,3.15,10.64,8.45,10.06,14.3,0,.16.13.24.28.17A3.09,3.09,0,0,0,77,105.18a7,7,0,0,1,.06,2.09c-.06.36.39.21.51,0a5.52,5.52,0,0,0,.42-.75c0,.12,0,.24,0,.37,0,.35.35.28.53.12a6.54,6.54,0,0,0,2.09-5A15.74,15.74,0,0,0,80,98.59l-.09-.45a34.58,34.58,0,0,0,4.65.19,34.58,34.58,0,0,1,5.72.74c2.27.39,4.33.72,6.26,2a10.82,10.82,0,0,1,3.16,3.76c.65,1.16.66,2.72,1.44,3.77.12.15.33-.08.38-.17a7.54,7.54,0,0,0,.52-2,4.52,4.52,0,0,1,.28,1.39c0,.54.74.09.85-.18.17-.44.32-.9.45-1.36.11.65.18,1.3.24,1.9.08.77.86-.22,1-.42.76-1.43.91-3.06,1.46-4.57s1.63-2.75,2-4.34c1,.61,4.09,1,4,.64a1.47,1.47,0,0,0-.78-1.11,4.25,4.25,0,0,1-1-.87c.4.2.77.37,1,.49,2,.81,7.5-.37,7.09-.49A7,7,0,0,1,116,95.9l.81.16c.76.16,3.08.42,3.54-.52a.35.35,0,0,0,0-.4A9.1,9.1,0,0,0,119,93.85c2.2.35,7.8-1.21,7.45-1.75a13.53,13.53,0,0,0-1.9-2.28,10,10,0,0,0,1.68.63c.31.09.83-.32.61-.65" fill="#333232"/><path id="path8372" d="M101.23,108.69a.14.14,0,0,1-.1,0c-.78-1-.79-2.61-1.44-3.77A11.65,11.65,0,0,0,97,101.42a7.79,7.79,0,0,0-3-2.26c-3.77-1.56-7.9-1.62-11.89-2a35.45,35.45,0,0,1-10.61-2.43,19.78,19.78,0,0,1-3.71-1.92,20.19,20.19,0,0,0,7.3,5c1.7.74,3.31,1.17,3.74,3.18a5.45,5.45,0,0,1-1,4.2.42.42,0,0,1-.29.14.15.15,0,0,1-.16-.15,16.5,16.5,0,0,0-.32-1.78,7.2,7.2,0,0,1-1.1,3.41,3.59,3.59,0,0,0,1-1.63h0a3.17,3.17,0,0,1-1.42,1.88.23.23,0,0,1-.11,0,.17.17,0,0,1-.17-.17v0a6.28,6.28,0,0,0,0-.75c0-5.55-6.08-10.54-10.1-13.55s-7.85-7-9.8-11.72h0A33.75,33.75,0,0,1,53,70.55a33.9,33.9,0,0,0,5.9,14.07h0c.09,0-.72-3.57-.94-5.22a18.23,18.23,0,0,0,7.2,9.68h0c.15,0,.06-1.12-.12-1.46a24.7,24.7,0,0,0,10.44,5.87,51.23,51.23,0,0,0,9.21,1.64,32.2,32.2,0,0,1,4.88.78c1.51.41,3,.93,4.52,1.21h0c.18,0,.44-.22.36-.4a5.6,5.6,0,0,0-1.56-2c1.2.53,2.4,1.08,3.64,1.55h.08c.21,0,.45-.23.33-.43a14,14,0,0,0-3.26-3.76,20.65,20.65,0,0,0,6.39,1.08,14.5,14.5,0,0,0,4.31-.62c.17,0,.43-.41.14-.47-5.22-1.1-9.91-4.89-13.15-9.18,1,.6,2,1.17,3,1.74l.09,0c.2,0,.46-.27.32-.44A26.33,26.33,0,0,1,91,78.05a.14.14,0,0,0-.14-.11.53.53,0,0,0-.34.22,3.45,3.45,0,0,0-.48,1.28,33.18,33.18,0,0,1-2.73-4.51,24.37,24.37,0,0,1-1.69-8.81c0-.11-.07-.16-.15-.16a.46.46,0,0,0-.35.21c-.15.34-.28.68-.4,1a36.78,36.78,0,0,1,.89-6.4.16.16,0,0,0-.16-.22.47.47,0,0,0-.16,0c-4.69,2.29-9.61,6.06-12,10.92l-.21-.16c-2.42-1.76-5.53-2.46-7.74-4.52a.22.22,0,0,0-.14,0c-.18,0-.42.21-.34.39.54,1.29,1,2.61,1.41,4-3.13-2-6.06-4.27-7.86-7.59a.16.16,0,0,0-.16-.1.38.38,0,0,0-.36.33,25.16,25.16,0,0,0,1.29,6,17,17,0,0,1-4.72-7.27c0-.09-.08-.12-.14-.12a.55.55,0,0,0-.37.29c-.16.4-.29.81-.42,1.22a27.82,27.82,0,0,1,1.89-5.75h0l-.33.75c0,.47.08.85.1,1a12.21,12.21,0,0,0,1.15,3.92,14,14,0,0,0,1.25,2h0c-.09-1.3,0-2.61,0-3.92a.33.33,0,0,1,.29-.27.11.11,0,0,1,.1,0,30.07,30.07,0,0,0,7,7h0c-.25-.85-.52-1.7-.74-2.56,0-.13.13-.31.27-.31a.11.11,0,0,1,.08,0c2.66,1.61,5.54,2.88,8.26,4.39A19.06,19.06,0,0,1,75.31,67a50.76,50.76,0,0,1,4.47-3.51c2.6-1.91,5.23-4,8.27-5.1a19.79,19.79,0,0,0-.77,4.94h0A27.36,27.36,0,0,0,88,69.26a11.78,11.78,0,0,0,.21,1.16,21.34,21.34,0,0,0,5,9.54h0a28.59,28.59,0,0,1-1.07-2.7c-.05-.16.19-.41.36-.41a.15.15,0,0,1,.13.07c3.2,5.13,8,9.67,13.91,11.22h0a13,13,0,0,0-2.31-2.92h0c.15,0,2.59.92,5.6,1.9l-.31.2a8.64,8.64,0,0,0-4,5.48,1.42,1.42,0,0,0,0,.29A7.44,7.44,0,0,0,106.4,96c.16.34.34.87.55,1.37a2.52,2.52,0,0,1-.53.74s0,0,0,0a3.71,3.71,0,0,1-.16-.91c-1.29,2.74-1.84,5.72-2.85,8.57a.55.55,0,0,1-.38.29.13.13,0,0,1-.13-.11c-.16-.64-.37-1.26-.58-1.88-.2,1.53-.55,3-.86,4.54l.06-.07c0,.07-.17.22-.28.22m-24-1.2h0a.14.14,0,0,1-.12-.16.09.09,0,0,1,0,0,5.37,5.37,0,0,0,0-.8c0-.22,0-.43,0-.64a5.68,5.68,0,0,1,0,1.43c0,.17,0,.23.15.23a.46.46,0,0,0,.35-.19,6.28,6.28,0,0,0,.44-.76v0h0a5.52,5.52,0,0,1-.42.75.5.5,0,0,1-.36.19m1.27-.44h0l.11-.1-.11.1h0m18.21-5.83-.15-.11a9.35,9.35,0,0,0-2-1,9.86,9.86,0,0,1,2,1l.15.11m-16.3-.9c-.1-.58-.25-1.17-.39-1.73,0-.13,0-.26-.07-.38,0,.12,0,.25.07.38.15.56.29,1.15.39,1.73m10.49-1.15-.6-.1-.94-.17.94.17.6.1m8.49-56.9a7.54,7.54,0,0,0-3.55-2.09,29.27,29.27,0,0,1-2.09-6.75C93.05,29.83,92.56,26,90.25,23c-.1-.13.1-.36.26-.36l.08,0,0,0h0a9.92,9.92,0,0,1,1.67,1.63h0a42.47,42.47,0,0,0-5.07-9.4c-.1-.15.09-.35.25-.35h0a10.85,10.85,0,0,1,1.62.49h0l0-.08c-2.07-3.24-4.53-6.57-8-8.42-.22-.12.1-.38.25-.38h1.22a8.77,8.77,0,0,1,1.15.06h0l-.1-.1a11.28,11.28,0,0,0-3.34-2.08c-2-.76-4.23-.78-6.33-1.25-.24,0,0-.33.11-.38.79-.27,1.58-.53,2.38-.75-.49,0-1-.07-1.48-.07a14.63,14.63,0,0,0-3.71.47h-.07c-.17,0-.16-.2,0-.31a9.75,9.75,0,0,1,1.54-1,17.16,17.16,0,0,0-3,.93c-2.35,1-5.28,2.63-6.35,5.06a.38.38,0,0,1-.28.18.1.1,0,0,1-.1-.09c-.06-.34-.13-.68-.19-1-.25.78-.48,1.55-.69,2.32A6.6,6.6,0,0,0,60,6a7,7,0,0,1-.18-1.36,2.37,2.37,0,0,1,.2-1,.49.49,0,0,1,.43-.26h.11c.56.16,1,1.1,1.41,1.83.24-1.36.38-2.9,1.56-3.7a.5.5,0,0,1,.27-.08.2.2,0,0,1,.23.2c.06.88.13,1.75.2,2.63A9.24,9.24,0,0,1,67.53.75,5.7,5.7,0,0,1,70.64,0a12.31,12.31,0,0,1,2.09.19A7.71,7.71,0,0,1,74.5.54L75,.72c.49.15.94.31,1.33.47,6.56,2.64,11.5,9.12,14.38,15.36a70,70,0,0,1,4.12,12A47.71,47.71,0,0,0,97,35.91a27.64,27.64,0,0,0,2.26,4.94c.18.26.38.53.57.79l-.46.63M60.65,5.08v.07l.09.82c0-.19.07-.38.11-.56l-.2-.32h0" fill="#201f1e"/><path id="path8374" d="M72.79,70.14c-2.72-1.51-5.6-2.78-8.26-4.39a.11.11,0,0,0-.08,0c-.14,0-.31.18-.27.31.22.86.49,1.71.74,2.56a30.07,30.07,0,0,1-7-7,.11.11,0,0,0-.1,0,.33.33,0,0,0-.29.27c0,1.31,0,2.62,0,3.92a14,14,0,0,1-1.25-2,12.21,12.21,0,0,1-1.15-3.92c0-.11-.06-.49-.1-1l.33-.75.28-.33a4.88,4.88,0,0,0,.38-.58l0,0a5.09,5.09,0,0,0-.53,2.38h0a4.46,4.46,0,0,0,.73,2.64.13.13,0,0,0,.12.07.47.47,0,0,0,.38-.36,9.78,9.78,0,0,1,.82-3.46,7.24,7.24,0,0,0,.22.89A9.43,9.43,0,0,0,63,65.11a.15.15,0,0,0,.09,0,.33.33,0,0,0,.28-.31h0a.28.28,0,0,0,0-.13,8.29,8.29,0,0,1-1.08-1.92c2.32,2.95,6.74,4,10.36,6.1a12.72,12.72,0,0,1,4.33-3.79L77,65A62,62,0,0,1,83,60.69a13.12,13.12,0,0,0,3.9-3.81,11.78,11.78,0,0,1-.29,1.28h0v.16c.68-.43,1.35-.88,2-1.34a14,14,0,0,0-.52,1.41c-3,1.15-5.67,3.19-8.27,5.1A50.76,50.76,0,0,0,75.31,67a19.06,19.06,0,0,0-2.52,3.14" fill="#191716"/><path id="path8376" d="M95.81,40.18A5.72,5.72,0,0,0,94.67,40h-.26q-.16-.56-.3-1.11c-.09-.26-.18-.51-.26-.77h0q-.84-2.78-1.56-5.6h0c-.39-1.51-.75-3-1.1-4.54a24.49,24.49,0,0,0-5-10.46,14.08,14.08,0,0,1,1.54.8.2.2,0,0,0,.13,0c.2,0,.43-.23.32-.43a18.18,18.18,0,0,0-2.49-3.64l-.36-.38c.31.13.62.27.92.43l.24-.26c-.66-1-1-2.12-1.69-3.1a12.76,12.76,0,0,0-2.71-2.78,13.63,13.63,0,0,0-3-1.85c.36-.12.72-.25,1.07-.39l.06-.16a8.71,8.71,0,0,0-5.94-2,11.61,11.61,0,0,0-4.8,1,8.55,8.55,0,0,1,.77-1.3c.09-.13.08-.42-.13-.42h0c-3.26.1-6.08,2.88-7.52,6.1a5.92,5.92,0,0,0-.55-1.1c.21-.77.44-1.54.69-2.32.06.35.13.69.19,1a.1.1,0,0,0,.1.09.38.38,0,0,0,.28-.18c1.07-2.43,4-4.07,6.35-5.06a17.16,17.16,0,0,1,3-.93,9.75,9.75,0,0,0-1.54,1.05c-.13.11-.14.31,0,.31h.07A14.63,14.63,0,0,1,75,1.62c.5,0,1,0,1.48.07-.8.22-1.59.48-2.38.75-.13.05-.35.33-.11.38,2.1.47,4.29.49,6.33,1.25a11.28,11.28,0,0,1,3.34,2.08l.1.1a8.77,8.77,0,0,0-1.15-.06H81.35c-.15,0-.47.26-.25.38,3.45,1.85,5.91,5.18,8,8.42l0,.08a10.85,10.85,0,0,0-1.62-.49h0c-.16,0-.35.2-.25.35a42.47,42.47,0,0,1,5.07,9.4,9.92,9.92,0,0,0-1.67-1.63h0l0,0-.08,0c-.16,0-.36.23-.26.36,2.31,3,2.8,6.83,3.47,10.43a29.27,29.27,0,0,0,2.09,6.75" fill="#191716"/><path id="path8378" d="M101.51,43.84a0,0,0,0,1,0,0c-.57-.72-1.13-1.45-1.67-2.18h0c.54.74,1.11,1.48,1.68,2.21" fill="#979797"/><path id="path8380" d="M101.45,108.54c.31-1.51.66-3,.86-4.54.21.62.42,1.24.58,1.88a.13.13,0,0,0,.13.11.55.55,0,0,0,.38-.29c1-2.85,1.56-5.83,2.85-8.57a3.71,3.71,0,0,0,.16.91s0,0,0,0a2.52,2.52,0,0,0,.53-.74l.12.28,0,.2,0,.14s0,0,0,0,0,.12,0,.18h0c0,.06,0,.11,0,.17v0s0,.11,0,.16v0a1,1,0,0,1,0,.17v0a1.09,1.09,0,0,0,0,.18v.41h0v.19h0v.4h0a10.52,10.52,0,0,1-.09,1.14v0a.69.69,0,0,0,0,.13.2.2,0,0,0,0,.07l0,.1a.43.43,0,0,1,0,.11v0a12.67,12.67,0,0,0-.8,1.66,34.19,34.19,0,0,1-1.45,4.57.2.2,0,0,1,0,.08c-.14.21-.5.63-.72.63s-.17-.08-.2-.29c-.06-.6-.13-1.25-.24-1.9-.13.46-.28.92-.45,1.36a.87.87,0,0,1-.64.43c-.12,0-.21-.07-.21-.25a4.52,4.52,0,0,0-.28-1.39s0,.1,0,.15h0a7.23,7.23,0,0,1-.5,1.82h0l-.06.07m5.13-20.4c-6-1.55-10.71-6.09-13.91-11.22a.15.15,0,0,0-.13-.07c-.17,0-.41.25-.36.41A28.59,28.59,0,0,0,93.25,80a21.34,21.34,0,0,1-5-9.54A11.78,11.78,0,0,1,88,69.26a16.73,16.73,0,0,0,3.81,7.45.36.36,0,0,0,.11-.26.38.38,0,0,0,0-.1,12,12,0,0,1-.37-3A16.54,16.54,0,0,0,94,78c.37.48.78,1,1.23,1.58,2.52,2.51,5.5,4.64,9,5.28l0-.26h0a7.77,7.77,0,0,0-1-2.24,21.18,21.18,0,0,0,5.68,3.38c.56.21,1.25.52,2,.79l-1,.62c-3-1-5.45-1.9-5.6-1.9h0a13,13,0,0,1,2.31,2.92m18.71-.9-.19-.17a7.36,7.36,0,0,1-1-1.06.64.64,0,0,0,.47-.46c.12.37.23.75.35,1.12l.33.57M121.77,77a40,40,0,0,0-2.45-3.87,3.1,3.1,0,0,0,.7.17h0l.09,0c.58,1.22,1.15,2.46,1.64,3.71M101.49,43.82c-.68-.54-1.38-1-2.11-1.52l0,0,.46-.63c.54.73,1.1,1.46,1.67,2.18" fill="#191716"/><path id="path8382" d="M94.68,45.16a7.2,7.2,0,0,0-.34-2.26q.64.39,1.35.75a32.53,32.53,0,0,1-1.58-4.74c-.09-.26-.18-.51-.26-.77C92.84,34.81,92,31.4,91.18,28a24.49,24.49,0,0,0-5-10.46,14.08,14.08,0,0,1,1.54.8c.22.14.58-.15.45-.39a18.18,18.18,0,0,0-2.49-3.64l-.36-.38c.31.13.62.27.92.43l.24-.26c-.66-1-1-2.12-1.69-3.1a12.76,12.76,0,0,0-2.71-2.78,13.63,13.63,0,0,0-3-1.85c.36-.12.72-.25,1.07-.39l.06-.16c-2.57-2.39-7.33-2.58-10.74-1a8.55,8.55,0,0,1,.77-1.3c.09-.13.08-.43-.14-.42-3.47.11-6.45,3.25-7.78,6.73-.11-.24-.23-.48-.34-.69a4,4,0,0,0-1.29-1.7c-.16-.09-.33.13-.36.26a4.64,4.64,0,0,0,0,1c-.07,1.23-.19,2.47-.23,3.71a41.7,41.7,0,0,0,.61,8.64A51.59,51.59,0,0,0,63,28.94c.87,2.44,2.11,5.13,2,7.8-.75,5.6-3.84,10.56-7.56,14.87-1.31,1.53-3.14,3.16-4.23,5a7.46,7.46,0,0,0,.07,5.13,10.7,10.7,0,0,0,.8-1.76,11.34,11.34,0,0,1,1.55-2.22,4.88,4.88,0,0,0,.38-.58l0,0a5.31,5.31,0,0,0,.2,5c.15.21.5-.12.5-.29a9.78,9.78,0,0,1,.82-3.46,7.24,7.24,0,0,0,.22.89A9.43,9.43,0,0,0,63,65.11c.23.11.46-.24.33-.42a8.29,8.29,0,0,1-1.08-1.92c2.32,2.95,6.74,4,10.36,6.1a12.72,12.72,0,0,1,4.33-3.79L77,65A62,62,0,0,1,83,60.69a13.12,13.12,0,0,0,3.9-3.81,11.78,11.78,0,0,1-.29,1.28v.16c1.19-.76,2.35-1.56,3.47-2.4a15.72,15.72,0,0,0,2.08-3.26,10.58,10.58,0,0,0,.93-6.81c.57.89.41,1.8.71,2.72l.27,0c.88-.66.62-2.49.65-3.43" fill="#f9e92d"/><path id="path8384" d="M93.85,38.14c-.56-1.85-1.08-3.72-1.57-5.59h0q.72,2.82,1.56,5.6" fill="#1a1712"/><path id="path8386" d="M71.47,67.41l-.08,0a21.15,21.15,0,0,1-10.08-7,.47.47,0,0,0,.29-.26,13.66,13.66,0,0,1,2.95-6.7,9.08,9.08,0,0,0,4.12,9.67.19.19,0,0,0,.1,0,.38.38,0,0,0,.34-.4,13.93,13.93,0,0,1,1.47-9.06,28.55,28.55,0,0,0,0,3.07c.09,2.1.11,4.62,1.36,6.4a.14.14,0,0,0,.12.07.52.52,0,0,0,.3-.16c3.84-4,9.4-7,12.5-11.57a19.33,19.33,0,0,1-.87,3c-.06.14,0,.21.17.21a.42.42,0,0,0,.15,0,11.81,11.81,0,0,0,5-7,25.36,25.36,0,0,0-.56,5.48c0,.47,0,.94,0,1.4s0,.64.07,1l-.91.85a.47.47,0,0,1-.25.09c-.07,0-.13,0-.14-.1a11.4,11.4,0,0,1-.09-1.75c-2.56,2.68-5.75,4.92-8.49,7.24-1.58,1.34-3.35,3.16-5.38,3.8a1.19,1.19,0,0,1-.37.06c-.93,0-1.68-1.14-2.24-2.29a25.79,25.79,0,0,0,.9,3.56c.07.2-.17.39-.36.39M60.93,62.15a.16.16,0,0,1-.09,0A8.52,8.52,0,0,1,57.67,58a11.72,11.72,0,0,0-1,1.7.46.46,0,0,1-.34.21.14.14,0,0,1-.15-.16,12.65,12.65,0,0,1,.73-5.35A29.15,29.15,0,0,0,54.06,58a.57.57,0,0,1-.37.21c-.07,0-.12,0-.12-.15a9.13,9.13,0,0,1,.25-2.23l-.4.57a44.45,44.45,0,0,1,4.08-4.76c3.31-3.84,6.12-8.19,7.23-13,1.12-.21,2.06-.42,2.76-.62h0a3.46,3.46,0,0,0,1.45-.64h0c1.92-2.15,2.16-7.55,3.35-8.51h0a2.28,2.28,0,0,0,.57-.65h0c11.15-3.35,7.74-9.83,7.74-9.83a2.8,2.8,0,0,1,2.21,1.86,5.44,5.44,0,0,0-.77-3.83,2.7,2.7,0,0,1,1.61,1.13c-1.19-6-5.5-8.24-9.26-8.24a9.21,9.21,0,0,0-2.67.39C67.68,10.88,67.32,14,67.32,14a7.33,7.33,0,0,1,.12-2.7,8.54,8.54,0,0,0-2.31,6.11c-1.25-3.51-2.19-7.19-2.19-7.19h0a4.87,4.87,0,0,0-.29-1c1.27-2.85,3.63-5.34,6.42-6-2.36,1.94-4.27,4.43-4.31,7.62,0,.12,0,.16.12.16a.59.59,0,0,0,.4-.28A7.73,7.73,0,0,1,68.69,7a10.73,10.73,0,0,0-1.12,2.4c-.06.15,0,.2.14.2A.48.48,0,0,0,68,9.5a11.15,11.15,0,0,1,7-2.44,12.79,12.79,0,0,1,8.39,3.31A15.06,15.06,0,0,1,86,13.59a17,17,0,0,0-2.78-1.36h-.08c-.21,0-.47.24-.34.43a24.88,24.88,0,0,1,3.55,6.91,19.31,19.31,0,0,0-1.93-1.25.19.19,0,0,0-.1,0c-.2,0-.42.27-.32.45,2.3,4.05,1.33,9.2-.13,13.57a11.74,11.74,0,0,0-.74-5.76.15.15,0,0,0-.15-.11.48.48,0,0,0-.37.34,21.41,21.41,0,0,1-2.38,7.14,9.15,9.15,0,0,0-.38-4.57.14.14,0,0,0-.14-.11.46.46,0,0,0-.37.28,21.3,21.3,0,0,1-1.79,5.06,8.8,8.8,0,0,0-.73-4.2.18.18,0,0,0-.16-.1.41.41,0,0,0-.36.34C75.86,42.41,57.79,47.41,61,60l-.22-.32a6.7,6.7,0,0,0,.51,2.11c.07.16-.17.4-.35.4M89.5,46.81a16.4,16.4,0,0,0,.33-5.22c.24.69.47,1.39.67,2.11,0,.08.07.11.13.11l.08,0c-.21.42-.39.83-.54,1.18h0c-.07.15-.13.3-.18.42h0a14,14,0,0,0-.49,1.42m1.69-3.9a19.88,19.88,0,0,0-.7-12.45c.5.69.91,1.45,1.4,2.17a.13.13,0,0,0,.12.07.41.41,0,0,0,.27-.15c.49,1.87,1,3.74,1.57,5.59h0c.08.26.17.51.26.77s.19.74.3,1.11c-1.28.12-2.4,1.49-3.22,2.89" fill="#facd0d"/><path id="path8388" d="M53.27,56.62l.15-.25-.15.25" fill="#952d4a"/><path id="path8390" d="M61.23,60.43a.13.13,0,0,1-.14-.11l.22.09h0l-.08,0m-.14-.11c0-.12-.07-.24-.1-.36h0l.09.35" fill="#952c27"/><path id="path8392" d="M72.57,68.87c-3.62-2.14-8-3.15-10.36-6.1h0a8.29,8.29,0,0,0,1.08,1.92.28.28,0,0,1,0,.13.33.33,0,0,1-.28.31.15.15,0,0,1-.09,0,9.43,9.43,0,0,1-5.17-5.72,7.24,7.24,0,0,1-.22-.89A9.78,9.78,0,0,0,56.75,62a.47.47,0,0,1-.38.36.13.13,0,0,1-.12-.07,4.46,4.46,0,0,1-.73-2.64,5.09,5.09,0,0,1,.53-2.38l0,0h0a4.88,4.88,0,0,1-.38.58l-.28.33h0A10.34,10.34,0,0,0,54.14,60a10.7,10.7,0,0,1-.8,1.76,6.2,6.2,0,0,1-.49-2.48,9.45,9.45,0,0,1,.42-2.65h0l.15-.25.4-.57A9.13,9.13,0,0,0,53.57,58c0,.11,0,.15.12.15a.57.57,0,0,0,.37-.21,29.15,29.15,0,0,1,2.88-3.62,12.65,12.65,0,0,0-.73,5.35.14.14,0,0,0,.15.16.46.46,0,0,0,.34-.21,11.72,11.72,0,0,1,1-1.7,8.52,8.52,0,0,0,3.17,4.17.16.16,0,0,0,.09,0c.18,0,.42-.24.35-.4a6.7,6.7,0,0,1-.51-2.11L61,60c0,.12.06.24.1.36h0a.13.13,0,0,0,.14.11l.08,0a21.15,21.15,0,0,0,10.08,7l.08,0c.19,0,.43-.19.36-.39a25.79,25.79,0,0,1-.9-3.56c.56,1.15,1.31,2.29,2.24,2.29a1.19,1.19,0,0,0,.37-.06c2-.64,3.8-2.46,5.38-3.8,2.74-2.32,5.93-4.56,8.49-7.24a11.4,11.4,0,0,0,.09,1.75c0,.08.07.1.14.1a.47.47,0,0,0,.25-.09l.91-.85c0,.25.06.49.1.74l-.33.68c-.65.46-1.32.91-2,1.34v-.16a11.78,11.78,0,0,0,.29-1.28h0A13.12,13.12,0,0,1,83,60.69,62,62,0,0,0,77,65l-.14.12a12.72,12.72,0,0,0-4.33,3.79" fill="#952a1e"/><path id="path8394" d="M65.7,21.91S63.6,15,67.44,11.3a7.33,7.33,0,0,0-.12,2.7s.36-3.12,4.43-4.38,10.44.3,11.93,7.85a2.7,2.7,0,0,0-1.61-1.13,5.44,5.44,0,0,1,.77,3.83,2.8,2.8,0,0,0-2.21-1.86s3.41,6.48-7.74,9.83-7.19-6.23-7.19-6.23" fill="#63bd31"/><path id="path8396" d="M79.58,14.33c-.15-.2,1.53.46,1.94,1A7.53,7.53,0,0,0,72.34,11c-3.36,1-3.66,3.62-3.66,3.62a6,6,0,0,1,.1-2.23l-.29.3c-1.38,1.56-1.18,5.26-.41,7a6.23,6.23,0,0,0,6.8,3.63c2.94-.35,4.39-2.62,4.43-5.52,0-.16,1.41.09,1.77.42a8.48,8.48,0,0,0-1.5-3.91" fill="#8cc725"/><path id="path8398" d="M72.17,25.92a11.88,11.88,0,0,1-6.11-6.11,81.23,81.23,0,0,1-3.12-9.59S62.22,5,55.27,4.71,21.94,7.1,8.51,25.09,1.56,58.41,1.56,58.41,3.24,46.19,14,40.43s27.69-8.15,32.37-8.87,22.66-1.2,25.89-2.76a1.63,1.63,0,0,0-.12-2.88" fill="#a6c41e"/><path id="path8400" d="M72.17,25.92a11.88,11.88,0,0,1-6.11-6.11,81.23,81.23,0,0,1-3.12-9.59S62.22,5,55.27,4.71,21.94,7.1,8.51,25.09,1.56,58.41,1.56,58.41,3.24,46.19,14,40.43s27.69-8.15,32.37-8.87,22.66-1.2,25.89-2.76a1.63,1.63,0,0,0-.12-2.88" fill="#8cc725"/><path id="path8402" d="M14,40.43c-10.79,5.76-12.47,18-12.47,18A35.74,35.74,0,0,1,18.35,46c10.78-3.6,48.67-6.48,50.59-8.64s2.16-7.55,3.35-8.51c-3.23,1.56-21.22,2-25.89,2.76S24.82,34.68,14,40.43" fill="#79c02b"/><path id="path8404" d="M58.75,23.25a5,5,0,0,0-3.94-3.46C50.49,19.15,46,22,42.42,24.07c-3.78,2.25-7.64,4.32-11.56,6.33a96.43,96.43,0,0,0-10.59,6c-1.3.89-2.61,1.86-3.87,2.91,10.75-4.92,25.65-7,30-7.71,1.18-.18,3.22-.35,5.66-.52a29.41,29.41,0,0,0,3.47-1.71c2.1-1.23,4.07-3.45,3.22-6.08" fill="#f9e92d"/><path id="path8406" d="M57,23.9a4.83,4.83,0,0,0-3.77-3.32c-4.15-.61-8.48,2.09-11.89,4.11-3.63,2.16-7.34,4.14-11.09,6.07a91.7,91.7,0,0,0-10.15,5.71c-1.25.86-2.51,1.79-3.72,2.8C26.71,34.55,41,32.52,45.17,31.88c1.14-.18,3.1-.34,5.43-.51a25.73,25.73,0,0,0,3.33-1.64c2-1.18,3.91-3.3,3.09-5.83" fill="#ef3120"/><path id="path8408" d="M12.37,42.54a36.52,36.52,0,0,1,2.76-2.67c-.38.18-.74.37-1.1.56-10.79,5.76-12.47,18-12.47,18a33.11,33.11,0,0,1,5.18-5.63,22,22,0,0,1,5.63-10.24" fill="#a6c41e"/><path id="path8410" d="M34.1,40.44c-.31,0-.18-.36,0-.45,1-.49,2.14-.85,3.23-1.25-2.61,0-5.18.69-7.8.74-.3,0-.18-.35,0-.45l.5-.24A112.73,112.73,0,0,1,42.81,34.2c3-1,6.24-1.9,9.25-3.16-2.44.17-4.48.34-5.66.52-4.35.67-19.25,2.79-30,7.71-4.17,3.45-7.84,7.76-9.06,13a33.73,33.73,0,0,1,11-6.3c5.27-1.76,17-3.35,27.87-4.76a43.6,43.6,0,0,0-12.12-.75" fill="#3caba5"/><path id="path8412" d="M18.69,38.29c.31-.87.12-1.77-1.08-2.75-.87-.7-1.68-1.46-1.48-2.7.26-1.69.4-3.07-.63-4.57-1.42-2.1-2.69-3.44-2.27-6.14a12.9,12.9,0,0,1,1-3.2,40.44,40.44,0,0,0-5.71,6.16c-13.42,18-6.95,33.32-6.95,33.32S3.24,46.19,14,40.43a44.42,44.42,0,0,1,4.66-2.14" fill="#7a1425"/><path id="path8414" d="M72.17,25.92a11.88,11.88,0,0,1-6.11-6.11,81.23,81.23,0,0,1-3.12-9.59A6.74,6.74,0,0,0,57.46,5a12.28,12.28,0,0,1,4,5.07,46.28,46.28,0,0,1,2.07,6.29c.59,2.13,1,4.79,2.37,6.61s3.68,3.26,4.37,5.45a5.12,5.12,0,0,1,.19.93,7.72,7.72,0,0,0,1.81-.53,1.63,1.63,0,0,0-.12-2.88" fill="#1a1816"/><path id="path8416" d="M15.25,45.91a15.2,15.2,0,0,1,4-4.16c-1.25.2-2.47.53-3.7.83-.25.06-.31-.14-.18-.33.91-1.26,2.77-2.55,3.29-4A44.42,44.42,0,0,0,14,40.43c-10.79,5.76-12.47,18-12.47,18A36.38,36.38,0,0,1,14.4,47.58a11.4,11.4,0,0,1,.85-1.67" fill="#5a111d"/><path id="path8418" d="M70.48,29.33a8.61,8.61,0,0,1-.7,4A26.8,26.8,0,0,1,67.49,38a3.46,3.46,0,0,0,1.45-.64c1.92-2.15,2.16-7.55,3.35-8.51a7.72,7.72,0,0,1-1.81.53" fill="#1a1816"/><path id="path8420" d="M20.36,35.33A3.28,3.28,0,0,1,20.31,34l.14-.13c.15.41.3.83.46,1.23l-.55.22" fill="#62842f"/><path id="path8422" d="M24.8,33.58c0-.53-.06-1.06-.07-1.59l.06-.14c.21.46.42.92.64,1.38l-.63.35" fill="#62842f"/><path id="path8424" d="M24.8,33.62v0l.63-.35s0,0,0,0l-.64.35" fill="#a2984c"/><path id="path8426" d="M24.82,33.83c0-.07,0-.14,0-.21l.64-.35.17.34-.79.22" fill="#a8272f"/><path id="path8428" d="M28.7,31.51a8.74,8.74,0,0,1-.08-1.14l.1-.19c.13.37.28.73.44,1.09l-.46.24" fill="#62842f"/><path id="path8430" d="M28.7,31.56v0l.46-.24s0,0,0,.05l-.48.24" fill="#a2984c"/><path id="path8432" d="M28.89,32.82c-.06-.42-.13-.84-.19-1.26l.48-.24c.19.44.41.87.64,1.3l-.93.2" fill="#a8272f"/><path id="path8434" d="M33.44,31.94c-.19-.84-.31-1.69-.5-2.53a9.22,9.22,0,0,1,1.51,2.36l-1,.17" fill="#a8272f"/><path id="path8436" d="M37.05,31.35c-.22-.72-.44-1.45-.6-2.19a25.06,25.06,0,0,1,1.49,2.06l-.89.13" fill="#a8272f"/><path id="path8438" d="M27.35,38.48l-.19,0a3.5,3.5,0,0,1-.56-1.26c-.06-.14-.11-.27-.16-.41l.7-.21c.07.64.13,1.29.21,1.93" fill="#2f739b"/><path id="path8440" d="M23.51,40l-.18,0a3.52,3.52,0,0,1-.57-1.26c-.09-.21-.17-.43-.24-.64l.76-.26c.07.74.14,1.48.23,2.21" fill="#2f739b"/><path id="path8442" d="M19,41.54l-.19,0a3.7,3.7,0,0,1-.57-1.26c-.06-.16-.12-.31-.17-.47l.71-.31c.06.7.13,1.39.22,2.09" fill="#2f739b"/><path id="path8444" d="M32.14,38.35,32,38.26c0-.1-.09-.19-.13-.28l.23-.1c0,.16,0,.31,0,.47" fill="#567e36"/><path id="path8446" d="M31.89,38a20.54,20.54,0,0,1-1-2.49l1.16-.28c0,.89,0,1.78.07,2.67l-.23.1" fill="#2f739b"/><path id="path8448" d="M36.4,38.09,36.22,38a10.6,10.6,0,0,1-.56-1.41l.62-.22a14.87,14.87,0,0,0,.12,1.76" fill="#567e36"/><path id="path8450" d="M35.66,36.55c-.13-.39-.25-.79-.38-1.18s-.16-.54-.23-.82l1.28-.24c0,.67-.06,1.35,0,2l-.62.22" fill="#2f739b"/><path id="path8452" d="M40.52,36.88c-.15-.59-.34-1.18-.5-1.78l.79-.25a9.21,9.21,0,0,1-.29,2" fill="#567e36"/><path id="path8454" d="M40,35.1q-.2-.66-.33-1.35l1.1-.15c0,.42,0,.84,0,1.25L40,35.1" fill="#2f739b"/><path id="path8456" d="M43.77,35.53c-.14-.51-.24-1-.33-1.53l.63-.21c-.08.59-.17,1.17-.3,1.74" fill="#567e36"/><path id="path8458" d="M43.44,34c0-.24-.09-.47-.13-.71l.84-.09c0,.2-.06.4-.08.59l-.63.21" fill="#2f739b"/><path id="path8460" d="M18.81,37.39a2.19,2.19,0,0,0-.52-1.18c.68-.32,1.37-.61,2.07-.88,0,0,0,0,0,.06,0,.28.06.56.1.84l-.2.13-1.46,1m2.35-1.62-.25-.66c1-.36,2-.69,2.95-1-.91.53-1.81,1.08-2.7,1.66m32-5.19a26.32,26.32,0,0,0,2.42-1.25l.18-.11Q57,29,58.23,28.71c1.78-.42,4.39-1.09,4.72-3.25a5.35,5.35,0,0,0-.38-2.78,22.69,22.69,0,0,0-1.35-4.52c-1.29-3.56-1.58-7.56-3.89-10.68a9.72,9.72,0,0,0-3.25-2.79h.32l.87,0c6.93.23,7.67,5.48,7.67,5.51A6.73,6.73,0,0,0,57.46,5a12.28,12.28,0,0,1,4,5.07,46.28,46.28,0,0,1,2.07,6.29c.59,2.13,1,4.79,2.37,6.61s3.68,3.26,4.37,5.45a.94.94,0,0,1,0,.16,20,20,0,0,1-5.87,1.06c-3.79.36-7.56.7-11.35,1m16.52-1.09a8.36,8.36,0,0,0,.83-.32.78.78,0,0,0,0,.16l-.85.16" fill="#6c9a2c"/><path id="path8462" d="M18.81,37.4h0l1.46-1,.2-.13h0l-.35.24c-.44.3-.87.61-1.31.93m2.35-1.62h0c.89-.58,1.79-1.13,2.7-1.66l.13,0c-.95.55-1.9,1.11-2.83,1.71m31.07-5.14c.58-.28,1.15-.58,1.7-.91q.24-.14.48-.3c.43-.06.87-.13,1.3-.21l-.18.11a26.32,26.32,0,0,1-2.42,1.25l-.72.05h-.16" fill="#bfb421"/><path id="path8464" d="M18.76,38.05a2,2,0,0,0,0-.65c.44-.32.87-.63,1.31-.93l.35-.24c0,.26.08.51.13.76l0,.31c-.63.24-1.26.49-1.87.75m2.86-1.12-.46-1.15c.93-.6,1.88-1.16,2.83-1.71l.83-.24c0,.42.09.83.15,1.24a2.18,2.18,0,0,0,.09.74c-1.15.34-2.3.71-3.44,1.12m4.81-1.52,0-.14-.78-1.66c1.08-.29,2.18-.55,3.28-.79l0,.29c.07.41.17.82.27,1.23l0,.11v0s0,.1,0,.16l-.52.13-2.33.63m4.3-1.13c-.3-.55-.61-1.1-.91-1.66,1.21-.25,2.41-.47,3.62-.68.06.23.12.47.19.7s.17.59.26.89c-1.06.24-2.11.49-3.16.75m4.29-1,0-.06q-.27-.74-.6-1.44l1.45-.24,1.15-.18c.14.46.28.93.41,1.39L35,33.27m3.77-.8c-.33-.5-.64-.94-.74-1.07a1.74,1.74,0,0,1-.11-.18c3.13-.46,6.26-.83,9.45-1,2.36-.17,4.7-.38,7-.74q-.24.16-.48.3c-.55.33-1.12.63-1.7.91a107.5,107.5,0,0,0-13.44,1.83" fill="#c72824"/><path id="path8466" d="M1.56,58.41h0A21.51,21.51,0,0,1,.4,53.91l.09.14a.14.14,0,0,0,.12.06A.47.47,0,0,0,.85,54C2.76,52.62,3.44,50,4.48,48c1.75-3.37,5.13-6.22,8.14-8.43a32.65,32.65,0,0,1,5.67-3.31,2.19,2.19,0,0,1,.52,1.18h0a2,2,0,0,1,0,.65,39.94,39.94,0,0,0-4.29,2.15h0l-.38.21-.05,0h0c-10.79,5.76-12.47,18-12.47,18h0" fill="#5d111e"/><path id="path8468" d="M70.48,29.33h0a.78.78,0,0,1,0-.16,3.45,3.45,0,0,0,1.85-1.81l-.16.13a7.89,7.89,0,0,1-1.82,1.07.94.94,0,0,0,0-.16c-.69-2.19-3.07-3.65-4.37-5.45s-1.78-4.48-2.37-6.61a46.28,46.28,0,0,0-2.07-6.29,12.28,12.28,0,0,0-4-5.07,6.73,6.73,0,0,1,5.48,5.24h0a81.23,81.23,0,0,0,3.12,9.59,11.88,11.88,0,0,0,6.11,6.11,1.5,1.5,0,0,1,.92,1.39,1.9,1.9,0,0,1-.8,1.49h0a8.41,8.41,0,0,1-1.81.53" fill="#171614"/><path id="path8470" d="M1.56,58.41S3.24,46.19,14,40.43h0c-10.79,5.76-12.47,18-12.47,18h0m12.52-18,.38-.21-.38.21" fill="#40141a"/><path id="path8472" d="M20.47,36.23c0-.28-.08-.56-.1-.84,0,0,0,0,0-.06l.55-.22.25.66-.69.46" fill="#4b6427"/><path id="path8474" d="M20.47,36.23h0l.69-.46h0l-.69.45" fill="#7b733e"/><path id="path8476" d="M20.63,37.3l0-.31c-.05-.25-.09-.5-.13-.76l.69-.45.46,1.15-1,.37" fill="#812127"/><path id="path8478" d="M25.06,35.81a2.18,2.18,0,0,1-.09-.74c-.06-.41-.11-.82-.15-1.24l.79-.22.78,1.66,0,.14-1.37.4" fill="#812127"/><path id="path8480" d="M29.28,34.65c0-.06,0-.11,0-.16v0l0-.11c-.1-.41-.2-.82-.27-1.23l0-.29.93-.2c.3.56.61,1.11.91,1.66l-1.45.37" fill="#812127"/><path id="path8482" d="M33.89,33.53c-.09-.3-.18-.59-.26-.89s-.13-.47-.19-.7l1-.17q.33.71.6,1.44l0,.06-1.13.26" fill="#812127"/><path id="path8484" d="M37.46,32.74c-.13-.46-.27-.93-.41-1.39l.89-.13a1.74,1.74,0,0,0,.11.18c.1.13.41.57.74,1.07l-1.33.27" fill="#812127"/><path id="path8486" d="M52.06,31l1-.46c3.79-.26,7.56-.6,11.35-1a20,20,0,0,0,5.87-1.06,4.42,4.42,0,0,1,.13.61,8.36,8.36,0,0,1-.83.32c-4.27.72-12,1.15-17.57,1.55" fill="#2b3619"/><path id="path8488" d="M51.25,31.1l1-.46h.16l.72-.05-1,.46h0l-.81.06" fill="#404119"/><path id="path8490" d="M18.69,38.28c0-.07,0-.15.07-.23.61-.26,1.24-.51,1.87-.75v0l.06.17c-.68.25-1.35.51-2,.77m3-1.13a1.43,1.43,0,0,1-.08-.22c1.14-.41,2.29-.78,3.44-1.12l0,.06,0,.06v0l0,0,0,0c-1.17.35-2.35.73-3.5,1.13m4.73-1.49.05-.1-.05-.15,2.33-.63.52-.13.06.22c-1,.25-1.94.51-2.91.79m4.34-1.3a.3.3,0,0,0,0-.08c1.05-.26,2.1-.51,3.16-.75l.07.25-2,.46-.13-.1h-.06c-.32.06-.65.14-1,.22m3.85-.72.28-.16.12-.21,2.44-.53c0,.11,0,.21.08.31l-1.3.26,0,0H36c-.39.09-.79.19-1.18.26a.13.13,0,0,0,0,.06l-.23,0m4.28-.85a.16.16,0,0,0,0-.12v0l-.11-.17a107.5,107.5,0,0,1,13.44-1.83l-1,.46c-2.08.15-3.8.3-4.85.46h0l-2.07.32a1,1,0,0,1,0-.17L43,31.82c0,.09,0,.17.05.25l-2.44.41a.31.31,0,0,0-.22-.11,1.11,1.11,0,0,0-.29,0,1.53,1.53,0,0,0-.68.12c0,.07,0,.14,0,.21l-.6.11" fill="#3d1714"/><path id="path8492" d="M14.47,40.2a39.94,39.94,0,0,1,4.29-2.15c0,.08-.05.16-.07.23q-2.22.88-4.22,1.92" fill="#221311"/><path id="path8494" d="M70.46,29.17a4.42,4.42,0,0,0-.13-.61,7.89,7.89,0,0,0,1.82-1.07l.16-.13a3.45,3.45,0,0,1-1.85,1.81" fill="#141310"/><path id="path8496" d="M20.69,37.51l-.06-.17v0l1-.37a1.43,1.43,0,0,0,.08.22l-1,.36" fill="#291612"/><path id="path8498" d="M25.2,36l0,0,0,0v0l0-.06,0-.06,1.37-.4.05.15-.05.1L25.2,36" fill="#291612"/><path id="path8500" d="M29.34,34.87l-.06-.22,1.45-.37a.3.3,0,0,1,0,.08l-.11,0,0,.11v0h0l-1.27.31" fill="#291612"/><path id="path8502" d="M34,33.78l-.07-.25L35,33.27l-.12.21-.28.16-.66.14" fill="#291612"/><path id="path8504" d="M37.54,33.05c0-.1,0-.2-.08-.31l1.33-.27.11.17v0a.16.16,0,0,1,0,.12l-1.36.26" fill="#291612"/><path id="path8506" d="M30.71,34.53l.08-.13a.08.08,0,0,0,0,0c.32-.08.65-.16,1-.22h.06l.13.1-1.22.29" fill="#291612"/><path id="path8508" d="M30.61,34.56h0v0l0-.11.11,0a.08.08,0,0,1,0,0l-.08.13-.1,0" fill="#211511"/><path id="path8510" d="M34.85,33.59a.13.13,0,0,1,0-.06c.39-.07.79-.17,1.18-.26h.18l0,0-1.39.28" fill="#291612"/><path id="path8512" d="M39.5,32.68c0-.07,0-.14,0-.21a1.53,1.53,0,0,1,.68-.12,1.11,1.11,0,0,1,.29,0,.31.31,0,0,1,.22.11l-1.15.2" fill="#291612"/><path id="path8514" d="M43.09,32.07c0-.08,0-.16-.05-.25l1.31-.11a1,1,0,0,0,0,.17l-1.24.19" fill="#291612"/><path id="path8516" d="M18.35,46c5.27-1.76,17-3.35,27.87-4.76a44.44,44.44,0,0,0-8.77-.88c-1.11,0-2.23,0-3.35.13h0c-.27,0-.14-.36,0-.45l.69-.3q.86-.16,1.71-.3a36.17,36.17,0,0,1,6-.41l2.81,0c.93,0,1.87,0,2.8,0a35.07,35.07,0,0,0,6.22-.46,18.6,18.6,0,0,0,3.37-.88,10.41,10.41,0,0,0,3.65-2.18c1.22-1.15,2.9-4.22,0-4.4l-.57,0c-2.3,0-4.61.83-6.86,1.15s-4.78.49-7.17.7c1.56-.5,3.11-1,4.63-1.63,4.27-.41,8.55-.64,12.82-1.12a28.5,28.5,0,0,0,5.46-.72l.86-.16h0a7.72,7.72,0,0,0,1.81-.53h0a7.72,7.72,0,0,1-1.81.53,8.61,8.61,0,0,1-.7,4,26.37,26.37,0,0,1-2.29,4.62c-.7.2-1.64.41-2.76.62C54.19,40.54,27.18,43,18.34,46" fill="#5d932f"/><path id="path8518" d="M1.56,58.41h0" fill="#809827"/><path id="path8520" d="M14.4,47.57a11.81,11.81,0,0,1,.85-1.66c.2-.32.41-.62.63-.91A108.06,108.06,0,0,1,34.8,39.69l-.69.3c-.18.09-.31.45,0,.45h0c1.12-.09,2.24-.13,3.35-.13a44.44,44.44,0,0,1,8.77.88c-10.85,1.41-22.6,3-27.87,4.76h0a29.92,29.92,0,0,0-4,1.62m3-7.51c.19-.2.37-.41.53-.61,0,.1.07.21.11.31l-.64.3m1.35-.61c0-.16,0-.33-.05-.5,1.2-.48,2.41-.94,3.63-1.37.05.15.09.3.14.45-1.24.43-2.49.9-3.72,1.42m4.48-1.68c0-.16,0-.33-.05-.49,1-.35,2-.68,3.05-1,0,.16.11.32.16.47-1,.32-2.08.65-3.16,1m3.86-1.22c0-.17,0-.34,0-.5,1.19-.36,2.39-.69,3.59-1a3.78,3.78,0,0,0,.17.35l0,.1c-1.22.31-2.43.65-3.64,1l-.11,0m4.91-1.34c0-.17,0-.34,0-.51,1-.24,1.94-.47,2.9-.68h0v0l0,.11.09.4q-1.5.3-3,.66m4.28-.9,0-.6c1.07-.23,2.14-.45,3.22-.65,0,.21.07.42.11.62,0,0,0,0,0,.07-1.12.17-2.25.35-3.36.56m4.46-.71-.06-.75,2.43-.42.15.86c-.84.09-1.68.2-2.52.31m3.36-.4c0-.13,0-.26,0-.39s.05-.3.09-.57L46.13,32c1.73-.26,3.47-.46,5.21-.63-1.51.61-3.07,1.13-4.63,1.63l-1.25.11-1.31.13" fill="#2d8283"/><path id="path8522" d="M14,40.43l.05,0-.05,0m.43-.23h0" fill="#5d111e"/><path id="path8524" d="M70.48,29.33h0a8.41,8.41,0,0,0,1.81-.53,7.72,7.72,0,0,1-1.81.53" fill="#171614"/><path id="path8526" d="M1.56,58.41S3.24,46.19,14,40.43h0l.05,0,.38-.21h0a24.7,24.7,0,0,0-7.63,6.69,27.06,27.06,0,0,0-3.29,5.78,51.57,51.57,0,0,0-1.69,5,29.75,29.75,0,0,1,10-15.11A22.73,22.73,0,0,1,16.31,40l1.62-.69a.75.75,0,0,1,.05.16c-.16.2-.34.41-.53.61a20.24,20.24,0,0,0-7.83,5.87c-.67.9-1.45,2.35-.2,2.35a2.3,2.3,0,0,0,.48-.05c1.57-.31,2.65-1.92,4.08-2.49l1.9-.74c-.22.29-.43.59-.63.91a11.81,11.81,0,0,0-.85,1.66A36.4,36.4,0,0,0,1.56,58.41h0" fill="#40141a"/><path id="path8528" d="M67.49,37.94h0a26.37,26.37,0,0,0,2.29-4.62,8.61,8.61,0,0,0,.7-4,7.72,7.72,0,0,0,1.81-.53h0c-1.19,1-1.43,6.36-3.35,8.51h0a3.36,3.36,0,0,1-1.45.63" fill="#171614"/><path id="path8530" d="M26.44,36.76c-.05-.15-.11-.31-.16-.47l.82-.24c0,.16,0,.33,0,.5l-.7.21" fill="#255776"/><path id="path8532" d="M22.52,38c-.05-.15-.09-.3-.14-.45l.85-.3c0,.16,0,.33.05.49l-.76.26" fill="#255776"/><path id="path8534" d="M18.09,39.76c0-.1-.07-.21-.11-.31s.14-.18.21-.27l.56-.23c0,.17,0,.34.05.5l-.71.31" fill="#255776"/><path id="path8536" d="M18,39.45a.75.75,0,0,0-.05-.16l.26-.11c-.07.09-.13.18-.21.27" fill="#32172c"/><path id="path8538" d="M30.89,35.49l0-.1a3.78,3.78,0,0,1-.17-.35L32,34.7c0,.17,0,.34,0,.51l-1.16.28" fill="#255776"/><path id="path8540" d="M35.05,34.55l-.09-.4,0-.11v0h0l1.42-.31,0,.6-1.28.24" fill="#255776"/><path id="path8542" d="M39.69,33.75s0,0,0-.07c0-.2-.08-.41-.11-.62l1.16-.21.06.75-1.1.15" fill="#255776"/><path id="path8544" d="M43.31,33.29l-.15-.86,1.12-.19c0,.27-.07.48-.09.57s0,.26,0,.39l-.84.09" fill="#255776"/><path id="path8546" d="M51.34,31.33l.72-.29-.82.06h0l.82-.06h0c5.6-.4,13.3-.83,17.57-1.55a28.69,28.69,0,0,1-5.47.72c-4.27.48-8.55.71-12.82,1.12" fill="#283419"/><path id="path8548" d="M51.24,31.1h0l.81-.06h0l-.82.06" fill="#404119"/><path id="path8550" d="M16.41,39.26h0c.74-.34,1.5-.66,2.28-1h0c.65-.26,1.32-.52,2-.77h0c-.68.24-1.35.5-2,.77h0c-.78.31-1.54.63-2.28,1m5.29-2.1h0c1.15-.4,2.33-.78,3.5-1.13h0c-1.18.36-2.35.73-3.51,1.14m4.73-1.5h0c1-.28,1.95-.54,2.91-.79h0c-1,.24-1.94.51-2.91.78m5.5-1.42h0l2-.46h0l-2,.46m2.68-.59h0l.23,0h0l-.24.06m1.63-.34h0l1.3-.26h0l-1.3.26m2.66-.51h0l.6-.11h0l-.6.11m1.75-.32h0l2.44-.41h0l-2.44.41m3.68-.6h0l2.07-.32-2.07.32m2.07-.32c1.05-.16,2.77-.31,4.85-.46h0c-2.07.15-3.79.3-4.84.46" fill="#3d1714"/><path id="path8552" d="M18.75,39c0-.13,0-.26,0-.39l-.17,0a3,3,0,0,0,.15-.32c.65-.27,1.32-.53,2-.77v0l0,0a.27.27,0,0,0,.17.06,1.64,1.64,0,0,0,.64-.24l.19-.17,0-.08c1.16-.41,2.33-.78,3.51-1.14a.41.41,0,0,0,.3.12,1.52,1.52,0,0,0,.66-.24c0,.13.07.26.11.39-1,.31-2,.64-3.05,1a2.64,2.64,0,0,0,0-.28c-.31.09-.61.18-.92.25l.09.33C21.16,38,20,38.47,18.75,39m8.35-2.9L27,35.5l-.62.18v0c1-.27,1.95-.54,2.91-.78a1.18,1.18,0,0,0,.07.2l.12.06a1,1,0,0,0,.45-.26c.22-.17.42-.13.62-.25a1.21,1.21,0,0,0,.09.41c-1.2.32-2.4.65-3.59,1M32,34.7v-.12l-.05-.3-.05,0,2-.46,0,0h0a1.62,1.62,0,0,0,.62-.18l.24-.06c0,.14,0,.27.08.41v0c-1,.21-1.93.44-2.9.68m4.32-1c0-.11,0-.22,0-.32l-.12-.08,1.3-.26,0,.13a.09.09,0,0,0,.09.08.19.19,0,0,0,.16-.12A4,4,0,0,0,38.7,33a.37.37,0,0,0,.2-.15l.6-.11c0,.12,0,.25.07.37-1.08.2-2.15.42-3.22.65m4.38-.86,0-.31-.05-.06,2.44-.41c0,.12,0,.24.07.36l-2.43.42m3.55-.61c0-.11,0-.23,0-.36l2.07-.32h0c1.05-.16,2.77-.31,4.84-.46l.82-.06-.72.29c-1.74.17-3.48.37-5.21.63l-1.85.28" fill="#1c2e1a"/><path id="path8554" d="M14.47,40.2h0q2-1,4.22-1.92h0c-.78.31-1.54.63-2.28,1s-1.32.62-1.94.94" fill="#221311"/><path id="path8556" d="M1.86,57.72a51.57,51.57,0,0,1,1.69-5,27.49,27.49,0,0,1,3.29-5.78,24.7,24.7,0,0,1,7.63-6.69c.62-.32,1.27-.64,1.94-.94s1.5-.66,2.28-1h0a3,3,0,0,1-.15.32l-.75.2c.05.16.09.32.14.48L16.31,40a22.73,22.73,0,0,0-4.46,2.63,29.75,29.75,0,0,0-10,15.11" fill="#1d1311"/><path id="path8558" d="M20.69,37.52h0l1-.36h0c-.34.11-.67.23-1,.36" fill="#291612"/><path id="path8560" d="M20.9,37.65a.27.27,0,0,1-.17-.06l0,0v0c.34-.13.67-.25,1-.36l0,.08-.19.17a1.64,1.64,0,0,1-.64.24" fill="#192217"/><path id="path8562" d="M25.21,36h0l1.23-.36h0L25.21,36" fill="#291612"/><path id="path8564" d="M25.51,36.14a.41.41,0,0,1-.3-.12l1.22-.36v0l-.3.08s0,.09.05.14a1.52,1.52,0,0,1-.66.24" fill="#192217"/><path id="path8566" d="M29.34,34.88h0l1.27-.31h0l-1.27.32" fill="#291612"/><path id="path8568" d="M29.53,35.14l-.12-.06a1.18,1.18,0,0,1-.07-.2l1.27-.32v.07h0c-.2.12-.4.08-.62.25a1,1,0,0,1-.45.26" fill="#192217"/><path id="path8570" d="M34,33.78h0l.66-.14h0l-.65.13" fill="#291612"/><path id="path8572" d="M34,33.83h0l0,0,.65-.13a1.62,1.62,0,0,1-.62.18" fill="#192217"/><path id="path8574" d="M37.54,33.05h0l1.36-.26h0l-1.36.25" fill="#291612"/><path id="path8576" d="M37.66,33.26a.09.09,0,0,1-.09-.08l0-.13,1.36-.25a.37.37,0,0,1-.2.15,4,4,0,0,1-.88.19.19.19,0,0,1-.16.12" fill="#192217"/><path id="path8578" d="M26.28,36.29c0-.13-.08-.26-.11-.39l.21-.14,0-.08L27,35.5l.06.55-.82.24" fill="#192217"/><path id="path8580" d="M26.17,35.9s0-.1-.05-.14l.3-.08,0,.08-.21.14" fill="#181d14"/><path id="path8582" d="M22.38,37.58l-.09-.33c.31-.07.61-.16.92-.25a2.64,2.64,0,0,1,0,.28l-.85.3" fill="#192217"/><path id="path8584" d="M18.19,39.18a3.51,3.51,0,0,0,.35-.57l.17,0c0,.13,0,.26,0,.39l-.56.23" fill="#192217"/><path id="path8586" d="M17.93,39.29c-.05-.16-.09-.32-.14-.48l.75-.2a3.51,3.51,0,0,1-.35.57l-.26.11" fill="#1a1411"/><path id="path8588" d="M30.71,34.53h0l1.22-.29h0l-1.22.29" fill="#291612"/><path id="path8590" d="M30.69,35a1.21,1.21,0,0,1-.09-.41l.1-.07v0l1.22-.29.05,0,.05.3v.12L30.69,35" fill="#192217"/><path id="path8592" d="M30.61,34.56h0l.1,0h0l-.1,0" fill="#211511"/><path id="path8594" d="M30.6,34.63h0v-.07l.1,0v0l-.1.07" fill="#181d14"/><path id="path8596" d="M34.85,33.59h0l1.39-.28h0l-1.39.28" fill="#291612"/><path id="path8598" d="M34.93,34v0c0-.14-.06-.27-.08-.41l1.39-.28.12.08c0,.1,0,.21,0,.32L34.93,34" fill="#192217"/><path id="path8600" d="M39.5,32.69h0l1.15-.2h0l-1.15.21" fill="#291612"/><path id="path8602" d="M39.57,33.06c0-.12,0-.25-.07-.37l1.15-.21.05.06,0,.31-1.16.21" fill="#192217"/><path id="path8604" d="M43.09,32.07h0l1.24-.19h0l-1.24.19" fill="#291612"/><path id="path8606" d="M43.16,32.43c0-.12,0-.24-.07-.36l1.24-.19c0,.13,0,.25,0,.36l-1.12.19" fill="#192217"/><path id="path8680" d="M.84,51.14S-3,13.58,49.6,5.75c0,0-45.88,5.27-48.76,45.39" fill="#fff"/><path id="path8682" d="M5.28,51.7S8.63,41.51,30.09,35.64A117.83,117.83,0,0,1,51,32.76s-16.54,1.8-23.61,4.43-16.07,5-22.06,14.51" fill="#fff"/><path id="path8684" d="M124.54,83.93a32.1,32.1,0,0,0-5.22-10.77,3.1,3.1,0,0,0,.7.17c.19,0,.45-.22.39-.42-1.73-6.39-5.94-12.23-9.48-17.74a66,66,0,0,0-6.51-8.57,25.07,25.07,0,0,0-5-4.3A7.21,7.21,0,0,0,94.67,40c-2.24-.08-4,3.73-4.68,5.38a22.87,22.87,0,0,0-1.26,9.22,15.35,15.35,0,0,0,.17,1.69,16.85,16.85,0,0,0-1.62,7c.12,4.89,1.29,9.83,4.56,13.38a.37.37,0,0,0,.1-.36,12,12,0,0,1-.37-3A16.54,16.54,0,0,0,94,78c.37.48.78,1,1.23,1.58,2.52,2.51,5.5,4.64,9,5.28l0-.26a7.77,7.77,0,0,0-1-2.24,21.18,21.18,0,0,0,5.68,3.38c1.52.57,4,1.83,5.66,1.33a.66.66,0,0,0,.5-.54,2.2,2.2,0,0,0-.33-1.14,11.92,11.92,0,0,0,5.69,2.58c.35,0,.88-.49.65-.85l-1-1.6a7,7,0,0,0,1.53,1c.28.12.65-.22.66-.49a2.84,2.84,0,0,0-.1-.82,8.05,8.05,0,0,0,.83.51c1.78.93,2-.39,1.59-1.79" fill="#201e1d"/><path id="path8686" d="M90,45.39c.05-.12.11-.27.18-.42h0q-.11.22-.18.42" fill="#927b20"/><path id="path8688" d="M110.89,86.5c-.74-.27-1.43-.58-2-.79a21.18,21.18,0,0,1-5.68-3.38h0a7.77,7.77,0,0,1,1,2.24l0,.26c-3.45-.64-6.43-2.77-9-5.28C94.76,79,94.35,78.45,94,78a16.54,16.54,0,0,1-2.41-4.64h0a12,12,0,0,0,.37,3,.38.38,0,0,1,0,.1.36.36,0,0,1-.11.26c-3.27-3.55-4.44-8.49-4.56-13.38a16.85,16.85,0,0,1,1.62-7h0a15.35,15.35,0,0,1-.17-1.69c0-.46,0-.93,0-1.4A21.41,21.41,0,0,1,90,45.39h0q.08-.2.18-.42a30.67,30.67,0,0,0-.59,9.81c.37,2.95,1.22,6.45,3.5,8.54a.24.24,0,0,0,.15.06.38.38,0,0,0,.34-.4,31.1,31.1,0,0,1-.95-8.7v-.11a28,28,0,0,0,.89,3.15c.72,2.14,1.64,4.6,3.68,5.8a.23.23,0,0,0,.11,0,.4.4,0,0,0,.34-.4c-.38-1.94-1.22-3.72-1.58-5.67q-.1-.61-.18-1.23c.89,3.54,2.94,6.64,6.59,8h.09a.36.36,0,0,0,.35-.39c-.77-3.5-1.4-7-2.43-10.47a49.85,49.85,0,0,0-2.77-6.73c-.74-1.58-2.27-5-4.29-5.9A2.34,2.34,0,0,1,94.61,40h.06a7.21,7.21,0,0,1,4.71,2.29,25.07,25.07,0,0,1,5,4.3,66,66,0,0,1,6.51,8.57c3.54,5.51,7.75,11.35,9.48,17.74a.13.13,0,0,1,0,.06.43.43,0,0,1-.38.37h0a3.1,3.1,0,0,1-.7-.17h0a32.1,32.1,0,0,1,5.22,10.77,4.16,4.16,0,0,1,.15,1.06c0,.53-.15.93-.55,1-.15-.2-.3-.41-.43-.62l-.06-.17-.12-.12c-.1-.18-.21-.36-.3-.55-.23-.45-.2-1.12-.62-1.44h0c.31.28.35,1.14.51,1.52l.19.45a.62.62,0,0,0-.31.18.24.24,0,0,0,.06-.14c0-.69-4.06-1.21-5-1.21h-.12a10.63,10.63,0,0,0-1.34.21c.16-.06.31-.22.24-.36a29.43,29.43,0,0,0-8.78-10.4.19.19,0,0,0-.1,0c-.18,0-.39.25-.34.41a22,22,0,0,0,3.14,6l.21.05a13.33,13.33,0,0,0,5.43,4.38h.08a20,20,0,0,0-5.58,2.35M96.14,74.22A22.9,22.9,0,0,0,108.29,83h0c.21,0,.48-.33.27-.48a33.53,33.53,0,0,1-6.43-6c-1.92-2.27-3.17-4.93-4.88-7.34a.16.16,0,0,0-.13-.07c-.16,0-.35.23-.36.35a13,13,0,0,0,.64,4.1c-1.92-1.39-2.58-3.78-3.38-6l0-.06s0,0,0,0a6.32,6.32,0,0,0-.09,2.31c-.53-1-1.05-2.1-1.56-3.16a.16.16,0,0,0-.15-.11.46.46,0,0,0-.37.35,8.16,8.16,0,0,0,0,1.48,26.64,26.64,0,0,1-.71-3.1c0-.13-.33-.89-.41-1.25l0-.06,0-.2a11.83,11.83,0,0,0-.91-3.34.15.15,0,0,0-.15-.11.5.5,0,0,0-.36.28,9.39,9.39,0,0,0-.48,2.61c-.44,2.9-.6,5.87,1.07,8.43a.13.13,0,0,0,.12.07c.16,0,.36-.24.37-.36.18-1.26.34-2.55.43-3.85a17.51,17.51,0,0,0,7.19,11.6.16.16,0,0,0,.09,0c.19,0,.43-.24.36-.4-.73-1.51-1.48-3-2.23-4.51m12.06-7.34a.36.36,0,0,0-.36.39,7.36,7.36,0,0,0,.36,1.18l0,.18c.71,2.79,2.57,5,4.39,7.17s3.37,4.54,5.75,5.86a.16.16,0,0,0,.1,0c.18,0,.4-.22.35-.39a31.52,31.52,0,0,0-4.28-8.44c-1.51-2.17-3.65-4.93-6.18-5.95l-.09,0m-7.21,3c-.18,0-.39.24-.34.4a5.71,5.71,0,0,0,.21.58l0,.22a22.52,22.52,0,0,0,7.26,8.79.14.14,0,0,0,.1,0c.18,0,.39-.26.35-.41a16.84,16.84,0,0,0-7.43-9.59.17.17,0,0,0-.1,0m12.18-2.06c-.19,0-.46.19-.37.38a31.94,31.94,0,0,0,2.94,4.59,21.88,21.88,0,0,0,3.48,5,.2.2,0,0,0,.14.06.39.39,0,0,0,.35-.34,9.91,9.91,0,0,0-1.93-5.25,11.06,11.06,0,0,0-4.54-4.4h-.08m-13-22.8a.44.44,0,0,0-.36.35,12.24,12.24,0,0,0,1.88,6.36A17.74,17.74,0,0,0,103,54.27a20.84,20.84,0,0,0,5.65,6.21.19.19,0,0,0,.1,0,.39.39,0,0,0,.35-.35c-.17-2.8-1.66-5.38-3-7.79-1.51-2.74-3.23-5.52-5.88-7.29l-.1,0" fill="#191716"/><path id="path8690" d="M113.22,64.61A55.51,55.51,0,0,0,110.46,58a5.16,5.16,0,0,0,1.28,1.35c.15.09.33-.15.31-.29a11.56,11.56,0,0,0-.89-2.84l-.17.09c.17.79.48,1.59.61,2.39-.41-.34-.78-.81-1.14-1.15A13.48,13.48,0,0,0,108.93,56l0,0a5.86,5.86,0,0,1,.51.69c.17.21.34.43.5.65v0a63.85,63.85,0,0,1,2.66,7A12.09,12.09,0,0,1,110.65,63c-.85-.64-1.66-1.33-2.46-2a29,29,0,0,1-4.4-5l-.06,0q.42.84.87,1.65v0c.34,1,.76,2.06,1.14,3.08a18,18,0,0,1,.86,2.23,28.53,28.53,0,0,0-2.28-2.49c-.35-.73-.72-1.45-1.13-2.14l-.19.15c.67,1.78,1.6,3.48,2.34,5.25.31.73.62,1.47.94,2.2s.89,1.4-.25.87c-3.25-1.53-7.1-3.8-8.66-7.22l-.06,0a8.68,8.68,0,0,0,1.62,2.84l0,.06c.4,1.25.82,2.61,1.33,3.82.82,1.91-1.35-.32-1.81-.77a18,18,0,0,1-5-8.37h0a15.48,15.48,0,0,0,1.51,5c.35,1.17.74,2.33,1.14,3.48,0,0,.82,1.54.35,1.32a10.57,10.57,0,0,1-2.9-2.25c-2.74-2.82-4-6.85-4.24-10.7l-.08,0c-.14,5.86,2.06,11,7.67,13.31l.11-.11c-.4-1.44-1.06-2.88-1.62-4.33.15.24.31.48.48.71,1,1.41,3.13,3.63,5,4l.17-.22c-.58-1.61-1.23-3.2-1.91-4.78a14.62,14.62,0,0,0,2.33,2.11c1.45,1.07,3.66,2.62,5.51,2.68l.22-.2c.18-.85-.94-2.39-1.27-3.16-.42-1-.84-2-1.3-3.05.37.55.72,1.11,1.11,1.63s.7.78,1,1.2c.12.16.35-.11.37-.22a4.54,4.54,0,0,0-.49-2c-.23-.7-.46-1.41-.74-2.11a14.77,14.77,0,0,0,1.74,2,19.93,19.93,0,0,0,3.2,2.27A6.68,6.68,0,0,0,112.91,65c.2,0,.37-.23.31-.4" fill="#141210"/><path id="path8692" d="M114,71.06l-.12.11c1.39,2.3,3.11,4.47,4.38,6.83.66,1.23,1.37,2.43,2,3.65.35.64,2.07,4.45.33,3-4.82-4.06-8.57-9.5-12-14.68l-.06.05a53,53,0,0,0,6.06,9.49c.59.72,1.23,1.39,1.89,2,.6,1,1.27,2,1.93,3a13.32,13.32,0,0,0,1.11,1.56c.83,1-.2.52-.83.3a22.52,22.52,0,0,1-5.21-2.32A32.7,32.7,0,0,1,110.8,82l.07-.2a24,24,0,0,0-2.42-4.8l-.14.1c.56,1.2,1.17,2.37,1.67,3.6a9,9,0,0,0,.41.89v0a8.78,8.78,0,0,1-2-1.3,28.22,28.22,0,0,1-6.57-6.87l0,0a25.62,25.62,0,0,0,3.86,4.76c1.38,1.44,3,3.21,5,3.84h0c.69.82,1.38,1.65,2,2.49.37.4.73.81,1.1,1.22,1.37,1.55-1.55.43-1.64.4a26.16,26.16,0,0,1-8.7-4.62,25.61,25.61,0,0,1-9.6-13.69l-.09,0a20.48,20.48,0,0,0,6.06,11.74,29.9,29.9,0,0,0,2.62,3.59c1.5,1.81.85,1.18-.22.75a13.44,13.44,0,0,1-4.11-2.8,25.84,25.84,0,0,1-5.55-7.68c-1.17-2.58-1.38-5.09-2.08-7.74l-.07,0c.11,1.06.11,2.07.15,3.08l0,0A20.68,20.68,0,0,0,91,73.23c.08.46.18.92.29,1.37.22.93.2.92-.06,0a24.15,24.15,0,0,1-1.29-2.19c-1.77-3.52-1.23-7.39-1.21-11.13h-.06c-.83,4.66-1.44,11.2,2.84,14.64.18.15.44-.11.42-.31-.1-.75-.24-1.5-.39-2.25a19,19,0,0,0,2.43,4.19c2.19,2.88,5.94,6.63,9.72,7.25l.19-.25a9.48,9.48,0,0,0-1.45-2c-.45-.56-.87-1.13-1.28-1.7.35.31.7.61,1.07.91a27.51,27.51,0,0,0,8.09,4.3c.84.29,3.76,1.6,4.46.5l0-.16A18.78,18.78,0,0,0,113,84.21a10.47,10.47,0,0,0,1.68,1.18c1.43.78,4.23,2.19,5.92,1.85l.18-.29c-1-1.41-2.06-2.8-3.08-4.22l1.4,1.32c.4.37,1.82,1.94,2.56,1.61,2-.88-6.72-13.38-7.64-14.6" fill="#141210"/><path id="path8694" d="M120.11,73.19c-.2.27-3-2.9-3.34-3.18a47.22,47.22,0,0,1-3.22-3.94l0,0c.76,1.17,1.4,2.44,2.21,3.57.65.91,1.47,1.69,2.17,2.56.28.33,2,2.19,2.38,1,0-.14-.11-.12-.17,0" fill="#141210"/><path id="path8696" d="M73.69,58.78c-.13-1.15-.22-2.31-.27-3.47a22.13,22.13,0,0,1,2.09-6.52c.06-.13.13-.26.2-.39a17.9,17.9,0,0,0-1.31,1.44c-.52.66-.94,1.66-1.78,1.92l-.26-.17c-.26-1.46.85-3.29,1.42-4.56L74,46.7a16,16,0,0,0-5.06,5.2,18.21,18.21,0,0,0-1.21,2.75l-.41.89a10,10,0,0,0-.68,2.1c-.84-.93-1.17-3.16-1.19-4.25a8.7,8.7,0,0,1,1.69-5.58c1.64-2.22,4.1-3.62,6-5.63a13.12,13.12,0,0,0,2.39-3.48c.06-.19.12-.39.17-.58a14.78,14.78,0,0,0,1.51-5.21,17.27,17.27,0,0,1,.21,3.62c.3-.59.6-1.19.94-1.74a8.2,8.2,0,0,1,1.61-1.33l0,.28c-.42,1.42-.73,3-1.14,4.58a20.09,20.09,0,0,0,1.93-2.8c.4-.4.83-.76,1.2-1.19-.24,1.51-.32,3.22-.55,4.88a24.26,24.26,0,0,0,1.7-6.11c.34.62.6,1.29.89,1.95a19.65,19.65,0,0,1,.11,3.16,30.11,30.11,0,0,0,2.07-7.91,35.47,35.47,0,0,0,.29-5.91c.08-.69.15-1.37.21-2.06a20.61,20.61,0,0,1,1.12,1.92,20.91,20.91,0,0,1,2,13,.37.37,0,0,1-.3.26c-.06,0-.1,0-.11-.12a6.45,6.45,0,0,0-.12-.91,21.32,21.32,0,0,1-2.75,10.22c-.53.53-1.06,1.07-1.56,1.62v-.05a25.3,25.3,0,0,0,.2-3.13A19.06,19.06,0,0,1,82,51.31a21.82,21.82,0,0,1-2.59,3c-1.13.84-2.3,1.62-3.38,2.49a13.05,13.05,0,0,0-2.19,1.86l-.1.08" fill="#f7f67a"/><path id="path8698" d="M75.71,21.21h-.2a4.29,4.29,0,0,1-3.8-4.3A3.59,3.59,0,0,1,75.15,13h.21a4.29,4.29,0,0,1,3.81,4.3,3.58,3.58,0,0,1-3.46,3.86" fill="#408d36"/><path id="path8700" d="M78.72,17c.24,1.86-.8,3.44-2.33,3.52s-3-1.36-3.19-3.22.8-3.44,2.32-3.52,3,1.35,3.2,3.22" fill="#2b1d14"/><path id="path8702" d="M78,17a1.82,1.82,0,0,1-1.48,2.24,2.18,2.18,0,0,1-2-2A1.83,1.83,0,0,1,76,15,2.19,2.19,0,0,1,78,17" fill="#1a1311"/><path id="path8704" d="M75.38,15.78a1,1,0,0,1-.86,1,.91.91,0,0,1-.82-1,1,1,0,0,1,.87-1,.91.91,0,0,1,.81,1" fill="#fff"/><path id="path8706" d="M74,22.58a7,7,0,0,1-3.79-1.47l-.36-.33a7.3,7.3,0,0,1-1.08-2.31,10.23,10.23,0,0,1,.15-2.85c.14.32.17.79.28,1l.1-1.13A5.27,5.27,0,0,1,71,12.6a4.88,4.88,0,0,1,.55-.47,9.08,9.08,0,0,1,3.49-.62,13.17,13.17,0,0,1,1.68.11l-.06,0c-2.49.4-4.07,1.05-5.31,3.36a5,5,0,0,0-.42,1c0,2.51.56,5.27,3.3,6.12.21.07,0,.36-.14.39H74" fill="#b3dc21"/><path id="path8708" d="M145.83,103.87a45.64,45.64,0,0,1-13.51-5.55.32.32,0,0,1,.14-.19l.48.13a111.08,111.08,0,0,0,13.37,4.61,13.1,13.1,0,0,1-2.58.22h-.27c.8.23,1.59.48,2.37.78" fill="#191715"/><path id="path8710" d="M149.69,104.29a21.92,21.92,0,0,1-3.86-.42c-.78-.3-1.57-.55-2.37-.78h.27a13.1,13.1,0,0,0,2.58-.22l1.2.31,2.18,1.11m-17.37-6-.73-.42.87.23a.32.32,0,0,0-.14.19" fill="#151312"/><path id="path8712" d="M146.29,97.64a30.87,30.87,0,0,1-5.67-.56c1.39.15,2.78.25,4.19.3,1,0,2,.15,3,.21-.5,0-1,0-1.49,0" fill="#191715"/><path id="path8714" d="M147.78,97.59c-1-.06-2-.18-3-.21-1.41,0-2.8-.15-4.19-.3s-2.46-.53-3.67-.86c-.45-.25-.9-.5-1.33-.77,4.22.65,8.6,1.12,12.89,1.35l2.2.35-.15.11a22.16,22.16,0,0,1-2.78.33" fill="#201f1e"/><path id="path8716" d="M137,96.22c-1-.26-1.9-.55-2.83-.86l.65,0,.85.14c.43.27.88.52,1.33.77" fill="#181615"/><path id="path8718" d="M115.46,83c-2.36-2.87-5.33-5.28-7.18-8.56l0,0c.8,3.62,3.9,6.92,6.9,8.88.2.12.48-.17.33-.35" fill="#333232"/><path id="path8720" d="M92,58.21a21.25,21.25,0,0,1,1.73-16.27l0,0a17.7,17.7,0,0,0-3.85,8.65c-.45,3.58.86,6.86,2.6,9.89-.18-.75-.32-1.5-.44-2.25" fill="#333232"/><path id="path8722" d="M99.69,60.25a13.43,13.43,0,0,1-1.2-2.89,19.47,19.47,0,0,1-2.07-8.48h-.06a25.28,25.28,0,0,0-.26,4.87,30.09,30.09,0,0,1-1.42-10.15h-.05c-.26,1.14-.92,2.19-1.08,3.35a11.33,11.33,0,0,0-.09,1.28,13.93,13.93,0,0,0,.69,10.47A23.39,23.39,0,0,0,96,61.28l.06-.23a35.64,35.64,0,0,1-2.31-10c0,.14.07.28.1.42a13,13,0,0,0,2.67,5c.64,2.18,2.18,3.68,3.92,5.14h.17c-.32-.46-.66-.9-.94-1.36" fill="#333232"/><path id="path8724" d="M106.42,56.28c-2-3.12-4.47-6.25-5.75-9.69l0,0A20.81,20.81,0,0,0,107,58.11h.21l-.81-1.84" fill="#333232"/><path id="path8726" d="M95.09,74.62a18.74,18.74,0,0,1-2.78-7.35l-.07,0c-.33,4.45,1.24,7.59,4.53,10.48-.59-1-1.16-2.08-1.68-3.15" fill="#333232"/><path id="path8728" d="M89.71,67.48c0-.41-.09-.82-.12-1.24-.11-1-.22-2.07-.3-3.11-.06.21-.13.41-.18.6a18.19,18.19,0,0,0-.33,2.43,7.22,7.22,0,0,0,1,4.83l.14.1c-.14-1.2-.12-2.41-.21-3.61" fill="#333232"/><path id="path8730" d="M102.64,78.7c-.48-.46-1-.93-1.45-1.41a14.11,14.11,0,0,1-2.79-4.5c-.25-.44-.5-.87-.74-1.31.41,1.93.54,4,1.81,5.64a17,17,0,0,0,6.28,4.72,31.79,31.79,0,0,1-3.11-3.14" fill="#333232"/><path id="path8732" d="M105.38,76.1c-.33-.49-.66-1-1-1.44l-.21-.23A30.61,30.61,0,0,1,101.5,71c-.15-.18-.31-.35-.45-.53,1.39,3.09,3,6.09,5.75,8.25H107c-.54-.86-1.08-1.72-1.65-2.57" fill="#333232"/><path id="path8734" d="M113.89,75.29c-1.15-1.66-2.44-3.2-3.62-4.84-.6-.83-1.13-1.71-1.73-2.55l-.14-.19a31.08,31.08,0,0,0,8.77,12.82l.08,0c-1.12-1.75-2.16-3.56-3.36-5.28" fill="#333232"/><path id="path8736" d="M118.48,75.26a41.34,41.34,0,0,0-3.61-4.65,36.75,36.75,0,0,0,3.64,5.62c.13.14.37-.13.3-.27s-.21-.47-.33-.7" fill="#333232"/><path id="path8738" d="M81.59,91.85a18.75,18.75,0,0,1-6.23-2.06l0,0c.37.31.71.62,1,1a11.36,11.36,0,0,1,1.2,1,26.79,26.79,0,0,1-4.4-.75,25.51,25.51,0,0,1-6-3.28,12.15,12.15,0,0,1-3.76-4.5q-.16-.37-.3-.75a10.32,10.32,0,0,0,1,3.1l-.11.31c-.83-.74-1.63-1.5-2.38-2.31a19.37,19.37,0,0,1-2.37-4.14,14.28,14.28,0,0,1-1.28-3.9A8.76,8.76,0,0,0,58,74.49a3.9,3.9,0,0,0-.16,1,8.7,8.7,0,0,0,.06,2.88l-.05.23c-2.23-3.48-3.69-8.07-2.44-11.83l0,.05a25.07,25.07,0,0,0,3.77,5.47,5.73,5.73,0,0,0,1.19,4.43.13.13,0,0,0,.1,0c.12,0,.26-.19.25-.3,0-.36,0-2.43,0-2.43s0,0,0,.15a8,8,0,0,0,.45,2.66A5.84,5.84,0,0,0,64,79.94a7,7,0,0,1-1.34-1.51,9.26,9.26,0,0,1-.83-1.54A5.67,5.67,0,0,1,61.1,74c0-.25-.06-.51-.07-.77l-.22.15a7.63,7.63,0,0,0-.48,2.33,7.73,7.73,0,0,1-.25-6.15h0a7.55,7.55,0,0,0-.66,1.67,9.66,9.66,0,0,1,.14-1.62c.2-.45.38-.91.58-1.37.25.27.52.54.8.79a15.42,15.42,0,0,0,5.76,5c-.48-.78-1-1.56-1.47-2.31l.22-.24a18.83,18.83,0,0,1,3.47,2l-.72-1.15A10.23,10.23,0,0,1,67,69.84v-.07a17.19,17.19,0,0,1,2.49.66A31,31,0,0,1,75,73.85a13.87,13.87,0,0,1,.42-2.36c.08-.32.17-.71.28-1.12a16.06,16.06,0,0,1,1.07-1.89c.24-.34.49-.66.74-1l.14.14c0,.4,0,.78,0,1.16A11.56,11.56,0,0,1,82,63.07l.11,0c.11,0,.17.1.1.23-.41.69-1,2.5-.71,2.5.1,0,.31-.24.69-.85a5.13,5.13,0,0,1,1.25-1.51.16.16,0,0,1,.1,0c.08,0,.13.07.11.17-1.07,4,.46,8.28,2.38,12a15.57,15.57,0,0,0,1.09,3A24.25,24.25,0,0,1,84.63,77a13.67,13.67,0,0,0,1.14,2.26,9.21,9.21,0,0,0,2.06,3.39l-.18,0a18.9,18.9,0,0,1-5.72-3.22,11.79,11.79,0,0,0,1.76.6h0c-2.48-1.52-4.7-3.6-5.27-6.48a4.16,4.16,0,0,0-.45,2,8.05,8.05,0,0,0-.46-1A7.39,7.39,0,0,1,77.11,72l0,0c-.11,1.29-.09,3,.91,4l.28-.13a3.21,3.21,0,0,0,.16-.76,4.36,4.36,0,0,0,.17.86,4.45,4.45,0,0,0,1.12,1.9,14.89,14.89,0,0,1,2,2.89.27.27,0,0,1-.23.34h0c-1.46-.25-2.61-1.89-3.54-2.89,1.27,1.37,1.77,3.62,3.44,5,.12.11,0,.31-.17.33l-.23,0a6.06,6.06,0,0,1-2.84-1.26,11.34,11.34,0,0,1-2.1-1.8,12.73,12.73,0,0,0,2.47,5.51c.34.61.7,1.22,1.06,1.82l-.17,0a6.68,6.68,0,0,1-2.08-1,13.69,13.69,0,0,0,5.59,4.54l.08.25c-.44,0-.89.08-1.33.1m-7.12-6h0a6.39,6.39,0,0,1-4.15-4.48v0c-.17.49-.27,1-.42,1.57a3.43,3.43,0,0,1-.33-2.28h0a3.32,3.32,0,0,0,.22,2.89.13.13,0,0,0,.1.07c.1,0,.2-.11.24-.19a4.85,4.85,0,0,0,.31-1.12,3.59,3.59,0,0,0,1.1,2.24,4.89,4.89,0,0,0,3,1.27M81.85,67a4.23,4.23,0,0,0,1.84,2.85A9.53,9.53,0,0,1,83,68.54a3.22,3.22,0,0,1-.67-1.88c-.08-.29-.15-.57-.22-.85l-.1.07a3.38,3.38,0,0,0-.74,1.3,8.36,8.36,0,0,1,0-2.29h0A7.27,7.27,0,0,0,81,68a.16.16,0,0,0,.17.13.34.34,0,0,0,.27-.16c.17-.33.28-.69.43-1" fill="#474749"/><path id="path8740" d="M59.48,72.55l-.28-.29a7.21,7.21,0,0,1,.2-1,11.69,11.69,0,0,0,.08,1.32" fill="#272626"/><path id="path8742" d="M64,79.94a5.84,5.84,0,0,1-2.82-3.13,8,8,0,0,1-.45-2.66c0-.1,0-.15,0-.15s0,2.07,0,2.43c0,.11-.13.3-.25.3a.13.13,0,0,1-.1,0,5.73,5.73,0,0,1-1.19-4.43l.28.29a11.69,11.69,0,0,1-.08-1.32,7.55,7.55,0,0,1,.66-1.67h0a7.73,7.73,0,0,0,.25,6.15,7.63,7.63,0,0,1,.48-2.33l.22-.15c0,.26,0,.52.07.77a5.67,5.67,0,0,0,.76,2.88,9.26,9.26,0,0,0,.83,1.54A7,7,0,0,0,64,79.94" fill="#363536"/><path id="path8744" d="M81.93,79.41a7.08,7.08,0,0,1-2.22-1.48c-.08-.12-.15-.25-.22-.37A13.42,13.42,0,0,1,78.76,76a5.16,5.16,0,0,0,1,1.37,17.27,17.27,0,0,0,2.18,2.07" fill="#272626"/><path id="path8746" d="M83.73,80h0a11.79,11.79,0,0,1-1.76-.6,17.27,17.27,0,0,1-2.18-2.07,5.16,5.16,0,0,1-1-1.37,13.42,13.42,0,0,0,.73,1.59c.07.12.14.25.22.37A4.45,4.45,0,0,1,78.59,76a4.36,4.36,0,0,1-.17-.86,3.21,3.21,0,0,1-.16.76l-.28.13c-1-1-1-2.74-.91-4l0,0a7.39,7.39,0,0,0,.44,2.47,8.05,8.05,0,0,1,.46,1,4.16,4.16,0,0,1,.45-2c.57,2.88,2.79,5,5.27,6.48" fill="#363536"/><path id="path8748" d="M83.69,69.8A4.23,4.23,0,0,1,81.85,67c-.15.33-.26.69-.43,1a.34.34,0,0,1-.27.16A.16.16,0,0,1,81,68a7.27,7.27,0,0,1,.23-3.11h0a8.36,8.36,0,0,0,0,2.29,3.38,3.38,0,0,1,.74-1.3l.1-.07c.07.28.14.56.22.85A3.22,3.22,0,0,0,83,68.54a9.53,9.53,0,0,0,.68,1.26" fill="#363536"/></g></g></g></g></svg>