<svg xmlns="http://www.w3.org/2000/svg" viewBox="0 0 212.01 133.33"><title>Pelican</title><g id="Layer_2" data-name="Layer 2"><g id="svg2"><g id="g10"><g id="g12"><path id="path6126" d="M203.38,119.1s1.15,4.54,6.85,5.51a17.42,17.42,0,0,1-7.11.31c-3.39-.7-9.09-4.35-7.74-5.82s8,0,8,0" fill="#d95b1d"/><path id="path6128" d="M208.74,124.25l-.21-.08h0l.22.08h0m-4.9-4-.05-.11h0l.05.11h0" fill="#efbd92"/><path id="path6130" d="M205.75,124.41h-.34l-.66,0-.22,0h0c-3.14-.38-6.78-3-7.17-4.36h0s0,0,0,0h0c-.08-.39.38-.52,1.1-.52h.43c.62,0,1.37.14,2.11.25h0l.44.06h.16l.15,0h.06l.28,0,.11,0,.78.11h0l.26,0,.28,0h.23l.05.11h-.15a12.26,12.26,0,0,1-1.36-.1,7.14,7.14,0,0,0-.93-.08,2.35,2.35,0,0,0-1.05.21c-1,.47-.18,1.38.35,1.79a11.75,11.75,0,0,0,7.18,2.15l.65,0,.21.08-.29,0-.43,0c-.75.06-1.53.11-2.27.11" fill="#cc4320"/><path id="path6132" d="M182.7,118.14c.19,0,5.76,1.85,7.3,1.41s.7-1.86,2.62-2.31,7.88.26,10.38,1.28,2.62,1.54,1.21,1.6a18.71,18.71,0,0,1-2.71-.34c-2.07-.32-4.39-.65-4.14.21.39,1.35,4,4,7.17,4.36a18.62,18.62,0,0,0,3.49,0c2.31-.17,4.32-.35,3.94,1.14-.58,2.24-4.87,1.53-8.9,1.47s-9-4-12.17-4.29-9.08-1-9.34-1-3.2.07-2.56-1.28.77-3,3.71-2.17" fill="#f18813"/><path id="path6134" d="M207.78,127.06h0m0,0c2.13,0,3.79-.28,4.16-1.58-.37,1.3-2,1.58-4.16,1.58m-2.47-.07c-.63,0-1.28-.06-1.92-.07.64,0,1.29,0,1.92.07m-2.09-.08h-.17c-4-.07-9-4-12.17-4.29-2.28-.23-5.94-.65-7.94-.88h0c2,.23,5.66.65,7.94.88,3.21.32,8.13,4.22,12.17,4.29h.17m8.72-1.45v0m0-.09v0" fill="#f7c467"/><path id="path6136" d="M205.75,124.41h0m-1,0-.22,0,.22,0" fill="#c73622"/><path id="path6138" d="M208.75,124.25h0c.48,0,.93-.06,1.34-.06-.41,0-.86,0-1.34.06" fill="#f7c467"/><path id="path6140" d="M208.74,124.25h0" fill="#ea8f3b"/><path id="path6142" d="M208.45,124.27l.29,0h0l-.29,0" fill="#c73622"/><path id="path6144" d="M210.11,124.19h0m-6-4.07h0m0,0h0m-.29,0h0" fill="#f7c467"/><path id="path6148" d="M203.79,120.11h0m-.14,0h0m-.37,0-.26,0,.26,0m-.29,0-.78-.11.78.11m-5.63,0s0,0,0,0,0,0,0,0m0,0c-.08-.39.38-.52,1.1-.52-.72,0-1.18.13-1.1.52m4.75-.08-.28,0,.28,0m-.34,0-.15,0,.15,0m-.2,0h0m-.55-.08h0m-2.13-.26h0" fill="#c73622"/><path id="path6150" d="M185.94,119.05c-.36-.08-.71-.18-1-.27h0c.33.09.68.19,1,.27h0" fill="#f7c467"/><path id="path6152" d="M207.78,127.06h0c-.77,0-1.6,0-2.45-.07-.63,0-1.28-.06-1.92-.07h-.34c-4-.07-9-4-12.17-4.29-2.28-.23-5.94-.65-7.94-.88-.64-.46-1.34-.67-1.33-.83s.12-.13.43-.2c.93-.21,3.24-.29,3.25-.58h0c0-.07-.13-.16-.43-.25a10.07,10.07,0,0,1-2.37-1h.75a12.5,12.5,0,0,0,1.65-.08c.33.09.68.19,1,.27a3.88,3.88,0,0,1-1,.22l-.06.22,1.53.79c-.51.15-1,.34-1.51.51V121a17.62,17.62,0,0,0,3.76.43,8.66,8.66,0,0,1,2.09.38c.65.21,1.45.44,2.08.69a69.64,69.64,0,0,0,6.68,2.57l.09-.21a4.89,4.89,0,0,0-1.31-1,11.12,11.12,0,0,1-1.71-1.42,8,8,0,0,1-2.28-3c-.39-1.41,2.43-1.77,3.34-1.77h0l.77,0a3.83,3.83,0,0,0,.83-.08,19.83,19.83,0,0,1,3.76,1c1.46.6,2.11,1,2.11,1.29s-.31.29-.9.31h-.65l-.28,0-.26,0h0l-.78-.11-.11,0-.28,0h-.06l-.15,0h-.16l-.44-.06h0c-.74-.11-1.49-.21-2.11-.25h-.43c-.72,0-1.18.13-1.1.52h0s0,0,0,0h0c.39,1.35,4,4,7.17,4.36h0l.22,0,.66,0h.34c.74,0,1.52,0,2.27-.11l.43,0,.29,0h0c.48,0,.93-.06,1.34-.06h0c1.24,0,2.06.23,1.87,1.16v.13c-.37,1.3-2,1.58-4.16,1.58h0" fill="#eb6419"/><path id="path6154" d="M194.08,122.49c-1.21-.61-2.75-1.9-2.49-3.29a2.29,2.29,0,0,1,2.5-1.76,3,3,0,0,1,.43,0c-1,.2-2.08.63-2.07,1.85a4.84,4.84,0,0,0,1.63,3.18" fill="#fceab2"/><path id="path6156" d="M189.05,120.3a4.73,4.73,0,0,1-.83-.07l-.15,0a5.8,5.8,0,0,1-1.65-.58c.39.06.79.1,1.18.19s.89.15,1.33.21a7.31,7.31,0,0,0,.85.07,1.67,1.67,0,0,0,.32,0,2,2,0,0,1-1,.23" fill="#fceab2"/><path id="path6158" d="M99.13,91.7A52.55,52.55,0,0,0,95,66.09c-5.77-12.67-12.81-27.4-13.58-35.47S83.77-1.58,85.75.08s.07,21.64.07,21.64S88.57,1.55,91.71.27s-1.22,22.09-1.22,22.09S95.36,8.15,97.73,9.05,95.55,26,95.55,26s5-13.51,7.55-12.87-3.71,15.75-3.71,15.75,5.76-9.67,9.47-9.86-5.63,12.36-5.63,12.36,6.9-8.15,11.66-7.17c2.17.44-6.28,8.38-6.28,8.38s6-4.41,9.73-4.09-5.7,6.65-5.7,6.65,9.93-2.68,10.25-.64-6.66,4.1-6.66,4.1,8.38-2.37,8.64-1.34-4.86,3-5.06,3.07c0,0,.48,0,1.3-.07,2.42-.14,7.43-.27,8.24,1.16,1.09,1.92-5.18,2.18-5.37,2.24s8.77-.06,8.7,1.54-4,1.66-4,1.66,3.52-.61,8.8,3.52S130,90.78,130.15,91s-31,.73-31,.73" fill="#353f4b"/><path id="path6160" d="M88.24,8.54c1-4.12,2.19-7.73,3.46-8.26-1.27.53-2.47,4.14-3.46,8.25h0M91.7.28h0" fill="#353f4b"/><path id="path6162" d="M90,24.1c.43-4,.7-8,1-11.94.06-.64.31-6.54-1-6.54a.65.65,0,0,0-.26.06c-.63.3-.94,1.43-1.16,2l-.29.81c1-4.11,2.19-7.72,3.46-8.25h0a.68.68,0,0,1,.23-.05c2.42,0-.72,18.09-1.34,21.57-.21.77-.42,1.54-.64,2.31" fill="#161718"/><path id="path6164" d="M96,24.44c1-3.86,3.5-13.91,2-15.28,1.54,1.37-.93,11.38-2,15.26,0,0,0,0,0,0m-3.16-8.1c1.25-3,2.79-6.1,4-7-1.23.94-2.76,4.07-4,7v0m4-7h0m0,0h0m1.09-.12h0m0,0h0m0,0h0m0,0h0m0,0h0m0,0h0m0,0h0m0,0h0m0,0h0m0,0h0m0,0h0m0,0h0m0,0h0m0,0h0m0,0h0m0,0h0m0,0h0m0,0h0" fill="#353f4b"/><path id="path6166" d="M94.19,28.46c.48-1.87.9-3.76,1.24-5.66a62.75,62.75,0,0,0,1-7.62c0-.61.14-1.7-.38-2.17a.48.48,0,0,0-.31-.12c-.44,0-.94.59-1.16.84a15.08,15.08,0,0,0-1.75,2.59c1.25-3,2.78-6.09,4-7h0A1.18,1.18,0,0,1,97.5,9a.62.62,0,0,1,.23,0h.19c1.54,1.37-.94,11.42-2,15.28a36.86,36.86,0,0,1-1.77,4" fill="#161718"/><path id="path6168" d="M99.92,27.52c1.23-3.13,4.17-11,3.76-13.59.41,2.62-2.53,10.46-3.76,13.59h0m3.76-13.59v0m0,0h0" fill="#353f4b"/><path id="path6170" d="M98.63,29.84A46.54,46.54,0,0,0,101.69,19c.13-1,.34-2.88-1-3h-.09a1.11,1.11,0,0,0-.56.17c1-1.78,2.08-3.07,2.91-3.07a.55.55,0,0,1,.18,0c.31.08.49.37.57.82h0v0h0c.41,2.62-2.53,10.46-3.76,13.59l-.06.07,0,.1c-.36.73-.77,1.45-1.2,2.15" fill="#161718"/><path id="path6172" d="M104.2,30a65,65,0,0,0,4.53-7.23A63.71,63.71,0,0,1,104.21,30h0m4.53-7.23h0m0,0h0m0,0h0m.9-2.29h0m0,0h0m0,0h0m0,0h0m0,0h0m0,0h0m0,0h0m0,0h0m0,0h0m0,0h0m0,0h0m0,0h0m0,0h0m0,0h0m0,0h0m0,0h0m0,0h0m0,0h0m0,0v0m0,0v0m0,0a1,1,0,0,0-.24-.87,1,1,0,0,1,.24.87m-.24-.87h0m0,0h0m0,0h0m0,0h0m0,0h0m0,0h0m0,0h0m0,0h0m0,0h0m0,0h0m0,0h0m0,0h0m0,0h0m0,0h0m0,0h0m0,0h0m0,0h0m0,0h0m0,0h0m0,0h0m0,0h0m0,0h0m0,0h0m0,0h0m0,0h0m0,0h0m0,0h0m0,0h0m0,0h0m0,0h0m0,0h0m0,0h0m0,0h0m0,0h0m-.23,0h0m.21,0h0m-.19,0h0m0,0h0m.15,0h0m0,0h0m0,0h0m0,0h0" fill="#353f4b"/><path id="path6174" d="M102.29,32.13c.48-.87.94-1.74,1.42-2.6.6-1.08,1.24-2.14,1.78-3.26a6.6,6.6,0,0,0,.87-3.37c-.06-.55-.31-.74-.63-.74A3.46,3.46,0,0,0,104,23a22.19,22.19,0,0,0-2.37,2.38c2-2.79,5-6.29,7.17-6.44h.66a1,1,0,0,1,.24.87h0v0h0v0h0v0h0v0h0v0h0a.08.08,0,0,1,0,0h0a10.47,10.47,0,0,1-.9,2.29h0v0h0v0h0A63.51,63.51,0,0,1,104.2,30l-1.91,2.14" fill="#161718"/><path id="path6176" d="M107.74,27c2-1.55,4.28-2.92,6.32-2.92h0c-2,0-4.35,1.37-6.31,2.91h0" fill="#353f4b"/><path id="path6178" d="M106,34.49c.73-1,1.48-1.87,2.26-2.78A19.63,19.63,0,0,0,111,27.94c.28-.55,1.14-1.69.63-2.33a.8.8,0,0,0-.67-.3,2.39,2.39,0,0,0-.8.18,10.21,10.21,0,0,0-2.44,1.5c2-1.54,4.27-2.91,6.31-2.91h.34a4.44,4.44,0,0,1,.49.07.39.39,0,0,1,.35.42c0,1.72-6.63,8-6.63,8h0l.17-.12c-.29.26-.59.52-.9.76-.58.44-1.19.84-1.78,1.25l-.09.06" fill="#161718"/><path id="path6180" d="M112.64,35.1l.12,0-.12,0m3.72-6.47a6.91,6.91,0,0,1,1.58-.2,2.61,2.61,0,0,1,.4,0l-.4,0a6.91,6.91,0,0,0-1.58.2" fill="#353f4b"/><path id="path6182" d="M108.46,36.58c.78-.46,1.55-.95,2.3-1.45,1.79-1.22,3.92-2.28,5.1-4.18.26-.43.63-1.16.33-1.66a.81.81,0,0,0-.74-.3,2.34,2.34,0,0,0-.38,0,11.73,11.73,0,0,1,1.29-.39,6.91,6.91,0,0,1,1.58-.2l.4,0h0c.62.05.87.27.87.59,0,1.65-6.57,6.06-6.57,6.06h0l.12,0,.17,0a21.32,21.32,0,0,1-4.47,1.55" fill="#161718"/><path id="path6184" d="M122.89,34.46a.7.7,0,0,0-.36-.47.7.7,0,0,1,.36.47" fill="#353f4b"/><path id="path6186" d="M114.09,39c.52-.21,1-.44,1.56-.68a33.56,33.56,0,0,0,3.68-2c.56-.35,1.38-.88,1.24-1.66-.09-.55-.58-.79-1.14-.87.5-.05,1-.08,1.42-.08a3.54,3.54,0,0,1,1.68.29.7.7,0,0,1,.36.47h0s0,.1,0,.15c0,2-6.67,4-6.67,4h0l.91-.25-.08,0a10.79,10.79,0,0,1-2.51.59l-.46,0" fill="#161718"/><path id="path6188" d="M119.84,40.28c.45-.16,5.14-2,5-3,.1,1-4.56,2.85-5,3h0m5-3h0m0,0h0m0,0h0m0,0h0m0,0h0m0,0h0m0,0h0m0,0c0-.18-.35-.26-.81-.26h0c.47,0,.77.08.81.26m-2.58-.07h0M124,37h0" fill="#353f4b"/><path id="path6190" d="M115.84,41a29.59,29.59,0,0,0,4.41-1.66c.58-.27,1.16-.55,1.72-.88.3-.18.71-.44.8-.81s-.23-.43-.48-.5h.06A12,12,0,0,1,124,37h0c.46,0,.77.08.81.26h0c.1,1-4.59,2.86-5,3s-.83.17-1.25.24c-.92.15-1.83.37-2.75.48" fill="#161718"/><path id="path6192" d="M129.35,41.38h0m0,0a1.59,1.59,0,0,0-.73-.59,1.59,1.59,0,0,1,.73.59m-.73-.59h0m0,0h0m0,0h0m0,0h0m-.9-.29h0m0,0a11.22,11.22,0,0,0-1.42-.21h0a13.28,13.28,0,0,1,1.42.22" fill="#353f4b"/><path id="path6194" d="M122.74,43.72l-.87,0a30.23,30.23,0,0,0,3-.84c.64-.21,1.75-.37,2.15-1s0-1.27-.8-1.63a11.22,11.22,0,0,1,1.42.21h0a6,6,0,0,1,.9.28h.06a1.59,1.59,0,0,1,.73.59h0a.85.85,0,0,1,.13.43c0,1.53-5.33,1.75-5.5,1.81h0a1.48,1.48,0,0,0,.4,0c-.47,0-.95.07-1.43.08h-.21" fill="#161718"/><path id="path6196" d="M124.81,54.82l1.75-.88c1.07-.54,2.09-1.16,3.15-1.72.2-.1.59-.3,1-.55l-.65,1.07q-.78.27-1.53.57c-1,.38-1.93.81-2.89,1.22l-.85.29" fill="#161718"/><path id="path6198" d="M133.09,47.71a11.41,11.41,0,0,0-1.68-.59,11.41,11.41,0,0,1,1.68.59h0m-1.68-.59h0m-2.18-.33h0c1.1-.09,3.4-.41,3.46-1.62-.06,1.2-2.34,1.53-3.45,1.62m3.45-1.63h0m0,0h0m0,0h0m0,0h0m0,0h0m0,0h0m0,0h0m0,0h0m0,0h0m0,0h0m0,0h0m0,0h0m0,0h0m0,0v0m0,0h0m0,0h0m0,0a.75.75,0,0,0-.22-.27.75.75,0,0,1,.22.27m-.22-.27h0m0,0h0m0,0h0m0,0h0m0,0h0m0,0h0m0,0h0m0,0h0m0,0h0m-1.74-.56h0m0,0L130,44h0l.6.09" fill="#353f4b"/><path id="path6200" d="M126.89,49.53c.72-.26,1.42-.55,2.11-.85s1.72-.88.68-1.37a6.51,6.51,0,0,0-2.15-.41c-.35,0-.71,0-1.07,0-.52,0-1,0-1.55.06l-.76,0,.24-.05c1.12-.24,2.25-.49,3.35-.82a6.88,6.88,0,0,0,2.36-.85c.61-.5.42-1-.11-1.24l.6.09h0a5.47,5.47,0,0,1,1.74.55h.1a.75.75,0,0,1,.22.27h0v0h0c-.06,1.21-2.36,1.53-3.46,1.62h0a8.51,8.51,0,0,1,2.17.32h0a11.41,11.41,0,0,1,1.68.59c-.3.53-.62,1.06-.93,1.59a2.28,2.28,0,0,0-1.4-.33h-.11a13.56,13.56,0,0,0-2.38.27c-.46.08-.92.18-1.38.29" fill="#161718"/><path id="path6202" d="M85.82,21.72s.83-8.68.83-15.07c0,6.39-.83,15.07-.83,15.07l.11-.8h0l-.11.8M83.87,4.13C84.43,1.61,85,0,85.55,0a.32.32,0,0,1,.2.08.32.32,0,0,0-.2-.08C85,0,84.43,1.61,83.87,4.13" fill="#353f4b"/><path id="path6204" d="M85.35,24.33a151.74,151.74,0,0,0,.2-15.23c0-.76,0-1.51-.1-2.26a3,3,0,0,0-.6-1.93.53.53,0,0,0-.35-.16c-.41,0-.76.62-1,1.4.14-.72.28-1.4.42-2C84.43,1.61,85,0,85.55,0a.32.32,0,0,1,.2.08h0c.68.57.9,3.26.9,6.57,0,6.39-.83,15.07-.83,15.07l.11-.8a30,30,0,0,1-.58,3.41" fill="#161718"/><path id="path6206" d="M111.29,46.71l-.12,0,.12,0" fill="#e2dcc8"/><path id="path6208" d="M131.1,73.23c-.58.59-1,1.06-1,1.06s.4-.4,1-1.06" fill="#e2dcc8"/><path id="path6210" d="M126.15,66.61s8.26-7.43,6.85-11.14-9.34-.2-9.34-.2,2.62-1.6,2.49-3.45-8.23.28-9.24.55c.87-.23,7-1.89,6.81-3.08s-5.76-.58-5.76-.58c2.78-1.44,5.37-3.81,2.24-4.19-2.89-.36-8.1,1.83-8.91,2.19l-.12,0,.12,0c.94-.42,7.73-3.45,7.43-4.88s-4-.2-5.25.19l-.38.13.38-.13c.59-.22,1.65-.71,1.42-1.41-.33-1-5.58,1.48-5.58,1.48s5.83-3.66,4.49-4.49-7.63-.32-7.63-.32,2.5-1,3.08-2.56-5,1.09-5,1.09c5.19-4.74,3.53-5.12.58-4a33,33,0,0,0-6.46,3.64s4.8-4.35,3.71-5.44-5.51,2.37-5.51,2.37,3.59-4.29,1-4-5.44,2.88-5.44,2.88,3.46-5.12,1-4.87-5.19,5.38-5.19,5.38,1.29-8.64-.38-6.91S85,31.26,85,31.26s.52-9.09-1.41-7.17c-1,1-1.73,3.52-2.17,5.65,0,.31,0,.61.06.88.77,8.07,7.81,22.8,13.58,35.47A52.55,52.55,0,0,1,99.13,91.7s31.22-.54,31-.73,3-9,5.47-18.5c-.17-3.17-3-.79-4.52.76-.58.66-1,1.06-1,1.06s.4-.47,1-1.06c1.5-1.69,4.23-5.12,4.79-8.16.76-4.23-9.74,1.54-9.74,1.54" fill="#fef6ef"/><path id="path6212" d="M104.26,81.08a34.82,34.82,0,0,0,3.36-5.54c-1.35,1.65-5.31,3.71-5.43,3.71h0a9.78,9.78,0,0,0,2.18-4.33,10.48,10.48,0,0,0-.48-4c-.13-.47-.26-1-.41-1.43.63,3.31-2.51,9.22-2.58,9.22h0a23.93,23.93,0,0,0-.91-4,26,26,0,0,0-1.51-3.9C97.33,68.32,96,65.94,94.7,63.6c-1.08-1.93-2.18-3.87-3.41-5.72,1.26,2.77,2.53,5.54,3.75,8.21C89.29,53.46,82.28,38.8,81.47,30.71c0,.36.09.74.15,1.13a8.14,8.14,0,0,1,.82-2.29A31,31,0,0,0,83,33.47a66.44,66.44,0,0,0,2,6.91c.33,1,.79,2,1.2,3s.64,1.94,1.07,2.87c.89,2,1.75,4,2.62,6s2,3.92,3,5.93h0s-3.56-10-4.3-12.09a119.93,119.93,0,0,1-4-12c.44-1.35,1.12-2.86,2.46-3.48l.18.1c.12,1.27.21,2.56.23,3.84a11.9,11.9,0,0,1,.77-1.56,8.42,8.42,0,0,1,2.36-3.05l.17.07A11.81,11.81,0,0,1,91,32.51a11.56,11.56,0,0,1-.24,2.11l0,.11a9.48,9.48,0,0,1,5-3.17l.15.15a22.24,22.24,0,0,1-1.84,4.63,8.35,8.35,0,0,1,3.6-2.15l.15.15a12,12,0,0,1-1.26,3.33,9,9,0,0,1,4.81-1.73l.11.15A9.75,9.75,0,0,1,99.36,40a14.2,14.2,0,0,1,4-1.34,15.11,15.11,0,0,1,2.51-.22,12.62,12.62,0,0,1,1.51.09,7.31,7.31,0,0,1,2,.38c.25.1.6.24.7.52.21.65-.66,1.22-1.09,1.53-1.12.83-2.25,1.66-3.43,2.39-.63.38-1.25.74-1.89,1.09a15,15,0,0,1,3-.37H107l.08.21a19.51,19.51,0,0,1-1.82,1.44,21.64,21.64,0,0,1,2.71-1,6.76,6.76,0,0,1,1.84-.31,2.84,2.84,0,0,1,1.47.36l0,.16c-1.37,2-3.61,3.08-5.64,4.26a13.73,13.73,0,0,1-1.49.73l-.25.14a35.12,35.12,0,0,1,3.47-1.13,25.64,25.64,0,0,1,6.4-1.23,7.79,7.79,0,0,1,2.3.32l0,.2a29.73,29.73,0,0,1-6.69,5.21c1.88-.88,3.69-2.07,5.81-2.07h.08l.08.2a38.35,38.35,0,0,1-4.64,3.61c1.2-.35,2.42-.66,3.64-1a21.5,21.5,0,0,1,5-.83,7.07,7.07,0,0,1,3.1.64l0,.13c-.77,2.3-3.49,3.62-5.42,4.8l-1.61,1c.28-.11.57-.2.85-.29a11.47,11.47,0,0,1,3.43-.62,7,7,0,0,1,.8,0l.11.18a17.81,17.81,0,0,1-2.53,3.08,7.57,7.57,0,0,1,1.59-.71l.15.12a4.09,4.09,0,0,1-.75,2.11c-.52.9-1,1.81-1.57,2.67-1.2,1.8-2.6,3.44-4,5.11a58,58,0,0,1-9.45,9.48h0M84.18,32.72a32.54,32.54,0,0,1-.55-3.33,18.67,18.67,0,0,1,.55,3.33" fill="#e7ded6"/><path id="path6214" d="M81.47,30.71a.28.28,0,0,0,0-.09c0-.23,0-.49-.06-.75h0c0,.26,0,.52.06.75a.28.28,0,0,1,0,.09" fill="#e9eae9"/><path id="path6216" d="M99.33,88.87c0-.51,0-1.09,0-1.72h0A52,52,0,0,0,95,66.09h0c-1.22-2.67-2.49-5.44-3.75-8.21,1.23,1.85,2.33,3.79,3.41,5.72,1.32,2.34,2.63,4.72,3.78,7.15a26,26,0,0,1,1.51,3.9,23.93,23.93,0,0,1,.91,4h0c.07,0,3.21-5.91,2.58-9.22.15.48.28,1,.41,1.43a10.48,10.48,0,0,1,.48,4,9.78,9.78,0,0,1-2.18,4.33h0c.12,0,4.08-2.06,5.43-3.71a34.82,34.82,0,0,1-3.36,5.54h0a58,58,0,0,0,9.45-9.48c1.37-1.67,2.77-3.31,4-5.11.57-.86,1-1.77,1.57-2.67a4.09,4.09,0,0,0,.75-2.11l-.15-.12a7.57,7.57,0,0,0-1.59.71,17.81,17.81,0,0,0,2.53-3.08l-.11-.18a7,7,0,0,0-.8,0,11.47,11.47,0,0,0-3.43.62c-.28.09-.57.18-.85.29l1.61-1c1.93-1.18,4.65-2.5,5.42-4.8l0-.13a7.07,7.07,0,0,0-3.1-.64,21.5,21.5,0,0,0-5,.83c-1.22.31-2.44.62-3.64,1a38.35,38.35,0,0,0,4.64-3.61l-.08-.2h-.08c-2.12,0-3.93,1.19-5.81,2.07a29.73,29.73,0,0,0,6.69-5.21l0-.2a7.79,7.79,0,0,0-2.3-.32,25.64,25.64,0,0,0-6.4,1.23A35.12,35.12,0,0,0,103.94,50l.25-.14a13.73,13.73,0,0,0,1.49-.73c2-1.18,4.27-2.28,5.64-4.26l0-.16a2.84,2.84,0,0,0-1.47-.36,6.76,6.76,0,0,0-1.84.31,21.64,21.64,0,0,0-2.71,1,19.51,19.51,0,0,0,1.82-1.44l-.08-.21h-.39a15,15,0,0,0-3,.37c.64-.35,1.26-.71,1.89-1.09,1.18-.73,2.31-1.56,3.43-2.39.43-.31,1.3-.88,1.09-1.53-.1-.28-.45-.42-.7-.52a7.31,7.31,0,0,0-2-.38,12.62,12.62,0,0,0-1.51-.09,15.11,15.11,0,0,0-2.51.22,14.2,14.2,0,0,0-4,1.34,9.75,9.75,0,0,0,2.17-3.89l-.11-.15a9,9,0,0,0-4.81,1.73,12,12,0,0,0,1.26-3.33l-.15-.15a8.35,8.35,0,0,0-3.6,2.15A22.24,22.24,0,0,0,96,31.71l-.15-.15a9.48,9.48,0,0,0-5,3.17l0-.11A11.56,11.56,0,0,0,91,32.51a11.81,11.81,0,0,0-.37-2.57l-.17-.07a8.42,8.42,0,0,0-2.36,3.05,11.9,11.9,0,0,0-.77,1.56c0-1.28-.11-2.57-.23-3.84l-.18-.1c-1.34.62-2,2.13-2.46,3.48l-.18-.75-.12-.55a18.67,18.67,0,0,0-.55-3.33,28.86,28.86,0,0,1-.2-3.5l0-1.67.11-.13a.76.76,0,0,1,.49-.26c.83,0,1,2.81,1,5,0,1.35-.07,2.45-.07,2.45h0s.84-4.74,2.5-6.46a.58.58,0,0,1,.39-.23c.35,0,.47.79.46,1.86a45.68,45.68,0,0,1-.47,5.28h0s2.69-5.12,5.19-5.38h.17a.66.66,0,0,1,.74.74c0,1.37-1.87,4.14-1.87,4.14h0s2.82-2.62,5.44-2.88h.22c.54,0,.74.24.74.61,0,1.13-1.92,3.43-1.92,3.43h0s3.3-2.58,4.9-2.58a.83.83,0,0,1,.61.21.59.59,0,0,1,.16.43c0,1.5-3.87,5-3.87,5h0a33,33,0,0,1,6.46-3.64,6.66,6.66,0,0,1,2.1-.51c.42,0,.68.14.68.46,0,.6-.93,1.87-3.36,4.08h0s3.31-1.6,4.57-1.6c.29,0,.47.09.47.31a.58.58,0,0,1,0,.2c-.58,1.6-3.08,2.56-3.08,2.56h0s1.92-.15,3.86-.15a9.68,9.68,0,0,1,3.77.47.4.4,0,0,1,.2.34c0,1.21-4.69,4.15-4.69,4.15h0s3.67-1.7,5.06-1.7c.28,0,.46.06.52.22a.69.69,0,0,1,0,.2c0,.59-.92,1-1.45,1.21h0a15.69,15.69,0,0,1,4-.8c.69,0,1.21.16,1.3.61a.28.28,0,0,1,0,.09c0,1.47-6.52,4.38-7.44,4.79h0c.75-.33,5.27-2.23,8.23-2.23a5.07,5.07,0,0,1,.68,0c1,.12,1.43.45,1.43.9,0,.92-1.79,2.32-3.67,3.29h0a27.48,27.48,0,0,1,3-.19c1.34,0,2.66.16,2.78.77a.15.15,0,0,1,0,.07c0,1.18-6,2.78-6.82,3h0a38.42,38.42,0,0,1,7.44-1.25c1,0,1.77.18,1.8.7a.53.53,0,0,1,0,.13c0,1.8-2.5,3.32-2.5,3.32h0a19.25,19.25,0,0,1,5.78-1.5c-2,3.27-4.15,6.61-6.29,10.11-4.84,7.93-12,16.69-18.21,23.72a53.31,53.31,0,0,0-5.61,1.27M113.47,42l-.38.13h0l.38-.13h0M81.62,31.84c-.06-.39-.11-.77-.15-1.13a.28.28,0,0,0,0-.09c0-.27,0-.57-.06-.88a24.51,24.51,0,0,1,.93-3.41c0,1.08,0,2.15.11,3.22a8.14,8.14,0,0,0-.82,2.29" fill="#cfc7c1"/><path id="path6218" d="M113.47,42l-.38.13.38-.13" fill="#e2dcc8"/><path id="path6220" d="M178,106.11c-.26-.06,5.38-.32,6.66-2.5,0,0-5.51-.45-7-.64,0,0,5.31-1,6-2.3.28-.52-.77-.46-2.51-.4-2.43.09-6.19.18-9.49-1.33-5.67-2.59-15.75-7.49-35.73-10.28s-30.83-3-44.75,3.27-11.72,7.49-14.79,7-3.94-3.17-.87-6.34,13.26-13.25,12.2-20.74-3.36-9.8-8.16-11.24a9.55,9.55,0,0,1,3.93-.24,4.11,4.11,0,0,0-3.41-1,5.8,5.8,0,0,1,2.93-.67s-3.12-1.49-11.33-.82-10.8,3.27-11,5.71A4.83,4.83,0,0,1,60.65,61l.07-.18c.57-1.29-2.36,1.87-1.63,4.56a4.27,4.27,0,0,1-1-3s-1.17,1.74-.47,5.22c.81,4.08-2.65,7.6,9.12,16.29,1.35,1,2.83-1.44,2.83-1.44s2.16-.67.15,1.44-14.51,14.6-13,22.67a10,10,0,0,1,1.15-3.27,10.94,10.94,0,0,0,.58,5.38,10.15,10.15,0,0,1,.1-2.88s1,7.2,11,9.89,12.2,3,18.73,6.44c0,0,25,13.73,46.29,10.85s28.43-10.18,36.88-10.47c3.24-.11,5.87-.08,7.81,0,3.12,0,4.5.1,3.91-.43-1-.87-2.38-1-1.22-1.28s4.41-.32,2.82-.83a10.07,10.07,0,0,1-2.37-1s4,.13,2.68-.51-15-5.31-17.16-6.72c0,0,9-.51,8.27-1.22a3.66,3.66,0,0,0-2.18-.7s9.6-.45,11.91-2-7.81-1.48-8.07-1.54" fill="#fef6ef"/><path id="path6222" d="M60.55,63.57A5.4,5.4,0,0,1,60.43,62a5.81,5.81,0,0,0,.12,1.54h0" fill="#e9eae9"/><path id="path6224" d="M60.46,66.31A7.13,7.13,0,0,1,60,63.56a7.86,7.86,0,0,1,.82-3,.51.51,0,0,1-.07.28h0l-.07.18h0a3.66,3.66,0,0,0-.22,1,5.4,5.4,0,0,0,.12,1.54v.08a18.15,18.15,0,0,0-.08,2.66" fill="#e7ded6"/><path id="path6226" d="M178.59,106l.5-.06-.49.06h0" fill="#e9eae9"/><path id="path6228" d="M174.94,106.09h-.36a5.67,5.67,0,0,1-2.48-.45h.61a34.94,34.94,0,0,0,6.69-.72,17.85,17.85,0,0,0,4.78-1.35l.43,0h0c-.89,1.51-3.87,2.1-5.52,2.34l-.5.06-1.37,0c-.76,0-1.52,0-2.28,0" fill="#e7ded6"/><path id="path6230" d="M177.45,103.17a9.55,9.55,0,0,1-4.51-1,45.26,45.26,0,0,0,6.37-.44,10.49,10.49,0,0,0,4.26-1.27l0,.22h0c-.67,1.25-6,2.3-6,2.3h0l1.26.14c-.45,0-.91.06-1.36.06h0" fill="#e7ded6"/><path id="path6232" d="M70,115.73h0l-.31-.08-.47-.13.47.13.31.08m-.78-.21h0m-.08,0h0m117.22-8.16c.14-.26-.12-.46-.61-.62h0c.49.16.75.36.61.62m-7.19-7a18.24,18.24,0,0,1-7.58-1.38,18.27,18.27,0,0,0,7.58,1.38c.7,0,1.34,0,1.91,0s1.07,0,1.47,0h0c-.4,0-.9,0-1.47,0s-1.21,0-1.91,0m3.63-.08h0M75.32,98.69a2.58,2.58,0,0,1-1.59-3.62,2.59,2.59,0,0,0,1.58,3.62h0m-11.38-39h0m0,0h0m0,0a17,17,0,0,1,4.17-1.26A17,17,0,0,0,64,59.63m4.17-1.26h0m0,0h0m.12,0h0m.05,0h0m.06,0h0m0,0h0m0,0h0m.11,0h0m0,0h0m2.75-.34h0m.06,0h0" fill="#e9eae9"/><path id="path6234" d="M134.74,129.87c-10.09,0-20.66-2.83-28.4-9.46a12.77,12.77,0,0,0,4.46,5.31c.08.06.07.22-.06.22h0a23.44,23.44,0,0,1-9.24-2.67,16.15,16.15,0,0,1-6.6-5.62,16.84,16.84,0,0,0,1.21,3.26l-.16.16a14,14,0,0,1-6.83-10.68,2.44,2.44,0,0,1,.1-.24l.22,0a10,10,0,0,0,1.66,4.16h0a22.09,22.09,0,0,0-.54-3.22.12.12,0,0,1,.12-.15.12.12,0,0,1,.11.09c.51,1.46,2.14,2.28,3.49,2.81a22.2,22.2,0,0,0,4.38,1.2c1.56.26,3.15.49,4.72.63.69.06,1.44.12,2.18.12a10.93,10.93,0,0,0,1.15-.06,9.11,9.11,0,0,0-2.64-3.74l0-.15.32-.1h.11c1,.21,2,.49,2.94.64a12.38,12.38,0,0,0,1.92.12l1.37,0a15.21,15.21,0,0,0,5.84-.82c-1.19-.6-2.51-.87-3.51-1.81,0,0,0,0,.06,0,.6,0,6,.56,8.8.58.61,0,1.23,0,1.85,0l.91,0a7.83,7.83,0,0,0,2.07-.29,10.08,10.08,0,0,1-3.53-2h0c.1,0,1.28.31,2.73.62a23.17,23.17,0,0,0,4.34.63h.09c2.32,0,4.6-.36,6.9-.61,4.64-.51,9.83-1.37,13.63-4.28a28.08,28.08,0,0,0-3.51-1,44.42,44.42,0,0,0,11.93-3.35,23,23,0,0,0,3.85-2.16,5.48,5.48,0,0,0,1.88-2c2.7,1.09,4.83,2.09,6.55,2.88h0a18.24,18.24,0,0,0,7.58,1.38c.7,0,1.34,0,1.91,0s1.07,0,1.47,0h.56a10.59,10.59,0,0,1-3.6.54c-1.37,0-2.75-.16-4.05-.26a27.14,27.14,0,0,1-5.31-.8c-1.73-.48-3.38-1.2-5.08-1.74h0a.12.12,0,0,0-.08.21,8.07,8.07,0,0,0,1.6,1.39c-1.07-.23-2.14-.45-3.21-.64l-.14.18c.79,1.66,2.6,2,4.24,2.58a24.57,24.57,0,0,0-3.64-.27,24.3,24.3,0,0,0-3.82.3c-1.52.24-3,.6-4.52.94a13.53,13.53,0,0,0-3.63,1.12l0,.19a3.49,3.49,0,0,0,2.14.89c.9.15,1.8.17,2.7.28,1.43.16,2.87.26,4.31.29h.26c.53,0,1,0,1.58-.07s1.06-.07,1.58-.07h.35a20.24,20.24,0,0,1-4.09.78c-1.91.33-3.81.74-5.73,1l-.05.2a7,7,0,0,0,3.13,1.09c1.47.25,2.91.56,4.38.76a30.48,30.48,0,0,0,3.92.26,30.13,30.13,0,0,0,6.19-.65l0-.22a10.74,10.74,0,0,0-3.15-.85,39.62,39.62,0,0,0,4.22.21c1.89,0,3.79-.1,5.69-.23a26.29,26.29,0,0,0,6.49-1c.49.16.75.36.61.62a.66.66,0,0,1-.23.25c.18-.14.27-.27.27-.38a2.7,2.7,0,0,1-.71.48,14,14,0,0,1-5.09,1.07c-3,.31-6,.59-9,.74a10.6,10.6,0,0,1,2.47.79c.1,0-8.52.61-10.27.62h-.4c-1.64,0-3.3,0-4.95-.19l.5.12c2.44.58,4.88,1.19,7.31,1.85a96.19,96.19,0,0,1,12.07,4.8,11.36,11.36,0,0,1-2.33.22c-.51,0-1,0-1.53-.06a15.87,15.87,0,0,1,4,1.22c.11,0-8.75.88-13,1.69q.62,0,1.23,0a17.63,17.63,0,0,1,2.51.16c.12,0-11.73,4.27-17.61,6.29a51.22,51.22,0,0,1-15.6,2.88h-1.17m-46.36-7.78c-5.28-2.8-7.67-3.52-13.73-5.12,6,1.6,8.45,2.32,13.73,5.12m-2.8-2.68h0c-2-.68-3.71-1.78-5.72-2.33a38.2,38.2,0,0,0-6.19-1.18c-1.19-.11-2.44-.12-3.67-.17l-.31-.08-.47-.13h-.1a20,20,0,0,1-3-1.15,4.36,4.36,0,0,0,1-.17l0-.2a15.4,15.4,0,0,1-3.65-4.72,10.64,10.64,0,0,1-.83-2.56,13.71,13.71,0,0,0,1.51,2.1A8.93,8.93,0,0,0,70.43,112h0c.13,0,.14-.15,0-.22a12.94,12.94,0,0,1-2-1.82c.14.08.27.17.41.24a12.33,12.33,0,0,0,5.49,1.32l.11-.17c-1.29-1.72-3.26-2.92-4.42-4.69a9.87,9.87,0,0,0,2.41,1.44l.16-.16c-.74-1.37-1.6-2.66-2.27-4.06a13.54,13.54,0,0,1-1.13-5.4A13.88,13.88,0,0,1,72,89.38l-.1-.18c-1.9.1-3.09,1.61-4.43,2.8a12.86,12.86,0,0,1,4-4.39.12.12,0,0,0-.07-.22h0a13.42,13.42,0,0,0-6,3,37.05,37.05,0,0,0,4.81-6.06,15.67,15.67,0,0,0,1-1.82c.33,0,.67,0,1,0a11.65,11.65,0,0,0,7.49-3,4.22,4.22,0,0,0,1.06-3.71,5.89,5.89,0,0,0-1-2.31l-.09-.09a4.05,4.05,0,0,1,1.36.86l.25-.28a6.25,6.25,0,0,0-1.53-2.6,2.76,2.76,0,0,0-1.12-.73,8.68,8.68,0,0,1,2,.5l.23-.19a2.63,2.63,0,0,0-.94-1.13,5.64,5.64,0,0,0-1.33-.63c2.36.45,4.41,1.79,4.41,4.48l.2.08c3.27-3.2-1.32-8-5-8.15a5.94,5.94,0,0,1,2.69-.61,5.67,5.67,0,0,1,1.91.31l.12-.2a12.32,12.32,0,0,0-8-2.72,14.05,14.05,0,0,0-3.11.35A11.33,11.33,0,0,1,75,60.63L75,60.41l-.47,0a9,9,0,0,0-2.7.57A5.76,5.76,0,0,1,75,59.37a1.56,1.56,0,0,1,.31,0h0c.11,0,.2-.15.07-.22a8.13,8.13,0,0,0-3.76-.8,21.86,21.86,0,0,0-3.76.41,12.85,12.85,0,0,0-6.27,2.63l.17-.28a7.6,7.6,0,0,1,2.17-1.48H64a17,17,0,0,1,4.17-1.26h.53c.84-.14,1.76-.25,2.75-.34h.13c1.52-.12,2.86-.17,4-.17,5.22,0,7.29,1,7.29,1a1.94,1.94,0,0,0-.34,0,6.17,6.17,0,0,0-2.59.69h0a5.14,5.14,0,0,1,.66-.05,3.94,3.94,0,0,1,2.75,1,6.21,6.21,0,0,0-1.29-.13,10.59,10.59,0,0,0-2.64.37h0c4.8,1.44,7.1,3.74,8.16,11.24A8.05,8.05,0,0,1,87.69,73c0,7.34-9.36,16.62-12.28,19.63h0a7.57,7.57,0,0,0-1.68,2.47,2.58,2.58,0,0,0,1.59,3.62,6.51,6.51,0,0,0,1.26.73,5.37,5.37,0,0,0,2.12.51,3.71,3.71,0,0,0,.47,0,7.4,7.4,0,0,0,2.64-1,20.5,20.5,0,0,1-4,3,.12.12,0,0,0,.07.22h0c3.08-.49,6.56-1,9.07-3-.59.68-1.21,1.34-1.78,2a.12.12,0,0,0,.08.2h0c3-1,5.49-3,7.83-5s5-3.79,6.66-6.42l-.07-.18a5,5,0,0,0-1.5-.22,7.72,7.72,0,0,0-1.72.22,52.12,52.12,0,0,1,8.46-2.18h0c-.8.13-1.6.29-2.4.46.26.83-.73,1.7-1.23,2.23-1,1.07-1.91,2.25-2.87,3.38-1.93,2.25-3.94,4.41-5.92,6.62A27.89,27.89,0,0,0,89,105,12.13,12.13,0,0,0,86.5,110a8.51,8.51,0,0,0,.24,4.64,15.2,15.2,0,0,0,2.2,3.75l-.14.18a28.59,28.59,0,0,1-8-3.62c1.36,1.69,3.51,2.56,4.9,4.22.06.07,0,.2-.07.2M186,107.65h0m.06-.05h0M60.7,94.74c.07-.11.14-.22.22-.33l.42-.32c-.22.21-.43.43-.64.65m10.59-12.4a3.41,3.41,0,0,0,.24-.77h0c0-.1,0-.21,0-.31h0c0-2.31-4.08-4.27-5.57-4.91,4.13-1.29,7.8-4.13,5.87-8.9a5.47,5.47,0,0,0-5.3-3.22,6.73,6.73,0,0,0-1,.07A5.75,5.75,0,0,1,67,63.91a4,4,0,0,1,.6,0A5.67,5.67,0,0,1,70.92,65c3.25,2.36,3,7-.08,10.3-.63.51-2.1,1.53-2,1.57a11,11,0,0,1,2.78,1.71,5,5,0,0,1,1.05,3.12l.15.08c2.32-.44,5.21-1.36,6.6-3.42a3.32,3.32,0,0,0-.17-3.74,4.11,4.11,0,0,0-1.62-1.33,16.07,16.07,0,0,0-1.81-.48,8.73,8.73,0,0,1,2.32-.38,4.4,4.4,0,0,1,.62,0l.1-.18a3.64,3.64,0,0,0-2.41-1.59,5.3,5.3,0,0,1,1.7-.34,3,3,0,0,1,.87.13h0a.13.13,0,0,0,.06-.23,9.79,9.79,0,0,0-2.89-1.07h.41a10.14,10.14,0,0,1,1.23.07h0a4.41,4.41,0,0,0-.81.13,5.32,5.32,0,0,1,3.12,1.31l.24.19a1.65,1.65,0,0,0-.58-.21,2.94,2.94,0,0,0-.51,0,6.85,6.85,0,0,0-1.1.12c-.08,0-.31.28-.17.31a4.2,4.2,0,0,1,2.67,2.6,2.47,2.47,0,0,0-.54-.34,3.12,3.12,0,0,0-1.2-.3l-.21.3a4.94,4.94,0,0,1,1.74,3.42c.32,2.63-2.43,4-4.49,4.66a14.86,14.86,0,0,1-3.45.69l-.51.12-.72.17" fill="#e7ded6"/><path id="path6236" d="M74.65,117,70,115.73h0L74.65,117" fill="#e9eae9"/><path id="path6238" d="M186,107.64l.05,0-.05,0m.06,0h0" fill="#e7ded6"/><path id="path6240" d="M128.52,133.33c-19.69,0-40.14-11.24-40.14-11.24h0c-5.28-2.8-7.68-3.52-13.73-5.12L70,115.73c1.23,0,2.48.06,3.67.17a38.2,38.2,0,0,1,6.19,1.18c2,.55,3.76,1.65,5.72,2.33h0c.09,0,.13-.13.07-.2-1.39-1.66-3.54-2.53-4.9-4.22a28.59,28.59,0,0,0,8,3.62l.14-.18a15.2,15.2,0,0,1-2.2-3.75A8.51,8.51,0,0,1,86.5,110,12.13,12.13,0,0,1,89,105a11.38,11.38,0,0,0-1,2.19,8.5,8.5,0,0,0,1,7.43,8,8,0,0,1,.12-4.18,14,14,0,0,0,6.83,10.68l.16-.16a16.84,16.84,0,0,1-1.21-3.26,16.15,16.15,0,0,0,6.6,5.62,23.44,23.44,0,0,0,9.24,2.67h0c.13,0,.14-.16.06-.22a12.77,12.77,0,0,1-4.46-5.31c7.74,6.63,18.31,9.46,28.4,9.46h1.17a51.22,51.22,0,0,0,15.6-2.88c5.88-2,17.73-6.28,17.61-6.29a17.63,17.63,0,0,0-2.51-.16q-.62,0-1.23,0c4.29-.81,13.15-1.64,13-1.69a15.87,15.87,0,0,0-4-1.22c.51,0,1,.06,1.53.06a11.36,11.36,0,0,0,2.33-.22,96.19,96.19,0,0,0-12.07-4.8c-2.43-.66-4.87-1.27-7.31-1.85l-.5-.12c1.65.15,3.31.19,4.95.19h.4c1.75,0,10.37-.59,10.27-.62a10.6,10.6,0,0,0-2.47-.79c3-.15,6-.43,9-.74a14,14,0,0,0,5.09-1.07,2.7,2.7,0,0,0,.71-.48c0,.11-.09.24-.27.38h0l-.05,0h0c-2.31,1.6-11.91,2-11.91,2h0a3.66,3.66,0,0,1,2.18.7s0,0,0,.08c0,.66-8.31,1.14-8.31,1.14h0c2.12,1.41,15.88,6.08,17.16,6.72.18.09.26.16.26.23,0,.25-1.32.29-2.19.29h-.75a10.07,10.07,0,0,0,2.37,1c.3.09.43.18.43.25,0,.29-2.32.37-3.25.58-.31.07-.43.13-.43.2h0c0,.19.94.44,1.65,1.08a.32.32,0,0,1,.13.2c0,.21-.59.26-1.74.26l-2.3,0c-.92,0-2,0-3.2,0s-2.9,0-4.61.08c-8.45.29-15.56,7.59-36.88,10.47a46.59,46.59,0,0,1-6.15.39" fill="#cfc7c1"/><path id="path6242" d="M165,96.06c-.84-.34-1.74-.69-2.69-1h0c1,.36,1.85.71,2.69,1h0" fill="#d7d7d7"/><path id="path6244" d="M105.55,115.82c-.74,0-1.49-.06-2.18-.12-1.57-.14-3.16-.37-4.72-.63a22.2,22.2,0,0,1-4.38-1.2c-1.35-.53-3-1.35-3.49-2.81a.12.12,0,0,0-.11-.09.12.12,0,0,0-.12.15,22.09,22.09,0,0,1,.54,3.22,10,10,0,0,1-1.66-4.16l-.22,0a2.44,2.44,0,0,0-.1.24A10.43,10.43,0,0,1,91,103,10.37,10.37,0,0,0,89,105a27.89,27.89,0,0,1,3.55-4.65c2-2.21,4-4.37,5.92-6.62,1-1.13,1.85-2.31,2.87-3.38.5-.53,1.49-1.4,1.23-2.23.8-.17,1.6-.33,2.4-.46-3.66,4.13-7,7.66-9.45,10.08-6.52,6.52-6,9.31-6,9.32h0a25.85,25.85,0,0,0,7.59,1.92h0l.56,0h0c1.16,0,1.52-.32,1.52-.72,0-.63-.88-1.44-1-1.51h0a31.12,31.12,0,0,0,5.76,1.73h.07c.26,0,.37-.11.37-.28,0-.78-2.21-2.94-2.26-3h0l0,0,0,0h0l0,0h0l0,0h0l0,0,.08,0,0,0h0a16.13,16.13,0,0,0,3.27,1.42h0l.07,0h0l0,0h0a25.33,25.33,0,0,0,6.51,1.28h0a4.27,4.27,0,0,0,.54,0h0c.49-.07.67-.25.67-.47h0c0-.63-1.54-1.64-1.54-1.64l.09,0a18.72,18.72,0,0,0,5.63,1.09h.16c.79,0,1.3-.11,1.3-.33s-.17-.3-.55-.5h0a22,22,0,0,1-2.88-1.73h0c3.69,1.38,8.66,1.85,13.49,1.86h0a68.88,68.88,0,0,0,15.33-1.58h.15l.34-.11h.06c.79-.31,1.07-.57,1.07-.78h0c0-.55-2-.76-2-.76,5.18-1,17.29-4.7,18.24-6.24l0,0h0c.31-.53-.13-.7-.81-.7h0a16.78,16.78,0,0,0-3.25.54s1.66-.73,3.73-1.72c.95.36,1.85.71,2.69,1a5.48,5.48,0,0,1-1.88,2,23,23,0,0,1-3.85,2.16,44.42,44.42,0,0,1-11.93,3.35,28.08,28.08,0,0,1,3.51,1c-3.8,2.91-9,3.77-13.63,4.28-2.3.25-4.58.57-6.9.61h-.09a23.17,23.17,0,0,1-4.34-.63c-1.45-.31-2.63-.62-2.73-.62h0a10.08,10.08,0,0,0,3.53,2,7.83,7.83,0,0,1-2.07.29l-.91,0c-.62,0-1.24,0-1.85,0-2.76,0-8.2-.58-8.8-.58,0,0-.06,0-.06,0,1,.94,2.32,1.21,3.51,1.81a15.21,15.21,0,0,1-5.84.82l-1.37,0a12.38,12.38,0,0,1-1.92-.12c-1-.15-2-.43-2.94-.64h-.11l-.32.1,0,.15a9.11,9.11,0,0,1,2.64,3.74,10.93,10.93,0,0,1-1.15.06" fill="#beb7b1"/><path id="path6246" d="M89,114.57a8.5,8.5,0,0,1-1-7.43A11.38,11.38,0,0,1,89,105,10.37,10.37,0,0,1,91,103a10.43,10.43,0,0,0-1.93,7.39,8,8,0,0,0-.12,4.18" fill="#aaa6a1"/><path id="path6248" d="M58.9,65.12a4.07,4.07,0,0,1-.78-2.77h0a4.07,4.07,0,0,0,.78,2.77h0" fill="#e9eae9"/><path id="path6250" d="M59.34,66.57l-.58-.1A4.89,4.89,0,0,1,58,62.53l.09-.18a4.07,4.07,0,0,0,.78,2.77,4.78,4.78,0,0,0,.44,1.45" fill="#e7ded6"/><path id="path6252" d="M58.28,71.54a26.43,26.43,0,0,1,3.65-5.45c2.36-2.69,8.3-2.68,9.93,1.35,2.21,5.47-2.93,8.4-7.69,9.36-5,1-10.21.16-5.89-5.26" fill="#f8a30e"/><path id="path6254" d="M65.67,74.92l-.56-.28c.88-.07,1.73-1.2,2-2.69.28-1.65-.27-3.12-1.23-3.28l-.18,0c-.91,0-1.82,1.15-2.08,2.7a3.46,3.46,0,0,0,.61,3,3,3,0,0,0-.74-.1,2.7,2.7,0,0,0-.48,0l-.15-.12c0-1.56.51-3.07.6-4.62a3.8,3.8,0,0,0-.38-2.28,1.37,1.37,0,0,0-.15-.21,6.22,6.22,0,0,1,3.87-1.45,6,6,0,0,1,1.1.11c3.62.73,2.66,5.53.38,7.23-.25.19,1.59.91,1.52,1a16.48,16.48,0,0,0-4.12,1" fill="#f9cd26"/><path id="path6256" d="M79.71,71.49a2.76,2.76,0,0,0-1.12-.73,8.68,8.68,0,0,1,2,.5l.23-.19a2.63,2.63,0,0,0-.94-1.13,4,4,0,0,0-2-.72,4.41,4.41,0,0,0-.81.13,5.32,5.32,0,0,1,3.12,1.31l.24.19a1.65,1.65,0,0,0-.58-.21,4.6,4.6,0,0,0-1.61.07c-.08,0-.31.28-.17.31a4.2,4.2,0,0,1,2.67,2.6,2.47,2.47,0,0,0-.54-.34,3.12,3.12,0,0,0-1.2-.3l-.21.3a4.94,4.94,0,0,1,1.74,3.42c.32,2.63-2.43,4-4.49,4.66a14.86,14.86,0,0,1-3.45.69l-.51.12c-.46.1-.91.23-1.36.31l.25,0c.43,0,.87.07,1.3.08a11.65,11.65,0,0,0,7.49-3,4.22,4.22,0,0,0,1.06-3.71,5.89,5.89,0,0,0-1-2.31l-.09-.09a4.05,4.05,0,0,1,1.36.86l.25-.28a6.25,6.25,0,0,0-1.53-2.6" fill="#bdbdaa"/><path id="path6258" d="M74.42,100.45a5.68,5.68,0,0,1-.3-6.06l-.09,0c-1.34,1.74-1.85,4.79.26,6.25l.13-.15" fill="#bdbdaa"/><path id="path6260" d="M89.53,107s-.58-2.79,6-9.32,20-21.22,27.67-33.81,15.17-23,18.44-35.82,5.28-18,6.14-15.27-1.34,21-4.51,29.77c0,0,6.72-12.29,10.85-21.41S160.21,9.81,160.5,14,152,37.76,152,37.76s13.55-17.67,15.28-17.48-3.08,10.47-11.53,19c0,0,17.87-12.2,22.09-12.78s-7.49,12.11-13.54,16.71c0,0,15.75-8.35,18.25-7.48s-7.21,9.5-12.68,13.44c0,0,11.52-6.34,14.31-5.38s-12.68,10-13.06,10,14.79-5.67,15.84-2.59-16.52,13.06-20.84,14.88c0,0,18-6.24,21.32-4.89s-13,8.16-13,8.16,11.52-3.17,11-1-17.76,7.87-17.76,7.87,15.07-2.59,13.54.58-15.37,6.05-15.37,6.05,13.83-3,11.81.1-16.61,8.74-16.61,8.74S170.3,89,170.2,90.3s-11.62,6.43-11.62,6.43,5-1.34,4,.19-13.06,5.29-18.24,6.24c0,0,3.84.39,1,1.54s-20.17,3.36-29.39-.09a22,22,0,0,0,2.88,1.73c2.31,1.24-3.17,1-6.63-.29,0,0,2.79,1.82.87,2.11s-8.55-1.25-10.85-3c0,0,3.45,3.36,1.82,3.27a31.12,31.12,0,0,1-5.76-1.73s2.78,2.5-1.15,2.21A25.85,25.85,0,0,1,89.53,107" fill="#fef6ef"/><path id="path6262" d="M138.56,36.94a62.47,62.47,0,0,0,2.39-6.6h0a64.78,64.78,0,0,1-2.39,6.6h0" fill="#e9eae9"/><path id="path6264" d="M97.12,108.93A25.85,25.85,0,0,1,89.53,107h0s-.33-1.65,2.45-5.35a2.07,2.07,0,0,0,.5.06c1.44,0,3.3-1.17,4.22-1.77a52.36,52.36,0,0,0,8.73-7.48A27,27,0,0,0,108,89.69a15.33,15.33,0,0,1-2.63,4.74.12.12,0,0,0,.08.21.1.1,0,0,0,.08,0C116,86.23,123.77,74.81,130,63.08a117.36,117.36,0,0,0,7.1-16.36c.6-1.74,1.33-3.43,1.85-5.2.4-1.39,1-3.46.07-4.77l-.18,0-.24.21a64.78,64.78,0,0,0,2.39-6.6,10,10,0,0,1,.71-.9l.07,0c-.19.65-.37,1.31-.53,2-.35,1.44-1,2.81-1.3,4.26,0,0,0,.07,0,.07a.35.35,0,0,0,.2-.16,44,44,0,0,0,2-5.19,13.06,13.06,0,0,1-.39,5.73c-.56,2.41-1.31,4.8-2,7.17a103.73,103.73,0,0,1-7.14,17.64,149.65,149.65,0,0,1-11.87,18.62c-.45.61-.89,1.23-1.33,1.85a14,14,0,0,1-1.89,3.07c-1,1.27-2,2.52-3.06,3.73a49.53,49.53,0,0,1-3.54,4.08c.73-.56,1.44-1.15,2.14-1.76a61.25,61.25,0,0,0,7.48-8.12,158.75,158.75,0,0,0,12.54-18.62c1.9-3.27,3.73-6.57,5.64-9.82.69-1.18,1.45-2.32,2.07-3.54.39-.76.79-1.52,1.2-2.26.52-.93,1.06-1.86,1.67-2.74a6.41,6.41,0,0,1,1.51-1.73,1,1,0,0,1,.52-.18.65.65,0,0,1,.47.2l0,0,.1,0h0a1.44,1.44,0,0,1,.3.71,7.9,7.9,0,0,1-.49,3.23,41.68,41.68,0,0,1-1.78,4.75c-.07.16-.14.33-.22.49a26.49,26.49,0,0,1,6.13-6.58l.18.1a11,11,0,0,1-1.53,5.76C148,54,147,55.73,146,57.44c-.22.39-.45.77-.67,1.15a9.77,9.77,0,0,1,3.84-2.3l.15.08a4,4,0,0,1-.58,2.48c-.48.91-1,1.82-1.54,2.69-.38.61-.78,1.21-1.2,1.79l.17-.15c1.06-.91,2.15-1.77,3.18-2.71a21.41,21.41,0,0,1,2.87-2.34,5.06,5.06,0,0,1,2.64-1h.08l.12.12a5,5,0,0,1-1,2.86c-.62,1-1.26,2-2,2.9a69.11,69.11,0,0,1-4.47,5.37,44.74,44.74,0,0,1,4-2.53c2.3-1.29,4.42-3.05,6.91-4a5.52,5.52,0,0,1,1.9-.45,1.9,1.9,0,0,1,.83.17,1,1,0,0,1,.34,1.35,14.94,14.94,0,0,1-3.08,4c-.72.81-1.48,1.57-2.25,2.32A9.25,9.25,0,0,1,159.8,68l.12.12a3.58,3.58,0,0,1-.4,1.87c-1,2.12-3,3.73-4.86,5.15l-3.11,2.36a31.26,31.26,0,0,1,7-2.57l.14.18c-1.08,1.65-2.92,2.68-4.59,3.66s-3.13,1.91-4.69,2.87a14.23,14.23,0,0,1,4.53-.88l.58,0,.09.2a28.74,28.74,0,0,1-6.77,4.32c-2.49,1.21-5,2.33-7.62,3.31-.91.35-1.82.68-2.74,1a33.64,33.64,0,0,1,7.38-1.08c.27,0,.55,0,.82,0l.12.15a2.46,2.46,0,0,1-.14.38c-.82,1.79-3.1,2.77-4.8,3.49-2.07.87-4.23,1.5-6.37,2.16q-2.65.83-5.34,1.46c.38-.06.77-.12,1.15-.2a25.56,25.56,0,0,1,4.52-.52h.47l.1.18c-1.22,2-3.5,3.16-5.66,3.88a46,46,0,0,1-7.87,1.61c-2.11.31-4.23.58-6.34.78a20.58,20.58,0,0,1,3.82,1.33l0,.22a14,14,0,0,1-4,.54,20.47,20.47,0,0,1-2.82-.21,5.07,5.07,0,0,1,1.07,1.23l-.07.18a5,5,0,0,1-1.21.13,11.79,11.79,0,0,1-1.69-.15l-.89-.14a.79.79,0,0,1,.27.59c0,.4-.58.57-.9.6h-.33a7.78,7.78,0,0,1-2.42-.53l-2.69-.85a18.49,18.49,0,0,1-2.29-.85,3.74,3.74,0,0,1,.73,1.26c.3,1-.23,1.37-1,1.37a2.62,2.62,0,0,1-.54-.06,17.09,17.09,0,0,1-4.6-1.86,6.67,6.67,0,0,1,1,1.4c.42.79.94,1.94.08,2.62l-.23.15.29,0" fill="#e7ded6"/><path id="path6266" d="M141,30.35c.23-.76.44-1.52.64-2.29-.2.77-.41,1.53-.64,2.28h0" fill="#e9eae9"/><path id="path6268" d="M177.69,83l0,0,0,0m0,0h0M141,30.34c.23-.75.44-1.51.64-2.28h0q-.3,1.15-.63,2.28h0m.67-2.4,0-.13,0,.13m3.88-13.25h0m0,0c.59-1.5,1.08-2.35,1.48-2.56-.39.2-.88,1-1.46,2.51,0,0,0,0,0,.05M147,12.11l0,0,0,0m0,0,.05,0-.05,0m.05,0h0m.08,0h0" fill="#d1d2d3"/><path id="path6270" d="M97.71,109h0m0,0c3,0,.69-2.11.57-2.23.07.07.94.88,1,1.51,0,.4-.36.72-1.52.72m-.57,0h0m7-.48h0c1.45,0-1.83-3.2-1.89-3.27s2.26,2.21,2.26,3c0,.17-.11.28-.37.28m8.4-.26a25.33,25.33,0,0,1-6.51-1.28,25.33,25.33,0,0,0,6.51,1.28h0m0,0a4.27,4.27,0,0,0,.54,0,4.27,4.27,0,0,1-.54,0m5.57-1h0m0,0c1.24,0,1.8-.27.75-.83.38.2.55.37.55.5s-.51.33-1.3.33M106,106.91l0,0,0,0m0,0-.07,0,.07,0m-.07,0h0m6.41-.79-.09,0h0l.09,0m-9.68-.63h0m-.07,0-.08,0,.08,0m-.11-.07h0m0,0,0,0,0,0m-.06,0h0m0,0,0,0,0,0m0,0,0,0,0,0" fill="#979493"/><path id="path6272" d="M97.71,109h0l-.56,0h0l-.29,0,.23-.15c.86-.68.34-1.83-.08-2.62a6.67,6.67,0,0,0-1-1.4,17.09,17.09,0,0,0,4.6,1.86,2.62,2.62,0,0,0,.54.06c.75,0,1.28-.4,1-1.37a3.74,3.74,0,0,0-.73-1.26,18.49,18.49,0,0,0,2.29.85l2.69.85a7.78,7.78,0,0,0,2.42.53h.33c.32,0,.89-.2.9-.6a.79.79,0,0,0-.27-.59l.89.14a11.79,11.79,0,0,0,1.69.15,5,5,0,0,0,1.21-.13l.07-.18a5.07,5.07,0,0,0-1.07-1.23,20.47,20.47,0,0,0,2.82.21,14,14,0,0,0,4-.54l0-.22a20.58,20.58,0,0,0-3.82-1.33c2.11-.2,4.23-.47,6.34-.78a46,46,0,0,0,7.87-1.61c2.16-.72,4.44-1.86,5.66-3.88l-.1-.18h-.47a25.56,25.56,0,0,0-4.52.52c-.38.08-.77.14-1.15.2q2.69-.63,5.34-1.46c2.14-.66,4.3-1.29,6.37-2.16,1.7-.72,4-1.7,4.8-3.49a2.46,2.46,0,0,0,.14-.38l-.12-.15c-.27,0-.55,0-.82,0a33.64,33.64,0,0,0-7.38,1.08c.92-.32,1.83-.65,2.74-1,2.6-1,5.13-2.1,7.62-3.31A28.74,28.74,0,0,0,154.63,81l-.09-.2-.58,0a14.23,14.23,0,0,0-4.53.88c1.56-1,3.11-2,4.69-2.87s3.51-2,4.59-3.66l-.14-.18a31.26,31.26,0,0,0-7,2.57l3.11-2.36c1.82-1.42,3.83-3,4.86-5.15a3.58,3.58,0,0,0,.4-1.87L159.8,68a9.25,9.25,0,0,0-3.56,1.28c.77-.75,1.53-1.51,2.25-2.32a14.94,14.94,0,0,0,3.08-4,1,1,0,0,0-.34-1.35,1.9,1.9,0,0,0-.83-.17,5.52,5.52,0,0,0-1.9.45c-2.49.94-4.61,2.7-6.91,4a44.74,44.74,0,0,0-4,2.53A69.11,69.11,0,0,0,152.07,63c.69-.94,1.33-1.92,2-2.9a5,5,0,0,0,1-2.86l-.12-.12h-.08a5.06,5.06,0,0,0-2.64,1,21.41,21.41,0,0,0-2.87,2.34c-1,.94-2.12,1.8-3.18,2.71l-.17.15c.42-.58.82-1.18,1.2-1.79.55-.87,1.06-1.78,1.54-2.69a4,4,0,0,0,.58-2.48l-.15-.08a9.77,9.77,0,0,0-3.84,2.3c.22-.38.45-.76.67-1.15,1-1.71,2-3.43,2.87-5.19a11,11,0,0,0,1.53-5.76l-.18-.1A26.49,26.49,0,0,0,144.05,53c.08-.16.15-.33.22-.49a41.68,41.68,0,0,0,1.78-4.75,7.9,7.9,0,0,0,.49-3.23,1.44,1.44,0,0,0-.3-.71c.86-1.08,1.7-2.18,2.66-3.19l.48-.46a.74.74,0,0,1,.58-.4c.33,0,.68.33,1.06,1a14.09,14.09,0,0,1-1,2.92,34.68,34.68,0,0,1-2.94,5.26,8.53,8.53,0,0,1,1-1c.53-.82,1-1.67,1.51-2.53.36-.67.74-1.38,1.07-2.1a5,5,0,0,1,.42-.5,7,7,0,0,1,2.45-2.44.86.86,0,0,1,.38-.1c.56,0,.73.77.6,1.3a10.58,10.58,0,0,1-.38,1.21L154,43l-.21.51c-.77,1.47-1.66,2.83-1.66,2.83s.18-.23.48-.58c0,0,0,0,0,0l0-.06c1.07-1.25,3.58-4,5.08-4a.86.86,0,0,1,.36.07c1.83.67-5.57,11.33-6.91,13.25,0,0,1.32-1.44,3.18-3.32h0c1.48-1.48,3.29-3.24,5-4.76l-.26.3c-.3.52-.59,1-.87,1.58.34-.39.66-.79,1-1.1S163.37,44,164.36,44a.21.21,0,0,1,.24.2c.25,1.81-1.71,4.6-2.61,6a32.12,32.12,0,0,1-3.46,4.49,18,18,0,0,0,2.21-2.25,19.84,19.84,0,0,1,1.61-1.8l.12-.17h.09a3.75,3.75,0,0,1,.51-.38.24.24,0,0,1,.16-.05.36.36,0,0,1,.3.17c.53.79-.1,2-.86,3A17.63,17.63,0,0,1,161,55.32l-.08.09a37.29,37.29,0,0,1-2.54,2.93l.34-.25c-.83.84-1.66,1.64-2.44,2.34l7.78-3.94L161,60.87c1.09-1.21,2.14-2.45,3.27-3.61a6.3,6.3,0,0,1,1.41-1.37l0,0c.3-.27.72-.65,1.18-1-.28.23-.55.49-.82.74q.42-.33.87-.63a4.41,4.41,0,0,1,2.14-1,1.41,1.41,0,0,1,.62.15c1,.52-.21,2.18-.57,2.66l-.14.17,0,0a18.16,18.16,0,0,1-1.73,2.46,49.58,49.58,0,0,1-3.9,4.42c-.6.39-1.18.82-1.76,1.26l.94-.52a5.83,5.83,0,0,1,2.22-.92h.08c.42-.17.85-.33,1.27-.46l.19,0c.66,0-.1,1.62-.65,2.63A25.42,25.42,0,0,1,162,70a44.29,44.29,0,0,1-4.28,3.29c-.48.44-1,.86-1.51,1.27l-.11.1.14,0c1.25-.46,2.48-.94,3.69-1.47s2.54-1,3.82-1.47a6.45,6.45,0,0,1,1.54-.46c.23,0,.29.13-.09.53a39.43,39.43,0,0,1-7,5.42c-1.33.89-2.68,1.75-4.06,2.55l0,0c.93-.42,1.88-.78,2.84-1.14l.07,0,1.46-.59c1.53-.74,3.13-1.82,4.75-2h0c.22,0,.32.25.3.43a2.86,2.86,0,0,1-.3.88,1,1,0,0,1-.41.61A19,19,0,0,1,159.23,81,42.06,42.06,0,0,1,147,87.06c-.77.4-1.55.79-2.33,1.17a17.18,17.18,0,0,0,2.56-.56A35.75,35.75,0,0,0,150.8,87a8.66,8.66,0,0,1,1.24-.2,2,2,0,0,1-1,1.69,23.65,23.65,0,0,1-3.17,2A57.88,57.88,0,0,1,142,93.19a43.56,43.56,0,0,1-5.71,2.23,13.34,13.34,0,0,0,3.44-.71c.76-.18,1.54-.32,2.29-.49s1.22-.28,1.83-.39a1.6,1.6,0,0,1,.33,0c1.06,0-1.21,1.74-1.25,1.77a35.84,35.84,0,0,1-7.47,4.14,50.77,50.77,0,0,1-8.47,2.48,30.6,30.6,0,0,1-7.43.81H119c.36.07.71.13,1.07.18h-.4s7.19,1.64,11.2,1.64h.56c1.09,0,1,.22-.05.44a29.38,29.38,0,0,1-5.46.43,49.4,49.4,0,0,1-10-1h0a22,22,0,0,0,2.88,1.73h0c1.05.56.49.83-.75.83h-.16a18.72,18.72,0,0,1-5.63-1.09l-.09,0h0s1.55,1,1.54,1.64c0,.22-.18.4-.67.47h0a4.27,4.27,0,0,1-.54,0h0a25.33,25.33,0,0,1-6.51-1.28h0l0,0h0l-.07,0h0a16.13,16.13,0,0,1-3.27-1.42h0l0,0-.08,0,0,0h0l0,0h0l0,0h0l0,0,0,0h0c.06.07,3.34,3.27,1.89,3.27H104a31.12,31.12,0,0,1-5.76-1.73h0c.12.12,2.39,2.23-.57,2.23h0m13.21-16.66a49.53,49.53,0,0,0,3.54-4.08c1.05-1.21,2.08-2.46,3.06-3.73a14,14,0,0,0,1.89-3.07c.44-.62.88-1.24,1.33-1.85a149.65,149.65,0,0,0,11.87-18.62,103.73,103.73,0,0,0,7.14-17.64c.72-2.37,1.47-4.76,2-7.17a13.06,13.06,0,0,0,.39-5.73c.36-1.1.69-2.21,1-3.3a1,1,0,0,1,.12.19c1.06,2.21-.38,15.56-2.3,20.46,0,0,5.75-9,7.09-9a.24.24,0,0,1,.21.12c.46.81-.37,2.29-1.1,3.33l.48-.59c-.53.71-1,1.45-1.53,2.16a.65.65,0,0,0-.47-.2,1,1,0,0,0-.52.18,6.41,6.41,0,0,0-1.51,1.73c-.61.88-1.15,1.81-1.67,2.74-.41.74-.81,1.5-1.2,2.26-.62,1.22-1.38,2.36-2.07,3.54-1.91,3.25-3.74,6.55-5.64,9.82a158.75,158.75,0,0,1-12.54,18.62,61.25,61.25,0,0,1-7.48,8.12c-.7.61-1.41,1.2-2.14,1.76m38.4-5.36.71-.29.58,0-.22.08c-.36.1-.71.18-1.07.26M166,82.88h0m0,0h0m-1.73-19.55.49-.47-.33.38-.16.09m.84-18c.09-.31.16-.62.23-.92h0a5,5,0,0,1-.23.92M141,30.34q.33-1.12.63-2.28h0l0-.12,0-.13c0-.06,0-.11,0-.17a3.11,3.11,0,0,1,.8-.63l-.75,2.45-.07,0a10,10,0,0,0-.71.9m37.73-3.28c0-.36-.2-.56-.64-.56h0c.44,0,.64.2.64.56h0M145.53,14.62c.58-1.47,1.07-2.31,1.46-2.51h0l0,0h0l.05,0h.08c-.42,0-1,.86-1.64,2.56" fill="#cfc7c1"/><path id="path6274" d="M67.1,72c-.29,1.65-1.3,2.85-2.26,2.68S63.32,73,63.61,71.35s1.29-2.85,2.26-2.68S67.38,70.3,67.1,72" fill="#fff"/><path id="path6276" d="M66.89,71.91c-.25,1.46-1.14,2.52-2,2.37s-1.34-1.44-1.09-2.9,1.14-2.51,2-2.37,1.34,1.45,1.08,2.9" fill="#412418"/><path id="path6278" d="M65.74,70.63c-.09.56-.44,1-.76.91s-.52-.56-.42-1.12.44-1,.77-.9.51.55.41,1.11" fill="#fff"/><path id="path6280" d="M64.68,72.52c-.05.3-.23.51-.4.48s-.27-.29-.22-.58.23-.51.4-.48.27.29.22.58" fill="#fff"/><path id="path6282" d="M65.93,67.52a1.8,1.8,0,0,1,1.55.72c-.21-.59-.74-1.67-1.58-1.59-.64,0-1.63,1.14-1.82,1.59a2.38,2.38,0,0,1,1.85-.72" fill="#412418"/><path id="path6284" d="M171.07,53.8v.67l.19,0,.26-.1.29-.15L171.25,53l-.35.15-.14.07-.1.07-.11.11a.65.65,0,0,0-.15.42v.67h.67V53.8h0l.52.41a.6.6,0,0,0,.14-.41h-.66l.52.41-.48-.38.34.51.14-.13-.48-.38.34.51-.21-.31.19.33,0,0-.21-.31.19.33h0a2.05,2.05,0,0,1,.3-.13l-.25-.62-.31-.59-.26.13-.05,0,.12.31-.09-.32h0l.12.31-.09-.32.16.58v-.6l-.16,0,.16.58v.07h0" fill="#3c49a6"/><path id="path6286" d="M166,82.88l-.11-.65h-.09l.23,1.31h.09l-.23-1.31.11.65-.11-.65h-.09l.23,1.31h.09l-.23-1.31.11.65" fill="#3c49a6"/><path id="path6288" d="M187.39,61.2c-3.36-1.35-21.32,4.89-21.32,4.89,4.32-1.82,21.9-11.81,20.84-14.88-.93-2.73-13,1.41-15.41,2.39a2.51,2.51,0,0,1-.43.2s.11-.07.43-.2c2.53-1.33,15.17-8.91,12.63-9.79-2.79-1-14.31,5.38-14.31,5.38,5.47-3.94,15.17-12.58,12.68-13.44s-18.25,7.48-18.25,7.48C170.3,38.63,182,26,177.79,26.52S155.7,39.3,155.7,39.3c8.45-8.55,13.25-18.83,11.53-19S152,37.76,152,37.76,160.79,18.27,160.5,14s-2.3-2-6.43,7.11-10.85,21.41-10.85,21.41c3.17-8.74,5.37-27,4.51-29.77s-2.84,2.29-6,14.85c.69-.72,1.3-1,1.62-.35,1.06,2.21-.38,15.56-2.3,20.46,0,0,6.53-10.28,7.3-8.93.46.81-.37,2.29-1.1,3.33,1.17-1.46,3.13-3.69,3.78-3.24,1,.68-.33,4.3-.33,4.3s2.59-3.89,3.94-3.29-2.45,6.39-2.45,6.39,4.13-5.19,5.95-4.51-5.57,11.33-6.91,13.25c0,0,7.68-8.36,12-10.95,0,0,2.4-1.82,2.12.29S162.52,50,162.52,50s1.17-.84,1.54.29c.53,1.63-4.23,7-7.78,10.18l7.78-3.94L161,60.87c1.09-1.21,2.14-2.45,3.27-3.61a6.3,6.3,0,0,1,1.41-1.37l0,0c.95-.85,2.94-2.76,4.32-1.75s-.93,3.74-3.3,6.22c-.75,1-1.56,2-2.38,3a3.3,3.3,0,0,1,1.62-.37c2.11.29-1.54,5.77-8.55,11,0,0,7.3-3.74,8.55-3.26s-4.81,4.9-9.7,8c0,0,7.78-4.23,8-2.4s-9,8.45-16.62,10.85c0,0,4.52-1.06,4.81.1s-8.06,5.7-13.51,7.58c1.81-.57,5.75-1.66,5.82-.48.1,1.54-12.58,8.74-25.07,8.93,0,0,7.59,1.73,11.53,1.64,1.33,0,1.27.2.18.43a42.71,42.71,0,0,1-15.45-.62c9.22,3.45,26.51,1.24,29.39.09s-1-1.54-1-1.54c5.18-1,17.29-4.7,18.24-6.24s-4-.19-4-.19,11.53-5.09,11.62-6.43-9.12,1.44-9.12,1.44,14.6-5.67,16.61-8.74-10.6-.36-11.73-.12l-.08,0,.08,0c1.08-.23,13.82-3,15.29-6s-13.54-.58-13.54-.58S185,70.61,185.47,68.4s-11,1-11,1,16.33-6.82,13-8.16" fill="#353f4b"/><path id="path6290" d="M155.83,39.21h0l.88-.59-.88.59" fill="#353f4b"/><path id="path6292" d="M155.52,39.54l.31-.33.88-.59.18-.13c-.45.36-.9.72-1.37,1" fill="#161718"/><path id="path6294" d="M154.37,51.73h0c1.48-1.48,3.3-3.24,5.06-4.77h0c-1.76,1.52-3.57,3.28-5,4.76" fill="#2c3138"/><path id="path6296" d="M167.63,31.61c.82-.5,1.63-1,2.42-1.44l-2.41,1.43h0" fill="#353f4b"/><path id="path6298" d="M154.37,51.73c1.18-1.75,2.4-3.48,3.69-5.15a105.5,105.5,0,0,1,7.37-8.17c1.07-1.13,2.09-2.31,3.19-3.41a12.2,12.2,0,0,0,2.31-2.71c.32-.61.36-1.55-.51-1.63h-.11a3.31,3.31,0,0,0-1.2.34c-.5.2-1,.39-1.47.6l2.41-1.43c3.33-1.93,6.31-3.45,7.74-3.65l.26,0c.44,0,.64.2.64.56,0,2.37-8.73,11.66-14,15.8a7.77,7.77,0,0,0-2.31,1.29,24.23,24.23,0,0,0-2.87,2.68l-.12.13c-1.76,1.53-3.58,3.29-5.06,4.77" fill="#161718"/><path id="path6300" d="M168.71,41l1.38-.67a3.55,3.55,0,0,1-1.38.67" fill="#161718"/><path id="path6302" d="M171.79,53.49h0l.06,0-.06,0" fill="#353c44"/><path id="path6304" d="M172.4,53.26l.26-.09-.26.09" fill="#353c44"/><path id="path6306" d="M171,54.1l.79-.61.06,0,.55-.2.26-.09.68-.24-1,.38a9.45,9.45,0,0,0-1.38.79" fill="#161718"/><path id="path6308" d="M167.36,65.5c5.56-2.71,19.59-10.92,19.6-14h0a.66.66,0,0,0-.05-.28c1,2.82-13.79,11.49-19.54,14.29h0" fill="#353f4b"/><path id="path6310" d="M166.61,65.74c2.6-1.84,5.16-3.72,7.58-5.78A53.38,53.38,0,0,0,181,52.84c.33-.41,1.38-1.52.82-2.09l-.17-.13a17,17,0,0,1,2.94-.33c1.22,0,2.09.26,2.31.92h0a.66.66,0,0,1,.05.28c0,3.09-14,11.3-19.6,14-.25.09-.49.17-.75.24" fill="#161718"/><path id="path6312" d="M168.59,76c3.53-1.19,16.41-5.66,16.88-7.57C185,70.33,172.13,74.79,168.6,76h0m16.88-7.57h0m0,0h0m-5-6.56A27.37,27.37,0,0,1,186,61a5.15,5.15,0,0,1,.57,0,5.06,5.06,0,0,0-.57,0h0a27.39,27.39,0,0,0-5.56.84h0" fill="#353f4b"/><path id="path6314" d="M180.47,61.85A27.39,27.39,0,0,1,186,61h0a27.39,27.39,0,0,0-5.56.84h0m6.29-.8a5.44,5.44,0,0,0-.73,0,5.06,5.06,0,0,1,.57,0l.16,0" fill="#353c44"/><path id="path6316" d="M186.78,61.05h0" fill="#353c44"/><path id="path6318" d="M168.34,76c2.19-1.06,4.39-2.12,6.54-3.25a16.21,16.21,0,0,0,2.42-1.49c.37-.29,1-.75.91-1.3s-.53-.52-1-.52a6.52,6.52,0,0,0-1,.09c-1.54.21-3.07.48-4.58.83-1.08.26-2.16.54-3.22.86,1.43-.65,2.84-1.36,4.23-2.07a47.22,47.22,0,0,0,8-4.66c.48-.38,1.88-1.3,1.72-2.1-.11-.52-.8-.57-1.29-.57h-.21l-.42,0A27.39,27.39,0,0,1,186,61a5.44,5.44,0,0,1,.73,0h0a2.27,2.27,0,0,1,.61.15c.32.12.46.3.46.51,0,2-13.42,7.65-13.42,7.65h0s6.34-1.74,9.42-1.74c1,0,1.64.18,1.64.65a.5.5,0,0,1,0,.12h0c-.47,1.91-13.35,6.38-16.88,7.57l-.25,0" fill="#161718"/><path id="path6320" d="M144.78,104.89h0m0,0h0m0,0h0m0,0h0m0,0h0m0,0,.33-.11h0l-.34.11" fill="#292d33"/><path id="path6322" d="M145.26,104.73h0" fill="#353c44"/><path id="path6324" d="M145.27,104.73h0m0,0h0" fill="#292d33"/><path id="path6326" d="M145.27,104.73h0" fill="#353c44"/><path id="path6328" d="M145.3,104.71h0" fill="#292d33"/><path id="path6330" d="M145.3,104.71h0" fill="#353c44"/><path id="path6332" d="M181.34,76.59h0m0,0h0m0,0c.18-1-1.53-1.3-3.79-1.3h0c2.26,0,4,.32,3.79,1.3" fill="#353f4b"/><path id="path6334" d="M181.3,76.72a.84.84,0,0,0,.06-.3h0c0-.86-1.65-1.15-3.8-1.15,2.26,0,4,.32,3.79,1.3h0a.93.93,0,0,1,0,.13m-3.82-1.45h0" fill="#353c44"/><path id="path6336" d="M136.24,106.17c.46-.11.92-.24,1.37-.37a9.37,9.37,0,0,0,2-.83c.32-.19.67-.54.43-.92-.43-.65-1.77-.75-2.44-.84-.5-.07-1-.12-1.52-.16,1.82-.12,3.64-.32,5.45-.58,2.52-.36,5.06-.77,7.54-1.33a30.48,30.48,0,0,0,3.26-1,6.35,6.35,0,0,0,2.43-1.33l-.06-.2a3,3,0,0,0-1.11-.19,17.44,17.44,0,0,0-3.14.57c-.66.12-1.3.24-1.95.39a11.68,11.68,0,0,1-1.34.28l1.4-.41a85.77,85.77,0,0,0,8.22-3c1.3-.55,2.57-1.18,3.84-1.83a5.85,5.85,0,0,0,2.46-1.87l0-.15a1.51,1.51,0,0,0-.94-.27,6.47,6.47,0,0,0-1.44.24c-1.28.32-2.55.6-3.84.88-1.65.37-3.29.76-5,1-.84.14-1.69.27-2.54.38.92-.31,1.85-.62,2.76-1q5.64-2,11.09-4.52c1.57-.73,3.13-1.49,4.63-2.37a9.64,9.64,0,0,0,2.64-2,.92.92,0,0,0-.39-1.58,4.49,4.49,0,0,0-1.71-.28c-.29,0-.57,0-.85,0a26.37,26.37,0,0,0-3.18.42c-2,.36-4,.83-6,1.21a115.27,115.27,0,0,0,12.89-5.13c1.18-.57,2.35-1.17,3.5-1.8a6.07,6.07,0,0,0,1.9-1.38c.37-.46.15-.88-.35-1.1h0l.5,0h.73c2.15,0,3.8.29,3.81,1.15a.84.84,0,0,1-.06.3,1.12,1.12,0,0,1-.05.13h0c-1.47,3-14.17,5.8-15.28,6h0a59.64,59.64,0,0,1,9.44-1.28c1.46,0,2.49.23,2.48.85a1,1,0,0,1-.2.55c-2,3.07-16.61,8.74-16.61,8.74h0s6-1.81,8.26-1.81c.54,0,.87.1.86.35v0c-.09,1.34-11.62,6.43-11.62,6.43h0a16.78,16.78,0,0,1,3.25-.54c.53,0,.91.1.91.39a.63.63,0,0,1-.13.34c-1,1.54-13.06,5.29-18.24,6.24h0s2,.21,2,.76c0,.21-.28.47-1.07.78h-.07l-.33.11h-.15a52.47,52.47,0,0,1-8.54,1.28M166,82.88h0l-.08,0,.08,0h0" fill="#161718"/><path id="path6338" d="M184.32,44.65a1.33,1.33,0,0,0,.11-.26h0a.42.42,0,0,0-.3-.56c.38.14.41.43.18.84m-.18-.84h0" fill="#353f4b"/><path id="path6340" d="M184.43,44.39h0m0,0h0m0,0a.88.88,0,0,0,0-.16h0a.41.41,0,0,0-.33-.4h0a.42.42,0,0,1,.3.56" fill="#353c44"/><path id="path6342" d="M180,36.08h0" fill="#353c44"/><path id="path6344" d="M180,36.07h0" fill="#353c44"/><path id="path6346" d="M180.06,36.06h0" fill="#353c44"/><path id="path6348" d="M180.09,36.05h0" fill="#353c44"/><path id="path6350" d="M180.12,36h0" fill="#353c44"/><path id="path6352" d="M180.15,36h0" fill="#353c44"/><path id="path6354" d="M180.18,36a11.47,11.47,0,0,1,1.29-.3,11.47,11.47,0,0,0-1.29.3" fill="#353c44"/><path id="path6356" d="M181.47,35.73h0" fill="#353c44"/><path id="path6358" d="M181.5,35.73h0" fill="#353c44"/><path id="path6360" d="M181.52,35.72h0" fill="#353c44"/><path id="path6362" d="M181.55,35.72h0" fill="#353c44"/><path id="path6364" d="M181.57,35.72h0" fill="#353c44"/><path id="path6366" d="M181.6,35.71h0" fill="#353c44"/><path id="path6368" d="M181.62,35.71h0" fill="#353c44"/><path id="path6370" d="M181.65,35.71h0" fill="#353c44"/><path id="path6372" d="M181.67,35.71h0" fill="#353c44"/><path id="path6374" d="M181.69,35.7h0" fill="#353c44"/><path id="path6376" d="M181.72,35.7h0" fill="#353c44"/><path id="path6378" d="M181.74,35.7h0" fill="#353c44"/><path id="path6380" d="M181.76,35.7h0" fill="#353c44"/><path id="path6384" d="M181.81,35.69h0" fill="#353c44"/><path id="path6386" d="M172,53.34l2.3-1.78a35.06,35.06,0,0,0,4.45-3.79c.26-.29.76-.79.61-1.22-.08-.26-.37-.32-.64-.32a3.67,3.67,0,0,0-.38,0A20.68,20.68,0,0,0,173,48.15c-1.15.51-2.28,1-3.4,1.59-1.3.65-2.61,1.29-3.9,2a12.56,12.56,0,0,0-1.17.71c1.76-1.41,3.49-2.86,5.14-4.41a57,57,0,0,0,6.67-6.69,4.29,4.29,0,0,0,1.19-2.48c0-.64-.68-.77-1.21-.77h-.21a11.26,11.26,0,0,0-3.57,1,63.11,63.11,0,0,1,7.39-3h.21a11.47,11.47,0,0,1,1.29-.3H182a1.29,1.29,0,0,1,.47.07.54.54,0,0,1,.4.55c0,2.16-8.21,9.39-13.08,12.89h0s10-5.48,13.6-5.48a2.48,2.48,0,0,1,.71.1h0a.41.41,0,0,1,.33.4.88.88,0,0,1,0,.16h0a1.33,1.33,0,0,1-.11.26c-1.22,2.08-9.53,7.14-12.34,8.69" fill="#161718"/><path id="path6388" d="M162.25,25c2.32-2.67,4.29-4.71,4.94-4.73-.65,0-2.62,2.06-4.94,4.73h0" fill="#353f4b"/><path id="path6390" d="M162.25,25c2.32-2.67,4.29-4.7,4.94-4.73h0c-.65,0-2.62,2.06-4.93,4.73h0" fill="#353c44"/><path id="path6392" d="M167.3,20.3h0m0,0h0m0,0h0m0,0h0m0,0h0m0,0h0m0,0h0m0,0h0m0,0h0" fill="#353f4b"/><path id="path6394" d="M167.23,20.28h0m0,0h0" fill="#353c44"/><path id="path6396" d="M167.19,20.28h0" fill="#353f4b"/><path id="path6398" d="M167.19,20.28h0" fill="#353c44"/><path id="path6400" d="M156.16,38.83a43.69,43.69,0,0,0,3.6-5.74,39,39,0,0,0,2.39-4.63c.51-1.16,1.41-2.57,1.24-3.89l-.16-.11a4.42,4.42,0,0,0-1,.55c2.31-2.67,4.28-4.71,4.93-4.73h.12c1.45.52-3.13,10.23-11.15,18.53" fill="#161718"/><path id="path6402" d="M153.19,35h0l1.21-2.81L153.19,35m7.31-20.92h0m0,0V14h0c-.1-1.32-.37-2-.83-2h-.13a.84.84,0,0,0-.32.15.84.84,0,0,1,.45-.17c.46,0,.74.7.83,2.07" fill="#353f4b"/><path id="path6404" d="M160.5,14v0h0m0-.07c-.1-1.32-.37-2-.83-2,.46,0,.73.67.83,2m-1-2h0m0,0h0" fill="#353c44"/><path id="path6406" d="M153.19,35c1-3,1.68-6.1,2.45-9.17q.71-2.83,1.43-5.67a14.9,14.9,0,0,0,.73-3.42c0-.51-.24-.92-.63-.92a.77.77,0,0,0-.46.17l-.23.18c1.18-2.24,2.09-3.57,2.74-4a.79.79,0,0,1,.44-.16c.47,0,.75.69.84,2.06h0v0h0c.17,2.78-3.52,12-6.1,18.11L153.19,35" fill="#161718"/><path id="path6408" d="M144.75,37.38v0A116.62,116.62,0,0,0,147.92,15h0a9.07,9.07,0,0,0-.18-2.16c.7,2.37-.7,15.26-3,24.57m3-24.57h0m0,0c-.13-.41-.29-.64-.46-.7h0c.17.06.33.29.46.7m-.47-.71h0" fill="#353f4b"/><path id="path6410" d="M147.27,12.08h0" fill="#353c44"/><path id="path6412" d="M144.75,37.36c.18-1,.32-2,.45-3,.43-3.45.71-6.95.93-10.42a27,27,0,0,0-.09-5.39c0-.37-.14-2.16-.82-2.16a.53.53,0,0,0-.29.1l-.1.07c1-3,1.78-4.51,2.34-4.51h.1c.17.06.33.29.46.7h0a9.07,9.07,0,0,1,.18,2.16,116.62,116.62,0,0,1-3.17,22.39" fill="#161718"/><path id="path6414" d="M143.09,43.54a19,19,0,0,0,.49-2.36l-.05.08A57.05,57.05,0,0,1,140.9,47c-1.33,2.82-2.8,5.57-4.33,8.29-2.68,4.78-5.41,9.52-8.44,14.1-6.29,9.53-12.21,19.12-20.77,26.83-.1.09-.15.37,0,.22,8.9-7.09,15-16.94,21.12-26.4,3.36-5.23,6.53-10.51,9.51-16,1.41-2.57,2.7-5.2,3.89-7.88.39-.87.81-1.77,1.18-2.69" fill="#bdbdaa"/><path id="path6416" d="M151.94,94.63a48.41,48.41,0,0,0,6.24-1.71,22,22,0,0,0,3.68-1.45c-.8.23-1.62.43-2.44.62-1.9.63-3.85,1.14-5.77,1.66a14.58,14.58,0,0,0-1.77.88h.06" fill="#526273"/><path id="path6418" d="M155.19,98.08c.72-.19,1.43-.39,2.12-.6.32-.1.68-.23,1-.38a4.89,4.89,0,0,0,.72-.55c-.93.29-1.85.61-2.8.89s-1.79.52-2.68.77c.54,0,1.08-.06,1.6-.13" fill="#526273"/><path id="path6420" d="M146.23,43.8l-.1,0,0,0,.08.07h0" fill="#eee8e4"/><path id="path6422" d="M147.05,48.89A34.68,34.68,0,0,0,150,43.63a14.09,14.09,0,0,0,1-2.92c-.38-.64-.73-1-1.06-1a.74.74,0,0,0-.58.4l-.48.46c-1,1-1.8,2.11-2.66,3.19l-.08-.07c.5-.71,1-1.45,1.53-2.16,1.05-1.25,2.41-2.71,3.1-2.71a.34.34,0,0,1,.2.06c1,.68-.33,4.3-.33,4.3s2.23-3.35,3.63-3.35a.81.81,0,0,1,.31.06c.69.31,0,2-.79,3.56L154,43l.11-.29a10.58,10.58,0,0,0,.38-1.21c.13-.53,0-1.3-.6-1.3a.86.86,0,0,0-.38.1,7,7,0,0,0-2.45,2.44,5,5,0,0,0-.42.5c-.33.72-.71,1.43-1.07,2.1-.48.86-1,1.71-1.51,2.53a8.53,8.53,0,0,0-1,1m5.56-3.13s0,0,0,0l0,0,0,.06" fill="#dcd9d6"/><path id="path6424" d="M152.63,45.73a21,21,0,0,0,1.18-2.25c.81-1.56,1.48-3.25.79-3.56a.81.81,0,0,0-.31-.06c-1.4,0-3.63,3.35-3.63,3.35s1.29-3.62.33-4.3a.34.34,0,0,0-.2-.06c-.69,0-2,1.46-3.1,2.71a13.77,13.77,0,0,1,2.31-2.5,2.81,2.81,0,0,1,1.3-.65c.25,0,.42.15.42.58a9.33,9.33,0,0,1-.59,3.06c.9-1.14,2.73-2.58,3.58-2.58a.39.39,0,0,1,.42.28c.36,1.15-.38,2.5-.9,3.48a21.55,21.55,0,0,1-1.57,2.47l0,0" fill="#607285"/><path id="path6426" d="M158.38,58.34a37.29,37.29,0,0,0,2.54-2.93l.08-.09a17.63,17.63,0,0,0,1.67-2.08c.76-1.05,1.39-2.23.86-3a.36.36,0,0,0-.3-.17.24.24,0,0,0-.16.05,3.75,3.75,0,0,0-.51.38h-.09l-.12.17a19.84,19.84,0,0,0-1.61,1.8,18,18,0,0,1-2.21,2.25A32.12,32.12,0,0,0,162,50.22c.9-1.45,2.86-4.24,2.61-6a.21.21,0,0,0-.24-.2c-1,0-4.8,3.44-5.11,3.78s-.62.71-1,1.1c.28-.53.57-1.06.87-1.58l.26-.3a29.28,29.28,0,0,1,3.77-2.87h0l.2-.14h0a3.15,3.15,0,0,1,1.39-.58c.36,0,.62.24.52,1-.07.3-.14.61-.23.92A22.22,22.22,0,0,1,162.52,50a1.7,1.7,0,0,1,.83-.3.72.72,0,0,1,.71.59c.41,1.27-2.4,4.83-5.34,7.84l-.34.25" fill="#dcd9d6"/><path id="path6428" d="M164.25,43.23h0l.11-.08,0,0,0,0,.11-.08,0,0h0l.16-.13a1,1,0,0,1,.24,0h0l-.76.39" fill="#353f4b"/><path id="path6430" d="M164.25,43.23h0l.76-.39h0l-.76.39m0,0,.11-.08-.11.08m.14-.1,0,0,0,0m.14-.11,0,0,0,0m0,0,.16-.13h0l-.16.13" fill="#fff9f5"/><path id="path6432" d="M158.72,58.09c2.94-3,5.75-6.57,5.34-7.84a.72.72,0,0,0-.71-.59,1.7,1.7,0,0,0-.83.3,22.22,22.22,0,0,0,2.56-4.65,17,17,0,0,1-2,4.26,1.82,1.82,0,0,1,.71-.27h.08c1.15.39.33,2,0,2.74a15.69,15.69,0,0,1-3.13,4.16l-1.32,1.37-.68.51m6.59-13.7c.1-.78-.16-1-.52-1a3.15,3.15,0,0,0-1.39.58c.31-.27.63-.52,1-.77l-.11,0h0l.76-.39c.3,0,.48.21.43.71,0,.28-.08.56-.13.84" fill="#607285"/><path id="path6434" d="M159.42,47h0a29.08,29.08,0,0,1,3.76-2.86h0A29.28,29.28,0,0,0,159.42,47m3.77-2.87.21-.15h0l-.2.14" fill="#576678"/><path id="path6436" d="M159.43,47l.12-.13a24.23,24.23,0,0,1,2.87-2.68,7.77,7.77,0,0,1,2.31-1.29c-.16.13-.32.26-.48.37h0l.11,0c-.33.25-.65.5-1,.77l-.21.15h0A29.08,29.08,0,0,0,159.43,47" fill="#3e4c5d"/><path id="path6438" d="M120.08,103.16c-.36,0-.71-.11-1.07-.18h.57a30.6,30.6,0,0,0,7.43-.81,50.77,50.77,0,0,0,8.47-2.48A35.84,35.84,0,0,0,143,95.56s2.31-1.77,1.25-1.77a1.6,1.6,0,0,0-.33,0c-.61.11-1.22.25-1.83.39s-1.53.31-2.29.49a13.34,13.34,0,0,1-3.44.71A43.56,43.56,0,0,0,142,93.19a57.88,57.88,0,0,0,5.85-2.76,23.65,23.65,0,0,0,3.17-2,2,2,0,0,0,1-1.69,8.66,8.66,0,0,0-1.24.2,35.75,35.75,0,0,1-3.57.71,17.18,17.18,0,0,1-2.56.56c.78-.38,1.56-.77,2.33-1.17A42.06,42.06,0,0,0,159.23,81a19,19,0,0,0,3.68-3.12,1,1,0,0,0,.41-.61,2.86,2.86,0,0,0,.3-.88c0-.18-.08-.43-.3-.43h0c-1.62.16-3.22,1.24-4.75,2l-1.46.59-.07,0c-1,.36-1.91.72-2.84,1.14l0,0c1.38-.8,2.73-1.66,4.06-2.55a39.43,39.43,0,0,0,7-5.42c.38-.4.32-.53.09-.53a6.45,6.45,0,0,0-1.54.46c-1.28.47-2.57.92-3.82,1.47s-2.44,1-3.69,1.47l-.14,0,.11-.1c.52-.41,1-.83,1.51-1.27A44.29,44.29,0,0,0,162,70a45.51,45.51,0,0,1-4.6,3.87s6.45-3.31,8.26-3.31a.79.79,0,0,1,.29,0c1.25.48-4.81,4.9-9.7,8,0,0,5.26-2.86,7.24-2.86.42,0,.69.13.73.46.19,1.82-9,8.45-16.62,10.85a20.28,20.28,0,0,1,2.4-.39l-.71.29c.36-.08.71-.16,1.07-.26l.22-.08h.33c.77,0,1.39.13,1.5.54.27,1.09-8.06,5.7-13.51,7.58a20,20,0,0,1,4.73-1c.64,0,1.07.14,1.09.52.1,1.52-12.31,8.59-24.67,8.93" fill="#dcd9d6"/><path id="path6440" d="M166.07,66.09l.17-.07s0,0,0,0l-.16,0" fill="#353f4b"/><path id="path6442" d="M166.07,66.09h0l.16,0h0l-.16,0" fill="#fff9f5"/><path id="path6444" d="M165.63,65.83c.55-1,1.31-2.63.65-2.63l-.19,0c-.42.13-.85.29-1.27.46h-.08a5.83,5.83,0,0,0-2.22.92l-.94.52c.58-.44,1.16-.87,1.76-1.26a49.58,49.58,0,0,0,3.9-4.42A18.16,18.16,0,0,0,169,57l0,0,.14-.17c.36-.48,1.53-2.14.57-2.66a1.41,1.41,0,0,0-.62-.15A4.41,4.41,0,0,0,167,55q-.45.3-.87.63c.27-.25.54-.51.82-.74a4,4,0,0,1,2.25-1,1.49,1.49,0,0,1,.89.28c1.26.93-.93,3.74-3.3,6.22-.63.87-1.32,1.71-2,2.54l-.49.47.16-.09,0,0a3.82,3.82,0,0,1,1.42-.38h.2c.92.13.74,1.25-.35,2.91" fill="#dcd9d6"/><path id="path6446" d="M122.72,103.32a21.14,21.14,0,0,1-2.64-.16c12.36-.34,24.77-7.41,24.67-8.93,0-.38-.45-.52-1.09-.52a20,20,0,0,0-4.73,1c5.45-1.88,13.78-6.49,13.51-7.58-.11-.41-.73-.54-1.5-.54h-.33a7.17,7.17,0,0,1,1.85-.46.63.63,0,0,1,.48.15c.73.71-1.05,2.12-1.51,2.48a34.37,34.37,0,0,1-8,4.46l-.68.29a6.92,6.92,0,0,1,1.83-.4c.37,0,.59.11.59.4,0,1.94-3.74,3.72-5.09,4.51a40.15,40.15,0,0,1-14,5.06,26.27,26.27,0,0,1-3.44.24M147.63,87c7.59-2.4,16.81-9,16.62-10.85,0-.33-.31-.46-.73-.46-2,0-7.24,2.86-7.24,2.86,4.89-3.07,10.95-7.49,9.7-8a.79.79,0,0,0-.29,0c-1.81,0-8.26,3.31-8.26,3.31A45.51,45.51,0,0,0,162,70a20.83,20.83,0,0,0,3.15-3.37s.21-.34.45-.8c1.09-1.66,1.27-2.78.35-2.91h-.2a3.82,3.82,0,0,0-1.42.38l0,0a10.65,10.65,0,0,1,1.42-.61,2.63,2.63,0,0,1,.78-.15c1,0,.88,1.12.34,2.25a13.43,13.43,0,0,1-.7,1.29l-.17.07h0l.16,0a23.16,23.16,0,0,1-7.52,7.11c.47-.22.95-.43,1.41-.66a39.3,39.3,0,0,1,4-1.67,7.22,7.22,0,0,1,1.95-.53c.45,0,.67.23.22,1-1.44,2.35-4.49,4.22-6.88,5.73a18.4,18.4,0,0,1,4.36-1.69l.26,0c1.55,0-1.41,3.6-1.69,3.85A42.65,42.65,0,0,1,153,85.24c-1,.48-2,1-3,1.4a20.28,20.28,0,0,0-2.4.39m17.1-24.17c.69-.83,1.38-1.67,2-2.54,2.37-2.48,4.56-5.29,3.3-6.22a1.49,1.49,0,0,0-.89-.28,4,4,0,0,0-2.25,1,6.5,6.5,0,0,1,2.87-1.58l.32,0c1.54,0,.2,2.57-.22,3.32a28.83,28.83,0,0,1-5.14,6.31" fill="#607285"/><path id="path6448" d="M157.62,119.77h0a31.66,31.66,0,0,1,3.2-.76l0,0c2.08-1,4.56-1.15,6.54-2.3l-.47-.11c-1.79-.47-3.52-1.21-5.26-1.83s-3.58-1.17-5.4-1.65a49.47,49.47,0,0,0-11.34-1.66,80.47,80.47,0,0,0-11.49,1c-1.67.21-3.35.4-5,.5-.21,0-.43,0-.65,0,.66.28,1.37.46,2,.71-1.08,0-2.17,0-3.26,0-1.94,0-4-.12-6-.11q-1,.09-2,.21a26.71,26.71,0,0,0-3.45.58c-.2.06-.61.13-1,.27a5.37,5.37,0,0,0,1.67.56,16.39,16.39,0,0,1,1.76.17,46.45,46.45,0,0,0-4.69.35,9.82,9.82,0,0,0,2.72,1.67l1.44.33c-.87,0-8.28-.34-9.4-.33a12.54,12.54,0,0,0,1.76,2.48,26.68,26.68,0,0,0,5.09,3.8c.76.46,1.53.88,2.32,1.28a35.62,35.62,0,0,0,14.12,2.65,29.1,29.1,0,0,0,4.76,0c.77-.12,1.53-.22,2.31-.32a7.74,7.74,0,0,0,1.68-.24,58.88,58.88,0,0,0,7.44-1.23c.89-.25,1.78-.53,2.66-.84,2.64-.94,5.15-2.2,7.71-3.33,1.2-.53,2.42-1,3.62-1.53l1-.41a26.22,26.22,0,0,0-4.4.17" fill="#fef6ef"/><path id="path6450" d="M82.33,26.33c0-2.09.13-4.2.24-6.32A68.15,68.15,0,0,1,84.1,7.11h0s-.29,8.32-.47,12.47c-.07,1.54-.14,3.09-.17,4.64a6.91,6.91,0,0,0-1.13,2.11" fill="#989c9f"/><path id="path6452" d="M92.81,58.16h0c-.92-2-2.06-3.91-3-5.93s-1.73-4-2.62-6c-.43-.93-.68-1.93-1.07-2.87s-.87-2-1.2-3a66.44,66.44,0,0,1-2-6.91,31,31,0,0,1-.54-3.92,7.5,7.5,0,0,1,.73-1.07l.2.06c.1.28.18.56.26.85a32.54,32.54,0,0,0,.55,3.33c0,.34,0,.68.06,1s0,.69,0,1c0-.16.09-.32.14-.48l.09-.27a119.93,119.93,0,0,0,4,12c.74,2.06,4.32,12.09,4.3,12.09" fill="#f6f2ef"/><path id="path6454" d="M84.25,34.77c0-.35,0-.69,0-1s0-.67-.06-1l.12.55.18.75-.09.27c0,.16-.09.32-.14.48m-1.81-5.22c-.08-1.07-.11-2.14-.11-3.22a6.91,6.91,0,0,1,1.13-2.11l0,1.67a28.86,28.86,0,0,0,.2,3.5c-.08-.29-.16-.57-.26-.85l-.2-.06a7.5,7.5,0,0,0-.73,1.07" fill="#e9e6e3"/><path id="path6456" d="M86.28,23.32h0c.59-5.23,1.13-10.68,2.91-15.67,0,0,.11-.13.15-.13s0,0,0,.05c-.29,1.28-.35,2.61-.58,3.89s-.51,2.46-.79,3.68c-.59,2.6-1.7,8.18-1.71,8.18" fill="#989c9f"/><path id="path6458" d="M90.17,26.08c.39-1.75,1-3.42,1.55-5.13a40.65,40.65,0,0,1,2.34-5.82v0a5.51,5.51,0,0,1-.06.57c-.45,1.33-.88,2.67-1.3,4-.28.67-.56,1.34-.78,2a26.87,26.87,0,0,1-1.31,3.47c-.14.31-.3.62-.45.93" fill="#989c9f"/><path id="path6460" d="M95.19,27.28a84.86,84.86,0,0,1,4.37-9.19l-.28.67c-.22.53-.39,1.08-.59,1.61A34.84,34.84,0,0,1,97.09,24a27.72,27.72,0,0,1-1.68,3l-.22.31" fill="#989c9f"/><path id="path6462" d="M99.68,29.72c-.07,0-.11,0-.05-.19a17.58,17.58,0,0,1,2.1-3.26,17.58,17.58,0,0,1,1.88-2.33,13.43,13.43,0,0,1-.89,1.58l0,.06c-.66,1-1.31,2.07-2,3.06-.14.17-.27.34-.41.5s-.27.34-.46.56l-.1,0" fill="#989c9f"/><path id="path6464" d="M104.05,30.93a20.13,20.13,0,0,1,2.2-1.93c.85-.69,1.68-1.41,2.59-2A14.15,14.15,0,0,1,106,29.64a13.52,13.52,0,0,1-1.93,1.29" fill="#989c9f"/><path id="path6466" d="M108.09,33.52a23.48,23.48,0,0,1,4.68-2.73,14.71,14.71,0,0,1-2.4,1.56c-.74.42-1.51.8-2.28,1.17" fill="#989c9f"/><path id="path6468" d="M63.09,111.91a12.19,12.19,0,0,1-4-6.61,11.11,11.11,0,0,1,0-4.22c-.31.4-.59.82-.89,1.25,0,.06-.4.41-.58.41s-.1,0-.09-.17a12.48,12.48,0,0,1,2-5.3,14,14,0,0,1,1.88-2.35l.85-.63.45-.32a17.57,17.57,0,0,0-2.6,3.38,15.91,15.91,0,0,0-1.62,3.82,9.88,9.88,0,0,1,.78-.81,5.12,5.12,0,0,1,1.3-2.16,16.79,16.79,0,0,0,2.46,13.71" fill="#fff"/><path id="path6470" d="M66,76.34l-.08,0a2,2,0,0,0-.9-1.08q.33-.16.66-.3a5,5,0,0,0,1.76.61l.45,0H68a15.52,15.52,0,0,1-2,.79m-3.81-8.66a3.8,3.8,0,0,0-1.06-.61c.21-.26.43-.53.67-.8a2.4,2.4,0,0,1,1.13.75c-.25.2-.5.43-.74.66" fill="#f68213"/><path id="path6472" d="M65,75.22a5.76,5.76,0,0,0-2.72-.66,36.74,36.74,0,0,1,.39-3.93A8.2,8.2,0,0,0,62.85,69h0a1.84,1.84,0,0,0-.67-1.36c.24-.23.49-.46.74-.66a1.37,1.37,0,0,1,.15.21,3.8,3.8,0,0,1,.38,2.28c-.09,1.55-.62,3.06-.6,4.62l.15.12a2.7,2.7,0,0,1,.48,0,3,3,0,0,1,.74.1,1.15,1.15,0,0,0,.62.33l.18,0h.09l.56.28q-.33.14-.66.3" fill="#f8a513"/><path id="path6474" d="M65,74.65l-.18,0a1.15,1.15,0,0,1-.62-.33,4.8,4.8,0,0,1,.89.34H65" fill="#fbd274"/><path id="path6476" d="M65.46,76.12S57.61,81.27,41.19,81C27.56,80.84,8,84.67,1.74,86c-.58.16-1.16.32-1.74.45,4.37.41,13.39,6.76,22.87,11.63,7.68,4,18.08,3.36,18.08,3.36,18.76.07,30.11-16.9,30.59-19.86s-6.08-5.44-6.08-5.44" fill="#fabe2e"/><path id="path6478" d="M39.45,101.45a42.12,42.12,0,0,1-14.39-2.4h0a42,42,0,0,0,14.38,2.4c.9,0,1.44,0,1.49,0s-.59,0-1.49,0" fill="#fbd174"/><path id="path6480" d="M1.42,86.07,1.74,86h0l-.32.09" fill="#fbd174"/><path id="path6482" d="M39.45,101.45a42,42,0,0,1-14.38-2.4,55.34,55.34,0,0,0,9.53.83l1.41,0a37.69,37.69,0,0,0,10.81-1.77c2.83-.92,4.49-1.55,6.39-3.9s6.06-8.61-6.94-8.61a68.21,68.21,0,0,0-8.25.59,114.53,114.53,0,0,1-15,.68c-3.37,0-7.15.22-10.93.22a59.47,59.47,0,0,1-10-.69c.69,0,1.51-.1,2.47-.2l.57-.05h0L6.65,86h.29c5.08-.17,10.14-1.08,15.22-1.08h1.06c1.72.05,3.17.07,4.51.07,3,0,5.51-.1,9.28-.23A113.09,113.09,0,0,0,55.7,82.34a49.4,49.4,0,0,1,6.87-1.55l.64,0a2.9,2.9,0,0,1,2.34.86c2.26,2.8-.86,5.75-2.77,7.64C59.4,92.6,56.19,95.75,52,98a38.06,38.06,0,0,1-8.1,3.25c13.74-1.26,23-11.53,26.35-16.91a39.07,39.07,0,0,1-8.88,9.71l-.42.32h0a32.66,32.66,0,0,1-19.85,7h-.13s-.59,0-1.49,0M71.53,81.57h0" fill="#f79918"/><path id="path6484" d="M70.22,84.38a15.67,15.67,0,0,0,1-1.82h0a15.67,15.67,0,0,1-1,1.82m1.07-2a3.41,3.41,0,0,0,.24-.77,3.41,3.41,0,0,1-.24.77h0" fill="#d4ac61"/><path id="path6486" d="M71.2,82.56h0l.09-.22h0l-.09.22" fill="#ae944f"/><path id="path6488" d="M71.53,81.57h0c0-.1,0-.21,0-.31,0,.1,0,.21,0,.31h0" fill="#d4ac61"/><path id="path6490" d="M43.87,101.29A38.06,38.06,0,0,0,52,98c4.22-2.29,7.43-5.44,10.81-8.77,1.91-1.89,5-4.84,2.77-7.64a2.9,2.9,0,0,0-2.34-.86l-.64,0a49.4,49.4,0,0,0-6.87,1.55A113.09,113.09,0,0,1,37,84.72c-3.77.13-6.24.23-9.28.23-1.34,0-2.79,0-4.51-.07H22.16c-5.08,0-10.14.91-15.22,1.08H6.65C12.12,85.34,20,84.31,26,84.31h1.19l1.19,0C40.64,84.34,66,80.18,66,76.72a.49.49,0,0,0,0-.12,1.47,1.47,0,0,0-.08-.3c1.42.6,5.65,2.6,5.65,5,0,.1,0,.21,0,.31h0a3.41,3.41,0,0,1-.24.77l-.09.22a15.67,15.67,0,0,1-1,1.82C66.91,89.76,57.61,100,43.87,101.29" fill="#eb7317"/><path id="path6492" d="M60.71,74.6c-1.12,1.34-3.17,2-4.8,2.39a76.16,76.16,0,0,1-12.24,1.35,226.36,226.36,0,0,0-23.2,2.84A99.79,99.79,0,0,0,8.89,83.77C6,84.65,3,85.71,0,86.42a40,40,0,0,0,5.17-.3c5.78-.62,15.35-2,22-1.8C39,84.62,66.63,80.2,66,76.6c-.42-2.34-4.4-2.08-5.28-2" fill="#f8a30e"/><path id="path6494" d="M4.61,86.18l.57-.05-.57.05" fill="#f57814"/><path id="path6496" d="M8.35,83.93h0m.07,0,.4-.13-.4.13m.41-.13.06,0-.06,0" fill="#fbd174"/><path id="path6498" d="M.63,86.43l.17-.08c.35,0,.7-.09,1.06-.16A5.8,5.8,0,0,0,2.75,86c1.31-.27,2.62-.64,3.81-1s2.47-.51,3.7-.83a78.68,78.68,0,0,1,11.31-1.86c3.86-.42,7.69-.87,11.57-1.06,3.39-.17,6.79-.25,10.18-.49,1.38-.18,2.75-.35,4.12-.61a75.81,75.81,0,0,0,10.47-2.78c2-.69,3.89-1.62,6-1.69h.25a4.11,4.11,0,0,1,1.57.25c-.61-1.08-2.21-1.37-3.48-1.42h0c1.49.06,3.42.45,3.7,2a.49.49,0,0,1,0,.12c0,3.46-25.36,7.62-37.58,7.62l-1.19,0H26c-6.57,0-15.39,1.23-20.83,1.81h0l-.57.05c-1.82.19-3.1.24-4,.25m52.24-7c-6.51,1.79-17.68,2.39-17.68,2.39a189.56,189.56,0,0,0-24.43,2.68c5.49-.77,15.17-1.43,25-2.21a95.68,95.68,0,0,0,17.08-2.86h0M7.07,84.33l.59-.18-.58.18h0m1.26-.39h.09l.4-.13h0l.06,0h0a95,95,0,0,1,10.22-2.35h0c-1.4.25-2.79.52-4.17.82-1.82.42-3.64.87-5.43,1.37l-1.17.33" fill="#f68213"/><path id="path6500" d="M0,86.43H0" fill="#d18527"/><path id="path6502" d="M5.43,84.86l1.44-.46-1.44.46" fill="#d1a48a"/><path id="path6504" d="M.06,86.43H0c1.82-.43,3.61-1,5.39-1.56l1.44-.46.2-.07h0l-.67.22c-.93.3-1.86.6-2.79.88h0c-.74.23-1.49.45-2.24.66l-.57.26-.74.08" fill="#cf781b"/><path id="path6506" d="M.8,86.35l.57-.26c.75-.21,1.5-.43,2.24-.66-.67.24-1.33.5-2,.78l.22,0c-.36.07-.71.12-1.06.16m2-.33c.78-.2,1.55-.5,2.27-.65l1.54-.32c-1.19.33-2.5.7-3.81,1M6.4,84.55l.67-.22h0l-.68.22" fill="#cf681c"/><path id="path6508" d="M19.11,81.42l.13,0,1.23-.21h0l-1.06.18-.3.06m1.36-.24q6-1,12.07-1.78c-4,.49-8,1.09-12.07,1.78" fill="#d1a48a"/><path id="path6510" d="M19.1,81.42h0l.3-.06-.31.06" fill="#cf681c"/><path id="path6512" d="M47.21,78.12A55.24,55.24,0,0,0,55.91,77a55.24,55.24,0,0,1-8.7,1.13M55.91,77h0" fill="#d1a48a"/><path id="path6514" d="M33.39,98.72c-8.47,0-14.27-4-18.51-6.44a51.4,51.4,0,0,0-7.23-3.55c-1.42-.77-.16-1,1.89-1a69.78,69.78,0,0,1,7.26.51c3.91.49,10.4.79,13.73,5.23s6,5.07,6,5.07a27.24,27.24,0,0,1-3.19.19" fill="#fbdd45"/><path id="path6516" d="M1.86,86.19,2.75,86a5.8,5.8,0,0,1-.89.17m4.7-1.14.37-.1q3-.83,6.09-1.44l.23-.05a189.28,189.28,0,0,1,24.6-3.93c.95-.08,2-.15,3.25-.22,5.76-.36,13.11-.82,17.2-2.49l.34-.22a11.66,11.66,0,0,0,1.67-.16A3.17,3.17,0,0,0,61.5,76a3.44,3.44,0,0,0,.36-.28h0a4.31,4.31,0,0,0,.37-.37l.05-.53s0-.1,0-.27c1.27,0,2.87.34,3.48,1.42a4.11,4.11,0,0,0-1.57-.25H64c-2.15.07-4,1-6,1.69A75.81,75.81,0,0,1,47.44,80.2c-1.37.26-2.74.43-4.12.61-3.39.24-6.79.32-10.18.49-3.88.19-7.71.64-11.57,1.06a78.68,78.68,0,0,0-11.31,1.86c-1.23.32-2.46.58-3.7.83" fill="#f36518"/><path id="path6518" d="M7.75,84.12,8.29,84h0l-.55.17" fill="#fbd174"/><path id="path6520" d="M7.66,84.15l.09,0L8.3,84l-.64.2m.66-.2h0" fill="#f68213"/><path id="path6522" d="M7.08,84.33l.58-.18L8.3,84h0l1.17-.33c1.79-.5,3.61-1,5.43-1.37,1.38-.3,2.77-.57,4.17-.82-3.21.61-6.21,1.28-8.51,2-1.25.37-2.42.68-3.51,1M32.54,79.4q5.53-.68,11.13-1.06l3.54-.22-.92.06c-1.87.15-3.68.27-5.24.36l-.25,0c-2.76.22-5.52.51-8.26.84M55.93,77c.46-.11.94-.23,1.44-.39h0c-.5.16-1,.28-1.44.39" fill="#f36518"/><path id="path6524" d="M19.41,81.36l1.06-.18-1.06.18" fill="#d08540"/><path id="path6526" d="M3.61,85.43h0c.93-.28,1.86-.58,2.79-.88-.93.3-1.86.6-2.79.88" fill="#ce5f1d"/><path id="path6528" d="M1.64,86.21c.64-.28,1.3-.54,2-.78.93-.28,1.86-.58,2.79-.88l.68-.22c1.09-.28,2.26-.59,3.51-1,2.3-.67,5.3-1.34,8.51-2l.31-.06,1.06-.18h0c4-.69,8-1.29,12.07-1.78,2.74-.33,5.5-.62,8.26-.84l.25,0c1.56-.09,3.37-.21,5.24-.36l.92-.06A55.24,55.24,0,0,0,55.91,77h0c.46-.11.94-.23,1.44-.39l.85,0h.42l-.34.22C54.21,78.49,46.86,79,41.1,79.31c-1.2.07-2.3.14-3.25.22a189.28,189.28,0,0,0-24.6,3.93l-.23.05Q9.95,84.13,6.93,85l-.37.1L5,85.37c-.72.15-1.49.45-2.27.65l-.89.17-.22,0" fill="#ce531f"/><path id="path6530" d="M5.43,63.66c1.67.14,3.3.42,5,.72,3.83.69,7.65,1.37,11.43,2.29,7.52,1.81,14.93,4.07,22.24,6.57a72.94,72.94,0,0,0,11,3.07,15.63,15.63,0,0,0,5.24.13,3,3,0,0,0,1.92-1.08l.05-.53a40.34,40.34,0,0,1,.4-4.2c.32-2,1-3.82-6.17-4.43S2.26,61.18,1,62.91c0,0,.17.1.58.29a30.63,30.63,0,0,0,3.82.46" fill="#f8a30e"/><path id="path6532" d="M56.16,66.17l-1.33-.11,1.33.11" fill="#fbd174"/><path id="path6534" d="M57,74.7a12.6,12.6,0,0,1-2.12-.22,87.32,87.32,0,0,1-8.66-2.23c-7.61-2-15.2-4.2-22.91-5.85-3.88-.83-7.78-1.55-11.72-2-.94-.12-1.88-.23-2.82-.32-1.33-.2-2.5-.41-3.51-.6.31,0,.61,0,.92.05,2.67.24,5.34.45,8,.7A153.61,153.61,0,0,1,30.75,66.6h.08c5,1.27,9.81,3,14.73,4.74a43.12,43.12,0,0,0,8,2.1,9.22,9.22,0,0,0,1.43.11c1.41,0,2.88-.36,3.39-1.8,1.12-3.18-1.25-4.86-4-5.74l.51,0,1.33.11.35,0c5.18.44,6.26,1.51,6.34,2.84-.08-1.32-1.15-2.39-6.29-2.83a15.5,15.5,0,0,1,4.24,1.3,1.54,1.54,0,0,1,1.12,1.79,8.77,8.77,0,0,1-1.11,3.26,3.79,3.79,0,0,1-2.19,1.93A5.67,5.67,0,0,1,57,74.7M62.85,69h0" fill="#f68213"/><path id="path6536" d="M55.07,76.31l-.87-.16.87.16m-.89-.16h0" fill="#d1a48a"/><path id="path6538" d="M61.5,76c.13-.09.24-.18.36-.28h0a3.44,3.44,0,0,1-.36.28" fill="#cf5a1e"/><path id="path6540" d="M32,69.41l-.15,0c-3.34-1-6.69-1.89-10.07-2.7Q27,67.9,32,69.41" fill="#d1a48a"/><path id="path6542" d="M10.38,64.38l-2-.34c.66.1,1.31.22,2,.34" fill="#cf681c"/><path id="path6544" d="M7.83,64h0c-.79-.12-1.59-.22-2.4-.29a27.51,27.51,0,0,1-3.95-.49L1.17,63h.08l.36.17a16,16,0,0,0,1.84.28h0c.67.08,1.33.13,2,.18.81.07,1.61.17,2.4.29" fill="#d1a48a"/><path id="path6546" d="M3.45,63.48a16,16,0,0,1-1.84-.28L1.25,63l3.05.22,1,.19H5c-.52,0-1,0-1.55,0" fill="#cf781b"/><path id="path6548" d="M7.83,64h0c-.79-.12-1.59-.22-2.4-.29-.66,0-1.32-.1-2-.18h0c.66.08,1.32.13,2,.18.81.07,1.61.17,2.4.29" fill="#d08e49"/><path id="path6550" d="M8.81,64l-1-.09c-.79-.12-1.59-.22-2.4-.29-.66,0-1.32-.1-2-.18.51,0,1,0,1.55,0h.3c1,.19,2.18.4,3.51.6" fill="#cf681c"/><path id="path6552" d="M55,71.21c-5,0-16.89-4.1-23.12-5.3-11.42-2.19-21.25-2.15-23.35-2.5-.88-.14.73-.28,3.68-.28,2.34,0,5.55.09,9,.32l.94.14c3.79.57,7.55,1.28,11.32,2A81.56,81.56,0,0,0,45,67.12h.45a22.93,22.93,0,0,0,5.1-.62s-13.32-.89-23.91-2.42c-1.76-.26-3.56-.47-5.33-.63,2.52.17,5.17.43,7.74.78C39.66,65.72,53,66.52,53,66.52c1.16.16,5.38,1.4,4.17,3.94-.25.53-1,.75-2.18.75" fill="#f9cd26"/><path id="path6554" d="M60.31,76.44A3.35,3.35,0,0,0,61.5,76a3.17,3.17,0,0,1-1.19.43" fill="#f36518"/><path id="path6556" d="M62.29,74.56h0a36.74,36.74,0,0,1,.39-3.93,10.53,10.53,0,0,0,.17-1.42V69a8.2,8.2,0,0,1-.17,1.59,36.74,36.74,0,0,0-.39,3.93" fill="#f68313"/><path id="path6558" d="M62.85,69h0" fill="#f68313"/><path id="path6560" d="M59.42,76.19c-4.33,0-11.81-2.59-16.72-4.3-1.15-.4-2.19-.77-3.1-1.07-6-2-19.49-5.42-26.86-6.26C11.32,64.4,10,64.22,8.81,64c.94.09,1.88.2,2.82.32,3.94.49,7.84,1.21,11.72,2,7.71,1.65,15.3,3.82,22.91,5.85a87.32,87.32,0,0,0,8.66,2.23A12.6,12.6,0,0,0,57,74.7a5.67,5.67,0,0,0,1.58-.21,3.79,3.79,0,0,0,2.19-1.93,8.77,8.77,0,0,0,1.11-3.26,1.54,1.54,0,0,0-1.12-1.79,15.5,15.5,0,0,0-4.24-1.3c5.14.44,6.21,1.51,6.29,2.83h0v.17a10.53,10.53,0,0,1-.17,1.42,40.34,40.34,0,0,0-.4,4.2l-.05.53a4.31,4.31,0,0,1-.37.37,5.28,5.28,0,0,1-2.44.46" fill="#f36518"/><path id="path6562" d="M54.2,76.15h0" fill="#f36518"/><path id="path6564" d="M54.13,76.14a78.84,78.84,0,0,1-10.08-2.9c-4-1.36-8-2.65-12-3.83,2.89.77,5.46,1.52,7.33,2.14l3.09,1.06c2.52.88,5.37,1.87,8.15,2.69,1.16.31,2.34.6,3.53.84" fill="#f36518"/><path id="path6566" d="M8.41,64,7.81,64h0l.58.09" fill="#fbd174"/><path id="path6568" d="M58.22,76.61a18.46,18.46,0,0,1-3.15-.3l-.87-.16h-.07c-1.19-.24-2.37-.53-3.53-.84-2.78-.82-5.63-1.81-8.15-2.69l-3.09-1.06c-1.87-.62-4.44-1.37-7.33-2.14Q27,67.91,21.81,66.67c-3.78-.92-7.6-1.6-11.43-2.29h0c-.66-.12-1.31-.24-2-.34L7.83,64l1,.09c1.19.18,2.51.36,3.93.52,7.37.84,20.83,4.27,26.86,6.26.91.3,1.95.67,3.1,1.07,4.91,1.71,12.39,4.3,16.72,4.3a5.28,5.28,0,0,0,2.44-.46c-.12.1-.23.19-.36.28a3.35,3.35,0,0,1-1.19.43h0a12.19,12.19,0,0,1-2.09.17" fill="#ce531f"/><path id="path6570" d="M139.93,35.75s0,0,0-.07c.3-1.45,1-2.82,1.3-4.26.16-.65.34-1.31.53-2l.13,0a6.06,6.06,0,0,1,.3.91,44,44,0,0,1-2,5.19.35.35,0,0,1-.2.16" fill="#f8f4f1"/><path id="path6572" d="M142.17,30.4a6.06,6.06,0,0,0-.3-.91l-.13,0,.75-2.45a.75.75,0,0,1,.33-.09.46.46,0,0,1,.37.18c-.33,1.09-.66,2.2-1,3.3" fill="#eee9e6"/><path id="path6574" d="M143.19,27.1a.46.46,0,0,0-.37-.18.75.75,0,0,0-.33.09l.13-.46a83.18,83.18,0,0,0,2.57-8.87l.19-.11c.12,3.05-1.17,6.1-2,9,0,.19-.11.37-.16.56" fill="#aeaeae"/><path id="path6576" d="M146.84,37.51h0c1.65-3.21,3.27-6.42,4.79-9.68.89-1.93,1.77-3.85,2.64-5.78a42.8,42.8,0,0,0,2.15-4.55h0s-1,3.29-1.66,4.83c-.8,1.94-1.69,3.82-2.55,5.73-.8,1.76-1.69,3.5-2.6,5.2a50.22,50.22,0,0,1-2.77,4.26" fill="#aeaeae"/><path id="path6578" d="M152.21,38.13c1.44-2.09,10.46-13,10.46-13a52.16,52.16,0,0,1-10.46,13" fill="#aeaeae"/><path id="path6580" d="M155.92,39.8s8.84-5.73,13.38-8.72c0,0-7.47,6.75-13.38,8.72" fill="#aeaeae"/><path id="path6582" d="M162.43,55.09a50,50,0,0,1,13.86-7.52s-6.87,4.24-13.86,7.52" fill="#aeaeae"/><path id="path6584" d="M170.81,54.77a36.1,36.1,0,0,1,10.63-3.61s-5.33,2.14-10.63,3.61" fill="#aeaeae"/><path id="path6586" d="M165.74,43.06a88,88,0,0,1,9.83-4.75s-5.66,3.94-9.83,4.75" fill="#aeaeae"/><path id="path6588" d="M21.32,63.46h-.19l.19,0" fill="#fad841"/><path id="path6590" d="M45.46,67.13H45a81.56,81.56,0,0,1-11.55-1.55c-3.77-.7-7.53-1.41-11.32-2l-.94-.14h.12c1.77.16,3.57.37,5.33.63,10.59,1.53,23.91,2.42,23.91,2.42a22.93,22.93,0,0,1-5.1.62" fill="#f9eb59"/><path id="path6592" d="M10.76,84.46a189.56,189.56,0,0,1,24.43-2.68s11.17-.6,17.68-2.39a95.68,95.68,0,0,1-17.08,2.86c-9.86.78-19.54,1.44-25,2.21" fill="#fac83b"/></g></g></g></g></svg>