<svg xmlns="http://www.w3.org/2000/svg" viewBox="0 0 158.92 133.33"><title>Pig</title><g id="Layer_2" data-name="Layer 2"><g id="svg2"><g id="g10"><g id="g12"><path id="path5892" d="M67.48,94.8S44.19,75.59,42,76.52c0,0-1.77,21.85,13.8,46a5,5,0,0,0,6.48-2.41c-.59-3.82-.86-19.41,5.16-25.34" fill="#292427"/><path id="path5894" d="M57.91,122.93h0a5.8,5.8,0,0,1-2.07-.38l-.49-.77.49.77a5.8,5.8,0,0,0,2.07.38m-2.59-1.19v0" fill="#292427"/><path id="path5896" d="M57.92,122.93h0a5.8,5.8,0,0,1-2.07-.38l-.49-.77,0,0v0c-.93-1.48-1.8-3-2.61-4.42,1,1.47,1.94,2.1,2.7,2.1,2.85,0,3.78-9.08,4.45-16.61.84-9.46-5.79-17.09-11.35-17.09-.23,0-.46,0-.68,0-5.68.66-1.09,18.15-1.09,18.15h-.08C41.86,90.34,41.9,79.81,42,77.16a5.07,5.07,0,0,1,.7.17h0c2.52.77,6,3.53,11,8.24a49.79,49.79,0,0,0,13.62,9.12l.12.11C63.06,99.16,62,108.74,62,115a36.67,36.67,0,0,0,.29,5.11l0,0a4.8,4.8,0,0,1-4.35,2.74h0" fill="#131211"/><path id="path5898" d="M55.84,122.55a7.49,7.49,0,0,0-2.91,4.06c-1,3,.87,3.8,1.91,3.24,1.64.93,5.72,1,7.7-1s1.48-6.43-.22-8.67a5,5,0,0,1-6.48,2.41" fill="#958389"/><path id="path5900" d="M52.93,126.61v0m2-3.29h0l.07-.06-.07.06" fill="#ccc1c3"/><path id="path5902" d="M57.85,130.48a6.48,6.48,0,0,1-3-.63,1.34,1.34,0,0,1-.66.16c-.74,0-1.53-.57-1.53-1.88a4.78,4.78,0,0,1,.28-1.52h0v0c0-.12.09-.24.13-.35h0s-.51,1.72.25,2.23a.35.35,0,0,0,.18.06c.67,0,1.19-2.46,2.3-3.69-.76,2.29-1.59,4.46,1.21,4.65h.45c2.65,0,5.14-1.61,5-5-.07-1.41-.25-1.84-.66-1.84-.65,0-1.87,1.08-4.17,1.08a8.09,8.09,0,0,1-2.73-.36l.07-.06a5,5,0,0,1,.88-.71,5.82,5.82,0,0,0,2.08.38,4.82,4.82,0,0,0,4.4-2.79,8.42,8.42,0,0,1,1.5,4.86,5.47,5.47,0,0,1-1.28,3.81,6.56,6.56,0,0,1-4.69,1.67" fill="#736067"/><path id="path5904" d="M53.57,114.6c-.59,0-1.26-.55-2-1.83-6-11.61-5.73-20.24-5.73-20.24.1-1.56.75-2.23,1.68-2.23,2.36,0,6.51,4.37,7.83,9.68,1.48,5.91.56,14.62-1.77,14.62" fill="#362f34"/><path id="path5906" d="M129.3,83.47c-1.7-.72-20,13-20,13s4.37,7.07,2,14.8c-.66,2.28-.18,3.12-.18,3.12s2.1,2.39,5.52-.24c0,0,15.09-17.2,12.66-30.68" fill="#292427"/><path id="path5908" d="M111.12,114.39s-3.65,3.65-3.47,6.34a1.49,1.49,0,0,0,2.15,1.14c3.06,1.2,7.37-.06,7.61-3.35s-.77-4.37-.77-4.37c-3.42,2.63-5.52.24-5.52.24" fill="#958389"/><path id="path5910" d="M107.65,120.72a5.93,5.93,0,0,1,1-3.14h0a5.89,5.89,0,0,0-1,3.13m3.17-6a4.05,4.05,0,0,1,.3-.32h0l-.3.32" fill="#ccc1c3"/><path id="path5912" d="M112.24,122.32a6.77,6.77,0,0,1-2.44-.45,1,1,0,0,1-.62.16,1.45,1.45,0,0,1-1.53-1.3h0a5.89,5.89,0,0,1,1-3.13c-.24.71-.88,2.87.13,3.13l.22,0c1,0,.75-2,1.71-3.26-.36,1.79-.72,3.46,1.31,3.59h.22a3.86,3.86,0,0,0,3.78-3.92c-.05-2.21-3.84.09-5.31-2.34l.12-.12.3-.32h0a3.35,3.35,0,0,0,2.4,1h0a5,5,0,0,0,3-1.13l0,0,.11-.08h0s.81.86.81,3.4c0,.3,0,.62,0,1-.18,2.47-2.65,3.8-5.17,3.8" fill="#736067"/><path id="path5914" d="M111.3,111.27c.16-.52.29-1,.4-1.55v0c-.11.5-.24,1-.4,1.53m.38-8.33a21.91,21.91,0,0,0-2.1-6h0a21.15,21.15,0,0,1,2.1,6h0" fill="#292427"/><path id="path5916" d="M113.53,115.38h0a3.37,3.37,0,0,1-2.41-1,2.25,2.25,0,0,1-.17-1,8.46,8.46,0,0,1,.35-2.1h0c.16-.51.29-1,.4-1.53-.14,1.68.36,2.42,1.25,2.42,2.07,0,6.23-4.07,9.17-9.71s1.91-8-1.06-8a12.75,12.75,0,0,0-4.49,1.07c-3.72,1.49-4.68,5-4.89,7.37a21.15,21.15,0,0,0-2.1-6c8.7-2.85,16.1-9.1,18.64-12.92.47.57.91,1.14,1.33,1.72,0,.26,0,.53,0,.8,0,12.88-12.93,27.62-12.93,27.62h0l-.11.08,0,0a5,5,0,0,1-3,1.13h0" fill="#131211"/><path id="path5918" d="M113.53,115.38h0m0,0a5,5,0,0,0,3-1.13,5,5,0,0,1-3,1.13m-2.41-1h0m5.4-.16.11-.08h0l-.11.08" fill="#191515"/><path id="path5920" d="M158.83,53.89c-.85-14.58-7-22.4-19.27-33.37S119.44,7.64,108.24,7.87,77.52,18.36,67,24.62c3.44,4,8,14.24,7.7,24S47.12,74.46,42.18,75a9.6,9.6,0,0,1-3.08,2.81,6.29,6.29,0,0,0,.86-.36c2.63-1.31,6.58,1.44,13.78,8.15A48.6,48.6,0,0,0,78.53,98.15c3.12,2.4,3.6,17.26,3.72,25a2.61,2.61,0,0,0,2.16,2,5,5,0,0,0,3.59-.78c2.4-3.83,9.94-15.58,14.26-26,11.62-.72,22.73-9.52,26-14.38,9.35,11.42,10.84,26.35,10.36,31.94,0,0,3.72,2.44,7.9-.93l0,0c.26-1.4,1.56-4.66,4.24-12.2,4-11.93,8.91-34.33,8.07-48.91" fill="#342e32"/><path id="path5922" d="M148.84,20.51s2.08,2,.76,3.65-3.65-1.53-.76-3.65m.4-2.46c-3.72-2.69-9-2.8-11,1.75l1.93,2.41s2.79-6.67,7.71-2.85c-1.47.66-3.63,5-.09,6.76s5.66-3.34,2.9-6.68c1.51-.63,2.4-.16,2.74-.89s-2.89-.91-4.15-.5" fill="#342e32"/><path id="path5924" d="M147.79,19.32a4.78,4.78,0,0,0-2.9-1.14,4.78,4.78,0,0,1,2.9,1.14m-2.91-1.14h0" fill="#342e32"/><path id="path5926" d="M146.85,25.51c-2.2-2-.33-5.56,1-6.15h0l-.05,0a4.78,4.78,0,0,0-2.9-1.14h0c-2.19,0-3.67,2.05-4.34,3.22l-.87-.77.83.84a5.14,5.14,0,0,0-.37.74h0L138.2,19.8a6.2,6.2,0,0,1,2.2-2.64c-1.2.93-1.52,2.07-1.36,2.31s.56,1,1,1c.19,0,.38-.15.59-.54a4.61,4.61,0,0,1,3.73-2.42,2.25,2.25,0,0,1,.38,0c1.67,0,4.53,1.55,3.78,2.06a4.55,4.55,0,0,0-1.62,6" fill="#151312"/><path id="path5928" d="M149.61,26.11l-.22,0s.79-.28,1.41-1.74c.94-2.2-.46-5-3.43-6.87-.32-.17-.35-.27-.19-.27a6,6,0,0,1,3.42,2.56c1.9,2.6,1,6.34-1,6.34" fill="#4e454d"/><path id="path5930" d="M153.42,18.47c0-.27-.43-.45-1.07-.55.64.1,1.1.28,1.07.55" fill="#342e32"/><path id="path5932" d="M153.36,18.6l-.12-.14a2.43,2.43,0,0,0-1.38-.28,6.93,6.93,0,0,0-1.83.23l-.13,0c-.12,0-.22-.11-.63-.4a6.64,6.64,0,0,1,1.8-.21,8.47,8.47,0,0,1,1.28.09c.64.1,1.1.28,1.07.55l0,.08h0l0,.05" fill="#151312"/><path id="path5934" d="M147.91,24.16a1.9,1.9,0,0,1-.45-1.3.78.78,0,0,0,0,.22,2.38,2.38,0,0,0,.43,1.08m-.43-1.65a2.84,2.84,0,0,1,.6-1.29,3.24,3.24,0,0,0-.6,1.29" fill="#342e32"/><path id="path5936" d="M148.58,24.65a1.67,1.67,0,0,1-1.53-1.16,2.44,2.44,0,0,1,1.59-3,.35.35,0,0,1,.2.05h0a2.73,2.73,0,0,0-.76.71,2.84,2.84,0,0,0-.6,1.29,1.4,1.4,0,0,0,0,.35,1.9,1.9,0,0,0,.45,1.3,1.11,1.11,0,0,0,.94.46h0a1.36,1.36,0,0,1-.3,0" fill="#151312"/><path id="path5938" d="M150.88,25.07s2.26-3.23-2-7c2.24,1.46,3.94,4.36,2,7" fill="#fff"/><path id="path5940" d="M84.41,125.17a2.61,2.61,0,0,1-2.16-2c-7.67,5.75-6,8.75-3.6,8.75-.12.72.48,1.67,4.2,1.31,4.79-.59,5.75-5.86,5.15-8.86a5,5,0,0,1-3.59.78" fill="#958389"/><path id="path5942" d="M138.58,116c-1.29.75-3.4,3.54-4.28,5.92s2,2.25,2,2.25,1.56,1.5,6.4.54c5-1.09,3.8-8.12,3.8-9.19a2.21,2.21,0,0,1,.05-.47l0,0c-4.18,3.37-7.9.93-7.9.93" fill="#958389"/><path id="path5944" d="M78.65,131.94h0m0,0h0m0,0h0m0,0h0m0,0h0m0,0h0m0,0h0m0,0h0m0,0h0m0,0h0m0,0h0m0,0h0m0,0h0M82,123.38l.25-.19h0l-.25.19" fill="#ccc1c3"/><path id="path5946" d="M81.38,133.33c-2.2,0-2.74-.65-2.74-1.23,0-.06,0-.11,0-.16h-.17c-1.74-.1-3-1.85-.21-5.13-.31.81-1,2.67-.42,3.12a.33.33,0,0,0,.21.07c.73,0,2-2.5,3.3-3.83-1.34,2.67-2.23,5.86.5,5.86s4-2.23,4.4-4.46-.45-1-2.23-1.78a5.31,5.31,0,0,1-2.24-2.24l.21-.16.25-.19h0a2.61,2.61,0,0,0,2.16,2h0a4,4,0,0,0,.83.09h0a5.32,5.32,0,0,0,2.75-.87h0a8.82,8.82,0,0,1,.16,1.69c0,3-1.33,6.68-5.31,7.17a13.75,13.75,0,0,1-1.47.08" fill="#736067"/><path id="path5948" d="M138.46,116l.12-.07-.12.07" fill="#ccc1c3"/><path id="path5950" d="M139.71,125c-2.54,0-3.44-.86-3.44-.86h-.08c-.4,0-2.07-.08-2.07-1.42a2.4,2.4,0,0,1,.18-.83,15.19,15.19,0,0,1,1.66-3.12v0s-1.72,3.07-.53,4a.14.14,0,0,0,.1.05c.42,0,.94-2.4,2.28-3.7-1.15,2.18-1.52,4.47,1.48,5a4,4,0,0,0,.69.06,5.44,5.44,0,0,0,5-4.82c0-1.41-.26-1.81-1-1.81a12.28,12.28,0,0,0-1.84.29,6,6,0,0,1-1.09.11,3.36,3.36,0,0,1-3-1.57,4,4,0,0,1,.44-.34l.12-.07h0a6.32,6.32,0,0,0,3.22.85h0a7.31,7.31,0,0,0,4.65-1.78l0,0a2.21,2.21,0,0,0-.05.47h0c0,.35.13,1.35.13,2.58,0,2.49-.55,5.88-3.93,6.61a15.44,15.44,0,0,1-3,.32" fill="#736067"/><path id="path5952" d="M158.83,53.89c-.82-14.18-6.66-22-18.29-32.49h0C152.17,31.91,158,39.71,158.83,53.89M67,24.62h0l0,0,0,0m10.69-6L79,18h0l-1.29.66" fill="#989597"/><path id="path5954" d="M85.62,123.12c-1.75,0-2.44-4.37-2.9-10.53-.59-8.13-.76-10.75-4.14-16.51S69.1,83.3,67.5,81.27c-.46-.57-.76-.85-.88-.85-.31,0,.51,1.78,2.82,5,3.21,4.49,5.67,7.61,2.71,8.8a3.71,3.71,0,0,1-1.33.21c-2.11,0-5.32-1-7.76-1.94a50.53,50.53,0,0,0,8.43,3.86A50.12,50.12,0,0,1,53.74,85.57c-5.06-4.71-8.51-7.47-11-8.24a26.31,26.31,0,0,1,5-3.33c7.88-4.3,26.78-14.61,28.07-25.21S73.18,32.32,71.31,29C69.94,26.6,69,25.11,69.8,23c-1,.56-1.9,1.11-2.76,1.62h0l0,0c3-1.77,6.64-3.85,10.65-5.94L79,18c-5.28,3.24-8.21,5.78-4.62,12.47,3.95,7.37,9,21.2-6.83,32.35-15.27,10.24-20.3,12.92-7.9,23.35,4.76,3.14,8.16,4.8,9.82,4.8,1.85,0,1.56-2-1.38-6.41-2.6-4.64-3.35-6.71-2.88-6.71.28,0,1,.71,2,2,2.7,3.59,14.56,10.72,16,22.94.36,3.1,1.9,4.53,3.9,4.53,5.93,0,15.94-12.54,11.91-32.14-1.24-4.47-.88-6.73.06-6.73,1.1,0,3,3.12,4.07,9.42,1.37,8,4.23,10.81,8,10.81a14.34,14.34,0,0,0,5.6-1.46c6.47-2.88,5.51-8.39,1.44-15.82s-3.11-18.21,1-18.69h.19c3.68,0-2.12,13.92,11.07,28.53,7,8.62,8.87,12.46,14.62,13.18h.23c5.68,0,11.61-26.12,9.83-42.79-1.48-14-7.63-23-14.59-30.19l0-.07C152.17,31.91,158,39.71,158.83,53.89h0c.06,1.11.09,2.27.09,3.46,0,14.12-4.27,33.46-7.89,44.62a186.84,186.84,0,0,0,7-31.57l0,0a199.81,199.81,0,0,1-5.87,24.91c-2.79,9.1-7.34,15.53-10.14,15.53-1.29,0-2.21-1.38-2.41-4.5-.63-9.89-7.91-20.54-14.09-27-8.55-9.31-7.53-19.89-7-21.67.3-1.06.12-1.84-.25-1.84s-.59.36-.94,1.25c-2.37,8.71,3.47,18.95,7.45,23.44S119,91.17,113.11,93.71a14.44,14.44,0,0,1-5.28,1.44c-2.37,0-3.6-1.53-3.86-5.08a84,84,0,0,0-2.71-16.92c-.63-2.14-1.12-3-1.41-3-.46,0-.4,2.18.48,5.13,2.28,11.6,1.61,20.91-1,27a102.12,102.12,0,0,1-11.68,19.46c-.79,1-1.45,1.4-2,1.4" fill="#211d1e"/><path id="path5956" d="M140.5,21.47h0l0-.07h0l0,.07" fill="#211d1e"/><path id="path5958" d="M140.5,21.47l-.83-.84.87.77,0,.07" fill="#131110"/><path id="path5960" d="M150.78,102.73h0" fill="#211d1e"/><path id="path5962" d="M150.83,102.59h0" fill="#211d1e"/><path id="path5964" d="M150.85,102.52h0" fill="#211d1e"/><path id="path5966" d="M150.87,102.45h0" fill="#211d1e"/><path id="path5968" d="M150.9,102.37h0" fill="#211d1e"/><path id="path5970" d="M150.92,102.31v0" fill="#211d1e"/><path id="path5972" d="M150.94,102.25s0,0,0,0,0,0,0,0" fill="#211d1e"/><path id="path5974" d="M151,102.17v0" fill="#211d1e"/><path id="path5976" d="M78.53,98.15h0" fill="#211d1e"/><path id="path5978" d="M78.48,98.14h0" fill="#211d1e"/><path id="path5980" d="M78.44,98.14h0" fill="#211d1e"/><path id="path5982" d="M71.58,96.39h0" fill="#211d1e"/><path id="path5984" d="M71.54,96.37h0" fill="#211d1e"/><path id="path5986" d="M158,70.36a199.81,199.81,0,0,1-5.87,24.91c-4.08,13.3-11.92,20.91-12.55,11s-7.91-20.54-14.09-27c-8.55-9.31-7.53-19.89-7-21.67s-.34-2.79-1.19-.59c-2.37,8.71,3.47,18.95,7.45,23.44S119,91.17,113.11,93.71s-8.72,2-9.14-3.64a84,84,0,0,0-2.71-16.92c-1.61-5.5-2.37-2.71-.93,2.11,2.28,11.6,1.61,20.91-1,27a102.12,102.12,0,0,1-11.68,19.46c-3.3,4-4.31-1-4.91-9.13S82,101.84,78.58,96.08,69.1,83.3,67.5,81.27s-1.28-.34,1.94,4.15,5.67,7.61,2.71,8.8c-1.8.72-6-.59-9.09-1.73a45.9,45.9,0,0,0,15.47,5.66c3.12,2.4,3.6,17.26,3.72,25a2.61,2.61,0,0,0,2.16,2,5,5,0,0,0,3.59-.78c2.4-3.83,9.94-15.58,14.26-26,11.62-.72,22.73-9.52,26-14.38,9.35,11.42,10.84,26.35,10.36,31.94,0,0,3.72,2.44,7.9-.93l0,0c.26-1.4,1.56-4.66,4.24-12.2A186.6,186.6,0,0,0,158,70.4l0,0" fill="#100f0d"/><path id="path5988" d="M39.1,77.78h0a6.29,6.29,0,0,0,.86-.36,3.09,3.09,0,0,1,1.39-.32,3.85,3.85,0,0,1,.66.06h0a3.81,3.81,0,0,0-.66,0,3.05,3.05,0,0,0-1.39.31,6.29,6.29,0,0,1-.86.36" fill="#100f0d"/><path id="path5990" d="M42,77.16h0" fill="#100f0d"/><path id="path5992" d="M42.71,77.33a5.07,5.07,0,0,0-.7-.17h0a5.07,5.07,0,0,1,.7.17h0" fill="#100f0d"/><path id="path5994" d="M39.1,77.78A9.6,9.6,0,0,0,42.18,75c4.94-.51,32.31-16.6,32.56-26.36,0-.26,0-.53,0-.8h0c0-9.51-4.37-19.29-7.72-23.19h0c.86-.51,1.78-1.06,2.76-1.62-.84,2.11.14,3.6,1.51,6,1.87,3.29,5.73,9.16,4.44,19.76S55.56,69.7,47.68,74a26.31,26.31,0,0,0-5,3.33,4.67,4.67,0,0,0-1.36-.23,3.09,3.09,0,0,0-1.39.32,6.29,6.29,0,0,1-.86.36" fill="#100f0d"/><path id="path5996" d="M42.18,75c4.94-.51,32.31-16.6,32.56-26.36s-4.26-20-7.7-24C73.78,19.08,71.13.41,70.41.05S65.35,1.49,60.05,5.22s-8.55,9.52-6.14,15.55c-7.83-4.82-16.63.36-20.84,4.69s-8.8,12.77-8.8,12.77c-2.74-.13-7.2,3.85-9.47,5.77s-3.24,3.47-9,4.67-6,8.26-5.75,15.94,10.06,7.9,18,7.66c4.91,2.28,8.27,3.12,12.82,2.28,3.53,3.31,5.91,4,8.25,3.23A9.6,9.6,0,0,0,42.18,75" fill="#342e32"/><path id="path5998" d="M53.75,39.85a8.94,8.94,0,0,1-3.4-.71c-.79-.29-1.57-.55-2.33-.77a3.53,3.53,0,0,0,.57-1.8c.1-1.19-.22-2.2-.71-2.25h0c-.48,0-.94.9-1,2.06a3.82,3.82,0,0,0,.19,1.7,39.74,39.74,0,0,0-10.2-1.35c-.56,0-1.09,0-1.59,0a4.47,4.47,0,0,0,.2-1c.1-1.19-.22-2.2-.71-2.25h0c-.48,0-.94.9-1,2.06a4.71,4.71,0,0,0,.07,1.33c-.74.06-1.34.14-1.77.21-.76,0-1.47-.06-2.11-.06-1.53-.82-.58-3.93,1.72-7.29a8.87,8.87,0,0,0-.81,2.86c3.78-9.52,13.84-11.68,13.84-11.68h-.26a12.12,12.12,0,0,0-5.45,1.46l.41-.27a13.18,13.18,0,0,1,6.37-1.68c6.5,0,12.11,5.08,13.57,10.75s-1.63,8.68-5.46,8.68M34.84,30.12A2.77,2.77,0,0,1,37.2,31.8c-.05-.22-.1-.43-.16-.64l.11.19c-.36-1.82-1.3-3.1-2.4-3.1-.89,0-1.89.84-2.77,2.94a4.06,4.06,0,0,1,.49-.48,10.16,10.16,0,0,0-.44.93,4.47,4.47,0,0,1,2.81-1.52m12.52-.43a2.74,2.74,0,0,1,2.35,1.68c-.36-1.81-1.3-3.1-2.4-3.1-.89,0-1.88.84-2.77,2.94a4.47,4.47,0,0,1,2.82-1.52" fill="#4e454d"/><path id="path6000" d="M57.72,25.67S52,17.33,56.24,11.09c5-7.23,10.31-7.35,10.65-7.35h0A13.54,13.54,0,0,1,67,18a24,24,0,0,1-9.31,7.72m-1.88-8.79A17.16,17.16,0,0,0,58.17,25h0C62.76,20.79,70,17.83,67.34,7.88h0a.06.06,0,0,0,0,0h0v0a24.35,24.35,0,0,0-1-2.95l0,0s-10.47,3-10.47,12.06" fill="#211d1e"/><path id="path6002" d="M37.37,78.09c-1.84,0-3.85-1-6.52-3.54a20.44,20.44,0,0,0,2.68,2.17h.16c3.37,0,5.36-5.44,6.58-8.13s1.67-4.44,2.87-4.44a1.22,1.22,0,0,1,.32,0,11.13,11.13,0,0,0,2.14.19A14.56,14.56,0,0,0,49.17,64c.82-.22,1.15-.44.58-.44h-.09a16.67,16.67,0,0,1-2.43.18c-3.28,0-5.17-1.14-6.26-2.28a7.76,7.76,0,0,1-1.43-2.28s0,0,0,0A6.35,6.35,0,0,0,41,62.7c1,1.27.7,1-1,4.69-1.57,4.12-7.55,6.41-10.88,7.4q.84-.08,1.74-.24a18.38,18.38,0,0,1-3.29.32c-3.07,0-5.87-.9-9.53-2.6-.77,0-1.55,0-2.34,0a6,6,0,0,1,.78,0c3,0,5.2-4.2,5.2-8.93a14.2,14.2,0,0,0-1.6-6.65c-3-5.57-7.51-8.48-11.31-8.48A6.72,6.72,0,0,0,7,48.43c-.81.21-1.52.38-2.15.51a5.51,5.51,0,0,0-2,1.22l-.34.34,0,0a8.22,8.22,0,0,0-1.61,3l0,.06c.8-2.56,2.28-4.38,4.95-4.94,5.75-1.2,6.71-2.76,9-4.67s6.58-5.77,9.34-5.77h.13a87.53,87.53,0,0,1,6.43-10h.07s.69-.68,1.88-1.77C28.75,31.19,26.57,37,27.7,37.09c.54,0,1.21-.07,2-.07h.13a2,2,0,0,0,1,.21,2.11,2.11,0,0,0,.35,0s.28-.06.79-.13,1.22.06,1.87.1a.88.88,0,0,0,.05.15c-1.36.15-2.82.37-4.38.68a42.76,42.76,0,0,1,4.48-.5.54.54,0,0,0,.39.28h0a.7.7,0,0,0,.51-.34l1.56-.05c4.51.47,9.47,1.35,12.52,2.67l-.5-.11A47,47,0,0,0,35.66,38.4c-6.46,0-12.71,1-15,3-4.08,3.47-7,6.71-4.92,7.91,8.15,4.79,8.51,12.94,7.67,17.37s4.91,3.12,3.36,4.07-5.64.72-3.36,1.8a9.75,9.75,0,0,0,4.36,1.1,12.7,12.7,0,0,0,5.94-1.7c5-2.63,7.31-7.19,5.88-9.34-1.18-1.77-1.8-5.23-1.06-5.23.17,0,.4.17.7.56,2.49,4.6,7,4.83,9.66,4.83h.83c1,0,1.5,0,1.37.44-.43,1.29-4,2.19-6.42,2.19a6.08,6.08,0,0,1-.77,0h-.08c-2.28,0-5.89,9.71-4.11,9.83h.05c.75,0,1.94-1.06,3-2.12A12.71,12.71,0,0,1,45,70.91c.12,0,.11.19,0,.64-.33.69-.18,1,.33,1,1.57,0,6.55-2.88,12.13-7.11,7.43-5.63,12.7-10.66,12.58-16s-5.87-7.31-13.3-8a11.36,11.36,0,0,1,8.63.48c1.71.83,3.31,1.62,4.46,1.62,1.5,0,2.22-1.35,1.41-5.69C69.88,30.61,67.91,26.68,66,26.68a1.45,1.45,0,0,0-.41.06c-1.77.52-4.53,3.85-5.15,3.85-.09,0-.13-.08-.12-.25.12-1.32.6-4.07,5.87-8C71.86,17.4,70.6,5.05,69.82,0l.33,0a.6.6,0,0,1,.26.05c.34.17,1.12,4.46,1.12,9.52,0,5.6-1,12.14-4.49,15.05h0c3.35,3.9,7.71,13.68,7.72,23.19,0,.27,0,.54,0,.8C74.49,58.37,47.12,74.46,42.18,75a9.6,9.6,0,0,1-3.08,2.81,5.18,5.18,0,0,1-1.73.31M12.93,72.3h0m0,0a30,30,0,0,1-6.09-.73h0l0,0h0a31,31,0,0,0,6,.71m-6.56-.85A10.17,10.17,0,0,1,2.1,69.31a10.15,10.15,0,0,0,4.22,2.14h0M2.1,69.31l0,0,0,0m0,0h0m0,0H2" fill="#211d1e"/><path id="path6004" d="M30.79,37.23a2,2,0,0,1-1-.21c.64,0,1.35,0,2.11.06-.51.07-.79.13-.79.13a2.11,2.11,0,0,1-.35,0" fill="#2f282c"/><path id="path6006" d="M30.77,28.23s-7.42,1.12-8.68-7.14S18.73,4,19.29,3.86s7.14,4.06,11.9,6.72S38.47,16.19,39.31,21a88.06,88.06,0,0,0-8.54,7.28" fill="#342e32"/><path id="path6008" d="M29.89,28.28h0m0,0c.4,0,.69,0,.81,0h0c-.12,0-.41,0-.81,0" fill="#989597"/><path id="path6010" d="M30.7,28.24h.07s.69-.68,1.88-1.77h0c-1.19,1.09-1.88,1.77-1.88,1.77H30.7" fill="#191616"/><path id="path6012" d="M39.31,21a.13.13,0,0,0,0-.06.13.13,0,0,1,0,.06" fill="#211d1e"/><path id="path6014" d="M39.3,20.88v0m0-.06v0m0-.05v0m0-.06v0m0-.05h0m0-.09h0" fill="#989597"/><path id="path6016" d="M29.89,28.28h-.14c-2.06,0-6.61-.82-7.63-7,0,0,0-.05,0-.08s0-.06,0-.09h0c-.18-1.19-.38-2.39-.59-3.57.61,2.48,1.89,6.65,3.9,8.2a4.07,4.07,0,0,0,2.39,1c1.49,0,1.87-1.45-1-2.58-6.65-3.9-3.72-13.6-4.5-14.8-.61-.94-1.4-2.68-1.2-2.68s.19.14.42.47c1.08,1.49,4.2,3.65,6.53,5.75,2.06,1.84,4.63,4.42,6.43,4.42a1.58,1.58,0,0,0,.69-.15c1.67-.81.42-3.49-1.95-5.3a13.06,13.06,0,0,1,6,8.75h0a.29.29,0,0,1,0,.09h0a0,0,0,0,0,0,0v.19h0a.13.13,0,0,1,0,.06h0c-2.81,2.11-5.14,4.13-6.66,5.51-1.19,1.09-1.88,1.77-1.88,1.77H30.7c-.12,0-.41,0-.81,0h0M23,9.7s-1.25,9,3,12.71a11.54,11.54,0,0,0,6.52,2h.66s0-.12,0-.33a13,13,0,0,0-5.89-10.77C23.4,10.47,23,9.7,23,9.7" fill="#211d1e"/><path id="path6018" d="M33.19,24.42a13,13,0,0,0-5.88-11.1C23.4,10.47,23,9.7,23,9.7s-1.25,9,3,12.71a11.39,11.39,0,0,0,7.18,2" fill="#ed6b78"/><path id="path6020" d="M33.53,15.18c-.76,0-2.2-.66-4.24-2.09-3.92-2.77-9-7.5-7.83-7.5a.47.47,0,0,1,.16,0s1.26.62,3,1.53a18,18,0,0,0-2-.81s6.29,3.48,9.55,6.48c.14.12.22.17.25.17A19,19,0,0,0,27.23,8.6c2.84,1.62,5.84,3.53,6.49,4.73s.58,1.85-.19,1.85" fill="#4e454d"/><path id="path6022" d="M27.23,8.6c-.93-.53-1.84-1-2.65-1.46A21,21,0,0,1,27.23,8.6" fill="#989698"/><path id="path6024" d="M32.34,13s-.11-.05-.25-.17c-3.26-3-9.55-6.48-9.55-6.48a18,18,0,0,1,2,.81c.81.43,1.72.93,2.65,1.46A19,19,0,0,1,32.34,13" fill="#a7a2a5"/><path id="path6026" d="M33,24.44h0m.06,0h0m0,0h0m0,0h0m0,0h0m0,0h0m0,0h0m0,0h0s0-.12,0-.33c0,.21,0,.33,0,.33h0" fill="#201718"/><path id="path6028" d="M32.53,24.45a11.81,11.81,0,0,1-5-1.13,2.22,2.22,0,0,1,.54.07,5,5,0,0,0,1.15.19c1.12,0,1.12-.89,1.12-2.59,0-1.93-3.47-7-5.13-7a.67.67,0,0,0-.5.21c-1.32,1.44.48,7.43.48,7.43C21.9,17.55,23,9.7,23,9.7s.42.77,4.33,3.62A13,13,0,0,1,33.2,24.09c0,.21,0,.33,0,.33h-.66" fill="#e54a57"/><path id="path6030" d="M35.41,35.73c-.1,1.2-.58,2.12-1.07,2.06s-.81-1.06-.71-2.25.58-2.11,1.07-2.06.81,1.06.71,2.25" fill="#100f0d"/><path id="path6032" d="M35.21,35c0,.46-.19.84-.41.83s-.39-.39-.38-.86.19-.84.41-.83.39.39.38.86" fill="#fff"/><path id="path6034" d="M48.59,36.57c-.1,1.19-.57,2.12-1.07,2.06s-.81-1.06-.71-2.25.58-2.11,1.07-2.06.81,1.06.71,2.25" fill="#100f0d"/><path id="path6036" d="M48.39,35.85c0,.47-.19.84-.41.84s-.39-.39-.38-.86S47.79,35,48,35s.39.4.38.86" fill="#fff"/><path id="path6038" d="M66.31,4.82S49.9,9.49,58.17,25c5-4.56,13.18-7.67,8.14-20.13" fill="#ed6b78"/><path id="path6040" d="M37.2,31.8a2.77,2.77,0,0,0-2.36-1.68A4.47,4.47,0,0,0,32,31.64a10.16,10.16,0,0,1,.44-.93,3.8,3.8,0,0,1,2.32-1.05A2.67,2.67,0,0,1,37,31.16c.06.21.11.42.16.64" fill="#2f282c"/><path id="path6042" d="M49.71,31.37a2.74,2.74,0,0,0-2.35-1.68,4.47,4.47,0,0,0-2.82,1.52c.89-2.1,1.88-2.94,2.77-2.94,1.1,0,2,1.29,2.4,3.1" fill="#2f282c"/><path id="path6044" d="M32,31.19s3-3.53,5.17.16c-.65-3.28-3.2-4.84-5.17-.16" fill="#100f0d"/><path id="path6046" d="M44.5,30.75s3-3.53,5.17.16c-.66-3.28-3.2-4.84-5.17-.16" fill="#100f0d"/><path id="path6048" d="M40.27,68.6c1.28-2.78,1.74-4.75,3.19-4.4A13.94,13.94,0,0,0,49.17,64c.87-.23,1.18-.47.49-.44-4.82.7-7.35-.7-8.69-2.1a11,11,0,0,1-1.45-2.25A6.35,6.35,0,0,0,41,62.7c1,1.27.7,1-1,4.69-1.57,4.12-7.55,6.41-10.88,7.4q.84-.08,1.74-.24a20.44,20.44,0,0,0,2.68,2.17c3.47.17,5.5-5.39,6.74-8.12" fill="#100f0d"/><path id="path6050" d="M39.46,69.27s-3.34,4-7.81,5.06c1.16,1.4,2.27,2.11,3.71,1.2s3.42-4.31,4.1-6.26" fill="#ec3967"/><path id="path6052" d="M31.69,74.37h0m0,0,0,0h0l0,0m7.44-4.2c.14-.31.25-.61.35-.88h0a9.43,9.43,0,0,1-.35.88" fill="#100f0d"/><path id="path6054" d="M32.47,75.19a6.88,6.88,0,0,1-.78-.82h0l0,0c4.47-1,7.81-5.06,7.81-5.06-.1.27-.21.57-.35.88s-.3.64-.47,1C37,73.22,35.43,74.89,33.32,75a2,2,0,0,0-.85.21" fill="#d02945"/><path id="path6056" d="M20.07,56.69c-3.48-6.46-9-9.34-13.06-8.26-.81.21-1.52.38-2.15.51C0,50.69-.17,57.38.06,64.61c.22,6.92,8.24,7.78,15.62,7.71a6.3,6.3,0,0,1,.79,0c4.43,0,7.07-9.1,3.6-15.58" fill="#e36778"/><path id="path6058" d="M14.92,72.33a35.88,35.88,0,0,1-8-.74,11.08,11.08,0,0,0,1.8.23,20.94,20.94,0,0,0,2.15.12c4.42,0,6.46-1.75,6.46-5.42a15.46,15.46,0,0,0-.37-3.1C15.39,56.21,11.32,49.69,6.32,49a4.4,4.4,0,0,0-.62,0,3.87,3.87,0,0,0-2,.55,5.65,5.65,0,0,0-.82.64,5.51,5.51,0,0,1,2-1.22c.63-.13,1.34-.3,2.15-.51a6.69,6.69,0,0,1,1.74-.22H9a4.3,4.3,0,0,0,1.56,1.9c4.44,3.71,6.11,7.18,7,11.14.24,1.11.8,1.64,1.37,1.64,1.41,0,2.89-3.24-.42-8.69a21.59,21.59,0,0,1,1.57,2.49,14.2,14.2,0,0,1,1.6,6.65c0,4.73-2.19,8.93-5.2,8.93a6.3,6.3,0,0,0-.79,0h-.76M.88,53.55a8.22,8.22,0,0,1,1.61-3,9.33,9.33,0,0,0-1.61,3" fill="#d64757"/><path id="path6060" d="M16.91,63.42C15.39,56.21,11.32,49.69,6.32,49a4,4,0,0,0-2.63.51,5.74,5.74,0,0,0-1.16,1A9.34,9.34,0,0,0,.84,53.68c-.9,3-.91,6.85-.78,10.93s3,6,6.8,7c8.6,1.35,11.54-1.16,10.05-8.17" fill="#f68092"/><path id="path6062" d="M2,69.25a6.33,6.33,0,0,1-2-4.64C0,63.43,0,62.26,0,61.13c0,1.13,0,2.3.06,3.48a6.33,6.33,0,0,0,2,4.64H2" fill="#fac1cb"/><path id="path6064" d="M10.82,71.94a20.94,20.94,0,0,1-2.15-.12h.5a11.61,11.61,0,0,0,7.22-2.38A15.79,15.79,0,0,1,9.71,71.1a11,11,0,0,1-9.24-5,9.06,9.06,0,0,0,5.85,5.4A10.06,10.06,0,0,1,2,69.25a6.33,6.33,0,0,1-2-4.64C0,63.43,0,62.26,0,61.13v-.32c.08,1.37.32,2.67.9,2.67h0c1.29-.12,1.64-4,.47-6.09-.2-.49-.14-.71.07-.71.54,0,2.09,1.46,3,3.52.81,1.88,1.88,2.87,2.86,2.87a1.57,1.57,0,0,0,.89-.29c1.16-.82,1.05-3.28,0-5.15-.28-.48-.24-.69,0-.69.64,0,2.84,1.76,3.89,3.85.46.93,1.08,1.37,1.61,1.37,1.07,0,1.78-1.79.14-5-1.79-3.5-5.7-7.49-8.91-7.49A3.54,3.54,0,0,0,2,51.26a8.85,8.85,0,0,1,.57-.76,5.74,5.74,0,0,1,1.16-1,3.87,3.87,0,0,1,2-.55,4.4,4.4,0,0,1,.62,0c5,.68,9.07,7.2,10.59,14.41a15.46,15.46,0,0,1,.37,3.1c0,3.67-2,5.42-6.46,5.42M8.92,58.21a5.52,5.52,0,0,1,1,4.12c-.1,2,.06,3.31.84,3.31a1,1,0,0,0,.32-.06c2-.71.28-5.43-2.2-7.37m-7-.3a5.49,5.49,0,0,1,.59,4.2c-.33,2.08-.29,3.39.56,3.39l.25,0c2.07-.5.86-5.37-1.4-7.56" fill="#f35b70"/><path id="path6066" d="M3,65.5c-.85,0-.89-1.31-.56-3.39a5.49,5.49,0,0,0-.59-4.2C4.15,60.1,5.36,65,3.29,65.47L3,65.5" fill="#cf252e"/><path id="path6068" d="M10.8,65.64c-.78,0-.94-1.28-.84-3.31a5.52,5.52,0,0,0-1-4.12c2.48,1.94,4.21,6.66,2.2,7.37a1,1,0,0,1-.32.06" fill="#cf252e"/><path id="path6070" d="M6.87,71.59h0l0,0,0,0" fill="#f35b70"/><path id="path6072" d="M6.87,71.59h0" fill="#1e1514"/><path id="path6074" d="M8.67,71.82a11.08,11.08,0,0,1-1.8-.23h0c.63.1,1.23.17,1.8.23" fill="#af262c"/><path id="path6076" d="M6.81,71.57a4.05,4.05,0,0,1-.47-.12l.47.12" fill="#d17375"/><path id="path6078" d="M6.82,71.57h0l-.47-.12h0l.5.12" fill="#1e1514"/><path id="path6080" d="M9.17,71.83h-.5c-.57-.06-1.17-.13-1.8-.23l0,0-.5-.12a9.06,9.06,0,0,1-5.85-5.4,11,11,0,0,0,9.24,5,15.79,15.79,0,0,0,6.68-1.65,11.61,11.61,0,0,1-7.22,2.38" fill="#c92f35"/><path id="path6082" d="M.59,60.43c-.94-4.21.59-9.12,3.39-9.24,0,0-3.16,1.88-3.39,9.24" fill="#fbccd6"/><path id="path6084" d="M50,40.13c-3.93-2.17-9-2.72-13-2.72h-.53L35,37.28l0-.07c1.1-.09,2.13-.13,3.1-.13,5.69,0,9.35,1.45,11.89,3.05" fill="#989698"/><path id="path6086" d="M29.47,38c1.56-.31,3-.53,4.38-.68l.1.18a42.76,42.76,0,0,0-4.48.5m5.42-.55.11-.18,1.45.13-1.56.05" fill="#8d8b8e"/><path id="path6088" d="M34,37.51l-.1-.18L35,37.21l0,.07-.11.18-.94,0" fill="#7a7b7c"/><path id="path6090" d="M67.34,7.88h0m0,0h0m0,0a24.35,24.35,0,0,0-1-2.95,24.35,24.35,0,0,1,1,2.95" fill="#201718"/><path id="path6092" d="M58.17,25a17.16,17.16,0,0,1-2.33-8.07c0-9.08,10.47-12.06,10.47-12.06l0,0a24.35,24.35,0,0,1,1,2.95v0h0a.06.06,0,0,1,0,0h0a13.48,13.48,0,0,1,.34,6.17h0s-.38-5.86-3.31-5.86a3.18,3.18,0,0,0-1.44.41c-4.24,2.22-5.35,7.37-4.44,10.9A1.82,1.82,0,0,0,60.37,21c1.8,0,4.32-1.74,5.41-2.86-2.05,2.73-5.19,4.59-7.61,6.78h0" fill="#e54a57"/><path id="path6094" d="M69.7,11.12a2.58,2.58,0,0,1-.11-.93c-.08-3.53-1.7-7.13-2.77-7.13h-.07C60.62,4,56.48,10,56.48,10c.46-3.75,7.82-6.89,9.73-7.88a6.12,6.12,0,0,1,2.2-.9c.52,0,.87.4,1.1,1.51a33.35,33.35,0,0,1,.19,8.44" fill="#4e454d"/><path id="path6096" d="M30.62,69c-5.7,0-4.69-7.4-6.9-13.19-2.34-6.11-7.09-8.16-5.11-10.86,0,0,4.21-6.41,15.59-6.41l1.36,0A81.51,81.51,0,0,1,48.47,40c.33.1.65.2,1,.31h0l-.45-.2c5.56,1.24,9.49,3.32,10.87,6.73,2.17,5.34-3.08,14.37-9.73,14.37A7.29,7.29,0,0,1,48.52,61c-7.37-1.62-9-5-9.34-6.65-.09-.38-.31-.56-.59-.56-.91,0-2.44,1.93-1.75,5.23.9,4.32-.39,9.25-5.21,9.89a9.37,9.37,0,0,1-1,.07m-8-18.22h0c-4.53-9,5.48-10.61,5.48-10.61-8.8.72-8.53,7.19-5.48,10.61" fill="#4e454d"/><path id="path6098" d="M49.42,40.28c-.3-.11-.62-.21-1-.31l.5.11.45.2" fill="#3b3439"/><path id="path6100" d="M22.64,50.77c-3.05-3.42-3.32-9.89,5.48-10.61,0,0-10,1.6-5.48,10.61" fill="#a7a2a5"/><path id="path6102" d="M31.54,29.73a16.73,16.73,0,0,1,7.32-7.36,28.74,28.74,0,0,0-7.32,7.36" fill="#989698"/><path id="path6104" d="M30.73,32.59a8.87,8.87,0,0,1,.81-2.86,28.74,28.74,0,0,1,7.32-7.36,12.12,12.12,0,0,1,5.45-1.46h.26S34.51,23.07,30.73,32.59" fill="#a7a2a5"/><path id="path6106" d="M88.17,101.82c-4,0-3.27-9.56-12.25-18.53-8-8-11.11-15.77-4.65-19.9S83.16,51.24,80.83,40.9s-4.22-18.36,7.41-24.82c0,0,13-6.52,24.73-6.52a22.43,22.43,0,0,1,8.09,1.35c12.67,4.91,28.78,19.91,31.36,35.94.09.55.18,1.12.25,1.69-.8-5.2-2.9-11.77-7.64-15.57a41.34,41.34,0,0,1,7.19,20.13c.14,2.22.36,3.16.54,3.16s.45-1.75.28-4.34c1.31,15.25-1.83,33.44-10.53,33.44h-.16c-9.82-.26-19.65-21.2-19.13-33.86.08-1.58-1.24-2.51-3-2.51-3.9,0-9.87,4.82-6.09,17.76,3.36,10.33,3.36,16.28-1.55,17.06a4.38,4.38,0,0,1-.5,0c-4.66,0-8.1-10.34-9.84-16.59-.67-2.36-1.74-3.41-2.79-3.41-1.82,0-3.56,3.15-2.9,8.07,1,7.75.52,25.58-6.2,29.2a4.86,4.86,0,0,1-2.23.7M72.88,77.08A40.71,40.71,0,0,1,84.91,95c.22.59.37.85.45.85.58,0-2.5-13.61-12.48-18.79M111,12c8.45,0,19.94,3.13,30.42,16.54-1.32-4.68-12.56-17.68-28.49-17.68A32.27,32.27,0,0,0,98.54,14.4,31.76,31.76,0,0,1,111,12" fill="#4e454d"/><path id="path6108" d="M141.44,28.54C131,15.13,119.47,12,111,12a31.76,31.76,0,0,0-12.48,2.4A32.27,32.27,0,0,1,113,10.86c15.93,0,27.17,13,28.49,17.68" fill="#a7a2a5"/><path id="path6110" d="M153,51.92c-.09-1.15-.22-2.28-.37-3.38.19,1.22.31,2.36.37,3.38" fill="#989698"/><path id="path6112" d="M152.76,56.26c-.18,0-.4-.94-.54-3.16A41.34,41.34,0,0,0,145,33c4.74,3.8,6.84,10.37,7.64,15.57.15,1.1.28,2.23.37,3.38.17,2.59,0,4.34-.28,4.34" fill="#a7a2a5"/><path id="path6114" d="M85.36,95.87c-.08,0-.23-.26-.45-.85a40.71,40.71,0,0,0-12-17.94c10,5.18,13.06,18.79,12.48,18.79" fill="#a7a2a5"/><path id="path6116" d="M112.78,110.26c-.39,0-.59-.25-.49-.77a54.19,54.19,0,0,0,.44-7.23c-.12-2.79,2-4.79,3.65-4.79,1.5,0,2.7,1.58,1.82,5.56-1,4.62-4.18,7.23-5.42,7.23" fill="#362f34"/><path id="path6118" d="M53.38,127.69c-.24,0-.49-2.3,1.68-3.51a7.77,7.77,0,0,0-1.55,3.23c0,.2-.08.28-.13.28" fill="#d6c4ca"/><path id="path6120" d="M78.6,128.62c0-2.41,1.48-3.15,2.49-4a12.46,12.46,0,0,0-2.49,4" fill="#d6c4ca"/><path id="path6122" d="M108.82,119.73c-.15,0-.16-1.07.38-2.3.46-1,.92-1.42,1.09-1.42s.11.15-.07.4a14.46,14.46,0,0,0-1.2,2.87c-.07.31-.15.45-.2.45" fill="#d6c4ca"/><path id="path6124" d="M135.38,121.46c-.16,0,0-1.08.71-2.23.57-.91,1.07-1.25,1.26-1.25s.11.16-.11.39a14.43,14.43,0,0,0-1.6,2.67c-.11.29-.2.42-.26.42" fill="#d6c4ca"/></g></g></g></g></svg>