<svg xmlns="http://www.w3.org/2000/svg" viewBox="0 0 121.13 133.33"><title>Rhino</title><g id="Layer_2" data-name="Layer 2"><g id="svg2"><g id="g10"><g id="g12"><path id="path4670" d="M91.31,110a43.47,43.47,0,0,0-10.5.8,2.17,2.17,0,0,0-.66.81,1.81,1.81,0,0,0,1.38,2.53,6.19,6.19,0,0,0,2.23,0,45.43,45.43,0,0,1,5.76-1.4c4.36-.73,9.32.37,13.51,1.47,3.26.86,6,1.72,7.74,1.71,3.85,0,4.17-2.41,4.17-2.41-5.53,3.69-10.12-2.84-23.63-3.48" fill="#94acd8"/><path id="path4672" d="M83.65,114.09h.11l1-.31h0l-1,.31h-.12" fill="#94acd8"/><path id="path4674" d="M111,115.27a15.43,15.43,0,0,1-3.63-.46c-2.76-.69-5.43-1.7-8.18-2.46a33.62,33.62,0,0,0-8.34-1.22h-.24a6.53,6.53,0,0,0-3.57.84,17.94,17.94,0,0,0-2.27,1.8l-1,.31h-.11c-.25,0-.51.07-.76.09.44-.27.88-.57,1.32-.89a12.25,12.25,0,0,0,1.87-1.7A15.38,15.38,0,0,0,87.49,110c.6,0,1.22,0,1.84,0s1.31,0,2,0c10.57.5,15.67,4.6,20,4.6a6.27,6.27,0,0,0,1.43-.16,2.64,2.64,0,0,0,.12.71,6.51,6.51,0,0,1-.9.11c-.33,0-.66,0-1,0" fill="#526fb5"/><path id="path4676" d="M121.13,113s-.87-1.13-1.9.32-1.9,2.86-3.31,2.6a1.83,1.83,0,0,0,1.09.27,2.87,2.87,0,0,1-3.93-.66,3.11,3.11,0,0,1,1.9-4.24c-.21.15-.35.77-.35.77s3.72-3,6.5.94" fill="#2f3e51"/><path id="path4678" d="M116.26,115.92l-.34,0h0l.34,0c1.21,0,2-1.29,3-2.63a2,2,0,0,1,.65-.62h0a2,2,0,0,0-.65.62c-.94,1.34-1.76,2.63-3,2.63M114.63,112h0m0,0h0m0,0h0m0,0h0" fill="#949ea7"/><path id="path4680" d="M115.41,116.66a3.11,3.11,0,0,1-2.33-1.16,1.63,1.63,0,0,1-.17-.38,2.64,2.64,0,0,1-.12-.71v-.1a3.07,3.07,0,0,1,2.19-3c-.21.15-.35.77-.35.77h0a5.46,5.46,0,0,1,3-1.05,3.76,3.76,0,0,1,2.43.88h0a3.61,3.61,0,0,0-2-.58,5.83,5.83,0,0,0-3.9,2.06s-.26-.19.15-1a2.88,2.88,0,0,0-.81,2.6,2.08,2.08,0,0,0,2.19,1.43,2.47,2.47,0,0,0,.34,0,1.42,1.42,0,0,1-.6-.88,1.23,1.23,0,0,0,.61.15,3.39,3.39,0,0,0,2.59-1.93,1.68,1.68,0,0,1,1.18-1,2,2,0,0,0-.65.62c-.94,1.34-1.76,2.63-3,2.63l-.34,0h0a2,2,0,0,0,1,.28H117a2.87,2.87,0,0,1-1.6.5" fill="#1c212a"/><path id="path4682" d="M116.33,115.23a1.74,1.74,0,0,1-1-.29,1.58,1.58,0,0,0,.43,0,3.26,3.26,0,0,0,2.78-1.92c-.15.82-1.07,2.16-2.26,2.16" fill="#455d76"/><path id="path4684" d="M54.38,94.85S40.76,82.31,27.46,88.43-2.35,118.15,1.79,122.11s19.91,8.08,26.65,2.2S25,107.91,41.11,106.58C50,105.84,54.79,101,54.38,94.85" fill="#94acd8"/><path id="path4686" d="M16.31,123.6a.15.15,0,0,1-.15-.14c-.08-1.08-.55-2.61-1.79-2.83a2.2,2.2,0,0,0-.36,0c-1.2,0-2,1.08-2.8,1.92l-.24-.1c0-1,.28-2.42-.58-3.13a1.9,1.9,0,0,0-1.24-.47,8.3,8.3,0,0,0-2.35.72l-.17-.14c0-1,0-2.51-.74-3.32a1.89,1.89,0,0,0-1.35-.57,1.57,1.57,0,0,0-.61.11,6.39,6.39,0,0,0-1.56,1.28,1.71,1.71,0,0,1-.63.32,11.7,11.7,0,0,0-.57,2.44h0c.71-7.34,14.72-25.89,26.29-31.22a18.36,18.36,0,0,1,6.27-1.62h0a18.36,18.36,0,0,0-6.27,1.62,35.1,35.1,0,0,0-7.3,4.75A13,13,0,0,1,24.45,91a6,6,0,0,1,1.39-.18,3.64,3.64,0,0,1,2.23.69,5.86,5.86,0,0,1,2.06,3.05A9.27,9.27,0,0,1,29,102.83a51.84,51.84,0,0,1-3.7,4,39.63,39.63,0,0,0-4.1,4.86,28.35,28.35,0,0,0-3.06,5.82c-.72,2-1,4-1.67,6a.14.14,0,0,1-.13.1m1.16-26.48c-1.14,1.24-2.5,2.29-3.69,3.49a47.63,47.63,0,0,0-3.51,3.88A32.67,32.67,0,0,0,5,112.54h.13a52.84,52.84,0,0,1,5.69-8.17c2.06-2.56,4.57-4.68,6.7-7.16l-.06-.08" fill="#6a87c3"/><path id="path4688" d="M17.15,127.21c-.95,0-1.91-.15-2.86-.28h0c.56.08,1.12.14,1.68.2a15.73,15.73,0,0,0-2-3.32,2.29,2.29,0,0,0-1.54-.83,1.46,1.46,0,0,0-.49.09,3.41,3.41,0,0,0-1.61,1.55.16.16,0,0,1-.13.06.12.12,0,0,1-.13-.14c.09-1.11.26-2.59-.59-3.48a2,2,0,0,0-1.4-.72,1.24,1.24,0,0,0-.33,0,1,1,0,0,0-.25,0h0a1.77,1.77,0,0,0-.66.19h0a4.73,4.73,0,0,0-1,.62,4.75,4.75,0,0,0-.44-2.25,2,2,0,0,0-1.66-1.13A1.57,1.57,0,0,0,3,118a6.18,6.18,0,0,0-1.8,1.48c0,.06,0,.13,0,.19h0a11.7,11.7,0,0,1,.57-2.44,1.71,1.71,0,0,0,.63-.32,6.39,6.39,0,0,1,1.56-1.28,1.57,1.57,0,0,1,.61-.11,1.89,1.89,0,0,1,1.35.57c.77.81.73,2.28.74,3.32l.17.14a8.3,8.3,0,0,1,2.35-.72,1.9,1.9,0,0,1,1.24.47c.86.71.59,2.16.58,3.13l.24.1c.75-.84,1.6-1.92,2.8-1.92a1.47,1.47,0,0,1,.36,0c1.24.22,1.71,1.75,1.79,2.83a.15.15,0,0,0,.15.14.14.14,0,0,0,.13-.1c.63-2,.95-4,1.67-6a28.35,28.35,0,0,1,3.06-5.82,39.63,39.63,0,0,1,4.1-4.86,51.84,51.84,0,0,0,3.7-4,9.27,9.27,0,0,0,1.16-8.29,5.86,5.86,0,0,0-2.06-3.05,3.64,3.64,0,0,0-2.23-.69,6,6,0,0,0-1.39.18,13,13,0,0,0-4.29,2.2,35.1,35.1,0,0,1,7.3-4.75,18.36,18.36,0,0,1,6.27-1.62h0a18.51,18.51,0,0,0-3.39.58l.12,0c1.43.72,1.63,2.12,1.57,3.58a23.59,23.59,0,0,0,.3,6.92c.57,2.21,1.47,4.36,2.12,6.55l-.06.16a15.16,15.16,0,0,0-6.24,7.57,24.22,24.22,0,0,0-1,5.48,14.2,14.2,0,0,1-1,4.37c-1.61,3.43-5.47,4.34-9,5.14m-7.07-1.16c-.55-.15-1.08-.3-1.6-.47h0c.52.17,1,.32,1.6.47h0" fill="#4e6aaf"/><path id="path4690" d="M16,127.13c-.56-.06-1.12-.12-1.68-.2a2.64,2.64,0,0,0,0-.29c0-1.37-1.22-3.48-2.11-3.48h0c-.79,0-1.87,1.61-2.11,2.89-.55-.15-1.08-.3-1.6-.47a1.28,1.28,0,0,0,.57-.63,3.31,3.31,0,0,0,.21-1.25h0c0-1.42-.61-3-1.48-3.32a1.24,1.24,0,0,1,.33,0,2,2,0,0,1,1.4.72c.85.89.68,2.37.59,3.48a.12.12,0,0,0,.13.14.16.16,0,0,0,.13-.06A3.41,3.41,0,0,1,12,123.07a1.46,1.46,0,0,1,.49-.09,2.29,2.29,0,0,1,1.54.83,15.73,15.73,0,0,1,2,3.32" fill="#3c549e"/><path id="path4692" d="M3.9,123.62l-.11-.06h0l.11.06h0" fill="#c0cfe8"/><path id="path4694" d="M3.9,123.62l-.11-.06.15,0a.36.36,0,0,0,0,.09m1.58-2.15a.49.49,0,0,0,0-.12h0c0-1.54-.74-3.35-1.74-3.35h0a1.24,1.24,0,0,0-.31,0,5.62,5.62,0,0,0-2.25,1.6c0-.06,0-.13,0-.19A6.18,6.18,0,0,1,3,118a1.57,1.57,0,0,1,.76-.2,2,2,0,0,1,1.66,1.13,4.75,4.75,0,0,1,.44,2.25c-.12.09-.24.2-.37.31" fill="#3c549e"/><path id="path4696" d="M18.61,127.25c-.48,0-1,0-1.46,0h0c.49,0,1,0,1.46,0,3.81,0,7.4-.82,9.83-2.94,6.49-5.65-2.68-15.61,11-17.54h0c-13.63,1.93-4.46,11.89-10.95,17.54-2.43,2.12-6,2.94-9.83,2.94" fill="#c0cfe8"/><path id="path4698" d="M18.61,127.25c-.48,0-1,0-1.46,0,3.54-.8,7.4-1.71,9-5.14a14.2,14.2,0,0,0,1-4.37,24.22,24.22,0,0,1,1-5.48,15.16,15.16,0,0,1,6.24-7.57l.06-.16c-.65-2.19-1.55-4.34-2.12-6.55A23.59,23.59,0,0,1,32,91c.06-1.46-.14-2.86-1.57-3.58l-.12,0a18.51,18.51,0,0,1,3.39-.58,27.25,27.25,0,0,0-.64,5h0v.13c0,.23,0,.46,0,.69a18,18,0,0,0,6.31,14.17c-13.63,1.93-4.46,11.89-10.95,17.54-2.43,2.12-6,2.94-9.83,2.94" fill="#3c549e"/><path id="path4700" d="M0,122.28c.44,1.57,4.61,1.9,5.24.32S5,118,3.73,118-.39,120.7,0,122.28" fill="#ede9c6"/><path id="path4702" d="M0,122.28c.44,1.57,4.61,1.9,5.24.32S5,118,3.73,118-.39,120.7,0,122.28" fill="#ede9c6"/><path id="path4704" d="M3.15,123.63a4.32,4.32,0,0,0,.64-.07h0a4.32,4.32,0,0,1-.64.07" fill="#ede9c6"/><path id="path4706" d="M3.79,123.56h0" fill="#adbbb3"/><path id="path4708" d="M3.79,123.56h0l.15,0h0l-.15,0m-.37-5.51a1.24,1.24,0,0,1,.31,0,1.24,1.24,0,0,0-.31,0" fill="#364c7b"/><path id="path4710" d="M3,123.63a4.84,4.84,0,0,1-1.8-.33h.16a2.4,2.4,0,0,0,1.12-.26,4.5,4.5,0,0,0,2.07-3.44,1.2,1.2,0,0,0-1.33-1.41H3a2.93,2.93,0,0,1,.39-.16,1.24,1.24,0,0,1,.31,0h0c1,0,1.74,1.81,1.74,3.35a.49.49,0,0,1,0,.12,5.8,5.8,0,0,0-1.54,2.06l-.15,0h0a4.32,4.32,0,0,1-.64.07H3" fill="#dad297"/><path id="path4712" d="M3.82,124.62c.44,1.57,4.61,1.9,5.23.33s-.24-4.65-1.54-4.6-4.12,2.7-3.69,4.27" fill="#ede9c6"/><path id="path4714" d="M3.82,124.62c.44,1.57,4.61,1.9,5.23.33s-.24-4.65-1.54-4.6-4.12,2.7-3.69,4.27" fill="#ede9c6"/><path id="path4716" d="M6.82,120.54h0a1.77,1.77,0,0,1,.66-.19,2,2,0,0,0-.66.19m.67-.19h0m0,0h0" fill="#45608b"/><path id="path4718" d="M6.73,126c-1.29,0-2.67-.49-2.91-1.36h0a1.56,1.56,0,0,1,0-.8,1.61,1.61,0,0,0,.94,1.42,3.62,3.62,0,0,0,1.57.35,2.26,2.26,0,0,0,1.86-.78,3.6,3.6,0,0,0-.15-3.69,1.56,1.56,0,0,0-1.24-.58,2,2,0,0,1,.66-.19h0c1,0,1.73,1.8,1.73,3.35A3.31,3.31,0,0,1,9.05,125a1.28,1.28,0,0,1-.57.63h0a3.51,3.51,0,0,1-1.75.4" fill="#dad297"/><path id="path4720" d="M10.08,127c.34,1.24,3.64,1.5,4.13.26s-1-4.1-2-4.07-2.46,2.57-2.11,3.81" fill="#ede9c6"/><path id="path4722" d="M12.9,128a1.65,1.65,0,0,0,1.29-.72,1.65,1.65,0,0,1-1.29.72" fill="#ede9c6"/><path id="path4724" d="M12.38,128a4,4,0,0,1-1.11-.15h.17c1.12,0,2.1-.55,1.84-2-.15-.83-.51-2.21-1.53-2.21h-.17a1.26,1.26,0,0,0-.48.2,1.75,1.75,0,0,1,1.09-.76h0c.89,0,2.11,2.11,2.11,3.48a2.64,2.64,0,0,1,0,.29h0a1.47,1.47,0,0,1-.08.3h0a.14.14,0,0,0,0,.06,1.65,1.65,0,0,1-1.29.72,4.41,4.41,0,0,1-.52,0" fill="#dad297"/><path id="path4726" d="M57.54,59.26s-20.47-16.74-28.16-34c0,0-1.41-4.17-4.51-4.74S8.76,26.12,11.29,33.2,29.63,60.85,44.56,64.45s20.38,0,13-5.19" fill="#94acd8"/><path id="path4728" d="M39.64,62.7c-13.31-6.2-26.1-23.2-28.35-29.5A5.49,5.49,0,0,1,11,31.36C11,28,14.1,25,17.46,23.05l-.13.08h0l0,0h0l0,0h0c-2.81,1.71-5.42,4.12-6.09,6.82a5.08,5.08,0,0,0,0,.78,4.19,4.19,0,0,0,4,4.18h.17a7.38,7.38,0,0,0,2.29-.48,6.81,6.81,0,0,0,4.08-1.85c.66-.6,1.26-1.27,1.94-1.85a4.79,4.79,0,0,1,1.87-1.21,2.46,2.46,0,0,1,.6-.07c2.1,0,3.64,2.73,4.6,4.25A60.61,60.61,0,0,0,38.29,43a56.51,56.51,0,0,1,4.25,4.5c1.09,1.4,2,2.83,1.77,4.67S43,55.54,42.18,57.1a21.23,21.23,0,0,0-1.1,2.61c-.52,1-1,2-1.44,3M24.17,33.24a4.14,4.14,0,0,0-2,.49,29.44,29.44,0,0,1-4,1.85c-.73.26-1.46.49-2.2.72a7.31,7.31,0,0,0-1.36.34c-.6.36,0,1.45.22,1.84a31,31,0,0,0,5.89,7.74q1.17,1.39,2.4,2.73c1.43,1.54,2.9,3,4.47,4.45s3.22,2.62,4.84,3.92c.85.68,2.69,2.13,4.06,2.13A1.5,1.5,0,0,0,38,58.24c.58-1.77,0-4-.37-5.77a40,40,0,0,0-4.94-12.15c-3.52-5.84-6.56-7.08-8.51-7.08M17.48,23h0" fill="#6683bc"/><path id="path4730" d="M17.46,23.05h0m0,0c2.65-1.57,5.44-2.51,6.94-2.51a3.09,3.09,0,0,1,.45,0,3.09,3.09,0,0,0-.45,0,8.2,8.2,0,0,0-2.13.37h-.08a21.37,21.37,0,0,0-4.28,1.85h0l0,0h-.12l-.3.18" fill="#b9c6df"/><path id="path4732" d="M41.08,59.71a21.23,21.23,0,0,1,1.1-2.61c.78-1.56,1.9-3.15,2.13-4.91s-.68-3.27-1.77-4.67A56.51,56.51,0,0,0,38.29,43a60.61,60.61,0,0,1-7.65-9.27c-1-1.52-2.5-4.25-4.6-4.25a2.46,2.46,0,0,0-.6.07,4.79,4.79,0,0,0-1.87,1.21c-.68.58-1.28,1.25-1.94,1.85a6.81,6.81,0,0,1-4.08,1.85,11.53,11.53,0,0,0,3.65-2.25,14.78,14.78,0,0,0,3.87-5.77,6.85,6.85,0,0,0,.49-4.39c.13.23.27.48.42.72l.07.11a3.8,3.8,0,0,0-.11.62h0a5.86,5.86,0,0,0,.18,2.25l0,.13h0l0,0v0h0c.51,1.26,1.92,2.71,3,2.81h.11a.86.86,0,0,0,.48-.13h0c.48-.3.36-1.41-.05-2.65,4.12,8.82,11.49,17.46,17.61,23.72a91.54,91.54,0,0,0-6.23,10M17.23,23.19h0m0,0h0m0,0,0,0,0,0m0,0,0,0,0,0m0,0,.13-.08h0l.3-.18-.45.27m.46-.27h0m0,0h0m0,0h0m0,0h0m0,0h0m7.26-1.51a4.06,4.06,0,0,0-.42-.53l-.22-.21h-.12a8.2,8.2,0,0,0-2.13.37,8.2,8.2,0,0,1,2.13-.37,3.09,3.09,0,0,1,.45,0h0l.14,0a2.07,2.07,0,0,0,.09.46c0,.07,0,.14.08.22m-3-.34h0m0,0h0m0,0h0" fill="#4963a3"/><path id="path4734" d="M15.09,35a4.19,4.19,0,0,1-4-4.18,5.08,5.08,0,0,1,0-.78c.67-2.7,3.28-5.11,6.09-6.82a14.6,14.6,0,0,0-5.61,5.52c0,2.5,1.1,4.89,3.88,5.6a6.38,6.38,0,0,0,1.55.19,4.18,4.18,0,0,0,.5,0,7.38,7.38,0,0,1-2.29.48h-.17m2.14-11.78h0m0,0h0m0,0h0m0,0h0" fill="#3c569d"/><path id="path4736" d="M17.78,22.86h0m0,0h0m0,0h0m0,0h0m0,0,0,0,0,0m0,0a21.37,21.37,0,0,1,4.28-1.85,21.37,21.37,0,0,0-4.28,1.85m4.29-1.86h0m0,0h0m0,0h0" fill="#6683bc"/><path id="path4738" d="M17.05,34.5a6.38,6.38,0,0,1-1.55-.19c-2.78-.71-3.91-3.1-3.88-5.6a14.6,14.6,0,0,1,5.61-5.52h0l0,0h0l0,0h0l.45-.27h.12l0,0h0a21.37,21.37,0,0,1,4.28-1.85h.08a8.2,8.2,0,0,1,2.13-.37h.12l.22.21a4.06,4.06,0,0,1,.42.53,7,7,0,0,0,.38.8,6.85,6.85,0,0,1-.49,4.39,14.78,14.78,0,0,1-3.87,5.77,11.53,11.53,0,0,1-3.65,2.25,4.18,4.18,0,0,1-.5,0" fill="#2e4385"/><path id="path4740" d="M90.23,95.45c-3.4-24.89-2-32.14-4.56-38.52S65.37,25,59.33,24.23c-11.16,7.69,8.33,8.07-4.67,13.39,0,0-7.51,20.45-11.22,27.8-4.24,8.42-10.07,16.7-10.35,26.49-.35,11.85,8.14,18.25,19.41,21.39,8.13,2.27,19.45,5.91,27.46,2.34,8.78-3.91,11.58-10.62,10.27-20.19" fill="#869eca"/><path id="path4742" d="M72,117.14a36.11,36.11,0,0,1-4.71-.33l.18,0a41.14,41.14,0,0,0,4.34.27,22.07,22.07,0,0,0,8.14-1.44,19.68,19.68,0,0,1-8,1.48" fill="#4c67aa"/><path id="path4744" d="M86.08,111.59a11.86,11.86,0,0,0,3-7.92h0a11.22,11.22,0,0,0-1.16-5,25.89,25.89,0,0,0-10-10.1c-.45-.24-.91-.47-1.39-.68a10.5,10.5,0,0,0,.65-1.46,18.31,18.31,0,0,0,.94-5.74,38.83,38.83,0,0,0-.1-4.18c4.3-.15,8-1,10-2.53.39,5.26,1,12.14,2.28,21.51a31.48,31.48,0,0,1,.3,4.22c0,4.86-1.37,8.83-4.45,11.92" fill="#4c67aa"/><path id="path4746" d="M39.39,106.77A18,18,0,0,1,33.08,92.6a18,18,0,0,0,6.31,14.17h0m-6.3-14.92v0m0-.07h0" fill="#273c80"/><path id="path4748" d="M42.88,109.3a25.13,25.13,0,0,1-3.49-2.53A18,18,0,0,1,33.08,92.6c0-.23,0-.46,0-.69v-.13h0c0-.68.08-1.34.15-2a19.62,19.62,0,0,0,.45,3.76c.7,3.3,2.56,6.45,5.71,7.88a7.45,7.45,0,0,0,3.07.66,8.81,8.81,0,0,0,5.38-2c2.22-1.73,3.85-4.06,5.9-6A60.67,60.67,0,0,0,49.51,99a59.66,59.66,0,0,0-6.63,10.3" fill="#4c67aa"/><path id="path4750" d="M48.92,47.52S33,68.35,39.4,72.76c1.6,1.1,4,.16,7-.77,3.77-1.21,8.44-2.41,13.5.66,9,5.48,28.69,5,29.41-.83s-.73-20.46-7-26.3-33.37,2-33.37,2" fill="#94acd8"/><path id="path4752" d="M39.38,72.75h0m0,0h0m0,0h0m0,0h0m0,0h0m0,0h0m0,0h0m0,0a.1.1,0,0,1,0,0,.1.1,0,0,0,0,0m0,0h0m0,0h0m0,0v0m0,0h0m0,0c-1.52-1.28-1.54-3.65-.75-6.43-.79,2.78-.77,5.15.75,6.43m-.75-6.43v0" fill="#94acd8"/><path id="path4754" d="M77.08,75.38A31.47,31.47,0,0,1,69,74.59a115.9,115.9,0,0,1-11.57-3.9,10.35,10.35,0,0,0-4.15-.87,17.58,17.58,0,0,0-7.41,2.07,17,17,0,0,1-2.48,1l.52-.15a10,10,0,0,1-2.75.51,3,3,0,0,1-1.78-.5h-.15a.1.1,0,0,1,0,0h-.07c-1.52-1.28-1.54-3.65-.75-6.43h0v0l0-.1a6.64,6.64,0,0,0,.51,2.3,3.87,3.87,0,0,0,3.9,2.18,13.09,13.09,0,0,0,2.9-.4,44.18,44.18,0,0,1,9.93-1.56,19.91,19.91,0,0,1,2.18.12,32.17,32.17,0,0,1,6.69,1.69,60.73,60.73,0,0,0,6.14,2.08,6.81,6.81,0,0,0,1.49.17A6.28,6.28,0,0,0,76,71.28,4.55,4.55,0,0,0,78,67.18c-.28-1.85-1.56-3.57-2.39-5.21a10,10,0,0,1-1.22-6.27l-.14-.17c-1.42.12-2.77.61-4.19.77a23.43,23.43,0,0,1-2.78.15c-.5,0-1,0-1.49,0a54,54,0,0,1-8.42-.93,20,20,0,0,1-6.64-2.66A12.51,12.51,0,0,1,47.15,50L48,48.79c.89.63,1.86,1.25,2.89,1.84h0a29.71,29.71,0,0,0,2.82,1.42,13.58,13.58,0,0,0,3.91,1.61,7.86,7.86,0,0,0,1.81.21h.3a33.44,33.44,0,0,0,6.33.6,29.84,29.84,0,0,0,4.36-.31,19.72,19.72,0,0,0,10.72-4.93,6.5,6.5,0,0,1-1,2.87c-.46.36-.93.7-1.41,1-.58.56-1.21,1.06-1.77,1.65a4.86,4.86,0,0,0-1.44,3.45A5.89,5.89,0,0,0,75.86,60h0v0h0c.06.18.12.37.19.55a8,8,0,0,0,1.88,3.69c1.1,1.27,2.12,3.33,3.63,4.06,5,2.39,1.19,7-2.17,7.06-.72,0-1.51,0-2.32,0M40.21,73.13a3.46,3.46,0,0,0,1,.13,6.51,6.51,0,0,0,1-.1,6.11,6.11,0,0,1-1,.07,5.72,5.72,0,0,1-.58,0,4,4,0,0,1-.48-.08M44,72.75h0m15.9-.1a13.27,13.27,0,0,0-4.64-1.76,13.27,13.27,0,0,1,4.64,1.76m-4.64-1.76h0" fill="#526fb5"/><path id="path4756" d="M41.19,73.26a3.46,3.46,0,0,1-1-.13,4,4,0,0,0,.48.08,5.72,5.72,0,0,0,.58,0,6.11,6.11,0,0,0,1-.07,6.51,6.51,0,0,1-1,.1" fill="#324a96"/><path id="path4758" d="M43.93,72.75h0m0,0c.75-.22,1.55-.49,2.39-.75A21.84,21.84,0,0,1,53,70.71a12.35,12.35,0,0,1,2.16.18A13.3,13.3,0,0,0,53,70.71c-3.45,0-6.55,1.29-9.07,2m11.25-1.85h0" fill="#4c67aa"/><path id="path4760" d="M76.6,76.49c-5.89,0-12.51-1.26-16.75-3.84h0a13.27,13.27,0,0,0-4.64-1.76h0A12.35,12.35,0,0,0,53,70.71,21.84,21.84,0,0,0,46.35,72c-.84.26-1.64.53-2.39.75h0l-.52.15a17,17,0,0,0,2.48-1,17.58,17.58,0,0,1,7.41-2.07,10.35,10.35,0,0,1,4.15.87A115.9,115.9,0,0,0,69,74.59a31.47,31.47,0,0,0,8.06.79c.81,0,1.6,0,2.32,0,3.36,0,7.14-4.67,2.17-7.06-1.51-.73-2.53-2.79-3.63-4.06a8,8,0,0,1-1.88-3.69,10.24,10.24,0,0,0,6.51,6.19,12,12,0,0,0,3.19.42,15,15,0,0,0,3-.31l.64-.32c0,.73,0,1.43,0,2.08a27.08,27.08,0,0,1-.16,3.22A3.26,3.26,0,0,1,88,73.94c-1.9,1.53-5.65,2.38-10,2.53-.46,0-.93,0-1.4,0M80.2,52.1a6.5,6.5,0,0,0,1-2.87,16.39,16.39,0,0,0,1.67-1.84c.18-.24.37-.48.54-.73a14.43,14.43,0,0,1,1.22,1.7A57,57,0,0,1,80.2,52.1" fill="#324a96"/><path id="path4762" d="M105.72,25.74c-3.25-.06-5.53,3.87-5.53,3.87-6,8.39-13,17.53-21.4,23.53-.58.56-1.21,1.06-1.77,1.65A5,5,0,0,0,75.87,60a10.28,10.28,0,0,0,6.7,6.74,13.22,13.22,0,0,0,6.16.11,63.82,63.82,0,0,0,6.52-3.9c6.5-4.12,11.67-9.23,16.69-15a48.09,48.09,0,0,0,5-6.65c4-6.65-7.93-15.49-11.18-15.54" fill="#94acd8"/><path id="path4764" d="M84,64.23a10.81,10.81,0,0,1-1.5-.11,7.46,7.46,0,0,1-6-4.43,6.84,6.84,0,0,1-.5-3.38A5.08,5.08,0,0,0,75.86,60a5.89,5.89,0,0,1-.28-1.72A4.86,4.86,0,0,1,77,54.79c.56-.59,1.19-1.09,1.77-1.65C86.45,47.67,93,39.61,98.57,31.88a3.82,3.82,0,0,0-.19,1.74.64.64,0,0,0,.26.41.88.88,0,0,0,.5.14c1.11,0,2.72-1.64,3.17-3h0a5.94,5.94,0,0,0,.15-2.64c0-.08.09-.16.13-.25h0a4.43,4.43,0,0,0,.46-1.73,5.72,5.72,0,0,1,1.32-.63l-.3.1h0l-.46.21A6.42,6.42,0,0,0,102.9,28a14,14,0,0,0,.49,7.89,16.08,16.08,0,0,0,2,4.38,6.51,6.51,0,0,0,1.8,1.86c.55.34,1.19.51,1.72.85,1,.66.62,1.87.17,2.8a17.82,17.82,0,0,1-3.14,4.33,86.77,86.77,0,0,1-7.07,6.62A41.66,41.66,0,0,1,91,62.29,15.68,15.68,0,0,1,84,64.23M98.16,35.56a2.46,2.46,0,0,0-.57.07c-.9.21-1.57,1.36-2.1,2-.88,1.11-1.74,2.25-2.58,3.39-1.14,1.53-2.24,3.09-3.33,4.67-.46.47-.93.93-1.41,1.39-1.37,1.31-2.79,2.56-4.21,3.82A36.21,36.21,0,0,1,79,55.07c-1.16.7-2,1.31-1.81,2.78a3.37,3.37,0,0,0,1.46,2.43,6,6,0,0,0,3.49.95,11.78,11.78,0,0,0,3-.41A15.49,15.49,0,0,0,89,59,25.56,25.56,0,0,0,93.09,56,23.89,23.89,0,0,0,99,47.63a21.09,21.09,0,0,0,1.58-7.69c0-1.59-.41-4.38-2.41-4.38M75.87,60v0" fill="#6683bc"/><path id="path4766" d="M75.86,60h0" fill="#3c559d"/><path id="path4768" d="M85.76,67.15a12,12,0,0,1-3.19-.42A10.28,10.28,0,0,1,75.87,60h0v0h0A5.08,5.08,0,0,1,76,56.31a6.84,6.84,0,0,0,.5,3.38,7.46,7.46,0,0,0,6,4.43,10.81,10.81,0,0,0,1.5.11A15.68,15.68,0,0,0,91,62.29a41.66,41.66,0,0,0,7.92-5.59,86.77,86.77,0,0,0,7.07-6.62,17.82,17.82,0,0,0,3.14-4.33c.45-.93.88-2.14-.17-2.8-.53-.34-1.17-.51-1.72-.85a6.51,6.51,0,0,1-1.8-1.86,16.08,16.08,0,0,1-2-4.38A14,14,0,0,1,102.9,28a6.42,6.42,0,0,1,.71-1.72l.46-.21A4.77,4.77,0,0,0,103,28a10.08,10.08,0,0,0,0,5.42c1,4.07,3.72,7.92,7.94,9a8.16,8.16,0,0,0,2,.28,5,5,0,0,0,2.4-.56,4.77,4.77,0,0,0,2.32-3.57,9.74,9.74,0,0,0-2.29-5.86,9.92,9.92,0,0,1,2.3,5.72,5.54,5.54,0,0,1-.81,2.9,48.09,48.09,0,0,1-5,6.65c-5,5.78-10.19,10.89-16.69,15a63.82,63.82,0,0,1-6.52,3.9,15,15,0,0,1-3,.31m29.65-34.49,0,0,0,0" fill="#4963a3"/><path id="path4770" d="M104.55,25.89h0m0,0h0m0,0a4.58,4.58,0,0,1,1-.14h0a4.58,4.58,0,0,0-1,.14" fill="#b9c6df"/><path id="path4772" d="M105.73,25.74h0" fill="#4963a3"/><path id="path4774" d="M115.41,32.66h0m0,0c-2.91-3.82-7.75-6.85-9.66-6.89,1.91,0,6.75,3.06,9.66,6.89m-11-6.69.18-.05-.14,0,0,0" fill="#94acd8"/><path id="path4776" d="M104.07,26h0l.3-.1,0,0-.34.12" fill="#3c569d"/><path id="path4778" d="M104.55,25.88h0m0,0h0" fill="#94acd8"/><path id="path4780" d="M104.41,25.92l.14,0h0a4.58,4.58,0,0,1,1-.14h0a4.28,4.28,0,0,0-1.24.19" fill="#6683bc"/><path id="path4782" d="M113,42.65a8.16,8.16,0,0,1-2-.28c-4.22-1.07-7-4.92-7.94-9A10.08,10.08,0,0,1,103,28,4.77,4.77,0,0,1,104.07,26l.34-.12a4.28,4.28,0,0,1,1.24-.19h.08c1.91,0,6.75,3.07,9.66,6.89l0,0h0a9.74,9.74,0,0,1,2.29,5.86,4.77,4.77,0,0,1-2.32,3.57,5,5,0,0,1-2.4.56" fill="#2e4385"/><path id="path4784" d="M87.9,98.63a25.89,25.89,0,0,0-10-10.1,21.37,21.37,0,0,0-6.84-2.31c-.51-.07-1-.11-1.55-.13a19.82,19.82,0,0,0-8.33,2.36C56.51,91,52.77,94.88,49.51,99a57.74,57.74,0,0,0-8,13.26c-.65,1.53-1.16,3.11-1.67,4.68-.59,1.81-1.14,3.64-1.57,5.5a20,20,0,0,0-.65,5.44,5.48,5.48,0,0,0,.46,2.11A3.42,3.42,0,0,0,40,131.55a14.7,14.7,0,0,0,5.55.77,25.25,25.25,0,0,0,5.68-.72,23.15,23.15,0,0,0,7.22-3,20.36,20.36,0,0,0,2.11-4.32c.95-2.47,1.77-5,2.92-7.42.26-.54,1.75-.3,4,0,4.11.44,10.72.89,16.75-3.54A11.85,11.85,0,0,0,87.9,98.63" fill="#94acd8"/><path id="path4786" d="M37.71,128.76c-.05-.3-.07-.59-.09-.88s0-.43,0-.64a22.21,22.21,0,0,1,.67-4.8c.43-1.86,1-3.69,1.57-5.5.51-1.57,1-3.15,1.67-4.68a57.74,57.74,0,0,1,8-13.26c3.26-4.12,7-8,11.67-10.55a20,20,0,0,1,7.33-2.29,19.91,19.91,0,0,0-7.13,2.19,15.72,15.72,0,0,1,4.07-.56,11.41,11.41,0,0,1,7.91,3c5.25,4.81,3.66,12.94-.29,18.06A15.12,15.12,0,0,1,65.73,114a29.37,29.37,0,0,1-5.91,1.33,11.52,11.52,0,0,1-1.18,0c-.67,0-1.34,0-2-.08s-1.34-.09-2-.09l-.64,0c1.7.49,5.94,1.21.44,10.48a2.19,2.19,0,0,1-1.57,1,1,1,0,0,1-.24,0,5,5,0,0,1-1.65-.56,2.73,2.73,0,0,0-.93-.18c-1.39,0-2.25,1.35-2.89,2.62l-.25,0a5.49,5.49,0,0,0-1.81-2.92,1.61,1.61,0,0,0-.9-.29c-.84,0-1.51.77-2,1.56H42c-.25-.56-.66-1.29-1.36-1.29h-.08a2.53,2.53,0,0,0-1.48.78,6.7,6.7,0,0,0-1.39,1.89,4.26,4.26,0,0,0,.06.5h0M58.65,91.64a45.15,45.15,0,0,0-12,12.19,58,58,0,0,0-4.09,7.46c-1.27,2.64-1.73,5.57-2.57,8.35l.13,0c1-2.52,1.58-5.17,2.65-7.69a46.06,46.06,0,0,1,3.87-7.23,51.58,51.58,0,0,1,12-12.92v-.11" fill="#6a87c3"/><path id="path4788" d="M68.52,86.16h0m.07,0h0m.07,0h0m.08,0h0m.07,0h0m.07,0h0m.08,0h0" fill="#6a87c3"/><path id="path4790" d="M68.51,86.16h0" fill="#627db8"/><path id="path4792" d="M68.57,86.16h0" fill="#627db8"/><path id="path4794" d="M68.64,86.15h0" fill="#627db8"/><path id="path4796" d="M68.7,86.15h0" fill="#627db8"/><path id="path4798" d="M68.77,86.14h0" fill="#627db8"/><path id="path4800" d="M68.83,86.13h0" fill="#627db8"/><path id="path4802" d="M68.9,86.13h0" fill="#627db8"/><path id="path4804" d="M69,86.12l.55,0-.55,0" fill="#627db8"/><path id="path4806" d="M46,132.31h0c.48,0,.95,0,1.42-.09A5.73,5.73,0,0,0,46,127.94a2,2,0,0,0-1.35-.68,1.34,1.34,0,0,0-.78.27l-.08,0h0A2.3,2.3,0,0,0,43,128a.27.27,0,0,0-.08.07h0a6.55,6.55,0,0,0-.92,1.06,4.24,4.24,0,0,0-.53-1.69,1.74,1.74,0,0,0-1.46-.85,2,2,0,0,0-1.38.62,5.47,5.47,0,0,0-1,1.38c0,.06,0,.11,0,.16h0a4.26,4.26,0,0,1-.06-.5A6.7,6.7,0,0,1,39,126.37a2.53,2.53,0,0,1,1.48-.78h.08c.7,0,1.11.73,1.36,1.29h.24c.48-.79,1.15-1.56,2-1.56a1.61,1.61,0,0,1,.9.29,5.49,5.49,0,0,1,1.81,2.92l.25,0c.64-1.27,1.5-2.62,2.89-2.62a2.73,2.73,0,0,1,.93.18,5,5,0,0,0,1.65.56,1,1,0,0,0,.24,0,2.19,2.19,0,0,0,1.57-1c5.5-9.27,1.26-10-.44-10.48l.64,0c.67,0,1.34,0,2,.09s1.33.08,2,.08a11.52,11.52,0,0,0,1.18,0A29.37,29.37,0,0,0,65.73,114a15.12,15.12,0,0,0,7.34-5.13c4-5.12,5.54-13.25.29-18.06a11.41,11.41,0,0,0-7.91-3,15.72,15.72,0,0,0-4.07.56,19.91,19.91,0,0,1,7.13-2.19H69l.55,0h0c.52,0,1,.06,1.55.13a21.37,21.37,0,0,1,6.84,2.31,25.89,25.89,0,0,1,10,10.1,11.22,11.22,0,0,1,1.16,5h0a11.22,11.22,0,0,0-1.16-5,25.89,25.89,0,0,0-10-10.1,21.37,21.37,0,0,0-6.84-2.31c-.51-.07-1-.11-1.55-.13-.29,0-.57,0-.85.06A15.45,15.45,0,0,1,74,87.27a17.8,17.8,0,0,1,8.79,8c3,5.89,2.26,14.64-4,18.14a23,23,0,0,1-9.15,2.46c-1.87.18-3.71.27-5.58.27h-.76c-1.06,0-2.12,0-3.18,0s-2,0-2.93.08c1.06.36,2.19.5,3.23.92s1,1,.71,1.86c-.39,1.46-.69,3-1.14,4.39a11.51,11.51,0,0,1-1.92,3.89,8.08,8.08,0,0,1-3.15,2.16,3,3,0,0,1-1.17.31,1.14,1.14,0,0,1-1.07-.75c-.27-.56-.49-1.34-1.06-1.68a1.83,1.83,0,0,0-.9-.24,1.41,1.41,0,0,0-.87.27l-.14.12-.17,0-.15,0h0a.79.79,0,0,0-.39.24,4.33,4.33,0,0,0-.86,3.93,1.2,1.2,0,0,0,.66.51,26.22,26.22,0,0,1-2.8.24" fill="#4e6aaf"/><path id="path4808" d="M46,132.31a1.13,1.13,0,0,0,.29-.6,2,2,0,0,0,0-.43c0-1.59-1.22-3.76-2.33-3.76H43.9a1.34,1.34,0,0,1,.78-.27,2,2,0,0,1,1.35.68,5.73,5.73,0,0,1,1.41,4.28c-.47.05-.94.08-1.42.09m-4.24-2.79c-.41-1.23-1.27-2.38-2.08-2.38a.65.65,0,0,0-.2,0h0a2.11,2.11,0,0,0-.86.53,6.13,6.13,0,0,0-.93,1.06c0-.05,0-.1,0-.16a5.47,5.47,0,0,1,1-1.38,2,2,0,0,1,1.38-.62,1.74,1.74,0,0,1,1.46.85,4.24,4.24,0,0,1,.53,1.69c-.09.13-.18.26-.26.39" fill="#3c549e"/><path id="path4810" d="M52,131.39a1.05,1.05,0,0,0,.22-.45h0a1.34,1.34,0,0,0,0-.2,4.39,4.39,0,0,0-2.54-3.34l.14-.12a1.41,1.41,0,0,1,.87-.27,1.83,1.83,0,0,1,.9.24c.57.34.79,1.12,1.06,1.68a1.14,1.14,0,0,0,1.07.75,3,3,0,0,0,1.17-.31,8,8,0,0,0,3.15-2.16A11.51,11.51,0,0,0,60,123.31c.45-1.44.75-2.93,1.14-4.39.24-.89.21-1.49-.71-1.86s-2.17-.56-3.23-.92c1-.06,1.95-.08,2.93-.08s2.12,0,3.18,0h.76c1.87,0,3.72-.09,5.58-.27a23,23,0,0,0,9.15-2.46c6.23-3.5,7-12.25,4-18.14a17.8,17.8,0,0,0-8.79-8,15.45,15.45,0,0,0-5.33-1.12c.28,0,.56-.05.85-.06.52,0,1,.06,1.55.13a21.37,21.37,0,0,1,6.84,2.31,25.89,25.89,0,0,1,10,10.1,11.22,11.22,0,0,1,1.16,5,11.81,11.81,0,0,1-4.85,9.62A20.4,20.4,0,0,1,71.8,117.1a41.14,41.14,0,0,1-4.34-.27c-1.24-.14-2.25-.27-2.95-.27s-.91.08-1,.32c-1.15,2.39-2,5-2.92,7.42a20.36,20.36,0,0,1-2.11,4.32A22.32,22.32,0,0,1,52,131.39" fill="#3c549e"/><path id="path4812" d="M36.81,132.12c.76,1.45,4.91.88,5.18-.79s-1.23-4.49-2.49-4.17-3.45,3.52-2.69,5" fill="#ede9c6"/><path id="path4814" d="M38.84,133h0" fill="#ede9c6"/><path id="path4816" d="M38.64,127.69a2.11,2.11,0,0,1,.86-.53,2.11,2.11,0,0,0-.86.53" fill="#364c7b"/><path id="path4818" d="M38.84,133h-.09a2.21,2.21,0,0,0,.56-.15c1.35-.56,1.26-2.42,1.11-3.6-.11-.83-.51-1.47-1.18-1.47a1.6,1.6,0,0,0-.72.21,2.25,2.25,0,0,0-.36.24,5.6,5.6,0,0,1,.48-.49,2.11,2.11,0,0,1,.86-.53h0a.65.65,0,0,1,.2,0c.81,0,1.67,1.15,2.08,2.38a3.65,3.65,0,0,0-.7,2.89,4.72,4.72,0,0,1-2.24.54" fill="#dad297"/><path id="path4820" d="M41.13,132.51c.76,1.44,4.91.88,5.18-.8s-1.23-4.48-2.49-4.16-3.45,3.52-2.69,5" fill="#ede9c6"/><path id="path4822" d="M44.17,133.23h0a3.25,3.25,0,0,0,1.85-.92h0a3.25,3.25,0,0,1-1.85.92" fill="#ede9c6"/><path id="path4824" d="M46,132.31h0" fill="#45608b"/><path id="path4826" d="M46,132.31a1.2,1.2,0,0,0,.29-.6,2,2,0,0,0,0-.43,2,2,0,0,1,0,.43,1.13,1.13,0,0,1-.29.6h0" fill="#364c7b"/><path id="path4828" d="M43,128.08A.27.27,0,0,1,43,128l-.08.06h0m.81-.52h0m0,0h0m0,0h0" fill="#45608b"/><path id="path4830" d="M44.17,133.23a3.09,3.09,0,0,0,.52-.56,4,4,0,0,0-.65-4.53.85.85,0,0,0-.56-.21,1.13,1.13,0,0,0-.52.14L43,128a2.3,2.3,0,0,1,.73-.45h0a.69.69,0,0,1,.2,0c1.11,0,2.32,2.17,2.33,3.76a2,2,0,0,1,0,.43,1.2,1.2,0,0,1-.29.6h0a3.25,3.25,0,0,1-1.85.92" fill="#dad297"/><path id="path4832" d="M48.16,131.56c.61,1.14,3.88.69,4.1-.63s-1.85-3.79-2.85-3.54-1.85,3-1.25,4.17" fill="#ede9c6"/><path id="path4834" d="M48.08,131.34a4.31,4.31,0,0,1,.31-2.71,7.7,7.7,0,0,0-.31,2.71" fill="#dad297"/><path id="path4836" d="M51.56,131.78a1.86,1.86,0,0,0,.48-.39h0a1.71,1.71,0,0,1-.48.39" fill="#ede9c6"/><path id="path4838" d="M52,131.39a1.05,1.05,0,0,0,.22-.45,1.05,1.05,0,0,1-.22.45h0" fill="#364c7b"/><path id="path4840" d="M49,127.63a.87.87,0,0,1,.39-.24.87.87,0,0,0-.39.24" fill="#45608b"/><path id="path4842" d="M50.76,132.09a1.46,1.46,0,0,0,.48-1.22,3.38,3.38,0,0,0-1.69-3,.89.89,0,0,0-.3-.06.78.78,0,0,0-.66.42,2.43,2.43,0,0,1,.43-.57.87.87,0,0,1,.39-.24h0l.15,0c1,0,2.72,2.07,2.71,3.36a1.34,1.34,0,0,1,0,.2h0a1.05,1.05,0,0,1-.22.45h0a1.86,1.86,0,0,1-.48.39,3.8,3.8,0,0,1-.8.31" fill="#dad297"/><path id="path4844" d="M78.39,28.3c-.12,1.2-.74,2.12-1.38,2.06s-1.05-1.1-.93-2.3.75-2.13,1.38-2.06,1.06,1.09.93,2.3" fill="#1d1c1b"/><path id="path4846" d="M77.41,27.3c0,.38-.26.67-.49.64s-.4-.35-.36-.73.26-.67.5-.64.39.35.35.73" fill="#fff"/><path id="path4848" d="M75.39,15.47A6.73,6.73,0,0,0,76,16.53c.1.12.37.11.51.08a2.85,2.85,0,0,0,.54-.18c-.54-.35-1.11-.66-1.68-1" fill="#516785"/><path id="path4850" d="M74.33,14.76a3.4,3.4,0,0,0,0-.71c-.27-1.8-.8-3.56-.89-5.38A18.9,18.9,0,0,1,74.67,1,2.05,2.05,0,0,0,75,.18L74.89.11a4.61,4.61,0,0,0-2.21.11c-4,.66-9.06,4.51-7.54,9.07a12.07,12.07,0,0,0,4.57,6.05.73.73,0,0,0,.59.05c.23-.05.43-.1.6.14.33.49.39,1.08.7,1.57.09.14.36.16.5.15,1.31-.08,2.65-1.19,2.23-2.49" fill="#6f89ac"/><path id="path4852" d="M74.33,14.76a3.4,3.4,0,0,0,0-.71c-.27-1.8-.8-3.56-.89-5.38a19.82,19.82,0,0,1,1-7,9.63,9.63,0,0,0-6.12,4.39c-.1.17-.2.35-.29.53a8.19,8.19,0,0,0-.81,3.23,5,5,0,0,0,.79,3,6.15,6.15,0,0,0,.37.52,13.64,13.64,0,0,1,1.45,1,6.25,6.25,0,0,1,1.1,1.14l.06.1c.64.47,1.29.94,1.88,1.47a2,2,0,0,0,1.49-2.34" fill="#fab9ce"/><path id="path4854" d="M74.9.11l-.27.2a11.87,11.87,0,0,0-3.55,5.47,11.87,11.87,0,0,0-.8,6.25c.34,1.69,1.55,3.42,2.11,5.18C73.6,17,74.72,16,74.33,14.76a3.4,3.4,0,0,0,0-.71c-.27-1.8-.8-3.56-.89-5.38A18.9,18.9,0,0,1,74.67,1,2.05,2.05,0,0,0,75,.18L74.9.11" fill="#839cc3"/><path id="path4856" d="M68.31,14.27a13,13,0,0,1-3.17-5v0a13,13,0,0,0,3.17,5h0m-3.18-5v0m0,0v0m0,0v0m0,0v0m0,0v0m0,0v0m0,0s0-.09,0-.13,0,.08,0,.13M65,9V9m0,0h0m0,0v0m0,0h0m0,0h0m0,0h0m0,0h0m8.44-.38a20.35,20.35,0,0,1,.16-3.18c0,.25-.06.51-.08.76v.09c0,.27,0,.54-.05.81V7c0,.26,0,.52,0,.78v.63m.27-3.95h0m0,0a17.13,17.13,0,0,1,.7-2.78h0a17.13,17.13,0,0,0-.7,2.78m.7-2.78c.07-.19.14-.38.22-.57-.08.18-.15.38-.22.57h0M74.66,1V1A2.25,2.25,0,0,0,75,.21a2.25,2.25,0,0,1-.31.79V1M75,.18l0,0h0l0,0" fill="#bcc4ce"/><path id="path4858" d="M68.31,14.27a13,13,0,0,1-3.17-5v0h0v0h0v0h0v0h0v0h0v0h0v0h0s0-.09,0-.13h0v0h0v0h0v0h0v0h0a5.73,5.73,0,0,1,1.46-5.08,7.29,7.29,0,0,0-.8,5.54,4.15,4.15,0,0,0,1.78,2.45A4.82,4.82,0,0,0,68,12.83a6.15,6.15,0,0,0,.37.52l.82.55-.28.11-.58.26M72.25,2.45A7.73,7.73,0,0,1,74.7.25l-.07.06a8.5,8.5,0,0,0-1.74,1.85c-.22.09-.43.18-.64.29" fill="#4f678a"/><path id="path4860" d="M69.17,13.9l-.82-.55a6.15,6.15,0,0,1-.37-.52,4.82,4.82,0,0,1-.54-1.12l.08,0a4.23,4.23,0,0,0,1.55.58c.18,0,.31-.06.35-.2a6.22,6.22,0,0,0,0-1.61A12,12,0,0,1,69.69,8,15,15,0,0,1,71.53,3.5c.23-.37.46-.72.71-1,.22-.11.43-.2.65-.29a15.33,15.33,0,0,0-1.81,3.62,11.87,11.87,0,0,0-.8,6.25,7,7,0,0,0,.43,1.35,13.94,13.94,0,0,0-1.54.52m4.27-5.45a19.67,19.67,0,0,1,1-6.79h0a17.13,17.13,0,0,0-.7,2.78v0h0c0,.22-.07.44-.1.66v0a.28.28,0,0,0,0,.09,20.35,20.35,0,0,0-.16,3.18v0" fill="#b48da3"/><path id="path4862" d="M70.71,13.38A7,7,0,0,1,70.28,12a11.87,11.87,0,0,1,.8-6.25,15.33,15.33,0,0,1,1.81-3.62A8.5,8.5,0,0,1,74.63.31L74.7.25l0,0,.18-.09,0,0v0a2.25,2.25,0,0,1-.31.79V1l0,.06c-.08.19-.15.38-.22.57a19.43,19.43,0,0,0-1,6.79v.22a28.44,28.44,0,0,0,.68,4.18,15.23,15.23,0,0,0-3.42.53M73.12,2.7a.12.12,0,0,0-.09,0,8.42,8.42,0,0,0-1.42,2.82,14,14,0,0,0-.74,3c-.16,1.18-.39,2.63.24,3.71h.25a8,8,0,0,0,.77-3.88,23.34,23.34,0,0,1,1.14-5.48.15.15,0,0,0-.15-.18" fill="#5d769f"/><path id="path4864" d="M87.34,38.17c1-2.85,1.76-5.76,2.76-8.45A12.14,12.14,0,0,0,91,24.61a10.6,10.6,0,0,0-4.81-7.74,25.09,25.09,0,0,0-5.44-2.94A16.07,16.07,0,0,0,68.89,14,31.74,31.74,0,0,0,63,17.66a51.89,51.89,0,0,1-11.15,6.23c-2.4.93-4.79,1.54-7,2.93a8.66,8.66,0,0,0-3.81,5.63,5.37,5.37,0,0,0,.21,2.73l.14.13-.21,0a1.27,1.27,0,0,0-.43.09,4.69,4.69,0,0,0-1.3.61,1.2,1.2,0,0,0-.48,1.7c.1.15,1.18,1,2.34,1.92a10.4,10.4,0,0,0,4.13,7.28,33.29,33.29,0,0,0,11.37,6.29,33.12,33.12,0,0,0,13.61,1,18.92,18.92,0,0,0,12.39-6.77,30.58,30.58,0,0,0,4.52-9.22" fill="#94acd8"/><path id="path4866" d="M82.27,30.05a5.85,5.85,0,0,0-.47-1.87,4.08,4.08,0,0,0-1.58-1.53,3.13,3.13,0,0,0-1.6-.41,5.46,5.46,0,0,0-2.37.62c.52-1.52,2.36-2.1,4-2.1a6.75,6.75,0,0,1,1.4.15c2.64.63,1.87,3.55.62,5.14" fill="#6683bc"/><path id="path4868" d="M66,22.5c0-1.62-.69-3.38-2.3-3.84A5,5,0,0,1,65.84,18a1.77,1.77,0,0,1,1.13.36,2,2,0,0,1,.25,2.46A8.37,8.37,0,0,1,66,22.5m-.76-4.28a2.71,2.71,0,0,0-1.19.29,2.54,2.54,0,0,1,1.41.64A3.08,3.08,0,0,1,66.3,21l.25-.19.09-.08,0,0,0,0h0l.11-.14h0l0-.08A1.75,1.75,0,0,0,66.7,19a1.78,1.78,0,0,0-1.51-.73" fill="#6683bc"/><path id="path4870" d="M45.24,35.52c.1-.41.21-.87.3-1.34q0,.34-.06.66c0,.06,0,.21,0,.39l-.21.29m.23-.32a7.09,7.09,0,0,0,.31-1.39,4.5,4.5,0,0,0-.08-2.36.74.74,0,0,0-.7-.57,2,2,0,0,0-1.19.64,4.14,4.14,0,0,1,.55-.7,1.2,1.2,0,0,1,.83-.39,1.23,1.23,0,0,1,1,.64,10.84,10.84,0,0,0,.22,2A6.14,6.14,0,0,1,46,34.23a8.19,8.19,0,0,1-.51,1" fill="#6683bc"/><path id="path4872" d="M58.08,44A1.55,1.55,0,0,1,57,43.55a2,2,0,0,1-.44-1.27,1.83,1.83,0,0,0,.72.85,2.08,2.08,0,0,0,1.08.28,5.9,5.9,0,0,0,1.22-.18,1.83,1.83,0,0,1-1.47.79" fill="#6683bc"/><path id="path4874" d="M43.23,37.4a1.43,1.43,0,0,1-.29,0,1.31,1.31,0,0,1-1-1.45,1.91,1.91,0,0,0,.9.83,2.31,2.31,0,0,0,.9.16,3.61,3.61,0,0,0,.73-.07,1.81,1.81,0,0,1-1.25.56" fill="#6683bc"/><path id="path4876" d="M52.58,39.13a7.08,7.08,0,0,1-3.52-.88A3,3,0,0,1,47.51,36c0-.1,0-.2,0-.3a6,6,0,0,0,2.44,2,5.9,5.9,0,0,0,2.46.51,7.59,7.59,0,0,0,2.27-.36,7,7,0,0,0,2.15-1.13,4.84,4.84,0,0,0,2-3.68,3.94,3.94,0,0,0-.32-1.54h0a2.11,2.11,0,0,1,.23.19,2.89,2.89,0,0,1,.71,2.55,5.83,5.83,0,0,1-3.19,4,7.56,7.56,0,0,1-2.13.81,7.88,7.88,0,0,1-1.54.15" fill="#6683bc"/><path id="path4878" d="M61.19,42A7.61,7.61,0,0,0,62,39.7c.31-.87.34-1.8-.62-1.8h-.07a7.27,7.27,0,0,0-1.67.49,5.26,5.26,0,0,0-.84.62,5.26,5.26,0,0,0-.86.68h0c.88-1,2.54-2.56,3.81-2.56a1.28,1.28,0,0,1,.9.35c.74.69.28,2-.08,2.77A4.67,4.67,0,0,1,61.19,42" fill="#6683bc"/><path id="path4880" d="M63.27,27.88A3.21,3.21,0,0,0,63,27.2,5,5,0,0,0,62,26a7.13,7.13,0,0,0-1.06-.82l.43.08h0c.16,0,.21-.25,0-.28h0l0-.07C61.48,23.83,62.76,22,64,22h.16c1.11.14.93,1.47.57,2.17A5.12,5.12,0,0,1,63,26l0,.19a3.2,3.2,0,0,1,.28,1.66m.51-5.51a2.21,2.21,0,0,0-1.54,1.15c-.56.89-.64,1.85-.17,2.15a.62.62,0,0,0,.33.08,2.18,2.18,0,0,0,1.54-1.15c.56-.89.63-1.84.16-2.14a.57.57,0,0,0-.32-.09" fill="#6683bc"/><path id="path4882" d="M80.4,36a1.11,1.11,0,0,1-.35-.14c-.59-.35-1.08-1-1.74-1.17l-.14,0a4.35,4.35,0,0,1,.49.57c-.47-.24-1-.47-1.45-.67-.72-.29-1.47-.5-2.2-.75l-.17-.05h0c.23,0,.62.15.94.15a.57.57,0,0,0,.43-.15c.27-.32.26-.9.44-1.28a5.9,5.9,0,0,1,1-1.46,2.86,2.86,0,0,1,1.92-.93,1.34,1.34,0,0,1,1.33,1.1c.35,1.2-.86,2.68-1.74,3.34v.24A3.32,3.32,0,0,1,80.4,36m-1.14-5.32A2.45,2.45,0,0,0,77.53,32c-.63,1-.72,2.07-.19,2.41a.72.72,0,0,0,.36.1,2.44,2.44,0,0,0,1.73-1.3c.63-1,.71-2.06.19-2.4a.65.65,0,0,0-.36-.1" fill="#6683bc"/><path id="path4884" d="M58.94,52.92l-.62,0a11.43,11.43,0,0,1-6-2.32A14.64,14.64,0,0,1,50,48.38c-.3-.35-.59-.73-.88-1.09.46.83,1,1.64,1.45,2.46a.14.14,0,0,1-.13.21h-.06a29.39,29.39,0,0,1-2.84-1.47c1,.73,2.14,1.46,3.34,2.15a41.74,41.74,0,0,1-5.42-3.74,10.4,10.4,0,0,1-4.13-7.28c0,.15,0,.31,0,.48l.16-.06h.1a1.62,1.62,0,0,1,.86.49c.66.55,1.4,1,2.1,1.55a44.38,44.38,0,0,0,4.16,2.79c.32.17.63.33,1,.48a10.6,10.6,0,0,1,.84,1,10.71,10.71,0,0,0,2.05,2,11.7,11.7,0,0,0,5.35,2.48A7.45,7.45,0,0,0,59,51a6.42,6.42,0,0,0,3.56-1,7.4,7.4,0,0,0,1.59-1.62A8.57,8.57,0,0,0,65,46.57a1.09,1.09,0,0,1,.53-.23h.06a7.92,7.92,0,0,1,1.56.45,4.41,4.41,0,0,0,1.08.16l.26,0,.41,0,.23-.11-.29-.08a10.47,10.47,0,0,1-2.11-.64,4,4,0,0,1-1.6-1.27c-.13-.21-.29-.43-.41-.66a2.8,2.8,0,0,0,.49,1.17A2.42,2.42,0,0,1,65,45l-.08.23.1.22A2.58,2.58,0,0,1,65.09,43a3.69,3.69,0,0,0,2.15,2.89,6.53,6.53,0,0,0,2.87.62,8.18,8.18,0,0,0,3.2-.66,10.54,10.54,0,0,0,3.47-2.71,10.71,10.71,0,0,0,2.36-3.77,5.08,5.08,0,0,0,0-3.2c.18.13.37.28.54.43l.27-.2a2.53,2.53,0,0,0-1.06-.8,2.39,2.39,0,0,0-.21-.34.25.25,0,0,0,0-.07,16.26,16.26,0,0,1,2,1.28,4.82,4.82,0,0,0-.27-.5l.19,0a1.8,1.8,0,0,0,1.3-.86,14.14,14.14,0,0,0,1.44-2.82A40.43,40.43,0,0,0,85,28.08a13.07,13.07,0,0,0,.54-4.89A14.57,14.57,0,0,0,84,18.45a14.85,14.85,0,0,0-2.44-4.11l-.16-.14a25.35,25.35,0,0,1,4.78,2.67,11.32,11.32,0,0,1,4.36,5.56h0A10.33,10.33,0,0,0,88,18.35a10.81,10.81,0,0,1,1.26,3c.09.53.15,1.06.19,1.59h-.05l-.29.12h0l0,0h0a.47.47,0,0,1,0,.1h0a3.3,3.3,0,0,0-.41,1.53v0h0a.22.22,0,0,0,0,.08,2.21,2.21,0,0,0,.7,1.81A45.3,45.3,0,0,1,87.6,34c-1.14,3.77-2.26,7.61-4.56,10.86a17.52,17.52,0,0,1-7.9,6.33,28.45,28.45,0,0,1-9.91,1.51l-.12-.21A15.5,15.5,0,0,0,66,50.18a11.84,11.84,0,0,1-7.1,2.74m-5.81-3.18A9.87,9.87,0,0,0,55.41,52a5.71,5.71,0,0,0,3,.77h.32a4.09,4.09,0,0,0,3.58-2l-.2-.19a7.87,7.87,0,0,1-7.67-.16l-1.34-.69" fill="#6683bc"/><path id="path4886" d="M50.9,50.64h0" fill="#6683bc"/><path id="path4888" d="M41.32,39.61c-1.16-.94-2.24-1.77-2.34-1.92a1,1,0,0,1-.18-.77,1,1,0,0,0,.18.77c.1.15,1.18,1,2.34,1.92h0" fill="#b9c6df"/><path id="path4890" d="M60.63,47.05h-.51a20.7,20.7,0,0,1-8.89-2.27,60.91,60.91,0,0,1-5.79-3.4A22.58,22.58,0,0,0,43.07,40a4.06,4.06,0,0,0-1.48-.52.55.55,0,0,0-.34.1l.07,0c-1.16-.94-2.24-1.77-2.34-1.92a1,1,0,0,1-.18-.77,1.37,1.37,0,0,1,.48-.8,1,1,0,0,0,.11.72c.46.79,1.73,1.17,2.49,1.59A40,40,0,0,1,46,41.28a29.39,29.39,0,0,0,4.09,2.55A22.43,22.43,0,0,0,57.3,46.5c.42.07.83.12,1.25.17l.41.06a15,15,0,0,0,2.32.2c.32,0,.64,0,1,0a5.28,5.28,0,0,0,1.42-.35l.14-.06a7,7,0,0,1-3.17.57M64.5,46a4,4,0,0,1,.45-.33l0-.19,0,.19a4,4,0,0,0-.45.33" fill="#6683bc"/><path id="path4892" d="M80.67,36.51a16.26,16.26,0,0,0-2-1.28,4.35,4.35,0,0,0-.49-.57l.14,0c.66.2,1.15.82,1.74,1.17a1.11,1.11,0,0,0,.35.14,4.82,4.82,0,0,1,.27.5" fill="#4963a3"/><path id="path4894" d="M63.8,46.48l0,0,.08,0,.1-.06A5.85,5.85,0,0,0,64.5,46a3.18,3.18,0,0,1-.7.5" fill="#6683bc"/><path id="path4896" d="M59.93,47.47q-.47,0-.93,0a20.76,20.76,0,0,1-6.53-1.76c-3.89-1.61-7.32-4.11-11-6.17l-.05,0c.8.62,1.73,1.08,2.56,1.68,1,.74,2.12,1.43,3.19,2.11.48.31,1,.6,1.47.88l1,1.11c-.32-.15-.63-.31-1-.48a44.38,44.38,0,0,1-4.16-2.79c-.7-.51-1.44-1-2.1-1.55a1.62,1.62,0,0,0-.86-.49h-.1l-.16.06c0-.17,0-.33,0-.48h0l-.07,0a.55.55,0,0,1,.34-.1,4.06,4.06,0,0,1,1.48.52,22.58,22.58,0,0,1,2.37,1.39,60.91,60.91,0,0,0,5.79,3.4A20.7,20.7,0,0,0,60.12,47h.51a7,7,0,0,0,3.17-.57,3.18,3.18,0,0,0,.7-.5,4,4,0,0,1,.45-.33l0-.19h0l-.1-.22L65,45a2.42,2.42,0,0,0,.27.36l.17.21-.08.11,0,0-.19.25A5.43,5.43,0,0,1,62.4,47.2a10.75,10.75,0,0,1-2.47.27M68.27,47a4.41,4.41,0,0,1-1.08-.16,7.92,7.92,0,0,0-1.56-.45h-.06a1.09,1.09,0,0,0-.53.23,3.35,3.35,0,0,1,.2-.37,2.18,2.18,0,0,0,.35-.45,5,5,0,0,0,2.94,1.18l-.26,0" fill="#4963a3"/><path id="path4898" d="M58.62,46.67h-.07A29.15,29.15,0,0,1,50.29,44a29,29,0,0,0,8.33,2.72M50.29,44l-.22-.12-.44-.23.66.35" fill="#6683bc"/><path id="path4900" d="M58.55,46.67c-.42-.05-.83-.1-1.25-.17a22.43,22.43,0,0,1-7.23-2.67l.22.12h0a29.15,29.15,0,0,0,8.26,2.72" fill="#4963a3"/><path id="path4902" d="M53.72,52.06a29.71,29.71,0,0,1-2.82-1.42,28.56,28.56,0,0,0,2.82,1.42h0M50.9,50.64h0" fill="#3c559d"/><path id="path4904" d="M66.07,54.47a33.44,33.44,0,0,1-6.33-.6,7.53,7.53,0,0,0,6-3.19c-.2.23-.41.43-.6.61a6.51,6.51,0,0,1-1.89,1.32c-.14.07-.3.12-.44.18a6.57,6.57,0,0,1-1.34.42,9,9,0,0,1-1.85.2,7.45,7.45,0,0,1-1.49-.14H58.1A11.36,11.36,0,0,1,53,51.33a15.31,15.31,0,0,1-2.3-1.95c-.19-.21-.4-.4-.6-.6l.58.65a12.23,12.23,0,0,0,2,1.93c.33.25.68.48,1,.7a28.56,28.56,0,0,1-2.82-1.42h0c-1.2-.69-2.32-1.42-3.34-2.15A29.39,29.39,0,0,0,50.37,50h.06a.14.14,0,0,0,.13-.21c-.48-.82-1-1.63-1.45-2.46.29.36.58.74.88,1.09a14.64,14.64,0,0,0,2.32,2.2,11.43,11.43,0,0,0,6,2.32l.62,0A11.84,11.84,0,0,0,66,50.18a15.5,15.5,0,0,1-.93,2.33l.12.21a28.45,28.45,0,0,0,9.91-1.51A17.52,17.52,0,0,0,83,44.88c2.3-3.25,3.42-7.09,4.56-10.86a44.27,44.27,0,0,0,1.69-7.32,1.5,1.5,0,0,0,.59.24,6.15,6.15,0,0,0,.85,0h.15a16.33,16.33,0,0,1-.78,2.73c-1,2.69-1.8,5.6-2.76,8.45a32.54,32.54,0,0,1-4,8.49c-.17.25-.36.49-.54.73a16.39,16.39,0,0,1-1.67,1.84,19.72,19.72,0,0,1-10.72,4.93,29.84,29.84,0,0,1-4.36.31M89.43,23c0-.53-.1-1.06-.19-1.59a10.81,10.81,0,0,0-1.26-3,10.33,10.33,0,0,1,2.6,4.08l0,0h0l-.08,0-.09.05h0l-.06,0c-.18.1-.45.22-.73.35l-.15.06" fill="#4963a3"/><path id="path4906" d="M88.6,24.81c0,.86.22,1.94,1.28,2.13A6.11,6.11,0,0,0,91,27a7.38,7.38,0,0,1,1,0,18.71,18.71,0,0,0,3,.31,9.58,9.58,0,0,0,6.68-2.83,11.27,11.27,0,0,0,3-6.67c.1-.63,1.18-6.29.73-6.37a3.55,3.55,0,0,0-.47-.06,11.35,11.35,0,0,0-11.75,7.42,8.1,8.1,0,0,1-2.69,3.62,14.9,14.9,0,0,1-1.47.68,3.35,3.35,0,0,0-.49,1.68" fill="#839cc3"/><path id="path4908" d="M94.18,25.73a8.89,8.89,0,0,0,2.68-.64,7,7,0,0,0,2.68-1.61,9.53,9.53,0,0,0,2.1-5,18.41,18.41,0,0,1,1.79-5.91,12.11,12.11,0,0,1,.73-1.18,11.35,11.35,0,0,0-10.91,7.47,8.1,8.1,0,0,1-2.69,3.62,14.57,14.57,0,0,1-1.43.67c.46,1.22,2,1.88,3.19,2.23a7.88,7.88,0,0,0,1.86.38" fill="#fab9ce"/><path id="path4910" d="M92.38,23.89c1.82-1,2.81-4.18,3.9-5.9a13.91,13.91,0,0,1,4.22-4.25,15.85,15.85,0,0,1,5-2.26h0a3.55,3.55,0,0,0-.47-.06,11.35,11.35,0,0,0-11.75,7.42,8.1,8.1,0,0,1-2.69,3.62,14.9,14.9,0,0,1-1.47.68,3.55,3.55,0,0,0-.44,1.13,2.3,2.3,0,0,1,.56.13,3.94,3.94,0,0,0,3.17-.5" fill="#839cc3"/><path id="path4912" d="M88.6,24.81v0m.78-1.8h.05l-.05,0" fill="#4a6398"/><path id="path4914" d="M89.43,23h0l.15-.06h0l-.12,0m.88-.41.06,0h0l.09-.05.08,0-.25.13" fill="#364b81"/><path id="path4916" d="M90.58,22.44h0l.28-.19h0l-.28.19" fill="#bcc4ce"/><path id="path4918" d="M90.58,22.44h0" fill="#4a6398"/><path id="path4920" d="M90.56,22.45l0,0h0" fill="#364b81"/><path id="path4922" d="M105.49,13.17h0a1.1,1.1,0,0,1,0-.18,1.1,1.1,0,0,0,0,.18M105,11.41h0" fill="#bcc4ce"/><path id="path4924" d="M95,27.34A19.16,19.16,0,0,1,92.06,27a6.62,6.62,0,0,0-.77,0h-.56a6.15,6.15,0,0,1-.85,0c-1-.18-1.29-1.2-1.29-2.05,0,0,0-.05,0-.08h0v0a3.07,3.07,0,0,1,.06-.53h0a2.89,2.89,0,0,1,.52.13,3.65,3.65,0,0,0,1,.14h.21a8.46,8.46,0,0,0,1.92.82,7.88,7.88,0,0,0,1.86.38,8.89,8.89,0,0,0,2.68-.64l.73-.3a18.23,18.23,0,0,0,2.54-.55A9.38,9.38,0,0,0,103,23a8.93,8.93,0,0,1-1.26,1.55h0A9.58,9.58,0,0,1,95,27.34H95M88.72,24h0m14.35-10.73c.11-.24.23-.47.36-.7s.19-.34.3-.51a11.46,11.46,0,0,1,1.76-.55h0c.13.06.11.68,0,1.51a1.1,1.1,0,0,0,0,.18.84.84,0,0,0-.79-.45,3.69,3.69,0,0,0-1.3.37l-.33.15" fill="#5d769f"/><path id="path4926" d="M94.18,25.73a7.88,7.88,0,0,1-1.86-.38,8.46,8.46,0,0,1-1.92-.82,4.61,4.61,0,0,0,2-.64c1.82-1,2.81-4.18,3.9-5.9a13.91,13.91,0,0,1,4.22-4.25A18.08,18.08,0,0,1,103.73,12c-.11.17-.2.34-.3.51s-.25.46-.36.7c-4.64,2.16-6.83,7.37-10,11.11l0,.22a2.45,2.45,0,0,0,1.23.28c.49,0,1,0,1.47,0l.72,0c.35,0,.69-.05,1-.09l-.73.3a8.89,8.89,0,0,1-2.68.64m-4.63-2.79h0l0,0m.55-.26.21-.1.25-.13h0l-.46.23" fill="#b48da3"/><path id="path4928" d="M90.19,24.53a3.65,3.65,0,0,1-1-.14,2.89,2.89,0,0,0-.52-.13h0l.07-.29h0l0-.1.1-.27,0-.12.18-.34.11,0,.16-.07h0l.17-.07,0,0c.18-.08.36-.16.5-.24l.46-.23h0l.3-.2,0,.06c-.33.51-.87.82-1.15,1.37l.12.21H90c2.63,0,4.08-3.23,5-5.25a13.47,13.47,0,0,1,3-4.58c1.75-1.57,4.08-1.76,6.19-2.57l.09-.13a4.19,4.19,0,0,1,.5,0H105a3.55,3.55,0,0,1,.47.06h0a11.46,11.46,0,0,0-1.76.55,18.08,18.08,0,0,0-3.23,1.71A13.91,13.91,0,0,0,96.28,18c-1.09,1.72-2.08,4.87-3.9,5.9a4.61,4.61,0,0,1-2,.64h-.21" fill="#5d769f"/><path id="path4930" d="M60.63,39.69l-.05-.06c-.17-.38-1.31.44-1.45.56a4.7,4.7,0,0,0-1.33,1.44c-.17.31-.21.6.21.64a1.89,1.89,0,0,0,1.66-.45,3,3,0,0,0,1-2.13" fill="#516785"/><path id="path4932" d="M61.58,40.58a3.37,3.37,0,0,0,.17-1.13,1,1,0,0,0-1-1,1.28,1.28,0,0,0-.46.08,10.89,10.89,0,0,0-2,.94l-.37.2h0c.2-.13.53-.41.86-.68.1-.08.21-.14.32-.22a7.28,7.28,0,0,1,1.13-.63,2,2,0,0,1,.47-.07,1.23,1.23,0,0,1,1,.48A1.52,1.52,0,0,1,62,39.7a4.77,4.77,0,0,1-.4.88" fill="#4b67a9"/><path id="path4934" d="M62,39.7a1.52,1.52,0,0,0-.29-1.13,1.23,1.23,0,0,0-1-.48,2,2,0,0,0-.47.07,2.8,2.8,0,0,1,1.06-.26h.07c1,0,.93.93.62,1.8m-4.06,0a5.26,5.26,0,0,1,.86-.68c-.33.27-.66.55-.86.68" fill="#385092"/><path id="path4936" d="M44.34,32.79l.07,0c.42,0,.14,1.38.09,1.55a5.16,5.16,0,0,1-.77,1.81c-.21.28-.46.43-.67.07a1.88,1.88,0,0,1-.27-1.7,3,3,0,0,1,1.55-1.75" fill="#516785"/><path id="path4938" d="M45.45,35.26v0l0,0s0,0,0,.06m.09-1.08a9.76,9.76,0,0,0,0-1.53,1.08,1.08,0,0,0-1-1.08,1.07,1.07,0,0,0-.44.1,3.24,3.24,0,0,0-1,.62,4.74,4.74,0,0,1,.67-.77l-.09.15a1.68,1.68,0,0,1,.93-.42.65.65,0,0,1,.5.23,3.27,3.27,0,0,1,.39,2.7" fill="#4b67a9"/><path id="path4940" d="M45.45,35.23c0-.18,0-.33,0-.39q0-.31.06-.66a3.27,3.27,0,0,0-.39-2.7.65.65,0,0,0-.5-.23,1.68,1.68,0,0,0-.93.42l.09-.15A2,2,0,0,1,45,30.88a.74.74,0,0,1,.7.57,4.5,4.5,0,0,1,.08,2.36,7.09,7.09,0,0,1-.31,1.39l0,0" fill="#385092"/><path id="path4942" d="M59,51a7.45,7.45,0,0,1-1.06-.08,11.7,11.7,0,0,1-5.35-2.48,10.71,10.71,0,0,1-2.05-2,10.6,10.6,0,0,0-.84-1l.89.42a12.59,12.59,0,0,0,1.92,2,13.29,13.29,0,0,0,4.42,2.47,8.49,8.49,0,0,0,2.42.37,6,6,0,0,0,1.8-.26h0l.23-.08a4.36,4.36,0,0,0,1.41-.85h0a7.68,7.68,0,0,0,1.65-2.11l.19-.4.41-.33a8.57,8.57,0,0,1-.89,1.73,7.4,7.4,0,0,1-1.59,1.62A6.42,6.42,0,0,1,59,51m9.94-4-.41,0a1.57,1.57,0,0,0,.3,0,5.05,5.05,0,0,1-2.32-.63,4.93,4.93,0,0,1-1.26-.88,2.8,2.8,0,0,1-.49-1.17c.12.23.28.45.41.66a4,4,0,0,0,1.6,1.27,10.47,10.47,0,0,0,2.11.64l.29.08-.23.11" fill="#4963a3"/><path id="path4944" d="M59.57,47.77h0a15.11,15.11,0,0,1-5.06-.9h0l-.11,0h0A43.07,43.07,0,0,1,50.1,45h0l-.58-.3a5.9,5.9,0,0,1,1,1l0,0-.89-.42-1-1.11c-.5-.28-1-.57-1.47-.88C46.12,42.66,45,42,44,41.23c-.83-.6-1.76-1.06-2.56-1.68l.05,0c3.66,2.06,7.09,4.56,11,6.17A20.76,20.76,0,0,0,59,47.44q.47,0,.93,0a10.75,10.75,0,0,0,2.47-.27A5.43,5.43,0,0,0,65.12,46l.19-.25,0,0,.08-.11-.17-.21a4.93,4.93,0,0,0,1.26.88,5.05,5.05,0,0,0,2.32.63,1.57,1.57,0,0,1-.3,0,5,5,0,0,1-2.94-1.18,2.18,2.18,0,0,1-.35.45,3.35,3.35,0,0,0-.2.37l-.41.33c.06-.12.11-.24.16-.35h0a4.81,4.81,0,0,1-.75.38,10.43,10.43,0,0,1-2.85.75h-.14a12.34,12.34,0,0,1-1.48.08h0" fill="#364d8b"/><path id="path4946" d="M64.44,47.3a7.68,7.68,0,0,1-1.65,2.11c-1.58,1.44-3.94,1.39-5.86.82a13.29,13.29,0,0,1-4.42-2.47,12.15,12.15,0,0,1-1.94-2,5.9,5.9,0,0,0-1-1,39.72,39.72,0,0,0,4.81,2.13,14.79,14.79,0,0,0,6.85.86A10.43,10.43,0,0,0,64,46.93a4.81,4.81,0,0,0,.75-.38c-.11.24-.21.48-.35.75" fill="#fff"/><path id="path4948" d="M61.15,50.34h0l.23-.08-.23.08" fill="#3b5186"/><path id="path4950" d="M59.57,47.77h0m0,0a12.34,12.34,0,0,0,1.48-.08,12.34,12.34,0,0,1-1.48.08m-5.08-.9h0m-.15,0A39.68,39.68,0,0,1,50.11,45h0a43.07,43.07,0,0,0,4.24,1.84" fill="#2c4070"/><path id="path4952" d="M61.15,50.34a3.68,3.68,0,0,0,.15-.47l-.18-.17a9.86,9.86,0,0,1-2.32.36,4.44,4.44,0,0,1-.63,0,8.27,8.27,0,0,0,3.64-1.17c.12-.08.06-.24-.08-.26a10.12,10.12,0,0,0-1.1-.05h-1a9,9,0,0,1-1.37-.08,30.47,30.47,0,0,1-3.69-.73A9.29,9.29,0,0,1,50.11,45a39.68,39.68,0,0,0,4.23,1.83h0l.11,0h0a15.11,15.11,0,0,0,5.06.9h0a12.34,12.34,0,0,0,1.48-.08h.14A10.43,10.43,0,0,0,64,46.93a4.81,4.81,0,0,0,.75-.38c-.11.24-.21.48-.35.75a7.68,7.68,0,0,1-1.65,2.11h0a4.36,4.36,0,0,1-1.41.85l-.23.08" fill="#d3d4d3"/><path id="path4954" d="M59.44,53.88a7.86,7.86,0,0,1-1.81-.21,13.58,13.58,0,0,1-3.91-1.61,25.88,25.88,0,0,0,3.1,1.12c1,.27,1.92.5,2.92.69h-.3" fill="#3c559d"/><path id="path4956" d="M59.74,53.87c-1-.19-2-.42-2.92-.69a25.88,25.88,0,0,1-3.1-1.12h0a25.27,25.27,0,0,0,3.1,1.12c1,.27,1.92.5,2.92.69h0" fill="#2d4386"/><path id="path4958" d="M59.74,53.87c-1-.19-2-.42-2.92-.69a25.27,25.27,0,0,1-3.1-1.12c-.36-.22-.71-.45-1-.7a12.23,12.23,0,0,1-2-1.93l-.58-.65c.2.2.41.39.6.6A15.31,15.31,0,0,0,53,51.33a11.36,11.36,0,0,0,5.11,1.94h.06a7.45,7.45,0,0,0,1.49.14,9,9,0,0,0,1.85-.2,6.57,6.57,0,0,0,1.34-.42c.14-.06.3-.11.44-.18a6.51,6.51,0,0,0,1.89-1.32c.19-.18.4-.38.6-.61a7.53,7.53,0,0,1-6,3.19" fill="#364d8b"/><path id="path4960" d="M79.43,33.19c-.63,1-1.57,1.53-2.09,1.2S76.9,33,77.53,32s1.56-1.52,2.09-1.19.44,1.41-.19,2.4" fill="#2d2528"/><path id="path4962" d="M78.92,31.82c-.16.26-.42.39-.58.28s-.15-.39,0-.64.42-.38.58-.28.16.39,0,.64" fill="#fff"/><path id="path4964" d="M63.94,24.6c-.56.89-1.4,1.36-1.87,1.07s-.39-1.26.17-2.15,1.4-1.36,1.86-1.06.4,1.25-.16,2.14" fill="#2d2528"/><path id="path4966" d="M63.48,23.38c-.14.23-.37.34-.51.25s-.14-.35,0-.58.38-.34.52-.24.14.34,0,.57" fill="#fff"/><path id="path4968" d="M77.57,25.87a5.88,5.88,0,0,1,1.51.05,3.49,3.49,0,0,1,2,.84,4.14,4.14,0,0,1,1.15,2.13,1.64,1.64,0,0,0,.46-.45,1.83,1.83,0,0,0,.22-1.68A2.68,2.68,0,0,0,81,25.43a5.35,5.35,0,0,0-3.56.46l.09,0" fill="#2f3e51"/><path id="path4970" d="M66.55,20.81l.09-.08,0,0,0,0h0l.11-.14h0l0-.08A1.75,1.75,0,0,0,66.7,19a2.11,2.11,0,0,0-2.7-.44,2.54,2.54,0,0,1,1.41.64A3.08,3.08,0,0,1,66.3,21l.25-.19" fill="#2f3e51"/><path id="path4972" d="M59.9,31.93a1.48,1.48,0,0,1-1.25-.52.94.94,0,0,1-.08-.95,1.06,1.06,0,0,0,.94.83h.14a3.41,3.41,0,0,0,1.5-.36,3,3,0,0,0,1.65-2.08.89.89,0,0,0-.17-.54c-.08-.12-.18-.26-.29-.4h.07c1.79.14,1.15,1.86.21,2.72a5.45,5.45,0,0,1-2.08,1.21,2.47,2.47,0,0,1-.64.09" fill="#6683bc"/><path id="path4974" d="M59.22,25.15a6.87,6.87,0,0,0-.6,1.93,8.7,8.7,0,0,0-.14,3.05c.11.54.38,1.13,1,1.16a3.45,3.45,0,0,0,1.64-.36c1.15-.69,2-1.83,1.48-2.62s-1.92-2.42-2.91-3.57c-.18,0-.35.1-.5.41" fill="#ede9c6"/><path id="path4976" d="M59.65,31.29h-.14c-.65,0-.92-.62-1-1.16a4.25,4.25,0,0,1-.09-.95,13.1,13.1,0,0,1,.23-2.1,6.87,6.87,0,0,1,.6-1.93c.14-.3.31-.41.49-.41h0c1,1.15,2.32,2.71,2.91,3.57a.89.89,0,0,1,.17.54,3,3,0,0,1-1.65,2.08,3.41,3.41,0,0,1-1.5.36m0-5.86-.22,0a3.13,3.13,0,0,0-.39,1.34,12.65,12.65,0,0,0-.22,1.59c-.06.66-.16,1.78.44,2.24a.78.78,0,0,0,.45.15,1.78,1.78,0,0,0,1.42-1.34c.11-.73-.41-1.51-.62-2.19a4.15,4.15,0,0,0-.86-1.82" fill="#dad297"/><path id="path4978" d="M58.5,31.49c-.85-2-2.87-3.3-4.24-4.92a10.14,10.14,0,0,1-2.86-6.83c.08-2.69-1.59-.28-2.19.73-2.66,4.4-5.55,14.35.73,17.22a6.64,6.64,0,0,0,4.73.15,7,7,0,0,0,2.15-1.13,4.4,4.4,0,0,0,1.68-5.22" fill="#ede9c6"/><path id="path4980" d="M52.4,38.2a5.9,5.9,0,0,1-2.46-.51,6.21,6.21,0,0,1-3.54-4.62,10.84,10.84,0,0,1-.22-2V30.8a22,22,0,0,1,3-10.33c.4-.67,1.27-2,1.79-2,.24,0,.41.29.41,1.06a1,1,0,0,1,0,.17V20a10.23,10.23,0,0,0,2.86,6.62c1.37,1.62,3.39,2.9,4.24,4.92A3.94,3.94,0,0,1,58.82,33a4.84,4.84,0,0,1-2,3.68,7,7,0,0,1-2.15,1.13,7.59,7.59,0,0,1-2.27.36M50.5,19.63a10.69,10.69,0,0,0-2,3.73A22,22,0,0,0,46.91,30c-.11,2.5.54,6.33,3.67,6.33h.19c1,0,2.51-.56,2.87-1.65.48-1.43-.61-2.86-1.24-4.06a21.27,21.27,0,0,1-1.9-5.17,16,16,0,0,1-.34-2.93,19.2,19.2,0,0,1,.34-2.93h0" fill="#dad297"/><path id="path4982" d="M48.3,33.52a22.51,22.51,0,0,1,1.37-11.68l-.15,0c-1.6,3.42-2.66,8.06-1.39,11.75l.17-.1" fill="#fff"/><path id="path4984" d="M59.6,26.93l-.16.09c0,.31,0,.63,0,.95l.15-.07a7.89,7.89,0,0,0,.06-1" fill="#fff"/><path id="path4986" d="M41.76,32.53a8.53,8.53,0,0,1,1.67-3.92,8.32,8.32,0,0,1,2.73-1.93v.08a8.58,8.58,0,0,0-2.68,2.18,13.17,13.17,0,0,0-1.58,3.53l-.15.06" fill="#d4e9f9"/><path id="path4988" d="M65.63,7.63C65.45,4.05,68.45,1.44,71.78,1l0,.1a7.79,7.79,0,0,0-5.92,6.47l-.18.09" fill="#c7def3"/><path id="path4990" d="M79.16,36.21c-.25-.18-.49-.34-.75-.5-.43-.26-.91-.38-1.36-.61l.12-.12a10.62,10.62,0,0,1,1.63.6l.11.06a4.91,4.91,0,0,1,.25.57" fill="#d4e9f9"/><path id="path4992" d="M79.7,36.64c-.17-.15-.36-.3-.54-.43a4.91,4.91,0,0,0-.25-.57,2.53,2.53,0,0,1,1.06.8l-.27.2" fill="#c3dcf4"/><path id="path4994" d="M60.82,19.81l0-.1c3-2,5.92-4.66,9.48-5.62l0,.07c-3.5,1.18-6.21,3.93-9.43,5.65" fill="#d4e9f9"/><path id="path4996" d="M55.5,45.43a18.55,18.55,0,0,1-7-2.9c-1-.65-1.93-1.43-2.91-2.16-.68-.51-1.4-.94-2.1-1.4.85.43,1.67.9,2.48,1.39A32.93,32.93,0,0,0,54,44.82c.48.2,1,.42,1.47.61" fill="#d4e9f9"/><path id="path4998" d="M102.38,25.74a5.28,5.28,0,0,0-1.09.53,3.73,3.73,0,0,0-1.56,1.56c-.35.78-.69,2.64.69,2.59a2.6,2.6,0,0,0,.39-.05,4.27,4.27,0,0,0,.86-.67c1.08-1.13,2.09-3.95.71-4" fill="#ede9c6"/><path id="path5000" d="M102.46,28.55h0c0-.08.09-.16.13-.25h0c0,.09-.09.17-.13.25" fill="#5c7794"/><path id="path5002" d="M99.46,29.65a1.42,1.42,0,0,1,0-.36,10.36,10.36,0,0,1,1.33-2.06,1.6,1.6,0,0,1,1-.56.69.69,0,0,1,.61.41,2.51,2.51,0,0,1,.22,1.22l-.13.25c-.13-.74-.42-1.32-.88-1.32a.85.85,0,0,0-.48.18,6.4,6.4,0,0,0-1.64,2.24" fill="#dad297"/><path id="path5004" d="M102.31,31.2c.52-1.55.19-4.74-1.21-3.79S97.54,33.34,98.64,34s3.14-1.29,3.67-2.83" fill="#ede9c6"/><path id="path5006" d="M99.14,34.17a.88.88,0,0,1-.5-.14.64.64,0,0,1-.26-.41.64.64,0,0,0,.26.41.88.88,0,0,0,.5.14c1.11,0,2.72-1.64,3.17-3h0c-.45,1.33-2.06,3-3.17,3" fill="#5c7794"/><path id="path5008" d="M99.14,34.17a.88.88,0,0,1-.5-.14.64.64,0,0,1-.26-.41,3.21,3.21,0,0,1,.1-1.4,3.7,3.7,0,0,0,.07.57c.06.32.24.44.45.44a1.33,1.33,0,0,0,.73-.32,8,8,0,0,0,2-2.76,4.89,4.89,0,0,0,.46-2.42,5.5,5.5,0,0,1,.1,3.46h0c-.45,1.33-2.06,3-3.17,3" fill="#dad297"/><path id="path5010" d="M25.1,21.05c-.5-1.55,1.23-2.13,2.63-1.17s2.89,5.5,1.79,6.19-3.91-3.46-4.42-5" fill="#ede9c6"/><path id="path5012" d="M26.05,22.9,26,22.79l.07.11h0" fill="#42597f"/><path id="path5014" d="M29.67,25.92A9.17,9.17,0,0,0,27.37,22a.8.8,0,0,0-.48-.18c-.41,0-.69.45-.84,1.07L26,22.79c-.14-.23-.28-.46-.4-.68a3.18,3.18,0,0,1,.48-.73.88.88,0,0,1,.65-.33c.65,0,1.28.86,1.6,1.39a.14.14,0,0,0,.11.06c.09,0,.18-.07.14-.17a9.8,9.8,0,0,0-.93-2.51l.1.06c1.05.74,2.17,3.51,2.17,5.12a1.51,1.51,0,0,1-.23.92" fill="#dad297"/><path id="path5016" d="M26.12,25.78C25.61,24.23,26,21,27.37,22s3.49,6,2.38,6.65-3.12-1.33-3.63-2.88" fill="#ede9c6"/><path id="path5018" d="M29.27,28.79h0m0,0a.86.86,0,0,0,.48-.13h0a.86.86,0,0,1-.48.13M26.19,26h0m0,0,0,0,0,0m0,0,0-.13a5.86,5.86,0,0,1-.18-2.25,5.86,5.86,0,0,0,.18,2.25l0,.13m-.22-2.38h0" fill="#42597f"/><path id="path5020" d="M29.27,28.79h-.11c-1.05-.1-2.46-1.55-3-2.81h0v0l0,0h0l0-.13a5.86,5.86,0,0,1-.18-2.25h0a3.08,3.08,0,0,1,.43-1.39,4.62,4.62,0,0,0,1.51,5.29,1,1,0,0,0,.57.2c.59,0,.89-.72.95-1.4a8.06,8.06,0,0,0,0-1c.61,1.52.91,3.06.33,3.42h0a.86.86,0,0,1-.48.13h0" fill="#dad297"/><path id="path5022" d="M40,119.64c.84-2.78,1.3-5.71,2.57-8.35a58,58,0,0,1,4.09-7.46,45.15,45.15,0,0,1,12-12.19v.11a51.58,51.58,0,0,0-12,12.92,46.06,46.06,0,0,0-3.87,7.23c-1.07,2.52-1.64,5.17-2.65,7.69l-.13,0" fill="#c4def4"/><path id="path5024" d="M5,112.54a32.67,32.67,0,0,1,5.26-8.05,47.63,47.63,0,0,1,3.51-3.88c1.19-1.2,2.55-2.25,3.69-3.49l.06.08c-2.13,2.48-4.64,4.6-6.7,7.16a52.84,52.84,0,0,0-5.69,8.17H5" fill="#c4def4"/><path id="path5026" d="M34.77,94.05C33.54,86.77,36.51,80,40,73.82h.1c-3,6.31-5.77,12.87-5.06,20l-.22.19" fill="#cfe5f7"/><path id="path5028" d="M39.86,65.09a18.88,18.88,0,0,1,2.44-6.33c1.09-1.8,2.4-3.48,3.47-5.28h.1C45,55.17,44,56.8,43,58.43a38.79,38.79,0,0,0-3,6.62l-.13,0" fill="#d4e9f9"/><path id="path5030" d="M31.65,55.27a49.26,49.26,0,0,1-8.57-7.34,34.35,34.35,0,0,1-7-9.66l.12-.12a45.64,45.64,0,0,0,7.6,9.63,74.27,74.27,0,0,0,8.05,7.3l-.15.19" fill="#d4e9f9"/><path id="path5032" d="M81.85,53.84c-.07,0,0-.19.07-.24,2.53-2.09,5.46-4.14,7.63-6.61a64.8,64.8,0,0,0,5.15-6.62h.11C92,46,87,50.24,81.92,53.81l-.07,0" fill="#d4e9f9"/></g></g></g></g></svg>