<svg xmlns="http://www.w3.org/2000/svg" viewBox="0 0 117.78 133.33"><title>WhiteRabbit</title><g id="Layer_2" data-name="Layer 2"><g id="svg2"><g id="g10"><g id="g12"><path id="path12730" d="M115.39,84.77a6.87,6.87,0,0,0,1.17-.28.24.24,0,0,0,.12-.37,6.62,6.62,0,0,0-3.33-2.71,5.81,5.81,0,0,0-3-.34c.16-.31.31-.62.48-.92s-.1-.32-.26-.28A5.25,5.25,0,0,0,108.27,81a6.67,6.67,0,0,1-.5-1.64.2.2,0,0,0-.35-.11,18.76,18.76,0,0,0-2.35,3.56,8.26,8.26,0,0,0-1.66,2.29c-.35.63-.65,1.29-1,1.94-.93,2-1.75,4-2.48,6.11a26.61,26.61,0,0,0-1.51,5.88c-.09.74-.19,2.5.86,2.65a6,6,0,0,0,4.31.25,18.37,18.37,0,0,0,2.49-1.11l.88-.41c-.16.28-.34.54-.53.81s0,.47.23.43c2.18-.39,4.74-.4,6.58-1.81a7,7,0,0,0,1.6-1.9c.64-1,1.25-2.09,1.8-3.17,1.61-3.17,1.63-7.67-1.3-10" fill="#bfc2be"/><path id="path12732" d="M116.68,84.12,116.6,84h0l.08.12" fill="#ded8cd"/><path id="path12734" d="M108.23,100.53l-.13-.22c.66-1.22,1.44-2.38,2-3.64-.9.75-1.73,1.58-2.68,2.23a6.89,6.89,0,0,1-2.63,1.26h-.12c-1.3,0,.83-3.71,1-4.06,1.27-2.94,2.43-6.22,1.75-9.45-.32-1.51-.85-3-1.06-4.51a4.1,4.1,0,0,1,.15-1.74c-.23.33-.43.66-.64,1h0a12.13,12.13,0,0,1,1.53-2.13l.06,0c-.33,1-.67,2.41-.17,3.35a.79.79,0,0,0,.75.33,5.85,5.85,0,0,0,1.23-.2,4.17,4.17,0,0,0-.76,2.21l.18.15a14,14,0,0,1,1.71-.23,10.35,10.35,0,0,0-1.29,3.93c-.07.69,0,1.38-.14,2s-.2,1.17-.24,1.77c-.08,1,.22,1.28.7,1.28.82,0,2.13-1,2.87-1.36.12.74,0,1.5.19,2.24l.24.07c.6-.47,1.15-1,1.76-1.43.14.25.3.36.47.36.87,0,2-2.78,2.15-3.26.81-2.31-1-5.14-3-6.32A19,19,0,0,1,116.6,84l.08.12h0a.24.24,0,0,1,0,.14.25.25,0,0,1-.17.23,6.87,6.87,0,0,1-1.17.28h0a6.82,6.82,0,0,1,2.38,5.5,10.18,10.18,0,0,1-1.08,4.53c-.49,1-1,1.91-1.59,2.84l.55-1-.25.33a7.71,7.71,0,0,1-3.24,2.61,16.6,16.6,0,0,1-3.93.9" fill="#a2a197"/><path id="path12736" d="M106.66,101.68a.24.24,0,0,1-.23-.27.24.24,0,0,0,.23.27h0c2.18-.39,4.74-.4,6.58-1.81a7,7,0,0,0,1.6-1.9l.21-.33-.21.33a7,7,0,0,1-1.6,1.9c-1.84,1.41-4.4,1.42-6.58,1.81h0" fill="#ded8cd"/><path id="path12738" d="M101.79,102.24a6,6,0,0,1-1.12-.1c.28-.45.57-.89.85-1.33s.43-.63.64-.94.52-.47.77-.72a10.81,10.81,0,0,0,2.57-4.92h0a24.73,24.73,0,0,0,1.25-5.56q0-.54,0-1.08a22.37,22.37,0,0,0-.52-4.68s0,0,0-.07h0c-.11-.48-.23-1-.36-1.43.21-.34.41-.67.64-1a4.1,4.1,0,0,0-.15,1.74c.21,1.53.74,3,1.06,4.51.68,3.23-.48,6.51-1.75,9.45-.15.35-2.28,4.06-1,4.06h.12a6.89,6.89,0,0,0,2.63-1.26c1-.65,1.78-1.48,2.68-2.23-.6,1.26-1.38,2.42-2,3.64l.13.22a16.6,16.6,0,0,0,3.93-.9A7.71,7.71,0,0,0,115.4,97l.25-.33-.55,1-.21.33a7,7,0,0,1-1.6,1.9c-1.84,1.41-4.4,1.42-6.58,1.81h0a.24.24,0,0,1-.23-.27.28.28,0,0,1,0-.16c.19-.27.37-.53.53-.81h0l-.88.41a18.37,18.37,0,0,1-2.49,1.11,6.25,6.25,0,0,1-1.85.28" fill="#8a877b"/><path id="path12740" d="M106.26,82.91a23.94,23.94,0,0,0-4.89-10.23,41.78,41.78,0,0,0-4.21-4.31,22,22,0,0,0-2.43-2l-.07-.09A40.3,40.3,0,0,0,85,58.83c-3.58-2-7.68-3.52-11.84-2.9a20,20,0,0,0-5.85,2c-1.82.92-3.39,2.19-5.11,3.26a23.94,23.94,0,0,1-5,2.28c-.92-.39-1.87-.75-2.83-1.05a35.46,35.46,0,0,0-6.54-1.25,69.49,69.49,0,0,0-13,.06,25.26,25.26,0,0,0-11.35,3.33,30.81,30.81,0,0,0-6.71,6,24.49,24.49,0,0,0-4.17,6.74l-1.21,1.43a31.49,31.49,0,0,0-2.61,3.06A26.8,26.8,0,0,0,7.44,85.3l0,.1.08.07a1.9,1.9,0,0,0,.83-.22A13.62,13.62,0,0,0,6,89.1c-.46,1.09-1.24,2.3-1,3.52A7.08,7.08,0,0,0,5.7,94.2c.31.67.55,1.36.85,2l0,.08,0,0,0,.11.18,0c0-.12,0-.24,0-.36a6.61,6.61,0,0,1,.43-1.13A6.49,6.49,0,0,0,9.05,100a15.65,15.65,0,0,0,3.25,2.35c.34.2.67.38,1,.55a31.7,31.7,0,0,0,1.83,5.25,20.49,20.49,0,0,0,3,5.24c1.32,1.57,3,2.86,4.42,4.3a19.61,19.61,0,0,1,2.38,2.61c.33.47.64,1,.94,1.48a6.41,6.41,0,0,0-.61,1.23,8.12,8.12,0,0,0-2.45-1.71,3.61,3.61,0,0,0-2.64-.41,1.87,1.87,0,0,0-1.05,1.45c-1.45-.08-2.77-.07-3.56,1.45a7.22,7.22,0,0,0-.3,4.48,4.77,4.77,0,0,0,2.36,3.47,3.07,3.07,0,0,0,2.75-.34,3,3,0,0,0,.62.26,6.72,6.72,0,0,0,2.62.18,4.63,4.63,0,0,0,2.51.91,5,5,0,0,0,2.22-.39l.15,0a13.93,13.93,0,0,0,6.33-7.3,5.18,5.18,0,0,0,.16-1.88,19.11,19.11,0,0,0,2.18,1.64,5.91,5.91,0,0,0,1.71.69c-.34.59-.63,1.21-.93,1.84a3.25,3.25,0,0,0-.08,3.17,5.82,5.82,0,0,0,2.56,2.35,3,3,0,0,0,2.37.08,2.18,2.18,0,0,0,1.79.27,5.33,5.33,0,0,0,2.16-1.06l.39-.3c2.61,1.59,6.18.06,7.82-2.26a5.92,5.92,0,0,0,.91-4.32,7.62,7.62,0,0,0-.3-1.48,7.46,7.46,0,0,0,5.48.88,22.06,22.06,0,0,0,3.21-1.64,11,11,0,0,1,2.5-.88,4.66,4.66,0,0,0-.1,3.86,7.43,7.43,0,0,0,2.85,2.38,2.75,2.75,0,0,0,2.63.18l.36.35c.88.82,2,.56,3,.23a2.23,2.23,0,0,0,1.72.88,11.21,11.21,0,0,0,2.94-.4c1.24-.27,2.49-.43,3.75-.58a34.12,34.12,0,0,0,6.64-1.33,8.92,8.92,0,0,0,4.64-3.46l0-.13c.19-.22.38-.44.55-.67a10,10,0,0,0,1.1-3.05,36.15,36.15,0,0,0,1.77-6.95c.14-1.08.26-2.19.3-3.28a4.24,4.24,0,0,0-.6-2.77,1.3,1.3,0,0,0-1.5-.38c.78-1,1.81-1.77,2.5-2.82l2.21-3.45c.21-.32.43-.63.64-.94s.52-.47.77-.72a10.81,10.81,0,0,0,2.57-4.92,24.73,24.73,0,0,0,1.25-5.56,21.49,21.49,0,0,0-.49-5.76" fill="#bfc2be"/><path id="path12742" d="M67.32,58c.55-.28,1.11-.54,1.69-.79-.58.25-1.14.51-1.69.79" fill="#ded8cd"/><path id="path12744" d="M72,71.79c-3.46-1.62-6.9-3.27-10.24-5.15l-.85-.49A11.68,11.68,0,0,0,62.36,63s0,0,0-.07a.22.22,0,0,0-.13-.18,2.11,2.11,0,0,0,0-.26,1,1,0,0,0,0-.33h0a2.4,2.4,0,0,0-.12-.38L62,61.39l.24-.15c1.72-1.07,3.29-2.34,5.11-3.26h0c.55-.28,1.11-.54,1.69-.79a19.8,19.8,0,0,1,2.58-.92,37.84,37.84,0,0,0-4.78,2.94c-1.75,1.37-3.92,4-3,6.4a6.45,6.45,0,0,0,2.41,2.64,42.77,42.77,0,0,0,4.48,2.64,10.91,10.91,0,0,1,1.31.9" fill="#a2a197"/><path id="path12746" d="M44.79,130.39a1.14,1.14,0,0,1-1.1-.67,4.67,4.67,0,0,1,.17-2.88A10.67,10.67,0,0,1,46.29,122l0,0a4.72,4.72,0,0,1,1.25-.86h0l.14-.06c-1.54,1-4.24,5.84-1.86,6H46c1.57,0,2.58-2.58,3.22-3.68.5-.88.42-2.23-.31-2.46H49a.94.94,0,0,1,.76.6l0,.12h0a4.77,4.77,0,0,1-.4,2.7,18.34,18.34,0,0,1-1.54,3.48,5.63,5.63,0,0,1-2.2,2.36,2,2,0,0,1-.82.19M24.84,130c-.63,0-1.21-.67-1.49-1.49-.44-1.32-.32-3.53,1.16-4.19a3.19,3.19,0,0,1,1.29-.25h.27a6,6,0,0,1,.93.14,17.86,17.86,0,0,1,1.83.58l.09.15a.14.14,0,0,1-.12.15h-.05l0,0-.07,0c-2.37.14-1.77,2.71-2.75,4.19a1.3,1.3,0,0,1-1.05.71m.83-5.74a3.67,3.67,0,0,0-.66,0l-.12,0-.25.07h0a2.14,2.14,0,0,0-.55.26,2.07,2.07,0,0,0-.48,2.54,1.43,1.43,0,0,0,1.23.88,1.26,1.26,0,0,0,.8-.31,5.91,5.91,0,0,0,1.69-2.76l-.07-.3a.28.28,0,0,0-.22-.31,6.83,6.83,0,0,0-1.36-.16" fill="#a2a197"/><path id="path12748" d="M25.23,123l0,0,0,0m0,0,0,0,0,0m-6.11-.63h0" fill="#ded8cd"/><path id="path12750" d="M20.49,129.74l-.32,0c-.54-.13-.92-.8-1.15-1.33l-.11-.28h0a7.86,7.86,0,0,1-.45-2.63v0a10.39,10.39,0,0,1,.11-1.47s0,0,0,0a10.45,10.45,0,0,1,.36-1.64h.17a2.55,2.55,0,0,1,.44-1c-.62,1.92-2,4.06.11,5.49a.75.75,0,0,0,.43.13,1,1,0,0,0,.81-.46,7.61,7.61,0,0,0,.87-2.72c.24-1.15.54-1.76,1.75-1.76h.17A.78.78,0,0,0,24,122a8,8,0,0,1,1.19,1l0,0h0l0,0h0l.09-.19h0l-.09.19-.34-.33-.23.12a1.65,1.65,0,0,0-.69-.16c-1.52,0-2.32,2.54-2.29,3.79,0,.86.15,3.29-1.19,3.29m19.28-.33a1.09,1.09,0,0,1-1.09-.72c-.49-1.37.47-3.2,1.14-4.39a.73.73,0,0,1,0-.09h0l.07-.13c.44-.76,1.22-1.94,2.12-1.94h.17a1.28,1.28,0,0,1,.44.19.52.52,0,0,0-.28-.06h-.17a.24.24,0,0,0-.2-.11l-.11,0c-1.34.53-2.19,2.46-2.24,3.86a.68.68,0,0,0,.7.78l.21,0c.85-.18,1.44-1.11,1.84-1.8a3.12,3.12,0,0,0,.56-2.28.54.54,0,0,0-.19-.33c1.67.72-.4,3.65-.81,4.63-.31.76-.72,1.87-1.55,2.23a1.66,1.66,0,0,1-.66.14m13.61-.17a.75.75,0,0,1-.7-.37,1.42,1.42,0,0,1,0-.84,8.06,8.06,0,0,0,.08-1.47,4.78,4.78,0,0,1,.22-2.78,2.8,2.8,0,0,1,.29-.37h0a1.77,1.77,0,0,1,.86-.51c-1.25.67-.87,2.71-.4,3.76a1,1,0,0,0,.79.65.6.6,0,0,0,.39-.16,2.68,2.68,0,0,0,.7-2,2.43,2.43,0,0,0-.48-1.87.51.51,0,0,0-.37-.16h-.09a.41.41,0,0,0-.24-.29h.31l.13.09h0a.51.51,0,0,1,.21.1h0a1,1,0,0,1,.33.45h0a4.63,4.63,0,0,1,.22,1.8c0,1.18-.25,3.13-1.46,3.75a1.67,1.67,0,0,1-.77.21" fill="#a2a197"/><path id="path12752" d="M17.22,129.13H17.1c-1.13-.13-1.67-1.47-1.88-2.44a4.21,4.21,0,0,1-.09-.49,1.71,1.71,0,0,0,1.42,1.1,1.53,1.53,0,0,0,.45-.08A1.41,1.41,0,0,0,18,126c0,.3.09.6.12.9.05.68.16,2.23-.87,2.23" fill="#a2a197"/><path id="path12754" d="M15.05,127A7.62,7.62,0,0,1,15,126c0,.22,0,.43,0,.65h0c0,.14,0,.28,0,.42" fill="#ded8cd"/><path id="path12756" d="M15,126.62c0-.22,0-.43,0-.65v0h0c0,.22,0,.44,0,.67" fill="#a2a197"/><path id="path12758" d="M78.19,125.72a2.43,2.43,0,0,1-.61-.07,2.07,2.07,0,0,1-1.15-3,3.39,3.39,0,0,1,2.67-2h0a4.07,4.07,0,0,1,.61,0h.39c1.8.15,3.51.81,5.29,1.06h0a12.36,12.36,0,0,0,1.81.14,7.63,7.63,0,0,0,3.2-.64,7.71,7.71,0,0,1-1.44.13,12,12,0,0,1-1.57-.12c-.14,0-.13-.26,0-.29a15.91,15.91,0,0,0,6.89-2.95A21.5,21.5,0,0,1,89,119.09c-1.64.16-3.31.21-5,.21-1.92,0-3.84-.07-5.75-.14-2.23-.07-5.18-.2-6.72-2.08a4.72,4.72,0,0,1-.65-3.67,22.82,22.82,0,0,1,1.86-5.78,66.43,66.43,0,0,1,5-9.88,20.83,20.83,0,0,1-3.88,3.57l-.2,0c-1.15-1.58-.91-4.1-1-6s-.14-5-2.34-5.66l-.11-.15c.05-1.85-.74-3.54-1.14-5.32a29.66,29.66,0,0,1,2,4.85,6.23,6.23,0,0,0,1.34,2.24A7.13,7.13,0,0,1,74,93.7c.49,1.07,1.33,2.39,2.61,2.39A2.18,2.18,0,0,0,77,96c1.28-.29,2.14-1.74,3.06-2.68a12.82,12.82,0,0,1-.6,1.91l.1.18.37,0a3.57,3.57,0,0,0,1.9-.75,29.52,29.52,0,0,0,2.67-2,23,23,0,0,0,2.45-2.39c-.49.66-1,1.29-1.53,1.92-1.26,1.52-2.48,3.06-3.67,4.64a44.13,44.13,0,0,0-6.41,10.49c-.3.77-1.07,2.21-.26,2.91a2.11,2.11,0,0,0,1.34.32h.26a8.82,8.82,0,0,0,2.59-.51c3.5-1.15,6.57-3.74,9.45-6a64.11,64.11,0,0,0,9-8.7c1.33-1.52,2.6-3.09,3.83-4.7A19.41,19.41,0,0,0,104.65,86c1.16-3,.36-6.45-.9-9.32a23.66,23.66,0,0,0-1.22-2.41,24.11,24.11,0,0,1,3.72,8.62h0s0,0,0,.07a22.37,22.37,0,0,1,.52,4.68q0,.54,0,1.08a24.73,24.73,0,0,1-1.25,5.56c.27-.89.53-1.76.76-2.64a55.19,55.19,0,0,1-6.78,10.73,93.39,93.39,0,0,1-5.92,7.36,84.18,84.18,0,0,1-6.68,6.41,21.68,21.68,0,0,0,6.33-3.71A28,28,0,0,0,95.62,110a6.55,6.55,0,0,1,1.62-1.49.78.78,0,0,1,.33-.09c.93,0,.46,2.91.43,3.34a24.86,24.86,0,0,1-1.12,6.58,8.86,8.86,0,0,1-2.64,4,10,10,0,0,1-4.74,1.77c-2.06.34-4.13.74-6.2,1-1.12.15-2.25.27-3.38.34-.51,0-1.15.17-1.72.17m-6.42-.54c-.54,0-1-.31-.78-1.13a9.69,9.69,0,0,1,.29-1.07h0a4.77,4.77,0,0,1,1.52-2.42h0l.27-.15a2.31,2.31,0,0,1,.69-.16H74a3.78,3.78,0,0,1,2.16.77l.08.06,0,0c.12.09,0,.24-.11.24h0a11,11,0,0,1-3.32,3.54,2.22,2.22,0,0,1-1,.28" fill="#a2a197"/><path id="path12760" d="M17.94,124.27a2.65,2.65,0,0,1,.66-1.93h.06a6.83,6.83,0,0,0-.72,1.93m50.16-.15a.9.9,0,0,1-.92-.91A4.27,4.27,0,0,1,69,119.76a2.38,2.38,0,0,1,1.52-.57,3,3,0,0,1,1.76.65.16.16,0,0,1-.07.28h0l0,0c-1.29,1-1.65,2.84-3.07,3.67a1.89,1.89,0,0,1-.91.28" fill="#a2a197"/><path id="path12762" d="M32,122.77l-.07,0a8,8,0,0,0-3.12-.84,4.87,4.87,0,0,1-1.88-.47l-2.11-1.21a21.26,21.26,0,0,0-2.32-2.52c-1.45-1.44-3.1-2.73-4.42-4.3a20.49,20.49,0,0,1-3-5.24c.28.66.57,1.32.89,2h0c-.45-1.19-1-2.8-.39-3.91a1.11,1.11,0,0,1,1-.65,5.47,5.47,0,0,1,2.62,1.31,11.42,11.42,0,0,1,2.26,1.82,30.25,30.25,0,0,1,1.6,2.69,8.14,8.14,0,0,0,0-.85.15.15,0,0,1,.15-.15.15.15,0,0,1,.13.07,7.43,7.43,0,0,0,.49.75,4.17,4.17,0,0,0,0-.86.16.16,0,0,1,.16-.18.13.13,0,0,1,.13.11c.64,2.81,4.3,2.38,5.68,4.6s1.23,5.22,2.27,7.69c0,.1-.06.19-.15.19" fill="#a2a197"/><path id="path12764" d="M51.19,120a1.93,1.93,0,0,1-.75-.15A4.15,4.15,0,0,1,48,116.81a3.58,3.58,0,0,1,1.4-2.65c2-1.88,4.75-2.82,6.78-4.67,2.93-2.66,4.39-6.42,5.89-10-1.61,1.73-2.77,4-5,4.84a19.69,19.69,0,0,1-2.11,1.39c-2.05,1.23-4.18,2.33-6.33,3.39h-.07a.14.14,0,0,1-.14-.18,6.65,6.65,0,0,0,.27-2.33A11.33,11.33,0,0,1,46.37,110a18.68,18.68,0,0,1-3.83,2.27c-.92.43-1.88.77-2.8,1.22s-2.06.94-2.27,1.89l-.22.09c-1.23-.53-2.36-1.27-3.59-1.82s-2.64-.88-3.93-1.41a12.36,12.36,0,0,1-3.17-1.73A5.89,5.89,0,0,1,25,108.46a8.68,8.68,0,0,1-2.2-2.28,10.16,10.16,0,0,1-1.06-3,12.92,12.92,0,0,1-.46,3.28l-.17.07a18.05,18.05,0,0,1-4.59-3.16,42.81,42.81,0,0,0-5.26-3.83c-1.52-.9-3.23-1.76-3.54-3.67a5.75,5.75,0,0,1,.94-3.52A28.32,28.32,0,0,0,6.82,95H6.57A10.52,10.52,0,0,1,5,92a2.46,2.46,0,0,0,0,.47c0-.1,0-.21,0-.31A8.38,8.38,0,0,1,6,89.1a13.62,13.62,0,0,1,2.33-3.85h0a1.9,1.9,0,0,1-.83.22l-.08-.07,0-.1a26.8,26.8,0,0,1,1.38-3.48,31.49,31.49,0,0,1,2.61-3.06c.33-.4.68-.79,1-1.19.93.73,1.74,1.62,2.71,2.29a24.91,24.91,0,0,0,4.9,2.64l.11.18c-.77,2.64,3.46,2.93,5.12,3,.54,0,1.09,0,1.63,0s.94,0,1.41,0a2.12,2.12,0,0,0,.28.72h0a1.49,1.49,0,0,0,1.34.63,7,7,0,0,0,1.95-.41l0-.11.12-.07,0,0a1.1,1.1,0,0,0,.85.32,7.55,7.55,0,0,0,2-.5c.62-.18.8-.72.88-1.31h0v0h0s0-.09,0-.14l.75-.14c1.15-.23,2.29-.48,3.41-.82a6.77,6.77,0,0,0,2.84-1.37A9.75,9.75,0,0,1,44.28,81a10.44,10.44,0,0,1,2.26-.86,23.37,23.37,0,0,0,5-2.41A22.94,22.94,0,0,0,53.79,76a50.43,50.43,0,0,0,3.3-4.12,49.64,49.64,0,0,1-3.83,4.72c-2.87,3.08-6.61,4.87-10.06,7.19-3,2-5.76,4.89-9.4,5.79a8,8,0,0,1-1.92.23,13.39,13.39,0,0,1-4.59-1c-1.91-.71-3.84-1.36-5.73-2.12a12.57,12.57,0,0,1-4.89-3.15A15.57,15.57,0,0,1,15,81c-.23-.38-.5-.74-.74-1.11a4.07,4.07,0,0,0-.28-.55.43.43,0,0,0-.36-.16,2.43,2.43,0,0,0-.68.18,4.17,4.17,0,0,0-1.56,1A18.68,18.68,0,0,0,8.58,84a.16.16,0,0,0,.13.23.09.09,0,0,0,.07,0,12.14,12.14,0,0,1,3.47-1.49C8.9,85.09,6.32,89,7.19,93.19a.14.14,0,0,0,.13.1.17.17,0,0,0,.14-.07,15.19,15.19,0,0,1,3.33-3.64,4.93,4.93,0,0,0-.44,3A6.15,6.15,0,0,0,12.87,96a39.65,39.65,0,0,0,3.66,2.32A46,46,0,0,0,20.81,101l.22-.09a42.57,42.57,0,0,1,1.86-4.28c.18,5,6.59,7.45,10.4,9.24,1.15.54,2.18,1.29,3.34,1.8a2.14,2.14,0,0,0,.82.18,3.73,3.73,0,0,0,2.39-1.47c.69-.7,1.54-1.28,2.28-1.94s1.39-1.3,2-2a29.51,29.51,0,0,0,3.25-4.06,21,21,0,0,1,.13,3.45.14.14,0,0,0,.14.14.15.15,0,0,0,.11,0,35.63,35.63,0,0,0,4.63-5.18,22.67,22.67,0,0,1,.32,4.59l.19.15c6-2,6.91-9.47,5.85-14.89,2.59,1.5,2.23,5.35,2.7,7.91l.22.09c3.57-2.52,8.75-9.36,3.82-12.86a10.83,10.83,0,0,1,2.47.64c-.64-.17-1.25-.44-1.89-.56a7.69,7.69,0,0,1,2.7,6.76c-.39,2.81-2.38,5-3.54,7.55a50.84,50.84,0,0,0,4.88-3.93h.2a4.9,4.9,0,0,1,.8,2.41c.14,1,.31,2,.38,3,0,.72,0,1.46.12,2.17s.21,1.38.26,2.08a5,5,0,0,1-.52,3,15,15,0,0,1-2.21,2.57c-.88.9-1.76,1.8-2.7,2.65a58.19,58.19,0,0,1-6.09,4.75c-1.77,1.2-3.59,2.33-5.44,3.41a29.58,29.58,0,0,1-2.75,1.53,2.52,2.52,0,0,1-1,.23" fill="#a2a197"/><path id="path12766" d="M68.94,84h0m0,0a5.64,5.64,0,0,0-.46-.63,5.64,5.64,0,0,1,.46.63m-.47-.64h0m-.16-.19,0,0a.14.14,0,0,1,0-.1.14.14,0,0,0,0,.1l0,0" fill="#a2a197"/><path id="path12768" d="M17.59,131.76a4.77,4.77,0,0,1-2.36-3.47,11.38,11.38,0,0,1-.18-1.25c0,.14,0,.28,0,.41,0,.3.09.58.14.84h0a4.77,4.77,0,0,0,2.36,3.47h0" fill="#ded8cd"/><path id="path12770" d="M15.23,128.29c-.05-.26-.1-.54-.14-.84,0,.29.09.58.14.84" fill="#a2a197"/><path id="path12772" d="M15.13,126.2A2.6,2.6,0,0,1,15,126a5.68,5.68,0,0,1,.15-1.17,5.2,5.2,0,0,0,0,1.42M18,126a7.45,7.45,0,0,1-.08-1.16,3.66,3.66,0,0,1,.05-.57h0A5.87,5.87,0,0,1,18,126" fill="#a2a197"/><path id="path12774" d="M54.22,122.87l.17,0h0l-.17,0m-11.43-.46h0l-.1-.07a.32.32,0,0,1,.12.08m-24.1-.07h0" fill="#a2a197"/><path id="path12776" d="M25,120.51h0l-.13-.19-.06-.09h0l.06.09.13.19" fill="#ded8cd"/><path id="path12778" d="M47.73,121.07l.13-.07h.07l-.2.07" fill="#a2a197"/><path id="path12780" d="M6.66,96.47l0-.11,0,0,0-.08c-.3-.67-.54-1.36-.85-2A7.08,7.08,0,0,1,5,92.62a.77.77,0,0,1,0-.15.77.77,0,0,0,0,.15A7.08,7.08,0,0,0,5.7,94.2c.31.67.55,1.36.85,2l0,.08,0,0,0,.11.18,0h0l-.18,0" fill="#ded8cd"/><path id="path12782" d="M69.07,84.19a1.37,1.37,0,0,0-.13-.2,1.37,1.37,0,0,1,.13.2h0m-.13-.2h0m-.46-.63h0m0,0-.15-.18.15.18m-.2-.85L68,82.43l.27.06" fill="#a2a197"/><path id="path12784" d="M15.09,127.45c0-.13,0-.27,0-.41s0-.28,0-.42c0,.29,0,.56.06.83m-.06-.83h0" fill="#bcb3a2"/><path id="path12786" d="M44.55,132.48a2.31,2.31,0,0,1-2.11-1.39,4.79,4.79,0,0,1,.23-3.67,15.73,15.73,0,0,1,2-3.84A8.31,8.31,0,0,1,46.29,122a10.67,10.67,0,0,0-2.43,4.82,4.67,4.67,0,0,0-.17,2.88,1.14,1.14,0,0,0,1.1.67,2,2,0,0,0,.82-.19,5.63,5.63,0,0,0,2.2-2.36,18.34,18.34,0,0,0,1.54-3.48,4.77,4.77,0,0,0,.4-2.7,4,4,0,0,1,1,2.45c.21,1.51.43,3.16-.5,4.5a10.72,10.72,0,0,1-2.28,2.33,6.51,6.51,0,0,1-3.1,1.52l-.29,0m-16.09-.08a14.93,14.93,0,0,0,5.6-5.61,52.82,52.82,0,0,1-4.61,3.69,4.61,4.61,0,0,1-2.6,1.09h0a6.52,6.52,0,0,1-2.6-.65,2,2,0,0,1-1.14-1.82,10.4,10.4,0,0,1-.19-2.89,2.76,2.76,0,0,1,1.15-1.92,1.61,1.61,0,0,1,1-.35,4.32,4.32,0,0,1,.93.16H25.8a3.19,3.19,0,0,0-1.29.25c-1.48.66-1.6,2.87-1.16,4.19.28.82.86,1.49,1.49,1.49a1.3,1.3,0,0,0,1.05-.71c1-1.48.38-4,2.75-4.19l.07,0,0,0h.05a.14.14,0,0,0,.12-.15h0a8.39,8.39,0,0,0,1.63.18,5.49,5.49,0,0,0,.58,0,22.29,22.29,0,0,0-2.87-.92,4,4,0,0,1-1.94-.82l0-.18a1.05,1.05,0,0,1,1-.51,3.82,3.82,0,0,1,1.23.26h0A42.06,42.06,0,0,1,25,120.51l-.13-.19-.06-.09L27,121.44a4.87,4.87,0,0,0,1.88.47,8,8,0,0,1,3.12.84l.07,0c.09,0,.19-.09.15-.19-1-2.47-.83-5.38-2.27-7.69s-5-1.79-5.68-4.6a.13.13,0,0,0-.13-.11.16.16,0,0,0-.16.18,4.17,4.17,0,0,1,0,.86,7.43,7.43,0,0,1-.49-.75.15.15,0,0,0-.13-.07.15.15,0,0,0-.15.15,8.14,8.14,0,0,1,0,.85,30.25,30.25,0,0,0-1.6-2.69,11.42,11.42,0,0,0-2.26-1.82,5.47,5.47,0,0,0-2.62-1.31,1.11,1.11,0,0,0-1,.65c-.59,1.11-.06,2.72.39,3.91-.32-.65-.61-1.31-.89-2h0a31.7,31.7,0,0,1-1.83-5.25c-.35-.17-.68-.35-1-.55A15.65,15.65,0,0,1,9.05,100a6.39,6.39,0,0,1-1.84-4.67c0-.14,0-.28,0-.42h0a6.61,6.61,0,0,0-.43,1.13h0c0,.12,0,.24,0,.36l-.18,0,0-.11,0,0,0-.08c-.3-.67-.54-1.36-.85-2A7.08,7.08,0,0,1,5,92.62a.77.77,0,0,1,0-.15A2.46,2.46,0,0,1,5,92a10.52,10.52,0,0,0,1.57,3h.25a28.32,28.32,0,0,1,1.87-2.62,5.75,5.75,0,0,0-.94,3.52c.31,1.91,2,2.77,3.54,3.67a42.81,42.81,0,0,1,5.26,3.83,18.05,18.05,0,0,0,4.59,3.16l.17-.07a12.92,12.92,0,0,0,.46-3.28,10.16,10.16,0,0,0,1.06,3,8.68,8.68,0,0,0,2.2,2.28,5.89,5.89,0,0,0,1.53,2.09,12.36,12.36,0,0,0,3.17,1.73c1.29.53,2.65.85,3.93,1.41S36,115,37.25,115.51l.22-.09c.21-1,1.48-1.5,2.27-1.89s1.88-.79,2.8-1.22A18.68,18.68,0,0,0,46.37,110a11.33,11.33,0,0,0,2.28-3.41,6.65,6.65,0,0,1-.27,2.33.14.14,0,0,0,.14.18h.07c2.15-1.06,4.28-2.16,6.33-3.39A19.69,19.69,0,0,0,57,104.35c2.28-.84,3.44-3.11,5-4.84-1.5,3.56-3,7.32-5.89,10-2,1.85-4.74,2.79-6.78,4.67a3.58,3.58,0,0,0-1.4,2.65,4.12,4.12,0,0,0,2.43,3.07,1.78,1.78,0,0,0,.75.16,2.52,2.52,0,0,0,1-.23,29.58,29.58,0,0,0,2.75-1.53c1.85-1.08,3.67-2.21,5.44-3.41a58.19,58.19,0,0,0,6.09-4.75c.94-.85,1.82-1.75,2.7-2.65a15,15,0,0,0,2.21-2.57,5,5,0,0,0,.52-3c-.05-.7-.17-1.39-.26-2.08s-.07-1.45-.12-2.17c-.07-1-.25-2-.39-3a4.89,4.89,0,0,0-.79-2.41h-.2a50.84,50.84,0,0,1-4.88,3.93c1.16-2.52,3.15-4.74,3.54-7.55a7.69,7.69,0,0,0-2.7-6.76c.64.12,1.25.39,1.89.55l.27.07h0a.16.16,0,0,0,.16-.14.14.14,0,0,0,0-.07c-1-1.78-3.32-2-5.15-2.56a5.52,5.52,0,0,1,1-.09c2.78,0,5.3,2.11,6.51,4.61a5.13,5.13,0,0,0-2.34-1.35h0a.16.16,0,0,0-.16.15.14.14,0,0,0,0,.1l0,0,.15.18h0a6.62,6.62,0,0,1,.46.62h0a1.37,1.37,0,0,1,.13.2c.4,1.78,1.19,3.47,1.14,5.32l.11.15c2.2.69,2.24,3.79,2.34,5.66s-.14,4.36,1,6l.2,0a20.83,20.83,0,0,0,3.88-3.57,66.43,66.43,0,0,0-5,9.88,22.82,22.82,0,0,0-1.86,5.78,4.73,4.73,0,0,0,.65,3.67c1.54,1.88,4.49,2,6.72,2.08,1.91.07,3.83.14,5.75.14,1.66,0,3.33-.06,5-.21a21.5,21.5,0,0,0,5.33-1.16,15.91,15.91,0,0,1-6.89,2.95.15.15,0,0,0,0,.29,12,12,0,0,0,1.57.11,7.71,7.71,0,0,0,1.44-.12,7.63,7.63,0,0,1-3.2.64,12.36,12.36,0,0,1-1.81-.14q.38.06.75.09h0a6.81,6.81,0,0,1-2.61-1,.15.15,0,0,1,0-.27,9.59,9.59,0,0,1,1.86-.12,19.32,19.32,0,0,0,2.49-.42,13.72,13.72,0,0,0,1.83-.51,34.07,34.07,0,0,1-7.15.7H82.2a63.23,63.23,0,0,1-7.15-.43,11.77,11.77,0,0,1-2.7-.55,4.54,4.54,0,0,1-1-.56c-.36-.28-.64-.64-1-.88v-.25a4.73,4.73,0,0,1-.42-2.42,15.92,15.92,0,0,1,.82-4.37,36.06,36.06,0,0,1,4.3-8.93A9,9,0,0,1,73.71,103l-.25-.07a26.55,26.55,0,0,1-.59-3.55c-.26-1.28-.51-2.56-.74-3.84-.3-1.66-.67-3.71-1.88-5a35.06,35.06,0,0,1,2.32,9.49,13.31,13.31,0,0,1,.27,4.44,8.59,8.59,0,0,1-1.18,2.77l.06.19a31.86,31.86,0,0,1-6.68,7.6,50.36,50.36,0,0,1-8.21,6.43,11.89,11.89,0,0,1-4.38,1.43,3.79,3.79,0,0,1-.49,0,1.49,1.49,0,0,1-1-.29c-.48-.4-.57-1-1-1.47a1.89,1.89,0,0,0-1.42-.62,4.17,4.17,0,0,0-2.56,1.2c-.5.46-1.23,1.28-2,1.28h-.15l.39.4a.16.16,0,0,1-.11.25.09.09,0,0,1-.08,0,2.21,2.21,0,0,1-.47.86,7.19,7.19,0,0,0-.83,1.48,23,23,0,0,0-1.47,3.58c-.17.7.42,2.41-.52,2.41a1.42,1.42,0,0,1-.51-.12c-1-.39-2.51-1.44-2.64-2.6-.19-1.51.71-2.61,1.55-3.73.21-.45.44-.87.64-1.22-.67,1.19-1.63,3-1.14,4.39a1.09,1.09,0,0,0,1.09.72,1.66,1.66,0,0,0,.66-.14c.83-.36,1.24-1.47,1.55-2.23.41-1,2.48-3.91.81-4.63a.32.32,0,0,0-.12-.08,1.28,1.28,0,0,0-.44-.19h.06a2.34,2.34,0,0,1,1.31.64,10.1,10.1,0,0,0,1.49-3.1,5.63,5.63,0,0,0,.54-3.24,9.74,9.74,0,0,0-.73-1.65.92.92,0,0,1-.15-.68,5.24,5.24,0,0,1,1.7-2.12.15.15,0,0,1,.11,0,.13.13,0,0,1,.14.14c0,.4-.06.79-.11,1.19a11.36,11.36,0,0,1,2.53-2c1.41-1,2.85-1.86,4.33-2.72a25.05,25.05,0,0,0,4.39-2.71,8.57,8.57,0,0,0,2.09-3A12.65,12.65,0,0,1,56,106.48c-1.42.85-2.9,1.56-4.27,2.49s-2.95,2.08-4.46,3l-.12,0-.15-.18a8.33,8.33,0,0,0,.34-1.54,13.13,13.13,0,0,1-2.7,2.57c-1.31.7-2.74,1.19-4.1,1.78a12.63,12.63,0,0,0-2.08,1c-.43.31-.8.7-1.23,1a1.31,1.31,0,0,1-.73.29.88.88,0,0,1-.72-.52c-.82-1.33-2.57-2-4-2.51s-2.66-.86-4-1.4a8,8,0,0,1-3.17-2.13,5.8,5.8,0,0,1-.88-1.48,6.13,6.13,0,0,0,1.41,2.45,10.5,10.5,0,0,0,3.45,2.17c1.12.53,2.27,1,3.4,1.49.71.32,1.51.68,1.69,1.51.12.59,0,1.22.17,1.82.18.82.33,1.64.5,2.46s.36,1.77.47,2.67c0,.22.05.47.08.74a6.15,6.15,0,0,0,0-1h0c0,.18,0,.37,0,.55a4.59,4.59,0,0,1-.18,1.33,13.93,13.93,0,0,1-6.33,7.3M50,132a1.65,1.65,0,0,1-1.31-.49c-.38-.44.72-1.15.94-1.36a4.41,4.41,0,0,0,1.73-3.71c-.12-.89-.31-1.68.56-2.24.44-.28.9-.54,1.36-.78a2.8,2.8,0,0,0-.29.37,4.78,4.78,0,0,0-.22,2.78,8.06,8.06,0,0,1-.08,1.47,1.42,1.42,0,0,0,0,.84.75.75,0,0,0,.7.37,1.67,1.67,0,0,0,.77-.21c1.21-.62,1.41-2.57,1.46-3.75a4.63,4.63,0,0,0-.22-1.8l.93.73a8.56,8.56,0,0,0,1,.36,11.15,11.15,0,0,1-1.75-.73h0a7.62,7.62,0,0,1,.3,1.48,9.87,9.87,0,0,1,.06,1.07,5.53,5.53,0,0,1-.6,2.64,5.48,5.48,0,0,1-1.37,1.3,9.64,9.64,0,0,1-3.05,1.54A3.73,3.73,0,0,1,50,132m-32.36-.23a4.77,4.77,0,0,1-2.36-3.47h0c-.05-.27-.1-.55-.14-.84s-.05-.55-.06-.83h0c0-.23,0-.45,0-.67a2.6,2.6,0,0,0,.1.25,4.21,4.21,0,0,0,.09.49c.21,1,.75,2.31,1.88,2.43h.12c1,0,.92-1.55.87-2.23,0-.3-.08-.6-.12-.9a5.87,5.87,0,0,0,0-1.73h0a6.83,6.83,0,0,1,.72-1.93h.26a10.45,10.45,0,0,0-.36,1.64,9.53,9.53,0,0,0,.83,6.68l-.05.2a2,2,0,0,1-1.19.41,3.34,3.34,0,0,1-2.35-1.35,4.06,4.06,0,0,0,1.79,1.83m4.27-.8A2.93,2.93,0,0,1,19,128.42l0,0c.23.53.61,1.2,1.15,1.32a1.22,1.22,0,0,0,.32,0c1.34,0,1.21-2.43,1.19-3.29,0-1.25.77-3.79,2.29-3.79a1.65,1.65,0,0,1,.69.16l.23-.12.34.33.09-.19.21.28.06,0,.09.18a3.78,3.78,0,0,0,1,.86l.31.07a6,6,0,0,0-.93-.14h0a4.77,4.77,0,0,1-.7-.72,2.15,2.15,0,0,0-.55-.08c-1.18,0-2.05,1.16-2.31,2.32a16.85,16.85,0,0,0,.12,5.11l-.11.15a4.24,4.24,0,0,1-.68.07m33.06-1.32a6.49,6.49,0,0,0,.37-.6,6.49,6.49,0,0,1-.37.6m23-.74a2.53,2.53,0,0,1-.47,0c-1.12-.15-1.66-1.29-1.94-2.26-.49-1.7-.17-4.24,1.31-5.44A4,4,0,0,0,75.34,123a5.47,5.47,0,0,0-.43,3.07c.06.86,0,2.3-.92,2.3a1.42,1.42,0,0,1-.49-.1c-1.88-.72-3.56-3.55-2.21-5.27a9.69,9.69,0,0,0-.29,1.07c-.17.82.24,1.13.78,1.13a2.22,2.22,0,0,0,1-.28,11,11,0,0,0,3.32-3.54h0c.12,0,.23-.15.11-.24l0,0-.08-.06a3.79,3.79,0,0,0-2.16-.78h-.19l-.51-.14-.14.13h0c-1.07,0-1.83,2-2.21,2.76a4.08,4.08,0,0,0-.7,2,4.85,4.85,0,0,0,1,2.22l-.06.2a1.87,1.87,0,0,1-1.12.38,4.07,4.07,0,0,1-2.43-1.18,3.58,3.58,0,0,1-1.32-2.1v.19c0-.1,0-.2,0-.29a5.65,5.65,0,0,1,.48-2.19h0l-.13,0A9.26,9.26,0,0,1,69,118.88a2.24,2.24,0,0,1,1.31-.56,1,1,0,0,1,.42.08,4.09,4.09,0,0,1,.89.6,5.34,5.34,0,0,0,1.44.7,20.43,20.43,0,0,0,6.06.92,3.39,3.39,0,0,0-2.67,2,2.07,2.07,0,0,0,1.15,3,2.43,2.43,0,0,0,.61.07c.58,0,1.22-.14,1.73-.17,1.13-.07,2.26-.19,3.38-.35,2.07-.27,4.14-.67,6.2-1a10,10,0,0,0,4.74-1.77,8.76,8.76,0,0,0,2.63-4A24.47,24.47,0,0,0,98,111.8c0-.43.5-3.34-.43-3.34a.78.78,0,0,0-.33.09A6.55,6.55,0,0,0,95.62,110a28,28,0,0,1-2.41,2.34,21.91,21.91,0,0,1-6.33,3.71,84.18,84.18,0,0,0,6.68-6.41,93.39,93.39,0,0,0,5.92-7.36,55.19,55.19,0,0,0,6.78-10.73c-.23.88-.49,1.75-.76,2.64h0a10.81,10.81,0,0,1-2.57,4.92c-.25.25-.51.49-.77.72s-.43.62-.64.94-.57.88-.85,1.33c-.45.7-.9,1.42-1.36,2.12-.68,1-1.69,1.8-2.45,2.76-2.46,2.69-5.2,5.12-7.66,7.82a30.17,30.17,0,0,0,6.16-5.67A12.27,12.27,0,0,1,97.57,107l-.23,0-.22,0,.24,0a1.12,1.12,0,0,1,1,.47,3.81,3.81,0,0,1,.61,2.35c0,.14,0,.28,0,.42,0,1.09-.16,2.2-.3,3.28a36.15,36.15,0,0,1-1.77,6.95,10,10,0,0,1-1.1,3.05l.21-.33a15.79,15.79,0,0,1-3.37,2.67,17.07,17.07,0,0,1-4.84,1.48c-1.84.37-3.68.76-5.54,1-.93.13-1.84.23-2.76.38a9.06,9.06,0,0,1-1.48.17m-7.49-9.71a2.38,2.38,0,0,0-1.52.57,4.27,4.27,0,0,0-1.77,3.45.9.9,0,0,0,.92.91,1.89,1.89,0,0,0,.91-.28c1.42-.83,1.78-2.7,3.07-3.67l0,0h0a.16.16,0,0,0,.07-.28,3,3,0,0,0-1.76-.65m-3.85,6.87v0M39.87,124.2l.07-.12-.07.12M55.05,123h0m0,0a.51.51,0,0,0-.21-.1.51.51,0,0,1,.21.1m-.65-.19h0m-6.8-1.71.22-.13h0l-.13.07-.14.06m32.52-.53h0m-7.3,0a1.82,1.82,0,0,1,.27-.15l-.27.15" fill="#8a877b"/><path id="path12788" d="M55.29,129h0m4.2-4.1a7.37,7.37,0,0,1-2.21-.37,7.37,7.37,0,0,0,2.21.37,5.22,5.22,0,0,0,1.52-.22,22.06,22.06,0,0,0,3.21-1.64,11,11,0,0,1,2.37-.85h0a11,11,0,0,0-2.37.85A22.06,22.06,0,0,1,61,124.72a5.22,5.22,0,0,1-1.52.22" fill="#ded8cd"/><path id="path12790" d="M54.09,122.9h0l.13,0a.31.31,0,0,0-.13,0m-6-1.87L48,121l0,0h0l.06,0,.15,0a2,2,0,0,1,.62-.1h0a2,2,0,0,0-.62.1" fill="#a2a197"/><path id="path12792" d="M46.29,122a4.49,4.49,0,0,1,1.3-.89h0a4.72,4.72,0,0,0-1.25.86l0,0m3.46-.36h0l0-.12a.94.94,0,0,0-.76-.6h0a.94.94,0,0,1,.76.6s0,.08,0,.13" fill="#8a877b"/><path id="path12794" d="M39.82,124.3a.73.73,0,0,1,0-.09h0a.73.73,0,0,0,0,.09m.12-.22c.44-.76,1.22-2,2.12-2l.17,0h-.17c-.9,0-1.68,1.18-2.12,1.94m15.45-.6h0a1,1,0,0,0-.33-.45,1.14,1.14,0,0,1,.34.45m-2.16-.07a1.79,1.79,0,0,1,.86-.52h0a1.77,1.77,0,0,0-.86.51h0m1.82-.38h0" fill="#8a877b"/><path id="path12796" d="M79.11,120.63h0a5.65,5.65,0,0,1,.59,0h0a4.07,4.07,0,0,0-.61,0" fill="#8a877b"/><path id="path12798" d="M54.09,122.89l.06,0,.14,0h.1l-.17,0-.13,0" fill="#8a877b"/><path id="path12800" d="M48.14,121,48,121l-.06,0h-.07a.71.71,0,0,1,.18-.08l.26,0a.92.92,0,0,1,.35-.06.85.85,0,0,1,.23,0h-.12a2,2,0,0,0-.62.1" fill="#8a877b"/><path id="path12802" d="M43.91,133.33a2,2,0,0,1-1.15-.34,3.43,3.43,0,0,1-1.14.21,2.74,2.74,0,0,1-1.23-.29,5.82,5.82,0,0,1-2.56-2.35,2.84,2.84,0,0,1-.38-1.4,4.16,4.16,0,0,1,.46-1.77c.3-.63.59-1.25.93-1.84h0a5.91,5.91,0,0,1-1.71-.69A19.11,19.11,0,0,1,35,123.22h0a6.15,6.15,0,0,1,0,1c0-.27-.06-.52-.08-.74-.11-.9-.28-1.79-.47-2.67s-.32-1.64-.5-2.46c-.13-.6,0-1.22-.17-1.82-.18-.83-1-1.19-1.69-1.51-1.13-.51-2.28-1-3.4-1.49a10.5,10.5,0,0,1-3.45-2.17,6.06,6.06,0,0,1-1.41-2.45,5.8,5.8,0,0,0,.88,1.48,8,8,0,0,0,3.17,2.13c1.3.54,2.65.93,4,1.41s3.17,1.18,4,2.5a.88.88,0,0,0,.72.52,1.31,1.31,0,0,0,.73-.29c.43-.3.8-.69,1.23-1a11.9,11.9,0,0,1,2.08-1c1.36-.59,2.79-1.08,4.1-1.78a13.35,13.35,0,0,0,2.7-2.56,8.41,8.41,0,0,1-.34,1.53l.15.18.12,0c1.51-1,3-2,4.46-3s2.85-1.64,4.27-2.49a12.65,12.65,0,0,0,3.93-3.59,8.57,8.57,0,0,1-2.09,3,25.05,25.05,0,0,1-4.39,2.71c-1.48.86-2.92,1.76-4.33,2.73a11,11,0,0,0-2.53,2,11.69,11.69,0,0,0,.11-1.19.13.13,0,0,0-.14-.14.15.15,0,0,0-.11,0,5.31,5.31,0,0,0-1.7,2.12.92.92,0,0,0,.15.68,9.74,9.74,0,0,1,.73,1.65,5.63,5.63,0,0,1-.54,3.24,10,10,0,0,1-1.49,3.1,2.34,2.34,0,0,0-1.31-.64h-.06l-.17,0c-.9,0-1.68,1.19-2.12,2l-.07.13h0a.73.73,0,0,0,0,.09c-.2.35-.43.77-.64,1.22-.84,1.13-1.74,2.22-1.55,3.73.13,1.16,1.63,2.21,2.64,2.6a1.42,1.42,0,0,0,.51.12c.94,0,.35-1.71.52-2.41A23,23,0,0,1,42.77,126a7.11,7.11,0,0,1,.83-1.47,2.36,2.36,0,0,0,.47-.86.11.11,0,0,0,.08,0,.16.16,0,0,0,.11-.25l-.39-.4H44c.76,0,1.49-.82,2-1.28a4.22,4.22,0,0,1,2.56-1.2,1.89,1.89,0,0,1,1.42.62c.41.44.5,1.07,1,1.47a1.49,1.49,0,0,0,1,.29,3.79,3.79,0,0,0,.49,0,11.89,11.89,0,0,0,4.38-1.43A50.36,50.36,0,0,0,65,115.05a31.86,31.86,0,0,0,6.68-7.6l-.06-.19a8.59,8.59,0,0,0,1.18-2.77,13.31,13.31,0,0,0-.27-4.44,35.06,35.06,0,0,0-2.32-9.49c1.21,1.29,1.58,3.34,1.88,5,.23,1.28.48,2.56.74,3.84a26.55,26.55,0,0,0,.59,3.55l.25.07A9,9,0,0,0,75,101.75a36.06,36.06,0,0,0-4.3,8.93,15.92,15.92,0,0,0-.82,4.37,4.73,4.73,0,0,0,.42,2.42v.25c.38.24.66.61,1,.88a4.54,4.54,0,0,0,1,.56,11.77,11.77,0,0,0,2.7.55,61,61,0,0,0,7.15.43h.41a33.42,33.42,0,0,0,7.15-.7,12.36,12.36,0,0,1-1.83.51,19.32,19.32,0,0,1-2.49.42,9.59,9.59,0,0,0-1.86.12.15.15,0,0,0,0,.27,6.81,6.81,0,0,0,2.61,1q-.37,0-.75-.09h0c-1.78-.25-3.49-.91-5.29-1.06h-.42a5.65,5.65,0,0,0-.59,0A20.43,20.43,0,0,1,73,119.7a5.34,5.34,0,0,1-1.44-.7,4.09,4.09,0,0,0-.89-.6,1,1,0,0,0-.42-.08,2.24,2.24,0,0,0-1.31.56,9.26,9.26,0,0,0-2.39,3.35,11,11,0,0,0-2.37.85A22.06,22.06,0,0,1,61,124.72a5.22,5.22,0,0,1-1.52.22,7.37,7.37,0,0,1-2.21-.37,8.56,8.56,0,0,1-1-.36l-.93-.73a1.14,1.14,0,0,0-.34-.45h0a.51.51,0,0,0-.21-.1h0l-.13-.09h-.41l-.14,0-.06,0a1.79,1.79,0,0,0-.86.52c-.46.24-.92.5-1.36.78-.87.56-.68,1.35-.56,2.24a4.41,4.41,0,0,1-1.73,3.71c-.22.21-1.32.92-.94,1.37A1.68,1.68,0,0,0,50,132a3.73,3.73,0,0,0,.92-.12,9.44,9.44,0,0,0,3.05-1.54,5.48,5.48,0,0,0,1.37-1.3h0a6.49,6.49,0,0,1-.37.6h0a7,7,0,0,1-5.42,2.91,4.61,4.61,0,0,1-2.4-.65l-.39.3a5.33,5.33,0,0,1-2.16,1.06,3,3,0,0,1-.64.07M46.29,122a8.31,8.31,0,0,0-1.63,1.56,15.73,15.73,0,0,0-2,3.84,4.79,4.79,0,0,0-.23,3.67,2.31,2.31,0,0,0,2.11,1.39l.29,0a6.51,6.51,0,0,0,3.1-1.52,10.72,10.72,0,0,0,2.28-2.33c.93-1.34.71-3,.5-4.5a4,4,0,0,0-1-2.45s0-.09,0-.13a.94.94,0,0,0-.76-.6h-.07a.85.85,0,0,0-.23,0,.92.92,0,0,0-.35.06l-.26,0a.71.71,0,0,0-.18.08h0l-.22.13a4.49,4.49,0,0,0-1.3.89" fill="#756f62"/><path id="path12804" d="M96.81,107.08l0-.06,0-.06-.1.12.31-.07-.31.07" fill="#ded8cd"/><path id="path12806" d="M89.2,114.84c2.46-2.7,5.2-5.13,7.66-7.82l0,.06h0l.31-.07.22,0,.23,0a12.27,12.27,0,0,0-2.21,2.16,30.17,30.17,0,0,1-6.16,5.67" fill="#756f62"/><path id="path12808" d="M66.62,126a3.36,3.36,0,0,1-.37-1.36,3.53,3.53,0,0,0,.37,1.36m-.37-1.36h0" fill="#ded8cd"/><path id="path12810" d="M71.29,123a4.77,4.77,0,0,1,1.52-2.42h0A4.77,4.77,0,0,0,71.29,123h0m1.79-2.57a2.18,2.18,0,0,1,.68-.16h0a2.31,2.31,0,0,0-.69.16" fill="#8a877b"/><path id="path12812" d="M77.49,130.09H77.2a2.23,2.23,0,0,1-1.72-.88,5.33,5.33,0,0,1-1.59.31,2,2,0,0,1-1.43-.54l-.36-.35a3.19,3.19,0,0,1-1.2.25,2.61,2.61,0,0,1-1.43-.43,7.43,7.43,0,0,1-2.85-2.38h0v0a3.53,3.53,0,0,1-.37-1.36h0v-.19a3.58,3.58,0,0,0,1.32,2.1A4.07,4.07,0,0,0,70,127.77a1.87,1.87,0,0,0,1.12-.38l.06-.2a4.85,4.85,0,0,1-1-2.22,4,4,0,0,1,.7-2c.38-.79,1.14-2.77,2.21-2.77h0l.14-.13.51.14a2.18,2.18,0,0,0-.68.16,1.82,1.82,0,0,0-.27.15h0A4.77,4.77,0,0,0,71.29,123c-1.35,1.72.33,4.55,2.21,5.27a1.42,1.42,0,0,0,.49.1c1,0,1-1.44.92-2.3a5.47,5.47,0,0,1,.43-3.07,4,4,0,0,1,1.52-1.81c-1.48,1.2-1.8,3.74-1.31,5.44.28,1,.82,2.11,1.94,2.26a2.56,2.56,0,0,0,.47,0,9.07,9.07,0,0,0,1.48-.18c.92-.15,1.83-.25,2.76-.38,1.86-.26,3.7-.65,5.54-1a17.07,17.07,0,0,0,4.84-1.48A15.79,15.79,0,0,0,96,123.18l-.21.33h0c-.17.23-.36.45-.55.67l0,.13a8.92,8.92,0,0,1-4.64,3.46,34.12,34.12,0,0,1-6.64,1.33c-1.26.15-2.51.31-3.75.58a12.5,12.5,0,0,1-2.65.41" fill="#756f62"/><path id="path12814" d="M25.32,122.84h0a4.22,4.22,0,0,1,.52-1,4.6,4.6,0,0,0-.52,1m.52-1c-.26-.44-.53-.88-.82-1.3h0c.29.42.55.85.81,1.29h0" fill="#ded8cd"/><path id="path12816" d="M28.92,125l-.09-.15a17.86,17.86,0,0,0-1.83-.58,17.86,17.86,0,0,1,1.83.58.14.14,0,0,1,.09.15" fill="#8a877b"/><path id="path12818" d="M30.55,125.16a8.39,8.39,0,0,1-1.63-.18h0a.14.14,0,0,0-.09-.15,17.86,17.86,0,0,0-1.83-.58l-.31-.06a4,4,0,0,1-1-.87l-.09-.18h-.06l-.21-.29a4.6,4.6,0,0,1,.52-1h0c-.26-.44-.52-.87-.81-1.29A42.06,42.06,0,0,0,28.52,123a3.82,3.82,0,0,0-1.23-.26,1.05,1.05,0,0,0-1,.51l0,.18a4,4,0,0,0,1.94.82,22.29,22.29,0,0,1,2.87.92,5.49,5.49,0,0,1-.58,0" fill="#756f62"/><path id="path12820" d="M26.07,124.11h0" fill="#8a877b"/><path id="path12822" d="M19,128.38c0-.1-.08-.19-.11-.28l.11.28m-.56-2.91v0a11.61,11.61,0,0,1,.1-1.44s0,0,0,0a10.39,10.39,0,0,0-.11,1.47v0" fill="#8a877b"/><path id="path12824" d="M26.37,132.78h-.28a4.63,4.63,0,0,1-2.51-.91,3.48,3.48,0,0,1-.73.07,8.84,8.84,0,0,1-1.89-.25,3,3,0,0,1-.62-.26,4,4,0,0,1-1.83.54,2.09,2.09,0,0,1-.92-.2h0a4.06,4.06,0,0,1-1.79-1.83,3.34,3.34,0,0,0,2.35,1.35,2,2,0,0,0,1.19-.41l.05-.2a9.53,9.53,0,0,1-.83-6.68,11.61,11.61,0,0,0-.1,1.44v0a7.86,7.86,0,0,0,.45,2.63h0l.11.28,0,0A2.93,2.93,0,0,0,21.86,131a4.24,4.24,0,0,0,.68-.07l.11-.15a16.85,16.85,0,0,1-.12-5.11c.26-1.16,1.13-2.32,2.31-2.32a2.15,2.15,0,0,1,.55.08,4.77,4.77,0,0,0,.7.72H26a4.32,4.32,0,0,0-.93-.16,1.61,1.61,0,0,0-1,.35,2.76,2.76,0,0,0-1.15,1.91,10.45,10.45,0,0,0,.19,2.9,2,2,0,0,0,1.14,1.82,6.52,6.52,0,0,0,2.6.65h0a4.61,4.61,0,0,0,2.6-1.09,52.82,52.82,0,0,0,4.61-3.69,14.93,14.93,0,0,1-5.6,5.61h0l-.15,0a5.18,5.18,0,0,1-1.94.4" fill="#756f62"/><path id="path12826" d="M104.11,79.31a30.24,30.24,0,0,0-2.8-5A40.88,40.88,0,0,0,97.45,69a37.45,37.45,0,0,0-9.71-7.82c-3.26-1.89-7.44-3.94-11.28-4.06s-7.55,2-10.5,4.31c-.13.11,0,.34.13.26A34.56,34.56,0,0,1,71,59.73a15,15,0,0,1,5.35-.31c3.78.42,7.53,2.39,10.84,4.16a38.56,38.56,0,0,1,9.1,6.48,39.43,39.43,0,0,1,3.83,4.52c1.2,1.61,2.15,3.49,3.48,5,.21.23.63.06.51-.26" fill="#d3d2d0"/><path id="path12828" d="M110.51,80.09c-.93-.3-2,1.08-2.56,1.67a.15.15,0,0,0,.19.22c.4-.29.77-.61,1.16-.9s1-.29,1.29-.66a.23.23,0,0,0-.08-.33" fill="#d3d2d0"/><path id="path12830" d="M116,83.32c-1.48-2.31-4.55-2.59-6.79-1.35l.07.19c2.38-.5,4.45.31,6.49,1.44.17.09.32-.13.23-.28" fill="#d3d2d0"/><path id="path12832" d="M116,86.33c-.91-1.58-2.43-1.53-4-1.77a.15.15,0,0,0-.05.29,5.49,5.49,0,0,1,4.28,6.32l.13,0a5.58,5.58,0,0,0-.35-4.88" fill="#d3d2d0"/><path id="path12834" d="M91.86,87.81a48.41,48.41,0,0,0-8.47,8.75,43.49,43.49,0,0,0-6.59,11,.15.15,0,0,0,.26.16c5.25-6.39,9-13.88,15-19.62.14-.13-.08-.36-.23-.24" fill="#d3d2d0"/><path id="path12836" d="M63.67,77.51c-2.3-1.78-4.54-1.29-6.72.43l.1.19A9.65,9.65,0,0,1,63.37,78c.28.09.57-.26.3-.48" fill="#d3d2d0"/><path id="path12838" d="M63.85,79.15c-1.21-.71-2.56-.07-3.69.52-.15.08,0,.32.14.27.47-.15,1-.3,1.42-.43a4.79,4.79,0,0,1,2,0,.17.17,0,0,0,.1-.32" fill="#d3d2d0"/><path id="path12840" d="M62.83,81.31h.11v0c.27.1.53.22.78.34a3.1,3.1,0,0,1,1,.63,6,6,0,0,1,2.19,4.89c0,.26,0,.53,0,.81a7.57,7.57,0,0,0,.31-3.25,4.52,4.52,0,0,0-1.7-3,11.34,11.34,0,0,0,1.4.23c.13,0,.25-.16.12-.25A5.39,5.39,0,0,0,61.37,81a8.41,8.41,0,0,1,1.46.35" fill="#d3d2d0"/><path id="path12842" d="M58.15,90.22a19,19,0,0,1,.18,2.49,14.28,14.28,0,0,0,.37-3.13A7.92,7.92,0,0,0,56.06,84a16.45,16.45,0,0,1,2.09,6.26" fill="#d3d2d0"/><path id="path12844" d="M53,94.65A6.28,6.28,0,0,0,53.71,92a6.48,6.48,0,0,0-2.29-4.83,12.47,12.47,0,0,1,1.29,3.12l-.17.12a4.79,4.79,0,0,1-3,1.79v.17a5.31,5.31,0,0,0,3.32-1.41,11.77,11.77,0,0,1,.22,2.93c0,.26,0,.52-.05.78" fill="#d3d2d0"/><path id="path12846" d="M45.33,90.38c.26.67.51,1.33.73,2a5.82,5.82,0,0,1,.55,1.84,6.53,6.53,0,0,0-.79-.79l-.06.06a3.48,3.48,0,0,1,.56,1.2,8.24,8.24,0,0,0,.25,1.22l.1.12a6.85,6.85,0,0,1-.45,2.2,14.4,14.4,0,0,1-.86,1.92,10.63,10.63,0,0,0,2.42-3.41c.76-2.59-.52-4.78-2.45-6.36" fill="#d3d2d0"/><path id="path12848" d="M42.7,100.93c-1.09,1.54-2.57,2.78-3.6,4.38-.09.15.07.38.24.25A12.48,12.48,0,0,0,42.87,101l-.17-.11" fill="#d3d2d0"/><path id="path12850" d="M27.39,100a9.46,9.46,0,0,1-2.46-3.83c-.42-1.38.26-3,.15-4.38,0-.31-.52-.34-.54,0-.1,1.55-1.13,3.2-.56,4.75a8.14,8.14,0,0,0,3.16,3.8.2.2,0,0,0,.25-.31" fill="#d3d2d0"/><path id="path12852" d="M20.6,92.59A7.33,7.33,0,0,1,17,91.77a3.38,3.38,0,0,0-2.06-.71c-.6,0-1.14.69-1.57,1-1.08.86-1.09-2-1.16-2.4h0c.34-.79.76-1.55,1.06-2.18L13,87.39c-1,1.07-3.34,4.12-1.8,5.51a5.2,5.2,0,0,0,.25.46c.67,1.1,1.9,1.54,2.82,2.36a.15.15,0,0,0,.22-.21c-.55-.74-1.09-1.51-1.71-2.2l-.07-.09a1.75,1.75,0,0,0,.54,0c.33-.08.61-.44.83-.68a8.07,8.07,0,0,1,.73-.82c.52-.46,1.48.27,1.86.52a6.67,6.67,0,0,0,3.88.53v-.13" fill="#d3d2d0"/><path id="path12854" d="M11.78,84.69A10.38,10.38,0,0,0,8.9,87.21c-.77,1.05-.8,2.63-1.08,3.86l.2.06a14.44,14.44,0,0,1,1.71-3.72A20,20,0,0,0,12,84.86c.07-.13-.09-.23-.19-.17" fill="#d3d2d0"/><path id="path12856" d="M39.45,95.65a8.3,8.3,0,0,1-3.08-.72,1.25,1.25,0,0,0-1,0,4.47,4.47,0,0,0-1.12.77c-.9.69-1.6-.21-2.18-.77a1.06,1.06,0,0,0-1.62,0,8.06,8.06,0,0,0-1.17,1.51,6.64,6.64,0,0,1-1.77-2.93.74.74,0,0,0-1.39.5c.22.93.09,1.94.34,2.91a4.7,4.7,0,0,0,1.5,2.42c.15.13.37-.07.25-.22A6.92,6.92,0,0,1,27,96a3.81,3.81,0,0,0,2.16,1.91c1.57.46,1.42-3.59,2.65-2.34.72.74,1.6,1.33,2.57.68a2.85,2.85,0,0,0,.42-.43,1.53,1.53,0,0,1,2.16-.17,3.48,3.48,0,0,0,2.54.16.1.1,0,0,0,0-.19" fill="#d3d2d0"/><path id="path12858" d="M45.66,93.5l-.16,0c-.21.24-.39.49-.59.73l-.08.14,0-.09A2,2,0,0,0,44,93.11a.89.89,0,0,0-1,.24A8.84,8.84,0,0,1,40.56,95c-.29.17,0,.58.31.43L42,94.77a9.29,9.29,0,0,0,1.29-.68c.23-.21.61,1.18.87,1.4a.83.83,0,0,0,1.16-.19,1.74,1.74,0,0,0,.3-1.8" fill="#d3d2d0"/><path id="path12860" d="M12.45,77.57h0l.19-.24-.19.24" fill="#ded8cd"/><path id="path12862" d="M26.92,85.74c-.54,0-1.09,0-1.63,0-1.66-.08-5.89-.37-5.12-3l-.11-.18a24.91,24.91,0,0,1-4.9-2.64c-1-.67-1.78-1.56-2.71-2.29l.19-.24h0l.17-.39,1.16.75c.78.53,1.49,1.12,2.22,1.71h0c.55.43,1.1.86,1.69,1.24A20,20,0,0,0,21,82.28v.13h0v.13h0v.08a1.5,1.5,0,0,0,.51,1.08h0a3.4,3.4,0,0,0,1.65.51c.85.12,1.71.17,2.57.25.54,0,1.08.13,1.6.13a3,3,0,0,0,.9-.12v.37a4.11,4.11,0,0,0,.07.86q-.7,0-1.41,0" fill="#8a877b"/><path id="path12864" d="M57.09,71.84l.5-.7c.6-.84,1.21-1.67,1.78-2.51a8.77,8.77,0,0,0,.86-1.48h0a8.77,8.77,0,0,1-.86,1.48c-.57.84-1.18,1.67-1.78,2.51l-.5.7" fill="#a2a197"/><path id="path12866" d="M35.85,84.79c0-.31,0-.62,0-.93h0a6.85,6.85,0,0,1-.76-.16,7,7,0,0,0,1.87.24,12.64,12.64,0,0,0,1.7-.13c1.14-.17,2.66-.33,3.32-1.41.15-.25.29-.52.43-.79l.15-.09h0c.75-.47,1.54-.88,2.29-1.33,1-.64,2-1.38,3-2.05h0c2-1.38,4.17-2.69,6.12-4.2A29,29,0,0,0,59,68.83c.43-.55.86-1.11,1.26-1.68a8.77,8.77,0,0,1-.86,1.48c-.57.84-1.18,1.67-1.78,2.51l-.5.7A50.43,50.43,0,0,1,53.79,76a22.94,22.94,0,0,1-2.3,1.72,23.37,23.37,0,0,1-5,2.41,10.44,10.44,0,0,0-2.26.86,9.75,9.75,0,0,0-1.43,1.51A6.77,6.77,0,0,1,40,83.83c-1.12.34-2.26.59-3.41.82l-.75.14M29,84.15h0m0,0a1.74,1.74,0,0,0,.22-.18,12.85,12.85,0,0,0,1.33-1.69c.24-.32.49-.63.74-.94a10.61,10.61,0,0,0,3,2h0a10.61,10.61,0,0,1-3-2c-.25.31-.5.62-.74.94A12.85,12.85,0,0,1,29.18,84a1.74,1.74,0,0,1-.22.18" fill="#8a877b"/><path id="path12868" d="M60,39.22c4.74-5.13,7.17-12.15,8.61-18.86,1-4.63,2.71-9.47,2.29-14.26a6.59,6.59,0,0,0-1.24-3.7c-.75-.91-1.69-.63-2.42,0q-6.07,2.46-11.9,5.47a77.24,77.24,0,0,0-9.39,5.38,24.09,24.09,0,0,0-7.23,7.54c-2,3.47-2.89,7.56-3.45,11.49-.37,2.61-.57,5.23-.77,7.85a8.4,8.4,0,0,0-2.94-.22l-.94.11c-.23-1.87-.6-3.73-.84-5.59-.31-2.39-.6-4.78-.85-7.17a26.19,26.19,0,0,0-1.19-5.94,17.47,17.47,0,0,0-2.93-5.18,50.46,50.46,0,0,0-9.4-8.4C13.53,6.43,11.61,5.25,9.72,4,8.36,3.13,7.17,2.06,5.84,1.12A4.48,4.48,0,0,0,2.5.06h0A1.65,1.65,0,0,0,.86,1.47,8.48,8.48,0,0,0,.74,2.91,68.42,68.42,0,0,0,.09,16.48a67.51,67.51,0,0,0,.74,7.1c.33,2.19.84,4.34,1.24,6.51a23.68,23.68,0,0,0,1.56,5.68A10.72,10.72,0,0,0,7,39.88a24.39,24.39,0,0,0,4.68,2.62,50.77,50.77,0,0,0,5.81,2.41A36.23,36.23,0,0,0,21.61,46c-.39.63-.76,1.28-1.1,1.93a59.76,59.76,0,0,0-2.7,6,8.49,8.49,0,0,0-8.54.59v0L9,54.61l0,.13a3.53,3.53,0,0,1,1.62.09c-.41.08-.82.18-1.23.27a10.67,10.67,0,0,0-5.48,3.08l-.1,0,0,.18A6.61,6.61,0,0,1,6,58.34a11.61,11.61,0,0,0-4.47,6.59c-.58,2.93,2.49,5,4.39,6.65,1.26,1.1,2.46,2.28,3.8,3.28s2.87,1.88,4.3,2.83,2.53,2.06,3.91,3A20,20,0,0,0,21,82.28a1.65,1.65,0,0,0,.51,1.43,3.51,3.51,0,0,0,1.65.51c.85.12,1.71.17,2.57.25,1.23.11,2.44.4,3.42-.51a12.85,12.85,0,0,0,1.33-1.69c.24-.32.49-.63.74-.94a10.61,10.61,0,0,0,3,2,7.58,7.58,0,0,0,4.44.42c1.14-.16,2.66-.32,3.32-1.4.15-.25.29-.52.43-.79.79-.51,1.63-.94,2.44-1.43,1-.64,2-1.38,3-2.05,2-1.38,4.17-2.69,6.12-4.2A29,29,0,0,0,59,68.83,17.3,17.3,0,0,0,62.36,63a.21.21,0,0,0-.12-.25,1.08,1.08,0,0,0,0-.59,9.82,9.82,0,0,0-1-2.37,6.7,6.7,0,0,0-2.76-2.67c.71-.07,1.43,0,2.15-.06a.24.24,0,0,0,.14-.41,10.21,10.21,0,0,0-8.77-2.11,8.55,8.55,0,0,1,1.33-1,.22.22,0,0,0-.09-.4,7.8,7.8,0,0,0-4.26.95,12.72,12.72,0,0,0-1.16.6c-.64-1.46-1.4-2.87-2.14-4.28-.54-1-1.16-2-1.62-3.11-.07-.17-.15-.34-.23-.51,6.07-.77,11.91-3,16.19-7.56" fill="#bfc2be"/><path id="path12870" d="M14,61.37c.83-1.57,2.61-2.66,4-3.58a18.68,18.68,0,0,1,3.39-1.66c.7-.27,1.46-.38,2.16-.68s.54-.66.59-1.19a4.45,4.45,0,0,1,1.43-2.79,2.16,2.16,0,0,1,1.35-.71h0c.68,0,.87.89.91,1.4a24.66,24.66,0,0,1-.15,2.72l.12.14h0a5.37,5.37,0,0,0,.7,0,28.25,28.25,0,0,0,2.9-.32c.5,0,1-.08,1.52-.08a14.68,14.68,0,0,1,2.49.21l.12,0,.06-.16,0-.06c-.35-.5-.18-1.35-.18-1.94s0-1.84.85-2.12a1,1,0,0,1,.3,0c.79,0,1.63.89,2.07,1.4a3.19,3.19,0,0,1,.87,2.78h0c-.16,0-.23.25,0,.29h0a.13.13,0,0,0,.13.11.16.16,0,0,0,.12-.06,14,14,0,0,1,5.14,2,15.65,15.65,0,0,1,2,1.58A19.3,19.3,0,0,0,44,57.18l.27,0,0-.12a37.35,37.35,0,0,0-7-1.46,1.31,1.31,0,0,0,.33-.41c.36-.66-.43-3.1-1.13-3.38a.53.53,0,0,0-.2,0c-.5,0-.52,1-.44,2.39a2.78,2.78,0,0,0,.35,1.34c-1.28-.12-2.57-.17-3.85-.17-1.06,0-2.12,0-3.17.11s-1.81.15-2.7.29A2.31,2.31,0,0,0,27,54.35C27.1,53,27.09,52,26.59,52a.46.46,0,0,0-.21,0c-.7.28-1.49,2.72-1.13,3.38a1,1,0,0,0,.52.51A22.45,22.45,0,0,0,16,60h0c-.71.43-1.39.9-2.05,1.39m33-2.71h0" fill="#a2a197"/><path id="path12872" d="M1.49,64.89a8.06,8.06,0,0,1,.39-1.33,8.06,8.06,0,0,0-.39,1.33m.4-1.34v0" fill="#ded8cd"/><path id="path12874" d="M62.21,62.12a2.78,2.78,0,0,0-.12-.38,2.78,2.78,0,0,1,.12.38" fill="#8a877b"/><path id="path12876" d="M24.6,82.78A3,3,0,0,1,22.34,82a2.73,2.73,0,0,1-.52-.91V81c0-1,.05-2.08.11-3.12-.14.47-.28.94-.4,1.41,0-.13,0-.26,0-.39a1.78,1.78,0,0,1-.73,1,2,2,0,0,1-.92.2A9.71,9.71,0,0,1,18,79.84c-.6-.13-1.2-.28-1.8-.44-.73-.59-1.44-1.18-2.22-1.71-1.43-1-2.93-1.8-4.3-2.83s-2.54-2.18-3.8-3.28c-1.74-1.52-4.46-3.38-4.46-5.93a4.39,4.39,0,0,1,.07-.72s0,0,0,0a8.06,8.06,0,0,1,.39-1.33h0v0a11.55,11.55,0,0,1,2.42-3.71c-.53,1.3-1.16,2.51-.92,4A5.14,5.14,0,0,0,6,67.2a18.84,18.84,0,0,0,2.14,1.11c.93.45,1.83,1,2.74,1.47a13.88,13.88,0,0,0,5.3,2h.14c1.25,0,2-1.12,2.49-2.13a11.21,11.21,0,0,1,1-1.79s0,0,0,.08h0a1.69,1.69,0,0,0,0,.23A4.35,4.35,0,0,0,20,69.51a8.5,8.5,0,0,0,2.73,4.74,13.14,13.14,0,0,0,7.56,3l.15.15c-.07,1.66.17,2.83-1.13,4.22a3.29,3.29,0,0,1-2.85,1c-.55,0-1.22.09-1.88.09m11.64-.29a3.63,3.63,0,0,1-3-1.18,7.16,7.16,0,0,1-1.26-4l.15-.15a9.85,9.85,0,0,0,7.38-3.08,10.64,10.64,0,0,0,2.54-6.25,3.26,3.26,0,0,0,.1-.77,6.26,6.26,0,0,1,.89,2.09,3.58,3.58,0,0,0,1.75,2.44,2.58,2.58,0,0,0,.95.17,7,7,0,0,0,2.2-.5,36.65,36.65,0,0,0,9.53-4.81c.71-.51,1.38-1.08,2.08-1.6a8.85,8.85,0,0,0,1.64-1.41,3,3,0,0,0,.69-2.18l.17.45.12.38h0a1.24,1.24,0,0,1,0,.33,1.1,1.1,0,0,1,0,.26h0a.22.22,0,0,1,.13.18s0,0,0,.07a11.39,11.39,0,0,1-1.46,3.19A32.58,32.58,0,0,1,59,68.83,29,29,0,0,1,54,73.93c-1.95,1.51-4.07,2.82-6.12,4.2,1-.65,1.94-1.28,2.9-1.92-1,.56-2.1,1.06-3.17,1.58a4.81,4.81,0,0,1-2,.66,1.92,1.92,0,0,1-1-.29,17.51,17.51,0,0,1-2-1.7l-.24-.25a.41.41,0,0,1,0,.09l-.06,0a2.68,2.68,0,0,1,.44,1.68A4.14,4.14,0,0,1,41.65,80a6.52,6.52,0,0,1-4.49,2.43c-.3,0-.61.06-.92.06" fill="#a2a197"/><path id="path12878" d="M21,82.28a20,20,0,0,1-3.15-1.64c-.59-.38-1.14-.81-1.69-1.24h0c.55.43,1.1.86,1.69,1.24A20,20,0,0,0,21,82.28h0" fill="#756f62"/><path id="path12880" d="M26.45,83.89h-.54a7,7,0,0,1-2.86-.46,2,2,0,0,1-.7-.37,2.34,2.34,0,0,1-.53-1.93,2.73,2.73,0,0,0,.52.91,3,3,0,0,0,2.26.74c.66,0,1.33-.08,1.88-.09a3.29,3.29,0,0,0,2.85-1c1.3-1.39,1.06-2.56,1.13-4.22l-.15-.15a13.14,13.14,0,0,1-7.56-3A8.5,8.5,0,0,1,20,69.51a8.91,8.91,0,0,0,2.53,3.58,12.54,12.54,0,0,0,7.13,3.32,9.81,9.81,0,0,0,1.09.08c.05.9.16,1.79.17,2.69,0,.74.22,1.13-.17,1.69a11.57,11.57,0,0,1-1.54,1.92,5.5,5.5,0,0,1-1.22.88,3.73,3.73,0,0,1-1.56.22m-4.91-.18A1.5,1.5,0,0,1,21,82.63a1.54,1.54,0,0,0,.51,1.08M36.75,83a5.31,5.31,0,0,1-2.46-.51A8.19,8.19,0,0,1,32,81.07c-.54-.57-.41-1.66-.48-2.4s-.12-1.45-.16-2.17a11.88,11.88,0,0,0,6.89-2.35C40,72.81,41.76,70.69,42,68.4h0l.15-.54a10.59,10.59,0,0,1-2.55,6.25,9.82,9.82,0,0,1-7.38,3.08l-.14.15a7.16,7.16,0,0,0,1.26,4,3.63,3.63,0,0,0,3,1.18c.31,0,.62,0,.92-.06A6.52,6.52,0,0,0,41.65,80a4.14,4.14,0,0,0,1.12-2.07,2.68,2.68,0,0,0-.44-1.68l.06,0c.35.66.71,1.31,1.07,2s-.51,1.65-.86,2.17c-.49.74-1.11,1.79-2,2.11a10.19,10.19,0,0,1-3.06.42l-.82,0M21,82.54v-.26h0a20,20,0,0,1-3.15-1.64c-.59-.38-1.14-.81-1.69-1.24.6.16,1.2.31,1.8.44a9.71,9.71,0,0,0,1.88.31,2,2,0,0,0,.92-.2,1.78,1.78,0,0,0,.73-1c0,.13,0,.26,0,.39-.08.31-.16.62-.22.93A10.33,10.33,0,0,0,21,82.14c0,.13,0,.27,0,.4m21.58-1c.17-.32.34-.63.5-1,.31-.6,1-1.55.78-2.25a5,5,0,0,0-1.27-1.8l0-.05a18.49,18.49,0,0,0,2,1.7,1.92,1.92,0,0,0,1,.29,4.81,4.81,0,0,0,2-.66c1.07-.52,2.13-1,3.17-1.58-1,.64-1.94,1.27-2.9,1.92h0c-1,.67-2,1.41-3,2.05-.75.45-1.54.86-2.29,1.33" fill="#8a877b"/><path id="path12882" d="M37.58,23h0m0,0c.22-.51.46-1,.72-1.49h0c-.26.49-.5,1-.72,1.49m-9.9-1.61-.06-.15h0l.06.15M70.85,6.1q0-.25-.06-.54,0,.29.06.54m-.06-.55h0" fill="#ded8cd"/><path id="path12884" d="M47.41,55.65a3.77,3.77,0,0,0-.79-1.54c-.31-.61-.55-1.26-.81-1.89-.34-.83-.78-1.63-1.18-2.45a27.52,27.52,0,0,0-2.82-4.72,13,13,0,0,0-4.27-3.59,10.39,10.39,0,0,0-2.83-1,5.68,5.68,0,0,0-1.16-.1H32.37l-.65,0-.32,0-.12,0a9.51,9.51,0,0,0-3,.53,11,11,0,0,0-4.91,3.75,38.17,38.17,0,0,0-3.19,5.6c-.48.87-1,1.71-1.49,2.59A5.52,5.52,0,0,0,18,54.5,16,16,0,0,0,13.74,53H14a7,7,0,0,1,1,.07,8.63,8.63,0,0,1,2.75.82,59.76,59.76,0,0,1,2.7-6c.34-.65.71-1.3,1.1-1.93h0a36.23,36.23,0,0,1-4.13-1.06,50.77,50.77,0,0,1-5.81-2.41A24.39,24.39,0,0,1,7,39.88a10.72,10.72,0,0,1-3.36-4.11,23.68,23.68,0,0,1-1.56-5.68c-.4-2.17-.91-4.32-1.24-6.51a67.51,67.51,0,0,1-.74-7.1C0,15.3,0,14.13,0,13a67.78,67.78,0,0,1,.74-10A8.48,8.48,0,0,1,.86,1.47,3.44,3.44,0,0,1,1,1.09,2.56,2.56,0,0,1,2.47.61h0A6.21,6.21,0,0,1,5.91,2.1C8.15,3.76,9.88,6,12,7.81A51,51,0,0,1,19.6,16a32.07,32.07,0,0,1,4.77,10.14,21.7,21.7,0,0,1,.49,3.2c.15,1.27.31,2.54.52,3.8.35,2,.82,4.55,2.42,6l.23,0c.94-1.64.57-3.82.34-5.59-.3-2.29-.4-4.54-.48-6.85-.06-1.82-.13-3.66-.26-5.5l.06.15h0a26.19,26.19,0,0,1,1.19,5.94c.25,2.39.54,4.78.85,7.17.24,1.86.61,3.72.84,5.59l.94-.11c.31,0,.61,0,.91,0a7.59,7.59,0,0,1,2,.26c.2-2.62.4-5.24.77-7.85A36.84,36.84,0,0,1,37.58,23h0c.22-.51.46-1,.72-1.49-.29,1.59-.81,3.17-1.2,4.72a28.7,28.7,0,0,0-.68,5.22,25.23,25.23,0,0,0,0,5.14c.17,1.28.5,2.79,1.68,3.53l.2-.06c1.91-3.24,1.48-7.24,1.47-10.84a18.24,18.24,0,0,1,.83-5.69,16.93,16.93,0,0,1,3-5.17c2.54-3.24,6.17-5.12,9.5-7.41A56.92,56.92,0,0,1,65.2,4.59a10.52,10.52,0,0,1,3.57-1.15,2.9,2.9,0,0,1,.9.14,2,2,0,0,1,.82.51,9.46,9.46,0,0,1,.3,1.46h0q0,.29.06.54h0c.05.51.07,1,.07,1.52,0,4.29-1.47,8.6-2.36,12.74C67.12,27.07,64.69,34.09,60,39.22,55.67,43.83,49.83,46,43.76,46.78h0c.08.17.16.34.23.51.46,1.08,1.08,2.07,1.62,3.11.74,1.41,1.5,2.82,2.14,4.28a12.72,12.72,0,0,1,1.16-.6l.06,0a8.44,8.44,0,0,0-1.56,1.6M42,41.53a1.66,1.66,0,0,0,1.23.39c.19,0,.38,0,.54,0h0A18.09,18.09,0,0,0,47.44,41a34.82,34.82,0,0,0,8.05-3.46C58.89,35.4,61,32,62.77,28.47c1-1.95,2-3.88,2.92-5.87a30.3,30.3,0,0,0,1.88-6.19c.28-1.29.48-2.59.76-3.87a28.29,28.29,0,0,0,.51-3.15c.07-.3.14-.6.2-.91a10.19,10.19,0,0,0,.25-1.94,4,4,0,0,0-.07-.78.65.65,0,0,0-.67-.61,1.83,1.83,0,0,0-.82.24,117.66,117.66,0,0,0-11.06,5.54,45.35,45.35,0,0,0-8.77,6.15,19.56,19.56,0,0,0-5.68,8.56,25.32,25.32,0,0,0-.89,7.19h0c0,1.74.1,3.49.2,5.21.06,1.17.17,2.32.24,3.48a.11.11,0,0,0,.11.1.14.14,0,0,0,.13-.09m-19.92.18a.17.17,0,0,0,.17.16.16.16,0,0,0,.15-.1,8.25,8.25,0,0,0,.64-3.45h0a30.72,30.72,0,0,0-.28-3.43c-.16-1.3-.34-2.6-.51-3.9-.08-.57-.1-1.13-.23-1.69L22,29c-.05-.73-.12-1.46-.19-2.18a20.9,20.9,0,0,0-3.31-9.55,57.88,57.88,0,0,0-7-8.42C8.83,6.23,5.89,4,3.11,1.54l-.1.1L3.26,2a2,2,0,0,0-.71,1.55c-.1,1.06-.12,2.14-.12,3.2,0,2.37,0,4.75,0,7.13v.94A54,54,0,0,0,3.64,27.07a18.82,18.82,0,0,0,2.15,5.56,13.81,13.81,0,0,0,4,4.11,30,30,0,0,0,5.25,2.64,25.75,25.75,0,0,0,6,2h.13a5.21,5.21,0,0,0,.69,0l.23-.11-.06.35v0h0" fill="#a2a197"/><path id="path12886" d="M37,83.94a7,7,0,0,1-1.87-.24h0a7,7,0,0,0,1.87.24,12.64,12.64,0,0,0,1.7-.13c1.14-.17,2.66-.33,3.32-1.41.15-.25.29-.52.43-.79l.15-.1h0l-.15.09c-.14.27-.28.54-.43.79-.66,1.08-2.18,1.24-3.32,1.41a12.64,12.64,0,0,1-1.7.13M21,82.63v-.08h0v.09" fill="#5b5242"/><path id="path12888" d="M21.82,81.13a6.21,6.21,0,0,1-.29-1.84c.12-.47.26-.94.4-1.41-.06,1-.1,2.08-.11,3.12v.13m20.75-4.67-.18-.16,0-.09.23.25" fill="#6a6352"/><path id="path12890" d="M27.36,84.6c-.52,0-1.06-.08-1.6-.13-.86-.08-1.72-.13-2.57-.25a3.4,3.4,0,0,1-1.65-.51h0A1.54,1.54,0,0,1,21,82.63v-.09c0-.13,0-.27,0-.4a10.33,10.33,0,0,1,.27-1.92c.06-.31.14-.62.22-.93a6.21,6.21,0,0,0,.29,1.84,2.34,2.34,0,0,0,.53,1.93,2,2,0,0,0,.7.37,7,7,0,0,0,2.86.46h.54A3.73,3.73,0,0,0,28,83.67a5.5,5.5,0,0,0,1.22-.88,11.57,11.57,0,0,0,1.54-1.92c.39-.56.19-1,.17-1.69,0-.9-.12-1.79-.17-2.69h.56c0,.72.09,1.45.16,2.17s-.06,1.83.48,2.4a8.19,8.19,0,0,0,2.32,1.41,5.31,5.31,0,0,0,2.46.51l.82,0a10.19,10.19,0,0,0,3.06-.42c.86-.32,1.48-1.37,2-2.11.35-.52,1.23-1.48.86-2.17s-.72-1.3-1.07-2l.18.16,0,.05a5,5,0,0,1,1.27,1.8c.24.7-.47,1.65-.78,2.25-.16.32-.33.63-.5,1l-.15.1c-.14.27-.28.54-.43.79-.66,1.08-2.18,1.24-3.32,1.41a12.64,12.64,0,0,1-1.7.13,7,7,0,0,1-1.87-.24,7.64,7.64,0,0,1-.87-.32h0a10.61,10.61,0,0,1-3-2c-.25.31-.5.62-.74.94A12.85,12.85,0,0,1,29.18,84a1.74,1.74,0,0,1-.22.18h0a2.43,2.43,0,0,1-.69.33h0a3,3,0,0,1-.9.12" fill="#5b5242"/><path id="path12892" d="M69.22,5.76c-.17-.83-.91-.67-1.49-.37a117.66,117.66,0,0,0-11.06,5.54,45.35,45.35,0,0,0-8.77,6.15,19.56,19.56,0,0,0-5.68,8.56c-1.19,4-.92,8.27-.69,12.4.06,1.17.17,2.32.24,3.48,0,.14.2.13.24,0a2.24,2.24,0,0,0,1.77.36A17.6,17.6,0,0,0,47.44,41a34.82,34.82,0,0,0,8.05-3.46C58.89,35.4,61,32,62.77,28.47c1-1.95,2-3.88,2.92-5.87a30.3,30.3,0,0,0,1.88-6.19c.28-1.29.48-2.59.76-3.87a28.29,28.29,0,0,0,.51-3.15c.07-.3.14-.6.2-.91a7.12,7.12,0,0,0,.18-2.72" fill="#d16050"/><path id="path12894" d="M43.78,41.89h0m0,0a13.15,13.15,0,0,0,2.46-.52l-.21-.12c-1.15-.81-1.48-2.46-1.68-3.75-.62-4-.88-8.4.3-12.32A21.82,21.82,0,0,1,50.77,16c2-1.92,4.58-3.34,6.49-5.38l-.59.33a45.35,45.35,0,0,0-8.77,6.15,19.56,19.56,0,0,0-5.68,8.56,25.32,25.32,0,0,0-.89,7.19h0a25.32,25.32,0,0,1,.89-7.19,19.56,19.56,0,0,1,5.68-8.56,45.35,45.35,0,0,1,8.77-6.15A117.66,117.66,0,0,1,67.73,5.39a1.83,1.83,0,0,1,.82-.24.65.65,0,0,1,.67.61,4,4,0,0,1,.07.78A10.19,10.19,0,0,1,69,8.48c-.06.31-.13.61-.2.91a28.29,28.29,0,0,1-.51,3.15c-.28,1.28-.48,2.58-.76,3.87a30.3,30.3,0,0,1-1.88,6.19c-.88,2-1.94,3.92-2.92,5.87C61,32,58.89,35.4,55.49,37.55A34.82,34.82,0,0,1,47.44,41a18.09,18.09,0,0,1-3.61.87M66.48,8.13a3.48,3.48,0,0,0-2.13,1.06c-5.86,3.14-11.26,8-12.7,14.73-.46,2.15-.81,4.88.45,6.83a3.39,3.39,0,0,0,3,1.52,5.55,5.55,0,0,0,3.26-1.11c3-2.24,4-6.16,5.24-9.47.85-2.24,1.73-4.48,2.37-6.8a15.83,15.83,0,0,0,.68-6.66l-.15-.1" fill="#c2473b"/><path id="path12896" d="M22.77,34.89c-.16-1.3-.34-2.6-.51-3.9-.08-.57-.1-1.13-.23-1.69L22,29c-.05-.73-.12-1.46-.19-2.18a20.9,20.9,0,0,0-3.31-9.55,57.88,57.88,0,0,0-7-8.42C8.83,6.23,5.89,4,3.11,1.54l-.1.1L3.26,2a2,2,0,0,0-.71,1.55c-.1,1.06-.12,2.14-.12,3.2,0,2.37,0,4.75,0,7.13A56,56,0,0,0,3.64,27.07a18.82,18.82,0,0,0,2.15,5.56,13.81,13.81,0,0,0,4,4.11,30,30,0,0,0,5.25,2.64,25.44,25.44,0,0,0,6.17,2,5.21,5.21,0,0,0,.69,0l.23-.11-.06.35a.17.17,0,0,0,.32.1c.95-2.06.62-4.71.36-6.88" fill="#d16050"/><path id="path12898" d="M21.18,41.37h0m0,0h0m0,0a25.75,25.75,0,0,1-6-2,30,30,0,0,1-5.25-2.64,13.81,13.81,0,0,1-4-4.11,18.82,18.82,0,0,1-2.15-5.56A54,54,0,0,1,2.4,14.78v-.94c0-2.38,0-4.76,0-7.13,0-1.06,0-2.14.12-3.2A2,2,0,0,1,3.26,2h0L3,1.64l.1-.1C5.89,4,8.83,6.23,11.42,8.89a57.88,57.88,0,0,1,7,8.42,20.9,20.9,0,0,1,3.31,9.55c.07.72.14,1.45.19,2.18l.07.26c.13.56.15,1.12.23,1.69.17,1.3.35,2.6.51,3.9a30.72,30.72,0,0,1,.28,3.43h0a30.72,30.72,0,0,0-.28-3.43c-.16-1.3-.34-2.6-.51-3.9-.08-.57-.1-1.13-.23-1.69L22,29c-.05-.73-.12-1.46-.19-2.18a20.9,20.9,0,0,0-3.31-9.55c-.42-.64-.87-1.26-1.32-1.86a29.64,29.64,0,0,1,2.14,5,30.56,30.56,0,0,1,1.23,5c.3,2.08.72,4.16.89,6.26a21.25,21.25,0,0,1-.24,5.85A4,4,0,0,1,19,40.48c-.15.09-.31.16-.46.24a18.56,18.56,0,0,0,2.57.64M3.24,4.15c-.32,0-.53.19-.37.77a93.86,93.86,0,0,0,.85,13.29,16.87,16.87,0,0,0,1.69,5.84,10.57,10.57,0,0,0,3.23,3.39A6.12,6.12,0,0,0,12,28.52a3.66,3.66,0,0,0,3.42-2.09c1.14-2.24.83-5.07.74-7.51a8.14,8.14,0,0,0-.58-3.08,12,12,0,0,0-2-2.85c-1.8-2-3.77-3.94-5.76-5.8A21,21,0,0,0,4.31,4.52a2.41,2.41,0,0,0-1.07-.37" fill="#c2473b"/><path id="path12900" d="M43.82,41.88h0" fill="#957a6e"/><path id="path12902" d="M43.24,41.92A1.66,1.66,0,0,1,42,41.53a.14.14,0,0,1-.13.09.11.11,0,0,1-.11-.1c-.07-1.16-.18-2.31-.24-3.48-.1-1.72-.2-3.47-.2-5.21a25.32,25.32,0,0,1,.89-7.19,19.56,19.56,0,0,1,5.68-8.56,45.35,45.35,0,0,1,8.77-6.15l.59-.33c-1.91,2-4.48,3.46-6.49,5.38a21.82,21.82,0,0,0-6.07,9.19c-1.18,3.92-.92,8.34-.3,12.32.2,1.29.53,2.94,1.68,3.75l.21.12a13.15,13.15,0,0,1-2.46.52h0c-.16,0-.35,0-.54,0" fill="#b2372d"/><path id="path12904" d="M21.92,41.43a5.21,5.21,0,0,1-.69,0h0a5.21,5.21,0,0,0,.69,0l.23-.11-.23.11m-.75-.06h0m-.06,0h0" fill="#957a6e"/><path id="path12906" d="M22.26,41.87a.17.17,0,0,1-.17-.16v0l.06-.35-.23.11a5.21,5.21,0,0,1-.69,0H21.1a18.56,18.56,0,0,1-2.57-.64c.15-.08.31-.15.46-.24a4,4,0,0,0,2.17-2.94,21.25,21.25,0,0,0,.24-5.85c-.17-2.1-.59-4.18-.89-6.26a30.56,30.56,0,0,0-1.23-5,29.64,29.64,0,0,0-2.14-5c.45.6.9,1.22,1.32,1.86a20.9,20.9,0,0,1,3.31,9.55c.07.72.14,1.45.19,2.18l.07.26c.13.56.15,1.12.23,1.69.17,1.3.35,2.6.51,3.9a30.72,30.72,0,0,1,.28,3.43,8.25,8.25,0,0,1-.64,3.45.16.16,0,0,1-.15.1" fill="#b2372d"/><path id="path12908" d="M42,66.66c-1.65-2-4.36-3-6.81-3.46a18.42,18.42,0,0,0-8.32.34,23.53,23.53,0,0,0-4.59,1.73c-.9.46-2.76,1.43-2.47,2.72-.12,2,1.34,3.82,2.73,5.1a12.54,12.54,0,0,0,7.13,3.32,11.89,11.89,0,0,0,8.54-2.26C40,72.81,41.76,70.69,42,68.4c.21-.69.41-1.59.06-1.74" fill="#d16050"/><path id="path12910" d="M31.12,76.5a11.6,11.6,0,0,1-1.44-.09,12.54,12.54,0,0,1-7.13-3.32c-1.34-1.23-2.74-3-2.74-4.87a1.69,1.69,0,0,1,0-.23h0a1.29,1.29,0,0,1,.09-.8c.75,2.67,5.59,3,7.8,3.09.5,0,1,0,1.5,0a42.39,42.39,0,0,0,5.63-.4A19.69,19.69,0,0,0,40,68.75a5.69,5.69,0,0,0,2.18-1.92A3.12,3.12,0,0,1,42,68.4h0c-.19,2.29-1.94,4.41-3.73,5.75a11.88,11.88,0,0,1-7.1,2.35" fill="#c2473b"/><path id="path12912" d="M27,54.35c.09-1.54.06-2.63-.64-2.34s-1.49,2.72-1.13,3.38a.85.85,0,0,0,1.22.45c.4-.17.52-1,.55-1.49" fill="#1b1712"/><path id="path12914" d="M26,52.46c-.36.48-.32.88-.16,1.06s.39-.13.51-.65.14-1.06-.35-.41" fill="#d3d2d0"/><path id="path12916" d="M24.65,50.24c-.15,0-.18-.68-.2-.91a7.2,7.2,0,0,1,.43-1.87,3.91,3.91,0,0,0-.14,1c0,.17-.09.31,0,.31a1.71,1.71,0,0,0,.34-.2,2.15,2.15,0,0,1,1.09-.46,1.11,1.11,0,0,1,.49.12,3.33,3.33,0,0,0,.86.34c.14,0,.16-.12.05-.42,0,0-.59-2-1.52-2h0c.93,0,1.52,2,1.52,2,.49,1.26.38,1.69.09,1.69a1.16,1.16,0,0,1-.7-.46.75.75,0,0,0-.61-.27,2,2,0,0,0-1.49.93c-.06.13-.12.18-.16.18" fill="#93958a"/><path id="path12918" d="M24.88,47.46c.16-.54.45-1.12,1-1.23-.43.09-.76.63-1,1.23" fill="#767767"/><path id="path12920" d="M24.69,48.79s.06-.14,0-.31a3.91,3.91,0,0,1,.14-1c.24-.6.57-1.14,1-1.23H26c.93,0,1.52,2,1.52,2,.11.3.09.42-.05.42a3.33,3.33,0,0,1-.86-.34,1.11,1.11,0,0,0-.49-.12,2.15,2.15,0,0,0-1.09.46,1.71,1.71,0,0,1-.34.2" fill="#5b5a4b"/><path id="path12922" d="M36,54.2c-.09-1.53-.06-2.62.64-2.34s1.49,2.72,1.13,3.38a.85.85,0,0,1-1.22.45c-.4-.16-.52-1-.55-1.49" fill="#1b1712"/><path id="path12924" d="M36.19,52.37c-.11.6.11.94.32,1s.3-.3.18-.82-.35-1-.5-.22" fill="#d3d2d0"/><path id="path12926" d="M38.33,50.09s-.09-.05-.16-.18A1.93,1.93,0,0,0,36.69,49a.77.77,0,0,0-.61.27,1.18,1.18,0,0,1-.71.46c-.28,0-.39-.43.09-1.69,0,0,.59-2,1.52-2l.12,0h0l-.12,0c-.93,0-1.52,2-1.52,2-.1.31-.09.43,0,.43a3.08,3.08,0,0,0,.86-.34,1.2,1.2,0,0,1,.49-.13,2.21,2.21,0,0,1,1.09.46,2.12,2.12,0,0,0,.34.2s-.06-.13,0-.31a4.63,4.63,0,0,0-.15-1,7.16,7.16,0,0,1,.43,1.88c0,.23,0,.9-.2.9" fill="#93958a"/><path id="path12928" d="M38.1,47.31c-.24-.61-.57-1.14-1-1.22.55.1.84.67,1,1.22" fill="#767767"/><path id="path12930" d="M38.29,48.64a2.12,2.12,0,0,1-.34-.2A2.21,2.21,0,0,0,36.86,48a1.2,1.2,0,0,0-.49.13,3.08,3.08,0,0,1-.86.34c-.14,0-.15-.12,0-.43,0,0,.59-2,1.52-2l.12,0h0c.43.08.76.61,1,1.22a4.63,4.63,0,0,1,.15,1c0,.18.08.31,0,.31" fill="#5b5a4b"/><path id="path12932" d="M16.09,60.1,16,60a31.6,31.6,0,0,1,16.3-4.44h.11c1.4,0,2.8.06,4.19.19a1,1,0,0,0,.35.07l.16,0,.86.1A28.42,28.42,0,0,1,43.4,57l.64.23a68,68,0,0,0-12-1.34c-.88,0-1.77,0-2.66.09a29.49,29.49,0,0,0-7.15,1.27,29.32,29.32,0,0,0-6.09,2.9" fill="#767767"/><path id="path12934" d="M16,60h0a22.45,22.45,0,0,1,9.77-4.07A.74.74,0,0,0,26,56a1.19,1.19,0,0,0,.45-.11l.12-.07c.89-.14,1.79-.23,2.7-.29s2.11-.11,3.17-.11c1.28,0,2.57.05,3.85.17a.55.55,0,0,0,.2.15l.1,0c-1.39-.13-2.79-.19-4.19-.19h-.11A31.6,31.6,0,0,0,16,60m28.3-2.75-.27,0L43.4,57A28.42,28.42,0,0,0,38,55.88l-.86-.1a.65.65,0,0,0,.28-.13,37.35,37.35,0,0,1,7,1.46l0,.12" fill="#646353"/><path id="path12936" d="M26,56a.74.74,0,0,1-.25-.05l.82-.13-.12.07A1.19,1.19,0,0,1,26,56" fill="#181511"/><path id="path12938" d="M37,55.8a1,1,0,0,1-.35-.07l-.1,0a.55.55,0,0,1-.2-.15l1.09.11a.65.65,0,0,1-.28.13l-.16,0" fill="#181511"/><path id="path12940" d="M31.25,81.33c-.25.31-.5.62-.74.94A12.85,12.85,0,0,1,29.18,84a2.25,2.25,0,0,1-.92.52,3.41,3.41,0,0,0,.35,2c.71,1.08,2.35.5,3.29.22l0-.11.12-.07,0,0c.63.72,2.18,0,2.87-.18s.8-.74.88-1.34a9.45,9.45,0,0,0,.07-1.07,6.14,6.14,0,0,1-1.63-.48,10.61,10.61,0,0,1-3-2" fill="#d3d2d0"/><path id="path12942" d="M35.83,85h0" fill="#8a877b"/><path id="path12944" d="M28.77,86.63l-.16-.2h0a2.12,2.12,0,0,1-.28-.72,4.11,4.11,0,0,1-.07-.86v-.37a2.25,2.25,0,0,0,.92-.52,12.85,12.85,0,0,0,1.33-1.69c.24-.32.49-.63.74-.94a10.61,10.61,0,0,0,3,2,6.14,6.14,0,0,0,1.63.48,9.45,9.45,0,0,1-.07,1.07h0v0h0c0,.12,0,.24-.07.35-.06-.21-.13-.43-.21-.64l-.18-.1-.23,0a3.36,3.36,0,0,1-1.41-.51,3.17,3.17,0,0,0-1.32-.52c-.32,0-.6.19-.8.72a1.1,1.1,0,0,0-.91-.51c-.57,0-1.13.56-1.54.9s-.8.66-.74,1.09a2.28,2.28,0,0,0,.35.87" fill="#b2ada4"/><path id="path12946" d="M35.4,83.82c0,.54.06,1.51-.39,1.89-.14.13-.52.15-.71.19s-.46.23-.7.3A2,2,0,0,1,32,86c-.11-.93-.23-1.85-.26-2.78,0-.48,0-1,0-1.44a4.49,4.49,0,0,1-.46-.41,14.14,14.14,0,0,0,.54,4.83,2.08,2.08,0,0,0-.5.24,2.45,2.45,0,0,1-.65.24c-.75,0-1.52-.06-1.83-.7a3.6,3.6,0,0,1-.22-1.6l-.35.13a3.41,3.41,0,0,0,.35,2c.71,1.08,2.35.5,3.29.22l0-.11.12-.07,0,0c.63.72,2.18,0,2.87-.18s.8-.74.88-1.34a9.45,9.45,0,0,0,.07-1.07l-.5-.1v.06" fill="#a19f89"/><path id="path12948" d="M28.41,79.54a6,6,0,0,0-2.14-.87c-1.07-.26-2.14-.49-3.22-.65a11.94,11.94,0,0,0-2.74-.13,24.74,24.74,0,0,1-3.44.22l0,.08c2,.17,3.9,0,5.85.23a54.07,54.07,0,0,1,5.63,1.31l.08-.19" fill="#3c2816"/><path id="path12950" d="M26.82,80.09a6.36,6.36,0,0,0-2.2-.5,20.72,20.72,0,0,0-2.73-.14,21.64,21.64,0,0,0-5.55.74v0a26.31,26.31,0,0,1,5.32-.37c1,0,1.92.07,2.88.14a18.62,18.62,0,0,1,2.25.19l0-.1" fill="#3c2816"/><path id="path12952" d="M27.69,81.55c-3.78-.34-7.27,1.83-10.42,3.63l.05.09C20.57,83.63,24,82,27.69,81.67v-.12" fill="#3c2816"/><path id="path12954" d="M47.42,75.37a12.84,12.84,0,0,0-4.87,1,49.39,49.39,0,0,0-5.16,2c-.28.13-.12.61.17.47,1.52-.73,3.12-1.28,4.69-1.88a15.46,15.46,0,0,1,5.17-1.47v-.11" fill="#3c2816"/><path id="path12956" d="M46.6,78.24c-1.45.17-2.92.09-4.35.39s-2.85.48-4.26.79c-.23,0-.15.46.09.42,1.32-.26,2.65-.49,4-.79,1.52-.35,3-.45,4.57-.7v-.11" fill="#3c2816"/><path id="path12958" d="M46.7,82a15.19,15.19,0,0,0-4-1.14,22.17,22.17,0,0,0-4.12-.55l0,.23a14.94,14.94,0,0,0,3.83.61,22.53,22.53,0,0,1,4.29.95l.05-.1" fill="#3c2816"/><path id="path12960" d="M27.73,66.8c-1.05,0-2.7-.1-2.63-1,0-.45.71-.71,1.14-.85a14.38,14.38,0,0,1,2.85-.56c1-.11,2-.18,3-.19h.56a4.93,4.93,0,0,1,.55,0,4.46,4.46,0,0,1,1.57.22c.37.14.8.47.58.85a2,2,0,0,1-1.11.66,19.92,19.92,0,0,1-5.87.81h-.65" fill="#fab6a2"/><path id="path12962" d="M36.93,66.29c-1,0-1.26-.34-1.06-.68a1.82,1.82,0,0,1,1.46-.68,1.49,1.49,0,0,1,.87.27c.77.53-.18,1-.83,1.08h-.44" fill="#fab6a2"/><path id="path12964" d="M49.81,60.36a27.77,27.77,0,0,0-17.19-4.55c-6.18.27-12.8,1.57-17.59,5.74l.12.17c5.15-2.87,11.21-4,17.05-4.38a34.77,34.77,0,0,1,9,.54c2.91.56,5.57,2,8.35,2.9.25.09.53-.25.27-.42" fill="#d3d2d0"/><path id="path12966" d="M52.34,53.57a5.82,5.82,0,0,0-5.08,2.92l.15.1c1.3-1.53,3.13-2.18,5-2.81.12,0,.07-.21,0-.21" fill="#d3d2d0"/><path id="path12968" d="M59.69,56.38a7,7,0,0,0-8.66-1l.06.12c2.72-1.26,6-.38,8.47,1.13.13.08.22-.12.13-.21" fill="#d3d2d0"/><path id="path12970" d="M59.64,58.07a4.45,4.45,0,0,0-3.57-1.18v.16a6.58,6.58,0,0,1,3,1.29,7.75,7.75,0,0,1,2.12,3.14.15.15,0,0,0,.29-.06,6.26,6.26,0,0,0-1.79-3.35" fill="#d3d2d0"/><path id="path12972" d="M7.18,58.38A4.22,4.22,0,0,0,4,61.52l.1,0a11.89,11.89,0,0,1,1.28-1.73,9.65,9.65,0,0,1,1.88-1.26l-.07-.2" fill="#d3d2d0"/><path id="path12974" d="M11.88,55.28c-2.51-.78-5.6,1-7.36,2.67l.11.12a16.1,16.1,0,0,1,7.24-2.45.17.17,0,0,0,0-.34" fill="#d3d2d0"/><path id="path12976" d="M18.11,55.06c-2.39-2.05-5.35-1.82-8.1-.71l.05.14a12,12,0,0,1,7.92.77.12.12,0,0,0,.13-.2" fill="#d3d2d0"/><path id="path12978" d="M26.85,21.38a13.87,13.87,0,0,0-3.36-5.63,66,66,0,0,0-4.84-4.91A55.71,55.71,0,0,0,12,5.93L11.92,6C15.51,9.26,19,12.45,22.3,16a17.37,17.37,0,0,1,3.44,5.28,23.83,23.83,0,0,1,1.35,8.12h.15a33.86,33.86,0,0,0-.39-8" fill="#d3d2d0"/><path id="path12980" d="M61.08,5.23C58,6.64,55.21,8.55,52.19,10.07a40.49,40.49,0,0,0-8.25,5.38,17.76,17.76,0,0,0-5.15,6.63,22.72,22.72,0,0,0-1.32,8.34c0,.12.2.13.21,0a29.67,29.67,0,0,1,2-8c1.23-3,3.62-5.18,6.07-7.16,4.73-3.84,10.21-6.83,15.5-9.8.15-.09,0-.35-.14-.28" fill="#d3d2d0"/><path id="path12982" d="M31,41.58a14,14,0,0,1,7.42,1.7A21.29,21.29,0,0,1,41,44.73a11.5,11.5,0,0,0-3.09-2.64,13,13,0,0,0-6.16-1.56,9,9,0,0,0-7.2,3.68A13.11,13.11,0,0,1,31,41.58" fill="#d3d2d0"/></g></g></g></g></svg>